<svg id="logo" xmlns="http://www.w3.org/2000/svg" viewBox="0 0 149.85 43.6"><defs><style>.cls-1{fill:#fff;}.cls-1,.cls-2{fill-rule:evenodd;}.cls-2{fill:#3b6be3;}</style></defs><g id="g14"><polygon id="polygon2" class="cls-1" points="69.32 39.6 78.26 39.6 78.26 3.94 69.32 3.94 69.32 39.6"/><path id="path4" class="cls-1" d="M100.45,32.09c5.68,0,9.85-4.87,9.85-10.33a9.87,9.87,0,0,0-19.73-.63q0,.32,0,.63a10.11,10.11,0,0,0,9.88,10.33m.07-29.29c10.71,0,19.33,8.22,19.33,18.89A19.14,19.14,0,0,1,100.68,40.8h-.25A19.07,19.07,0,0,1,81,21.8a19.21,19.21,0,0,1,19.44-19h.08m20.36,26,8.2-1.93c.59,4.29,3.74,5.84,7,5.84s4.49-1.93,4.49-3.44c0-1.21-.7-2.4-3.11-2.87l-5-1c-6-1.15-10.22-4.87-10.22-10.59,0-6.82,6.28-11.62,13.37-11.62,9.13,0,12.89,5.66,13.54,10.39l-8,2.24c-.43-2.91-2.24-5-5.55-5-2.85,0-4.21,1.88-4.21,3.32a2.88,2.88,0,0,0,2.69,3l5.21,1c6.82,1.31,10.56,5.43,10.56,10.79,0,5.83-5.07,11.44-13.77,11.44-9.11,0-14-4.73-15.2-11.53"/><polygon id="polygon6" class="cls-2" points="9.62 39.6 0 39.6 15.9 3.94 25.57 3.94 9.62 39.6"/><polygon id="polygon8" class="cls-1" points="43.45 3.92 32.37 3.92 44.47 21.37 37.74 31.14 25.61 3.94 15.94 3.94 31.89 39.6 42.21 39.6 49.74 28.29 57.19 39.6 67.62 39.6 55.17 21.37 67.11 3.92 56.19 3.92 49.74 14.48 43.45 3.92"/></g></svg>