<svg id="Слой_1" data-name="Слой 1" xmlns="http://www.w3.org/2000/svg" viewBox="0 0 256 256"><defs><style>.cls-1{fill:#fff;}.cls-2{fill:#d0021b;}</style></defs><path class="cls-1" d="M78.07,150.59a23.21,23.21,0,1,0-23.21-23.21A23.21,23.21,0,0,0,78.07,150.59ZM23.21,197A23.21,23.21,0,1,0,0,173.8,23.21,23.21,0,0,0,23.21,197Zm209.58,0a23.21,23.21,0,1,0-23.21-23.21A23.21,23.21,0,0,0,232.79,197Z"/><path class="cls-2" d="M156.57,128.36c-.75-7.76-1.12-14.21-7.06-18.75-7.53-5.74-16-2-26.55-5.8A23.21,23.21,0,0,1,128.63,58a23.65,23.65,0,0,1,21.63,13.88c5.6,10.64,2,21.47,9,26.92,8.33,6.46,19.57,1.73,32.1,7.85a23.58,23.58,0,0,1,9.84,8.43,22.88,22.88,0,0,1,3.8,12.64,23.34,23.34,0,0,1-18,22.57c-10.5,3.78-19,.06-26.55,5.8-8.45,6.46-3.93,17.27-10.82,28.68A23.7,23.7,0,0,1,105,174.2a23.21,23.21,0,0,1,13.64-21.07c12.53-6.12,23.77-1.39,32.1-7.85C155.55,141.56,156.57,135.81,156.57,128.36Z"/></svg>