<svg id="Слой_1" data-name="Слой 1" xmlns="http://www.w3.org/2000/svg" xmlns:xlink="http://www.w3.org/1999/xlink" viewBox="0 0 1014.55 1315.75"><defs><style>.cls-1,.cls-14,.cls-2,.cls-29,.cls-6,.cls-7{fill:#1a2e35;}.cls-1,.cls-10,.cls-11,.cls-12,.cls-2,.cls-23,.cls-24,.cls-26,.cls-29,.cls-30,.cls-31,.cls-33,.cls-36,.cls-4,.cls-5,.cls-6,.cls-8,.cls-9{stroke:#1a2e35;}.cls-1,.cls-10,.cls-11,.cls-12,.cls-13,.cls-17,.cls-18,.cls-22,.cls-23,.cls-27,.cls-28,.cls-29,.cls-33,.cls-36,.cls-4,.cls-5,.cls-6,.cls-8,.cls-9{stroke-linecap:round;stroke-linejoin:round;}.cls-2,.cls-24,.cls-26,.cls-30,.cls-31,.cls-35{stroke-miterlimit:10;}.cls-3{fill:#233554;}.cls-30,.cls-34,.cls-4{fill:#3696e6;}.cls-11,.cls-12,.cls-13,.cls-17,.cls-26,.cls-27,.cls-28,.cls-31,.cls-36,.cls-5{fill:none;}.cls-5,.cls-6{stroke-width:1.2px;}.cls-32,.cls-7{opacity:0.2;}.cls-8{fill:#858585;}.cls-18,.cls-9{fill:#999;}.cls-10,.cls-19,.cls-21,.cls-22,.cls-23,.cls-33,.cls-35{fill:#fff;}.cls-11,.cls-17,.cls-18,.cls-23{stroke-width:0.75px;}.cls-13,.cls-17,.cls-18,.cls-22,.cls-28{stroke:#fff;}.cls-15{clip-path:url(#clip-path);}.cls-16,.cls-24{opacity:0.3;}.cls-20{clip-path:url(#clip-path-2);}.cls-21{opacity:0.4;}.cls-25{clip-path:url(#clip-path-3);}.cls-27{stroke:gray;}.cls-28,.cls-29,.cls-30,.cls-31,.cls-33,.cls-35,.cls-36{stroke-width:1.1px;}.cls-28,.cls-36{stroke-dasharray:4.41;}.cls-35{stroke:#1c1c1b;}.cls-37{fill:#c4c4c4;}</style><clipPath id="clip-path"><path class="cls-1" d="M556,782.31c1.33,5.05,2.69,10,4,14.93,14.28,51.41,32.85,149.25,32.85,149.25,91.4,19.28,187.81,0,187.81,0,.52-21.33-2.07-49.46-5-79,15-4.15,25.8-18,26.39-41,.72-27.85-4.33-78-7.14-101.4-2.47-20.6-.71-32.85-32.62-48.46-16-9.23-42.54-13.6-75.21-17.95-64.27-8.57-110.65,4.41-127.11,11.42C547,666.69,543.34,682,543.34,682c-7.23-5.48-15.62,17.67-15.62,17.67-21.14,27-37.77,72.4-43.3,88.6a18.91,18.91,0,0,1-6.45,8.88c-15,11.44-6.67,25.58-6.67,25.58L502,832.15s14.88,3.87,26.24-15.7C537.76,800.09,553.3,772.34,556,782.31Z"/></clipPath><clipPath id="clip-path-2"><path class="cls-1" d="M691.59,659.3c-2.68-9.4-14.93-12-14.93-12-58.56-10-70.94,11.29-70.94,11.29-11.9,33.18,0,59.88,0,59.88s16.66-6.9,19.52,0,8.09,21.67,8.09,21.67a65.88,65.88,0,0,0,20.47-17.62c9.05-11.9,30.32,0,30.32,0C697.78,698.69,691.59,659.3,691.59,659.3Zm-14.16-.7C654.76,729.78,634.76,733,634.76,733c-6.66-26.19-12.38-20.48-21.42-36.84-7.26-13.12-4.8-29.76-3.55-35.83a5,5,0,0,1,2.58-3.43c22.5-11.46,50-7.24,61.39-4.74A5,5,0,0,1,677.43,658.6Z"/></clipPath><clipPath id="clip-path-3"><rect class="cls-2" x="903.7" y="894.58" width="84.06" height="42.46" transform="translate(1891.45 1831.62) rotate(180)"/></clipPath></defs><rect class="cls-3" x="-0.5" y="-2.5" width="1023" height="1320"/><path class="cls-4" d="M192,653.63s0-14.9-20.87-35.77-34.28-32.79-34.28-32.79-10.44,34.28,8.94,55.15S192,680.46,192,680.46Z"/><path class="cls-4" d="M161.74,746.72s0-14.9-20.87-35.77-34.28-32.79-34.28-32.79-10.43,34.28,8.94,55.15,46.21,40.24,46.21,40.24Z"/><path class="cls-4" d="M190.72,679s1.57-14.82,24.53-33.37,37.55-29,37.55-29,6.76,35.19-14.72,53.89-50.2,35.14-50.2,35.14Z"/><path class="cls-4" d="M154.13,789s3.12-14.58,27.9-30.61,40.39-24.88,40.39-24.88,3,35.71-20.3,52-53.61,29.67-53.61,29.67Z"/><path class="cls-4" d="M161,908.83s0-14.91,20.86-35.78,34.29-32.79,34.29-32.79,10.43,34.28-8.95,55.15S161,935.66,161,935.66Z"/><path class="cls-4" d="M160.66,938.08s2.12-14.75-15.57-38.37-29.28-37.34-29.28-37.34-15.2,32.46,1,55.87,40,46.4,40,46.4Z"/><path class="cls-4" d="M140.08,1024.79s0-14.9,20.87-35.77,34.28-32.79,34.28-32.79,10.44,34.28-8.94,55.15-46.21,40.24-46.21,40.24Z"/><path class="cls-4" d="M154,1103.41s-3.78-14.42,11.12-39.9,24.86-40.4,24.86-40.4,18.78,30.52,5.32,55.61-34.51,50.64-34.51,50.64Z"/><path class="cls-5" d="M193.92,649.81c-1.22,15.94-3,32.42-5.72,46.29-8.25,42.62-28.87,70.11-37.12,108.61s15.43,88.09,9.09,137.54-25.59,76.94-20.09,109.94,34.37,122.36,34.37,122.36"/><line class="cls-5" x1="190.51" y1="688.93" x2="213" y2="671.67"/><line class="cls-5" x1="191.56" y1="669.05" x2="182.14" y2="652.32"/><path class="cls-5" d="M152.33,802.94s18.83-14.12,38.18-28.24"/><path class="cls-5" d="M161.74,773.55s-15.68-30.75-33.47-51.15"/><path class="cls-5" d="M161.74,930A233.19,233.19,0,0,1,202,876.16"/><path class="cls-5" d="M158.08,951s-9.41-22.49-20.39-38.7-12.56-18.31-12.56-18.31"/><path class="cls-5" d="M140.08,1052.19s7.54-19.13,17-34.29a219.33,219.33,0,0,1,22-28.77"/><path class="cls-5" d="M160.81,1129.36s-2.2-17.85,5.64-33,16.74-35,20.4-42.89"/><path class="cls-4" d="M55.37,852.77s-1.61-9.35,9.21-24.7,17.93-24.29,17.93-24.29,10.27,20.37.38,35.56-24.6,30.25-24.6,30.25Z"/><path class="cls-4" d="M84.47,907.86s-1.62-9.35,9.2-24.7,17.94-24.29,17.94-24.29,10.27,20.37.38,35.56-24.61,30.25-24.61,30.25Z"/><path class="cls-4" d="M59,868.55s-2.59-9.13-19-18.27-26.7-14.1-26.7-14.1-.42,22.81,15.08,32.2S63.63,885,63.63,885Z"/><path class="cls-4" d="M93.83,933.51s-3.54-8.8-20.82-16.16-28-11.22-28-11.22,2,22.72,18.38,30.44,36.84,12.79,36.84,12.79Z"/><path class="cls-4" d="M102.53,1009.43s-1.62-9.35-17-20.17S60.5,972.42,60.5,972.42,57.68,995.05,72.1,1006s33.34,20.22,33.34,20.22Z"/><path class="cls-4" d="M105.92,1027.73s-2.93-9,5.6-25.75,14.31-26.59,14.31-26.59,13,18.7,5.43,35.14S111.2,1044,111.2,1044Z"/><path class="cls-4" d="M132.12,1103.13s1.08-9.42,15.79-21.1S172,1063.78,172,1063.78s4.11,22.44-9.65,34.23-32.14,22.09-32.14,22.09Z"/><path class="cls-4" d="M128.24,1079.88s-1.62-9.35-17-20.17-25.06-16.85-25.06-16.85-2.82,22.64,11.6,33.62,33.34,20.22,33.34,20.22Z"/><path class="cls-4" d="M128,1130.68s.8-9.45-11.31-23.8-20-22.64-20-22.64-8.46,21.18,2.71,35.45,27.13,28,27.13,28Z"/><path class="cls-5" d="M53.77,850.58A270.79,270.79,0,0,0,62.38,879c9.8,25.83,25.72,40.84,35.07,64.08s-.11,56.92,9.23,87.23,24.4,45.47,24.53,66.76-8.27,80.47-8.27,80.47"/><line class="cls-5" x1="60.16" y1="874.74" x2="44.18" y2="866.35"/><line class="cls-5" x1="57.34" y1="862.39" x2="61.43" y2="850.87"/><path class="cls-5" d="M96.48,942.09s-13.34-6.81-27-13.57"/><path class="cls-5" d="M87.38,924.68s6.5-21,15.44-35.71"/><path class="cls-5" d="M104.37,1022.8a148.48,148.48,0,0,0-31.1-29.4"/><path class="cls-5" d="M108.94,1035.53s3.46-15.13,8.59-26.49,5.88-12.84,5.88-12.84"/><path class="cls-5" d="M130.49,1113.2s10.59-13,17.18-17.83a91.88,91.88,0,0,0,11.16-9.71"/><path class="cls-5" d="M131.21,1097.05a159,159,0,0,0-14.35-19.66,139.31,139.31,0,0,0-16.9-15.65"/><path class="cls-5" d="M126.59,1147.7s-.55-11.43-7.12-20.09-14.3-20.16-17.44-24.68"/><path class="cls-6" d="M188,1319.41h-87.1a6.86,6.86,0,0,1-6.86-6.86l-21.6-144.24h144l-21.6,144.24A6.86,6.86,0,0,1,188,1319.41Z"/><path class="cls-7" d="M33.58,754.22c-.4-.26-.3-.44,0,0Z"/><path class="cls-1" d="M707.62,1105.54c-26.35,0-102.47-17.2-102.47-17.2H810.08S734,1105.54,707.62,1105.54Z"/><rect class="cls-8" x="684.14" y="1096.94" width="46.96" height="32.18"/><rect class="cls-9" x="677.19" y="1129.12" width="60.85" height="138.41"/><path class="cls-8" d="M821.91,1047.29H782.36c4.4-27.25,7.64-55,9.64-82.53h39.54C829.54,992.28,826.3,1020,821.91,1047.29Z"/><path class="cls-8" d="M882,721H711.51c-20,0-33.15,16.92-29.28,36.86a1296,1296,0,0,1,19.49,184.36c.32,18.06,14.07,32,32.14,32h143.5c18.07,0,34.34-14,36.66-32a1284.21,1284.21,0,0,0,7.48-184.36C920.55,737.92,902,721,882,721Z"/><path class="cls-9" d="M891.26,757.86a1282.76,1282.76,0,0,1-7.47,184.36c-2.32,18.06-18.59,32-36.66,32H733.86c-18.07,0-31.82-14-32.14-32a1296,1296,0,0,0-19.49-184.36c-3.87-19.94,9.24-36.86,29.28-36.86H851.75C871.79,721,890.32,737.92,891.26,757.86Z"/><path class="cls-10" d="M810.08,1292.38a5.09,5.09,0,0,1-6.17,5c-18.64-4.07-74.5-15.83-96.29-15.83s-77.65,11.76-96.3,15.83a5.09,5.09,0,0,1-6.17-5h0a13.36,13.36,0,0,1,10.54-13.06c21.83-4.68,71.64-14.88,91.93-14.88s70.09,10.2,91.92,14.88a13.36,13.36,0,0,1,10.54,13.06Z"/><path class="cls-8" d="M605.15,1282.08a17.53,17.53,0,1,0,17.53,17.53A17.52,17.52,0,0,0,605.15,1282.08Zm0,27a9.5,9.5,0,1,1,9.49-9.49A9.49,9.49,0,0,1,605.15,1309.1Z"/><path class="cls-8" d="M707.62,1282.08a17.53,17.53,0,1,0,17.52,17.53A17.53,17.53,0,0,0,707.62,1282.08Zm0,27a9.5,9.5,0,1,1,9.49-9.49A9.49,9.49,0,0,1,707.62,1309.1Z"/><path class="cls-8" d="M808,1282.08a17.53,17.53,0,1,0,17.52,17.53A17.52,17.52,0,0,0,808,1282.08Zm0,27a9.5,9.5,0,1,1,9.49-9.49A9.49,9.49,0,0,1,808,1309.1Z"/><path class="cls-9" d="M759.56,1041.75a1355.24,1355.24,0,0,1-204.79-9c-13.95-1.88-25.22,7.67-25.22,21.66v3.35c0,14,11.27,27.15,25.22,29a1353.94,1353.94,0,0,0,204.79,9Z"/><path class="cls-8" d="M867,1085.84c-42.45,5.31-84.52,8.84-127.26,10.67a18.35,18.35,0,0,1-18.87-18.44v-16.41a19.35,19.35,0,0,1,18.87-19.18c42.74-1.84,84.81-5.37,127.26-10.68,10.35-1.45,18.72,5.64,18.72,16v16.41C885.68,1074.63,877.31,1084.39,867,1085.84Z"/><path class="cls-10" d="M582.75,1308c-.12-9.55-2.08-28.65-13.31-53.28l-14.66-52.85-45.7,19.52,12.85,40.47s-39.29,18.75-53.8,23.8c-9.66,3.37-38.56,10-37.13,22.38h0a6.66,6.66,0,0,0,6.66,6.66H576.09A6.63,6.63,0,0,0,582.75,1308Z"/><path class="cls-1" d="M557.61,1277.12c-7.15,5.24-45.23,11.9-35.68,4.29s0-19.52,0-19.52-39.29,18.74-53.8,23.8c-9.66,3.37-38.56,10-37.13,22.38a6.66,6.66,0,0,0,6.66,6.66H576.09a6.63,6.63,0,0,0,6.66-6.7c-.1-8.06-1.54-23-8.74-42.24C566.14,1265.89,564.75,1271.89,557.61,1277.12Z"/><path class="cls-10" d="M615.82,1314.73h101.4a4.36,4.36,0,0,0,4.28-3.54c1.55-8.06,1.2-26.08-8-50l-.9-48.59-51.94,8.84,6.59,41.42s-20.92,23-30.85,27.14c-7,2.89-22.85,3.2-25,19.89A4.36,4.36,0,0,0,615.82,1314.73Z"/><path class="cls-1" d="M696.43,1277.31c-10.72,7.49-18.61,8.38-13.62-2.86s-15.51-11.61-15.51-11.61-20.92,23-30.85,27.14c-7,2.89-22.85,3.2-25,19.89a4.36,4.36,0,0,0,4.35,4.86h101.4a4.36,4.36,0,0,0,4.28-3.54c1.55-8.06,1.2-26.08-8-50C705.73,1263.08,707.16,1269.81,696.43,1277.31Z"/><path class="cls-4" d="M605.72,943.87s-10.21,10.47-52,17.14-128.43,27.61-127.48,61.89S507.17,1240,507.17,1240s40-7.62,58.56-19c0,0-32.19-130.45-56.32-164.73,0,0,108.34-13.33,168.26-38.08S702.36,937,702.36,937Z"/><path class="cls-4" d="M673.8,939.06s15.37,25.75,3.87,40S601,1020,608.36,1052.41s31.69,78.08,47.57,186.63c0,0,36.91-5.72,61.67-16.19,0,0,4.1-110.45-24.61-158.06,0,0,82.21-15.23,90.55-42.85S776.28,952.11,776,937Z"/><path class="cls-11" d="M624.26,980a35.17,35.17,0,0,0-5.69.09"/><path class="cls-11" d="M627.88,962.91s16.88,5,23.51,27a1.77,1.77,0,0,1-2.93,1.79,40.31,40.31,0,0,0-16.26-10.22"/><path class="cls-11" d="M501.46,1055c0-9.28-40-14.28-29.28-22.85s35,19.28,35,19.28"/><path class="cls-11" d="M698,1092.17c0-10.63-38.22-16.43-36.31-27.85s26.19,11.06,26.19,11.06"/><path class="cls-4" d="M503,1240.64l4.21,9.71a2.47,2.47,0,0,0,2.83,1.45c9.24-2.08,47.74-11.18,61.27-20.88a2.45,2.45,0,0,0,.9-2.58l-2.62-10.82a2.51,2.51,0,0,0-3.64-1.6c-6.07,3.32-23,11.23-61.27,21.3A2.52,2.52,0,0,0,503,1240.64Z"/><path class="cls-4" d="M651.28,1232.64a2,2,0,0,1,2.58-2.15c2.74,1,7.38,1.81,14.35.21,10.58-2.42,40.91-12,49.92-14.89a2,2,0,0,1,2.56,1.89v12.63a2,2,0,0,1-1.15,1.8c-7.1,3.16-45,19.42-64.91,15a2,2,0,0,1-1.49-1.66Z"/><path class="cls-12" d="M681.82,968.25a19.81,19.81,0,0,1-4.15,10.85c-8.38,10.41-45.33,27.42-61.85,48.42"/><path class="cls-12" d="M680,953.72a49.29,49.29,0,0,1,1.46,6.43"/><path class="cls-13" d="M461.28,1292.12s2.86,4.52,5,13.57H569.44a18.24,18.24,0,0,1,5.74-11.79"/><path class="cls-13" d="M640.52,1292.12s14.29,1.07,19.64,13.57h53.92s2.86-6.43,2.86-11.79"/><path class="cls-14" d="M556,782.31c1.33,5.05,2.69,10,4,14.93,14.28,51.41,32.85,149.25,32.85,149.25,91.4,19.28,187.81,0,187.81,0,.52-21.33-2.07-49.46-5-79,15-4.15,25.8-18,26.39-41,.72-27.85-4.33-78-7.14-101.4-2.47-20.6-.71-32.85-32.62-48.46-16-9.23-42.54-13.6-75.21-17.95-64.27-8.57-110.65,4.41-127.11,11.42C547,666.69,543.34,682,543.34,682c-7.23-5.48-15.62,17.67-15.62,17.67-21.14,27-37.77,72.4-43.3,88.6a18.91,18.91,0,0,1-6.45,8.88c-15,11.44-6.67,25.58-6.67,25.58L502,832.15s14.88,3.87,26.24-15.7C537.76,800.09,553.3,772.34,556,782.31Z"/><g class="cls-15"><path class="cls-16" d="M507.67,819.23S507,805,495.53,802.46s3.21-6.77,12.14-4.64,6.87-5.72,14.5-18.57,11.38-23,17.9-15.61,13.15,8.44,15.9,18.67-10.81,34.14-10.81,34.14L523.84,833,513,839.05H496.86l-5.52-14Z"/></g><path class="cls-12" d="M556,782.31c1.33,5.05,2.69,10,4,14.93,14.28,51.41,32.85,149.25,32.85,149.25,91.4,19.28,187.81,0,187.81,0,.52-21.33-2.07-49.46-5-79,15-4.15,25.8-18,26.39-41,.72-27.85-4.33-78-7.14-101.4-2.47-20.6-.71-32.85-32.62-48.46-16-9.23-42.54-13.6-75.21-17.95-64.27-8.57-110.65,4.41-127.11,11.42C547,666.69,543.34,682,543.34,682c-7.23-5.48-15.62,17.67-15.62,17.67-21.14,27-37.77,72.4-43.3,88.6a18.91,18.91,0,0,1-6.45,8.88c-15,11.44-6.67,25.58-6.67,25.58L502,832.15s14.88,3.87,26.24-15.7C537.76,800.09,553.3,772.34,556,782.31Z"/><path class="cls-16" d="M780.68,946.49c.38-15.43-.88-34.45-2.7-55,3.11,43.48-87.47,57.09-90.32,33.52s88.05-57.57,38.59-45.69c-43.18,10.37-126.82.46-147.4-2.23,7.9,37.16,14,69.36,14,69.36C684.27,965.77,780.68,946.49,780.68,946.49Z"/><path class="cls-16" d="M739.15,728s-12.93,37.84-12.9,57.84-36.26,33.4-36.33,33.42c19.43-4,38.35-9.18,47.39-11.79a7,7,0,0,0,5-7.3c-1.79-20.5-3.72-48.11-3.18-72.17Z"/><path class="cls-17" d="M544,718.44s-.43,27.22,9.53,52.24a2.49,2.49,0,0,1-3.74,3c-4.9-3.51-11.83-10.66-18.1-25.06"/><path class="cls-17" d="M786.39,835.08c-7.53-25-20.58-31.25-30.69-31.87a1.61,1.61,0,0,1-.73-3c5.86-3.17,17.31-5.68,31.42,9.89"/><path class="cls-18" d="M641.49,763.54a4.29,4.29,0,1,1-4.29-4.29A4.29,4.29,0,0,1,641.49,763.54Z"/><path class="cls-18" d="M647.31,812.16a4.3,4.3,0,1,1-4.29-4.29A4.29,4.29,0,0,1,647.31,812.16Z"/><path class="cls-9" d="M661.65,929.34a4.29,4.29,0,1,1-4.29-4.29A4.29,4.29,0,0,1,661.65,929.34Z"/><path class="cls-10" d="M579.76,847.88s-13.25,14.16-6.58,14,14.58-9.79,22.25-11.3-5.08-5.52-5.08-5.52Z"/><path class="cls-10" d="M660.68,828.25a6.21,6.21,0,0,0-4.74-1.28c-6.83.94-26.4,3.54-33.87,3.5-13.21-.07-52.47-6.1-52.47-6.1a6,6,0,0,0-2.69.31l-23.64,8.42a5.84,5.84,0,0,0-2.27,1.46l-13.79,14.19a5.88,5.88,0,0,0-1.11,1.6L523.4,856a6,6,0,0,0,1.45,7.05h0l24.11-.61a6,6,0,0,0,4-1.66l6.79-6.52a6.07,6.07,0,0,0,1.12-1.49c1.6-2.91,7.79-12.72,18.48-12.42,0,0-22.1,13.41-17.54,18.16s21.22-10.5,27-9.39,7,15.07,37.72,8.25a9.68,9.68,0,0,1,4.15,0l28.68,6.3a6.53,6.53,0,0,0,7.81-5.15C668.8,850.15,669.92,835.77,660.68,828.25Z"/><path class="cls-10" d="M573.24,829.29l-6,1.37a16.13,16.13,0,0,0-7.74,4.22l-6,5.86a16.3,16.3,0,0,0-2.7,3.49l-3.77,6.55a17,17,0,0,1-1.42,2.05c-2.3,2.84-8.6,11.25-1.36,9.77"/><path class="cls-10" d="M556.34,832.4l-6.17,2a12.08,12.08,0,0,0-5,3.23l-4.61,5a12.42,12.42,0,0,0-1.2,1.51l-7.41,11.09s-3.86,7.77.43,7.67"/><path class="cls-13" d="M739.33,721.91c-1.05,25.37,1.06,56,3,78.23a7,7,0,0,1-5,7.3c-12.47,3.6-43.74,12.19-69.23,15.55"/><path class="cls-17" d="M740.76,704.19q-.57,4.37-.93,9.14"/><path class="cls-17" d="M750.34,677.44c-3.27,2.82-5.69,8-7.42,14.91"/><path class="cls-19" d="M607.32,660.48s1.78-5.71,11.42-8.92,43-8.36,60.17,0-15.71,53.73-15.71,53.73l-15.36,21.07-13.56,10.18-6.07-18.1-7.86-8.15s-17-13.92-15.53-27.67S607.32,660.48,607.32,660.48Z"/><path class="cls-14" d="M691.59,659.3c-2.68-9.4-14.93-12-14.93-12-58.56-10-70.94,11.29-70.94,11.29-11.9,33.18,0,59.88,0,59.88s16.66-6.9,19.52,0,8.09,21.67,8.09,21.67a65.88,65.88,0,0,0,20.47-17.62c9.05-11.9,30.32,0,30.32,0C697.78,698.69,691.59,659.3,691.59,659.3Zm-14.16-.7C654.76,729.78,634.76,733,634.76,733c-6.66-26.19-12.38-20.48-21.42-36.84-7.26-13.12-4.8-29.76-3.55-35.83a5,5,0,0,1,2.58-3.43c22.5-11.46,50-7.24,61.39-4.74A5,5,0,0,1,677.43,658.6Z"/><g class="cls-20"><path class="cls-21" d="M691.59,659.3c-2.68-9.4-14.93-12-14.93-12-58.56-10-70.94,11.29-70.94,11.29-11.9,33.18,0,59.88,0,59.88s16.66-6.9,19.52,0,8.09,21.67,8.09,21.67a65.88,65.88,0,0,0,20.47-17.62c9.05-11.9,30.32,0,30.32,0C697.78,698.69,691.59,659.3,691.59,659.3Zm-14.16-.7C654.76,729.78,634.76,733,634.76,733c-6.66-26.19-12.38-20.48-21.42-36.84-7.26-13.12-4.8-29.76-3.55-35.83a5,5,0,0,1,2.58-3.43c22.5-11.46,50-7.24,61.39-4.74A5,5,0,0,1,677.43,658.6Z"/></g><path class="cls-12" d="M691.59,659.3c-2.68-9.4-14.93-12-14.93-12-58.56-10-70.94,11.29-70.94,11.29-11.9,33.18,0,59.88,0,59.88s16.66-6.9,19.52,0,8.09,21.67,8.09,21.67a65.88,65.88,0,0,0,20.47-17.62c9.05-11.9,30.32,0,30.32,0C697.78,698.69,691.59,659.3,691.59,659.3Zm-14.16-.7C654.76,729.78,634.76,733,634.76,733c-6.66-26.19-12.38-20.48-21.42-36.84-7.26-13.12-4.8-29.76-3.55-35.83a5,5,0,0,1,2.58-3.43c22.5-11.46,50-7.24,61.39-4.74A5,5,0,0,1,677.43,658.6Z"/><path class="cls-10" d="M576.09,630.61s-12-48.56,10.86-71.89,47.6-28.09,66.17-16.66,26.19,40,23.33,54.75-1.47,67.6-26.92,89.5-41.12,16.5-57.95-13.33C580.52,653.38,575.23,647.75,576.09,630.61Z"/><path class="cls-10" d="M594.33,626.92s-4.29,24.83-3.58,29c.79,4.51,12.13-.17,12.13-.17"/><path class="cls-14" d="M586.5,628.5c.48,2.3,1,5-2.28,5.1-1.25,0-2.6-1.4-3.08-3.7s.13-4.38,1.35-4.63S586,626.2,586.5,628.5Z"/><path class="cls-14" d="M615.5,626.5c.48,2.3,0,4-3,4.59-1.22.24-2.59-1.41-3.07-3.71s.12-4.38,1.34-4.63S615,624.2,615.5,626.5Z"/><line class="cls-10" x1="670.36" y1="651.08" x2="671.93" y2="654.89"/><path class="cls-10" d="M573.42,617.47s5.06-6.44,11.27-3.34"/><path class="cls-10" d="M625.18,614.59s-8.89-8.47-17.44-2.53"/><path class="cls-22" d="M611.11,667.62s12.8,5.06,24.08-11.75"/><path class="cls-16" d="M673.29,863a3.34,3.34,0,0,0,2.12,5.87c19.29.09,71.33.22,91.51-.94,25-1.43,5.92-28.62-14.18-18.24C734.22,859.26,695.26,843.33,673.29,863Z"/><path class="cls-10" d="M455.77,836.22s11.68-31.1,41-26.17c29.6,5,6.91,29.48-7.18,31.67C489.57,841.72,487.43,833.17,455.77,836.22Z"/><path class="cls-10" d="M431,853.87c-3.86,3.87-13.14,4.2-6.9-4.18,6.9-9.27,14.69-12.37,20-14.75,13.9-6.2,19.32-5,31.89-7.71s14.93,2.36,19.29,4.74c10.36,5.68,12.85,6.67,15.47,12.38s5.47,13.15-2.62,13.15c-7.38,0-7.86-12.2-15-11.72s-10.71,11.72-15.71,11.72h-1.9c-4.29,0-4.52-3.56-1.9-9.17S479,837.69,479,837.69a21.89,21.89,0,0,0-9.64,10.11c-3.43,7.29-4.06,10.36-10.36,10.36s-5.87-4.68.4-15a24.27,24.27,0,0,0-8.74,8.94c-3.08,5.84-4.69,5.42-8.74,5.42-5.29,0-4.94-8.75,4.47-14.46C446.43,843,444.34,840.48,431,853.87Z"/><path class="cls-23" d="M467.68,833s-3.7-.17-6,6.07"/><polygon class="cls-8" points="265.86 1315.21 255.28 1315.21 252.42 894.58 265.86 894.58 265.86 1315.21"/><polygon class="cls-9" points="276.45 1315.21 265.86 1315.21 265.86 894.58 279.3 894.58 276.45 1315.21"/><rect class="cls-8" x="144.61" y="868.83" width="726.13" height="25.75"/><rect class="cls-8" x="859.91" y="868.83" width="162.59" height="25.75"/><rect class="cls-2" x="181.8" y="894.58" width="721.9" height="42.46"/><rect class="cls-24" x="181.8" y="894.58" width="721.9" height="42.46"/><rect class="cls-14" x="903.7" y="894.58" width="84.06" height="42.46" transform="translate(1891.45 1831.62) rotate(180)"/><g class="cls-25"><rect class="cls-16" x="912.01" y="894.97" width="84.06" height="42.46" transform="translate(1908.08 1832.4) rotate(180)"/></g><rect class="cls-26" x="903.7" y="894.58" width="84.06" height="42.46" transform="translate(1891.45 1831.62) rotate(180)"/><polygon class="cls-8" points="903.7 1315.21 893.11 1315.21 890.25 894.58 903.7 894.58 903.7 1315.21"/><polygon class="cls-9" points="914.28 1315.21 903.7 1315.21 903.7 894.58 917.14 894.58 914.28 1315.21"/><polygon class="cls-8" points="181.8 1315.21 171.22 1315.21 168.36 894.58 181.8 894.58 181.8 1315.21"/><polygon class="cls-9" points="192.39 1315.21 181.8 1315.21 181.8 894.58 195.24 894.58 192.39 1315.21"/><polygon class="cls-8" points="987.76 1315.21 977.17 1315.21 974.32 894.58 987.76 894.58 987.76 1315.21"/><polygon class="cls-9" points="998.34 1315.21 987.76 1315.21 987.76 894.58 1001.2 894.58 998.34 1315.21"/><path class="cls-10" d="M613.85,869h-85.1a3.15,3.15,0,0,1-3.15-3.15v-7l91.4,2.86v4.17A3.15,3.15,0,0,1,613.85,869Z"/><path class="cls-10" d="M516.1,869H345a6.82,6.82,0,0,1-6.25-4.75L302,745c-1-3.27,1-6.17,4.33-6.17H477.46a6.82,6.82,0,0,1,6.25,4.75L520.43,862.8C521.44,866.07,519.4,869,516.1,869Z"/><path class="cls-10" d="M528.12,862.8,491.39,743.57a6.81,6.81,0,0,0-6.25-4.75h-7.68a6.82,6.82,0,0,1,6.25,4.75L520.43,862.8c1,3.27-1,6.17-4.33,6.17h7.69C527.09,869,529.12,866.07,528.12,862.8Z"/><path class="cls-10" d="M421.82,803.9a9.16,9.16,0,0,1-9.28,10.58,12.32,12.32,0,0,1-11.89-10.58,9.17,9.17,0,0,1,9.29-10.59A12.32,12.32,0,0,1,421.82,803.9Z"/><path class="cls-14" d="M603.5,658.5c-15,2-11,8-13,7s-8.7-10.63-8.7-10.63,13.07,30.93,18.7,36.63,16,12.15,23,11,13.57-4.66,20-9,13.84-11.28,18-20c1.71-3.58,3-19-1.91-40.58-.38-1.67-9.44-.29-9.44-.29S646,652,638.5,659.5,609.78,657.66,603.5,658.5Z"/><path class="cls-14" d="M596.5,588.5s8-19,38-16c18.56,1.86,17,18,17,18h4.57A29.58,29.58,0,0,0,673.6,585a24.18,24.18,0,0,0,2.9-2.46c1-1-1-17-5.69-22.8-13.22-16.35-20.85-22.62-33.64-24s-38.95,5.25-52.33,24.56c-13.27,19.16-11.34,29.27-11.34,29.27S584.5,573.5,596.5,588.5Z"/><path class="cls-10" d="M660.31,618s2.26-22.93,15.46-20.34c11.35,2.23,3.24,35.16-10.13,31.56"/><path class="cls-13" d="M607,669s-1,1-6,2-8-1-8-1"/><circle class="cls-14" cx="658.5" cy="544.5" r="17"/><path class="cls-27" d="M645.12,538.36S655.7,539.87,666.9,557"/><path class="cls-10" d="M377.28,679H337.43a9.37,9.37,0,0,0-9.37,9.37v19.39a9.37,9.37,0,0,0,9.37,9.37h10.41l7.9,17.89,11.13-17.89h10.41a9.37,9.37,0,0,0,9.37-9.37V688.4A9.37,9.37,0,0,0,377.28,679Z"/><path class="cls-14" d="M351.82,690.12a1.84,1.84,0,0,1,1.94-1.82,1.8,1.8,0,0,1,1.94,1.75,1.94,1.94,0,0,1-3.88.07Zm.41,4h3v13h-3Z"/><path class="cls-14" d="M362.59,693.4v.78h3.57v2.42h-3.47V707h-3V696.6h-2.13v-2.42h2.13v-.83c0-2.72,1.63-4.49,4.64-4.49a4.9,4.9,0,0,1,2.74.7l-.85,2.29a2.94,2.94,0,0,0-1.67-.54C363.24,691.31,362.59,692,362.59,693.4Z"/><path class="cls-10" d="M499.6,666.75H459.74a9.37,9.37,0,0,0-9.37,9.37v19.39a9.37,9.37,0,0,0,9.37,9.36h10.42l7.89,17.89,11.13-17.89H499.6a9.36,9.36,0,0,0,9.36-9.36V676.12A9.36,9.36,0,0,0,499.6,666.75Z"/><path class="cls-14" d="M468.12,689.25H458c.36,1.89,1.94,3.1,4.2,3.1a4.66,4.66,0,0,0,3.52-1.41l1.62,1.87a6.54,6.54,0,0,1-5.22,2.12c-4.34,0-7.15-2.8-7.15-6.66a6.44,6.44,0,0,1,6.69-6.62,6.32,6.32,0,0,1,6.56,6.7C468.17,688.59,468.14,689,468.12,689.25Zm-10.19-2h7.35a3.53,3.53,0,0,0-3.67-3.15A3.57,3.57,0,0,0,457.93,687.23Z"/><path class="cls-14" d="M471.07,676.75h3v18h-3Z"/><path class="cls-14" d="M476.6,693.47l1.17-2.31a8.62,8.62,0,0,0,4.51,1.29c1.92,0,2.72-.53,2.72-1.43,0-2.48-8-.15-8-5.32,0-2.45,2.21-4.05,5.7-4.05a10.26,10.26,0,0,1,4.86,1.12l-1.17,2.3a7.06,7.06,0,0,0-3.71-1c-1.85,0-2.72.61-2.72,1.46,0,2.62,8,.29,8,5.36,0,2.43-2.23,4-5.87,4A10.38,10.38,0,0,1,476.6,693.47Z"/><path class="cls-14" d="M502.71,689.25H492.54c.36,1.89,1.94,3.1,4.2,3.1a4.63,4.63,0,0,0,3.52-1.41l1.62,1.87a6.53,6.53,0,0,1-5.21,2.12c-4.35,0-7.16-2.8-7.16-6.66a6.44,6.44,0,0,1,6.69-6.62,6.32,6.32,0,0,1,6.56,6.7C502.76,688.59,502.73,689,502.71,689.25Zm-10.19-2h7.35a3.52,3.52,0,0,0-3.67-3.15A3.57,3.57,0,0,0,492.52,687.23Z"/><path class="cls-10" d="M435.52,633.61H395.67A9.36,9.36,0,0,0,386.3,643v19.39a9.37,9.37,0,0,0,9.37,9.37h10.41l7.9,17.89,11.12-17.89h10.42a9.38,9.38,0,0,0,9.37-9.37V643A9.37,9.37,0,0,0,435.52,633.61Z"/><path class="cls-14" d="M407.48,653c1,.31,1.43,1,1.43,2.47V660a1.64,1.64,0,0,0,1.8,1.85h.51v2.43H410c-2.74,0-4.12-1.39-4.12-4v-5c0-.8-.41-1.17-1.09-1.17H404v-2.47h.8c.68,0,1.09-.36,1.09-1.17v-5c0-2.57,1.38-3.95,4.12-3.95h1.22V644h-.51a1.64,1.64,0,0,0-1.8,1.85v4.61C408.91,652,408.45,652.63,407.48,653Z"/><path class="cls-14" d="M426,651.71v2.47h-.82c-.66,0-1.07.37-1.07,1.17v5c0,2.57-1.41,4-4.15,4h-1.22v-2.43h.51a1.64,1.64,0,0,0,1.82-1.85v-4.61c0-1.5.44-2.16,1.41-2.47-1-.32-1.41-1-1.41-2.48v-4.61a1.64,1.64,0,0,0-1.82-1.85h-.51v-2.42H420c2.74,0,4.15,1.38,4.15,3.95v5c0,.81.41,1.17,1.07,1.17Z"/><path class="cls-10" d="M585.79,760.65H545.94a9.37,9.37,0,0,0-9.37,9.37v19.39a9.37,9.37,0,0,0,9.37,9.37h10.41l3,17.89,16-17.89h10.42a9.37,9.37,0,0,0,9.37-9.37V770A9.37,9.37,0,0,0,585.79,760.65Z"/><path class="cls-14" d="M571.78,783.7l8.37-3.13-8.37-3.13v-2.53L583,779.26v2.62l-11.19,4.34Z"/><path class="cls-14" d="M563,792.51h-2.71l8-22.87H571Z"/><path class="cls-14" d="M548.47,781.88v-2.62l11.19-4.35v2.53l-8.38,3.13,8.38,3.13v2.52Z"/><path class="cls-10" d="M548.42,724.45H508.57a9.36,9.36,0,0,0-9.37,9.37v19.39a9.36,9.36,0,0,0,9.37,9.36H519l-2.27,17.89L538,762.57h10.42a9.37,9.37,0,0,0,9.37-9.36V733.82A9.37,9.37,0,0,0,548.42,724.45Z"/><path class="cls-14" d="M518.53,750.12a1.87,1.87,0,0,1,2-1.87,1.85,1.85,0,0,1,1.92,1.87,1.87,1.87,0,0,1-1.92,1.89A1.89,1.89,0,0,1,518.53,750.12Zm.17-15.27h3.59l-.61,11.36h-2.4Z"/><path class="cls-14" d="M525.42,739.2h11.19v2.42H525.42Zm0,5.87h11.19v2.43H525.42Z"/><path class="cls-28" d="M212.4,400H207a21.73,21.73,0,0,0-21.73,21.73V541A21.73,21.73,0,0,0,207,562.72h73.68A21.73,21.73,0,0,0,302.44,541h0"/><path class="cls-28" d="M296.39,287.52V264a13.31,13.31,0,0,1,13.31-13.31h95.81A13.31,13.31,0,0,1,418.82,264h0"/><path class="cls-29" d="M561.5,319.13V497.52a22,22,0,0,1-22,22H225.74a22,22,0,0,1-22-22V319.13c0-.53,0-1,.07-1.56a22,22,0,0,1,21.92-20.45H539.51a22,22,0,0,1,21.92,20.45C561.48,318.09,561.5,318.6,561.5,319.13Z"/><path class="cls-19" d="M214.45,325.82H551.92a0,0,0,0,1,0,0v164.8a20.61,20.61,0,0,1-20.61,20.61H235.06a20.61,20.61,0,0,1-20.61-20.61V325.82A0,0,0,0,1,214.45,325.82Z"/><path class="cls-30" d="M561.43,317.57H203.82a22,22,0,0,1,21.92-20.45H539.51A22,22,0,0,1,561.43,317.57Z"/><path class="cls-14" d="M247.76,307.35a3.9,3.9,0,1,1-3.89-3.9A3.89,3.89,0,0,1,247.76,307.35Z"/><path class="cls-14" d="M264.23,307.35a3.9,3.9,0,1,1-3.89-3.9A3.89,3.89,0,0,1,264.23,307.35Z"/><circle class="cls-14" cx="276.81" cy="307.35" r="3.9"/><path class="cls-31" d="M551.92,325.82V490.61a20.61,20.61,0,0,1-20.61,20.61H235.06a20.6,20.6,0,0,1-20.21-16.61h0v0a20.59,20.59,0,0,1-.38-3.95V325.82Z"/><rect class="cls-12" x="389.09" y="414.08" width="144.73" height="81.77"/><rect class="cls-12" x="389.09" y="486.03" width="144.73" height="9.83"/><rect class="cls-12" x="389.09" y="489.63" width="144.73" height="2.63"/><circle class="cls-12" cx="462.23" cy="450.75" r="15.3"/><polygon class="cls-12" points="473.99 450.82 454.3 439.45 454.3 462.19 473.99 450.82"/><rect class="cls-12" x="389.33" y="337.5" width="144.36" height="68.32"/><polyline class="cls-12" points="389.33 405.82 441.44 365.19 469.64 380.96 503.1 351.33 533.69 370.93"/><circle class="cls-12" cx="408.45" cy="356.58" r="10.52"/><rect class="cls-12" x="240.67" y="417.29" width="10.52" height="76.48"/><rect class="cls-12" x="255.97" y="451.71" width="10.52" height="42.07"/><rect class="cls-12" x="271.26" y="463.66" width="10.52" height="30.11"/><rect class="cls-12" x="286.56" y="439.76" width="10.52" height="54.02"/><rect class="cls-12" x="301.86" y="445.02" width="10.52" height="48.76"/><rect class="cls-12" x="317.15" y="483.26" width="10.52" height="10.52"/><line class="cls-12" x1="334.36" y1="423.03" x2="364.48" y2="423.03"/><line class="cls-12" x1="334.36" y1="433.07" x2="364.48" y2="433.07"/><line class="cls-12" x1="334.36" y1="443.11" x2="364.48" y2="443.11"/><line class="cls-12" x1="334.36" y1="453.14" x2="364.48" y2="453.14"/><line class="cls-12" x1="334.36" y1="463.18" x2="364.48" y2="463.18"/><line class="cls-12" x1="334.36" y1="473.22" x2="364.48" y2="473.22"/><line class="cls-12" x1="334.36" y1="483.26" x2="364.48" y2="483.26"/><line class="cls-12" x1="334.36" y1="493.3" x2="364.48" y2="493.3"/><path class="cls-14" d="M265.61,342.1l6.56,40.26H267.5l-4.33-28.93-5.41,28.78h-4l-5.47-28.93-4.22,29.08h-4.58L246,342.1h4.07l5.62,29.82,5.66-29.82Z"/><line class="cls-12" x1="283.21" y1="344.19" x2="366.6" y2="344.19"/><line class="cls-12" x1="283.21" y1="353.04" x2="366.6" y2="353.04"/><line class="cls-12" x1="283.21" y1="361.88" x2="366.6" y2="361.88"/><line class="cls-12" x1="283.21" y1="370.73" x2="366.6" y2="370.73"/><line class="cls-12" x1="283.21" y1="379.57" x2="366.6" y2="379.57"/><rect class="cls-30" x="219.54" y="372.87" width="129.59" height="169.44" rx="12.99"/><rect class="cls-32" x="219.54" y="372.87" width="129.59" height="169.44" rx="12.99"/><path class="cls-33" d="M361.19,398.66V542.11a13,13,0,0,1-13,13H244.58a13,13,0,0,1-13-13V398.66a13,13,0,0,1,13-13H348.19A13,13,0,0,1,361.19,398.66Z"/><path class="cls-30" d="M361.19,398.66v7.68H231.6v-7.68a13,13,0,0,1,13-13H348.19A13,13,0,0,1,361.19,398.66Z"/><rect class="cls-34" x="243.79" y="415.24" width="31.88" height="5.35"/><rect class="cls-34" x="243.79" y="463.18" width="31.88" height="5.35"/><rect class="cls-34" x="243.79" y="506.66" width="31.88" height="5.35"/><rect class="cls-14" x="243.79" y="428.48" width="90.55" height="3.92"/><rect class="cls-14" x="243.79" y="435.99" width="74.22" height="3.82"/><rect class="cls-14" x="243.79" y="443.36" width="83.94" height="3.82"/><rect class="cls-14" x="243.79" y="450.74" width="83.94" height="3.82"/><rect class="cls-14" x="243.79" y="471.95" width="90.55" height="3.92"/><rect class="cls-14" x="243.79" y="479.46" width="74.22" height="3.82"/><rect class="cls-14" x="243.79" y="486.84" width="83.94" height="3.82"/><rect class="cls-14" x="243.79" y="519.69" width="90.55" height="3.92"/><rect class="cls-14" x="243.79" y="527.2" width="74.22" height="3.82"/><rect class="cls-14" x="243.79" y="534.58" width="83.94" height="3.82"/><path class="cls-35" d="M507.23,286.2v58a15.48,15.48,0,0,1-15.49,15.49H358.2a15.49,15.49,0,0,1-15.49-15.49v-58a15.5,15.5,0,0,1,15.49-15.5H491.74A15.49,15.49,0,0,1,507.23,286.2Z"/><path class="cls-30" d="M507.23,286.2v1.32H342.71V286.2a15.5,15.5,0,0,1,15.49-15.5H491.74A15.49,15.49,0,0,1,507.23,286.2Z"/><path class="cls-14" d="M366.88,281.88a2.37,2.37,0,1,1,0-3.35A2.36,2.36,0,0,1,366.88,281.88Z"/><path class="cls-14" d="M377.9,281.88a2.37,2.37,0,1,1,0-3.35A2.36,2.36,0,0,1,377.9,281.88Z"/><path class="cls-14" d="M388.92,281.88a2.37,2.37,0,1,1,0-3.35A2.37,2.37,0,0,1,388.92,281.88Z"/><rect class="cls-36" x="353.2" y="298.19" width="53.78" height="46.48"/><rect class="cls-14" x="415.28" y="298.19" width="61.89" height="3.26"/><rect class="cls-14" x="415.28" y="304.96" width="47.47" height="3.26"/><rect class="cls-14" x="415.28" y="311.69" width="70.69" height="3.3"/><rect class="cls-14" x="415.28" y="318.26" width="60.2" height="3.3"/><path class="cls-14" d="M683.17,247H921.44a8.52,8.52,0,0,1,8.52,8.52V501.4a0,0,0,0,1,0,0H674.65a0,0,0,0,1,0,0V255.47A8.52,8.52,0,0,1,683.17,247Z"/><path class="cls-14" d="M930,501.9H674.65a.5.5,0,0,1-.5-.5V255.47a9,9,0,0,1,9-9H921.44a9,9,0,0,1,9,9V501.4A.5.5,0,0,1,930,501.9Zm-254.81-1H929.46V255.47a8,8,0,0,0-8-8H683.17a8,8,0,0,0-8,8Z"/><path class="cls-19" d="M689,241.14H927.25a8.52,8.52,0,0,1,8.52,8.52V495.59a0,0,0,0,1,0,0H680.46a0,0,0,0,1,0,0V249.66A8.52,8.52,0,0,1,689,241.14Z"/><path class="cls-14" d="M935.78,496.09H680.46a.5.5,0,0,1-.5-.5V249.66a9,9,0,0,1,9-9H927.25a9,9,0,0,1,9,9V495.59A.5.5,0,0,1,935.78,496.09Zm-254.82-1H935.28V249.66a8,8,0,0,0-8-8H689a8,8,0,0,0-8,8Z"/><path class="cls-30" d="M689,241.14H927.25a8.52,8.52,0,0,1,8.52,8.52v15.8a0,0,0,0,1,0,0H680.46a0,0,0,0,1,0,0v-15.8a8.52,8.52,0,0,1,8.52-8.52Z"/><path class="cls-14" d="M935.78,266H680.46a.5.5,0,0,1-.5-.5v-15.8a9,9,0,0,1,9-9H927.25a9,9,0,0,1,9,9v15.8A.5.5,0,0,1,935.78,266ZM681,265H935.28v-15.3a8,8,0,0,0-8-8H689a8,8,0,0,0-8,8Z"/><path class="cls-19" d="M894.71,254.07a4,4,0,1,0-4,4A4,4,0,0,0,894.71,254.07Z"/><path class="cls-14" d="M890.75,258.54a4.47,4.47,0,1,1,4.46-4.47A4.47,4.47,0,0,1,890.75,258.54Zm0-7.93a3.47,3.47,0,1,0,3.46,3.46A3.47,3.47,0,0,0,890.75,250.61Z"/><path class="cls-19" d="M906.6,254.07a4,4,0,1,0-4,4A4,4,0,0,0,906.6,254.07Z"/><path class="cls-14" d="M902.64,258.54a4.47,4.47,0,1,1,4.46-4.47A4.47,4.47,0,0,1,902.64,258.54Zm0-7.93a3.47,3.47,0,1,0,3.46,3.46A3.46,3.46,0,0,0,902.64,250.61Z"/><path class="cls-14" d="M918.49,254.07a4,4,0,1,0-4,4A4,4,0,0,0,918.49,254.07Z"/><path class="cls-14" d="M914.53,258.54a4.47,4.47,0,1,1,4.46-4.47A4.47,4.47,0,0,1,914.53,258.54Zm0-7.93a3.47,3.47,0,1,0,3.46,3.46A3.46,3.46,0,0,0,914.53,250.61Z"/><path class="cls-14" d="M725.43,281.5H706.66a1.5,1.5,0,0,1,0-3h18.77a1.5,1.5,0,0,1,0,3Z"/><path class="cls-37" d="M777.19,292.53H706.66a1.5,1.5,0,0,1,0-3h70.53a1.5,1.5,0,0,1,0,3Z"/><path class="cls-37" d="M886.28,292.53H815.75a1.5,1.5,0,0,1,0-3h70.53a1.5,1.5,0,0,1,0,3Z"/><path class="cls-14" d="M809.66,292.53H781.75a1.5,1.5,0,0,1,0-3h27.91a1.5,1.5,0,1,1,0,3Z"/><path class="cls-14" d="M747.25,303.55H706.66a1.5,1.5,0,0,1,0-3h40.59a1.5,1.5,0,0,1,0,3Z"/><path class="cls-14" d="M792.91,303.55H752.32a1.5,1.5,0,0,1,0-3h40.59a1.5,1.5,0,0,1,0,3Z"/><path class="cls-14" d="M838.58,303.55H798a1.5,1.5,0,0,1,0-3h40.59a1.5,1.5,0,0,1,0,3Z"/><path class="cls-14" d="M860.91,303.55H843.65a1.5,1.5,0,0,1,0-3h17.26a1.5,1.5,0,0,1,0,3Z"/><path class="cls-14" d="M749.28,281.5H730.51a1.5,1.5,0,0,1,0-3h18.77a1.5,1.5,0,0,1,0,3Z"/><path class="cls-14" d="M860.91,281.5H842.13a1.5,1.5,0,0,1,0-3h18.78a1.5,1.5,0,0,1,0,3Z"/><path class="cls-37" d="M836,281.5H817.27a1.5,1.5,0,0,1,0-3H836a1.5,1.5,0,0,1,0,3Z"/><path class="cls-14" d="M809.15,281.5h-54.8a1.5,1.5,0,1,1,0-3h54.8a1.5,1.5,0,1,1,0,3Z"/><path class="cls-14" d="M725.43,348.83H706.66a1.5,1.5,0,0,1,0-3h18.77a1.5,1.5,0,0,1,0,3Z"/><path class="cls-37" d="M777.19,359.85H706.66a1.5,1.5,0,0,1,0-3h70.53a1.5,1.5,0,0,1,0,3Z"/><path class="cls-14" d="M886.28,359.85H815.75a1.5,1.5,0,0,1,0-3h70.53a1.5,1.5,0,0,1,0,3Z"/><path class="cls-14" d="M809.66,359.85H781.75a1.5,1.5,0,0,1,0-3h27.91a1.5,1.5,0,0,1,0,3Z"/><path class="cls-14" d="M747.25,370.88H706.66a1.5,1.5,0,0,1,0-3h40.59a1.5,1.5,0,0,1,0,3Z"/><path class="cls-14" d="M792.91,370.88H752.32a1.5,1.5,0,0,1,0-3h40.59a1.5,1.5,0,0,1,0,3Z"/><path class="cls-37" d="M838.58,370.88H798a1.5,1.5,0,0,1,0-3h40.59a1.5,1.5,0,0,1,0,3Z"/><path class="cls-14" d="M860.91,370.88H843.65a1.5,1.5,0,0,1,0-3h17.26a1.5,1.5,0,0,1,0,3Z"/><path class="cls-14" d="M749.28,348.83H730.51a1.5,1.5,0,0,1,0-3h18.77a1.5,1.5,0,0,1,0,3Z"/><path class="cls-14" d="M860.91,348.83H842.13a1.5,1.5,0,0,1,0-3h18.78a1.5,1.5,0,0,1,0,3Z"/><path class="cls-37" d="M836,348.83H817.27a1.5,1.5,0,0,1,0-3H836a1.5,1.5,0,0,1,0,3Z"/><path class="cls-14" d="M809.15,348.83h-54.8a1.5,1.5,0,0,1,0-3h54.8a1.5,1.5,0,0,1,0,3Z"/><path class="cls-14" d="M725.43,448.08H706.66a1.5,1.5,0,0,1,0-3h18.77a1.5,1.5,0,0,1,0,3Z"/><path class="cls-37" d="M777.19,459.1H706.66a1.5,1.5,0,0,1,0-3h70.53a1.5,1.5,0,0,1,0,3Z"/><path class="cls-14" d="M886.28,459.1H815.75a1.5,1.5,0,0,1,0-3h70.53a1.5,1.5,0,0,1,0,3Z"/><path class="cls-14" d="M809.66,459.1H781.75a1.5,1.5,0,0,1,0-3h27.91a1.5,1.5,0,0,1,0,3Z"/><path class="cls-14" d="M747.25,470.13H706.66a1.5,1.5,0,0,1,0-3h40.59a1.5,1.5,0,0,1,0,3Z"/><path class="cls-14" d="M792.91,470.13H752.32a1.5,1.5,0,0,1,0-3h40.59a1.5,1.5,0,0,1,0,3Z"/><path class="cls-37" d="M838.58,470.13H798a1.5,1.5,0,0,1,0-3h40.59a1.5,1.5,0,0,1,0,3Z"/><path class="cls-14" d="M860.91,470.13H843.65a1.5,1.5,0,0,1,0-3h17.26a1.5,1.5,0,0,1,0,3Z"/><path class="cls-14" d="M749.28,448.08H730.51a1.5,1.5,0,0,1,0-3h18.77a1.5,1.5,0,0,1,0,3Z"/><path class="cls-14" d="M860.91,448.08H842.13a1.5,1.5,0,0,1,0-3h18.78a1.5,1.5,0,0,1,0,3Z"/><path class="cls-37" d="M836,448.08H817.27a1.5,1.5,0,0,1,0-3H836a1.5,1.5,0,0,1,0,3Z"/><path class="cls-14" d="M809.15,448.08h-54.8a1.5,1.5,0,0,1,0-3h54.8a1.5,1.5,0,0,1,0,3Z"/><path class="cls-14" d="M831,315.16H812.2a1.5,1.5,0,0,1,0-3H831a1.5,1.5,0,0,1,0,3Z"/><path class="cls-14" d="M806.11,315.16H787.33a1.5,1.5,0,0,1,0-3h18.78a1.5,1.5,0,0,1,0,3Z"/><path class="cls-14" d="M779.22,315.16h-54.8a1.5,1.5,0,0,1,0-3h54.8a1.5,1.5,0,0,1,0,3Z"/><path class="cls-14" d="M831,334.9H812.2a1.5,1.5,0,0,1,0-3H831a1.5,1.5,0,0,1,0,3Z"/><path class="cls-14" d="M806.11,334.9H787.33a1.5,1.5,0,0,1,0-3h18.78a1.5,1.5,0,0,1,0,3Z"/><path class="cls-37" d="M779.22,334.9h-54.8a1.5,1.5,0,0,1,0-3h54.8a1.5,1.5,0,0,1,0,3Z"/><path class="cls-14" d="M743.19,325H724.42a1.5,1.5,0,1,1,0-3h18.77a1.5,1.5,0,0,1,0,3Z"/><path class="cls-14" d="M768.05,325H749.28a1.5,1.5,0,0,1,0-3h18.77a1.5,1.5,0,0,1,0,3Z"/><path class="cls-37" d="M831,325h-54.8a1.5,1.5,0,1,1,0-3H831a1.5,1.5,0,0,1,0,3Z"/><path class="cls-14" d="M831,384.23H812.2a1.5,1.5,0,0,1,0-3H831a1.5,1.5,0,0,1,0,3Z"/><path class="cls-14" d="M806.11,384.23H787.33a1.5,1.5,0,1,1,0-3h18.78a1.5,1.5,0,1,1,0,3Z"/><path class="cls-14" d="M779.22,384.23h-54.8a1.5,1.5,0,0,1,0-3h54.8a1.5,1.5,0,0,1,0,3Z"/><path class="cls-14" d="M831,404H812.2a1.5,1.5,0,0,1,0-3H831a1.5,1.5,0,0,1,0,3Z"/><path class="cls-14" d="M806.11,404H787.33a1.5,1.5,0,0,1,0-3h18.78a1.5,1.5,0,0,1,0,3Z"/><path class="cls-37" d="M779.22,404h-54.8a1.5,1.5,0,1,1,0-3h54.8a1.5,1.5,0,0,1,0,3Z"/><path class="cls-14" d="M743.19,394.1H724.42a1.5,1.5,0,0,1,0-3h18.77a1.5,1.5,0,0,1,0,3Z"/><path class="cls-14" d="M768.05,394.1H749.28a1.5,1.5,0,0,1,0-3h18.77a1.5,1.5,0,0,1,0,3Z"/><path class="cls-37" d="M831,394.1h-54.8a1.5,1.5,0,0,1,0-3H831a1.5,1.5,0,0,1,0,3Z"/><path class="cls-14" d="M743.19,415.57H724.42a1.5,1.5,0,0,1,0-3h18.77a1.5,1.5,0,0,1,0,3Z"/><path class="cls-14" d="M768.05,415.57H749.28a1.5,1.5,0,0,1,0-3h18.77a1.5,1.5,0,0,1,0,3Z"/><path class="cls-37" d="M831,415.57h-54.8a1.5,1.5,0,0,1,0-3H831a1.5,1.5,0,0,1,0,3Z"/><path class="cls-14" d="M743.19,435.31H724.42a1.5,1.5,0,0,1,0-3h18.77a1.5,1.5,0,0,1,0,3Z"/><path class="cls-14" d="M768.05,435.31H749.28a1.5,1.5,0,0,1,0-3h18.77a1.5,1.5,0,0,1,0,3Z"/><path class="cls-37" d="M831,435.31h-54.8a1.5,1.5,0,0,1,0-3H831a1.5,1.5,0,0,1,0,3Z"/><path class="cls-14" d="M831,425.44H812.2a1.5,1.5,0,0,1,0-3H831a1.5,1.5,0,0,1,0,3Z"/><path class="cls-14" d="M806.11,425.44H787.33a1.5,1.5,0,0,1,0-3h18.78a1.5,1.5,0,0,1,0,3Z"/><path class="cls-37" d="M779.22,425.44h-54.8a1.5,1.5,0,0,1,0-3h54.8a1.5,1.5,0,0,1,0,3Z"/><rect class="cls-14" x="693.7" y="276.17" width="5.99" height="6.77"/><rect class="cls-14" x="693.7" y="287.3" width="5.99" height="6.77"/><rect class="cls-14" x="693.7" y="298.42" width="5.99" height="6.77"/><rect class="cls-14" x="693.7" y="309.55" width="5.99" height="6.77"/><rect class="cls-14" x="693.7" y="320.67" width="5.99" height="6.77"/><rect class="cls-14" x="693.7" y="331.8" width="5.99" height="6.77"/><rect class="cls-14" x="693.7" y="342.92" width="5.99" height="6.77"/><rect class="cls-14" x="693.7" y="354.05" width="5.99" height="6.77"/><rect class="cls-14" x="693.7" y="365.17" width="5.99" height="6.77"/><rect class="cls-14" x="693.7" y="376.3" width="5.99" height="6.77"/><rect class="cls-14" x="693.7" y="387.43" width="5.99" height="6.77"/><rect class="cls-14" x="693.7" y="398.55" width="5.99" height="6.77"/><rect class="cls-14" x="693.7" y="409.68" width="5.99" height="6.77"/><rect class="cls-14" x="693.7" y="420.8" width="5.99" height="6.77"/><rect class="cls-14" x="693.7" y="431.93" width="5.99" height="6.77"/><rect class="cls-14" x="693.7" y="443.05" width="5.99" height="6.77"/><rect class="cls-14" x="693.7" y="454.18" width="5.99" height="6.77"/><rect class="cls-14" x="693.7" y="465.31" width="5.99" height="6.77"/><path class="cls-19" d="M462.48,207.73,452,200.33v-3.92l10.48-7.48v4L455,198.35l7.51,5.46Z"/><path class="cls-19" d="M472.38,209.34a6.34,6.34,0,0,1-3.94-1,5.17,5.17,0,0,1-1.8-3,19.42,19.42,0,0,1-.46-4.44V196a18.76,18.76,0,0,1,.48-4.56,5.07,5.07,0,0,1,1.81-2.9,6.45,6.45,0,0,1,3.91-1,7.05,7.05,0,0,1,3.57.75,3.88,3.88,0,0,1,1.74,2.23,12.12,12.12,0,0,1,.48,3.68v1.25h-3.56v-1.28a10.58,10.58,0,0,0-.18-2.2,1.92,1.92,0,0,0-.66-1.17,2.16,2.16,0,0,0-1.36-.37,2.19,2.19,0,0,0-1.46.44,2.39,2.39,0,0,0-.68,1.48,19.11,19.11,0,0,0-.17,2.84v6.67a8.31,8.31,0,0,0,.52,3.63,1.91,1.91,0,0,0,1.83.92,2,2,0,0,0,1.45-.46,2.28,2.28,0,0,0,.58-1.3,12.2,12.2,0,0,0,.13-1.91v-1.72h3.56v1.46a12.06,12.06,0,0,1-.5,3.67,4.17,4.17,0,0,1-1.76,2.34A6.52,6.52,0,0,1,472.38,209.34Z"/><path class="cls-19" d="M487.47,209.34a6.39,6.39,0,0,1-3.7-1,5.16,5.16,0,0,1-1.92-2.71,13.54,13.54,0,0,1-.57-4.14v-6.16a13.45,13.45,0,0,1,.57-4.14,5.13,5.13,0,0,1,1.92-2.71,6.32,6.32,0,0,1,3.7-.95,6.19,6.19,0,0,1,3.68.95,5.11,5.11,0,0,1,1.91,2.71,13.45,13.45,0,0,1,.57,4.14v6.16a13.54,13.54,0,0,1-.57,4.14,5.15,5.15,0,0,1-1.91,2.71A6.26,6.26,0,0,1,487.47,209.34Zm0-2.89a1.82,1.82,0,0,0,1.6-.66,3.69,3.69,0,0,0,.55-1.74c.06-.72.09-1.48.09-2.26v-6.63c0-.81,0-1.56-.09-2.27a3.77,3.77,0,0,0-.55-1.74,1.8,1.8,0,0,0-1.6-.68,1.83,1.83,0,0,0-1.61.68,3.45,3.45,0,0,0-.57,1.74c-.06.71-.09,1.46-.09,2.27v6.63c0,.78,0,1.54.09,2.26a3.39,3.39,0,0,0,.57,1.74A1.85,1.85,0,0,0,487.47,206.45Z"/><path class="cls-19" d="M502.13,209.34a4.5,4.5,0,0,1-4-2c-.87-1.31-1.31-3.52-1.31-6.65v-4.1a23.36,23.36,0,0,1,.4-4.49,6.78,6.78,0,0,1,1.52-3.32,4.17,4.17,0,0,1,3.28-1.24,4,4,0,0,1,1.94.47,7,7,0,0,1,1.58,1.17v-9.85h3.92v29.68h-3.92v-1.36a6.28,6.28,0,0,1-1.52,1.19A3.78,3.78,0,0,1,502.13,209.34Zm1-3.08a3.69,3.69,0,0,0,1.17-.2,5.1,5.1,0,0,0,1.25-.6V191.57a6.59,6.59,0,0,0-1.14-.64,3.25,3.25,0,0,0-1.36-.28,1.81,1.81,0,0,0-1.83,1.3,9.4,9.4,0,0,0-.47,3.14v6a19.6,19.6,0,0,0,.16,2.66,4,4,0,0,0,.68,1.86A1.78,1.78,0,0,0,503.12,206.26Z"/><path class="cls-19" d="M519.28,209.34a6.5,6.5,0,0,1-3.85-1,5.07,5.07,0,0,1-1.89-2.86,17.5,17.5,0,0,1-.53-4.63V196a16.8,16.8,0,0,1,.55-4.69,5,5,0,0,1,1.92-2.82,6.55,6.55,0,0,1,3.8-.95,5.94,5.94,0,0,1,3.94,1.09,5.45,5.45,0,0,1,1.66,3.17,26.27,26.27,0,0,1,.41,5v1.72h-8.36v4.25a7.5,7.5,0,0,0,.24,2.09,2.14,2.14,0,0,0,.77,1.19,2.25,2.25,0,0,0,1.37.39,1.86,1.86,0,0,0,1.34-.43,2.15,2.15,0,0,0,.62-1.21,9,9,0,0,0,.17-1.85v-1.28h3.81v.81a8.24,8.24,0,0,1-1.36,5Q522.54,209.34,519.28,209.34Zm-2.35-12.93h4.51V194.5a13.81,13.81,0,0,0-.15-2.22,2.46,2.46,0,0,0-.6-1.35,2,2,0,0,0-1.45-.46,2.13,2.13,0,0,0-1.45.44,2.56,2.56,0,0,0-.68,1.48,17.94,17.94,0,0,0-.18,2.88Z"/><path class="cls-19" d="M529,207.73v-3.92l7.54-5.5L529,192.89v-4l10.51,7.44v3.92Z"/><path class="cls-19" d="M851.51,604.62l-8.49-6v-3.18l8.49-6.06v3.21L845.42,597l6.09,4.43Z"/><path class="cls-19" d="M854.92,605.69V581.64h3.18v8.67a9.33,9.33,0,0,1,1.93-1.42,4.78,4.78,0,0,1,2.38-.6,2.14,2.14,0,0,1,1.56.54,2.94,2.94,0,0,1,.77,1.33,6.06,6.06,0,0,1,.22,1.64v13.89h-3.18v-13a3.23,3.23,0,0,0-.26-1.43,1.14,1.14,0,0,0-1.1-.5,2.59,2.59,0,0,0-1.18.32,6.25,6.25,0,0,0-1.14.81v13.77Z"/><path class="cls-19" d="M872.8,605.93a5.25,5.25,0,0,1-3.12-.79,4.09,4.09,0,0,1-1.53-2.31,14,14,0,0,1-.43-3.76v-3.92a13.59,13.59,0,0,1,.45-3.8,4,4,0,0,1,1.56-2.29,5.34,5.34,0,0,1,3.07-.77,4.8,4.8,0,0,1,3.19.89,4.43,4.43,0,0,1,1.35,2.57,21.16,21.16,0,0,1,.33,4v1.4H870.9v3.44a6.13,6.13,0,0,0,.19,1.7,1.77,1.77,0,0,0,.63,1,1.8,1.8,0,0,0,1.11.31,1.54,1.54,0,0,0,1.08-.34,1.77,1.77,0,0,0,.51-1,7.28,7.28,0,0,0,.13-1.5v-1h3.09v.66a6.68,6.68,0,0,1-1.1,4.06A4.35,4.35,0,0,1,872.8,605.93Zm-1.9-10.48h3.65V593.9a11.19,11.19,0,0,0-.12-1.79,1.94,1.94,0,0,0-.49-1.1,1.6,1.6,0,0,0-1.17-.37,1.72,1.72,0,0,0-1.17.35,2,2,0,0,0-.55,1.21,14,14,0,0,0-.15,2.33Z"/><path class="cls-19" d="M883.64,605.93a2.89,2.89,0,0,1-1.79-.58,4.07,4.07,0,0,1-1.21-1.48,4.3,4.3,0,0,1-.45-1.92,6.07,6.07,0,0,1,.54-2.7,5.42,5.42,0,0,1,1.46-1.86,10.71,10.71,0,0,1,2.17-1.32c.82-.37,1.69-.74,2.6-1.1v-1.21a10.31,10.31,0,0,0-.12-1.73,1.75,1.75,0,0,0-.49-1,1.59,1.59,0,0,0-1.11-.34,1.8,1.8,0,0,0-1.06.29,1.63,1.63,0,0,0-.57.85,4.19,4.19,0,0,0-.18,1.29V594l-3.15-.12a6.24,6.24,0,0,1,1.31-4.2,5,5,0,0,1,3.86-1.35,4.28,4.28,0,0,1,3.62,1.4,6.55,6.55,0,0,1,1.07,4v7.83c0,.54,0,1.05,0,1.55s.07.95.12,1.38.09.83.13,1.2h-2.91c0-.31-.13-.72-.22-1.2s-.15-.93-.19-1.32a4.61,4.61,0,0,1-1.14,1.88A3.09,3.09,0,0,1,883.64,605.93Zm1.24-2.73a1.58,1.58,0,0,0,.89-.27,4.08,4.08,0,0,0,.75-.61,3.57,3.57,0,0,0,.44-.55V596.9c-.49.28-1,.56-1.39.83a7.72,7.72,0,0,0-1.15.88,3.7,3.7,0,0,0-.77,1,3,3,0,0,0-.28,1.32,3,3,0,0,0,.38,1.63A1.27,1.27,0,0,0,884.88,603.2Z"/><path class="cls-19" d="M897.17,605.93a3.63,3.63,0,0,1-3.23-1.59c-.71-1.06-1.07-2.85-1.07-5.39v-3.32a18.87,18.87,0,0,1,.33-3.64,5.38,5.38,0,0,1,1.23-2.69,3.39,3.39,0,0,1,2.66-1,3.23,3.23,0,0,1,1.57.39,5.67,5.67,0,0,1,1.28,1v-8h3.17v24.05h-3.17v-1.1a5.15,5.15,0,0,1-1.24,1A3.15,3.15,0,0,1,897.17,605.93Zm.81-2.5a3.1,3.1,0,0,0,.95-.16,4.45,4.45,0,0,0,1-.49V591.53A5.48,5.48,0,0,0,899,591a2.7,2.7,0,0,0-1.1-.22,1.46,1.46,0,0,0-1.49,1.05,7.35,7.35,0,0,0-.38,2.54v4.84a15.62,15.62,0,0,0,.13,2.15,3.25,3.25,0,0,0,.55,1.52A1.48,1.48,0,0,0,898,603.43Z"/><path class="cls-19" d="M906.44,604.62v-3.17l6.12-4.46-6.12-4.39v-3.21l8.52,6v3.17Z"/><path class="cls-19" d="M89.29,401.71l-8.49-6v-3.18l8.49-6.06v3.21l-6.09,4.42,6.09,4.43Z"/><path class="cls-19" d="M92.88,402.78v-24h5.23a9.24,9.24,0,0,1,4.23.82,4.63,4.63,0,0,1,2.22,2.45,10.69,10.69,0,0,1,.67,4.07v8.84a12,12,0,0,1-.67,4.31,5.11,5.11,0,0,1-2.16,2.66,7.79,7.79,0,0,1-4,.9Zm3.36-2.4h1.9a3.86,3.86,0,0,0,2.61-.71,3.23,3.23,0,0,0,.93-2.08,28,28,0,0,0,.17-3.3v-7.81a15.5,15.5,0,0,0-.24-3,2.57,2.57,0,0,0-1-1.69,4.61,4.61,0,0,0-2.52-.53H96.24Z"/><path class="cls-19" d="M108.71,402.78v-24H112v24Z"/><path class="cls-19" d="M120.08,402.78l-5.38-24h3.15l3.8,17.73,3.62-17.73h3.06l-5.31,24Z"/><path class="cls-19" d="M130.74,401.71v-3.17l6.11-4.46-6.11-4.39v-3.21l8.52,6v3.18Z"/><path class="cls-4" d="M748.13,441.14a57.18,57.18,0,0,0-39.52,98.52l-8.14,15.19,20-6.47a57.2,57.2,0,1,0,27.7-107.24Z"/><path class="cls-10" d="M745.4,437.06a57.18,57.18,0,0,0-39.52,98.51l-8.14,15.19,20-6.47a57.19,57.19,0,1,0,27.7-107.23Z"/><path class="cls-34" d="M726.25,517.82l-22-15.52v-8.22l22-15.68v8.3L710.5,498.15l15.75,11.45Z"/><path class="cls-34" d="M732.94,520.59l16.75-62.24h7.15L740,520.59Z"/><path class="cls-34" d="M763.52,517.82V509.6l15.83-11.53L763.52,486.7v-8.3L785.58,494v8.22Z"/></svg>