<svg id="Слой_1" data-name="Слой 1" xmlns="http://www.w3.org/2000/svg" xmlns:xlink="http://www.w3.org/1999/xlink" viewBox="0 0 1014.55 1315.75"><defs><style>.cls-1,.cls-12{fill:#dd4e4e;}.cls-1,.cls-10,.cls-2,.cls-21,.cls-22,.cls-3,.cls-6,.cls-7,.cls-8,.cls-9{stroke:#1a2e35;}.cls-1,.cls-10,.cls-2,.cls-21,.cls-22,.cls-23,.cls-3,.cls-5,.cls-6,.cls-7,.cls-8,.cls-9{stroke-linecap:round;stroke-linejoin:round;}.cls-11,.cls-2{fill:#1a2e35;}.cls-16,.cls-3{fill:#fff;}.cls-4{fill:#233554;}.cls-21,.cls-22,.cls-23,.cls-5,.cls-6,.cls-7,.cls-8,.cls-9{fill:none;}.cls-5{stroke:#fff;}.cls-6{stroke-width:2px;}.cls-8{stroke-dasharray:1 2.99;}.cls-9{stroke-dasharray:1 3;}.cls-10{fill:#5ae4a7;}.cls-13{clip-path:url(#clip-path);}.cls-14,.cls-18{fill-opacity:0.7;}.cls-14{opacity:0.3;}.cls-15{clip-path:url(#clip-path-2);}.cls-17{clip-path:url(#clip-path-3);}.cls-18{opacity:0.2;}.cls-19{clip-path:url(#clip-path-4);}.cls-20{clip-path:url(#clip-path-5);}.cls-21{stroke-dasharray:1 3.01;}.cls-22{stroke-dasharray:1.01 3.03;}.cls-23{stroke:gray;}</style><clipPath id="clip-path"><path class="cls-1" d="M920.08,1244.61c-18.71,30.48-113.65,44.8-165.47,43.44s-200.92-71.94-211-86.89c-9.37-13.85-32.39-59.61,3.1-87.28a67.68,67.68,0,0,1,9.56-6.19c24.29-13.16,185.86,28.33,185.86,28.33s10-6.33,13.68-5.86c11.28,1.44,19.27,10.56,42.12,17,16,4.56,59.48-13,87.28,2.1a38.34,38.34,0,0,1,8.46,6.14C919.61,1180.27,938.76,1214.12,920.08,1244.61Z"/></clipPath><clipPath id="clip-path-2"><path class="cls-2" d="M728.69,1271l48.41,38s37.54-3,69.42-10.38v0c22.94-5.31,43-12.93,44.07-23.36,1.68-15.87-15.28-20.22-35.44-19.6-3.77.09-7.63.38-11.53.78-32.26,3.46-73.26-14.36-73.26-14.36Z"/></clipPath><clipPath id="clip-path-3"><path class="cls-3" d="M773.82,1286c-8.73,1.42.86,19.27,12.69,13.85S782.55,1284.58,773.82,1286Z"/></clipPath><clipPath id="clip-path-4"><path class="cls-3" d="M846.53,1298.62c22.94-5.31,43-12.93,44.07-23.36,1.68-15.87-15.28-20.22-35.44-19.6C854.27,1256.51,834.74,1275.4,846.53,1298.62Z"/></clipPath><clipPath id="clip-path-5"><path class="cls-2" d="M698.92,1272.49l-52.13,32.7s-37-6.9-67.95-17.61v0c-22.25-7.69-41.37-17.37-41.37-27.87,0-16,17.32-18.49,37.3-15.76,3.74.48,7.55,1.17,11.38,2,31.72,6.82,74.37-6.59,74.37-6.59Z"/></clipPath></defs><rect class="cls-4" x="0.95" y="-10.36" width="1023" height="1340"/><path class="cls-5" d="M696.67,390.68V347.29l-32.5-2.8a90,90,0,0,0-8-19.47l21-24.94L646.43,269.4l-24.94,21a89.28,89.28,0,0,0-19.47-8l-2.8-32.5H555.83l-2.8,32.5a89.36,89.36,0,0,0-19.48,8l-24.93-21-30.68,30.68,21,24.94a89.52,89.52,0,0,0-8,19.47l-32.5,2.8v43.39l32.5,2.8a89.39,89.39,0,0,0,8,19.48l-21,24.94,30.68,30.67,24.93-21a88.9,88.9,0,0,0,19.48,8l2.8,32.5h43.39l2.8-32.5a88.82,88.82,0,0,0,19.47-8l24.94,21,30.68-30.67-21-24.94a89.89,89.89,0,0,0,8-19.48ZM577.52,419.41A50.42,50.42,0,1,1,627.94,369,50.42,50.42,0,0,1,577.52,419.41Z"/><path class="cls-5" d="M541,225.8V205l-15.58-1.34a42.84,42.84,0,0,0-3.86-9.34l10.06-12-14.71-14.71-12,10.06a42.84,42.84,0,0,0-9.34-3.86l-1.34-15.58H473.44l-1.34,15.58a42.84,42.84,0,0,0-9.34,3.86l-12-10.06-14.71,14.71,10.06,12a42.32,42.32,0,0,0-3.85,9.34L426.71,205V225.8l15.59,1.34a42.32,42.32,0,0,0,3.85,9.34l-10.06,12,14.71,14.71,12-10.06A42.84,42.84,0,0,0,472.1,257l1.34,15.58h20.81L495.59,257a42.84,42.84,0,0,0,9.34-3.86l12,10.06,14.71-14.71-10.06-12a42.84,42.84,0,0,0,3.86-9.34Zm-57.13,13.77A24.18,24.18,0,1,1,508,215.4,24.17,24.17,0,0,1,483.85,239.57Z"/><path class="cls-5" d="M959.34,171a56.73,56.73,0,0,0-55.29-69.52,56.6,56.6,0,0,0-14.81,2A54.43,54.43,0,0,0,787.5,126.8a44.37,44.37,0,0,0-52.43,38.68,24.77,24.77,0,0,0,.54,49.53H943.68a24.77,24.77,0,0,0,15.66-44Z"/><line class="cls-5" x1="844.93" y1="196.01" x2="844.93" y2="253.35"/><line class="cls-5" x1="844.93" y1="161.6" x2="844.93" y2="184.54"/><line class="cls-5" x1="844.93" y1="140.17" x2="844.93" y2="152.44"/><polyline class="cls-5" points="834.1 246.64 844.93 260.05 855.75 246.64"/><path class="cls-5" d="M513.35,1108.6a56.74,56.74,0,0,0-70.1-67.54,54.43,54.43,0,0,0-101.74,23.31,44.37,44.37,0,0,0-52.43,38.68,24.77,24.77,0,0,0,.54,49.53H497.69a24.78,24.78,0,0,0,15.66-44Z"/><line class="cls-5" x1="398.94" y1="1141.78" x2="398.94" y2="1084.44"/><line class="cls-5" x1="398.94" y1="1176.18" x2="398.94" y2="1153.24"/><line class="cls-5" x1="398.94" y1="1197.61" x2="398.94" y2="1185.35"/><polyline class="cls-5" points="409.77 1091.14 398.94 1077.73 388.11 1091.14"/><path class="cls-1" d="M77.14,367.59H804.26a12.19,12.19,0,0,1,12.19,12.19v33.88a0,0,0,0,1,0,0H64.95a0,0,0,0,1,0,0V379.78A12.19,12.19,0,0,1,77.14,367.59Z"/><rect class="cls-3" x="64.51" y="413.2" width="752.24" height="529.35"/><path class="cls-3" d="M802.27,390.63a11.52,11.52,0,1,1-11.52-11.52A11.52,11.52,0,0,1,802.27,390.63Z"/><path class="cls-3" d="M761.73,390.63a11.52,11.52,0,1,1-11.52-11.52A11.52,11.52,0,0,1,761.73,390.63Z"/><path class="cls-3" d="M721.18,390.63a11.52,11.52,0,1,1-11.52-11.52A11.52,11.52,0,0,1,721.18,390.63Z"/><line class="cls-6" x1="793.97" y1="435.9" x2="764.17" y2="435.9"/><line class="cls-6" x1="793.97" y1="447.98" x2="764.17" y2="447.98"/><line class="cls-6" x1="793.97" y1="460.06" x2="764.17" y2="460.06"/><line class="cls-6" x1="116.62" y1="748.24" x2="342.04" y2="748.24"/><line class="cls-6" x1="116.62" y1="766.02" x2="342.04" y2="766.02"/><line class="cls-6" x1="116.62" y1="784.13" x2="294.35" y2="784.13"/><line class="cls-7" x1="594.64" y1="419.17" x2="594.64" y2="419.67"/><line class="cls-8" x1="594.64" y1="422.66" x2="594.64" y2="931.78"/><line class="cls-7" x1="594.64" y1="933.28" x2="594.64" y2="933.78"/><line class="cls-7" x1="73.57" y1="823.83" x2="74.07" y2="823.83"/><line class="cls-9" x1="77.07" y1="823.83" x2="803.24" y2="823.83"/><line class="cls-7" x1="804.74" y1="823.83" x2="805.24" y2="823.83"/><rect class="cls-3" x="589.71" y="818.9" width="9.87" height="9.87"/><path class="cls-3" d="M369.05,210H227.88a6.22,6.22,0,0,0-6.23,6.23V282a6.22,6.22,0,0,0,6.23,6.23h63.35l7.23,25.89,7.24-25.89h63.35a6.23,6.23,0,0,0,6.23-6.23v-65.7A6.23,6.23,0,0,0,369.05,210Z"/><line class="cls-6" x1="245.13" y1="228.84" x2="351.79" y2="228.84"/><line class="cls-6" x1="245.13" y1="242.35" x2="351.79" y2="242.35"/><line class="cls-6" x1="245.13" y1="255.86" x2="351.79" y2="255.86"/><line class="cls-6" x1="245.13" y1="269.38" x2="325.52" y2="269.38"/><rect class="cls-3" x="157.82" y="907.49" width="153.64" height="96.29"/><rect class="cls-1" x="157.82" y="907.49" width="153.64" height="14.64"/><line class="cls-7" x1="173.49" y1="934.47" x2="212.76" y2="934.47"/><line class="cls-7" x1="193.13" y1="945.42" x2="261.1" y2="945.42"/><line class="cls-7" x1="184.44" y1="955.63" x2="204.46" y2="955.63"/><line class="cls-7" x1="193.13" y1="967.7" x2="238.91" y2="967.7"/><line class="cls-7" x1="173.49" y1="978.65" x2="212.76" y2="978.65"/><line class="cls-7" x1="555.22" y1="728.93" x2="423.32" y2="728.93"/><path class="cls-7" d="M557.76,789.92s0-61.28-68.49-61.28-68.49,61.28-68.49,61.28"/><circle class="cls-1" cx="557.76" cy="789.92" r="5.77"/><path class="cls-1" d="M415,789.92a5.77,5.77,0,1,1,5.77,5.77A5.78,5.78,0,0,1,415,789.92Z"/><rect class="cls-10" x="552.69" y="723.56" width="10.15" height="10.15" transform="translate(1115.52 1457.27) rotate(180)"/><rect class="cls-1" x="484.2" y="723.56" width="10.15" height="10.15" transform="translate(978.54 1457.27) rotate(180)"/><rect class="cls-1" x="415.71" y="723.56" width="10.15" height="10.15" transform="translate(841.57 1457.27) rotate(180)"/><path class="cls-1" d="M319.78,901V880.76l-15.16-1.3a41.75,41.75,0,0,0-3.76-9.09l9.8-11.64-14.32-14.32L284.7,854.2a41.72,41.72,0,0,0-9.09-3.75l-1.31-15.17H254.05l-1.31,15.17a41.93,41.93,0,0,0-9.09,3.75L232,844.41,217.7,858.73l9.79,11.64a41.72,41.72,0,0,0-3.75,9.09l-15.17,1.3V901l15.17,1.31a41.72,41.72,0,0,0,3.75,9.09l-9.79,11.64L232,937.37l11.63-9.79a42.43,42.43,0,0,0,9.09,3.75l1.31,15.17H274.3l1.31-15.17a42.22,42.22,0,0,0,9.09-3.75l11.64,9.79,14.32-14.32-9.8-11.64a41.75,41.75,0,0,0,3.76-9.09Zm-55.6,13.41a23.53,23.53,0,1,1,23.53-23.53A23.53,23.53,0,0,1,264.18,914.42Z"/><path class="cls-1" d="M388.61,946.44V932.57l-10.39-.89a28.08,28.08,0,0,0-2.56-6.22l6.7-8-9.8-9.8-8,6.7a28.8,28.8,0,0,0-6.22-2.57l-.9-10.38H343.61l-.89,10.38a28.88,28.88,0,0,0-6.23,2.57l-8-6.7-9.8,9.8,6.7,8a28.59,28.59,0,0,0-2.57,6.22l-10.38.89v13.87l10.38.89a28.59,28.59,0,0,0,2.57,6.22l-6.7,8,9.8,9.8,8-6.7a28.88,28.88,0,0,0,6.23,2.57l.89,10.38h13.86l.9-10.38a28.59,28.59,0,0,0,6.22-2.57l8,6.7,9.8-9.8-6.7-8a28.08,28.08,0,0,0,2.56-6.22Zm-38.07,9.17a16.11,16.11,0,1,1,16.11-16.11A16.11,16.11,0,0,1,350.54,955.61Z"/><line class="cls-6" x1="622.95" y1="857.5" x2="733.84" y2="857.5"/><line class="cls-6" x1="622.95" y1="875.28" x2="733.84" y2="875.28"/><line class="cls-6" x1="622.95" y1="893.4" x2="686.15" y2="893.4"/><path class="cls-1" d="M476.83,900.77H418.44a14.36,14.36,0,0,1-14.36-14.37h0A14.36,14.36,0,0,1,418.44,872h58.39a14.36,14.36,0,0,1,14.36,14.36h0A14.36,14.36,0,0,1,476.83,900.77Z"/><path class="cls-1" d="M585.62,900.77H527.24a14.37,14.37,0,0,1-14.37-14.37h0A14.36,14.36,0,0,1,527.24,872h58.38A14.36,14.36,0,0,1,600,886.4h0A14.36,14.36,0,0,1,585.62,900.77Z"/><rect class="cls-3" x="631.05" y="593.58" width="123.81" height="123.81"/><line class="cls-3" x1="631.05" y1="593.58" x2="754.86" y2="717.4"/><line class="cls-3" x1="754.86" y1="593.58" x2="631.05" y2="717.4"/><rect class="cls-2" x="735.66" y="520.03" width="153.64" height="96.29"/><rect class="cls-1" x="735.66" y="520.03" width="153.64" height="14.64"/><line class="cls-5" x1="751.34" y1="547.01" x2="790.61" y2="547.01"/><line class="cls-5" x1="770.98" y1="557.97" x2="838.94" y2="557.97"/><line class="cls-5" x1="762.29" y1="568.18" x2="782.3" y2="568.18"/><line class="cls-5" x1="770.98" y1="580.24" x2="816.75" y2="580.24"/><line class="cls-5" x1="751.34" y1="591.19" x2="790.61" y2="591.19"/><polygon class="cls-3" points="679.6 453.03 679.6 481.92 666.86 494.66 637.97 494.66 637.97 453.03 679.6 453.03"/><polygon class="cls-3" points="679.6 481.92 666.86 494.66 666.86 481.92 679.6 481.92"/><polygon class="cls-3" points="236.84 676.47 236.84 705.37 224.09 718.11 195.2 718.11 195.2 676.47 236.84 676.47"/><polygon class="cls-3" points="236.84 705.37 224.09 718.11 224.09 705.37 236.84 705.37"/><polygon class="cls-3" points="79.51 854.47 79.51 883.36 66.77 896.1 37.88 896.1 37.88 854.47 79.51 854.47"/><polygon class="cls-3" points="79.51 883.36 66.77 896.1 66.77 883.36 79.51 883.36"/><path class="cls-3" d="M495.72,689.68c-14.6,1.25-33.2-16.22-33.2-16.22a3.26,3.26,0,0,1-5.21-.66c-2.38-3.42-12.68-11.34-13.27-18.2s11.6-18,11.6-18c-9.39,2.56-10.38-3-10.38-3s15.78-13,21.3-13.38c2.16-.14,11.58,5.27,20.66,12.58,9.51,7.65,27.35,34.6,27.35,34.6s60.4,43.86,75.66,55.09c20.15,14.81,42.22,44.57,42.22,44.57s82,32.66,104,52.53l-29.88,70.82s-68.89-51.84-76.18-64.23-14.58-4.94-21.87-13-14.28-17.35-14.28-17.35-15.64-6.73-32.68-24.22-32-44.25-41.48-60.29A53.27,53.27,0,0,0,495.72,689.68Z"/><path class="cls-3" d="M500.18,679.35s-21.74-5.27-23.63-19.62c-.61-4.66-4.67-10-4.67-10s-20.3-1-19-9.26l27.07-2.39a47.16,47.16,0,0,1,23.59,19.83"/><path class="cls-7" d="M462.52,673.46s1.37-1.9.92-5.86c0,0,6-1.08,5.3-6.37,0,0,8.86-1.08,3.14-11.53"/><path class="cls-7" d="M468.74,661.23s-11.89-8.83-13.24-12.85"/><path class="cls-7" d="M463.44,667.6s-12.68-7.71-12.9-12.24"/><path class="cls-7" d="M466.34,627.86s-4,7.25-10.7,8.77"/><path class="cls-7" d="M464.34,630.7a35,35,0,0,1,6,3.95"/><path class="cls-11" d="M927.55,875.48s-47.9-20.85-96.45-32.22-127-21.51-127-21.51S725.68,1042.3,720,1055.57s-39.86,57.81-39.86,57.81,184.87,72.08,217.1,78.22,15.42-105.7,15.42-105.7S946.51,943.72,927.55,875.48Z"/><path class="cls-3" d="M861.21,851.79s4.39,8.38-7.16,12.63c-29.93,11.06-61.82,1.3-58.42-10.42,1.29-4.47,8.7,0,8.23-16.72a20.25,20.25,0,0,0-2-7.35,75.21,75.21,0,0,0-7.6-12.74A156.24,156.24,0,0,0,784,804.39s47.51-30.31,82.75,0C866.74,804.39,853.64,811,861.21,851.79Z"/><path class="cls-12" d="M920.08,1244.61c-18.71,30.48-113.65,44.8-165.47,43.44s-200.92-71.94-211-86.89c-9.37-13.85-32.39-59.61,3.1-87.28a67.68,67.68,0,0,1,9.56-6.19c24.29-13.16,185.86,28.33,185.86,28.33s10-6.33,13.68-5.86c11.28,1.44,19.27,10.56,42.12,17,16,4.56,59.48-13,87.28,2.1a38.34,38.34,0,0,1,8.46,6.14C919.61,1180.27,938.76,1214.12,920.08,1244.61Z"/><g class="cls-13"><path class="cls-14" d="M885.17,1149.31c-28.49-1.91-53.89,4.06-71.64,14.54-21,12.44-120.36,60.28-120.36,60.28.22-5.14,5.75-15.51,5.75-15.51-9.34-8.32-33.77-14.78-33.77-14.78-18.93-16.17-94-64.4-118.48-80a67.68,67.68,0,0,1,9.56-6.19c24.29-13.16,185.86,28.33,185.86,28.33s10-6.33,13.68-5.86c11.28,1.44,19.27,10.56,42.12,17C813.84,1151.77,857.37,1134.25,885.17,1149.31Z"/></g><path class="cls-7" d="M920.08,1244.61c-18.71,30.48-113.65,44.8-165.47,43.44s-200.92-71.94-211-86.89c-9.37-13.85-32.39-59.61,3.1-87.28a67.68,67.68,0,0,1,9.56-6.19c24.29-13.16,185.86,28.33,185.86,28.33s10-6.33,13.68-5.86c11.28,1.44,19.27,10.56,42.12,17,16,4.56,59.48-13,87.28,2.1a38.34,38.34,0,0,1,8.46,6.14C919.61,1180.27,938.76,1214.12,920.08,1244.61Z"/><path class="cls-3" d="M890.93,1272.12l2.39,10.42s-6.35,18-34.3,21-44.49,9.14-57.92,9.94-21.25-.33-21.25-.33l-2.74-4.11Z"/><path class="cls-11" d="M728.69,1271l48.41,38s37.54-3,69.42-10.38v0c22.94-5.31,43-12.93,44.07-23.36,1.68-15.87-15.28-20.22-35.44-19.6-3.77.09-7.63.38-11.53.78-32.26,3.46-73.26-14.36-73.26-14.36Z"/><g class="cls-15"><path class="cls-14" d="M890.62,1274.91c-8.7,3.42-19.51,8.19-26.93,13.24,0,0-45,23.15-114.07-.69L728.68,1271l41.69-28.94s41,17.83,73.26,14.35c3.91-.4,7.77-.69,11.53-.76C875.16,1255,892,1259.31,890.62,1274.91Z"/></g><path class="cls-7" d="M728.69,1271l48.41,38s37.54-3,69.42-10.38v0c22.94-5.31,43-12.93,44.07-23.36,1.68-15.87-15.28-20.22-35.44-19.6-3.77.09-7.63.38-11.53.78-32.26,3.46-73.26-14.36-73.26-14.36Z"/><path class="cls-16" d="M773.82,1286c-8.73,1.42.86,19.27,12.69,13.85S782.55,1284.58,773.82,1286Z"/><g class="cls-17"><path class="cls-18" d="M790.21,1297a187.7,187.7,0,0,1-18.81-3.28c-1.68-3.5-1.29-7.09,2.42-7.69C781.15,1284.8,793.46,1291.56,790.21,1297Z"/></g><path class="cls-7" d="M773.82,1286c-8.73,1.42.86,19.27,12.69,13.85S782.55,1284.58,773.82,1286Z"/><path class="cls-16" d="M846.53,1298.62c22.94-5.31,43-12.93,44.07-23.36,1.68-15.87-15.28-20.22-35.44-19.6C854.27,1256.51,834.74,1275.4,846.53,1298.62Z"/><g class="cls-19"><path class="cls-14" d="M890.62,1274.91c-8.7,3.42-19.51,8.19-26.93,13.24,0,0-6.71,3.46-18.93,6.33-7.74-21.28,9.56-38,10.4-38.81C875.16,1255,892,1259.31,890.62,1274.91Z"/></g><path class="cls-7" d="M846.53,1298.62c22.94-5.31,43-12.93,44.07-23.36,1.68-15.87-15.28-20.22-35.44-19.6C854.27,1256.51,834.74,1275.4,846.53,1298.62Z"/><path class="cls-3" d="M830.16,1278.91h.14a2.39,2.39,0,0,0,2.51-2.27c.48-10,8.17-18.14,8.25-18.22a2.39,2.39,0,1,0-3.45-3.32c-.37.38-9,9.48-9.58,21.3A2.38,2.38,0,0,0,830.16,1278.91Z"/><path class="cls-3" d="M820.57,1279.49h.21a2.39,2.39,0,0,0,2.44-2.35c.2-10.09,7.26-18.85,7.33-18.94a2.39,2.39,0,1,0-3.7-3c-.33.41-8.19,10.1-8.42,21.89A2.4,2.4,0,0,0,820.57,1279.49Z"/><path class="cls-3" d="M809.1,1278.28h0a2.39,2.39,0,0,0,2.59-2.18c.74-8.39,7.88-19.13,8-19.23a2.4,2.4,0,1,0-4-2.68c-.32.49-7.9,11.86-8.74,21.49A2.4,2.4,0,0,0,809.1,1278.28Z"/><path class="cls-3" d="M798.27,1277.13a2.3,2.3,0,0,0,.64,0,2.39,2.39,0,0,0,2-2.75c-1.7-10.18,7.75-18.9,7.85-19a2.4,2.4,0,0,0-3.21-3.56c-.47.42-11.51,10.54-9.36,23.33A2.39,2.39,0,0,0,798.27,1277.13Z"/><path class="cls-3" d="M786.49,1274.3a2.34,2.34,0,0,0,.79,0,2.39,2.39,0,0,0,1.8-2.87c-2.08-9.07,6.86-19.32,6.95-19.42a2.4,2.4,0,0,0-3.59-3.18c-.43.49-10.67,12.18-8,23.68A2.4,2.4,0,0,0,786.49,1274.3Z"/><path class="cls-3" d="M537.46,1256.54,534,1266.65s4.43,18.61,31.91,24.47,43.29,13.76,56.56,16,21.17,1.89,21.17,1.89l3.15-3.79Z"/><path class="cls-11" d="M698.92,1272.49l-52.13,32.7s-37-6.9-67.95-17.61v0c-22.25-7.69-41.37-17.37-41.37-27.87,0-16,17.32-18.49,37.3-15.76,3.74.48,7.55,1.17,11.38,2,31.72,6.82,74.37-6.59,74.37-6.59Z"/><g class="cls-20"><path class="cls-14" d="M698.92,1272.49l-30.66,19.23c-30.79-9.27-50.82-28.89-62.27-43.86,27.19.07,54.53-8.53,54.53-8.53Z"/></g><path class="cls-7" d="M698.92,1272.49l-52.13,32.7s-37-6.9-67.95-17.61v0c-22.25-7.69-41.37-17.37-41.37-27.87,0-16,17.32-18.49,37.3-15.76,3.74.48,7.55,1.17,11.38,2,31.72,6.82,74.37-6.59,74.37-6.59Z"/><path class="cls-3" d="M578.84,1287.56c-22.25-7.69-41.37-17.37-41.37-27.87,0-16,17.32-18.49,37.3-15.76C575.56,1244.86,593,1265.71,578.84,1287.56Z"/><path class="cls-3" d="M597.18,1269.68h-.13a2.39,2.39,0,0,1-2.26-2.52c.57-10-6.22-18.9-6.29-19a2.39,2.39,0,1,1,3.78-2.94c.33.42,8,10.38,7.29,22.2A2.39,2.39,0,0,1,597.18,1269.68Z"/><path class="cls-3" d="M606.66,1271.26h-.2a2.41,2.41,0,0,1-2.19-2.59c.87-10.07-5.24-19.52-5.3-19.61a2.39,2.39,0,1,1,4-2.63c.29.43,7.09,10.89,6.08,22.64A2.41,2.41,0,0,1,606.66,1271.26Z"/><path class="cls-3" d="M618.2,1271.26h-.05a2.41,2.41,0,0,1-2.35-2.44c.15-8.43-5.83-19.85-5.89-20a2.4,2.4,0,0,1,4.24-2.24c.27.51,6.61,12.62,6.44,22.29A2.4,2.4,0,0,1,618.2,1271.26Z"/><path class="cls-3" d="M629.09,1271.26a2.41,2.41,0,0,1-2.31-3c2.77-9.94-5.72-19.6-5.81-19.7a2.4,2.4,0,0,1,3.57-3.2c.42.47,10.33,11.69,6.86,24.18A2.4,2.4,0,0,1,629.09,1271.26Z"/><path class="cls-3" d="M641.1,1269.68a2.6,2.6,0,0,1-.78-.13,2.41,2.41,0,0,1-1.49-3c3-8.8-4.79-19.94-4.87-20a2.39,2.39,0,0,1,3.9-2.78c.38.53,9.34,13.24,5.5,24.39A2.4,2.4,0,0,1,641.1,1269.68Z"/><path class="cls-3" d="M652.47,1282.64c8.53,2.33-2.88,19.08-14.08,12.44S643.94,1280.31,652.47,1282.64Z"/><path class="cls-1" d="M553.9,1193.83c12.81,17.94,50.75,37.75,88.55,54.1a178.53,178.53,0,0,0,23.71,31c23.28,23.94,32.76,10.53,32.76,10.53s14.7-1.65,36.41-4.62c1.44,2.78,4.74,7.15,11,6.17,2.82-.45,8.25-4.49,14.38-9.82,54.8-8.25,129.19-22,149.27-38.18"/><path class="cls-7" d="M888.48,1159.7c-9.48-10.42-19-10.9-38.86-9.47,0,0-51.93,16.46-88.15,38.38s-89.09,45-89.09,45-16.12-4.67-27.33,0c0,0-7.87.61-2.6,14.37"/><path class="cls-7" d="M912.65,1222s.26,16.06-22.5,27.18"/><path class="cls-7" d="M661.48,1155s35.95,26,43.12,43.12c0,0,13.83,5.88,20.42,10.52"/><path class="cls-7" d="M707.21,1176.57c2.42,7.46,3.32,15.58,1.26,23.24"/><path class="cls-7" d="M698.92,1159.7a62.55,62.55,0,0,1,5.15,9"/><path class="cls-7" d="M750.1,1157.33s12,16.07,15,29.13"/><path class="cls-7" d="M817.06,1254.5a103.2,103.2,0,0,0,13.34-1.65"/><path class="cls-7" d="M704.28,1243c32.81,6.27,68.75,11.06,103.35,11.86"/><path class="cls-3" d="M947.46,999.26s6,105.88-14.14,119.81c-8.33,5.76-19.74,8.53-42.61,10.43s-123.94,8.1-123.94,8.1L756,1105.12s53.76-5.46,77.61-14.24,47.89-15.74,47.89-15.74-3.2-10.85-2-36c1-21,4.51-47,4.51-61.26"/><path class="cls-11" d="M927.55,875.48c24.65,15.17,31.92,50.24,23.39,125.11,0,0,7.28,8.85-3.48,13.27,0,0-40.25-15.05-59-4.68s-13.87-14.34-13.87-14.34S866.9,926,884,913.52"/><path class="cls-5" d="M881.75,903s-23.7,24.64-2.84,86.88c0,0-2.9,11.32-2.87,15.48s5.71,6.32,5.71,6.32"/><path class="cls-5" d="M854.05,944.67s1.72,30.33,20.56,43.6"/><path class="cls-5" d="M860.13,874.09s-36.72,14.07-66-1.51C776.86,863.34,784,848.5,784,848.5"/><path class="cls-11" d="M725,803.69c-17.35-1.9-26.83-18.38-37.26-21a116.93,116.93,0,0,1-17.09-5.5s-3.6-12.56-9-8.18-12.48,98.1-5.53,95.16,7,8.11,7,8.11l64.43,56.79,54-95.63S742.37,805.58,725,803.69Z"/><polyline class="cls-7" points="200.05 468.58 200.05 468.08 200.55 468.08"/><line class="cls-21" x1="203.56" y1="468.08" x2="446.78" y2="468.08"/><polyline class="cls-7" points="448.29 468.08 448.79 468.08 448.79 468.58"/><line class="cls-22" x1="448.79" y1="471.61" x2="448.79" y2="631.89"/><polyline class="cls-7" points="448.79 633.41 448.79 633.91 448.29 633.91"/><line class="cls-21" x1="445.28" y1="633.91" x2="202.05" y2="633.91"/><polyline class="cls-7" points="200.55 633.91 200.05 633.91 200.05 633.41"/><line class="cls-22" x1="200.05" y1="630.37" x2="200.05" y2="470.1"/><circle class="cls-1" cx="324.42" cy="468.08" r="4.1"/><circle class="cls-1" cx="200.05" cy="550.99" r="4.1"/><circle class="cls-1" cx="324.42" cy="633.91" r="4.1"/><circle class="cls-1" cx="448.79" cy="550.99" r="4.1"/><rect class="cls-1" x="444.02" y="629.14" width="9.52" height="9.52"/><rect class="cls-1" x="444.02" y="463.32" width="9.52" height="9.52"/><rect class="cls-1" x="195.29" y="629.14" width="9.52" height="9.52"/><rect class="cls-1" x="195.29" y="463.32" width="9.52" height="9.52"/><rect class="cls-3" x="216.55" y="482.75" width="216.49" height="137.55"/><polygon class="cls-1" points="433.04 579.67 408.97 603.74 343.87 538.63 316.47 566.02 272.79 522.34 216.55 578.58 216.55 620.3 433.04 620.3 433.04 579.67"/><circle class="cls-1" cx="388.19" cy="521.79" r="15.28"/><path class="cls-5" d="M736.44,829S720,859.89,717.92,907.13"/><path class="cls-5" d="M687.79,850.42s5,26.25,19.42,45.27"/><path class="cls-5" d="M756,958.75s24.83,81.69,78.93,105.75"/><path class="cls-11" d="M821.33,810.86s-2.35,17.83-19.49,19.07a75.21,75.21,0,0,0-7.6-12.74C805.6,813.54,821.33,810.86,821.33,810.86Z"/><path class="cls-3" d="M857.84,812.12s24.34,1.87,40.66-35c16-36,2.57-67.47-44.87-81.43-26.3-7.74-52.6-1.51-62.08,18.4-8.13,17.06-4.29,31.24-6.16,37-2.1,6.4-21.49,11.85-21.49,16.24,0,3.64,10.75,9.83,10.75,9.83l-2.2,9,2,2.14s-5.5,21.54-3,29.12c1.84,5.55,50.39,7.85,54.18-5.9"/><path class="cls-7" d="M791.79,728.1s9.47,2.37,12.08,7.34"/><path class="cls-11" d="M793.47,749.93c-.41,2.79.23,5.19,1.43,5.36s2.5-1.94,2.9-4.72-.23-5.18-1.43-5.36S793.88,747.15,793.47,749.93Z"/><path class="cls-7" d="M795.64,790.63c-5.75,3.58-21.18-2.35-21.18-2.35"/><path class="cls-11" d="M881,684.64c-17-11-38-12-58-2-27.24,13.62-33,33.11-30,29,0,0,20.27-12.52,40-2a23.61,23.61,0,0,1,13,23s7.93,7.71,14,10c2.58,1,7,2.19,11.5,3.34a53.86,53.86,0,0,0,31.66-1.52,5.94,5.94,0,0,0,1.84-.82C903,731.64,917.83,708.51,881,684.64Z"/><path class="cls-3" d="M853.45,766.62s6.79-22,21.16-14,4.1,20-1,24.67-9,13.1-12.32,13.1-4.11-4.11-4.11-4.11"/><circle class="cls-11" cx="907.45" cy="703.14" r="18.5"/><path class="cls-11" d="M836,769.64l11,5s-12.08,34.31-22,43c-8,7-19.41,14.39-28,12-18-5-19-2.31-26-7-8.78-5.86-14-27,0-36l4-9S815,797.64,836,769.64Z"/><path class="cls-23" d="M892.31,694.4s9.47,5,14.3,24.85"/><path class="cls-3" d="M861.37,1142.66h-85.1a3.15,3.15,0,0,1-3.15-3.15v-7l91.4,2.86v4.17A3.15,3.15,0,0,1,861.37,1142.66Z"/><path class="cls-3" d="M763.62,1142.66H592.54a6.81,6.81,0,0,1-6.25-4.75l-36.73-119.22c-1-3.27,1-6.18,4.33-6.18H725a6.81,6.81,0,0,1,6.25,4.75L768,1136.49C769,1139.76,766.92,1142.66,763.62,1142.66Z"/><path class="cls-3" d="M775.64,1136.49l-36.73-119.23a6.81,6.81,0,0,0-6.25-4.75H725a6.81,6.81,0,0,1,6.25,4.75L768,1136.49c1,3.27-1,6.17-4.33,6.17h7.69C774.61,1142.66,776.64,1139.76,775.64,1136.49Z"/><path class="cls-3" d="M669.34,1077.59a9.16,9.16,0,0,1-9.28,10.58,12.32,12.32,0,0,1-11.89-10.58,9.17,9.17,0,0,1,9.29-10.59A12.32,12.32,0,0,1,669.34,1077.59Z"/><path class="cls-11" d="M775,777.64s-7,5-3,9"/><path class="cls-11" d="M770.6,787c.35-.38-7.42,21.31-3.65,30.62"/><path class="cls-5" d="M766.45,782.14s7,9,18,8"/></svg>