<svg id="Слой_1" data-name="Слой 1" xmlns="http://www.w3.org/2000/svg" xmlns:xlink="http://www.w3.org/1999/xlink" viewBox="0 0 1014.55 1315.75"><defs><style>.cls-1,.cls-2,.cls-33{fill:#f1dc50;}.cls-2,.cls-28,.cls-3,.cls-6,.cls-7,.cls-8,.cls-9{stroke:#1a2e35;}.cls-2,.cls-23,.cls-25,.cls-28,.cls-3,.cls-6,.cls-7,.cls-8,.cls-9{stroke-linecap:round;stroke-linejoin:round;}.cls-11,.cls-12,.cls-13,.cls-14,.cls-15,.cls-19,.cls-20,.cls-21,.cls-3,.cls-5{fill:#fff;}.cls-4{fill:#233554;}.cls-33,.cls-5{opacity:0.4;}.cls-6{fill:#bfbfbf;}.cls-23,.cls-25,.cls-31,.cls-7,.cls-9{fill:none;}.cls-10,.cls-30,.cls-8{fill:#1a2e35;}.cls-9{stroke-width:2px;}.cls-11{opacity:0.1;}.cls-12,.cls-18,.cls-27,.cls-30{opacity:0.2;}.cls-13{opacity:0.75;}.cls-14{opacity:0.15;}.cls-15{opacity:0.25;}.cls-16{clip-path:url(#clip-path);}.cls-17{opacity:0.5;}.cls-19{opacity:0.3;}.cls-20{opacity:0.6;}.cls-22{opacity:0.8;}.cls-23,.cls-25{stroke:#fff;}.cls-23{stroke-width:0.5px;}.cls-24{fill:#3696e6;}.cls-26{clip-path:url(#clip-path-2);}.cls-27{fill-opacity:0.7;}.cls-28{fill:#757575;}.cls-29{fill:#5ae4a7;}.cls-31{stroke:gray;stroke-miterlimit:10;stroke-width:0.75px;}.cls-32{clip-path:url(#clip-path-3);}</style><clipPath id="clip-path"><rect class="cls-1" x="236.95" y="467.28" width="32.29" height="30.9"/></clipPath><clipPath id="clip-path-2"><path class="cls-2" d="M553.53,1221.55s-22.72,11-41.19,7l-6.91-12.21s-17.47-14.48-34.84-43.06a234,234,0,0,1-13.08-24.85c-20.34-45-40.47-102.75-40.47-102.75L371.18,934.25l-2.4-5.86L350.91,876.2l107.72-56.14s14.53,74.35,13.59,93.53,51.31,181.77,57.07,201.17,24.24,75.57,19.62,93.66Z"/></clipPath><clipPath id="clip-path-3"><path class="cls-3" d="M569.38,221.94c43.86,18.23,44.42,60.67,29.37,81.85-13.71,19.28-32.18,17.82-33.8,27s-53.22-4.22-55.62-10.82,8.31-5.71-11.52-32.16S515.51,199.56,569.38,221.94Z"/></clipPath></defs><rect class="cls-4" x="-2.05" y="-4.36" width="1023" height="1320"/><path class="cls-3" d="M914.81,1086.22s-16.14-14.72-56.5.81c-17.71,6.81-33.15,22.7-34.14,42.46-.92,18.47,15.08,25.48,31.26,23.9,21.22-2.06,31.43-18.39,48.51-28.35C922.57,1114.17,925.68,1097.09,914.81,1086.22Z"/><path class="cls-1" d="M887.74,1113.56c-15,8.68-22.78,31.13-25,38.46,16.49-4.6,26.19-18.24,41.18-27,10.64-6.21,16.2-14.45,17-22.39C914,1103.58,900.39,1106.23,887.74,1113.56Z"/><path class="cls-5" d="M887.74,1113.56c-15,8.68-22.78,31.13-25,38.46,16.49-4.6,26.19-18.24,41.18-27,10.64-6.21,16.2-14.45,17-22.39C914,1103.58,900.39,1106.23,887.74,1113.56Z"/><path class="cls-3" d="M659.13,883.62l20.53,77.19a7.93,7.93,0,0,1-4,8.91l-71.82,29.7,1.32,5.78,122.37,29.22,58.13-44.37a7.94,7.94,0,0,0,2.5-9.65l-40.61-91Z"/><path class="cls-6" d="M651.9,876.4l20.53,77.18a7.93,7.93,0,0,1-4,8.91l-64.59,36.93,123,28.84,54.45-40.4a7.94,7.94,0,0,0,2.5-9.65l-43.49-96.05Z"/><line class="cls-7" x1="762.37" y1="980.57" x2="770.39" y2="982.48"/><line class="cls-7" x1="679.66" y1="960.81" x2="750.12" y2="977.64"/><polygon class="cls-8" points="740.33 882.16 651.9 876.39 660.9 912.63 765.45 937.64 740.33 882.16"/><path class="cls-7" d="M193.87,1104.94,123.6,1092a11.77,11.77,0,0,1-4-21.65L344,913a38,38,0,0,1,28.68-4.43L592.9,955.38a18.66,18.66,0,0,0,23-18.88l-2.42-60.61"/><line class="cls-9" x1="222.67" y1="1110.24" x2="193.87" y2="1104.94"/><path class="cls-3" d="M543,520.39l396.72,64.5c12.52,2,21.43,14.15,19.43,26.44L906.76,934.16c-1.93,11.85-13.26,19.2-25.22,16.34L490,856.89c-11.75-2.81-19.69-14.43-17.82-26.08l47.23-293.73C521.23,525.84,531.57,518.52,543,520.39Z"/><polygon class="cls-10" points="546 543.62 932.98 606.54 880.6 929.2 498.69 837.88 546 543.62"/><path class="cls-3" d="M573.23,1285.25l-420.75-101c-11.31-2.72-14.28-9.6-6.62-15.38l175.73-132.61c7.66-5.77,23-8.26,34.35-5.54l420.75,101c11.31,2.72,14.28,9.61,6.62,15.38L607.58,1279.71C599.92,1285.49,584.54,1288,573.23,1285.25Z"/><polygon class="cls-3" points="154.76 1162.13 576.57 1263.41 734.5 1144.24 312.69 1042.96 154.76 1162.13"/><polygon class="cls-8" points="240.42 1182.7 576.57 1263.41 734.5 1144.24 398.35 1063.53 240.42 1182.7"/><path class="cls-3" d="M299.9,1118.43c8.61-6.49,5.28-14.23-7.44-17.28s-30-.27-38.61,6.23-5.28,14.23,7.44,17.29S291.29,1124.93,299.9,1118.43Z"/><path class="cls-8" d="M289.29,1115.89c4.64-3.5,2.85-7.68-4-9.33s-16.18-.14-20.82,3.37-2.85,7.67,4,9.32S284.65,1119.39,289.29,1115.89Z"/><polygon class="cls-3" points="348.66 1068.97 327.17 1063.81 336.52 1056.75 358.01 1061.91 348.66 1068.97"/><polygon class="cls-3" points="334.63 1079.55 313.14 1074.39 322.49 1067.34 343.98 1072.49 334.63 1079.55"/><polygon class="cls-3" points="320.6 1090.14 299.11 1084.98 308.46 1077.92 329.95 1083.08 320.6 1090.14"/><polygon class="cls-3" points="306.58 1100.72 285.09 1095.56 294.44 1088.51 315.93 1093.66 306.58 1100.72"/><polygon class="cls-3" points="257.12 1138.04 235.63 1132.88 244.98 1125.83 266.47 1130.98 257.12 1138.04"/><polygon class="cls-3" points="243.09 1148.63 221.6 1143.47 230.95 1136.41 252.44 1141.57 243.09 1148.63"/><polygon class="cls-3" points="229.06 1159.21 207.57 1154.05 216.93 1146.99 238.41 1152.15 229.06 1159.21"/><polygon class="cls-3" points="215.04 1169.8 193.55 1164.64 202.9 1157.58 224.39 1162.74 215.04 1169.8"/><rect class="cls-10" x="44.55" y="331.53" width="278.62" height="184.4"/><rect class="cls-11" x="138.95" y="339.24" width="184.22" height="35.46"/><polygon class="cls-12" points="138.95 374.7 138.95 339.24 44.55 339.24 44.55 515.93 323.17 515.93 323.17 374.7 138.95 374.7"/><rect class="cls-10" x="201.28" y="436.11" width="32.5" height="29.16"/><rect class="cls-10" x="95.81" y="436.11" width="32.5" height="29.16"/><rect class="cls-13" x="95.81" y="436.11" width="32.5" height="29.16"/><rect class="cls-13" x="60.66" y="436.11" width="32.5" height="29.16"/><rect class="cls-10" x="166.12" y="436.11" width="32.5" height="29.16"/><rect class="cls-14" x="166.12" y="436.11" width="32.5" height="29.16"/><rect class="cls-10" x="130.97" y="436.11" width="32.5" height="29.16"/><rect class="cls-15" x="130.97" y="436.11" width="32.5" height="29.16"/><rect class="cls-1" x="236.95" y="467.28" width="32.29" height="30.9"/><g class="cls-16"><rect class="cls-17" x="236.95" y="467.28" width="32.29" height="30.9"/></g><rect class="cls-1" x="201.68" y="467.28" width="32.29" height="30.9"/><rect class="cls-18" x="201.68" y="467.28" width="32.29" height="30.9"/><rect class="cls-1" x="166.43" y="467.28" width="32.29" height="30.9"/><rect class="cls-1" x="131.19" y="467.28" width="32.29" height="30.9"/><rect class="cls-19" x="131.19" y="467.28" width="32.29" height="31"/><rect class="cls-1" x="95.94" y="467.28" width="32.29" height="30.9"/><rect class="cls-20" x="95.94" y="467.28" width="32.29" height="30.9"/><rect class="cls-21" x="60.7" y="467.28" width="32.29" height="30.9"/><rect class="cls-1" x="272.03" y="467.28" width="32.29" height="30.9"/><rect class="cls-22" x="272.03" y="467.28" width="32.29" height="30.9"/><path class="cls-10" d="M92.73,416.45H70.92a3.53,3.53,0,0,1-3.53-3.53V392.05a3.53,3.53,0,0,1,3.53-3.53H92.73a3.53,3.53,0,0,1,3.53,3.53v20.87A3.53,3.53,0,0,1,92.73,416.45Zm-18.28-7.06H89.2V395.57H74.45Z"/><rect class="cls-1" x="60.75" y="380.28" width="21.81" height="20.88"/><rect class="cls-19" x="60.75" y="380.28" width="21.81" height="20.88"/><path class="cls-21" d="M120.45,361.27H64.18a3.53,3.53,0,0,1,0-7.06h56.27a3.53,3.53,0,1,1,0,7.06Z"/><polygon class="cls-21" points="272.66 347.72 272.66 349.59 276.52 352.84 272.66 356.1 272.66 357.97 278.74 352.84 272.66 347.72"/><polygon class="cls-21" points="279.32 347.72 279.32 349.59 283.18 352.84 279.32 356.1 279.32 357.97 285.4 352.84 279.32 347.72"/><line class="cls-23" x1="293.11" y1="344.64" x2="293.11" y2="362.36"/><line class="cls-23" x1="300.82" y1="350.03" x2="314.69" y2="350.03"/><line class="cls-23" x1="300.82" y1="353.11" x2="314.69" y2="353.11"/><line class="cls-23" x1="300.82" y1="356.2" x2="314.69" y2="356.2"/><line class="cls-23" x1="300.82" y1="359.28" x2="314.69" y2="359.28"/><path class="cls-1" d="M507.42,930.4s1.84-40.43-52.37-53.29c-45.32-10.75-136-2.75-190.19,21.13s-85.45,46.86-87.29,64.32,36.75,15.62,46.86,8.27-11-13.78,5.51-32.16,113-49.61,164.47-53.29,89.12,20.21,91,46.86"/><path class="cls-5" d="M507.42,930.4s1.84-40.43-52.37-53.29c-45.32-10.75-136-2.75-190.19,21.13s-85.45,46.86-87.29,64.32,36.75,15.62,46.86,8.27-11-13.78,5.51-32.16,113-49.61,164.47-53.29,89.12,20.21,91,46.86"/><line class="cls-7" x1="4.15" y1="1151.18" x2="-5.57" y2="1166.44"/><path class="cls-1" d="M222.47,1033.07c2.75,0-102,2.75-91-89.13S265.65,796,338.23,763.86s95.56-79,92.8-96.47,11-30.32,18.38-2.76,7.35,57-27.57,85.45-142.41,55.13-210.4,104.74S134.26,961.4,151.72,992.64,219.71,1033.07,222.47,1033.07Z"/><path class="cls-5" d="M222.47,1033.07c2.75,0-102,2.75-91-89.13S265.65,796,338.23,763.86s95.56-79,92.8-96.47,11-30.32,18.38-2.76,7.35,57-27.57,85.45-142.41,55.13-210.4,104.74S134.26,961.4,151.72,992.64,219.71,1033.07,222.47,1033.07Z"/><path class="cls-1" d="M355.57,500.41a10.11,10.11,0,1,1-10.1-10.1A10.11,10.11,0,0,1,355.57,500.41Z"/><circle class="cls-1" cx="405.8" cy="479.5" r="5.05"/><path class="cls-1" d="M615.9,502.21c8.61,11.31-4.17,24.09-15.48,15.48h0C591.8,506.38,604.59,493.59,615.9,502.21Z"/><path class="cls-1" d="M633.21,432.18a4.6,4.6,0,1,1-4.6-4.6A4.59,4.59,0,0,1,633.21,432.18Z"/><path class="cls-1" d="M352.06,315.49a6.44,6.44,0,1,1-6.44-6.43A6.43,6.43,0,0,1,352.06,315.49Z"/><path class="cls-1" d="M317.36,652.93a5.06,5.06,0,1,1-5.05-5A5,5,0,0,1,317.36,652.93Z"/><path class="cls-1" d="M302.3,850.63a5.06,5.06,0,1,1-5.05-5A5,5,0,0,1,302.3,850.63Z"/><path class="cls-1" d="M280.71,865.33a6.89,6.89,0,1,1-6.89-6.89A6.89,6.89,0,0,1,280.71,865.33Z"/><path class="cls-1" d="M626.8,887.06a5.52,5.52,0,1,1-5.51-5.51A5.51,5.51,0,0,1,626.8,887.06Z"/><circle class="cls-1" cx="596.52" cy="976.15" r="6.89"/><path class="cls-24" d="M527.09,1123.11a6.9,6.9,0,1,1-6.9-6.89A6.9,6.9,0,0,1,527.09,1123.11Z"/><rect class="cls-8" x="705.65" y="425.48" width="2.73" height="9.16" rx="0.89" transform="translate(410.48 -342.53) rotate(37.69)"/><path class="cls-8" d="M937.92,143.45c.33-.4.66-.8,1-1.22,6.22-8,8.47-16.75,5-19.42s-11.3,1.69-17.52,9.75c-.33.41-.64.83-.94,1.25Z"/><path class="cls-3" d="M752.12,402c4.56-7,13.56-23,25.22-38.58s94.8-124.32,94.8-124.32L942,142.68s.83-1.48-5.12-6.71l.08-.1c-.67-.52-1.3-1-1.89-1.43L933.23,133l-.08.11c-6.56-4.45-7.78-3.26-7.78-3.26l-75.63,91.93s-84.19,107.88-96.38,123.11-25.39,28-31,34.13a28,28,0,0,0-3,3.93l-13.6,44.63,1.49,1.14.61.47,1.48,1.15,39.75-24.42A32.93,32.93,0,0,0,752.12,402Z"/><polygon class="cls-8" points="716.59 392.02 705.76 427.55 707.25 428.69 707.86 429.16 709.34 430.31 741.58 410.5 716.59 392.02"/><path class="cls-3" d="M754.32,372.33l-3.45-2.67a4.15,4.15,0,0,1-.75-5.82l51.54-66.71a4.16,4.16,0,0,1,5.83-.74l3.45,2.66a4.16,4.16,0,0,1,.74,5.83l-51.54,66.7A4.15,4.15,0,0,1,754.32,372.33Z"/><rect class="cls-8" x="768.14" y="314.01" width="9.61" height="61.65" rx="3.15" transform="translate(372.1 -400.61) rotate(37.69)"/><line class="cls-25" x1="763.43" y1="349.86" x2="770.11" y2="355.02"/><path class="cls-3" d="M858.79,256.52l13.35-17.45L942,142.68s.83-1.48-5.12-6.71l.08-.1c-.67-.52-1.3-1-1.89-1.43L933.23,133l-.08.11c-6.56-4.45-7.78-3.26-7.78-3.26l-75.63,91.93s-5.34,6.85-13.53,17.32Z"/><polygon class="cls-3" points="726.45 419.8 711.62 408.34 710.88 410.77 724.28 421.13 726.45 419.8"/><path class="cls-1" d="M782.13,623.79c17.76,6.31,32,21.93,50.66,24.74s29,6.21,31.28,24.11-29.6,30.29-16.16,55.58,32.78,58.84,2.34,70.68S810,810.32,805.47,821.7s-52.84,7.77-58.37-8.33-32-19.82-50.88-9.94-53.2,7.1-68.49-7-30,1.71-52-11.13-26.16-59.39-17.17-91.36,39.33-35.08,43.84-54.36,30.27-32.14,54-30.13,35.2,20.45,62,19.6S764.36,617.47,782.13,623.79Z"/><path class="cls-12" d="M782.13,623.79c17.76,6.31,32,21.93,50.66,24.74s29,6.21,31.28,24.11-29.6,30.29-16.16,55.58,32.78,58.84,2.34,70.68S810,810.32,805.47,821.7s-52.84,7.77-58.37-8.33-32-19.82-50.88-9.94-53.2,7.1-68.49-7-30,1.71-52-11.13-26.16-59.39-17.17-91.36,39.33-35.08,43.84-54.36,30.27-32.14,54-30.13,35.2,20.45,62,19.6S764.36,617.47,782.13,623.79Z"/><path class="cls-1" d="M824.05,818.07c9.91.63,16.94-9.15,21.9-17.75.68-1.17,1.35-2.34,2-3.5a30.87,30.87,0,0,0,2.95-6.13c3.66-11.71-6.88-22.58-11-34.15-5-14,.84-31.11,13.32-39.23,6.45-4.19,15.71-8.62,14.24-16.17-1.33-6.86-11.19-9.43-12.42-16.31-1.12-6.25,5.74-12.17,3.9-18.25-.62-2.06-2.18-3.72-2.85-5.77-1.45-4.39,1.41-9.68-1-13.62-2.3-3.74-7.66-3.67-12-3.15-8.62,1-14.75,2.25-22.85-.72-9.49-3.47-18.37-8.13-28.75-4.88-4.14,1.29-8.4,3.76-12.5,2.39-1.86-.62-3.37-2-5.15-2.79-5.74-2.68-12.31.57-18.55,1.62-7.18,1.21-14.49-.59-21.55-2.37-4.09-1-8.31-2.13-11.67-4.7-2.75-2.1-4.72-5.05-7.22-7.44a23.73,23.73,0,0,0-24.75-4.69c-9.86,4-16.91,14.74-27.54,15.44-6.47.42-12.63-3.21-17.06-7.94s-7.51-10.55-11-16c-1.54-2.43-3.31-4.92-5.95-6-7.84-3.37-15.5,7.16-24,6.43-4.7-.4-8.79-4.26-13.48-3.82-5.08.48-8.24,5.64-10.2,10.35-5.84,14.07-8.23,30.25-2.93,44.53,4,10.84,12.4,21.31,9.81,32.57-2.2,9.55-12,16.64-12,26.44-.06,10.76,11.59,18.12,13.94,28.62,3.06-3.22,8.92-2,11.59,1.58s2.81,8.4,2,12.77c-.86,4.72-2.54,10.1.36,13.94,3.93,5.19,12,2.7,18.25,1a48.93,48.93,0,0,1,43.48,9.27c3.59,3,7.66,6.74,12.2,5.66,2.36-.57,4.26-2.4,6.6-3,7.45-2.07,12.71,8,20.26,9.73,4.52,1,9.07-1.2,13.17-3.33l21-10.88c7.13-3.71,15.58-7.46,22.85-4,11.41,5.36,11.79,24.66,24,27.94,6,1.6,12.25-1.64,18.39-.92C811,811.46,816.81,817.61,824.05,818.07Z"/><polygon class="cls-12" points="719.9 697.41 645.51 706.79 672.64 780.65 742.57 767.07 719.9 697.41"/><polygon class="cls-20" points="706.38 724.5 657.98 798.27 607.24 715.55 706.38 724.5"/><rect class="cls-5" x="626.7" y="636" width="12.19" height="112.75" transform="translate(1362.47 102.98) rotate(93.5)"/><circle class="cls-12" cx="817.9" cy="780.95" r="29.87" transform="translate(-55.16 1499.7) rotate(-83.14)"/><polygon class="cls-12" points="593.34 625.02 636.17 627.63 645.69 649.31 691.43 657.1 703.46 639.52 785.54 649.8 795.04 686.58 713.84 676.35 695.7 709.86 633.09 708.71 622.07 672.62 562.7 668.99 593.34 625.02"/><polygon class="cls-20" points="826.22 644.86 817.52 721.09 831.81 712.49 826.22 644.86"/><polygon class="cls-5" points="786.85 719.22 789.91 749.32 776.79 765.72 786.85 719.22"/><polygon class="cls-20" points="758.22 635.02 765.97 709.46 735.29 718.04 727.6 690.85 702.65 697.02 695.78 661.3 758.22 635.02"/><path class="cls-1" d="M553.53,1221.55s-22.72,11-41.19,7l-6.91-12.21s-17.47-14.48-34.84-43.06a234,234,0,0,1-13.08-24.85c-20.34-45-40.47-102.75-40.47-102.75L371.18,934.25l-2.4-5.86L350.91,876.2l107.72-56.14s14.53,74.35,13.59,93.53,51.31,181.77,57.07,201.17,24.24,75.57,19.62,93.66Z"/><g class="cls-26"><path class="cls-27" d="M471.78,1171.74c-.4.56-.77,1.07-1.19,1.59a234,234,0,0,1-13.08-24.85c-20.34-45-40.47-102.75-40.47-102.75L371.18,934.25l41.05-36.64,12,1.92s8.06,12.61-3.45,19.85,8,35.68,17.74,56.32-6.93,40.68-6.93,40.68S447,1048.91,466,1065c0,0-15-4-7.41,11.72S487.66,1148.92,471.78,1171.74Z"/></g><path class="cls-7" d="M553.53,1221.55s-22.72,11-41.19,7l-6.91-12.21s-17.47-14.48-34.84-43.06a234,234,0,0,1-13.08-24.85c-20.34-45-40.47-102.75-40.47-102.75L371.18,934.25l-2.4-5.86L350.91,876.2l107.72-56.14s14.53,74.35,13.59,93.53,51.31,181.77,57.07,201.17,24.24,75.57,19.62,93.66Z"/><path class="cls-7" d="M516.58,1215s18,.86,25.46-5.08"/><path class="cls-3" d="M538.53,628.42l67,100.67,91.15-71.92,20.94,10.55s-85.61,104-113.94,107.39-96.23-94.57-96.23-94.57"/><path class="cls-10" d="M528.53,613a69.56,69.56,0,0,1,32.7,29.09c12.31,21.55,25.25,40,25.25,40S556.66,714.76,532.77,724l-28.49-9.86Z"/><path class="cls-2" d="M458.63,856.41,335.82,796.35S313.65,861.89,314.88,917s20.55,165.82,22,200.74,100.66,81,89.23,31.78-17-229.73-17-229.73,13.7-11.79,19.24-23.54"/><path class="cls-10" d="M342,780.73c7.38-41.68,17-140.27,50.29-162.78s90.31-24.43,113.34-15.31c45.15,17.88,45.86,26.29,38.47,60.37s-55.9,138.69-55.9,138.69L477,857.13s-42.23,32.18-90.63,18.69c-56.78-15.82-65.95-51.7-65.95-51.7Z"/><path class="cls-3" d="M510.73,579.68a19,19,0,0,1-3.25,4.18c-1.05,1-2,2-2.8,3-3.9,4.58-5.72,8.69-6.33,12.24a16,16,0,0,0,.38,7.1,17.6,17.6,0,0,0,5.56,8.45s.53,14.85-17.89,16.65c-22.16,2.15-34.61-21-34.61-21,27.6-37.9,10.06-55.56,10.06-55.56C488.63,539.9,520.89,561.7,510.73,579.68Z"/><path class="cls-3" d="M457.44,536.22c-10-43,10.76-61.67,24.39-67.31,21.82-9,50.2,5.16,56.65,29.07s1.06,29,1.37,38.8c.21,6.86,4,10.56-.65,27.77-3.08,11.35-8.23,29.79-27.61,26.31-7.83-1.41-19.22-6.84-26.44-12.7"/><path class="cls-7" d="M511.1,525.24s-8.07-3-12.39,6.47"/><path class="cls-7" d="M538.53,520.22s-8.43-1.82-12,4.29"/><path class="cls-7" d="M445.36,536.71s-.71,7.53,2.16,9,7.35-1.6,6,4.4-8.24,6.35-8.24,6.35"/><path class="cls-8" d="M509.49,538.69c0,2-.89,3.62-2,3.62s-2-1.62-2-3.62.9-3.62,2-3.62S509.49,536.69,509.49,538.69Z"/><path class="cls-8" d="M534.53,536.71c0,2-.9,3.62-2,3.62s-2-1.62-2-3.62.89-3.62,2-3.62S534.53,534.71,534.53,536.71Z"/><path class="cls-10" d="M522.35,500.28s8-10,15-5c.35.26-18-46-61.91-23.84-22.81,11.52-23.89,45.65-20.09,60.84S460.83,543,460.83,543l4.52-1.76,4-2,10-3s-1.1-4-1-12C478.4,519.88,489.35,486.28,522.35,500.28Z"/><path class="cls-3" d="M473.85,541.78s-5.91-15.73-14.16-12.14-2.51,21.15,4.66,26.89,11.48,0,11.48,0"/><path class="cls-25" d="M509.49,562.33s8.8,4.88,17,2.75"/><path class="cls-25" d="M511.1,564s.94,6.37,6.9,7,6.28-5.33,6.28-5.33"/><path class="cls-25" d="M551,663c-4.8,19.34-12.84,39-26.75,53.59"/><path class="cls-25" d="M554.05,647.63c-.4,3-.94,6-1.56,9"/><path class="cls-25" d="M408.61,832.75a48.91,48.91,0,0,1-10.59-1"/><path class="cls-25" d="M482.16,802.21c-19.41,14.35-43.29,27.5-67.56,30.16"/><path class="cls-25" d="M346.29,780.66s10.47,2.63,26.79-5.46"/><path class="cls-25" d="M479.25,638a39.94,39.94,0,0,0,10.81-.29"/><path class="cls-25" d="M444.21,613c6.29,11,16.91,20.48,29.23,23.84"/><path class="cls-7" d="M346.29,1052.62s36.12,51.42,55.35,57.19"/><path class="cls-7" d="M382.14,1229.44s23.58,4.28,35.13,0"/><path class="cls-7" d="M429,1029c19.1,20.12,39.12,41.37,62.53,56.52,4.59,3,9.52,5.92,14.92,7.08"/><path class="cls-7" d="M417.27,1016.38q3.53,3.92,7.12,7.75"/><path class="cls-7" d="M434,917.07a43.16,43.16,0,0,1-19.38,4.62"/><path class="cls-7" d="M403.32,921.69s-17-20.79-33.17-22.17"/><path class="cls-3" d="M386.73,700.11S329.19,762.31,315,760s-21.48-25.29-18.38-31.63,54.95-66.59,54.95-66.59Z"/><path class="cls-10" d="M408.65,609.19s-34,9.49-50.94,34.74-25,31.41-25,31.41,17.24,32,32.64,41.88,48-8,48-8Z"/><path class="cls-25" d="M405.26,635.46a23.42,23.42,0,0,0-7.24-7.74"/><path class="cls-25" d="M368.46,720.19s3.67,2.5,6,2.5c9.34-11.67,27.61-10.14,32.29-24.15,9.34-16.35,7-37.36,1.39-56.9"/><path class="cls-3" d="M315,760c-16.17-2.72-33.42-3.73-43.27-65.12l-9.86-61.39,22.17-6.63s27.62,67.26,36.29,84.06,3.75,27.44,3.75,27.44"/><path class="cls-3" d="M695.69,658s16.43-18,24.4-22.59c7.63-4.39,15.27-7.32,16.86-7,4.07.9,14.32,12.45,14.32,12.45s-1.38,4-8.08,1c0,0,7.77,9.7,6.54,14.75s-9.83,9.74-12,12a2.46,2.46,0,0,1-4-.11s-15.89,10.85-26.62,8.22"/><path class="cls-28" d="M701.39,631.69,794,652.48v2.77l-94-18.71S698.85,633.31,701.39,631.69Z"/><path class="cls-10" d="M811.92,647.68c-.26.68-3.27,8.2-8.29,10.37-2.68,1.19-5.93.84-9.62-2.8v-2.78s3.13-3.65,7.66-2.62h0a5.76,5.76,0,0,1,1.31.4C808,652.28,811.57,648.1,811.92,647.68Z"/><path class="cls-29" d="M811.92,647.68c-.26.68-3.27,8.2-8.29,10.37.63-1.61,1.47-3.92,1.07-4.16-.63-.35-2.77-.26-4-.75s1.42-3.19,1-3.29a5.76,5.76,0,0,1,1.31.4C808,652.28,811.57,648.1,811.92,647.68Z"/><path class="cls-30" d="M811.92,647.68c-.26.68-3.27,8.2-8.29,10.37.63-1.61,1.47-3.92,1.07-4.16-.63-.35-2.77-.26-4-.75s1.42-3.19,1-3.29a5.76,5.76,0,0,1,1.31.4C808,652.28,811.57,648.1,811.92,647.68Z"/><path class="cls-3" d="M705,668.5s16.81-1.39,19.89-11.86c1-3.41,4.64-6.93,4.64-6.93s15.25,1.61,15.25-4.69l-19.89-4.94a35.58,35.58,0,0,0-19.89,12"/><path class="cls-7" d="M733.77,668.5a6.61,6.61,0,0,1,0-4.47s-4.32-1.51-3.21-5.37c0,0-6.47-1.84-1-8.95"/><path class="cls-7" d="M730.56,658.66s9.89-5.19,11.36-8"/><path class="cls-7" d="M733.77,664s10.34-4.28,11-7.63"/><path class="cls-7" d="M736.24,634.08a12,12,0,0,0,6.39,6.87"/><path class="cls-7" d="M737.4,636.43a26.17,26.17,0,0,0-4.91,2.24"/><path class="cls-28" d="M176.61,618.42c-9.7-17.85-5.14-67.16,37.88-73.66,59.12-8.94,36,34.88,74.08,43.2s29.2,60.63-22.35,67.29C226.5,660.39,192.78,648.21,176.61,618.42Z"/><path class="cls-3" d="M281.47,597.53s-4.62-5.34-8.32-6.18-14.78,2.9-14.78,2.9.46,5.5,7.85,5.73,3.7,3.92,3.7,3.92S279.88,608.7,281.47,597.53Z"/><path class="cls-2" d="M242.19,556.79c-4.64-9.68-14.92-6.67-18.92-3-7.39,6.68-3.7,13.18,0,11.41S246.82,566.46,242.19,556.79Z"/><path class="cls-2" d="M196.77,589.19a12.37,12.37,0,0,0,2.5,1.17,7.31,7.31,0,0,0,8.92-5.38,14.82,14.82,0,0,1,.35-1.88,14.53,14.53,0,0,1,1.66-2.84,3,3,0,0,0,.23-3.12c-1.09-1.57-3.73-.68-5.29-1.78-1.16-.82-1.36-2.48-2.27-3.57-1.4-1.7-4-1.62-6.17-1.39-.75.07-1.68.3-1.84,1.05-.08.39.11.81,0,1.2-.17.88-1.34,1-2.21,1.16-3.58.62-5.32,4.92-4.41,8.19S194,587.58,196.77,589.19Z"/><path class="cls-2" d="M211.52,615.29c-1.11-1.92-.61-4.45-1.65-6.4-1.35-2.52-4.61-3.15-7.45-3.43q-5.26-.51-10.54-.75a.91.91,0,0,0-.61.12c-.27.19-.26.6-.25.93,0,1.73-1,3.28-1.56,4.9-1.45,3.88,3,8.75,5.64,11.37a12,12,0,0,0,7.09,3.74c3.83.4,7.44-1.66,10.74-3.65a3.65,3.65,0,0,0,1.26-1,2.89,2.89,0,0,0-.49-3.17A27,27,0,0,1,211.52,615.29Z"/><path class="cls-2" d="M237.62,625.61c-3.11-1.54-6.82-.39-10.09.77a3.43,3.43,0,0,0-2.12,1.46c-.55,1.14.28,2.13.26,3.25,0,1.81-.8,1.47-1.36,2.9-.91,2.31.55,4.1,2.54,5.08,4.59,2.28,9.46,6.7,14.47,2.51a7.57,7.57,0,0,0,2.43-6.52,12.91,12.91,0,0,0-2.86-6.55A9.86,9.86,0,0,0,237.62,625.61Z"/><path class="cls-2" d="M285.23,628.49a2.18,2.18,0,0,0-.83-.9,2.68,2.68,0,0,0-1.29-.21c-2.42,0-4.91.38-7.23-.33-1.31-.4-2.5-1.13-3.77-1.65a5.63,5.63,0,0,0-4-.35c-2.6,1-1.27,2.4-1.23,4.09.05,2.48-2.06,4.43-2,6.94.1,2.14,2,3.87,4,4.49a15.62,15.62,0,0,0,6.39.11,12.5,12.5,0,0,0,4.54-1.14,11,11,0,0,0,2.53-2.09,13.64,13.64,0,0,0,2.91-4.09A5.76,5.76,0,0,0,285.23,628.49Z"/><path class="cls-8" d="M338.85,1125.78c46.46,32.79,93.38,15.51,114,10,21.33-5.7,66,9,86-21,20.71-31.07,25,127,25,127S453.61,1222.8,434,1215s-152.29-44.61-131.13-57.26S321.85,1113.78,338.85,1125.78Z"/><path class="cls-10" d="M536.35,573.28c-.28,0,2.1-6,0-5s-3.18-7.4-8-8c-8-1-12-3-18,7-1.56,2.59-15.84-.12-18-3-3-4-9-15-9-15l-6,2,1,12,2,13c4.19,4.53,15.21,20.13,36,18.58C532.38,593.66,536.35,573.28,536.35,573.28Z"/><path class="cls-10" d="M459.85,488.78c-6.51-7.88-8.68-17.49-2-23s16.49-4.88,23,3"/><path class="cls-10" d="M541.35,550.28s-1.16,18.27-6,18,0,9,0,9l5-16S542.35,553.28,541.35,550.28Z"/><path class="cls-25" d="M516.35,565.28s5.78,5.12,12.89,1.7"/><path class="cls-31" d="M480.49,469.05s-15.27,4.87-20.71,20.05"/><path class="cls-3" d="M522.73,534.73s4.46,16.11,4.25,18.88c-.22,3-8,.68-8,.68"/><path class="cls-1" d="M500.07,905.43c12.86,27.57,10.11,59.72-9.19,77.18-39.69,35.91-147.92,66.15-183.76,91.88s-8.27,42.26-8.27,42.26-26.64,3.68-25.72-20.21S312.64,1046,377,1019.36,503.74,977.1,480.77,913.7"/><path class="cls-5" d="M500.07,905.43c12.86,27.57,10.11,59.72-9.19,77.18-39.69,35.91-147.92,66.15-183.76,91.88s-8.27,42.26-8.27,42.26-26.64,3.68-25.72-20.21S312.64,1046,377,1019.36,503.74,977.1,480.77,913.7"/><path class="cls-1" d="M511.18,1026.31s48.56,12.85,55.7,37.13S549.74,1112,549.74,1112s37.14-11.43,37.14-47.14-37.14-47.13-48.56-50S499.75,1013.45,511.18,1026.31Z"/><path class="cls-5" d="M511.18,1026.31s48.56,12.85,55.7,37.13S549.74,1112,549.74,1112s37.14-11.43,37.14-47.14-37.14-47.13-48.56-50S499.75,1013.45,511.18,1026.31Z"/><path class="cls-1" d="M436,297c16-2.43,15.66-36.57-12.57-46.51s-13.75-32.06.32-27.17S438,260.87,459.1,263.79s25.53-39.28,13.94-52.86,12.06-8,14.88-12c4.56-6.6-10.61-38.23,5.94-35.44,8.2,1.39-.4,21.74,5.73,52s13.48,45.33,27.32,29.22-1.31-28.71,8.86-36.31,18.37-.68,17.4,8.92-1.38,19.06,5.35,15.62,17.84-19.53,23.34-32.18,11.78-11.84,12.28-2.41S569.62,228.15,569,242.24s9.12,39.47,31.32,22.56,27.31-23.07,35.05-14,2,23.84,14.54,23.67,28.25-33.66,36.15-31.13,22.85,9.85-4.33,24.88-36.4,14.38-35.2,30.77,64.88,18.35,58.46,29.21-77.67,9.56-85.11,36.34,31.11,22.67,24.36,37.66-22.35-6.42-36.53-19.06-14.46-3.23-26.86.8-15.15-3.1-23.14-5.11-3.11,14.36-15.12,12.61-3.72-4.2-11.85-7.32S515.52,412,498,407.15s-28.12-19-39.05-9-3,31.16-18.56,29.69-10.07-16-3.47-17.71,24.44-25.62,21.35-34.76-32.84,15.25-39.14,2.64-11.84-23.39-27.06-19.6-17.54-17.43-5.63-17.08,39.55,2.4,41.72-7.58-4.91-21.11-23.71-30.55-.35-28.45,12.87-17.93S423.37,298.94,436,297Z"/><path class="cls-8" d="M511,317.45s-7.68,1.78-1.47,10.14c0,0-7,1.16-2.12,9.72,0,0-4.24,3.6,1,10,0,0-2.47,6.16,9.85,14.68,0,0-.09,5.29,8.47,7.31,7.49,1.77,9.5-1.36,9.5-1.36s9.81-1.19,15.22-9.31c0,0,8.65-2.65,6.15-7.94,0,0,7-5.48,3.28-9,0,0,8-8.12,4-10.82C557.81,326.09,511,317.45,511,317.45Z"/><path class="cls-21" d="M569.38,221.94c43.86,18.23,44.42,60.67,29.37,81.85-13.71,19.28-32.18,17.82-33.8,27s-53.22-4.22-55.62-10.82,8.31-5.71-11.52-32.16S515.51,199.56,569.38,221.94Z"/><g class="cls-32"><path class="cls-33" d="M565,330.84c-1.62,9.23-53.23-4.22-55.63-10.81s8.3-5.72-11.51-32.17,17.69-88.31,71.56-65.92a74.62,74.62,0,0,1,14.89,8.18c-22-4.85-52-5.7-68.49,24.67-18,33.07,10,63.13,24.05,65.47,0,0-11.64-8.48-15.51-22.74,0,0,19.86,29.47,51,24.55C569.76,324.73,565.68,326.71,565,330.84Z"/></g><path class="cls-7" d="M569.38,221.94c43.86,18.23,44.42,60.67,29.37,81.85-13.71,19.28-32.18,17.82-33.8,27s-53.22-4.22-55.62-10.82,8.31-5.71-11.52-32.16S515.51,199.56,569.38,221.94Z"/><path class="cls-25" d="M557.57,342.55s-20.66,7-46.59-3.41"/><path class="cls-25" d="M545.47,336.42a30.13,30.13,0,0,0,3.68-.49"/><path class="cls-25" d="M512.58,329.6a89.17,89.17,0,0,0,26,6.72"/><path class="cls-25" d="M526.7,352.06c8.61,1.35,17.73,1.62,26.13-1"/><path class="cls-25" d="M512,348.45a83.64,83.64,0,0,0,10.43,2.82"/><path class="cls-25" d="M539.89,359.78a76.77,76.77,0,0,1-22.34-6"/><path class="cls-25" d="M547.25,360c-1.13.05-2.26.05-3.39,0"/><path class="cls-25" d="M520.22,363.3a25.67,25.67,0,0,0,14.2,4.7"/><path class="cls-7" d="M562.2,329s-22.06-14.17-47.86-12.8"/><path class="cls-7" d="M546.76,325s12.64-27.56,30.3-29.44c0,0-10.7-8.59-14.86-9.89s-6.81,7.81-3.9,6.83,7.06-13.57,2.1-16.87-14.53,13.1-11.72,14.44,6.34-15.9-.57-17.85-12,12.91-8.79,13.21,4.36-6.16-3-8.63c-8-2.67-18,1.25-18,1.25s15.49,18.51,10.37,42.12"/></svg>