<svg id="Слой_1" data-name="Слой 1" xmlns="http://www.w3.org/2000/svg" viewBox="0 0 997 727"><defs><style>.cls-1,.cls-15,.cls-8{opacity:0.2;}.cls-2{fill:#ececec;}.cls-3,.cls-8{fill:#fff;}.cls-4{opacity:0.6;}.cls-5{fill:#1a2e35;}.cls-6{fill:#375a64;}.cls-7{fill:#ff735d;}.cls-9{fill:#4b98f2;}.cls-10,.cls-11{opacity:0.3;}.cls-12{fill:#e1e1e1;}.cls-13{opacity:0.4;}.cls-14{fill:#212121;}.cls-16{fill:#fafafa;}.cls-17{fill:#dd4e4e;}.cls-18{fill:#ffc19d;}.cls-19{fill:#ff9c6a;}.cls-20{fill:#455a64;}</style></defs><g class="cls-1"><path class="cls-2" d="M940.27,30a34.51,34.51,0,0,1,8.38-3.64l1.73-8.29,14-.25,2,8.23a34.23,34.23,0,0,1,8.5,3.34L982,24.75l10.08,9.73-4.39,7.24a34.13,34.13,0,0,1,3.64,8.38l8.3,1.73.24,14-8.22,2a34.66,34.66,0,0,1-3.35,8.5l4.64,7.08L983.2,93.52,976,89.13a34.13,34.13,0,0,1-8.38,3.64l-1.73,8.3-14,.24-2-8.22a34.66,34.66,0,0,1-8.5-3.35l-7.08,4.64-10.08-9.73,4.39-7.24A34.13,34.13,0,0,1,924.91,69l-8.3-1.73-.24-14,8.23-2a34.15,34.15,0,0,1,3.34-8.51l-4.64-7.08L933,25.61,940.27,30Zm7.47,18.67A15,15,0,1,0,969,48.29,15,15,0,0,0,947.74,48.67Z"/></g><g class="cls-1"><path class="cls-2" d="M1001.74,6.47a20.06,20.06,0,0,1,4.88-2.12l1-4.84,8.18-.14,1.17,4.8a19.84,19.84,0,0,1,5,2l4.13-2.71L1032,9.09l-2.57,4.22a19.78,19.78,0,0,1,2.13,4.89l4.84,1,.14,8.17-4.8,1.18a20,20,0,0,1-2,5l2.71,4.13-5.68,5.88L1022.56,41a20.3,20.3,0,0,1-4.89,2.12l-1,4.84-8.17.15-1.18-4.8a20.8,20.8,0,0,1-5-2L998.22,44l-5.88-5.68,2.56-4.22a19.62,19.62,0,0,1-2.13-4.89l-4.84-1-.14-8.18,4.8-1.18a19.77,19.77,0,0,1,1.95-4.95l-2.71-4.14,5.68-5.88,4.23,2.56Zm4.35,10.89a8.77,8.77,0,1,0,12.41-.22A8.78,8.78,0,0,0,1006.09,17.36Z"/></g><polygon class="cls-3" points="672.99 55.44 672.99 229.78 829.67 229.78 849.15 229.78 961.8 229.78 961.8 55.44 672.99 55.44"/><rect class="cls-4" x="672.99" y="55.44" width="288.81" height="12.89"/><circle class="cls-5" cx="680.4" cy="62.11" r="1.67"/><path class="cls-5" d="M688.3,62.11a1.68,1.68,0,1,1-1.67-1.67A1.68,1.68,0,0,1,688.3,62.11Z"/><circle class="cls-5" cx="692.85" cy="62.11" r="1.67"/><path class="cls-6" d="M813,83.19c0,.09-5.89.17-13.16.17s-13.16-.08-13.16-.17,5.89-.18,13.16-.18S813,83.09,813,83.19Z"/><path class="cls-7" d="M848,83.19c0,.09-5.89.17-13.16.17s-13.17-.08-13.17-.17,5.9-.18,13.17-.18S848,83.09,848,83.19Z"/><path class="cls-6" d="M883,83.19c0,.09-5.9.17-13.16.17s-13.17-.08-13.17-.17,5.89-.18,13.17-.18S883,83.09,883,83.19Z"/><path class="cls-6" d="M918.34,83.19c0,.09-5.89.17-13.16.17S892,83.28,892,83.19s5.89-.18,13.16-.18S918.34,83.09,918.34,83.19Z"/><path class="cls-6" d="M949,87.37s.23,0,.63-.11a2.89,2.89,0,0,0,1.51-.92,2.83,2.83,0,0,0,.61-1.14,5.81,5.81,0,0,0,.09-1.54c-.07-1.11.26-2.54-.74-3.59a2.78,2.78,0,0,0-1.87-.92c-.76,0-1.58,0-2.42,0l-5.36,0H929.2a2.81,2.81,0,0,0-2.46,1.51,2.89,2.89,0,0,0-.3,1.45v1.55a5.49,5.49,0,0,0,.09,1.48,2.82,2.82,0,0,0,.69,1.21,3,3,0,0,0,1.17.72,4.44,4.44,0,0,0,1.37.12l10,0,6.76,0,1.84,0h.48c.11,0,.16,0,.16,0l-.16,0-.48,0-1.84,0-6.76,0-10,0a4.91,4.91,0,0,1-1.46-.13,3.12,3.12,0,0,1-1.31-.8,3,3,0,0,1-.78-1.36,3,3,0,0,1-.11-.79v-.77c0-.51,0-1,0-1.55a3.28,3.28,0,0,1,.35-1.61,3.1,3.1,0,0,1,2.76-1.69h12.28l5.36,0c.84,0,1.64,0,2.44,0a3,3,0,0,1,2,1,3,3,0,0,1,.75,1.93c0,.64,0,1.25,0,1.82a5.53,5.53,0,0,1-.12,1.59,3.06,3.06,0,0,1-.66,1.18,3,3,0,0,1-1.6.9A2,2,0,0,1,949,87.37Z"/><rect class="cls-8" x="696.23" y="78.51" width="41.7" height="10.94" rx="4.82"/><rect class="cls-9" x="697.5" y="114.81" width="61.43" height="59.43"/><g class="cls-10"><polygon points="702.26 169.15 719.25 138.57 733.15 158.12 741.6 147.73 754.16 169.15 702.26 169.15"/></g><g class="cls-10"><path d="M739.07,132.62a4.42,4.42,0,1,1-4.42-4.42A4.42,4.42,0,0,1,739.07,132.62Z"/></g><path class="cls-11" d="M754.16,119.48l-51.9,0c.06-.07-.55.55-.29.3h0v13.33q0,6.55,0,12.8c0,8.33,0,16.2,0,23.43v.26h.26l37.69-.13,10.53-.07,2.75,0h.93l-.26,0h-.72l-2.81,0-10.58-.07-37.28-.13c0-7.17,0-14.95,0-23.18q0-6.24,0-12.8V120l51.36,0c.05,14.73.1,27,.13,35.63,0,4.33.05,7.74.06,10.09,0,1.15,0,2.05,0,2.68,0,.29,0,.51,0,.69s0,.24,0,.25a.72.72,0,0,0,0-.22c0-.17,0-.39,0-.67,0-.62,0-1.49,0-2.62,0-2.35,0-5.74.06-10,0-8.72.08-21.13.13-36v-.25Z"/><path class="cls-6" d="M751.22,183.36c0,.12-10.32.21-23.06.21s-23.07-.09-23.07-.21,10.33-.2,23.07-.2S751.22,183.25,751.22,183.36Z"/><path class="cls-6" d="M760.46,190.25c0,.11-14.09.2-31.47.2s-31.47-.09-31.47-.2S711.61,190,729,190,760.46,190.13,760.46,190.25Z"/><path class="cls-6" d="M760.46,196.91c0,.11-14.09.21-31.47.21s-31.47-.1-31.47-.21,14.09-.21,31.47-.21S760.46,196.8,760.46,196.91Z"/><path class="cls-6" d="M760.46,203.57c0,.12-14.09.21-31.47.21s-31.47-.09-31.47-.21,14.09-.2,31.47-.2S760.46,203.46,760.46,203.57Z"/><path class="cls-6" d="M723.5,210.24c0,.11-5.82.2-13,.2s-13-.09-13-.2,5.82-.21,13-.21S723.5,210.12,723.5,210.24Z"/><rect class="cls-9" x="786.87" y="114.81" width="61.43" height="59.43"/><g class="cls-10"><polygon points="791.63 169.15 808.62 138.57 822.52 158.12 830.97 147.73 843.53 169.15 791.63 169.15"/></g><g class="cls-10"><path d="M828.44,132.62A4.42,4.42,0,1,1,824,128.2,4.42,4.42,0,0,1,828.44,132.62Z"/></g><path class="cls-11" d="M843.53,119.48l-51.9,0c.06-.07-.56.55-.29.3h0v13.33q0,6.55,0,12.8c0,8.33,0,16.2,0,23.43v.26h.26l37.69-.13,10.53-.07,2.75,0h.93l-.26,0h-.72l-2.81,0-10.59-.07-37.27-.13c0-7.17,0-14.95,0-23.18q0-6.24,0-12.8V120l51.36,0c.05,14.73.1,27,.13,35.63,0,4.33.05,7.74.06,10.09,0,1.15,0,2.05,0,2.68,0,.29,0,.51,0,.69s0,.24,0,.25a.72.72,0,0,0,0-.22c0-.17,0-.39,0-.67,0-.62,0-1.49,0-2.62,0-2.35,0-5.74.06-10,0-8.72.08-21.13.13-36v-.25Z"/><path class="cls-6" d="M840.59,183.36c0,.12-10.32.21-23.06.21s-23.07-.09-23.07-.21,10.33-.2,23.07-.2S840.59,183.25,840.59,183.36Z"/><path class="cls-6" d="M849.83,190.25c0,.11-14.09.2-31.47.2s-31.47-.09-31.47-.2S801,190,818.36,190,849.83,190.13,849.83,190.25Z"/><path class="cls-6" d="M849.83,196.91c0,.11-14.09.21-31.47.21s-31.47-.1-31.47-.21,14.09-.21,31.47-.21S849.83,196.8,849.83,196.91Z"/><path class="cls-6" d="M849.83,203.57c0,.12-14.09.21-31.47.21s-31.47-.09-31.47-.21,14.09-.2,31.47-.2S849.83,203.46,849.83,203.57Z"/><path class="cls-6" d="M812.87,210.24c0,.11-5.82.2-13,.2s-13-.09-13-.2,5.82-.21,13-.21S812.87,210.12,812.87,210.24Z"/><rect class="cls-9" x="874.57" y="114.81" width="61.43" height="59.43"/><g class="cls-10"><polygon points="879.34 169.15 896.33 138.57 910.23 158.12 918.67 147.73 931.24 169.15 879.34 169.15"/></g><g class="cls-10"><path d="M916.15,132.62a4.42,4.42,0,1,1-4.42-4.42A4.42,4.42,0,0,1,916.15,132.62Z"/></g><path class="cls-11" d="M931.24,119.48l-51.9,0c.06-.07-.56.55-.3.3h0v26.13c0,8.33,0,16.2,0,23.43v.26h.26l37.69-.13,10.52-.07,2.76,0h.93l-.26,0h-.72l-2.81,0-10.59-.07-37.27-.13c0-7.17,0-14.95,0-23.18,0-4.16,0-8.44,0-12.8V120L931,120c0,14.73.1,27,.13,35.63,0,4.33,0,7.74.06,10.09,0,1.15,0,2.05,0,2.68,0,.29,0,.51,0,.69a1,1,0,0,0,0,.25,1.76,1.76,0,0,0,0-.22c0-.17,0-.39,0-.67,0-.62,0-1.49,0-2.62,0-2.35,0-5.74.06-10,0-8.72.08-21.13.13-36v-.25Z"/><path class="cls-6" d="M928.3,183.36c0,.12-10.33.21-23.06.21s-23.07-.09-23.07-.21,10.33-.2,23.07-.2S928.3,183.25,928.3,183.36Z"/><path class="cls-6" d="M937.54,190.25c0,.11-14.09.2-31.47.2s-31.47-.09-31.47-.2,14.09-.21,31.47-.21S937.54,190.13,937.54,190.25Z"/><path class="cls-6" d="M937.54,196.91c0,.11-14.09.21-31.47.21s-31.47-.1-31.47-.21,14.09-.21,31.47-.21S937.54,196.8,937.54,196.91Z"/><path class="cls-6" d="M937.54,203.57c0,.12-14.09.21-31.47.21s-31.47-.09-31.47-.21,14.09-.2,31.47-.2S937.54,203.46,937.54,203.57Z"/><path class="cls-6" d="M900.58,210.24c0,.11-5.82.2-13,.2s-13-.09-13-.2,5.82-.21,13-.21S900.58,210.12,900.58,210.24Z"/><path class="cls-12" d="M961.8,96.91c0,.11-64.6.2-144.27.2s-144.3-.09-144.3-.2,64.59-.21,144.3-.21S961.8,96.79,961.8,96.91Z"/><path class="cls-5" d="M673,55.44l288.81-.19H962v.19c0,53.63,0,112.57,0,174.32V230h-.21L673,229.94h-.16v-.16c.1-106.8.16-173,.16-174.34,0,1.3.06,67.54.16,174.34l-.16-.16,288.81,0-.2.2v0c0-61.75,0-120.69,0-174.32l.19.19Z"/><rect class="cls-3" x="363.72" y="219" width="120.55" height="83.95"/><g class="cls-13"><rect x="363.72" y="219" width="120.55" height="10.49"/></g><path class="cls-14" d="M370.26,224.55a1.26,1.26,0,1,1-1.25-1.32A1.28,1.28,0,0,1,370.26,224.55Z"/><path class="cls-14" d="M375.37,224.55a1.26,1.26,0,1,1-1.26-1.32A1.29,1.29,0,0,1,375.37,224.55Z"/><path class="cls-14" d="M380.47,224.55a1.26,1.26,0,1,1-1.26-1.32A1.29,1.29,0,0,1,380.47,224.55Z"/><rect class="cls-15" x="375.18" y="239.77" width="17.18" height="41.22"/><rect class="cls-15" x="401.67" y="239.77" width="17.18" height="41.22"/><rect class="cls-15" x="428.17" y="239.77" width="17.18" height="41.22"/><rect class="cls-15" x="454.66" y="240.1" width="17.18" height="41.22"/><rect class="cls-15" x="373.19" y="285.54" width="104.14" height="9.42"/><polygon class="cls-6" points="463.05 291.82 465.29 303.16 467.13 300 471.09 305.65 473.07 304.38 469.11 298.72 472.75 298.19 463.05 291.82"/><circle class="cls-16" cx="73.99" cy="132.26" r="56.69" transform="translate(-76.7 148.32) rotate(-66.86)"/><path class="cls-3" d="M111.39,196.63c0,.06.6.16,1.55.67a7.33,7.33,0,0,1,3,3.15,6.43,6.43,0,0,1,.7,2.86,5.62,5.62,0,0,1-1,3.17,7.37,7.37,0,0,1-7,3,7.07,7.07,0,0,1-5.46-5.21,5.52,5.52,0,0,1,.22-3.31,6.72,6.72,0,0,1,1.72-2.43,7.63,7.63,0,0,1,4-1.9c1.07-.15,1.69,0,1.69-.09a1.35,1.35,0,0,0-.44-.09,2.7,2.7,0,0,0-.54,0,3.87,3.87,0,0,0-.74,0,7.65,7.65,0,0,0-4.25,1.83,7,7,0,0,0-1.88,2.54,5.93,5.93,0,0,0-.29,3.56,7.22,7.22,0,0,0,1.94,3.49,7.33,7.33,0,0,0,3.91,2.1,7.53,7.53,0,0,0,4.43-.62,7.45,7.45,0,0,0,3.12-2.6,6,6,0,0,0,1.07-3.42,6.71,6.71,0,0,0-.8-3,7.28,7.28,0,0,0-3.29-3.17,4.47,4.47,0,0,0-.68-.28,4,4,0,0,0-.52-.15A2.11,2.11,0,0,0,111.39,196.63Z"/><path class="cls-17" d="M53.16,127.07a20.81,20.81,0,1,1,29.68,18.82v5.25H64.6s-.11-2.95-.15-5.58A20.8,20.8,0,0,1,53.16,127.07Z"/><path class="cls-9" d="M53.33,126.93A20.81,20.81,0,1,1,83,145.75V151H64.76s-.11-2.95-.15-5.58A20.79,20.79,0,0,1,53.33,126.93Z"/><path class="cls-5" d="M71.2,151.05s0-.08,0-.25-.05-.43-.09-.75c-.08-.66-.2-1.64-.38-2.88s-.43-2.78-.83-4.53A30.77,30.77,0,0,0,68,136.85a19.19,19.19,0,0,0-1.71-3.11,3.83,3.83,0,0,0-1.42-1.28,2.14,2.14,0,0,0-2,.07,1.42,1.42,0,0,0-.66.82,1.47,1.47,0,0,0,.09,1.07,3,3,0,0,0,1.61,1.38,5.71,5.71,0,0,0,4.32-.3A5.78,5.78,0,0,0,71.18,132a4.34,4.34,0,0,0,.13-2.4,1.89,1.89,0,0,0-1.9-1.45,1.31,1.31,0,0,0-1,.73,1.86,1.86,0,0,0-.17,1.29,4.11,4.11,0,0,0,1.46,2.06,6.18,6.18,0,0,0,4.85,1.41,5.39,5.39,0,0,0,4-3,3.16,3.16,0,0,0,.15-2.52,1.63,1.63,0,0,0-.92-.92,1.55,1.55,0,0,0-1.28.12,2.09,2.09,0,0,0-.88.91,3.18,3.18,0,0,0-.31,1.2,5.94,5.94,0,0,0,.31,2.38,6.21,6.21,0,0,0,2.94,3.49,6.35,6.35,0,0,0,4.3.59,3.29,3.29,0,0,0,1.87-1,1.63,1.63,0,0,0,.12-2,1.39,1.39,0,0,0-.94-.46,2,2,0,0,0-1,.2,3,3,0,0,0-1.27,1.43c-.52,1.12-.94,2.22-1.37,3.27-1.66,4.19-2.84,7.65-3.63,10-.4,1.2-.69,2.13-.89,2.77l-.21.72c0,.16-.07.25-.07.25a1.78,1.78,0,0,0,.09-.24q.09-.26.24-.72c.22-.64.53-1.56.93-2.75.82-2.38,2-5.83,3.71-10,.43-1,.86-2.14,1.37-3.25A2.85,2.85,0,0,1,83,132.84a1.25,1.25,0,0,1,1.56,1.95,3.09,3.09,0,0,1-1.76.91,6.08,6.08,0,0,1-4.14-.58,6,6,0,0,1-2.82-3.36,6.05,6.05,0,0,1-.3-2.28,2.28,2.28,0,0,1,1.07-1.91,1.28,1.28,0,0,1,1.08-.1,1.33,1.33,0,0,1,.76.78,2.9,2.9,0,0,1-.14,2.32,5.15,5.15,0,0,1-3.83,2.85,6,6,0,0,1-4.65-1.35,3.84,3.84,0,0,1-1.37-1.93,1.58,1.58,0,0,1,.14-1.11,1.08,1.08,0,0,1,.86-.6,1.45,1.45,0,0,1,1,.33,1.82,1.82,0,0,1,.6.93A4.24,4.24,0,0,1,71,132a5.55,5.55,0,0,1-2.81,3.34,5.49,5.49,0,0,1-4.14.3,2.7,2.7,0,0,1-1.49-1.26,1.23,1.23,0,0,1,.48-1.62,1.93,1.93,0,0,1,1.78-.06,3.58,3.58,0,0,1,1.35,1.21,19.57,19.57,0,0,1,1.71,3.07,31.4,31.4,0,0,1,1.91,5.75c.41,1.74.67,3.26.87,4.5s.33,2.21.43,2.87c0,.32.08.57.11.75S71.2,151.05,71.2,151.05Z"/><path class="cls-5" d="M66,154.52H81.66a1.18,1.18,0,0,0,1.18-1.18h0a1.17,1.17,0,0,0-1.18-1.17H66a1.17,1.17,0,0,0-1.17,1.17h0A1.18,1.18,0,0,0,66,154.52Z"/><path class="cls-5" d="M66,155.54H81.66a1.18,1.18,0,1,1,0,2.35H79.94l-2.28,4.34a1.5,1.5,0,0,1-1.33.81h-5.6a1.52,1.52,0,0,1-1.34-.82l-2.22-4.33H66a1.18,1.18,0,0,1,0-2.35Z"/><g class="cls-1"><path class="cls-3" d="M87.34,113.81A15.37,15.37,0,0,0,83.17,111a10.89,10.89,0,0,0-3.2-.93c-.79-.09-1.24,0-1.28.16-.09.37,1.49.93,3.61,2.35a17.13,17.13,0,0,1,7.8,16.81c-.29,2.54-.88,4.1-.53,4.28.15.07.5-.22,1-.87a11.28,11.28,0,0,0,1.35-3.05,15.25,15.25,0,0,0,.58-5,16.16,16.16,0,0,0-1.46-6"/></g><g class="cls-1"><path class="cls-3" d="M73.69,111.16c1.32,0,2.48-.37,2.62-1.07,0-.34-.19-.71-.67-1a3.77,3.77,0,0,0-2-.48,3.85,3.85,0,0,0-2,.5c-.47.29-.71.66-.65,1"/></g><path class="cls-6" d="M69.68,162.59a11.21,11.21,0,0,0,1.08-.33,8.61,8.61,0,0,1,5.28.15,10.35,10.35,0,0,0,1.06.39,3.46,3.46,0,0,0-1-.56,7.54,7.54,0,0,0-2.69-.57,7.4,7.4,0,0,0-2.72.42A3.51,3.51,0,0,0,69.68,162.59Z"/><path class="cls-6" d="M67.14,158c0,.07,2.83.12,6.32.12s6.32,0,6.32-.12-2.83-.13-6.32-.13S67.14,157.87,67.14,158Z"/><path class="cls-6" d="M68.12,159.8a8.08,8.08,0,0,0,1.54.16c1,.06,2.28.11,3.73.13s2.79,0,3.74,0a8.15,8.15,0,0,0,1.55-.11,11.84,11.84,0,0,0-1.55-.07l-3.73,0-3.73-.06A12,12,0,0,0,68.12,159.8Z"/><rect class="cls-3" x="293.08" y="50.05" width="190.33" height="111.21" transform="translate(-6.89 29.74) rotate(-4.35)"/><path class="cls-5" d="M487.35,153.88s-.07-.69-.18-2l-.48-5.81c-.4-5.11-1-12.59-1.76-22.2-1.5-19.21-3.65-46.89-6.3-80.86l.31.27L289.18,57.79h0l.35-.4c3,39.26,5.81,76.76,8.4,110.89l-.38-.32,136.53-10.21,39.2-2.88,10.45-.76,2.7-.18.93-.05s-.29,0-.88.09l-2.66.22-10.38.83-39.1,3.07L297.6,168.66l-.35,0,0-.34c-2.6-34.14-5.46-71.63-8.46-110.89l0-.38.38,0h0L478.9,42.7l.29,0,0,.29c2.53,34.05,4.58,61.8,6,81.06.7,9.58,1.24,17.05,1.61,22.14.18,2.52.31,4.45.4,5.76S487.35,153.88,487.35,153.88Z"/><path class="cls-5" d="M330.29,106.36l-18.54,1.41-1.4-18.44,18.54-1.41Zm-17.2-.14L328.74,105l-1.19-15.57L311.9,90.65Z"/><path class="cls-5" d="M346.31,64.82c0,.21-10.12,1.15-22.63,2.1S301,68.47,301,68.27s10.12-1.15,22.64-2.1S346.3,64.61,346.31,64.82Z"/><rect class="cls-9" x="303.41" y="82.19" width="17.15" height="17.06" transform="translate(-5.98 23.91) rotate(-4.35)"/><rect class="cls-9" x="348.63" y="94.47" width="78.04" height="6.58" transform="translate(-6.3 29.67) rotate(-4.35)"/><path class="cls-3" d="M350.52,104.74l-2.23,3.88a.7.7,0,0,0,.66,1l5-.38a.7.7,0,0,0,.5-1.12l-2.73-3.5A.7.7,0,0,0,350.52,104.74Z"/><rect class="cls-9" x="350.11" y="114.03" width="78.04" height="6.58" transform="matrix(1, -0.08, 0.08, 1, -7.77, 29.84)"/><g class="cls-10"><rect x="350.11" y="114.03" width="78.04" height="6.58" transform="matrix(1, -0.08, 0.08, 1, -7.77, 29.84)"/></g><path class="cls-3" d="M422.75,118.93l-2.23,3.87a.7.7,0,0,0,.66,1l5-.38a.7.7,0,0,0,.5-1.12l-2.73-3.5A.7.7,0,0,0,422.75,118.93Z"/><rect class="cls-5" x="351.72" y="135.16" width="78.04" height="6.58" transform="matrix(1, -0.08, 0.08, 1, -9.37, 30.02)"/><path class="cls-3" d="M372.15,144l-2.23,3.87a.7.7,0,0,0,.66,1l4.95-.38a.69.69,0,0,0,.5-1.11l-2.72-3.5A.7.7,0,0,0,372.15,144Z"/><rect class="cls-5" x="436.47" y="88.46" width="30.31" height="8.86" transform="translate(-5.74 34.51) rotate(-4.35)"/><rect class="cls-5" x="437.96" y="108.02" width="30.31" height="8.86" transform="translate(-7.22 34.68) rotate(-4.35)"/><rect class="cls-5" x="439.56" y="129.16" width="30.31" height="8.86" transform="translate(-8.82 34.86) rotate(-4.35)"/><rect class="cls-3" x="605.14" y="614.76" width="199.28" height="53.79"/><circle class="cls-9" cx="779.75" cy="641.42" r="11.29"/><rect class="cls-6" x="693.81" y="627.31" width="27.61" height="27.61"/><polygon class="cls-16" points="721.42 640.06 704.41 654.92 721.42 654.92 721.42 640.06"/><path class="cls-5" d="M721.42,654.92a4,4,0,0,1,0-.53c0-.39,0-.89,0-1.51,0-1.36-.05-3.25-.08-5.64,0-4.87-.08-11.72-.14-19.93l.28.28-27.61,0c-.07.07.6-.6.32-.31h0v3.75c0,1.24,0,2.47,0,3.69v7.14c0,4.63,0,9,0,13l-.27-.27,19.93.14,5.64.07,1.5,0,.54,0a2.62,2.62,0,0,1-.48,0l-1.45,0-5.58.07-20.1.14h-.28v-.28c0-4,0-8.39,0-13q0-3.48,0-7.14v-7.44h0l.32-.33,27.61,0h.28v.27c-.05,8.28-.1,15.2-.14,20.11,0,2.36,0,4.23-.07,5.58,0,.59,0,1.07,0,1.45A2.56,2.56,0,0,1,721.42,654.92Z"/><rect x="728.14" y="627.31" width="27.61" height="27.61"/><polygon class="cls-16" points="755.75 640.06 738.74 654.92 755.75 654.92 755.75 640.06"/><path class="cls-5" d="M755.75,654.92a4,4,0,0,1,0-.53c0-.39,0-.89,0-1.51,0-1.36,0-3.25-.07-5.64,0-4.87-.08-11.72-.14-19.93l.27.28-27.6,0,.31-.31h0v7.44c0,2.44,0,4.82,0,7.14,0,4.63,0,9,0,13l-.28-.27,19.93.14,5.64.07,1.51,0,.53,0a2.42,2.42,0,0,1-.47,0l-1.45,0-5.58.07-20.11.14h-.27v-.28c0-4,0-8.39,0-13q0-3.48,0-7.14v-7.44h0c-.29.28.38-.4.32-.33l27.6,0H756v.27c-.06,8.28-.11,15.2-.14,20.11,0,2.36,0,4.23-.07,5.58,0,.59,0,1.07,0,1.45S755.77,654.93,755.75,654.92Z"/><rect class="cls-17" x="657.1" y="627.31" width="27.61" height="27.61"/><polygon class="cls-16" points="684.71 640.06 667.7 654.92 684.71 654.92 684.71 640.06"/><path class="cls-5" d="M684.71,654.92a4,4,0,0,1,0-.53c0-.39,0-.89,0-1.51,0-1.36,0-3.25-.07-5.64,0-4.87-.08-11.72-.14-19.93l.27.28-27.61,0,.32-.31h0v7.44q0,3.66,0,7.14c0,4.63,0,9,0,13l-.28-.27,19.93.14,5.64.07,1.51,0,.53,0a2.56,2.56,0,0,1-.47,0l-1.46,0-5.57.07-20.11.14h-.27v-.28c0-4,0-8.39,0-13q0-3.48,0-7.14c0-1.22,0-2.45,0-3.69v-3.75h0l.32-.33,27.61,0H685v.27c-.06,8.28-.11,15.2-.14,20.11,0,2.36-.06,4.23-.07,5.58,0,.59,0,1.07,0,1.45A2.56,2.56,0,0,1,684.71,654.92Z"/><rect class="cls-5" x="619.09" y="627.31" width="27.61" height="27.61"/><polygon class="cls-16" points="646.7 640.06 629.69 654.92 646.7 654.92 646.7 640.06"/><path class="cls-5" d="M646.7,654.92a4,4,0,0,1,0-.53c0-.39,0-.89,0-1.51,0-1.36,0-3.25-.07-5.64,0-4.87-.08-11.72-.14-19.93l.28.28-27.61,0c-.07.07.6-.6.32-.31h0v1.88c0,.63,0,1.25,0,1.87v3.69q0,3.66,0,7.14c0,4.63,0,9,0,13l-.27-.27,19.93.14,5.64.07,1.5,0,.54,0a2.62,2.62,0,0,1-.48,0l-1.45,0-5.58.07-20.1.14h-.28v-.28c0-4,0-8.39,0-13,0-2.32,0-4.7,0-7.14v-7.44h0c-.29.28.39-.4.32-.33l27.61,0H647v.27c-.05,8.28-.1,15.2-.14,20.11,0,2.36-.05,4.23-.07,5.58,0,.59,0,1.07,0,1.45A2.56,2.56,0,0,1,646.7,654.92Z"/><polygon class="cls-18" points="533.18 489.1 571.61 446.4 601.88 444.02 606.48 476.77 582 487.71 555.27 515.88 539.03 519.58 533.18 489.1"/><rect class="cls-3" x="621.67" y="200.76" width="298.32" height="414.43" transform="translate(281.66 1130.01) rotate(-83.77)"/><rect class="cls-17" x="578.09" y="259.57" width="414.43" height="22.05" transform="translate(33.98 -83.57) rotate(6.23)"/><path class="cls-5" d="M593.85,250.1a2.71,2.71,0,1,1-2.38-3.14A2.79,2.79,0,0,1,593.85,250.1Z"/><path class="cls-5" d="M603.85,251.19a2.71,2.71,0,1,1-2.37-3.14A2.79,2.79,0,0,1,603.85,251.19Z"/><path class="cls-5" d="M613.86,252.28a2.71,2.71,0,1,1-2.38-3.14A2.8,2.8,0,0,1,613.86,252.28Z"/><path class="cls-5" d="M753.17,302.06c0,.16-9-.7-20.13-1.91S713,297.83,713,297.67s9,.7,20.12,1.92S753.18,301.9,753.17,302.06Z"/><path class="cls-5" d="M806.63,307.89c0,.16-9-.7-20.13-1.91s-20.08-2.32-20.06-2.47,9,.7,20.12,1.91S806.64,307.74,806.63,307.89Z"/><path class="cls-5" d="M860.09,313.72c0,.16-9-.7-20.13-1.91s-20.08-2.31-20.07-2.47,9,.7,20.13,1.91S860.1,313.57,860.09,313.72Z"/><path class="cls-5" d="M914,319.61c0,.15-9-.7-20.13-1.91s-20.08-2.32-20.06-2.48,9,.7,20.12,1.91S914,319.45,914,319.61Z"/><path class="cls-5" d="M960.13,331.49s.34,0,1-.07a4.38,4.38,0,0,0,2.47-1.25,4.63,4.63,0,0,0,1.12-1.73,9.5,9.5,0,0,0,.42-2.49c.08-1.79.84-4.06-.5-5.92a4.21,4.21,0,0,0-2.69-1.8c-1.16-.16-2.42-.27-3.69-.41l-8.19-.87-18.75-2a4.25,4.25,0,0,0-4,2,5,5,0,0,0-.72,2.29l-.27,2.51a9.43,9.43,0,0,0-.12,2.4,4.61,4.61,0,0,0,.84,2.08,4.41,4.41,0,0,0,1.66,1.35,6.42,6.42,0,0,0,2.07.43l15.31,1.73L956.36,331l2.8.36.72.11a.83.83,0,0,1,.25.06h-.25l-.74-.05-2.81-.26-10.33-1-15.32-1.61a7.1,7.1,0,0,1-2.21-.46,4.75,4.75,0,0,1-1.86-1.51,5,5,0,0,1-1-2.32,5.66,5.66,0,0,1,0-1.3c0-.41.09-.83.13-1.24.09-.84.18-1.67.28-2.52a5.45,5.45,0,0,1,.8-2.54,4.76,4.76,0,0,1,4.52-2.28l18.75,2.06,8.18.92c1.28.16,2.5.27,3.72.45a4.56,4.56,0,0,1,2.92,2,5,5,0,0,1,.82,3.24c-.12,1-.23,2-.34,2.95a9.7,9.7,0,0,1-.47,2.55,4.8,4.8,0,0,1-1.22,1.79,4.44,4.44,0,0,1-2.6,1.21A3,3,0,0,1,960.13,331.49Z"/><path class="cls-5" d="M580.51,237.16l412,44.74.21,0,0,.21C983,371.62,972,472.41,960.37,578.66v0l0,.23-.23,0-412-45-.18,0,0-.19,32.54-296.54c-.17,1.55-12.65,116.58-32.17,296.58l-.17-.2,412,44.9-.25.21v0c11.6-106.25,22.61-207,32.37-296.52l.19.23Z"/><path class="cls-9" d="M938.13,454.5s0-.52.15-1.51.26-2.47.46-4.4c.41-3.85,1-9.51,1.79-16.79,1.57-14.54,3.82-35.51,6.6-61.28l.14.18L799.61,354.64h0l.24-.19c-3.25,29.7-6.35,58.09-9.18,84l-.17-.22,106.2,11.68,30.5,3.38,8.13.91,2.09.25c.48,0,.72.09.72.09l-.69-.07-2.08-.21-8.09-.86-30.47-3.27L790.44,438.58l-.2,0,0-.2c2.81-25.86,5.91-54.25,9.14-84l0-.21.22,0h0l147.65,16.16.16,0,0,.16c-2.85,25.81-5.17,46.81-6.78,61.37l-1.87,16.75c-.21,1.9-.38,3.36-.49,4.35S938.13,454.5,938.13,454.5Z"/><path class="cls-9" d="M944.11,370.08l-.38.2-1.14.56L938.22,373c-3.8,1.82-9.32,4.43-16.16,7.61-13.66,6.38-32.63,15-53.72,24.2S828,422,814,427.66c-7,2.84-12.65,5.12-16.57,6.67L793,436.1c-.5.2-.89.35-1.18.45l-.4.14.39-.18,1.16-.49,4.49-1.85,16.52-6.79c13.93-5.76,33.14-13.81,54.24-23s40.07-17.78,53.77-24.08l16.21-7.49,4.41-2,1.15-.52Z"/><path class="cls-9" d="M936.43,454.31c-.07.1-30.45-22-67.84-49.33S800.94,355.4,801,355.31s30.43,22,67.84,49.33S936.5,454.21,936.43,454.31Z"/><path class="cls-5" d="M930.57,495.92c0,.16-32.3-3.23-72.1-7.57s-72.06-8-72-8.16,32.29,3.22,72.1,7.57S930.59,495.75,930.57,495.92Z"/><path class="cls-5" d="M929.62,504.65c0,.17-32.31-3.22-72.1-7.56s-72.06-8-72-8.16,32.29,3.22,72.1,7.57S929.63,504.49,929.62,504.65Z"/><path class="cls-5" d="M847.39,517.7c0,.15-14.17-1.28-31.62-3.18s-31.58-3.57-31.56-3.72,14.17,1.27,31.62,3.18S847.41,517.54,847.39,517.7Z"/><path class="cls-5" d="M910.12,513.88c0,.15-28-2.78-62.41-6.53s-62.37-6.93-62.35-7.08,27.95,2.77,62.41,6.53S910.14,513.73,910.12,513.88Z"/><path class="cls-5" d="M944.46,544.64s0-.41.12-1.18.2-1.93.36-3.44l1.4-13.23c1.24-11.49,3-28.17,5.27-49l.12.16-179.4-19.51h0l.23-.19c-2.54,23.32-5,45.87-7.29,66.79l-.18-.22L893.61,539,931,543.11l10,1.12,2.59.3c.58.06.88.11.88.11l-.86-.09-2.57-.26-10-1.06-37.34-4L765,525.27l-.2,0,0-.2,7.28-66.79,0-.22.21,0h0L951.77,477.7h.14l0,.15c-2.3,20.82-4.15,37.53-5.42,49-.65,5.73-1.14,10.17-1.48,13.18-.17,1.5-.3,2.64-.39,3.41S944.46,544.64,944.46,544.64Z"/><ellipse class="cls-17" cx="613.76" cy="287.58" rx="8.77" ry="9.18" transform="translate(261.32 866.54) rotate(-83.78)"/><path class="cls-5" d="M852.13,407.34s0-.49.14-1.42.24-2.31.42-4.1c.38-3.58.94-8.83,1.65-15.52,1.43-13.36,3.48-32.45,5.95-55.44l.16.2-85.6-9.3h0l.24-.19c-3.05,27.81-5.91,54-8.37,76.45l-.17-.2,61.91,6.85,17.46,1.95,4.62.53,1.19.14.41,0-.39,0-1.17-.12-4.59-.48-17.43-1.85-62-6.67-.19,0,0-.19c2.45-22.47,5.3-48.64,8.32-76.46l0-.21.22,0h0l85.6,9.37.18,0,0,.18c-2.55,23-4.67,42.15-6.15,55.53-.75,6.67-1.33,11.9-1.73,15.48-.21,1.77-.36,3.13-.47,4.06S852.13,407.34,852.13,407.34Z"/><rect class="cls-17" x="776.06" y="330.28" width="73.48" height="68.17" transform="translate(44.31 -86) rotate(6.23)"/><g class="cls-10"><path d="M822.49,346.59a5.07,5.07,0,1,0,4.71,5.62A5.19,5.19,0,0,0,822.49,346.59Z"/><path d="M846.78,339.18l-61.71-6.78c.07-.07-.74.56-.39.3v.23l0,.24,0,.48-.1,1-.21,1.92-.42,3.83q-.42,3.81-.82,7.54c-.54,5-1.07,9.86-1.58,14.61-1,9.49-2,18.46-2.89,26.72l0,.29.3,0,44.84,4.74,12.53,1.29,3.28.33.83.07.28,0a1.29,1.29,0,0,0-.31-.05l-.86-.12-3.34-.39L823.5,394l-13.79-1.55,30.87,3.37a1,1,0,0,0,0,.19,2.24,2.24,0,0,0,0-.25c0-.19.06-.44.1-.76.08-.7.2-1.7.36-3l1.33-11.43c1.12-9.94,2.71-24.09,4.63-41.08l0-.29Zm-18.46,30.59L817,380.51l-14.09-24.09-23.65,32.17c.89-8.06,1.85-16.78,2.87-26q.78-7.12,1.6-14.6c.27-2.49.55-5,.82-7.55l.42-3.82.21-1.93.11-1,.05-.48,0-.15,61.08,6.62c-1.77,16.8-3.25,30.8-4.29,40.64-.5,4.94-.9,8.83-1.17,11.52-.13,1.31-.23,2.33-.3,3.05,0,.33,0,.59-.07.8v.06Z"/></g><rect class="cls-5" x="772.67" y="318.71" width="4.51" height="4.51" transform="translate(39.38 -82.15) rotate(6.23)"/><rect class="cls-5" x="857.56" y="327.97" width="4.51" height="4.51" transform="translate(40.89 -91.3) rotate(6.23)"/><rect class="cls-5" x="849.23" y="404.27" width="4.51" height="4.51" transform="translate(49.11 -89.95) rotate(6.23)"/><rect class="cls-5" x="764.98" y="395.08" width="4.51" height="4.51" transform="translate(47.62 -80.87) rotate(6.23)"/><rect class="cls-5" x="769.09" y="357.38" width="4.51" height="4.51" transform="translate(43.55 -81.53) rotate(6.23)"/><rect class="cls-5" x="806.52" y="400.36" width="4.51" height="4.51" transform="translate(48.44 -85.34) rotate(6.23)"/><rect class="cls-5" x="854.31" y="364.4" width="4.51" height="4.51" transform="translate(44.82 -90.74) rotate(6.23)"/><rect class="cls-5" x="814.89" y="323.73" width="4.51" height="4.51" transform="matrix(0.99, 0.11, -0.11, 0.99, 40.17, -86.7)"/><path class="cls-5" d="M723,486.51c0,.12-24.16-2.42-53.92-5.67s-53.89-6-53.88-6.09,24.15,2.42,53.92,5.67S723,486.39,723,486.51Z"/><path class="cls-5" d="M743.8,496c0,.11-32.94-3.38-73.55-7.81s-73.53-8.12-73.52-8.24,32.94,3.38,73.57,7.81S743.82,495.83,743.8,496Z"/><path class="cls-5" d="M743.06,502.8c0,.12-32.95-3.38-73.56-7.81S596,486.88,596,486.76s32.95,3.38,73.57,7.81S743.07,502.69,743.06,502.8Z"/><path class="cls-5" d="M742.31,509.66c0,.12-32.95-3.38-73.56-7.81s-73.53-8.12-73.51-8.24,32.94,3.38,73.56,7.81S742.32,509.54,742.31,509.66Z"/><path class="cls-5" d="M655.18,507.09c0,.12-13.61-1.27-30.37-3.1s-30.33-3.4-30.32-3.52,13.61,1.27,30.37,3.1S655.2,507,655.18,507.09Z"/><path class="cls-5" d="M733.85,360.15c0,.16-26.2-2.56-58.48-6.08s-58.44-6.52-58.42-6.68,26.2,2.56,58.48,6.08S733.87,360,733.85,360.15Z"/><path class="cls-5" d="M732.9,368.88c0,.17-26.2-2.55-58.48-6.08S616,356.29,616,356.13s26.2,2.56,58.49,6.08S732.92,368.72,732.9,368.88Z"/><path class="cls-5" d="M665.76,383.57c0,.15-11.5-1-25.65-2.52s-25.61-2.92-25.6-3.07,11.51,1,25.66,2.52S665.78,383.42,665.76,383.57Z"/><path class="cls-5" d="M716.86,378.49c0,.15-22.68-2.2-50.63-5.25s-50.58-5.64-50.57-5.8,22.68,2.2,50.63,5.25S716.88,378.34,716.86,378.49Z"/><path class="cls-5" d="M744.16,408.47l.12-1.18c.08-.77.2-1.92.36-3.43.32-3,.8-7.47,1.41-13.23,1.24-11.49,3-28.17,5.28-49l.1.15L605.92,326h0l.2-.2c-2.55,23.32-5,45.87-7.3,66.8l-.14-.23,104.25,11.47,30.31,3.37,8.11.91,2.1.24.72.09-.7-.06-2.08-.21-8.09-.86L703,404.09,598.63,392.8l-.17,0,0-.2,7.28-66.79,0-.22.17,0h0l145.49,16h.12v.14c-2.3,20.82-4.15,37.53-5.42,49-.64,5.74-1.13,10.18-1.47,13.19-.17,1.49-.29,2.63-.38,3.41S744.16,408.47,744.16,408.47Z"/><path class="cls-18" d="M422.43,487.88l21.8,69.81,72.55-64.26,27.37,23.33s-61.57,97.88-91.44,116.31c-33.14,20.45-72.56-6.42-77.56-26.17s-31.27-108.22-31.27-108.22Z"/><path class="cls-19" d="M445.94,556.47c.08.14-1.92,1.25-4.72,3.58a41.46,41.46,0,0,0-4.56,4.45,40.9,40.9,0,0,0-7.81,13.42,42.18,42.18,0,0,0-1.62,6.17c-.63,3.59-.62,5.87-.78,5.86a6.38,6.38,0,0,1-.11-1.59,14.08,14.08,0,0,1,.06-1.88,22.6,22.6,0,0,1,.25-2.48,36.58,36.58,0,0,1,1.47-6.33,38.43,38.43,0,0,1,8-13.68,35.84,35.84,0,0,1,4.76-4.41,24.76,24.76,0,0,1,2-1.44,14.54,14.54,0,0,1,1.61-1A6.08,6.08,0,0,1,445.94,556.47Z"/><path class="cls-9" d="M367.9,557.16l76.33-20.59s-16.37-48.42-29.11-83.41c-11.22-30.84-30.11-43.69-39.91-50.67a29.78,29.78,0,0,0-13.4-5.31c-18.05-2.41-67.44-8.9-91.94-10.94-30.32-2.53-93.61,14.15-93.61,14.15S120.74,431.18,102,443.61a26.09,26.09,0,0,0-10,12.61c-3.46,9.31-7.86,25.31-13.14,46-3.35,13.16-14.45,56.69-14.45,56.69l65.1-2c13.11,39.83,25.27,75.61,25.27,75.61L149.51,728l241.43,0s-22.25-147.6-22.25-151C368.69,575.68,368.34,567.23,367.9,557.16Z"/><g class="cls-10"><path d="M292.81,479.67c-4.78-6.08-13.12-8.58-20.81-7.81s-14.83,4.41-21.22,8.75C231,494,217,514.19,204.64,534.57a650.13,650.13,0,0,0-54.23,112l.51,10c16.19-2,26.75-15.69,33.77-30.41s10.05-31,16.24-46.12A118.92,118.92,0,0,1,265,515.93c9.64,1,20-2.1,26.31-9.46S298.8,487.29,292.81,479.67Z"/></g><path class="cls-5" d="M368.62,569.8c-.35,0-2.52-21.11-4.82-47.21s-3.89-47.3-3.53-47.34,2.52,21.11,4.83,47.22S369,569.77,368.62,569.8Z"/><path class="cls-5" d="M112.18,475.25a19.19,19.19,0,0,1,1,3.29c.56,2.38,1.28,5.42,2.14,9,1.75,7.65,4.08,18.24,6.58,29.95s4.69,22.34,6.21,30c.69,3.66,1.28,6.73,1.73,9.13a18.77,18.77,0,0,1,.47,3.39,16.55,16.55,0,0,1-1-3.28c-.57-2.38-1.28-5.41-2.14-9-1.76-7.66-4.09-18.25-6.59-30s-4.68-22.33-6.21-30c-.69-3.67-1.27-6.73-1.73-9.14A17,17,0,0,1,112.18,475.25Z"/><path class="cls-5" d="M357,398.1c.38.1-1.82,8.57-3.33,19.22s-1.83,19.39-2.22,19.39c-.17,0-.32-2.2-.25-5.75a117.07,117.07,0,0,1,1.18-13.82,114.24,114.24,0,0,1,2.77-13.59C356.07,400.12,356.83,398.05,357,398.1Z"/><path class="cls-18" d="M252.85,442.4l22-44.31L268,378.72s32.95-17.1,21.69-52c-5.44-16.86-19.46-50.65-32.5-81.09-14-32.74-49.48-45.13-83.24-33.78L170.6,213c-35.46,14.27-35.39,49.43-34,64.41l49.35,149.16Z"/><path class="cls-19" d="M268,378.69s-21.36,9.17-49.65,2.36c0,0,19.13,21.41,52.76,6.62Z"/><path class="cls-5" d="M259.07,280.06a5.23,5.23,0,0,1-3.1,6.62,5,5,0,0,1-6.62-2.76,5.23,5.23,0,0,1,3.09-6.62A5,5,0,0,1,259.07,280.06Z"/><path class="cls-5" d="M255.33,263.13c-.39.86-5.09-.66-10.43,1.15s-8.35,5.8-9.15,5.34c-.38-.19-.15-1.57,1.14-3.39a14.47,14.47,0,0,1,7.06-5.08,13.81,13.81,0,0,1,8.57-.1C254.59,261.76,255.54,262.74,255.33,263.13Z"/><path class="cls-5" d="M212.66,294a5.25,5.25,0,0,1-3.1,6.62,5,5,0,0,1-6.62-2.76A5.23,5.23,0,0,1,206,291.2,5,5,0,0,1,212.66,294Z"/><path class="cls-5" d="M203.44,279c-.3.89-5.14-.1-10.24,2.27s-7.68,6.67-8.52,6.3c-.4-.15-.33-1.54.76-3.49a14.44,14.44,0,0,1,6.47-5.81,13.83,13.83,0,0,1,8.51-1C202.55,277.68,203.6,278.55,203.44,279Z"/><path class="cls-5" d="M236,316.88c-.12-.29,3-2,8.15-4.48,1.32-.6,2.52-1.3,2.44-2.31s-1.08-2.37-2.27-3.74l-7.53-9c-10.58-12.9-18.72-23.7-18.2-24.12s9.52,9.69,20.1,22.6L246,305c1,1.38,2.51,2.84,2.5,5.12a3.57,3.57,0,0,1-1.57,2.74,9.43,9.43,0,0,1-2.21,1.1C239.44,316,236.09,317.18,236,316.88Z"/><path class="cls-5" d="M196.19,260.34c0,1.63-5.61,2.73-11.62,5.6s-10.51,6.27-11.78,5.25c-.58-.5-.15-2.16,1.42-4.26A22.35,22.35,0,0,1,192,258.67C194.64,258.82,196.18,259.57,196.19,260.34Z"/><path class="cls-5" d="M249,248.77c-.53,1.53-4.63,1.5-9.08,2.93s-7.9,3.57-9.19,2.59c-.58-.49-.4-1.9.85-3.6a13.82,13.82,0,0,1,14.72-4.45C248.25,247,249.19,248,249,248.77Z"/><path class="cls-18" d="M514.24,495.69s27.19-35.44,30.17-36.93,40.86-7.07,40.86-7.07-1.6,12-12.56,15.48c-7.76,2.5-16.84,4.44-16.84,4.44s3,23.19-2.55,32.47-15.6,20-15.6,20Z"/><path class="cls-19" d="M548.2,509.42c-.2-.12,3.28-3.09,5.68-9.7a43.43,43.43,0,0,0,2.23-12,70.1,70.1,0,0,0,0-7.25,26.19,26.19,0,0,0-.55-3.77,10.38,10.38,0,0,1-.12-4.14,3,3,0,0,1,1.62-1.58,10.35,10.35,0,0,1,1.91-.72,37,37,0,0,1,3.81-.86,51.61,51.61,0,0,0,7.05-1.67,23,23,0,0,0,10.38-6.08,19.66,19.66,0,0,0,4.12-7.05c.64-1.84.86-2.92.94-2.9a2.9,2.9,0,0,1-.1.79,16.19,16.19,0,0,1-.53,2.21,19.14,19.14,0,0,1-4,7.35,23.29,23.29,0,0,1-10.59,6.42,51.62,51.62,0,0,1-7.13,1.74,37.6,37.6,0,0,0-3.72.84,10.45,10.45,0,0,0-1.77.68,2.17,2.17,0,0,0-1.2,1.09,9.92,9.92,0,0,0,.14,3.74,26.14,26.14,0,0,1,.55,3.87,68.53,68.53,0,0,1,0,7.33,42.16,42.16,0,0,1-2.45,12.17,27.18,27.18,0,0,1-4.11,7.28,14.34,14.34,0,0,1-1.53,1.69C548.42,509.26,548.22,509.44,548.2,509.42Z"/><path class="cls-18" d="M152.84,321.08c-.68-.05-26.26,1-17.51,24.48s30.55,9.87,30.34,9.18S152.84,321.08,152.84,321.08Z"/><path class="cls-19" d="M155.17,348.51c-.13,0-.3.44-.88,1a4.37,4.37,0,0,1-3,1.21c-2.83,0-6.39-3.15-8.08-7.35a14.52,14.52,0,0,1-1-6.29c.07-2,.74-3.6,1.91-4.29a2.23,2.23,0,0,1,2.83.22c.56.54.59,1.07.73,1.06s.35-.58-.2-1.48a2.8,2.8,0,0,0-1.47-1.13,3.29,3.29,0,0,0-2.49.25c-1.76.8-2.77,3.07-2.92,5.23a14.84,14.84,0,0,0,1,7.08c1.91,4.69,6,8.22,9.75,7.93a4.68,4.68,0,0,0,3.52-2C155.34,349.09,155.27,348.52,155.17,348.51Z"/><path class="cls-12" d="M174.07,715.52l99.61-.48,33.76-159.89a14.23,14.23,0,0,1,13.93-11.34H529.55a14.22,14.22,0,0,1,13.9,17.25l-34.3,157.26a11.48,11.48,0,0,1-11.21,9H159.61C159.61,719.27,166,715.52,174.07,715.52Z"/><path class="cls-5" d="M280.23,727.36c.23,0,9.62-41,21-91.68s20.39-91.82,20.16-91.87-9.61,41-21,91.69S280,727.31,280.23,727.36Z"/><path class="cls-3" d="M403.31,633.24c-4.94,6.64-4.16,15.57,1.73,20s14.67,2.54,19.6-4.1,4.16-15.58-1.73-20S408.24,626.59,403.31,633.24Z"/><path class="cls-14" d="M162.59,320.76Z"/><path class="cls-14" d="M162.53,320.64l-.12-.24Z"/><path class="cls-14" d="M162.87,322l-.55-1.09Z"/><path class="cls-14" d="M162.87,322Z"/><path class="cls-14" d="M195.7,206c-12.24,1.54-23.94,4.17-36.29,12.44-9.36,6.33-14.76,14.33-20,22.08-15.17,24.63,10.72,75,10.72,75s-.87-18.17,5.65-30.21c6.38-11.67-1-20.27,7.08-31.43,9.53-12.94,21.63-17.75,40.33-18.56,10.56-20.12,38.11-14.06,43.63-6.94C230.65,202.46,208.65,204.56,195.7,206Z"/><path class="cls-14" d="M162.47,320.52Z"/><path class="cls-14" d="M144.81,232c-.92-4.57-5.53-7-11.51-6.44s-11.07,5.2-13,10.57.39,10.72,4.15,14.31c2.77,2.57,8.89,2.35,10.07-.75"/><path class="cls-20" d="M144.81,232a7.4,7.4,0,0,0-1.64-3.27,8.29,8.29,0,0,0-3-2.1,14,14,0,0,0-7.2-.84A15.75,15.75,0,0,0,121.53,234a12.32,12.32,0,0,0-1.67,7,13.78,13.78,0,0,0,2.54,6.75,17,17,0,0,0,2.39,2.75,6.84,6.84,0,0,0,3.27,1.45,8.71,8.71,0,0,0,3.63-.09,4,4,0,0,0,2.83-2.15,4.07,4.07,0,0,1-2.78,2.3,8.4,8.4,0,0,1-3.73.23,7.49,7.49,0,0,1-3.47-1.44,16.53,16.53,0,0,1-2.49-2.8,14.2,14.2,0,0,1-2.66-7,12.6,12.6,0,0,1,1.71-7.25,17.69,17.69,0,0,1,4.94-5.6,14.58,14.58,0,0,1,14.26-1.76,8.42,8.42,0,0,1,3,2.25A7.41,7.41,0,0,1,144.81,232Z"/><path class="cls-20" d="M120.56,242.94a.89.89,0,0,0,.3.61,5.19,5.19,0,0,0,1.64,1.3,13.59,13.59,0,0,0,7.11.71,14.18,14.18,0,0,0,6.54-3.4,9.81,9.81,0,0,0,1.48-1.65,4,4,0,0,0,.35-.63c-.06-.12-.88.89-2.15,2a11.58,11.58,0,0,1-2.72,1.81,21.56,21.56,0,0,1-3.74,1.41,13.6,13.6,0,0,1-7-.47A4.38,4.38,0,0,1,120.56,242.94Z"/><path class="cls-20" d="M120.61,236.09a2.25,2.25,0,0,0,.43.54,10,10,0,0,0,1.64,1.31,12.35,12.35,0,0,0,6.67,2.14,14.86,14.86,0,0,0,7.11-1.26,10.75,10.75,0,0,0,1.92-1.11,5.42,5.42,0,0,1,.6-.45c-.06-.12-1,.65-2.7,1.19A15.61,15.61,0,0,1,123,237.5,7.36,7.36,0,0,1,120.61,236.09Z"/><path class="cls-9" d="M134.4,252.89a13.58,13.58,0,0,0,.7-3.23,31.84,31.84,0,0,1,3.05-7.44,80.83,80.83,0,0,1,4.46-6.92,13.72,13.72,0,0,0,2.24-2.78A21.9,21.9,0,0,0,142.3,235a28.24,28.24,0,0,0-4.65,6.87,30.34,30.34,0,0,0-2.8,7.61A12.81,12.81,0,0,0,134.4,252.89Z"/><path class="cls-20" d="M200.73,225a49.41,49.41,0,0,0-6.26-2.65c-2.18-.73-4.35-1.47-6.41-2a51.66,51.66,0,0,0-13.55-1.75,40.75,40.75,0,0,0-13.76,2.45,31,31,0,0,0-6.34,3.15,29.86,29.86,0,0,0-5.6,4.3,32.91,32.91,0,0,1,11.75-7.82,37.62,37.62,0,0,1,14-2.7,55.27,55.27,0,0,1,26.2,7Z"/><path class="cls-20" d="M179.44,225.92a33.55,33.55,0,0,0-5.58.05,33.48,33.48,0,0,0-5.53.47,42.23,42.23,0,0,0-10.85,2.67,39.16,39.16,0,0,0-5.08,2.38,34.8,34.8,0,0,0-4.51,3.16,26.18,26.18,0,0,0-6.48,8.83,20.38,20.38,0,0,1,2.51-4.89,18.92,18.92,0,0,1,3.65-4.24,32,32,0,0,1,9.74-5.91,41.44,41.44,0,0,1,11-2.43A45.23,45.23,0,0,1,179.44,225.92Z"/><path class="cls-20" d="M203.37,223.72a14.61,14.61,0,0,0-6.85-9.79,22.5,22.5,0,0,0-5.88-2.23c-1.1-.21-2.13-.3-3.23-.52a32.43,32.43,0,0,1-3.29-.33,19.21,19.21,0,0,1,3.31,0,32.23,32.23,0,0,1,3.29.34,23.27,23.27,0,0,1,6.15,2.09,12.28,12.28,0,0,1,4.51,4.43A11.13,11.13,0,0,1,203.37,223.72Z"/><path class="cls-20" d="M197.19,229.83a22.33,22.33,0,0,0-8.13-1.11,15,15,0,0,0-7.86,2.39,16.26,16.26,0,0,0-5.4,6c-1.32,2.32-2,4.93-3,7.55a33.26,33.26,0,0,1-3.7,7.46,22,22,0,0,1-13.57,9.78,38.45,38.45,0,0,1-8.39.69,50.08,50.08,0,0,0,8.4-1,19.36,19.36,0,0,0,7.58-3.62c4.4-3.4,7.17-8.42,9-13.6a45,45,0,0,1,2.93-7.67,15.31,15.31,0,0,1,5.8-6.22,16.26,16.26,0,0,1,8.24-2.29A32.31,32.31,0,0,1,197.19,229.83Z"/><path class="cls-20" d="M155.79,238.3a8.1,8.1,0,0,0-2,1.6,15,15,0,0,0-3.29,5,12.68,12.68,0,0,0-1,5.65c.07,1.47.3,2.27.5,2.33a9.27,9.27,0,0,0,0-2.29,15.91,15.91,0,0,1,1.1-5.4,16.54,16.54,0,0,1,3-4.84C155,239,155.85,238.42,155.79,238.3Z"/><path class="cls-20" d="M209.23,219.29c.19.05.52-1.93.21-4.21a7.32,7.32,0,0,0-1.41-3.84,35.11,35.11,0,0,0,.83,4C209.1,217.38,209,219.23,209.23,219.29Z"/><path class="cls-18" d="M167.2,285.71c2.3-4.33-2.75-10.16-3.72-13.77-15.51,13.17-26.83,5.4-26.83,5.4,5.83,20.31,14.81,46.37,14.81,46.37S160.68,297.75,167.2,285.71Z"/><path class="cls-14" d="M284.28,312.63c2.59-1.09,4,.44,5,3.52,1,2.92.74,6.21,1.51,9.37,1.58,6.48,7,10.83,10.57,16.37A31.38,31.38,0,0,1,305.68,366c-1.7,7.26-7.56,13.88-14.52,12.52a13.17,13.17,0,0,0,6.16,6.49c-1.94,2.77-5.82,3.06-9,2s-17.19,7-20.29,7.94c-21.34,5.89-43.34.11-59.14-22.68-5.31-7.76-9-15.15-14.31-22.9s-9.45-16.19-13.63-24.78c-1.24-2.69-2.43-6.23-.54-8.14s5.52.09,7,2.69,2.06,6,3.81,8.36c3.66,5.19,11,4.59,16.09,1.74s9.64-5.68,15.08-7.44c11.83-3.95,20.25-2.85,33.74-4.76,4.69-.68,9.82-4,13.63-6.67s12.13-2.27,14.52,2.28"/><path class="cls-20" d="M282.11,311.32c1.64-.65,3.41.19,4.62,1.19a7.94,7.94,0,0,1,2.86,4.58c.86,3.47.45,7.31,2.06,10.73,1.42,3.31,3.78,6.17,6,8.92a41.91,41.91,0,0,1,6.1,8.88,30.76,30.76,0,0,1,1.92,21.26,20.56,20.56,0,0,1-5.18,9c-2.55,2.26-5.79,3.71-9.2,3l.19-.39a13.38,13.38,0,0,0,6,6.38l.33.07-.24.24a6.26,6.26,0,0,1-3.58,2.39,9.15,9.15,0,0,1-4.26.06,10.2,10.2,0,0,0-2.1-.4,7.94,7.94,0,0,0-2,.42,33.8,33.8,0,0,0-3.85,1.46c-2.59,1.09-5.13,2.34-7.66,3.58l-3.76,1.77a8.07,8.07,0,0,1-1.93.73l-2,.58c-10.83,2.65-22.81,2.42-33.53-2.41S213,379.51,206.54,369c-3.33-5.12-6.32-10.68-9.64-15.8-1.67-2.56-3.47-5.08-5-7.68s-3.09-5.36-4.66-8.12c-1.42-2.8-2.8-5.44-4.23-8.24s-3-5.4-3.58-8.6a5.92,5.92,0,0,1,.07-2.38,4.42,4.42,0,0,1,1.24-2.06c1.22-1,3-.7,4.3.1a8.65,8.65,0,0,1,3.15,3.48c.74,1.48,1.15,2.88,1.74,4.4,1,2.92,2.81,5.44,5.56,6.5a12.43,12.43,0,0,0,8.14.17c2.72-.63,5-2.3,7.48-3.7a74.13,74.13,0,0,1,7.56-3.9A65.36,65.36,0,0,1,235,319c5.62-.62,11.24-.74,16.86-1.36,2.81-.31,5.66-.47,8.25-1.56a35.41,35.41,0,0,0,7.38-4,31.24,31.24,0,0,1,3.62-2.24,9.43,9.43,0,0,1,4.08-1.19,8.38,8.38,0,0,1,4.16.65,7.55,7.55,0,0,1,3.3,2.93,6.13,6.13,0,0,0-3.3-2.93,9.13,9.13,0,0,0-4.16-.65,11.61,11.61,0,0,0-3.94,1.15c-1.17.68-2.3,1.52-3.58,2.4a46.43,46.43,0,0,1-7.38,4c-2.58,1.09-5.44,1.24-8.25,1.56-5.62.62-11.19.89-16.81,1.51a57.62,57.62,0,0,0-16.18,4.21,65.14,65.14,0,0,0-7.43,3.86c-2.49,1.4-4.8,2.92-7.61,3.74a12.42,12.42,0,0,1-8.47-.24,9.2,9.2,0,0,1-3.68-2.65,12.85,12.85,0,0,1-2.25-4.08,45.32,45.32,0,0,0-1.7-4.25,9.45,9.45,0,0,0-2.92-3.2c-1.26-.65-2.71-.91-3.69-.11a4.06,4.06,0,0,0-1,3.85c.58,3,2.24,5.6,3.53,8.44s2.81,5.44,4.23,8.24a88.38,88.38,0,0,0,4.61,8c1.52,2.6,3.47,5.08,5,7.68,3.32,5.12,6.32,10.68,9.64,15.8a75.35,75.35,0,0,0,11.44,14.09,50.42,50.42,0,0,0,14.61,9.79,52,52,0,0,0,33.25,2.49c.7-.21,1.45-.26,2-.42s1.22-.53,1.93-.73l3.76-1.77c2.54-1.25,5.07-2.5,7.66-3.59a36.22,36.22,0,0,1,4-1.5,10,10,0,0,1,2.2-.3c.79.1,1.49.41,2.15.55a8.57,8.57,0,0,0,4.12,0,6.3,6.3,0,0,0,3.34-2.16l.13.47a14.74,14.74,0,0,1-6.35-6.61l-.14-.47.47,0a9.66,9.66,0,0,0,8.92-2.94,18.25,18.25,0,0,0,5.13-8.6,31.65,31.65,0,0,0-1.83-20.95,35.67,35.67,0,0,0-6-8.92c-2.18-2.75-4.54-5.61-6-9.08s-1-7.14-1.92-10.77a7.76,7.76,0,0,0-2.82-4.43C285.47,311.35,283.75,310.67,282.11,311.32Z"/><path class="cls-3" d="M256.89,328.11c.11.12-.36,1.38-1.92,2.71a12.25,12.25,0,0,1-7.7,2.74,13.69,13.69,0,0,1-8.19-2.82c-1.93-1.35-2.65-2.65-2.54-2.75a29.44,29.44,0,0,1,3,1.71,13.83,13.83,0,0,0,7.56,2.08,13.17,13.17,0,0,0,7.13-2C255.78,328.84,256.68,327.86,256.89,328.11Z"/><path class="cls-20" d="M217.37,355.38c.1-.19-3.29-3.44-6.05-8.72s-3.7-10.09-4-10,0,1.17.48,3.24a29.09,29.09,0,0,0,2.7,7.16,30.53,30.53,0,0,0,4.44,6.32A16.66,16.66,0,0,0,217.37,355.38Z"/><path class="cls-20" d="M248.38,384.75c.09-.2-2.84-1.88-6.88-5.27a67.44,67.44,0,0,1-7-6.6,64.39,64.39,0,0,1-7.13-9.26,100.34,100.34,0,0,1-5.66-10.53,81.86,81.86,0,0,1-3.29-9.19c-1.55-5.3-1.94-8.74-2.08-8.7s.09.83.26,2.47c.09.82.36,1.75.54,2.89a29.39,29.39,0,0,0,.9,3.62,60.67,60.67,0,0,0,3.19,9.39,78.43,78.43,0,0,0,5.57,10.73,67,67,0,0,0,7.31,9.37,68.46,68.46,0,0,0,7,6.6c1,.88,2.14,1.57,2.93,2.19a25.89,25.89,0,0,0,2.27,1.53C247.68,384.45,248.38,384.75,248.38,384.75Z"/><path class="cls-20" d="M243.54,376c.1-.2-1.43-2.29-3.42-4.93s-3.42-4.92-3.52-4.72a16.13,16.13,0,0,0,2.91,5.24C241.4,374.43,243.3,376.25,243.54,376Z"/><path class="cls-20" d="M253.49,378.18c.09-.19-3-3.52-6.2-8.17s-5.35-8.93-5.63-8.85a36.23,36.23,0,0,0,5,9.37C249.86,375.18,253.25,378.42,253.49,378.18Z"/><path class="cls-20" d="M267.31,355.38c.09-.2-1.63-1.39-3.39-3.24-1.86-1.66-3.25-3.28-3.39-3.24-.09.19.92,2.1,3,3.87C265.25,354.63,267.21,355.58,267.31,355.38Z"/><path class="cls-20" d="M297.73,360.22c.14,0-.22-1.29-1.38-3.15a21.14,21.14,0,0,0-5.33-5.72,17.88,17.88,0,0,0-6.85-3.08c-1.78-.33-3-.31-3.09-.12a16.36,16.36,0,0,0,3,.82,20.55,20.55,0,0,1,6.57,3.16,23.54,23.54,0,0,1,5.24,5.41C297.13,359.21,297.59,360.26,297.73,360.22Z"/><path class="cls-20" d="M301.16,348.39c.09-.19-1.81-2-4.8-3.34s-5.46-1.45-5.41-1.29,2.24.87,5.17,2C298.87,347.37,301.11,348.75,301.16,348.39Z"/><path class="cls-20" d="M289.69,364.08c.14,0-.45-1.56-1.7-3.73a26.18,26.18,0,0,0-6.58-7.39,24.53,24.53,0,0,0-8.43-4.31c-2.33-.67-3.74-.77-3.83-.57s1.35.45,3.69,1.12a30.1,30.1,0,0,1,8.15,4.39,28.86,28.86,0,0,1,6.63,7C289,362.76,289.69,364.08,289.69,364.08Z"/><path class="cls-20" d="M276.93,330.76c0,.15.89-.09,2.06-.77a8.84,8.84,0,0,0,2.9-4.74,9.16,9.16,0,0,0-.89-5.66,4.72,4.72,0,0,0-1.43-1.78c-.1.19.41.89,1.06,2.06a9.45,9.45,0,0,1,.65,5.39,10,10,0,0,1-2.33,4.57C277.68,330.2,276.88,330.6,276.93,330.76Z"/><path class="cls-20" d="M272.76,330.62c.05.15.66.14,1.88-.38a7.29,7.29,0,0,0,3.21-3.14,7.91,7.91,0,0,0,.28-4.81c-.37-1.25-.74-2-.83-1.79-.14,0,.23.78.4,1.91a7.53,7.53,0,0,1-.55,4.39,6,6,0,0,1-2.65,3C273.42,330.26,272.72,330.46,272.76,330.62Z"/><path class="cls-20" d="M264.64,328.92c0,.16.7.31,1.77.33a5.78,5.78,0,0,0,3.94-1.15,5.31,5.31,0,0,0,2.14-3.66,2.49,2.49,0,0,0-.36-1.76c-.14,0,0,.67-.11,1.72a5.5,5.5,0,0,1-2,3.12,7.13,7.13,0,0,1-3.47,1.18C265.39,328.88,264.78,328.88,264.64,328.92Z"/><path class="cls-18" d="M72.3,558.67s-15.24,55.18-18.61,68.66-3.33,44.77,4.25,54,32.84,15.16,32.84,15.16,49.48-24.16,66.33-53.64S220,533.23,220,533.23l-14.59-40-76.7,73.23.8-9.52Z"/><path class="cls-5" d="M232.5,366.94h0a5.38,5.38,0,0,1,7.26,2.38l44.14,87.91-11.33,5-42.48-88.19A5.39,5.39,0,0,1,232.5,366.94Z"/><path class="cls-18" d="M203,495.72l41.27-42.56h39.55l25.34,33.44s-12,2.24-16.31-4.2l-5.59-8s5.59,12.26,2.58,18.27c0,0-5.93,14-6.88,15.48-1.79,2.82-3.17,4.62-8.33,3.76s-13.16-5.05-12.3-8.06a5,5,0,0,1,3.86-3.44l-12-1.72s-12.13,22-19.44,27.12A56.93,56.93,0,0,1,220,533.23Z"/><path class="cls-19" d="M130.27,565.15c.09.2-3.34,1.79-8.59,4.86a118.18,118.18,0,0,0-35.17,31.37c-3.64,4.86-5.61,8.09-5.8,8A10.08,10.08,0,0,1,81.89,607a70.07,70.07,0,0,1,3.88-6.13,102.91,102.91,0,0,1,35.46-31.63,70.08,70.08,0,0,1,6.53-3.16A10.4,10.4,0,0,1,130.27,565.15Z"/><path class="cls-19" d="M253.31,465.53c0-.18,2.2-.54,5.79-1s8.58-1,14.08-1.45a17.11,17.11,0,0,1,4.17,0,8.8,8.8,0,0,1,3.71,1.49,13,13,0,0,1,4.18,5.05c1.57,3.35,2,5.57,1.86,5.61s-1-2.07-2.67-5.18a13.08,13.08,0,0,0-4-4.49,7.85,7.85,0,0,0-3.22-1.22,17.45,17.45,0,0,0-3.88,0c-5.5.49-10.49.86-14.1,1.07S253.32,465.71,253.31,465.53Z"/><path class="cls-19" d="M284.81,506c-.21,0,.17-3-.09-7.79a50.73,50.73,0,0,0-1.15-8.3c-.67-3-1.63-6.62-4.65-8.37a17.59,17.59,0,0,0-4.86-1.72l-4.87-1.11a61.11,61.11,0,0,0-8.31-1.27c-4.77-.34-7.7.42-7.74.19a5.3,5.3,0,0,1,2-.64,25.52,25.52,0,0,1,5.76-.47,50.49,50.49,0,0,1,8.5,1c1.58.3,3.22.66,4.93,1a18.06,18.06,0,0,1,5.24,1.84,9.16,9.16,0,0,1,3.7,4.31,22.67,22.67,0,0,1,1.46,4.93,45.12,45.12,0,0,1,.89,8.52,39.53,39.53,0,0,1-.35,5.76A5.86,5.86,0,0,1,284.81,506Z"/><path class="cls-19" d="M270.5,491.76c.32,0,.58,3.43.62,7.92v.77l-.79-.14a7,7,0,0,0-1.32-.13,7.88,7.88,0,0,0-5.47,2.42c-1.11,1.16-1.47,2.16-1.67,2.09s-.1-1.19,1-2.69a7.85,7.85,0,0,1,6.16-3.12,7.64,7.64,0,0,1,1.61.17l-.79.63C269.89,495.19,270.17,491.76,270.5,491.76Z"/><path class="cls-19" d="M270.53,493.08c-.08.36-3.63-.16-8-.39s-8-.09-8-.47,3.57-1.08,8.09-.83S270.62,492.74,270.53,493.08Z"/><path class="cls-19" d="M255.15,491c.33,0,.06,3.91-1.79,8.28s-4.39,7.3-4.65,7.08,1.7-3.37,3.45-7.58S254.77,491,255.15,491Z"/></svg>