<svg id="Слой_1" data-name="Слой 1" xmlns="http://www.w3.org/2000/svg" viewBox="0 0 997 727"><defs><style>.cls-1{fill:#375a64;}.cls-2{fill:#212121;}.cls-3{fill:#fff;}.cls-4{fill:#1c1c1b;}.cls-5{fill:#1a2e35;}.cls-6{fill:#8892b0;}.cls-7{fill:#c9ccd6;}.cls-12,.cls-8{fill:#dd4e4e;}.cls-9{opacity:0.3;}.cls-10{fill:#ff735d;}.cls-11{fill:#4b98f2;}.cls-12{stroke:#dd4e4e;stroke-miterlimit:10;stroke-width:0.5px;}.cls-13{opacity:0.1;}.cls-14{fill:#233554;}.cls-15{fill:#fafafa;}.cls-16{opacity:0.5;}.cls-17{fill:#b04c4c;}.cls-18{fill:#ffc19d;}.cls-19{fill:#ff9c6a;}.cls-20{fill:#455a64;}</style></defs><polygon class="cls-1" points="51.78 607.1 49.15 102.81 742.61 102.81 742.61 612.31 51.78 607.1"/><polygon class="cls-2" points="64.94 595.72 62.41 167.85 728.75 167.85 728.75 600.14 64.94 595.72"/><rect class="cls-3" x="14.65" y="189.93" width="96.19" height="164.99"/><path class="cls-4" d="M110.84,354.91s0-.28,0-.81,0-1.34,0-2.36c0-2.09,0-5.14-.05-9.09,0-7.95-.07-19.51-.12-34.09-.05-29.15-.12-70.34-.2-118.63l.42.42-96.18,0h0l.45-.45c0,62.93-.07,120.66-.1,165l-.35-.35,70.12.19,19.27.09,5,0,1.75,0s-.56,0-1.68,0l-5,0L85,355.08l-70.34.18H14.3v-.35c0-44.32-.06-102.05-.1-165v-.45h.46l96.18,0h.42v.42c-.09,48.41-.16,89.69-.21,118.9,0,14.54-.08,26.07-.11,34,0,3.92,0,6.94,0,9,0,1,0,1.76,0,2.31S110.84,354.91,110.84,354.91Z"/><polygon class="cls-5" points="37.76 221.18 38.93 236.58 43.23 230.97 50.42 230.67 37.76 221.18"/><path class="cls-5" d="M79.33,221.18a9.66,9.66,0,0,1,.91.63l2.63,1.89c2.27,1.62,5.53,4,9.28,6.76l.58.43-.72,0-7,.3h-.25l.21-.11-4.32,5.61-.41.53-.05-.67c-.33-4.56-.54-8.48-.69-11.2-.07-1.2-.13-2.25-.17-3.15,0-.72-.06-1.1,0-1.07s.06.45.14,1.22.19,2,.31,3.23c.26,2.74.63,6.52,1,10.93l-.46-.13,4.3-5.63.07-.1h.13l.25,0,6.94-.27-.14.46c-3.61-2.72-6.68-5.12-8.9-6.86l-2.63-2C79.69,221.48,79.35,221.21,79.33,221.18Z"/><path class="cls-5" d="M35,288.2c-.11-.1,4.68-5.21,10.7-11.4s11-11.12,11.09-11-4.69,5.21-10.7,11.4S35.07,288.31,35,288.2Z"/><path class="cls-5" d="M101.75,276.84a27.35,27.35,0,0,0-.53-3.43,14.28,14.28,0,0,0-5-7.76,13.47,13.47,0,0,0-19.45,2.94,14.37,14.37,0,0,0,0,16.49,13.62,13.62,0,0,0,6.34,5,13.4,13.4,0,0,0,13.11-2,14.3,14.3,0,0,0,5-7.75,27.65,27.65,0,0,0,.53-3.43,11.86,11.86,0,0,1-.32,3.48,14.36,14.36,0,0,1-5,8,13.69,13.69,0,0,1-13.52,2.19,14.14,14.14,0,0,1-6.61-5.12,14.88,14.88,0,0,1,0-17.11,14.07,14.07,0,0,1,6.6-5.12,13.75,13.75,0,0,1,13.52,2.19,14.26,14.26,0,0,1,5,8A11.7,11.7,0,0,1,101.75,276.84Z"/><path class="cls-5" d="M89.29,313.48a2.62,2.62,0,0,1,.34.26l1,.83,3.79,3.25.12.11-.11.12c-3.86,4.44-9.61,11-16.15,18.57l-.07.07-.1,0-1.94.29-3.5.53-.38.06.07-.38c.44-2.21.86-4.34,1.26-6.36l0-.07,0,0c4.38-5.15,8.2-9.54,11-12.6s4.53-4.78,4.64-4.65a4.22,4.22,0,0,1-.33.31c-.19.21-.5.52-.88.94-.76.82-1.84,2.06-3.19,3.61-2.7,3.12-6.47,7.55-10.82,12.72l.06-.11c-.39,2-.81,4.15-1.24,6.36l-.3-.31,3.5-.54,1.94-.29-.16.09,16.32-18.42v.22l-3.62-3.32-1-.91C89.4,313.62,89.28,313.5,89.29,313.48Z"/><path class="cls-5" d="M54.1,336s0-.17,0-.46,0-.77,0-1.26c0-1.22,0-2.8-.06-4.75,0-4.18-.07-9.91-.12-16.74l.23.24-22.55,0,.27-.27h0v6.25c0,2.05,0,4.05,0,6,0,3.89,0,7.56,0,10.94l-.23-.24,16.28.12,4.61.06,1.22,0,.44,0a1.5,1.5,0,0,1-.39,0l-1.18,0L48,336.1l-16.43.12h-.23V336c0-3.38,0-7.05,0-10.94,0-1.95,0-3.95,0-6V312.8h0l.27-.27,22.55,0h.24v.24c-.05,6.89-.09,12.68-.12,16.89,0,1.93,0,3.49-.06,4.7,0,.47,0,.87,0,1.22A1.87,1.87,0,0,1,54.1,336Z"/><path class="cls-5" d="M35,312.78a22.32,22.32,0,0,1-4.89.27,22.32,22.32,0,0,1-4.89-.27,22.32,22.32,0,0,1,4.89-.27A22.32,22.32,0,0,1,35,312.78Z"/><path class="cls-5" d="M31.55,317.24a56.26,56.26,0,0,1,0-11,28.29,28.29,0,0,1,.27,5.51A28.14,28.14,0,0,1,31.55,317.24Z"/><path class="cls-3" d="M80.55,127.79a.71.71,0,0,1-.53-.22L62.6,110.44a.75.75,0,0,1,0-1.06.76.76,0,0,1,1.07,0L81.07,126.5a.76.76,0,0,1-.52,1.29Z"/><path class="cls-3" d="M81.16,109.77a.74.74,0,0,1-.22.53L63.8,127.7a.75.75,0,0,1-1.07-1l17.14-17.41a.75.75,0,0,1,1.06,0A.76.76,0,0,1,81.16,109.77Z"/><rect class="cls-6" x="62.37" y="135.85" width="666.43" height="32.06"/><path class="cls-5" d="M105,167.36c-.3,0-.55-5.74-.55-12.81s.25-12.82.55-12.82.54,5.74.54,12.82S105.33,167.36,105,167.36Z"/><path class="cls-5" d="M147.93,167.36c-.3,0-.54-5.74-.54-12.81s.24-12.82.54-12.82.55,5.74.55,12.82S148.23,167.36,147.93,167.36Z"/><path class="cls-5" d="M190.84,167.36c-.3,0-.55-5.74-.55-12.81s.25-12.82.55-12.82.54,5.74.54,12.82S191.14,167.36,190.84,167.36Z"/><path class="cls-5" d="M233.74,167.36c-.3,0-.54-5.74-.54-12.81s.24-12.82.54-12.82.55,5.74.55,12.82S234,167.36,233.74,167.36Z"/><path class="cls-5" d="M276.65,167.36c-.3,0-.55-5.74-.55-12.81s.25-12.82.55-12.82.54,5.74.54,12.82S277,167.36,276.65,167.36Z"/><path class="cls-5" d="M319.55,167.36c-.3,0-.54-5.74-.54-12.81s.24-12.82.54-12.82.55,5.74.55,12.82S319.85,167.36,319.55,167.36Z"/><path class="cls-5" d="M362.46,167.36c-.3,0-.55-5.74-.55-12.81s.25-12.82.55-12.82.54,5.74.54,12.82S362.76,167.36,362.46,167.36Z"/><path class="cls-5" d="M405.36,167.36c-.3,0-.54-5.74-.54-12.81s.24-12.82.54-12.82.55,5.74.55,12.82S405.66,167.36,405.36,167.36Z"/><path class="cls-5" d="M448.27,167.36c-.3,0-.55-5.74-.55-12.81s.25-12.82.55-12.82.54,5.74.54,12.82S448.57,167.36,448.27,167.36Z"/><path class="cls-5" d="M491.17,167.36c-.3,0-.54-5.74-.54-12.81s.24-12.82.54-12.82.55,5.74.55,12.82S491.47,167.36,491.17,167.36Z"/><path class="cls-5" d="M534.08,167.36c-.3,0-.55-5.74-.55-12.81s.25-12.82.55-12.82.54,5.74.54,12.82S534.38,167.36,534.08,167.36Z"/><path class="cls-5" d="M577,167.36c-.3,0-.54-5.74-.54-12.81s.24-12.82.54-12.82.55,5.74.55,12.82S577.28,167.36,577,167.36Z"/><path class="cls-5" d="M619.89,167.36c-.3,0-.55-5.74-.55-12.81s.25-12.82.55-12.82.54,5.74.54,12.82S620.19,167.36,619.89,167.36Z"/><path class="cls-5" d="M662.79,167.36c-.3,0-.54-5.74-.54-12.81s.24-12.82.54-12.82.55,5.74.55,12.82S663.09,167.36,662.79,167.36Z"/><path class="cls-5" d="M698.37,167.36c-.3,0-.54-5.74-.54-12.81s.24-12.82.54-12.82.55,5.74.55,12.82S698.68,167.36,698.37,167.36Z"/><path class="cls-7" d="M301.53,584a24.19,24.19,0,0,0-30.62-30.23,26,26,0,0,0-40.15-22.41c-4.33-8.45-16-12.16-24.42-7.76s-12.05,16.08-7.6,24.47a16.87,16.87,0,0,0-17.14,27.15c-13.66-6.15-31.77,5.85-31.43,20.83l166.46.85C315.46,594.67,311.43,584.48,301.53,584Z"/><path d="M301.53,584a24.17,24.17,0,0,0-30.61-30.2h0v0a25.92,25.92,0,0,0-40.08-22.36l-.06,0,0-.06A18,18,0,0,0,198.83,548l.1.19-.21-.05a16.77,16.77,0,0,0-17,27l.33.39-.47-.21a19.34,19.34,0,0,0-10.7-1.42,25.17,25.17,0,0,0-17.71,11.72,19.45,19.45,0,0,0-2.87,10.42l-.1-.11,166.46.95,0,0a44.47,44.47,0,0,0-2.47-4.62,22.1,22.1,0,0,0-3.27-4.08,15.74,15.74,0,0,0-4.28-3A15,15,0,0,0,301.53,584Zm0,0a15.3,15.3,0,0,1,5.07,1.22,15.71,15.71,0,0,1,4.28,3,21.71,21.71,0,0,1,3.27,4.07,44.63,44.63,0,0,1,2.49,4.62h0l-166.46-.75h-.11v-.11A19.61,19.61,0,0,1,153,585.51a25.42,25.42,0,0,1,17.86-11.85,19.57,19.57,0,0,1,10.84,1.46l-.14.18A17,17,0,0,1,198.77,548l-.11.13a18.14,18.14,0,0,1,32.16-16.78l-.09,0a26,26,0,0,1,40.21,22.46l0,0A24.2,24.2,0,0,1,301.53,584Z"/><path class="cls-7" d="M602.05,586.41a24.19,24.19,0,0,0-30.62-30.23,26,26,0,0,0-40.15-22.41c-4.33-8.45-16-12.16-24.42-7.77s-12.05,16.09-7.6,24.48a16.87,16.87,0,0,0-17.14,27.15c-13.66-6.15-31.77,5.85-31.44,20.83l166.46.85C616,597.08,612,586.89,602.05,586.41Z"/><path d="M602.05,586.41a24.18,24.18,0,0,0-30.61-30.2h0v0a25.92,25.92,0,0,0-40.09-22.36l0,0,0-.06a18,18,0,0,0-31.89,16.63l.1.19-.2,0a16.77,16.77,0,0,0-17,27l.33.39-.47-.21a19.37,19.37,0,0,0-10.71-1.42A25.21,25.21,0,0,0,453.66,588a19.42,19.42,0,0,0-2.87,10.43l-.11-.11,166.46.95v0a44.47,44.47,0,0,0-2.47-4.62,23,23,0,0,0-3.27-4.08,15.67,15.67,0,0,0-4.28-3A15,15,0,0,0,602.05,586.41Zm0,0a15,15,0,0,1,5.06,1.22,15.59,15.59,0,0,1,4.28,3,22.15,22.15,0,0,1,3.28,4.08,42.73,42.73,0,0,1,2.48,4.62h0l-166.46-.75h-.1v-.1a19.6,19.6,0,0,1,2.88-10.54,25.46,25.46,0,0,1,17.87-11.85,19.66,19.66,0,0,1,10.84,1.45l-.14.19a17,17,0,0,1,17.25-27.32l-.1.13a18.14,18.14,0,0,1,32.16-16.78l-.09,0a26,26,0,0,1,40.21,22.46l0,0a24.2,24.2,0,0,1,30.63,30.26Z"/><path class="cls-3" d="M438.68,597.88a41.42,41.42,0,0,0-.14-27.64c-2-5.59-5.42-10.87-10.45-14s-11.82-3.89-16.9-.81a24,24,0,0,0-29.5-23.56,18.49,18.49,0,0,0-23.13-20.42c3-9.46-5.11-19-14.82-21l-3.22,0s-20.43-.67-22.94-.19c-9.74,1.87-18,11.3-15.16,20.81A18.49,18.49,0,0,0,279,531a24,24,0,0,0-29.87,23.08c-5-3.16-11.84-2.55-16.91.54s-8.56,8.32-10.67,13.88a41.46,41.46,0,0,0-.59,27.63Z"/><path d="M438.68,597.88a41.61,41.61,0,0,0,2.24-15.69,40.49,40.49,0,0,0-3.83-15.36c-2.3-4.76-5.82-9.12-10.61-11.51a17.79,17.79,0,0,0-7.67-1.88,14.39,14.39,0,0,0-7.61,2l0,0v0a23.93,23.93,0,0,0-29.45-23.52l-.07,0v-.07a18.45,18.45,0,0,0-23.07-20.36l-.11,0,0-.1a13.44,13.44,0,0,0,.27-7.09,16.74,16.74,0,0,0-3.11-6.4,20.69,20.69,0,0,0-11.93-7.46h0l-3.44,0-3.43-.1-6.87-.17c-2.29,0-4.59-.07-6.88-.08-1.14,0-2.29,0-3.43,0-.57,0-1.15,0-1.71.09a12.45,12.45,0,0,0-1.67.36A20.7,20.7,0,0,0,305.16,498a16.06,16.06,0,0,0-2.87,6.15,13.55,13.55,0,0,0,.22,6.75l.05.17-.16,0A18.39,18.39,0,0,0,279.07,531l0,.16-.15,0a23.88,23.88,0,0,0-29.73,23v.22l-.18-.12a14.32,14.32,0,0,0-7.52-2.07,17.64,17.64,0,0,0-7.66,1.75c-4.8,2.3-8.38,6.59-10.75,11.29A40.52,40.52,0,0,0,219,580.42a41.74,41.74,0,0,0,2,15.69l-.09-.07Zm0,0-217.76-1.65h-.06l0-.07a41.86,41.86,0,0,1-2-15.75,40.56,40.56,0,0,1,4.08-15.35c2.38-4.74,6-9.07,10.84-11.41a18,18,0,0,1,7.76-1.77,14.55,14.55,0,0,1,7.65,2.1l-.19.1a24.08,24.08,0,0,1,30-23.19l-.14.12a18.6,18.6,0,0,1,23.6-20.16l-.12.12a13.78,13.78,0,0,1-.23-6.84,16.39,16.39,0,0,1,2.92-6.22,20.86,20.86,0,0,1,11.25-7.54A12.37,12.37,0,0,1,318,490c.58-.06,1.15-.08,1.72-.1,1.15,0,2.3,0,3.44,0q3.45,0,6.88.09l6.87.16,3.44.11,3.43,0h0a20.85,20.85,0,0,1,12,7.53,16.64,16.64,0,0,1,3.13,6.45,13.56,13.56,0,0,1-.27,7.15l-.08-.07a18.55,18.55,0,0,1,23.2,20.49l-.06-.05a24,24,0,0,1,29.54,23.6l0,0a14.5,14.5,0,0,1,7.63-2,17.85,17.85,0,0,1,7.69,1.89c4.8,2.4,8.32,6.78,10.61,11.53a40.63,40.63,0,0,1,3.83,15.38A41.83,41.83,0,0,1,438.68,597.88Z"/><path class="cls-3" d="M544.29,598.73a41.57,41.57,0,0,0-.14-27.65c-2-5.58-5.43-10.86-10.45-14s-11.82-3.89-16.9-.81a24,24,0,0,0-29.5-23.56,18.49,18.49,0,0,0-23.13-20.43c3-9.46-5.12-19-14.82-21l-3.23,0s-20.43-.66-22.94-.18c-9.74,1.86-18,11.3-15.15,20.8a18.5,18.5,0,0,0-23.46,20.05,24,24,0,0,0-29.87,23.09c-5-3.16-11.84-2.56-16.92.54s-8.55,8.32-10.67,13.87a41.55,41.55,0,0,0-.58,27.64Z"/><path d="M544.29,598.73A41.81,41.81,0,0,0,546.53,583a40.73,40.73,0,0,0-3.84-15.37c-2.29-4.75-5.82-9.12-10.6-11.51a18.11,18.11,0,0,0-7.67-1.88,14.5,14.5,0,0,0-7.61,2l0,0v0a23.94,23.94,0,0,0-29.46-23.52l-.06,0v-.07a18.45,18.45,0,0,0-23.08-20.36l-.11,0,0-.11a13.4,13.4,0,0,0,.26-7.08,16.32,16.32,0,0,0-3.11-6.4,20.67,20.67,0,0,0-11.93-7.47h0l-3.44,0-3.44-.1L435.6,491c-2.29,0-4.58-.08-6.87-.08-1.15,0-2.29,0-3.44,0-.57,0-1.14,0-1.7.1a13.77,13.77,0,0,0-1.67.35,20.73,20.73,0,0,0-11.15,7.49,16,16,0,0,0-2.88,6.14,13.54,13.54,0,0,0,.23,6.75l.05.17-.17-.05a18.39,18.39,0,0,0-23.32,20l0,.16-.16,0a23.85,23.85,0,0,0-29.72,23v.21l-.18-.11a14.33,14.33,0,0,0-7.53-2.07,17.7,17.7,0,0,0-7.66,1.74c-4.8,2.3-8.38,6.6-10.74,11.3a40.35,40.35,0,0,0-4.08,15.26,41.72,41.72,0,0,0,2,15.69l-.09-.06Zm0,0-217.76-1.66h-.07l0-.06a41.89,41.89,0,0,1-2-15.76,40.62,40.62,0,0,1,4.09-15.35c2.37-4.73,6-9.07,10.84-11.4a17.92,17.92,0,0,1,7.75-1.78,14.53,14.53,0,0,1,7.65,2.11l-.18.1a24.08,24.08,0,0,1,30-23.2l-.14.13a18.6,18.6,0,0,1,23.59-20.16l-.11.12a13.71,13.71,0,0,1-.23-6.85,16.48,16.48,0,0,1,2.91-6.21,20.89,20.89,0,0,1,11.26-7.54,13.33,13.33,0,0,1,1.69-.36c.57-.06,1.15-.08,1.72-.09,1.15,0,2.29,0,3.44,0,2.29,0,4.58,0,6.87.08l6.88.17,3.43.1,3.44,0h0a20.86,20.86,0,0,1,12,7.52,16.89,16.89,0,0,1,3.13,6.46,13.46,13.46,0,0,1-.28,7.15l-.07-.08a18.55,18.55,0,0,1,23.2,20.49l-.06,0a24,24,0,0,1,29.53,23.61l0,0a14.5,14.5,0,0,1,7.64-2,17.84,17.84,0,0,1,7.68,1.89c4.8,2.4,8.32,6.77,10.62,11.53A40.57,40.57,0,0,1,546.54,583,41.62,41.62,0,0,1,544.29,598.73Z"/><polygon class="cls-8" points="341.22 482.97 319.2 483.39 319.53 442.45 341.55 442.03 341.22 482.97"/><path class="cls-8" d="M342.66,455.29l-24.16-.19a1.59,1.59,0,0,1-1.58-1.6h0a1.6,1.6,0,0,1,1.61-1.58l24.16.19a1.59,1.59,0,0,1,1.57,1.61h0A1.58,1.58,0,0,1,342.66,455.29Z"/><path class="cls-8" d="M342.61,461.68l-24.16-.2a1.58,1.58,0,0,1-1.58-1.6h0a1.6,1.6,0,0,1,1.6-1.58l24.17.2a1.59,1.59,0,0,1,1.57,1.6h0A1.59,1.59,0,0,1,342.61,461.68Z"/><path class="cls-8" d="M342.56,468.06l-24.16-.19a1.6,1.6,0,0,1-1.58-1.61h0a1.59,1.59,0,0,1,1.6-1.57l24.17.19a1.59,1.59,0,0,1,1.57,1.6h0A1.59,1.59,0,0,1,342.56,468.06Z"/><path class="cls-8" d="M342.51,474.44l-24.16-.19a1.59,1.59,0,0,1-1.58-1.6h0a1.59,1.59,0,0,1,1.6-1.58l24.16.2a1.58,1.58,0,0,1,1.58,1.6h0A1.58,1.58,0,0,1,342.51,474.44Z"/><path class="cls-8" d="M342.46,480.83l-24.16-.2a1.58,1.58,0,0,1-1.58-1.6h0a1.58,1.58,0,0,1,1.6-1.57l24.16.19a1.59,1.59,0,0,1,1.58,1.6h0A1.59,1.59,0,0,1,342.46,480.83Z"/><polygon class="cls-8" points="315.14 490.36 319.21 482.79 341.22 482.97 345.98 490.61 315.14 490.36"/><path class="cls-5" d="M343.19,452.12c0,.16-5.63.25-12.56.2s-12.55-.24-12.55-.4,5.62-.26,12.56-.2S343.19,452,343.19,452.12Z"/><path class="cls-5" d="M342.65,455.29c0,.17-5.57.26-12.43.2s-12.43-.23-12.43-.4,5.57-.25,12.43-.19S342.65,455.13,342.65,455.29Z"/><path class="cls-5" d="M343.3,458.5c0,.17-5.68.26-12.68.2s-12.69-.24-12.69-.4,5.68-.25,12.69-.2S343.3,458.34,343.3,458.5Z"/><path class="cls-5" d="M342,461.67c0,.17-5.39.26-12,.2s-12-.23-12-.39,5.39-.26,12-.2S342,461.51,342,461.67Z"/><path class="cls-5" d="M342.9,464.94c0,.17-5.53.26-12.34.2s-12.33-.23-12.33-.39,5.53-.26,12.34-.2S342.9,464.78,342.9,464.94Z"/><path class="cls-5" d="M343.19,468.07c0,.16-5.6.25-12.49.19s-12.49-.23-12.49-.39,5.59-.26,12.49-.2S343.19,467.9,343.19,468.07Z"/><path class="cls-5" d="M342.45,471.26c0,.17-5.27.26-11.78.21s-11.78-.23-11.78-.39,5.28-.26,11.79-.21S342.45,471.1,342.45,471.26Z"/><path class="cls-5" d="M342.62,474.45c0,.16-5.28.25-11.78.2s-11.78-.23-11.78-.39,5.28-.26,11.78-.21S342.62,474.28,342.62,474.45Z"/><path class="cls-5" d="M341.82,477.57c0,.16-5.25.25-11.72.2s-11.71-.22-11.71-.39a115,115,0,0,1,11.72-.2C336.58,477.23,341.82,477.4,341.82,477.57Z"/><path class="cls-5" d="M341.73,480.82c0,.17-5.08.26-11.33.21s-11.33-.22-11.32-.39a108.89,108.89,0,0,1,11.33-.21A109.14,109.14,0,0,1,341.73,480.82Z"/><polygon class="cls-8" points="446.77 483.81 424.75 484.23 425.08 443.3 447.1 442.88 446.77 483.81"/><path class="cls-8" d="M448.21,456.14,424.05,456a1.6,1.6,0,0,1-1.58-1.61h0a1.59,1.59,0,0,1,1.61-1.57l24.16.19a1.58,1.58,0,0,1,1.57,1.6h0A1.58,1.58,0,0,1,448.21,456.14Z"/><path class="cls-8" d="M448.16,462.52,424,462.33a1.59,1.59,0,0,1-1.58-1.6h0a1.59,1.59,0,0,1,1.6-1.58l24.17.19a1.59,1.59,0,0,1,1.57,1.61h0A1.58,1.58,0,0,1,448.16,462.52Z"/><path class="cls-8" d="M448.11,468.91l-24.16-.2a1.58,1.58,0,0,1-1.58-1.6h0a1.6,1.6,0,0,1,1.6-1.58l24.17.2a1.59,1.59,0,0,1,1.57,1.6h0A1.59,1.59,0,0,1,448.11,468.91Z"/><path class="cls-8" d="M448.06,475.29l-24.16-.19a1.6,1.6,0,0,1-1.58-1.61h0a1.59,1.59,0,0,1,1.6-1.57l24.16.19a1.59,1.59,0,0,1,1.58,1.6h0A1.59,1.59,0,0,1,448.06,475.29Z"/><path class="cls-8" d="M448,481.67l-24.16-.19a1.59,1.59,0,0,1-1.58-1.6h0a1.59,1.59,0,0,1,1.6-1.58l24.16.2a1.58,1.58,0,0,1,1.58,1.6h0A1.58,1.58,0,0,1,448,481.67Z"/><polygon class="cls-8" points="420.69 491.21 424.76 483.64 446.77 483.81 451.53 491.46 420.69 491.21"/><path class="cls-5" d="M448.74,453c0,.17-5.63.26-12.56.2s-12.55-.23-12.55-.4,5.62-.25,12.56-.19S448.74,452.8,448.74,453Z"/><path class="cls-5" d="M448.2,456.14c0,.16-5.57.25-12.43.2s-12.43-.23-12.43-.4,5.57-.25,12.43-.2S448.2,456,448.2,456.14Z"/><path class="cls-5" d="M448.85,459.35c0,.16-5.68.25-12.68.2s-12.69-.24-12.69-.4,5.68-.26,12.69-.2S448.85,459.18,448.85,459.35Z"/><path class="cls-5" d="M447.59,462.52c0,.16-5.39.25-12,.2s-12-.23-12-.39,5.39-.26,12-.21S447.59,462.35,447.59,462.52Z"/><path class="cls-5" d="M448.45,465.79c0,.17-5.52.26-12.34.2s-12.33-.23-12.33-.4,5.53-.25,12.34-.2S448.45,465.63,448.45,465.79Z"/><path class="cls-5" d="M448.74,468.91c0,.17-5.6.26-12.49.2s-12.49-.23-12.49-.4,5.59-.25,12.49-.2S448.74,468.75,448.74,468.91Z"/><path class="cls-5" d="M448,472.11c0,.17-5.27.26-11.78.21s-11.78-.23-11.78-.4,5.28-.25,11.79-.2S448,472,448,472.11Z"/><path class="cls-5" d="M448.17,475.29c0,.17-5.28.26-11.78.21s-11.78-.23-11.78-.4,5.28-.25,11.79-.2S448.17,475.13,448.17,475.29Z"/><path class="cls-5" d="M447.37,478.41c0,.17-5.25.26-11.72.21a116.68,116.68,0,0,1-11.71-.39c0-.17,5.25-.26,11.72-.21A116.68,116.68,0,0,1,447.37,478.41Z"/><path class="cls-5" d="M447.28,481.67a109,109,0,0,1-11.33.21,108.77,108.77,0,0,1-11.32-.39c0-.17,5.07-.26,11.33-.21S447.28,481.5,447.28,481.67Z"/><path class="cls-8" d="M351.57,194.14,350.31,397.2l-25.7-.21,1.62-202.15a41.11,41.11,0,0,1,1.53-10.75l11-39c.43-1.53,2.23-1.48,2.71,1.27l9,38.18A40.45,40.45,0,0,1,351.57,194.14Z"/><path class="cls-5" d="M350.68,244.16c0,.17-5.5.26-12.28.2s-12.27-.23-12.27-.4,5.49-.25,12.27-.2S350.68,244,350.68,244.16Z"/><path class="cls-5" d="M332.08,238.69c-.16,0-.29-.73-.28-1.63s.15-1.63.31-1.63.29.74.29,1.63S332.25,238.69,332.08,238.69Z"/><path class="cls-5" d="M334.6,238.41c-.16,0-.29-.6-.29-1.33s.15-1.33.31-1.33.3.6.29,1.33S334.77,238.41,334.6,238.41Z"/><path class="cls-5" d="M350.91,309.7c0,.17-5.66.26-12.63.2s-12.62-.23-12.62-.4,5.65-.25,12.63-.19S350.91,309.54,350.91,309.7Z"/><path class="cls-5" d="M331.57,317.17c-.16,0-.29-.74-.28-1.64s.14-1.65.31-1.65.29.74.28,1.65S331.74,317.17,331.57,317.17Z"/><path class="cls-5" d="M333.51,317.49c-.16,0-.29-.78-.28-1.72s.15-1.72.31-1.72.29.77.29,1.72S333.68,317.49,333.51,317.49Z"/><path class="cls-5" d="M342,373a63.56,63.56,0,0,1-8.66.23,64.31,64.31,0,0,1-8.67-.37c0-.17,3.88-.27,8.67-.23S342,372.83,342,373Z"/><path class="cls-5" d="M351.23,191.48c0,.17-5.53.25-12.35.2s-12.35-.23-12.35-.4,5.53-.25,12.35-.2S351.23,191.32,351.23,191.48Z"/><path class="cls-5" d="M328.89,192.86c0-.08.28-.1.44.23a.66.66,0,0,1-.05.63.72.72,0,0,1-1.29-.38.65.65,0,0,1,.3-.56c.32-.19.54,0,.51.05s-.16.13-.23.27-.05.25.1.3.22,0,.25-.2S328.86,192.93,328.89,192.86Z"/><path class="cls-5" d="M339,192.94c0-.08.29-.1.45.23a.69.69,0,1,1-1.34.25.66.66,0,0,1,.3-.56c.31-.19.54,0,.5,0s-.15.13-.22.27,0,.25.1.3.22,0,.25-.2S339,193,339,192.94Z"/><path class="cls-5" d="M349.16,193c0-.08.28-.1.44.23a.66.66,0,0,1-.05.63.72.72,0,0,1-1.29-.38.64.64,0,0,1,.3-.55c.32-.19.54,0,.51,0s-.16.13-.23.27,0,.25.1.3.22,0,.25-.19S349.13,193.1,349.16,193Z"/><path class="cls-5" d="M328.46,246.2c0-.08.28-.1.44.23a.63.63,0,0,1,0,.63.67.67,0,0,1-.77.25.69.69,0,0,1-.52-.63.67.67,0,0,1,.31-.55c.31-.2.54,0,.5,0s-.15.13-.22.27-.06.25.1.3.21,0,.25-.19S328.43,246.28,328.46,246.2Z"/><path class="cls-5" d="M338.59,246.28c0-.08.29-.1.45.24a.64.64,0,0,1-.05.62.72.72,0,0,1-1.29-.38.64.64,0,0,1,.3-.55c.31-.19.54,0,.5,0s-.15.13-.22.27,0,.25.1.3.22,0,.25-.19S338.57,246.36,338.59,246.28Z"/><path class="cls-5" d="M348.73,246.36c0-.08.28-.1.44.24a.61.61,0,0,1-.05.62.68.68,0,0,1-.77.26.71.71,0,0,1-.52-.64.67.67,0,0,1,.31-.55c.31-.19.54,0,.5,0s-.15.13-.22.27-.06.25.1.3.21,0,.25-.19S348.7,246.44,348.73,246.36Z"/><path class="cls-5" d="M328,304.72c0-.08.29-.09.44.24a.63.63,0,0,1-.05.63.69.69,0,0,1-.77.25.67.67,0,0,1-.51-.64.64.64,0,0,1,.3-.55c.31-.19.54,0,.5,0s-.15.13-.22.28-.06.24.1.3.21,0,.25-.2S328,304.8,328,304.72Z"/><path class="cls-5" d="M338.12,304.8c0-.08.29-.09.45.24a.66.66,0,0,1-.05.63.71.71,0,0,1-.78.25.7.7,0,0,1-.51-.64.64.64,0,0,1,.3-.55c.32-.19.54,0,.5,0s-.15.12-.22.27-.05.24.1.3.22,0,.25-.2S338.1,304.88,338.12,304.8Z"/><path class="cls-5" d="M348.26,304.88c0-.07.29-.09.44.24a.63.63,0,0,1-.05.63.72.72,0,0,1-1.28-.38.65.65,0,0,1,.3-.56c.31-.19.54,0,.5.05s-.15.13-.22.27-.06.24.1.3.21,0,.25-.2S348.23,305,348.26,304.88Z"/><path class="cls-5" d="M327.48,368.53c0-.08.28-.1.44.23a.63.63,0,0,1-.05.63.68.68,0,0,1-.77.25.65.65,0,0,1-.22-1.19c.32-.19.54,0,.51.05s-.16.13-.23.27-.05.25.11.3.21,0,.25-.2S327.45,368.61,327.48,368.53Z"/><path class="cls-5" d="M337.61,368.61c0-.08.29-.1.45.23a.69.69,0,1,1-1.34.25.63.63,0,0,1,.3-.55c.31-.2.54,0,.5,0s-.15.13-.22.27-.05.25.1.3.22,0,.25-.19S337.59,368.69,337.61,368.61Z"/><path class="cls-8" d="M421,194.69l-2,203.06,25.7.21,1.62-202.16A40.78,40.78,0,0,0,444.92,185l-10.38-39.19c-.4-1.53-2.21-1.51-2.74,1.23l-9.61,38A40.87,40.87,0,0,0,421,194.69Z"/><path class="cls-5" d="M421,244.73c0-.17,5.5-.26,12.28-.2s12.28.23,12.27.39-5.49.26-12.27.2S421,244.89,421,244.73Z"/><path class="cls-5" d="M439.72,239.55c-.16,0-.29-.73-.28-1.63s.14-1.62.31-1.62.29.73.28,1.63S439.89,239.55,439.72,239.55Z"/><path class="cls-5" d="M437.21,239.24c-.17,0-.29-.6-.29-1.34s.15-1.33.31-1.33.29.6.29,1.34S437.37,239.24,437.21,239.24Z"/><path class="cls-5" d="M419.76,310.26c0-.17,5.65-.26,12.63-.2s12.62.23,12.62.4-5.65.25-12.63.2S419.76,310.42,419.76,310.26Z"/><path class="cls-5" d="M439,318c-.16,0-.29-.74-.28-1.64s.15-1.65.31-1.64.29.73.29,1.64S439.14,318,439,318Z"/><path class="cls-5" d="M437,318.32c-.17,0-.29-.78-.29-1.73s.15-1.71.32-1.71.29.77.28,1.72S437.19,318.32,437,318.32Z"/><path class="cls-5" d="M427.62,373.68a64.74,64.74,0,0,1,8.67-.22,63.21,63.21,0,0,1,8.66.36c0,.17-3.88.27-8.67.23S427.62,373.85,427.62,373.68Z"/><path class="cls-5" d="M421.33,192c0-.16,5.54-.25,12.36-.2s12.35.24,12.34.4-5.53.25-12.35.2S421.33,192.21,421.33,192Z"/><path class="cls-5" d="M443.65,193.78c0,.08-.06.19,0,.34s.09.24.25.2.17-.12.1-.3-.19-.19-.21-.27.19-.23.5,0a.67.67,0,0,1,.29.56.71.71,0,0,1-1.29.36.65.65,0,0,1,0-.63C443.37,193.68,443.65,193.7,443.65,193.78Z"/><path class="cls-5" d="M433.52,193.69c0,.08-.06.19,0,.35s.08.24.24.2.18-.12.11-.3-.2-.19-.22-.27.19-.23.5,0a.65.65,0,0,1,.29.56.71.71,0,0,1-1.29.36.65.65,0,0,1,0-.63C433.23,193.59,433.52,193.62,433.52,193.69Z"/><path class="cls-5" d="M423.38,193.61c0,.08-.06.19,0,.35s.09.24.25.2.17-.12.1-.3-.19-.19-.21-.27.19-.24.5,0a.64.64,0,0,1,.29.56.71.71,0,0,1-1.29.36.65.65,0,0,1,0-.63C423.1,193.51,423.38,193.53,423.38,193.61Z"/><path class="cls-5" d="M443.23,247.12c0,.08-.06.19-.05.35s.09.23.25.2.18-.13.11-.3-.2-.2-.22-.28.19-.23.5,0a.64.64,0,0,1,.29.55.72.72,0,0,1-1.29.37.65.65,0,0,1,0-.63C442.94,247,443.22,247,443.23,247.12Z"/><path class="cls-5" d="M433.09,247c0,.08-.06.19,0,.34s.08.24.24.2.18-.12.11-.29-.2-.2-.22-.28.19-.23.51,0a.69.69,0,1,1-1,.92.63.63,0,0,1,0-.62C432.81,246.94,433.09,247,433.09,247Z"/><path class="cls-5" d="M423,247c0,.09-.06.19,0,.35s.09.24.25.2.18-.12.11-.3-.2-.19-.22-.27.19-.23.5,0a.67.67,0,0,1,.29.56.71.71,0,0,1-1.29.36.65.65,0,0,1,0-.63C422.67,246.86,423,246.88,423,247Z"/><path class="cls-5" d="M442.76,305.64c0,.08-.06.19-.05.35s.09.24.25.2.18-.12.11-.3-.2-.19-.22-.27.19-.24.5,0a.62.62,0,0,1,.29.56.72.72,0,0,1-1.29.36.65.65,0,0,1,0-.63C442.47,305.54,442.75,305.56,442.76,305.64Z"/><path class="cls-5" d="M432.62,305.56c0,.08-.06.19,0,.35s.09.23.24.2.18-.13.11-.3-.2-.19-.22-.28.2-.23.51,0a.67.67,0,0,1,.29.56.68.68,0,0,1-.52.62.7.7,0,0,1-.78-.26.65.65,0,0,1,0-.63C432.34,305.46,432.62,305.48,432.62,305.56Z"/><path class="cls-5" d="M422.49,305.48c0,.08-.06.19-.05.35s.09.23.25.2.18-.13.11-.3-.2-.2-.22-.28.19-.23.5,0a.62.62,0,0,1,.29.56.69.69,0,0,1-.52.62.68.68,0,0,1-.77-.26.65.65,0,0,1,0-.63C422.2,305.38,422.48,305.4,422.49,305.48Z"/><path class="cls-5" d="M442.25,369.45c0,.08-.06.19-.05.34s.09.24.25.2.17-.12.1-.3-.19-.19-.21-.27.19-.23.5,0a.67.67,0,0,1,.29.56.71.71,0,0,1-1.29.36.63.63,0,0,1,0-.62C442,369.35,442.24,369.37,442.25,369.45Z"/><path class="cls-5" d="M432.11,369.36c0,.08-.06.19,0,.35s.08.24.24.2.18-.12.11-.3-.2-.19-.22-.27.19-.23.5,0a.68.68,0,0,1,.3.56.72.72,0,0,1-1.3.36.65.65,0,0,1,0-.63C431.83,369.27,432.11,369.29,432.11,369.36Z"/><path class="cls-8" d="M386.78,67.8s-30.95,35.6-32,69c-1.06,32.42-1,122.11-1,122.11l-.88,109.27,63,.51,1.59-198.56.2-24.48s-.47-13.2-6-33.49C406.5,93.51,386.78,67.8,386.78,67.8Z"/><g class="cls-9"><path d="M386.78,67.8s-30.95,35.6-32,69c-1.06,32.42-1,122.11-1,122.11l-.88,109.27,63,.51,1.59-198.56.2-24.48s-.47-13.2-6-33.49C406.5,93.51,386.78,67.8,386.78,67.8Z"/></g><path class="cls-5" d="M417.47,165.58c0,.16-14.17.18-31.65,0s-31.64-.39-31.64-.55,14.17-.19,31.65,0S417.47,165.41,417.47,165.58Z"/><path class="cls-5" d="M357.55,226.94s0,0,0,.12v.09h-.07v-.05h.08v.21h-.09c-.13-2.34-.13-15.27,0-30.84.11-8.63.2-16.43.27-22.18.06-2.77.11-5.05.15-6.72,0-.74,0-1.34.07-1.82a2.69,2.69,0,0,1,.06-.64,2.15,2.15,0,0,1,.06.64c0,.48,0,1.09,0,1.83,0,1.67,0,3.94,0,6.72,0,5.75-.05,13.55-.09,22.17-.12,15.57-.33,28.5-.5,30.84h-.09v-.21h.07v.05h0c-.13,0,0,0-.06,0v-.09C357.53,227,357.54,226.94,357.55,226.94Z"/><path class="cls-5" d="M362.07,227.34c-.17,0-.19-13.93-.05-31.1s.38-31.1.55-31.1.18,13.92,0,31.1S362.23,227.34,362.07,227.34Z"/><path class="cls-5" d="M366.71,227.37c-.16,0-.21-13.92-.11-31.1s.32-31.1.49-31.1.21,13.93.11,31.11S366.88,227.38,366.71,227.37Z"/><path class="cls-5" d="M371.11,227.41c-.17,0-.19-13.93-.05-31.1s.38-31.1.55-31.1.18,13.92,0,31.1S371.27,227.41,371.11,227.41Z"/><path class="cls-5" d="M375.62,228.89c-.17,0-.19-14.25-.05-31.82s.39-31.83.56-31.82.18,14.24,0,31.82S375.78,228.89,375.62,228.89Z"/><path class="cls-5" d="M380.14,228.93c-.17,0-.19-14.25-.05-31.83s.39-31.82.56-31.82.18,14.25,0,31.83S380.3,228.93,380.14,228.93Z"/><path class="cls-5" d="M384.66,229c-.17,0-.19-14.25-.05-31.82s.39-31.82.56-31.82.18,14.25,0,31.83S384.82,229,384.66,229Z"/><path class="cls-5" d="M389.18,229c-.17,0-.19-14.25-.05-31.82s.39-31.83.56-31.83.18,14.25,0,31.83S389.34,229,389.18,229Z"/><path class="cls-5" d="M393.7,229c-.17,0-.19-14.25-.05-31.83s.39-31.82.56-31.82.18,14.25,0,31.83S393.86,229,393.7,229Z"/><path class="cls-5" d="M398.45,227.63c-.16,0-.23-13.93-.16-31.1s.27-31.1.44-31.1.24,13.92.16,31.1S398.62,227.63,398.45,227.63Z"/><path class="cls-5" d="M402.75,227.66a2.64,2.64,0,0,1-.06-.63c0-.48,0-1.08,0-1.81,0-1.66,0-3.92,0-6.67,0-5.7.06-13.44.09-22s.2-16.29.26-22c.07-2.75.12-5,.15-6.66,0-.74.05-1.34.07-1.82a2.91,2.91,0,0,1,.07-.63,2.46,2.46,0,0,1,.05.64c0,.48,0,1.08,0,1.81,0,1.66,0,3.91.05,6.66,0,5.71-.06,13.45-.09,22s-.2,16.28-.27,22c-.06,2.75-.11,5-.14,6.66,0,.73-.06,1.33-.08,1.81A2.54,2.54,0,0,1,402.75,227.66Z"/><path class="cls-5" d="M407.27,227.7c-.16,0-.19-13.93,0-31.1s.38-31.1.55-31.1.19,13.92.05,31.1S407.43,227.7,407.27,227.7Z"/><path class="cls-5" d="M411.79,227.74c-.16,0-.19-13.93-.05-31.11s.38-31.1.55-31.09.19,13.92,0,31.1S412,227.74,411.79,227.74Z"/><path class="cls-5" d="M416.31,227.77c-.16,0-.19-13.93-.05-31.1s.38-31.1.55-31.1.19,13.93.05,31.11S416.48,227.77,416.31,227.77Z"/><path class="cls-5" d="M417,227.78c0,.16-14.12.18-31.53,0s-31.53-.38-31.53-.55,14.12-.18,31.54,0S417,227.61,417,227.78Z"/><path class="cls-3" d="M464.83,416.76c-1.09-2.4-49.17-53.12-49.34-54.41L405.24,255.14c-.67-3.52-13.91-46.71-13.91-46.71s-2.07-4-5.59-3.79-4.23,2.31-4.94,3.24-14.37,39.69-15.09,42.73-10,108.89-10,108.89-48.19,48.92-51,51.72c-1.92,1.89-3.2,30.8-3.2,30.8l58.59,4,46.26.14,60.3-4.25S465.91,419.17,464.83,416.76Z"/><path class="cls-5" d="M467.58,442.7,406.43,447l-46.33-.14-59.52-4,0-.88c.3-6.87,1.44-29.42,3.46-31.4,2.71-2.66,47.2-47.83,50.79-51.48.66-7.59,9.24-105.69,10-108.7.54-2.23,14.29-41.8,15.26-43.07.09-.12.19-.28.3-.45a6,6,0,0,1,5.3-3.14c4.05-.23,6.35,4.09,6.44,4.28.6,1.91,13.32,43.43,14,46.95l10.24,107.12c1.14,1.65,12.8,14.23,23.11,25.36,15.9,17.15,25.6,27.67,26.18,28.94h0c1.12,2.5,1.83,23.1,1.91,25.44Zm-165.13-1.52,57.71,3.89,46.2.14L465.73,441c-.3-8.75-1-22.26-1.72-23.89-.78-1.41-14.68-16.41-25.86-28.47-21.27-23-23.46-25.46-23.55-26.2L404.35,255.22c-.65-3.34-13.7-45.95-13.88-46.52h0s-1.84-3.33-4.67-3.16a4.28,4.28,0,0,0-3.9,2.31,6.25,6.25,0,0,1-.38.57c-.91,1.63-14.2,39.32-14.94,42.4-.56,2.35-6.75,72.17-9.95,108.76l0,.32-.22.23c-.48.49-48.22,49-51,51.73C304.31,413.22,303.07,427.68,302.45,441.18Z"/><path class="cls-3" d="M405.22,253.81c-1.92-7.37-13.67-45.71-13.67-45.71s-2.08-4-5.59-3.79-4.23,2.3-4.94,3.23-14.37,39.69-15.1,42.73c-.06.28-.2,1.41-.39,3.22Z"/><path class="cls-3" d="M361.79,452.49l-.27-29.63,3.59-11.07.52-90-.1-68.26,39.69.32-2,158.37,3.92,10.53-.35,44.12L386,466.66l0-45.44a2.09,2.09,0,0,0-2.07-2.09h0a2.09,2.09,0,0,0-2.11,2.07l-.27,45.43-19.76-.16Z"/><path class="cls-8" d="M351.43,414.78a7.91,7.91,0,1,1-7.84-8A7.91,7.91,0,0,1,351.43,414.78Z"/><path class="cls-5" d="M384.54,274.17c.17,0,0,32.39-.28,72.34s-.71,72.34-.88,72.34,0-32.39.28-72.35S384.38,274.17,384.54,274.17Z"/><rect class="cls-10" x="381.23" y="262.4" width="2.8" height="4.92" transform="translate(2.13 -3.06) rotate(0.46)"/><rect class="cls-10" x="387.51" y="262.45" width="2.8" height="4.92" transform="translate(2.13 -3.1) rotate(0.46)"/><path class="cls-5" d="M374.05,249.67l3.59,3.85,15.51.12,3.67-3.61s-3.76-3.86-11.47-3.92A19.57,19.57,0,0,0,374.05,249.67Z"/><path class="cls-5" d="M405,272.88c0,.16-8.83.22-19.72.14s-19.71-.3-19.71-.46,8.83-.23,19.72-.14S405,272.71,405,272.88Z"/><path class="cls-5" d="M399.17,232.88c0,.17-6,.26-13.32.2s-13.31-.24-13.31-.41,6-.25,13.32-.19S399.17,232.72,399.17,232.88Z"/><path class="cls-5" d="M368.9,275.93c0,.09-.15.16-.21.35s0,.37.22.39.31-.14.27-.36-.17-.28-.16-.37.29-.15.54.18a.72.72,0,0,1-.69,1.14.76.76,0,0,1-.7-.55.72.72,0,0,1,.18-.67C368.63,275.75,368.92,275.86,368.9,275.93Z"/><path class="cls-5" d="M372.86,276c0,.08-.14.16-.2.34s0,.37.22.39.3-.13.27-.35-.17-.29-.16-.38.29-.14.53.18a.72.72,0,0,1,.09.69.8.8,0,0,1-1.48-.1.72.72,0,0,1,.18-.67C372.6,275.78,372.88,275.89,372.86,276Z"/><path class="cls-5" d="M377.16,276c0,.09-.15.16-.21.35s0,.36.23.38.3-.13.27-.35-.17-.29-.16-.37.29-.15.53.18a.72.72,0,0,1,.09.69.8.8,0,0,1-1.48-.1.71.71,0,0,1,.18-.67C376.89,275.81,377.18,275.93,377.16,276Z"/><path class="cls-5" d="M381.46,276c0,.08-.15.15-.21.34s0,.37.22.39.31-.14.27-.35-.16-.29-.15-.38.28-.15.53.18a.72.72,0,0,1,.09.69.8.8,0,0,1-1.48-.1.72.72,0,0,1,.18-.67C381.19,275.85,381.48,276,381.46,276Z"/><path class="cls-5" d="M403.49,378.52c0,.17-8.61.23-19.22.15s-19.22-.29-19.22-.46,8.61-.23,19.22-.14S403.5,378.36,403.49,378.52Z"/><path class="cls-5" d="M404.42,310.3c0,.16-8.69.22-19.4.14s-19.41-.29-19.41-.46,8.69-.22,19.41-.14S404.43,310.13,404.42,310.3Z"/><path class="cls-5" d="M404.13,347.05c0,.17-8.59.23-19.18.15s-19.17-.29-19.17-.45,8.59-.23,19.18-.15S404.13,346.89,404.13,347.05Z"/><path class="cls-5" d="M381.37,423.3a86.12,86.12,0,0,1-10,.22,86.56,86.56,0,0,1-10-.38c0-.17,4.48-.27,10-.22S381.37,423.13,381.37,423.3Z"/><path class="cls-5" d="M381.44,431.45a80.52,80.52,0,0,1-9.67.22c-5.34,0-9.67-.21-9.67-.38a80.52,80.52,0,0,1,9.67-.22C377.11,431.12,381.44,431.28,381.44,431.45Z"/><path class="cls-5" d="M381.78,438.42a84.94,84.94,0,0,1-9.93.22,85.64,85.64,0,0,1-9.94-.38c0-.17,4.45-.26,9.94-.22S381.78,438.25,381.78,438.42Z"/><path class="cls-5" d="M381.46,445.91a81.79,81.79,0,0,1-9.74.22c-5.38,0-9.74-.21-9.73-.38a81.55,81.55,0,0,1,9.73-.22C377.1,445.58,381.46,445.74,381.46,445.91Z"/><path class="cls-5" d="M381.4,452.75c0,.17-4.36.27-9.74.23a82.14,82.14,0,0,1-9.73-.38c0-.17,4.36-.26,9.74-.22A80.84,80.84,0,0,1,381.4,452.75Z"/><path class="cls-5" d="M381.35,459.6c0,.17-4.36.26-9.74.22s-9.74-.21-9.73-.38a81.55,81.55,0,0,1,9.73-.22A82.24,82.24,0,0,1,381.35,459.6Z"/><path class="cls-5" d="M406.28,423.5a86.24,86.24,0,0,1-10,.22,86.73,86.73,0,0,1-10-.38c0-.17,4.48-.27,10-.22S406.28,423.33,406.28,423.5Z"/><path class="cls-5" d="M406.34,431.65a80.52,80.52,0,0,1-9.67.22c-5.34,0-9.66-.21-9.66-.38a80.52,80.52,0,0,1,9.67-.22C402,431.32,406.35,431.48,406.34,431.65Z"/><path class="cls-5" d="M406.69,438.62a85.05,85.05,0,0,1-9.94.22,85.38,85.38,0,0,1-9.93-.38c0-.17,4.45-.26,9.94-.22S406.69,438.45,406.69,438.62Z"/><path class="cls-5" d="M406.36,446.11a81.67,81.67,0,0,1-9.74.22c-5.37,0-9.73-.21-9.73-.38a81.67,81.67,0,0,1,9.74-.22C402,445.78,406.36,445.94,406.36,446.11Z"/><path class="cls-5" d="M406.31,453c0,.17-4.36.27-9.74.22a80.84,80.84,0,0,1-9.73-.37c0-.17,4.36-.27,9.73-.22A81.09,81.09,0,0,1,406.31,453Z"/><path class="cls-5" d="M406.25,459.8a81.55,81.55,0,0,1-9.73.22c-5.38,0-9.74-.21-9.74-.38a81.67,81.67,0,0,1,9.74-.22A82,82,0,0,1,406.25,459.8Z"/><path class="cls-3" d="M387,248.3c.09.14-1,.94-2.42,1.79a7.73,7.73,0,0,1-2.73,1.28,7.91,7.91,0,0,1,2.43-1.79A7.81,7.81,0,0,1,387,248.3Z"/><path class="cls-3" d="M388.91,248.48c.13.17-.85.92-2.12,1.69a6.27,6.27,0,0,1-2.46,1.12c-.08-.14.89-.87,2.16-1.63A7.83,7.83,0,0,1,388.91,248.48Z"/><path class="cls-5" d="M365.66,251.07c.17,0,.14,35.89-.06,80.14s-.5,80.15-.67,80.15-.13-35.88.07-80.15S365.5,251.07,365.66,251.07Z"/><path class="cls-5" d="M403.23,411.26c-.16,0,.14-33.75.67-75.37s1.1-75.37,1.26-75.36-.13,33.74-.66,75.37S403.4,411.27,403.23,411.26Z"/><rect class="cls-8" x="412.25" y="415.35" width="22.93" height="6.18" transform="translate(3.37 -3.39) rotate(0.46)"/><path class="cls-5" d="M386.78,67.79c.16,0,.15,21.67,0,48.39s-.45,48.39-.61,48.39-.16-21.67,0-48.39S386.61,67.79,386.78,67.79Z"/><path class="cls-5" d="M388.27,158.77c0-.07.29-.24.69.06a1,1,0,0,1,.35.76.92.92,0,0,1-.69.81.88.88,0,0,1-1.15-1.12c.16-.46.53-.5.54-.43s-.13.23-.12.52.19.58.56.46a.42.42,0,0,0,.21-.7C388.5,158.89,388.28,158.86,388.27,158.77Z"/><path class="cls-5" d="M388.4,142.55c0-.07.29-.24.69.06a.94.94,0,0,1,.35.76,1,1,0,0,1-1.71.51.91.91,0,0,1-.13-.82c.16-.47.53-.51.54-.43s-.13.23-.12.51.19.58.56.47a.42.42,0,0,0,.21-.7C388.63,142.67,388.41,142.63,388.4,142.55Z"/><path class="cls-5" d="M388.53,126.32c0-.07.29-.24.69.06a.94.94,0,1,1-1.36,1.28.93.93,0,0,1-.13-.83c.16-.46.53-.5.54-.43s-.13.23-.12.52.19.58.56.46a.42.42,0,0,0,.21-.7C388.76,126.44,388.54,126.41,388.53,126.32Z"/><path class="cls-5" d="M388.66,110.1c0-.07.29-.24.69.06a1,1,0,0,1,.35.76.92.92,0,0,1-.69.81.88.88,0,0,1-1.15-1.12c.16-.47.53-.51.54-.43s-.13.23-.12.51.19.58.56.47a.42.42,0,0,0,.21-.7C388.89,110.22,388.67,110.18,388.66,110.1Z"/><path class="cls-5" d="M388.79,93.87c0-.06.29-.23.69.06a1,1,0,0,1,.35.76,1,1,0,0,1-.69.82,1,1,0,0,1-1-.3.91.91,0,0,1-.13-.82c.16-.47.53-.51.54-.44s-.13.23-.12.52.19.58.56.47a.43.43,0,0,0,.21-.71C389,94,388.8,94,388.79,93.87Z"/><path class="cls-5" d="M388.92,77.65c0-.07.29-.24.69.06a1,1,0,0,1,.35.76.92.92,0,0,1-.69.81.88.88,0,0,1-1.15-1.12c.16-.46.53-.51.54-.43s-.13.23-.12.51.19.59.56.47a.42.42,0,0,0,.21-.7C389.15,77.77,388.93,77.74,388.92,77.65Z"/><path class="cls-3" d="M371.33,95.31a11.77,11.77,0,0,1-.94,1.72c-.65,1.08-1.54,2.66-2.58,4.65s-2.18,4.4-3.33,7.12-2.25,5.81-3.23,9.08-1.67,6.46-2.21,9.38-.87,5.56-1.06,7.8-.32,4-.36,5.3a12.37,12.37,0,0,1-.14,1.95,12.71,12.71,0,0,1-.09-2c0-1.26,0-3.08.17-5.33a78.32,78.32,0,0,1,.94-7.86,88.19,88.19,0,0,1,2.18-9.45,90.36,90.36,0,0,1,3.29-9.12c1.19-2.73,2.37-5.15,3.47-7.11s2-3.53,2.75-4.57A11.92,11.92,0,0,1,371.33,95.31Z"/><path class="cls-3" d="M376.74,85.92c.14.08-.22,1-.81,2.06s-1.19,1.86-1.33,1.78.22-1,.81-2.07S376.59,85.84,376.74,85.92Z"/><path class="cls-3" d="M359.11,224.86c-.16,0-.19-12.74-.07-28.45s.37-28.45.53-28.45.2,12.74.07,28.45S359.28,224.86,359.11,224.86Z"/><path class="cls-3" d="M363.47,207a62.75,62.75,0,0,1-.23-8.61,63.3,63.3,0,0,1,.37-8.6c.17,0,.27,3.86.23,8.61S363.64,207,363.47,207Z"/><path class="cls-3" d="M368.44,201.05a16.52,16.52,0,0,1,.05-6.32,17.07,17.07,0,0,1-.05,6.32Z"/><path class="cls-3" d="M356,301.4c-.16,0-.18-15,0-33.54s.41-33.54.57-33.54.18,15,0,33.54S356.21,301.4,356,301.4Z"/><polygon class="cls-11" points="472.71 448.52 489.57 486.77 495.45 469.94 509.87 464.65 472.71 448.52"/><rect class="cls-11" x="504.9" y="477.67" width="21.18" height="21.18"/><path class="cls-5" d="M526.08,498.85a12.12,12.12,0,0,1-.09-1.6c0-1.11,0-2.56-.09-4.34,0-3.81-.11-9-.19-15.24l.37.37-21.18,0,.42-.42h0v5.69c0,1.87,0,3.7,0,5.48,0,3.55,0,6.9,0,10l-.36-.36,15.24.18,4.34.1a13.82,13.82,0,0,1,1.6.08,8.08,8.08,0,0,1-1.45.08l-4.26.1-15.47.19h-.37v-.37c0-3.09,0-6.44,0-10,0-1.78,0-3.61,0-5.48,0-.93,0-1.87,0-2.83v-2.86h0c-.37.38.52-.51.43-.42l21.18.06h.37v.36c-.07,6.31-.14,11.61-.18,15.47,0,1.75-.07,3.17-.1,4.26A11.23,11.23,0,0,1,526.08,498.85Z"/><path class="cls-3" d="M515.49,496.88c-.24,0-.43-3.86-.43-8.62s.19-8.62.43-8.62.42,3.86.42,8.62S515.72,496.88,515.49,496.88Z"/><path class="cls-3" d="M524.11,488.26c0,.23-3.86.42-8.62.42s-8.62-.19-8.62-.42,3.86-.42,8.62-.42S524.11,488,524.11,488.26Z"/><path class="cls-12" d="M468.84,445.14a.23.23,0,0,1-.17-.07L463,439.53a.24.24,0,0,1,.34-.34l5.63,5.53a.24.24,0,0,1,0,.35A.22.22,0,0,1,468.84,445.14Z"/><path class="cls-12" d="M469,439.32a.23.23,0,0,1-.07.17l-5.54,5.62a.24.24,0,0,1-.34,0,.25.25,0,0,1,0-.35l5.54-5.62a.25.25,0,0,1,.35,0A.24.24,0,0,1,469,439.32Z"/><g class="cls-13"><rect class="cls-3" x="792.07" y="52.27" width="127.36" height="127.36"/></g><path class="cls-14" d="M969.92,305.6c0-.11.55-.21,1.22-.21s1.21.1,1.21.21-.54.21-1.21.21S969.92,305.72,969.92,305.6Z"/><path class="cls-14" d="M965.08,305.6c0-.11.54-.21,1.21-.21s1.21.1,1.21.21-.54.21-1.21.21S965.08,305.72,965.08,305.6Z"/><path class="cls-14" d="M960.23,305.6c0-.11.54-.21,1.21-.21s1.21.1,1.21.21-.54.21-1.21.21S960.23,305.72,960.23,305.6Z"/><path class="cls-14" d="M955.38,305.6c0-.11.55-.21,1.22-.21s1.21.1,1.21.21-.54.21-1.21.21S955.38,305.72,955.38,305.6Z"/><path class="cls-14" d="M950.54,305.6c0-.11.54-.21,1.21-.21s1.21.1,1.21.21-.54.21-1.21.21S950.54,305.72,950.54,305.6Z"/><path class="cls-14" d="M945.69,305.6c0-.11.54-.21,1.21-.21s1.21.1,1.21.21-.54.21-1.21.21S945.69,305.72,945.69,305.6Z"/><path class="cls-14" d="M940.84,305.6c0-.11.55-.21,1.22-.21s1.21.1,1.21.21-.54.21-1.21.21S940.84,305.72,940.84,305.6Z"/><path class="cls-14" d="M936,305.6c0-.11.54-.21,1.21-.21s1.21.1,1.21.21-.54.21-1.21.21S936,305.72,936,305.6Z"/><path class="cls-14" d="M931.15,305.6c0-.11.54-.21,1.21-.21s1.22.1,1.22.21-.55.21-1.22.21S931.15,305.72,931.15,305.6Z"/><path class="cls-14" d="M926.31,305.6c0-.11.54-.21,1.21-.21s1.21.1,1.21.21-.54.21-1.21.21S926.31,305.72,926.31,305.6Z"/><path class="cls-14" d="M921.46,305.6c0-.11.54-.21,1.21-.21s1.21.1,1.21.21-.54.21-1.21.21S921.46,305.72,921.46,305.6Z"/><path class="cls-14" d="M916.61,305.6c0-.11.54-.21,1.21-.21s1.22.1,1.22.21-.55.21-1.22.21S916.61,305.72,916.61,305.6Z"/><path class="cls-14" d="M913.16,304.21c.11,0,.21.54.21,1.21v.18l-.21-.21c.58,0,1,.11,1,.21s-.45.2-1,.21H913v-.4C913,304.75,913,304.21,913.16,304.21Z"/><path class="cls-14" d="M913.16,299.36c.11,0,.21.55.21,1.21s-.1,1.22-.21,1.22-.21-.55-.21-1.22S913,299.36,913.16,299.36Z"/><path class="cls-14" d="M913.16,294.52c.11,0,.21.54.21,1.21s-.1,1.21-.21,1.21-.21-.54-.21-1.21S913,294.52,913.16,294.52Z"/><path class="cls-14" d="M913.16,289.67c.11,0,.21.54.21,1.21s-.1,1.21-.21,1.21-.21-.54-.21-1.21S913,289.67,913.16,289.67Z"/><path class="cls-14" d="M913.16,284.82c.11,0,.21.55.21,1.21s-.1,1.22-.21,1.22S913,286.7,913,286,913,284.82,913.16,284.82Z"/><path class="cls-14" d="M913.16,280c.11,0,.21.54.21,1.21s-.1,1.21-.21,1.21-.21-.54-.21-1.21S913,280,913.16,280Z"/><path class="cls-14" d="M913.16,275.13c.11,0,.21.54.21,1.21s-.1,1.21-.21,1.21-.21-.54-.21-1.21S913,275.13,913.16,275.13Z"/><path class="cls-14" d="M913.16,270.28c.11,0,.21.55.21,1.21s-.1,1.22-.21,1.22-.21-.55-.21-1.22S913,270.28,913.16,270.28Z"/><path class="cls-14" d="M913.16,265.44c.11,0,.21.54.21,1.21s-.1,1.21-.21,1.21-.21-.54-.21-1.21S913,265.44,913.16,265.44Z"/><path class="cls-14" d="M913.16,260.59c.11,0,.21.54.21,1.21s-.1,1.21-.21,1.21-.21-.54-.21-1.21S913,260.59,913.16,260.59Z"/><path class="cls-14" d="M913.16,255.74c.11,0,.21.55.21,1.22s-.1,1.21-.21,1.21-.21-.55-.21-1.21S913,255.74,913.16,255.74Z"/><path class="cls-14" d="M913.16,250.9c.11,0,.21.54.21,1.21s-.1,1.21-.21,1.21-.21-.54-.21-1.21S913,250.9,913.16,250.9Z"/><path class="cls-14" d="M913.52,246.41c0,.06-.14.12-.36.15l.15-.15a5,5,0,0,1,.06.85c0,.67-.1,1.21-.21,1.21s-.21-.54-.21-1.21a5,5,0,0,1,.06-.85l0-.17.12,0C913.38,246.3,913.52,246.35,913.52,246.41Z"/><path class="cls-14" d="M918.37,246.41c0,.12-.54.21-1.21.21s-1.22-.09-1.22-.21.55-.21,1.22-.21S918.37,246.3,918.37,246.41Z"/><path class="cls-14" d="M923.21,246.41c0,.12-.54.21-1.21.21s-1.21-.09-1.21-.21.54-.21,1.21-.21S923.21,246.3,923.21,246.41Z"/><path class="cls-14" d="M928.06,246.41c0,.12-.54.21-1.21.21s-1.21-.09-1.21-.21.54-.21,1.21-.21S928.06,246.3,928.06,246.41Z"/><path class="cls-14" d="M932.91,246.41c0,.12-.54.21-1.21.21s-1.22-.09-1.22-.21.55-.21,1.22-.21S932.91,246.3,932.91,246.41Z"/><path class="cls-14" d="M937.75,246.41c0,.12-.54.21-1.21.21s-1.21-.09-1.21-.21.54-.21,1.21-.21S937.75,246.3,937.75,246.41Z"/><path class="cls-14" d="M942.6,246.41c0,.12-.54.21-1.21.21s-1.21-.09-1.21-.21.54-.21,1.21-.21S942.6,246.3,942.6,246.41Z"/><path class="cls-14" d="M947.45,246.41c0,.12-.54.21-1.21.21s-1.22-.09-1.22-.21.55-.21,1.22-.21S947.45,246.3,947.45,246.41Z"/><path class="cls-14" d="M952.29,246.41c0,.12-.54.21-1.21.21s-1.21-.09-1.21-.21.54-.21,1.21-.21S952.29,246.3,952.29,246.41Z"/><path class="cls-14" d="M957.14,246.41c0,.12-.54.21-1.21.21s-1.21-.09-1.21-.21.54-.21,1.21-.21S957.14,246.3,957.14,246.41Z"/><path class="cls-14" d="M962,246.41c0,.12-.55.21-1.21.21s-1.22-.09-1.22-.21.55-.21,1.22-.21S962,246.3,962,246.41Z"/><path class="cls-14" d="M966.83,246.41c0,.12-.54.21-1.21.21s-1.21-.09-1.21-.21.54-.21,1.21-.21S966.83,246.3,966.83,246.41Z"/><path class="cls-14" d="M971.68,246.41c0,.12-.54.21-1.21.21s-1.21-.09-1.21-.21.54-.21,1.21-.21S971.68,246.3,971.68,246.41Z"/><path class="cls-14" d="M972.35,250.59c-.12,0-.21-.54-.21-1.21s.09-1.21.21-1.21.21.54.21,1.21S972.46,250.59,972.35,250.59Z"/><path class="cls-14" d="M972.35,255.44c-.12,0-.21-.54-.21-1.21s.09-1.21.21-1.21.21.54.21,1.21S972.46,255.44,972.35,255.44Z"/><path class="cls-14" d="M972.35,260.29c-.12,0-.21-.55-.21-1.22s.09-1.21.21-1.21.21.54.21,1.21S972.46,260.29,972.35,260.29Z"/><path class="cls-14" d="M972.35,265.13c-.12,0-.21-.54-.21-1.21s.09-1.21.21-1.21.21.54.21,1.21S972.46,265.13,972.35,265.13Z"/><path class="cls-14" d="M972.35,270c-.12,0-.21-.54-.21-1.21s.09-1.21.21-1.21.21.54.21,1.21S972.46,270,972.35,270Z"/><path class="cls-14" d="M972.35,274.83c-.12,0-.21-.55-.21-1.22s.09-1.21.21-1.21.21.54.21,1.21S972.46,274.83,972.35,274.83Z"/><path class="cls-14" d="M972.35,279.67c-.12,0-.21-.54-.21-1.21s.09-1.21.21-1.21.21.54.21,1.21S972.46,279.67,972.35,279.67Z"/><path class="cls-14" d="M972.35,284.52c-.12,0-.21-.54-.21-1.21s.09-1.21.21-1.21.21.54.21,1.21S972.46,284.52,972.35,284.52Z"/><path class="cls-14" d="M972.35,289.37c-.12,0-.21-.55-.21-1.22s.09-1.21.21-1.21.21.54.21,1.21S972.46,289.37,972.35,289.37Z"/><path class="cls-14" d="M972.35,294.21c-.12,0-.21-.54-.21-1.21s.09-1.21.21-1.21.21.54.21,1.21S972.46,294.21,972.35,294.21Z"/><path class="cls-14" d="M972.35,299.06c-.12,0-.21-.54-.21-1.21s.09-1.21.21-1.21.21.54.21,1.21S972.46,299.06,972.35,299.06Z"/><path class="cls-14" d="M972.35,303.91c-.12,0-.21-.55-.21-1.22s.09-1.21.21-1.21.21.54.21,1.21S972.46,303.91,972.35,303.91Z"/><rect class="cls-14" x="970.16" y="302.81" width="4.38" height="4.38"/><rect class="cls-14" x="910.97" y="303.41" width="4.38" height="4.38"/><rect class="cls-14" x="970.16" y="243.79" width="4.38" height="4.38"/><rect class="cls-14" x="910.97" y="244.22" width="4.38" height="4.38"/><rect class="cls-3" x="17.69" y="636.85" width="178.08" height="69.23"/><path class="cls-5" d="M195.77,706.08s0-.43,0-1.24,0-2,0-3.59c0-3.18,0-7.8-.08-13.76,0-11.94-.11-29.21-.19-50.64l.35.35-178.07.15h0l.49-.5c0,24.21,0,47.6,0,69.23l-.47-.47,127.55.22,37.1.13,9.95.06,2.58,0,.9,0-.84,0-2.53,0-9.85.06-37,.13-127.87.23h-.48v-.48c0-21.63,0-45,0-69.23v-.49h.51l178.07.15h.34v.34c-.08,21.52-.14,38.86-.19,50.85,0,5.92-.06,10.52-.08,13.68,0,1.53,0,2.7,0,3.53S195.77,706.08,195.77,706.08Z"/><rect class="cls-5" x="17.69" y="636.85" width="178.08" height="14.83"/><rect class="cls-5" x="38.85" y="663" width="17.49" height="17.49"/><rect class="cls-5" x="49.44" y="673.59" width="17.49" height="17.49"/><rect class="cls-5" x="80.53" y="663" width="17.49" height="17.49"/><rect class="cls-3" x="91.13" y="673.59" width="17.49" height="17.49"/><path class="cls-5" d="M108.61,691.08a8.9,8.9,0,0,1-.09-1.35c0-1-.07-2.17-.12-3.6-.08-3.07-.17-7.39-.21-12.54l.42.43-17.48.07c-.11.1.93-.94.49-.5h0v4.7c0,1.54,0,3.05,0,4.52,0,2.93,0,5.69,0,8.25l-.42-.43c5.15,0,9.46.14,12.54.22l3.6.11a9.54,9.54,0,0,1,1.34.1,5.29,5.29,0,0,1-1.16.1l-3.51.11c-3,.08-7.47.18-12.81.22H90.7v-.43c0-2.56,0-5.32,0-8.25,0-1.47,0-3,0-4.52,0-.77,0-1.55,0-2.34v-2.36h0c-.44.45.6-.6.5-.49l17.48.06h.44v.42c0,5.34-.14,9.77-.22,12.82,0,1.38-.08,2.54-.11,3.5A4.14,4.14,0,0,1,108.61,691.08Z"/><rect class="cls-3" x="119.43" y="663" width="17.49" height="17.49"/><path class="cls-5" d="M136.92,680.49a8,8,0,0,1-.1-1.35c0-1-.07-2.17-.11-3.6-.08-3.07-.18-7.39-.22-12.54l.43.43-17.49.07c-.11.1.94-.94.49-.5h0v4.7c0,1.54,0,3,0,4.52,0,2.92,0,5.69,0,8.25l-.43-.43c5.15,0,9.47.14,12.54.22l3.6.11a9.6,9.6,0,0,1,1.35.1,5.6,5.6,0,0,1-1.17.1l-3.51.11c-3,.08-7.47.17-12.81.22H119v-.43c0-2.56,0-5.33,0-8.25,0-1.47,0-3,0-4.52,0-.77,0-1.55,0-2.34V663h0l.5-.49,17.49.06h.43V663c0,5.34-.14,9.77-.22,12.81,0,1.39-.08,2.55-.11,3.51A5.6,5.6,0,0,1,136.92,680.49Z"/><rect class="cls-3" x="130.02" y="673.59" width="17.49" height="17.49"/><path class="cls-5" d="M147.51,691.08a9.6,9.6,0,0,1-.1-1.35c0-1-.07-2.17-.11-3.6-.08-3.07-.18-7.39-.22-12.54l.43.43-17.49.07.5-.5h0v4.7c0,1.54,0,3.05,0,4.52,0,2.93,0,5.69-.05,8.25l-.43-.43c5.15,0,9.47.14,12.54.22l3.6.11a9.6,9.6,0,0,1,1.35.1,5.47,5.47,0,0,1-1.17.1l-3.5.11c-3.05.08-7.48.18-12.82.22h-.43v-.43c0-2.56,0-5.32-.05-8.25,0-1.47,0-3,0-4.52v-4.7h0l.49-.49,17.49.06h.43v.42c0,5.34-.14,9.77-.22,12.82-.05,1.38-.08,2.54-.11,3.5A5.47,5.47,0,0,1,147.51,691.08Z"/><rect class="cls-5" x="130.02" y="673.59" width="6.9" height="6.9"/><rect class="cls-5" x="155.19" y="663" width="17.49" height="17.49"/><rect class="cls-5" x="165.78" y="673.59" width="17.49" height="17.49"/><rect class="cls-7" x="165.78" y="673.59" width="6.9" height="6.9"/><rect class="cls-3" x="471.55" y="39.87" width="209.77" height="81.55"/><path class="cls-4" d="M681.61,121.71H471.26V39.58H681.61Zm-209.77-.59H681v-81H471.84Z"/><rect class="cls-5" x="471.55" y="39.87" width="209.77" height="17.47"/><rect class="cls-3" x="483.37" y="79.15" width="20.73" height="20.73"/><path class="cls-5" d="M504.1,99.88a9.58,9.58,0,0,1-.12-1.6c0-1.18-.08-2.59-.14-4.27-.1-3.65-.21-8.76-.27-14.86l.53.53-20.72.08c-.14.13,1.14-1.15.6-.6h0v5.57c0,1.83,0,3.62,0,5.36,0,3.47,0,6.74-.06,9.78l-.53-.53c6.1.05,11.22.17,14.86.27l4.27.14a9.58,9.58,0,0,1,1.6.12,50.06,50.06,0,0,1-5.53.26c-3.61.09-8.86.21-15.2.26h-.52v-.53c0-3,0-6.31-.06-9.78,0-1.74,0-3.53,0-5.36V79.17h0c-.55.54.74-.75.61-.61l20.72.08h.53v.52c-.05,6.33-.17,11.59-.26,15.19A50.16,50.16,0,0,1,504.1,99.88Z"/><line class="cls-15" x1="504.1" y1="79.15" x2="483.37" y2="99.88"/><path class="cls-11" d="M483.37,99.88c-.23-.24,4.21-5.07,9.94-10.79s10.55-10.17,10.79-9.94-4.21,5.07-9.93,10.8S483.61,100.12,483.37,99.88Z"/><rect class="cls-5" x="510.34" y="79.15" width="20.73" height="20.73"/><rect class="cls-1" x="537.31" y="79.15" width="20.73" height="20.73"/><rect class="cls-11" x="564.28" y="79.15" width="20.73" height="20.73"/><rect class="cls-11" x="591.25" y="79.15" width="20.73" height="20.73"/><g class="cls-16"><rect class="cls-3" x="591.25" y="79.15" width="20.73" height="20.73"/></g><rect class="cls-17" x="618.21" y="79.15" width="20.73" height="20.73"/><g class="cls-9"><rect x="618.21" y="79.15" width="20.73" height="20.73"/></g><rect class="cls-8" x="645.18" y="79.15" width="20.73" height="20.73"/><path class="cls-18" d="M527.47,658.94H508.38s-43.1-15.57-52-14.08c-8,1.34-37.19,20.75-42.92,24.59a3.58,3.58,0,0,0-1.38,1.76h0a6.26,6.26,0,0,0,3.48,8l.61.25-.27.88a10.53,10.53,0,0,0-.44,3.48,4.21,4.21,0,0,0,7.83,1.82l-1.1,2a4.75,4.75,0,0,0-.61,2.61l.1,1.78a4.78,4.78,0,0,0,3.3,4.29h0a4.77,4.77,0,0,0,5-1.31c3.7-4.08,12.15-10,17.56-10.94,4.81-.8,12.4-3.11,17.25-3.09a6,6,0,0,1,5.56,3.83h0c-3.22.23-19.79,7.78-27.71,12a8.47,8.47,0,0,0-4.61,6.37c-.29,2.48,1,5.08,5.87,3.94,10.53-2.46,23.66-7,23.66-7s9.77-2.79,16.1,1.68c8.91,6.28,13,8.59,20.63,6a65.13,65.13,0,0,0,13.29-6.17L532.71,700S547,664.4,527.47,658.94Z"/><path class="cls-19" d="M523.4,692.43a6.74,6.74,0,0,1-1,.74,7.3,7.3,0,0,1-1.32.78,12.66,12.66,0,0,1-1.9.87,20.82,20.82,0,0,1-13.12.44,20.34,20.34,0,0,1-8.08-4.39L497,690l-.85-1a17.5,17.5,0,0,1-1.57-2.11c-1-1.5-1.67-3.17-2.71-4.63a6.62,6.62,0,0,0-4.3-3,20.76,20.76,0,0,0-5.78,0,34,34,0,0,1-12.44-1.23,35.87,35.87,0,0,1-10.7-5.11,35,35,0,0,1-4.35-3.62,2.7,2.7,0,0,1-.72-2.89,2.74,2.74,0,0,1,2.28-1.84h0l28-1.17,8-.26,2.14,0a2.73,2.73,0,0,1,.73,0,3.39,3.39,0,0,1-.73.09l-2.13.16-8,.49-28,1.46h0a2,2,0,0,0-1.64,1.34,1.93,1.93,0,0,0,.54,2.08,36.8,36.8,0,0,0,4.26,3.53,35.29,35.29,0,0,0,10.46,5,33.36,33.36,0,0,0,12.15,1.22,21.53,21.53,0,0,1,6,0,7.14,7.14,0,0,1,2.77,1.19,8.88,8.88,0,0,1,2,2.11c1.09,1.56,1.78,3.24,2.7,4.69a17.23,17.23,0,0,0,1.49,2l.81.94.89.83a20,20,0,0,0,7.79,4.33,20.92,20.92,0,0,0,12.85-.18A30.48,30.48,0,0,0,523.4,692.43Z"/><path class="cls-18" d="M656.66,288.43A70.74,70.74,0,0,1,721.77,218l3.65-.29c39.56-.84,62.37,32.28,62.12,71.85L792.3,421.1,788.21,438,735,482l-26.75-23.69-7.68-38.76s-31-1.24-34.52-39C664.33,362.23,656.63,322.72,656.66,288.43Z"/><path class="cls-18" d="M700.53,419.53s-31-3.82-34.52-41.63c-1.68-18.25-6.46-27.12-9.35-89.47"/><path class="cls-19" d="M700.21,419.5S724.49,419,748.63,401c0,0-9.48,28.16-47.52,27.77Z"/><path class="cls-5" d="M670.42,322.6a5.42,5.42,0,0,0,5.65,5,5.2,5.2,0,0,0,5.18-5.32,5.43,5.43,0,0,0-5.64-5A5.19,5.19,0,0,0,670.42,322.6Z"/><path class="cls-5" d="M666,308.25c.73.66,4.58-2.7,10.4-3.15s10.31,2.12,10.88,1.36c.28-.34-.5-1.56-2.47-2.76a14.75,14.75,0,0,0-8.78-2,14.24,14.24,0,0,0-8.2,3.39C666.15,306.64,665.64,308,666,308.25Z"/><path class="cls-5" d="M720.46,321.12a5.41,5.41,0,0,0,5.64,5,5.18,5.18,0,0,0,5.19-5.31,5.43,5.43,0,0,0-5.65-5A5.18,5.18,0,0,0,720.46,321.12Z"/><path class="cls-5" d="M721.57,303c.73.65,4.58-2.71,10.4-3.16s10.31,2.12,10.88,1.36c.28-.34-.49-1.56-2.47-2.76a14.9,14.9,0,0,0-8.78-2,14.3,14.3,0,0,0-8.2,3.39C721.72,301.39,721.22,302.72,721.57,303Z"/><path class="cls-5" d="M705.85,347.63c0-.33-3.66-.67-9.58-.95-1.49,0-2.92-.22-3.25-1.21s.05-2.69.64-4.48l3.49-11.66c4.81-16.58,8.17-30.17,7.5-30.36s-5.12,13.1-9.93,29.69l-3.3,11.71c-.43,1.73-1.24,3.72-.31,5.89a3.74,3.74,0,0,0,2.62,2,9.61,9.61,0,0,0,2.55.15C702.2,348.23,705.86,348,705.85,347.63Z"/><path class="cls-5" d="M720.17,286.4c.81,1.46,5.71-.3,11.81-.68,6.08-.53,11.26.47,11.76-1.08.22-.74-.91-2-3.15-3.15a18.16,18.16,0,0,0-9.21-1.66,17.53,17.53,0,0,0-8.74,3C720.66,284.26,719.81,285.71,720.17,286.4Z"/><path class="cls-5" d="M666.05,292.2c1,1.33,5,0,9.87-.09,4.83-.22,8.93.91,9.87-.47.42-.67-.22-2-2-3.26a14.32,14.32,0,0,0-15.91.45C666.16,290.19,665.6,291.55,666.05,292.2Z"/><path class="cls-18" d="M780.52,320.4a10.31,10.31,0,0,1,10.3-10.79c7.11.11,15.29,3.49,16,18.11,1.24,25.94-25,21.83-25.13,21.09C781.61,348.31,780.94,331.26,780.52,320.4Z"/><path class="cls-19" d="M786.84,338.78c.11-.08.47.3,1.25.61a4.5,4.5,0,0,0,3.38-.09c2.69-1.14,4.79-5.6,4.7-10.28a15,15,0,0,0-1.58-6.41c-.88-1.86-2.17-3.12-3.56-3.3a2.31,2.31,0,0,0-2.61,1.36c-.31.75-.12,1.26-.26,1.31s-.58-.41-.42-1.49a2.92,2.92,0,0,1,.94-1.68,3.5,3.5,0,0,1,2.47-.78c2,.05,3.9,1.8,4.91,3.8A15.41,15.41,0,0,1,798,329c.08,5.24-2.36,10.26-6.06,11.52a4.85,4.85,0,0,1-4.17-.49C786.92,339.41,786.76,338.83,786.84,338.78Z"/><path class="cls-11" d="M886.05,575.75c-1.42,0-4.4-121.5-4.4-121.5l-83-29.62L735,482l-32.48-51.14L673.92,444c-3.61,1.66-19.43,8-22.59,10.4-9.06,6.92-28,23.48-33.34,43.67-8.16,30.83-21,133.35-21,133.35l-77.93,27.54,1.7,50.14L597.05,721c18.41-.66,40.68-8.43,47.86-21.21v26.79H879.22S887.46,575.75,886.05,575.75Z"/><path class="cls-5" d="M647.73,529.55a3.28,3.28,0,0,1,0,.51v1.47c0,1.36,0,3.26-.06,5.68-.09,4.93-.31,12.06-.69,20.87s-1,19.29-1.36,30.93-.59,24.45-.66,37.9c-.14,26.9-.07,51.26-.06,68.89v20.87c0,2.43,0,4.33,0,5.68,0,.61,0,1.1,0,1.48a1.77,1.77,0,0,1,0,.5,2.42,2.42,0,0,1,0-.5c0-.38,0-.87,0-1.48,0-1.35-.07-3.25-.12-5.67-.06-5-.15-12.11-.26-20.88-.15-17.63-.32-42-.18-68.9.07-13.44.24-26.26.72-37.91s1.09-22.13,1.54-30.94.76-15.92,1-20.85c.09-2.42.17-4.32.22-5.67,0-.61,0-1.1.07-1.47A1.69,1.69,0,0,1,647.73,529.55Z"/><g class="cls-9"><path d="M647.73,541.08c-13.3,50.11-16.82,104.4-3.47,154.49C644.52,639.8,644.19,587.58,647.73,541.08Z"/></g><g class="cls-9"><path d="M842.86,546.29q7.29,46.92,14.57,93.84a6.3,6.3,0,0,0,1,3c1.55,2,4.62,1.46,7,.76,5.87-1.7,15.11-2.33,18.28-7.56l.77-13.36c-.85-4-4.78-7.94-6.61-11.64l-34.14-69"/></g><path class="cls-11" d="M881,454s27.1,15.25,37.14,36.71c12.25,26.18,66.48,120.51,68.48,144s1.18,50.42-39,58.45-82,7.47-82,7.47L849.26,652l46-23.78-11.47-10.07a26.86,26.86,0,0,1-6.12-7.81l-34.62-66.66"/><path class="cls-5" d="M843.07,543.64s.3.52.86,1.56,1.38,2.59,2.44,4.61c2.14,4.07,5.28,10.05,9.3,17.73s8.94,17.11,14.63,28l4.42,8.46,2.31,4.43a38.51,38.51,0,0,0,2.53,4.45,27.06,27.06,0,0,0,3.36,4c1.27,1.22,2.69,2.38,4.06,3.6q4.14,3.64,8.5,7.45l.34.3-.4.21-46,23.82.18-.44c5.11,15.19,10.63,31.61,16.4,48.75l-.37-.27c13.31,0,27.22-.61,41.48-1.86,7.13-.62,14.35-1.42,21.62-2.46s14.64-2.18,21.92-3.9l3.61-.88c1.19-.34,2.35-.79,3.52-1.17s2.35-.75,3.47-1.25l3.34-1.54c.55-.27,1.11-.51,1.65-.79l1.56-1c1-.65,2.09-1.26,3.09-1.93a41.28,41.28,0,0,0,5.42-4.78,33.33,33.33,0,0,0,7.46-12.09,51.94,51.94,0,0,0,2.85-13.79,109.69,109.69,0,0,0-.06-13.93,65.68,65.68,0,0,0-.7-6.81,63.81,63.81,0,0,0-1.75-6.55c-1.36-4.3-3-8.47-4.69-12.55s-3.47-8.09-5.26-12c-7.22-15.71-14.71-30.35-21.78-44s-13.82-26.31-19.93-37.88l-8.66-16.55c-1.34-2.62-2.64-5.17-3.87-7.67l-1.78-3.69c-.59-1.21-1.22-2.36-1.82-3.51a70,70,0,0,0-8.4-11.71,106,106,0,0,0-8.63-8.55A130.79,130.79,0,0,0,886,457.21c-1.6-1.07-2.84-1.86-3.67-2.38L881,454s.46.23,1.31.73,2.11,1.26,3.72,2.32a123.73,123.73,0,0,1,13.45,10.16,107.32,107.32,0,0,1,8.72,8.53,70,70,0,0,1,8.5,11.75c.61,1.15,1.25,2.32,1.85,3.52s1.18,2.44,1.79,3.68c1.23,2.49,2.54,5,3.9,7.65q4.11,7.83,8.7,16.52c6.14,11.55,12.91,24.19,20,37.84s14.61,28.29,21.87,44c1.79,3.94,3.59,7.94,5.28,12s3.34,8.28,4.72,12.62a63.37,63.37,0,0,1,1.78,6.63,64.48,64.48,0,0,1,.72,6.91,111.38,111.38,0,0,1,.07,14,52.72,52.72,0,0,1-2.89,14,34.1,34.1,0,0,1-7.63,12.36,40.38,40.38,0,0,1-5.54,4.89c-1,.69-2.09,1.31-3.14,2l-1.59,1c-.55.28-1.12.53-1.68.8l-3.39,1.57c-1.14.5-2.34.83-3.52,1.26s-2.35.85-3.55,1.18l-3.65.89c-7.34,1.74-14.7,2.88-22,3.92s-14.53,1.83-21.67,2.45c-14.29,1.25-28.2,1.88-41.56,1.84h-.27l-.09-.26c-5.75-17.15-11.25-33.58-16.34-48.77l-.1-.29.27-.14,46-23.73-.06.51-8.48-7.48c-1.37-1.23-2.76-2.37-4.07-3.63a27.13,27.13,0,0,1-3.42-4.11,38.35,38.35,0,0,1-2.55-4.51q-1.17-2.25-2.3-4.44l-4.38-8.47-14.5-28.08c-4-7.72-7-13.72-9.16-17.81l-2.36-4.65C843.32,544.19,843.07,543.64,843.07,543.64Z"/><path class="cls-5" d="M868.68,452.38a26,26,0,0,1-2.51,1.62,66.55,66.55,0,0,0-6.58,4.75,61.58,61.58,0,0,0-22.82,46.48,65.2,65.2,0,0,0,.27,8.11,25.43,25.43,0,0,1,.25,3,3,3,0,0,1-.19-.76c-.09-.49-.26-1.23-.38-2.18a54.73,54.73,0,0,1-.53-8.16,59.95,59.95,0,0,1,23-46.92,54,54,0,0,1,6.78-4.57c.83-.49,1.51-.81,2-1A2.89,2.89,0,0,1,868.68,452.38Z"/><path class="cls-5" d="M944.15,608.47a9.43,9.43,0,0,1-2,.58l-5.51,1.38a159.65,159.65,0,0,0-17.8,5.74,134.27,134.27,0,0,0-16.85,8.1c-2.07,1.19-3.74,2.19-4.88,2.9a9,9,0,0,1-1.83,1,10.84,10.84,0,0,1,1.66-1.28c1.08-.79,2.71-1.87,4.76-3.13a111.46,111.46,0,0,1,16.84-8.36,128.13,128.13,0,0,1,18-5.54c2.34-.53,4.25-.92,5.58-1.13A11.51,11.51,0,0,1,944.15,608.47Z"/><g class="cls-9"><path d="M796.35,427.5c-2.47.31-4.6,1.8-6.6,3.27a319.31,319.31,0,0,0-51.89,47.84l-2.64,4.88c5.84-3.87,12.53-7.91,19.38-6.48,5.87,1.23,10.13,6.15,13.93,10.78a486.55,486.55,0,0,0,38.37-55.87C803.8,429.53,800.24,427,796.35,427.5Z"/></g><polygon class="cls-11" points="734.96 481.98 758.37 452.38 793.57 410.36 812.26 427.9 779.49 478.67 756.21 464.66 734.96 481.98"/><g class="cls-9"><path d="M692.74,443.71c3.11,16.66,10.84,30.55,14,47.22,3.72-4.86,2.83-6.94,6.55-11.8,1.49-1.93,3.09-4,5.43-4.86,4-1.53,8.42.78,12.06,3A136.68,136.68,0,0,0,712,460.13l-.29,1.34q-9.39-11.69-19.29-23"/></g><polygon class="cls-11" points="734.61 481.81 701.72 425.78 701.72 425.78 689.97 436.6 701.1 486.74 716.87 466.41 734.61 481.81"/><path class="cls-5" d="M733.29,479.56s-.22-.31-.59-.92L731,475.88c-1.47-2.46-3.6-6.05-6.34-10.66-5.5-9.29-13.42-22.71-23.22-39.29l.45.07-11.84,10.38.1-.31,11.29,50.58-.67-.15,15.76-20.33.25-.33.32.27,17.74,15.39-.34-.09,1.9-.37-.19.09c5.7-5.06,12-10.06,18.14-15.4l1.56-1.37.21-.19.25.13c8.19,4.36,15.53,9.78,23.28,14l-.53.14L812,427.71l.06.46L793.34,410.6l.49,0-41.35,50.25-11.55,13.95q-2,2.39-3,3.65c-.7.83-1.07,1.23-1.07,1.23s.32-.45,1-1.29l3-3.71c2.64-3.27,6.49-8,11.4-14.07l41.13-50.44.23-.28.26.25,18.71,17.53.23.21-.17.25-32.74,50.79-.2.31-.33-.18c-7.83-4.27-15.17-9.68-23.28-14l.46,0-1.57,1.37c-6.16,5.36-12.46,10.36-18.13,15.4l-.08.07-.11,0-1.91.36-.19,0-.15-.13-17.73-15.4.57,0L701.4,487l-.5.64-.17-.79c-4.06-18.38-7.82-35.42-11.18-50.61l0-.19.14-.12,11.88-10.34.27-.24.18.31c9.7,16.64,17.55,30.1,23,39.43l6.21,10.73c.69,1.22,1.23,2.15,1.6,2.8S733.29,479.56,733.29,479.56Z"/><path class="cls-5" d="M645.56,467.47c.23,0,.08,10.21-.33,22.78S644.31,513,644.09,513s-.08-10.21.33-22.78S645.34,467.46,645.56,467.47Z"/><path class="cls-18" d="M784.73,657.86A15.94,15.94,0,0,0,779,660c-4.21,2.83-5.14,8.52-5.7,13.55-.18,1.58-.22,3.49,1.08,4.4,1.09.76,2.59.41,3.86,0a120.5,120.5,0,0,0,24.68-11c4.15-2.43,8.44-5.48,9.84-10.08l.27-2C804.19,654.47,793.39,656,784.73,657.86Z"/><path class="cls-5" d="M821.84,617c-15.36,18.47-72.5,86.71-72.5,86.71l-2.16,9.79a.77.77,0,0,0,1,.89l9.19-3.63,73.81-85.81a6.15,6.15,0,0,0-.91-8.88h0A6.13,6.13,0,0,0,821.84,617Z"/><polygon class="cls-1" points="816.34 623.59 825.66 631.4 828.26 628.39 818.9 620.52 816.34 623.59"/><path class="cls-1" d="M805.19,648.74a3.27,3.27,0,0,1-2.13-.78l-.07-.06a3.3,3.3,0,0,1-.31-4.58l10.71-12.61a3.29,3.29,0,0,1,4.64-.38,3.3,3.3,0,0,1,.38,4.65l-10.71,12.6a3.26,3.26,0,0,1-2.24,1.15Zm-1.81-1a2.89,2.89,0,0,0,4-.38l10.71-12.61a2.9,2.9,0,0,0-2.45-4.77,2.86,2.86,0,0,0-2,1L803,643.57a2.91,2.91,0,0,0-.68,2.12,2.86,2.86,0,0,0,1,2Z"/><path class="cls-1" d="M812.91,641.19c-.15.16-1.29-.64-2.53-1.79s-2.13-2.23-2-2.39,1.29.63,2.53,1.79S813.06,641,812.91,641.19Z"/><path class="cls-18" d="M849.83,654.82l-14.4,5s-13.23-3.32-18.74-4.6a14.43,14.43,0,0,0-11.16,1.94c-6.78,4.4-18.44,12-22.61,14.74s-14.83,11.6-14.83,11.6-7.74,8.85-5.21,14,9.53,4.35,9.53,4.35a10.55,10.55,0,0,0,8.37,7.89s-1.76,2.77,4.86,4.52,22,0,22,0,28.2,1.16,30.92-.2,14.58-13.47,14.58-13.47l10.07-6Z"/><path class="cls-19" d="M794.06,664.61a35.12,35.12,0,0,1-4.3,3.14c-2.71,1.86-6.51,4.36-10.55,7.31a101.82,101.82,0,0,0-9.9,8.09c-2.39,2.24-3.77,3.74-3.87,3.66a5,5,0,0,1,.84-1.17c.58-.72,1.47-1.72,2.62-2.9a76.62,76.62,0,0,1,9.83-8.34c4.07-3,7.92-5.39,10.71-7.13A34.1,34.1,0,0,1,794.06,664.61Z"/><path class="cls-19" d="M807.23,677.77a6.15,6.15,0,0,1-1.43.89l-4,2.17c-3.38,1.84-8,4.4-12.94,7.61A97.25,97.25,0,0,0,777,697.59c-2.84,2.59-4.46,4.34-4.56,4.25a6.63,6.63,0,0,1,1-1.34c.7-.83,1.77-2,3.15-3.33a78.35,78.35,0,0,1,11.82-9.41,124,124,0,0,1,13.13-7.44c1.73-.85,3.14-1.52,4.13-2A7.12,7.12,0,0,1,807.23,677.77Z"/><path class="cls-19" d="M821.53,688.12a7.64,7.64,0,0,1-1.31,1.26c-.88.77-2.2,1.82-3.89,3-3.37,2.47-8.3,5.46-13.76,8.68a73,73,0,0,1-14.93,6.5c-2,.64-3.6,1.11-4.73,1.42a8,8,0,0,1-1.76.4,7.33,7.33,0,0,1,1.67-.7l4.63-1.67a86.49,86.49,0,0,0,14.71-6.65c5.46-3.23,10.41-6.12,13.84-8.45,1.72-1.16,3.09-2.13,4-2.82A8.72,8.72,0,0,1,821.53,688.12Z"/><path class="cls-19" d="M827.64,700.71a11.73,11.73,0,0,1-2.4,2.48,54.52,54.52,0,0,1-14,8.92,11.83,11.83,0,0,1-3.27,1.12c-.09-.23,4.76-2.25,10.2-5.73S827.48,700.53,827.64,700.71Z"/><path class="cls-5" d="M907.32,727.37H694.57a13.69,13.69,0,0,1,13.69-13.69H893.62a13.69,13.69,0,0,1,13.7,13.69Z"/><path class="cls-7" d="M650.17,715.67l-98.39-.47L518.43,557.27a14,14,0,0,0-13.75-11.2H299.05a14.05,14.05,0,0,0-13.72,17L319.2,718.45a11.34,11.34,0,0,0,11.08,8.92H664.46C664.46,719.38,658.16,715.67,650.17,715.67Z"/><path class="cls-5" d="M545.31,727.37c-.22,0-9.49-40.5-20.71-90.55s-20.14-90.7-19.92-90.75,9.49,40.49,20.71,90.57S545.53,727.32,545.31,727.37Z"/><path class="cls-3" d="M423.75,634.4c4.87,6.57,4.11,15.39-1.71,19.71s-14.49,2.51-19.37-4.05-4.11-15.39,1.71-19.71S418.87,627.84,423.75,634.4Z"/><rect class="cls-5" x="590.27" y="717.8" width="14.25" height="6.53" rx="2.69"/><path class="cls-1" d="M904.78,720.47c0,.23-46.68.41-104.26.41s-104.28-.18-104.28-.41,46.68-.4,104.28-.4S904.78,720.25,904.78,720.47Z"/><path class="cls-2" d="M783.18,332.68Z"/><path class="cls-2" d="M783.18,332.16v0Z"/><path class="cls-2" d="M783.5,332.68v0Z"/><path class="cls-2" d="M656.87,274.86c2-11.15,23.4-32.69,43.82-15.89,18.95-9.6,33.32-11,49.17-1.72,13.55,8.06,10.45,21.94,22.54,31.54,12.41,9.95,6,27.26,6,27.26s21.4-66.68-11.92-87.08c-9-5.83-18.3-11.83-30.71-13.72-16.33-2.4-29.24,1.2-42.14,6.35C680.11,227.25,660.14,236.46,656.87,274.86Z"/><path class="cls-20" d="M656.87,274.86a19.43,19.43,0,0,1,2.6-6.38,33.39,33.39,0,0,1,4.17-5.51,34,34,0,0,1,11.15-8.08,23.34,23.34,0,0,1,20.16.21,32.2,32.2,0,0,1,5.82,3.77l-.14,0a86.9,86.9,0,0,1,14-5.78,47.77,47.77,0,0,1,14.93-2.21,41,41,0,0,1,14.7,3.35,48.66,48.66,0,0,1,6.69,3.55,23,23,0,0,1,5.62,5.07,31,31,0,0,1,3.93,6.48c1.09,2.28,2,4.63,3,6.91a43.77,43.77,0,0,0,3.58,6.6,27.88,27.88,0,0,0,5.07,5.5,20.77,20.77,0,0,1,7.67,12.78,31.44,31.44,0,0,1-1.19,15l-.42-.15c1.44-4.77,2.62-9.63,3.61-14.52s1.79-9.82,2.32-14.78c1.05-9.9,1.25-20-.61-29.79a51.8,51.8,0,0,0-4.71-14.1,35,35,0,0,0-9.32-11.48c-1-.74-2-1.42-3-2.13l-3.15-2c-2.1-1.34-4.22-2.66-6.39-3.9a67,67,0,0,0-13.62-6.08,57.72,57.72,0,0,0-14.71-2.42,68.15,68.15,0,0,0-14.89,1,91.21,91.21,0,0,0-14.42,3.92,113.63,113.63,0,0,0-13.78,5.84,51.89,51.89,0,0,0-12.13,8.64,46.48,46.48,0,0,0-8.87,12c-.62,1.08-1.06,2.26-1.6,3.38l-.77,1.71-.63,1.76c-.4,1.18-.86,2.35-1.23,3.54l-1,3.62c-.16.6-.33,1.2-.48,1.81l-.35,1.84-.69,3.68C657.42,269.88,657.18,272.37,656.87,274.86Zm0,0c.31-2.47.53-5,.89-7.44l.68-3.69.34-1.84c.14-.61.31-1.21.47-1.82l1-3.63c.37-1.19.81-2.36,1.21-3.54l.62-1.77.77-1.72c.53-1.13,1-2.31,1.58-3.39A46.63,46.63,0,0,1,673.23,234a51.11,51.11,0,0,1,12.16-8.72,113.91,113.91,0,0,1,13.8-5.88,91.6,91.6,0,0,1,14.47-4,67.54,67.54,0,0,1,15-1,57.51,57.51,0,0,1,14.79,2.41,66.71,66.71,0,0,1,13.71,6.09c2.17,1.24,4.3,2.55,6.41,3.9l3.15,2c1,.72,2.08,1.4,3.09,2.15a35.38,35.38,0,0,1,9.45,11.6A52.23,52.23,0,0,1,784,256.8c1.88,9.87,1.71,20,.65,29.94-.54,5-1.35,9.92-2.35,14.82s-2.18,9.76-3.65,14.56l-.42-.15a30.82,30.82,0,0,0,1.19-14.79,20.34,20.34,0,0,0-7.51-12.55,28.65,28.65,0,0,1-5.13-5.59,44.63,44.63,0,0,1-3.61-6.66c-2-4.59-3.72-9.42-6.9-13.33s-7.62-6.49-12.17-8.54a40.59,40.59,0,0,0-14.58-3.35,47.35,47.35,0,0,0-14.84,2.18,85.77,85.77,0,0,0-13.93,5.74l-.07,0-.07-.06a33.15,33.15,0,0,0-5.76-3.76,24.11,24.11,0,0,0-6.53-2.11A23.85,23.85,0,0,0,674.84,255,35,35,0,0,0,659.5,268.5,19.39,19.39,0,0,0,656.87,274.86Z"/><path class="cls-2" d="M783.18,332.33Z"/><path class="cls-2" d="M775.15,236.48c5.71,5,9.66-.31,11.13-4.77,2-6.17,1.63-13.54-2.94-18.51s-12.09-7.37-18.13-4.63c-6.21,2.74-10.92,8.65-8.14,15"/><path class="cls-20" d="M775.15,236.48a7.37,7.37,0,0,0,4.08,1.91,5.17,5.17,0,0,0,4-1.71,15.31,15.31,0,0,0,3.6-8.22,20.53,20.53,0,0,0-.35-9,15.48,15.48,0,0,0-1.84-4.13,16.14,16.14,0,0,0-3-3.38,17.81,17.81,0,0,0-8.06-4,13.78,13.78,0,0,0-8.85,1.07,16.14,16.14,0,0,0-6.88,5.81,9.57,9.57,0,0,0-1.51,4.27,9.08,9.08,0,0,0,.72,4.48,9.24,9.24,0,0,1-.85-4.49,10,10,0,0,1,1.43-4.39,16.57,16.57,0,0,1,6.92-6,14,14,0,0,1,9.11-1.16,18.35,18.35,0,0,1,8.3,4,15.39,15.39,0,0,1,5,7.76,21,21,0,0,1,.32,9.23,15.47,15.47,0,0,1-3.83,8.34,5.25,5.25,0,0,1-4.23,1.67A7.5,7.5,0,0,1,775.15,236.48Z"/><path class="cls-20" d="M785.46,224a14.67,14.67,0,0,1-6.69,4.45,20.09,20.09,0,0,1-4.41.52,11.24,11.24,0,0,1-3.6-.52c-1.79-.51-3.1-1.2-3.1-1a4.62,4.62,0,0,0,.65.51,10.31,10.31,0,0,0,2.29,1,13.91,13.91,0,0,0,8.17.17,15.08,15.08,0,0,0,6.69-4.8,6.69,6.69,0,0,0,1-2.4,1.21,1.21,0,0,0,0-.86A6,6,0,0,1,785.46,224Z"/><path class="cls-20" d="M781.38,216.28a17.5,17.5,0,0,1-5.39,5.83,14.88,14.88,0,0,1-7.35,2.74c-2,.35-3.27,0-3.27.18a4.34,4.34,0,0,1,.82.17,10.39,10.39,0,0,0,2.45.17,15.09,15.09,0,0,0,7.68-2.57,14.88,14.88,0,0,0,5.55-6.17,12.75,12.75,0,0,0,1-2.4,3.24,3.24,0,0,0,.16-.86A9.39,9.39,0,0,1,781.38,216.28Z"/><path class="cls-11" d="M775.5,236.51a36.39,36.39,0,0,0-6.53-7,31,31,0,0,0-8-5.14,22.46,22.46,0,0,0-3.75-1.37c0,.17,1.3.86,3.59,1.88a87.92,87.92,0,0,1,7.84,5.32,37.52,37.52,0,0,1,6.7,6.68,17.3,17.3,0,0,0,2.28,3.26A16.21,16.21,0,0,0,775.5,236.51Z"/><path class="cls-20" d="M707.88,233.25a60.53,60.53,0,0,1,12.74-9.94,37.62,37.62,0,0,1,15.19-4.8,32.12,32.12,0,0,1,15.52,2.23A35.92,35.92,0,0,0,735.81,219,41.26,41.26,0,0,0,721,224a57.78,57.78,0,0,0-12.58,9.6c-1.8,1.71-3.59,3.77-5.39,5.82a60.66,60.66,0,0,0-4.9,6.52A65.7,65.7,0,0,1,707.88,233.25Z"/><path class="cls-20" d="M730.75,228.8a40.74,40.74,0,0,1,12.08-3.43,31.3,31.3,0,0,1,12.58,1.2,19.52,19.52,0,0,1,5.72,2.74,22.73,22.73,0,0,1,4.9,4.12,27.91,27.91,0,0,0-10.78-6.35,35.54,35.54,0,0,0-6-1,36.72,36.72,0,0,0-6.2.18,41.93,41.93,0,0,0-12.09,3.08,35,35,0,0,0-5.72,2.57,36,36,0,0,0-5.55,3.09A47.5,47.5,0,0,1,730.75,228.8Z"/><path class="cls-20" d="M693.83,238.05a16.81,16.81,0,0,1,2.29-7.54,28.33,28.33,0,0,1,5.06-5.83,37.44,37.44,0,0,1,3.1-2.23,21.39,21.39,0,0,1,3.27-1.88,35.24,35.24,0,0,1-3.1,2.23c-1,.85-2,1.54-2.94,2.4a26.7,26.7,0,0,0-4.74,5.83,20.57,20.57,0,0,0-2,14.91A15.69,15.69,0,0,1,693.83,238.05Z"/><path class="cls-20" d="M711.15,243a16.16,16.16,0,0,1,9.31-2.05,15.79,15.79,0,0,1,8.82,3.77,53.37,53.37,0,0,1,6.69,7c4.41,4.8,9.64,8.91,15.68,10.28a18.94,18.94,0,0,0,9.31-.17,50.47,50.47,0,0,0,8.82-3.6,39.52,39.52,0,0,1-8.65,3.94,19.78,19.78,0,0,1-9.48.35,20.59,20.59,0,0,1-8.82-3.78,37.72,37.72,0,0,1-7.35-6.34c-2.28-2.4-4.24-5-6.69-6.85a17,17,0,0,0-8.33-3.78,15,15,0,0,0-9,1.72,25.08,25.08,0,0,0-7.51,5.83A36.64,36.64,0,0,1,711.15,243Z"/><path class="cls-20" d="M751.82,237a18.15,18.15,0,0,1,5.39,3.78,19.56,19.56,0,0,1,3.75,5.48,11.93,11.93,0,0,0,1.15,2.57c.16-.17,0-1.2-.66-2.91a15.92,15.92,0,0,0-3.75-5.83,16.1,16.1,0,0,0-5.72-3.77,7.88,7.88,0,0,0-2.78-.69C749.2,235.82,750.35,236,751.82,237Z"/><path class="cls-20" d="M685.17,239.42c-.65-2.74-1-5-1.14-5s-.33,2.4.49,5.15,2.12,4.8,2.29,4.62S686,242,685.17,239.42Z"/><path class="cls-18" d="M778.28,318.45s10.78-29.31,6.53-55.54c0,0-4.74,21.25-26.62,15.08.81,4.63-1.31,14.06,3.1,17.66A57.16,57.16,0,0,1,778.28,318.45Z"/><path class="cls-2" d="M663.78,361.64c.32-4.88,6.14-7.31,10.93-6.63,4.63.7,10.79,1.48,15.43.16,13.31-3.88,20.65-8.26,33.27-9.7,5.78-.71,11.16-.12,17.1.23s13-2.12,14.19-8.07c.64-2.74-.28-5.88,0-8.73s2.72-6,5.41-5.18,2.93,4.39,2.9,7.2c-.29,9.08-.6,18-2.29,26.83s-2,16.67-3.71,25.49c-5.13,26-23.11,40-45.37,43.63-3.25.49-19.6-.78-22.13,1.47s-6.25,3.59-9.21,2a12.29,12.29,0,0,0,3-8.09c-5.89,4-14.09.73-18.7-4.81A28,28,0,0,1,658.54,395c1-6.23,4.21-12.17,3-18.37-.61-3-2.23-5.74-2.52-8.66-.31-3.07,1.82-7,4.67-7.09"/><path class="cls-20" d="M659.33,364.18a7,7,0,0,0-.77,4.95c.68,3.48,2.64,6.46,2.73,10s-.91,7-1.78,10.24a32.34,32.34,0,0,0-1.8,10.09,28.32,28.32,0,0,0,7,18.72,18.06,18.06,0,0,0,8.35,5.28,10.47,10.47,0,0,0,9.5-1.12l.42-.22.07.46a13.61,13.61,0,0,1-3.13,8.26l-.07-.45a6.78,6.78,0,0,0,4,.48,9.27,9.27,0,0,0,3.82-1.66c.55-.4,1.07-.94,1.76-1.36a11.44,11.44,0,0,1,2.17-.64,41.64,41.64,0,0,1,4.33-.34c2.85-.12,5.73-.09,8.6,0l4.23,0c.74-.11,1.35-.05,2.09-.16s1.31-.35,2-.46c11.16-2.15,21.85-7.35,29.8-15.72a48.61,48.61,0,0,0,9.46-14.36,68.21,68.21,0,0,0,4.72-16.76c1-5.75,1.4-11.74,2.35-17.5.32-2.85,1.09-5.77,1.41-8.62a77.77,77.77,0,0,0,1-8.72c.16-3,.33-5.81.49-8.8,0-3,.47-5.83-.26-8.68a3.84,3.84,0,0,0-2.55-2.89,3.64,3.64,0,0,0-3.38,1.6,8.74,8.74,0,0,0-1.37,3.95,38.34,38.34,0,0,0,.2,4.33,11.42,11.42,0,0,1-.39,4.42,8.73,8.73,0,0,1-2.3,3.78,13.25,13.25,0,0,1-7.75,3.66,38.88,38.88,0,0,1-8.63-.1,74.49,74.49,0,0,0-8.49-.28,63.17,63.17,0,0,0-16.77,3c-5.47,1.76-10.75,3.81-16.23,5.57-2.73.88-5.45,1.91-8.3,2a50.27,50.27,0,0,1-8.52-.43c-1.55-.23-3-.49-4.32-.59a12.85,12.85,0,0,0-4.13.62,9.73,9.73,0,0,0-3.59,2.26,5.74,5.74,0,0,0-1.83,3.86,7.06,7.06,0,0,1,1.83-3.86,8.86,8.86,0,0,1,3.59-2.26,10.25,10.25,0,0,1,4.28-.64,32.26,32.26,0,0,1,4.29.44A38.61,38.61,0,0,0,686,356c2.85-.12,5.56-1.16,8.3-2,5.47-1.76,10.73-4,16.2-5.71a70.83,70.83,0,0,1,16.91-3,80.91,80.91,0,0,1,8.65.25c2.9.18,5.7.7,8.48.12a13.24,13.24,0,0,0,7.48-3.47,9.28,9.28,0,0,0,2.44-7.84,44.7,44.7,0,0,1-.22-4.49,7.81,7.81,0,0,1,1.47-4.27,3.94,3.94,0,0,1,4-1.84,4.45,4.45,0,0,1,2,1.25,5.29,5.29,0,0,1,1.06,2c.75,3,.28,5.88.28,8.84-.16,3-.34,5.82-.49,8.8s-.45,6-.93,8.87c-.32,2.85-.94,5.75-1.41,8.63-1,5.75-1.4,11.74-2.35,17.49-1.57,11.61-6.18,23.06-14.26,31.6-7.92,8.52-18.93,13.61-30.09,15.76l-2.07.32a9,9,0,0,1-2.09.15l-4.22,0c-2.88,0-5.75-.07-8.6.05a38.41,38.41,0,0,0-4.18.32,8.47,8.47,0,0,0-2.05.47,10.91,10.91,0,0,0-1.78,1.2,9.92,9.92,0,0,1-4,1.69,6.76,6.76,0,0,1-4.32-.59l-.32-.11.27-.2a12.4,12.4,0,0,0,2.88-7.91l.35.26c-2.88,2-6.49,2.07-9.8,1.16a20.43,20.43,0,0,1-8.54-5.56,27.47,27.47,0,0,1-7.1-19A37.18,37.18,0,0,1,659.91,389c.87-3.25,1.86-6.67,1.8-10.09.06-3.59-1.92-6.72-2.58-10.05a7.22,7.22,0,0,1,.74-5.1,5,5,0,0,1,3.79-2.91C661.87,361,660.55,362.28,659.33,364.18Z"/><path class="cls-3" d="M697.8,365.77a13.92,13.92,0,0,0,7.27-1.73,13.14,13.14,0,0,0,5.45-5.33,23.76,23.76,0,0,1,1.69-2.83c.15,0,.21,1.44-.74,3.46a12.78,12.78,0,0,1-5.61,6.24,13,13,0,0,1-8.12,1.43c-2.06-.35-3.13-1.16-3.11-1.31C694.68,365.39,696,365.77,697.8,365.77Z"/><path class="cls-20" d="M743.51,369.55a27.63,27.63,0,0,0,1.47-7.23,25.53,25.53,0,0,0-.49-7.25c-.44-2-.75-3-.9-3s.84,4.55.49,10.21-2.15,9.83-2,10A14.76,14.76,0,0,0,743.51,369.55Z"/><path class="cls-20" d="M727.21,408.63a26.62,26.62,0,0,0,1.47-2.25c.47-.85,1.22-1.9,1.8-3.08a62.86,62.86,0,0,0,3.7-8.5,61.17,61.17,0,0,0,2.87-11,69.42,69.42,0,0,0,.68-11.48,53.48,53.48,0,0,0-1-9.36,26.17,26.17,0,0,0-.68-3.48c-.3-1-.44-2-.71-2.7-.52-1.47-.64-2.24-.78-2.21s.92,3.13,1.7,8.31a70.74,70.74,0,0,1,.79,9.23,88.55,88.55,0,0,1-.85,11.35,59.5,59.5,0,0,1-2.74,10.85,64.16,64.16,0,0,1-3.7,8.5c-2.34,4.56-4.35,7.21-4.18,7.34C725.62,410.12,726.14,409.57,727.21,408.63Z"/><path class="cls-20" d="M728.35,395.21c.75-3.07.67-5.55.5-5.68s-.69,2.44-1.28,5.49c-.75,3.07-1.29,5.49-1.12,5.62S727.78,398.41,728.35,395.21Z"/><path class="cls-20" d="M721.25,397.22c1.14-5.47.9-10.11.75-10.09s-.37,4.58-1.53,9.89-2.51,9.42-2.33,9.55S720.24,402.51,721.25,397.22Z"/><path class="cls-20" d="M698.24,388.85c1.16-2.36,1.3-4.4,1.13-4.53s-.76,2-1.79,4.16c-.86,2.31-2,4-1.79,4.17S697.38,391.16,698.24,388.85Z"/><path class="cls-20" d="M670.2,406.17a21.45,21.45,0,0,1,2.6-6.78,20.27,20.27,0,0,1,4.77-5.39,17.55,17.55,0,0,0,2.43-1.93c-.17-.13-1.31.35-2.82,1.36a18.13,18.13,0,0,0-5.06,5.44,19.68,19.68,0,0,0-2.56,7.09c-.29,2.07-.11,3.28,0,3.26S669.73,408.11,670.2,406.17Z"/><path class="cls-20" d="M665.07,396.19c2.23-2.2,4.11-3.73,3.94-3.86s-2.41,1-4.48,3.32-3.22,4.7-3,4.83S663.17,398.66,665.07,396.19Z"/><path class="cls-20" d="M679.15,405.44a26.6,26.6,0,0,1,3.21-8.74,29.4,29.4,0,0,1,5.73-7.1c1.88-1.53,3.12-2.34,2.95-2.47s-1.44.53-3.32,2.06a25.11,25.11,0,0,0-9,16.17c-.24,2.37-.16,3.92,0,3.9S678.76,407.84,679.15,405.44Z"/><path class="cls-20" d="M674.32,375.48a10,10,0,0,1-4.07-3,8.37,8.37,0,0,1-1.64-4.9c.11-1.26.29-2.07.12-2.2a4.34,4.34,0,0,0-.59,2.12,8.19,8.19,0,0,0,1.54,5.22,8.83,8.83,0,0,0,4.67,2.88c1.37.1,2.26,0,2.23-.18S675.65,375.28,674.32,375.48Z"/><path class="cls-20" d="M678.42,373.61a6.15,6.15,0,0,1-3.69-1.47,6.87,6.87,0,0,1-2.35-3.54c-.31-1-.28-1.83-.42-1.8-.17-.13-.21.65,0,1.87a7.12,7.12,0,0,0,2.27,4,7.63,7.63,0,0,0,4.28,1.38c1.35-.05,1.92-.29,1.9-.44S679.63,373.58,678.42,373.61Z"/><path class="cls-20" d="M685.35,369.45a7.78,7.78,0,0,1-3.72.4,5.45,5.45,0,0,1-3.15-1.86c-.58-.84-.67-1.45-.82-1.43a2.2,2.2,0,0,0,.4,1.65,5.31,5.31,0,0,0,3.52,2.28,6.38,6.38,0,0,0,4.13-.63c1-.46,1.53-.85,1.51-1C687.07,368.88,686.5,369.12,685.35,369.45Z"/><path class="cls-14" d="M891.77,197.61c0-.24,1.1-.43,2.47-.43s2.46.19,2.46.43-1.1.43-2.46.43S891.77,197.85,891.77,197.61Z"/><path class="cls-14" d="M881.9,197.61c0-.24,1.1-.43,2.47-.43s2.46.19,2.46.43-1.1.43-2.46.43S881.9,197.85,881.9,197.61Z"/><path class="cls-14" d="M872,197.61c0-.24,1.11-.43,2.47-.43s2.47.19,2.47.43-1.11.43-2.47.43S872,197.85,872,197.61Z"/><path class="cls-14" d="M862.16,197.61c0-.24,1.11-.43,2.47-.43s2.47.19,2.47.43-1.11.43-2.47.43S862.16,197.85,862.16,197.61Z"/><path class="cls-14" d="M852.29,197.61c0-.24,1.11-.43,2.47-.43s2.47.19,2.47.43-1.11.43-2.47.43S852.29,197.85,852.29,197.61Z"/><path class="cls-14" d="M842.43,197.61c0-.24,1.1-.43,2.46-.43s2.47.19,2.47.43-1.1.43-2.47.43S842.43,197.85,842.43,197.61Z"/><path class="cls-14" d="M832.56,197.61c0-.24,1.1-.43,2.46-.43s2.47.19,2.47.43-1.1.43-2.47.43S832.56,197.85,832.56,197.61Z"/><path class="cls-14" d="M822.69,197.61c0-.24,1.1-.43,2.47-.43s2.46.19,2.46.43-1.1.43-2.46.43S822.69,197.85,822.69,197.61Z"/><path class="cls-14" d="M812.82,197.61c0-.24,1.11-.43,2.47-.43s2.46.19,2.46.43-1.1.43-2.46.43S812.82,197.85,812.82,197.61Z"/><path class="cls-14" d="M803,197.61c0-.24,1.11-.43,2.47-.43s2.47.19,2.47.43-1.11.43-2.47.43S803,197.85,803,197.61Z"/><path class="cls-14" d="M793.08,197.61c0-.24,1.11-.43,2.47-.43s2.47.19,2.47.43-1.11.43-2.47.43S793.08,197.85,793.08,197.61Z"/><path class="cls-14" d="M783.22,197.61c0-.24,1.1-.43,2.46-.43s2.47.19,2.47.43-1.1.43-2.47.43S783.22,197.85,783.22,197.61Z"/><path class="cls-14" d="M776.18,194.77c.24,0,.43,1.11.43,2.47v.37l-.43-.42c1.19,0,2.1.2,2.1.42s-.91.39-2.1.42h-.41v-.8C775.76,195.88,776,194.77,776.18,194.77Z"/><path class="cls-14" d="M776.18,184.9c.24,0,.43,1.11.43,2.47s-.19,2.47-.43,2.47-.42-1.11-.42-2.47S776,184.9,776.18,184.9Z"/><path class="cls-14" d="M776.18,175c.24,0,.43,1.1.43,2.46s-.19,2.47-.43,2.47-.42-1.1-.42-2.47S776,175,776.18,175Z"/><path class="cls-14" d="M776.18,165.17c.24,0,.43,1.1.43,2.46s-.19,2.47-.43,2.47-.42-1.1-.42-2.47S776,165.17,776.18,165.17Z"/><path class="cls-14" d="M776.18,155.3c.24,0,.43,1.1.43,2.47s-.19,2.46-.43,2.46-.42-1.1-.42-2.46S776,155.3,776.18,155.3Z"/><path class="cls-14" d="M776.18,145.43c.24,0,.43,1.1.43,2.47s-.19,2.46-.43,2.46-.42-1.1-.42-2.46S776,145.43,776.18,145.43Z"/><path class="cls-14" d="M776.18,135.56c.24,0,.43,1.11.43,2.47s-.19,2.47-.43,2.47-.42-1.11-.42-2.47S776,135.56,776.18,135.56Z"/><path class="cls-14" d="M776.18,125.69c.24,0,.43,1.11.43,2.47s-.19,2.47-.43,2.47-.42-1.11-.42-2.47S776,125.69,776.18,125.69Z"/><path class="cls-14" d="M776.18,115.82c.24,0,.43,1.11.43,2.47s-.19,2.47-.43,2.47-.42-1.11-.42-2.47S776,115.82,776.18,115.82Z"/><path class="cls-14" d="M776.18,106c.24,0,.43,1.1.43,2.46s-.19,2.47-.43,2.47-.42-1.1-.42-2.47S776,106,776.18,106Z"/><path class="cls-14" d="M776.18,96.09c.24,0,.43,1.1.43,2.46s-.19,2.47-.43,2.47-.42-1.1-.42-2.47S776,96.09,776.18,96.09Z"/><path class="cls-14" d="M776.18,86.22c.24,0,.43,1.1.43,2.47s-.19,2.46-.43,2.46-.42-1.1-.42-2.46S776,86.22,776.18,86.22Z"/><path class="cls-14" d="M776.92,77.09c0,.12-.28.23-.74.31l.31-.31a11.49,11.49,0,0,1,.12,1.73c0,1.36-.19,2.46-.43,2.46s-.42-1.1-.42-2.46a10.31,10.31,0,0,1,.12-1.73l.06-.35.24,0C776.64,76.86,776.92,77,776.92,77.09Z"/><path class="cls-14" d="M786.79,77.09c0,.24-1.1.43-2.47.43s-2.46-.19-2.46-.43,1.1-.43,2.46-.43S786.79,76.85,786.79,77.09Z"/><path class="cls-14" d="M796.66,77.09c0,.24-1.11.43-2.47.43s-2.46-.19-2.46-.43,1.1-.43,2.46-.43S796.66,76.85,796.66,77.09Z"/><path class="cls-14" d="M806.53,77.09c0,.24-1.11.43-2.47.43s-2.47-.19-2.47-.43,1.11-.43,2.47-.43S806.53,76.85,806.53,77.09Z"/><path class="cls-14" d="M816.4,77.09c0,.24-1.11.43-2.47.43s-2.47-.19-2.47-.43,1.11-.43,2.47-.43S816.4,76.85,816.4,77.09Z"/><path class="cls-14" d="M826.26,77.09c0,.24-1.1.43-2.46.43s-2.47-.19-2.47-.43,1.11-.43,2.47-.43S826.26,76.85,826.26,77.09Z"/><path class="cls-14" d="M836.13,77.09c0,.24-1.1.43-2.46.43s-2.47-.19-2.47-.43,1.1-.43,2.47-.43S836.13,76.85,836.13,77.09Z"/><path class="cls-14" d="M846,77.09c0,.24-1.1.43-2.47.43s-2.46-.19-2.46-.43,1.1-.43,2.46-.43S846,76.85,846,77.09Z"/><path class="cls-14" d="M855.87,77.09c0,.24-1.1.43-2.47.43s-2.46-.19-2.46-.43,1.1-.43,2.46-.43S855.87,76.85,855.87,77.09Z"/><path class="cls-14" d="M865.74,77.09c0,.24-1.11.43-2.47.43s-2.47-.19-2.47-.43,1.11-.43,2.47-.43S865.74,76.85,865.74,77.09Z"/><path class="cls-14" d="M875.61,77.09c0,.24-1.11.43-2.47.43s-2.47-.19-2.47-.43,1.11-.43,2.47-.43S875.61,76.85,875.61,77.09Z"/><path class="cls-14" d="M885.48,77.09c0,.24-1.11.43-2.47.43s-2.47-.19-2.47-.43,1.11-.43,2.47-.43S885.48,76.85,885.48,77.09Z"/><path class="cls-14" d="M895.34,77.09c0,.24-1.1.43-2.46.43s-2.47-.19-2.47-.43,1.1-.43,2.47-.43S895.34,76.85,895.34,77.09Z"/><path class="cls-14" d="M896.7,85.6c-.23,0-.43-1.11-.43-2.47s.2-2.46.43-2.46.43,1.1.43,2.46S896.94,85.6,896.7,85.6Z"/><path class="cls-14" d="M896.7,95.47c-.23,0-.43-1.11-.43-2.47s.2-2.47.43-2.47.43,1.11.43,2.47S896.94,95.47,896.7,95.47Z"/><path class="cls-14" d="M896.7,105.34c-.23,0-.43-1.11-.43-2.47s.2-2.47.43-2.47.43,1.11.43,2.47S896.94,105.34,896.7,105.34Z"/><path class="cls-14" d="M896.7,115.2c-.23,0-.43-1.1-.43-2.46s.2-2.47.43-2.47.43,1.11.43,2.47S896.94,115.2,896.7,115.2Z"/><path class="cls-14" d="M896.7,125.07c-.23,0-.43-1.1-.43-2.46s.2-2.47.43-2.47.43,1.1.43,2.47S896.94,125.07,896.7,125.07Z"/><path class="cls-14" d="M896.7,134.94c-.23,0-.43-1.1-.43-2.46s.2-2.47.43-2.47.43,1.1.43,2.47S896.94,134.94,896.7,134.94Z"/><path class="cls-14" d="M896.7,144.81c-.23,0-.43-1.1-.43-2.47s.2-2.46.43-2.46.43,1.1.43,2.46S896.94,144.81,896.7,144.81Z"/><path class="cls-14" d="M896.7,154.68c-.23,0-.43-1.11-.43-2.47s.2-2.47.43-2.47.43,1.11.43,2.47S896.94,154.68,896.7,154.68Z"/><path class="cls-14" d="M896.7,164.55c-.23,0-.43-1.11-.43-2.47s.2-2.47.43-2.47.43,1.11.43,2.47S896.94,164.55,896.7,164.55Z"/><path class="cls-14" d="M896.7,174.42c-.23,0-.43-1.11-.43-2.47s.2-2.47.43-2.47.43,1.11.43,2.47S896.94,174.42,896.7,174.42Z"/><path class="cls-14" d="M896.7,184.28c-.23,0-.43-1.1-.43-2.46s.2-2.47.43-2.47.43,1.1.43,2.47S896.94,184.28,896.7,184.28Z"/><path class="cls-14" d="M896.7,194.15c-.23,0-.43-1.1-.43-2.46s.2-2.47.43-2.47.43,1.1.43,2.47S896.94,194.15,896.7,194.15Z"/><rect class="cls-14" x="892.24" y="191.92" width="8.93" height="8.93"/><rect class="cls-14" x="771.72" y="193.15" width="8.93" height="8.93"/><rect class="cls-14" x="892.24" y="71.76" width="8.93" height="8.93"/><rect class="cls-14" x="771.72" y="72.63" width="8.93" height="8.93"/></svg>