<svg id="Слой_1" data-name="Слой 1" xmlns="http://www.w3.org/2000/svg" viewBox="0 0 1188 644"><defs><style>.cls-1{opacity:0.1;}.cls-2{fill:#fff;}.cls-3{fill:#233554;}.cls-4{fill:#375a64;}.cls-5{fill:#212121;}.cls-6{fill:#ffc19d;}.cls-7{fill:#ff9c6a;}.cls-8{fill:#1a2e35;}.cls-9{fill:#4b98f2;}.cls-10{opacity:0.3;}.cls-11{fill:#c9ccd6;}.cls-12{fill:#1c1c1b;}.cls-13{fill:#fafafa;}.cls-14{opacity:0.5;}.cls-15{fill:#b04c4c;}.cls-16,.cls-20{fill:#dd4e4e;}.cls-17{fill:#455a64;}.cls-18{fill:#8892b0;}.cls-19{fill:#ff735d;}.cls-20{stroke:#dd4e4e;stroke-miterlimit:10;stroke-width:0.5px;}</style></defs><g class="cls-1"><rect class="cls-2" x="1015.46" y="7.47" width="127.36" height="127.36"/></g><path class="cls-3" d="M773.31,93.81c0-.12.55-.21,1.22-.21s1.21.09,1.21.21-.54.21-1.21.21S773.31,93.92,773.31,93.81Z"/><path class="cls-3" d="M768.47,93.81c0-.12.54-.21,1.21-.21s1.21.09,1.21.21-.54.21-1.21.21S768.47,93.92,768.47,93.81Z"/><path class="cls-3" d="M763.62,93.81c0-.12.54-.21,1.21-.21s1.21.09,1.21.21-.54.21-1.21.21S763.62,93.92,763.62,93.81Z"/><path class="cls-3" d="M758.77,93.81c0-.12.55-.21,1.22-.21s1.21.09,1.21.21-.54.21-1.21.21S758.77,93.92,758.77,93.81Z"/><path class="cls-3" d="M753.93,93.81c0-.12.54-.21,1.21-.21s1.21.09,1.21.21-.54.21-1.21.21S753.93,93.92,753.93,93.81Z"/><path class="cls-3" d="M749.08,93.81c0-.12.54-.21,1.21-.21s1.21.09,1.21.21-.54.21-1.21.21S749.08,93.92,749.08,93.81Z"/><path class="cls-3" d="M744.23,93.81c0-.12.55-.21,1.22-.21s1.21.09,1.21.21-.54.21-1.21.21S744.23,93.92,744.23,93.81Z"/><path class="cls-3" d="M739.39,93.81c0-.12.54-.21,1.21-.21s1.21.09,1.21.21-.54.21-1.21.21S739.39,93.92,739.39,93.81Z"/><path class="cls-3" d="M734.54,93.81c0-.12.54-.21,1.21-.21s1.21.09,1.21.21-.54.21-1.21.21S734.54,93.92,734.54,93.81Z"/><path class="cls-3" d="M729.69,93.81c0-.12.55-.21,1.22-.21s1.21.09,1.21.21-.54.21-1.21.21S729.69,93.92,729.69,93.81Z"/><path class="cls-3" d="M724.85,93.81c0-.12.54-.21,1.21-.21s1.21.09,1.21.21-.54.21-1.21.21S724.85,93.92,724.85,93.81Z"/><path class="cls-3" d="M720,93.81c0-.12.54-.21,1.21-.21s1.22.09,1.22.21-.55.21-1.22.21S720,93.92,720,93.81Z"/><path class="cls-3" d="M716.55,92.42c.11,0,.21.54.21,1.21v.18l-.21-.21c.58,0,1,.1,1,.21s-.45.19-1,.21h-.21v-.39C716.34,93,716.43,92.42,716.55,92.42Z"/><path class="cls-3" d="M716.55,87.57c.11,0,.21.54.21,1.21s-.1,1.21-.21,1.21-.21-.54-.21-1.21S716.43,87.57,716.55,87.57Z"/><path class="cls-3" d="M716.55,82.72c.11,0,.21.54.21,1.21s-.1,1.22-.21,1.22-.21-.55-.21-1.22S716.43,82.72,716.55,82.72Z"/><path class="cls-3" d="M716.55,77.88c.11,0,.21.54.21,1.21s-.1,1.21-.21,1.21-.21-.54-.21-1.21S716.43,77.88,716.55,77.88Z"/><path class="cls-3" d="M716.55,73c.11,0,.21.54.21,1.21s-.1,1.21-.21,1.21-.21-.54-.21-1.21S716.43,73,716.55,73Z"/><path class="cls-3" d="M716.55,68.18c.11,0,.21.54.21,1.21s-.1,1.22-.21,1.22-.21-.55-.21-1.22S716.43,68.18,716.55,68.18Z"/><path class="cls-3" d="M716.55,63.34c.11,0,.21.54.21,1.21s-.1,1.21-.21,1.21-.21-.54-.21-1.21S716.43,63.34,716.55,63.34Z"/><path class="cls-3" d="M716.55,58.49c.11,0,.21.54.21,1.21s-.1,1.21-.21,1.21-.21-.54-.21-1.21S716.43,58.49,716.55,58.49Z"/><path class="cls-3" d="M716.55,53.64c.11,0,.21.54.21,1.21s-.1,1.22-.21,1.22-.21-.55-.21-1.22S716.43,53.64,716.55,53.64Z"/><path class="cls-3" d="M716.55,48.8c.11,0,.21.54.21,1.21s-.1,1.21-.21,1.21-.21-.54-.21-1.21S716.43,48.8,716.55,48.8Z"/><path class="cls-3" d="M716.55,44c.11,0,.21.54.21,1.21s-.1,1.21-.21,1.21-.21-.54-.21-1.21S716.43,44,716.55,44Z"/><path class="cls-3" d="M716.55,39.1c.11,0,.21.54.21,1.21s-.1,1.22-.21,1.22-.21-.55-.21-1.22S716.43,39.1,716.55,39.1Z"/><path class="cls-3" d="M716.91,34.62c0,.06-.14.11-.36.15l.15-.15a5,5,0,0,1,.06.85c0,.67-.1,1.21-.21,1.21s-.21-.54-.21-1.21a5,5,0,0,1,.06-.85l0-.17.12,0C716.77,34.51,716.91,34.56,716.91,34.62Z"/><path class="cls-3" d="M721.76,34.62c0,.11-.54.21-1.21.21s-1.22-.1-1.22-.21.55-.21,1.22-.21S721.76,34.5,721.76,34.62Z"/><path class="cls-3" d="M726.6,34.62c0,.11-.54.21-1.21.21s-1.21-.1-1.21-.21.54-.21,1.21-.21S726.6,34.5,726.6,34.62Z"/><path class="cls-3" d="M731.45,34.62c0,.11-.54.21-1.21.21s-1.21-.1-1.21-.21.54-.21,1.21-.21S731.45,34.5,731.45,34.62Z"/><path class="cls-3" d="M736.3,34.62c0,.11-.54.21-1.21.21s-1.22-.1-1.22-.21.55-.21,1.22-.21S736.3,34.5,736.3,34.62Z"/><path class="cls-3" d="M741.14,34.62c0,.11-.54.21-1.21.21s-1.21-.1-1.21-.21.54-.21,1.21-.21S741.14,34.5,741.14,34.62Z"/><path class="cls-3" d="M746,34.62c0,.11-.54.21-1.21.21s-1.21-.1-1.21-.21.54-.21,1.21-.21S746,34.5,746,34.62Z"/><path class="cls-3" d="M750.84,34.62c0,.11-.55.21-1.21.21s-1.22-.1-1.22-.21.55-.21,1.22-.21S750.84,34.5,750.84,34.62Z"/><path class="cls-3" d="M755.68,34.62c0,.11-.54.21-1.21.21s-1.21-.1-1.21-.21.54-.21,1.21-.21S755.68,34.5,755.68,34.62Z"/><path class="cls-3" d="M760.53,34.62c0,.11-.54.21-1.21.21s-1.21-.1-1.21-.21.54-.21,1.21-.21S760.53,34.5,760.53,34.62Z"/><path class="cls-3" d="M765.38,34.62c0,.11-.55.21-1.21.21s-1.22-.1-1.22-.21.55-.21,1.22-.21S765.38,34.5,765.38,34.62Z"/><path class="cls-3" d="M770.22,34.62c0,.11-.54.21-1.21.21s-1.21-.1-1.21-.21.54-.21,1.21-.21S770.22,34.5,770.22,34.62Z"/><path class="cls-3" d="M775.07,34.62c0,.11-.54.21-1.21.21s-1.21-.1-1.21-.21.54-.21,1.21-.21S775.07,34.5,775.07,34.62Z"/><path class="cls-3" d="M775.74,38.8c-.12,0-.21-.54-.21-1.21s.09-1.22.21-1.22.21.55.21,1.22S775.85,38.8,775.74,38.8Z"/><path class="cls-3" d="M775.74,43.64c-.12,0-.21-.54-.21-1.21s.09-1.21.21-1.21.21.54.21,1.21S775.85,43.64,775.74,43.64Z"/><path class="cls-3" d="M775.74,48.49c-.12,0-.21-.54-.21-1.21s.09-1.21.21-1.21.21.54.21,1.21S775.85,48.49,775.74,48.49Z"/><path class="cls-3" d="M775.74,53.34c-.12,0-.21-.54-.21-1.21s.09-1.22.21-1.22.21.55.21,1.22S775.85,53.34,775.74,53.34Z"/><path class="cls-3" d="M775.74,58.18c-.12,0-.21-.54-.21-1.21s.09-1.21.21-1.21.21.54.21,1.21S775.85,58.18,775.74,58.18Z"/><path class="cls-3" d="M775.74,63c-.12,0-.21-.54-.21-1.21s.09-1.21.21-1.21.21.54.21,1.21S775.85,63,775.74,63Z"/><path class="cls-3" d="M775.74,67.88c-.12,0-.21-.54-.21-1.21s.09-1.22.21-1.22.21.55.21,1.22S775.85,67.88,775.74,67.88Z"/><path class="cls-3" d="M775.74,72.72c-.12,0-.21-.54-.21-1.21s.09-1.21.21-1.21.21.54.21,1.21S775.85,72.72,775.74,72.72Z"/><path class="cls-3" d="M775.74,77.57c-.12,0-.21-.54-.21-1.21s.09-1.21.21-1.21.21.54.21,1.21S775.85,77.57,775.74,77.57Z"/><path class="cls-3" d="M775.74,82.42c-.12,0-.21-.55-.21-1.21s.09-1.22.21-1.22.21.55.21,1.22S775.85,82.42,775.74,82.42Z"/><path class="cls-3" d="M775.74,87.26c-.12,0-.21-.54-.21-1.21s.09-1.21.21-1.21.21.54.21,1.21S775.85,87.26,775.74,87.26Z"/><path class="cls-3" d="M775.74,92.11c-.12,0-.21-.54-.21-1.21s.09-1.21.21-1.21.21.54.21,1.21S775.85,92.11,775.74,92.11Z"/><rect class="cls-3" x="773.55" y="91.02" width="4.38" height="4.38"/><rect class="cls-3" x="714.36" y="91.62" width="4.38" height="4.38"/><rect class="cls-3" x="773.55" y="32" width="4.38" height="4.38"/><rect class="cls-3" x="714.36" y="32.43" width="4.38" height="4.38"/><polygon class="cls-4" points="57.17 567.3 54.53 63.01 748 63.01 748 572.51 57.17 567.3"/><polygon class="cls-5" points="70.33 555.93 67.8 128.06 734.14 128.06 734.14 560.35 70.33 555.93"/><path class="cls-6" d="M808.74,561.59H794s-33.36-12.05-40.22-10.9c-6.18,1-28.8,16.06-33.24,19a2.85,2.85,0,0,0-1.07,1.37h0a4.85,4.85,0,0,0,2.7,6.16l.47.19-.21.68a8.28,8.28,0,0,0-.34,2.7,3.26,3.26,0,0,0,6.06,1.41l-.85,1.51a3.69,3.69,0,0,0-.47,2l.08,1.37a3.71,3.71,0,0,0,2.55,3.33h0a3.7,3.7,0,0,0,3.88-1c2.87-3.16,9.41-7.77,13.6-8.47,3.73-.62,9.61-2.41,13.36-2.39a4.61,4.61,0,0,1,4.3,3h0c-2.49.18-15.32,6-21.45,9.26a6.57,6.57,0,0,0-3.57,4.94c-.22,1.92.75,3.93,4.54,3,8.15-1.9,18.32-5.45,18.32-5.45s7.57-2.16,12.47,1.3c6.9,4.86,10,6.64,16,4.68a49.78,49.78,0,0,0,10.28-4.78l11.67-1.16S823.82,565.82,808.74,561.59Z"/><path class="cls-7" d="M805.58,587.52a4.3,4.3,0,0,1-.78.58,5.39,5.39,0,0,1-1,.6,9.27,9.27,0,0,1-1.47.67,16.08,16.08,0,0,1-10.16.34,15.7,15.7,0,0,1-6.26-3.39l-.72-.66-.66-.75a14.47,14.47,0,0,1-1.21-1.64c-.74-1.16-1.29-2.45-2.1-3.58a5.14,5.14,0,0,0-3.33-2.31,16.36,16.36,0,0,0-4.47,0,26.56,26.56,0,0,1-9.64-.95,27.68,27.68,0,0,1-8.28-4,28.77,28.77,0,0,1-3.37-2.8,2.11,2.11,0,0,1-.56-2.24,2.14,2.14,0,0,1,1.77-1.42h0l21.68-.9,6.21-.2,1.66,0a1.94,1.94,0,0,1,.57,0,3.35,3.35,0,0,1-.57.07l-1.65.13-6.21.37-21.66,1.13h0a1.51,1.51,0,0,0-1.27,1,1.49,1.49,0,0,0,.41,1.61,28.67,28.67,0,0,0,3.31,2.74,27.52,27.52,0,0,0,8.1,3.85,26,26,0,0,0,9.41.94,16.77,16.77,0,0,1,4.64,0,5.68,5.68,0,0,1,2.14.92,6.87,6.87,0,0,1,1.55,1.64c.84,1.21,1.38,2.51,2.09,3.63a14.28,14.28,0,0,0,1.16,1.58l.62.72.69.65a15.48,15.48,0,0,0,6,3.35,16.13,16.13,0,0,0,10-.14A22.68,22.68,0,0,0,805.58,587.52Z"/><path class="cls-6" d="M908.76,274.73a54.76,54.76,0,0,1,50.41-54.55L962,220c30.63-.66,48.29,25,48.09,55.62l3.69,101.86-3.16,13.1-41.23,34-20.72-18.34-5.95-30s-24-1-26.72-30.23C914.7,331.86,908.74,301.27,908.76,274.73Z"/><path class="cls-6" d="M942.72,376.23s-24-3-26.72-32.23c-1.3-14.14-5-21-7.24-69.27"/><path class="cls-7" d="M942.48,376.2s18.8-.36,37.49-14.3c0,0-7.35,21.81-36.79,21.51Z"/><path class="cls-8" d="M919.41,301.18a4.2,4.2,0,0,0,4.37,3.9,4,4,0,0,0,4-4.11,4.21,4.21,0,0,0-4.37-3.91A4,4,0,0,0,919.41,301.18Z"/><path class="cls-8" d="M916,290.07c.56.51,3.55-2.09,8-2.44s8,1.64,8.43,1.05c.22-.26-.39-1.2-1.91-2.14a11.5,11.5,0,0,0-6.8-1.51,11.07,11.07,0,0,0-6.35,2.62C916.11,288.82,915.72,289.85,916,290.07Z"/><path class="cls-8" d="M958.16,300a4.19,4.19,0,0,0,4.37,3.9,4,4,0,0,0,4-4.12,4.21,4.21,0,0,0-4.37-3.9A4,4,0,0,0,958.16,300Z"/><path class="cls-8" d="M959,286c.56.5,3.55-2.09,8.05-2.44s8,1.64,8.42,1.05c.22-.26-.38-1.21-1.91-2.14a11.55,11.55,0,0,0-6.8-1.52,11,11,0,0,0-6.35,2.63C959.14,284.76,958.74,285.79,959,286Z"/><path class="cls-8" d="M946.85,320.56c0-.26-2.84-.52-7.42-.73-1.16,0-2.26-.17-2.52-.94s0-2.09.49-3.47q1.29-4.31,2.71-9c3.72-12.84,6.32-23.36,5.81-23.51s-4,10.15-7.69,23c-.89,3.16-1.75,6.18-2.56,9.07-.33,1.34-1,2.88-.23,4.56a2.89,2.89,0,0,0,2,1.53,8.19,8.19,0,0,0,2,.11C944,321,946.85,320.82,946.85,320.56Z"/><path class="cls-8" d="M957.93,273.15c.63,1.13,4.43-.23,9.14-.53s8.72.37,9.12-.83c.16-.57-.71-1.57-2.44-2.44a14.16,14.16,0,0,0-7.14-1.28,13.49,13.49,0,0,0-6.77,2.32C958.31,271.5,957.65,272.62,957.93,273.15Z"/><path class="cls-8" d="M916,277.64c.79,1,3.9,0,7.65-.07s6.9.71,7.64-.36c.32-.52-.18-1.55-1.56-2.53a11.09,11.09,0,0,0-12.32.36C916.12,276.09,915.68,277.14,916,277.64Z"/><path class="cls-6" d="M1004.66,299.47a8,8,0,0,1,8-8.35c5.5.09,11.83,2.71,12.37,14,1,20.08-19.4,16.9-19.46,16.32C1005.5,321.08,1005,307.88,1004.66,299.47Z"/><path class="cls-7" d="M1009.55,313.71c.09-.07.37.23,1,.47a3.5,3.5,0,0,0,2.62-.07c2.08-.88,3.71-4.33,3.63-8a11.42,11.42,0,0,0-1.22-5,4,4,0,0,0-2.75-2.56,1.78,1.78,0,0,0-2,1.06c-.25.57-.1,1-.2,1s-.45-.32-.33-1.16a2.29,2.29,0,0,1,.73-1.29,2.59,2.59,0,0,1,1.91-.6c1.55,0,3,1.39,3.8,2.93a11.82,11.82,0,0,1,1.48,5.54c.07,4.06-1.82,7.94-4.69,8.92a3.71,3.71,0,0,1-3.22-.38C1009.61,314.19,1009.49,313.75,1009.55,313.71Z"/><path class="cls-9" d="M1086.36,497.19c-1.09,0-3.4-94.08-3.4-94.08l-64.24-22.94-49.33,44.41L944.23,385l-22.11,10.17c-2.79,1.28-15,6.18-17.49,8-7,5.36-21.67,18.18-25.81,33.82-6.32,23.86-16.23,103.24-16.23,103.24l-60.34,21.32,1.31,38.82,59.05,9.24c14.25-.51,31.5-6.53,37-16.42V614h181.42S1087.46,497.19,1086.36,497.19Z"/><path class="cls-8" d="M901.84,461.41a2.06,2.06,0,0,1,0,.39V463c0,1.05,0,2.52,0,4.39-.07,3.82-.24,9.34-.54,16.16s-.72,14.94-1,23.95-.45,18.93-.51,29.34c-.1,20.83-.05,39.69,0,53.34,0,6.79,0,12.31,0,16.16,0,1.88,0,3.35,0,4.4q0,.7,0,1.14a1.65,1.65,0,0,1,0,.39s0-.13,0-.39,0-.66,0-1.14c0-1.05,0-2.52-.09-4.39,0-3.86-.12-9.37-.2-16.17-.12-13.65-.25-32.5-.14-53.34.06-10.41.19-20.34.56-29.36s.84-17.13,1.19-23.95.59-12.33.73-16.14c.08-1.88.13-3.35.17-4.39,0-.48,0-.86.06-1.15A2.55,2.55,0,0,1,901.84,461.41Z"/><g class="cls-10"><path d="M901.84,470.34c-10.29,38.8-13,80.83-2.68,119.62C899.36,546.77,899.11,506.34,901.84,470.34Z"/></g><g class="cls-10"><path d="M1052.93,474.37,1064.21,547a4.81,4.81,0,0,0,.79,2.35c1.2,1.53,3.57,1.14,5.44.59,4.55-1.32,11.7-1.8,14.15-5.85l.6-10.35c-.66-3.13-3.7-6.14-5.12-9l-26.43-53.41"/></g><path class="cls-9" d="M1082.47,402.94s21,11.81,28.76,28.43c9.48,20.26,51.47,93.3,53,111.52s.92,39-30.17,45.26-63.52,5.79-63.52,5.79l-12.68-37.75,35.63-18.41-8.88-7.8a20.68,20.68,0,0,1-4.74-6.05l-26.8-51.61"/><path class="cls-8" d="M1053.09,472.32s.23.4.66,1.21,1.07,2,1.9,3.57l7.2,13.72c3.11,6,6.92,13.25,11.33,21.69l3.41,6.55c.59,1.13,1.19,2.27,1.79,3.44a31,31,0,0,0,2,3.44,20.55,20.55,0,0,0,2.6,3.1c1,1,2.08,1.85,3.14,2.79l6.59,5.77.26.23-.31.16L1058,556.43l.13-.33c4,11.76,8.24,24.47,12.7,37.74l-.28-.2c10.3,0,21.07-.48,32.11-1.45,5.52-.48,11.11-1.1,16.74-1.9s11.34-1.69,17-3l2.8-.68c.92-.25,1.81-.6,2.72-.9s1.82-.58,2.69-1l2.58-1.2c.43-.21.87-.39,1.29-.61l1.2-.74c.8-.5,1.62-1,2.4-1.49a32.23,32.23,0,0,0,4.19-3.7,25.9,25.9,0,0,0,5.78-9.36,40.13,40.13,0,0,0,2.2-10.68,86.12,86.12,0,0,0,0-10.78,50.18,50.18,0,0,0-.55-5.28,46.74,46.74,0,0,0-1.35-5.07c-1.06-3.33-2.32-6.56-3.63-9.72s-2.69-6.26-4.07-9.31c-5.6-12.17-11.39-23.5-16.87-34.08s-10.7-20.37-15.43-29.34q-3.52-6.72-6.7-12.81c-1-2-2-4-3-5.93l-1.38-2.86c-.46-.94-.94-1.83-1.4-2.72a54.13,54.13,0,0,0-6.51-9.07,84.28,84.28,0,0,0-6.68-6.62,100.58,100.58,0,0,0-10.32-7.94c-1.24-.84-2.2-1.44-2.85-1.85l-1-.62s.36.18,1,.56,1.63,1,2.88,1.8a95.37,95.37,0,0,1,10.41,7.87,83.89,83.89,0,0,1,6.75,6.6,55.55,55.55,0,0,1,6.59,9.1c.46.89,1,1.8,1.42,2.73s.92,1.88,1.39,2.85c1,1.92,2,3.89,3,5.92l6.74,12.79c4.75,8.94,10,18.73,15.5,29.29s11.31,21.91,16.93,34.09c1.38,3.05,2.78,6.15,4.08,9.32s2.6,6.41,3.67,9.77a48.52,48.52,0,0,1,1.37,5.14,50.8,50.8,0,0,1,.56,5.35,85.64,85.64,0,0,1,0,10.87,41.25,41.25,0,0,1-2.23,10.85,26.69,26.69,0,0,1-5.91,9.57,32.23,32.23,0,0,1-4.29,3.78c-.79.53-1.62,1-2.44,1.52l-1.22.76c-.43.22-.87.41-1.31.61l-2.62,1.22c-.88.39-1.81.65-2.72,1s-1.82.65-2.76.91l-2.82.69c-5.68,1.35-11.38,2.23-17,3s-11.24,1.42-16.78,1.9c-11.06,1-21.83,1.46-32.17,1.43h-.21l-.07-.21-12.65-37.75-.08-.23.21-.11,35.65-18.37-.05.39-6.57-5.78c-1.06-1-2.13-1.84-3.15-2.82a21.6,21.6,0,0,1-2.65-3.18,30.38,30.38,0,0,1-2-3.49l-1.78-3.44-3.39-6.56L1062.61,491l-7.09-13.79-1.83-3.6C1053.28,472.75,1053.09,472.32,1053.09,472.32Z"/><path class="cls-8" d="M1072.92,401.66a19,19,0,0,1-2,1.26,53.65,53.65,0,0,0-5.09,3.67,47.71,47.71,0,0,0-17.67,36,49.89,49.89,0,0,0,.21,6.28,17.52,17.52,0,0,1,.19,2.31,2.5,2.5,0,0,1-.15-.59c-.07-.38-.2-.95-.29-1.69a42.68,42.68,0,0,1-.41-6.31,46.41,46.41,0,0,1,17.84-36.34,42.43,42.43,0,0,1,5.25-3.53c.64-.38,1.17-.63,1.52-.81A3.2,3.2,0,0,1,1072.92,401.66Z"/><path class="cls-8" d="M1131.35,522.52a8.08,8.08,0,0,1-1.55.45l-4.27,1.07a120.83,120.83,0,0,0-13.78,4.44,103.8,103.8,0,0,0-13,6.27c-1.61.92-2.9,1.69-3.78,2.24a7.85,7.85,0,0,1-1.41.79,7.66,7.66,0,0,1,1.28-1c.84-.62,2.1-1.45,3.69-2.42a85.2,85.2,0,0,1,13-6.48,99.6,99.6,0,0,1,13.9-4.29c1.82-.41,3.3-.71,4.33-.88A8.14,8.14,0,0,1,1131.35,522.52Z"/><g class="cls-10"><path d="M1016.91,382.4a11.52,11.52,0,0,0-5.1,2.53,247.11,247.11,0,0,0-40.18,37l-2,3.78c4.53-3,9.7-6.13,15-5,4.54.95,7.84,4.75,10.79,8.34a378.27,378.27,0,0,0,29.71-43.26C1022.68,384,1019.93,382,1016.91,382.4Z"/></g><polygon class="cls-9" points="969.38 424.58 987.51 401.67 1014.76 369.13 1029.24 382.71 1003.86 422.02 985.84 411.17 969.38 424.58"/><g class="cls-10"><path d="M936.69,395c2.42,12.9,8.4,23.65,10.81,36.56,2.88-3.76,2.19-5.37,5.07-9.13,1.15-1.5,2.39-3.07,4.2-3.77,3.11-1.18,6.52.61,9.34,2.33a106.26,106.26,0,0,0-14.49-13.28l-.22,1q-7.27-9-14.93-17.81"/></g><polygon class="cls-9" points="969.11 424.45 943.65 381.07 943.65 381.07 934.55 389.44 943.17 428.26 955.38 412.53 969.11 424.45"/><path class="cls-8" d="M968.09,422.71s-.17-.24-.46-.72l-1.29-2.13c-1.13-1.91-2.79-4.68-4.91-8.25l-18-30.43.35.06-9.17,8,.08-.24c2.63,11.76,5.57,24.94,8.75,39.17l-.52-.12,12.2-15.74.19-.26.25.22c4.37,3.78,9,7.81,13.73,11.91l-.26-.07,1.47-.29-.14.08c4.41-3.92,9.28-7.8,14-11.93l1.21-1.07.16-.14.2.1c6.33,3.38,12,7.57,18,10.85l-.41.11,25.4-39.29,0,.36-14.46-13.6.39,0L983,408.2,974,419l-2.37,2.83c-.53.63-.83.95-.83.95s.25-.35.77-1l2.31-2.88L982.72,408,1014.56,369l.18-.22.2.2,14.49,13.57.17.16-.12.2-25.35,39.32-.16.24-.26-.14c-6.05-3.3-11.74-7.49-18-10.84l.36,0-1.22,1.06c-4.77,4.15-9.64,8-14,11.93l-.06.05-.09,0-1.47.28-.15,0-.12-.1-13.72-11.92.44,0L943.4,428.44l-.38.5-.14-.61c-3.14-14.24-6-27.42-8.65-39.19l0-.14.11-.1,9.19-8,.21-.19.14.24,17.8,30.53,4.8,8.31,1.24,2.17C968,422.45,968.09,422.71,968.09,422.71Z"/><path class="cls-8" d="M900.17,413.35c.17,0,.06,7.9-.26,17.63s-.71,17.62-.89,17.62-.06-7.9.26-17.64S900,413.34,900.17,413.35Z"/><path class="cls-6" d="M1007.92,560.76a12.48,12.48,0,0,0-4.43,1.61c-3.26,2.2-4,6.6-4.42,10.5-.13,1.22-.16,2.69.84,3.4a3.44,3.44,0,0,0,3,0A93.29,93.29,0,0,0,1022,567.8c3.21-1.89,6.53-4.25,7.62-7.81l.21-1.53C1023,558.13,1014.62,559.3,1007.92,560.76Z"/><path class="cls-8" d="M1036.65,529.12c-11.89,14.29-56.13,67.13-56.13,67.13l-1.68,7.58a.6.6,0,0,0,.81.69l7.12-2.81,57.14-66.44a4.76,4.76,0,0,0-.7-6.88h0A4.75,4.75,0,0,0,1036.65,529.12Z"/><polygon class="cls-4" points="1032.4 534.22 1039.61 540.27 1041.62 537.94 1034.38 531.85 1032.4 534.22"/><path class="cls-4" d="M1023.76,553.7a2.51,2.51,0,0,1-1.65-.61l-.05,0a2.55,2.55,0,0,1-.24-3.55l8.29-9.76A2.55,2.55,0,1,1,1034,543l-8.29,9.76a2.53,2.53,0,0,1-1.74.89Zm-1.4-.8a2.24,2.24,0,0,0,3.11-.3l8.29-9.76a2.25,2.25,0,0,0-.25-3.17,2.22,2.22,0,0,0-1.64-.52,2.26,2.26,0,0,0-1.53.78l-8.29,9.76a2.24,2.24,0,0,0,.26,3.17Z"/><path class="cls-4" d="M1029.74,547.85c-.12.13-1-.49-2-1.39s-1.65-1.72-1.53-1.85,1,.49,2,1.39S1029.86,547.72,1029.74,547.85Z"/><path class="cls-6" d="M1058.32,558.41l-11.14,3.9s-10.25-2.57-14.52-3.57a11.2,11.2,0,0,0-8.64,1.51c-5.25,3.4-14.27,9.26-17.5,11.41s-11.48,9-11.48,9-6,6.86-4,10.8,7.38,3.37,7.38,3.37a8.16,8.16,0,0,0,6.48,6.11s-1.36,2.14,3.76,3.5,17,0,17,0,21.84.9,23.95-.16,11.28-10.43,11.28-10.43l7.8-4.66Z"/><path class="cls-7" d="M1015.14,566a25.8,25.8,0,0,1-3.33,2.44c-2.1,1.44-5,3.37-8.17,5.65a79.52,79.52,0,0,0-7.66,6.27c-1.85,1.73-2.92,2.9-3,2.83s.19-.35.64-.91,1.14-1.33,2-2.24a59.88,59.88,0,0,1,7.61-6.46c3.15-2.29,6.14-4.17,8.3-5.52A27.58,27.58,0,0,1,1015.14,566Z"/><path class="cls-7" d="M1025.34,576.17a4.67,4.67,0,0,1-1.1.69l-3.11,1.68c-2.62,1.43-6.23,3.4-10,5.9a74.79,74.79,0,0,0-9.2,7.08c-2.19,2-3.45,3.36-3.53,3.29a5.2,5.2,0,0,1,.79-1c.54-.64,1.37-1.53,2.44-2.58a61.29,61.29,0,0,1,9.15-7.28,98.38,98.38,0,0,1,10.16-5.77c1.34-.65,2.44-1.17,3.21-1.5A5.67,5.67,0,0,1,1025.34,576.17Z"/><path class="cls-7" d="M1036.41,584.19a5.73,5.73,0,0,1-1,1c-.68.59-1.71,1.41-3,2.36-2.61,1.91-6.43,4.22-10.66,6.71a57,57,0,0,1-11.56,5c-1.54.49-2.79.86-3.66,1.1a5,5,0,0,1-1.37.3,6.35,6.35,0,0,1,1.3-.54l3.58-1.28a66.38,66.38,0,0,0,11.39-5.16c4.23-2.5,8.07-4.73,10.72-6.54,1.33-.89,2.39-1.65,3.12-2.18A5.74,5.74,0,0,1,1036.41,584.19Z"/><path class="cls-7" d="M1041.15,593.94a9.56,9.56,0,0,1-1.87,1.92,40.86,40.86,0,0,1-5.17,3.87,41.51,41.51,0,0,1-5.7,3,9.18,9.18,0,0,1-2.53.87c-.07-.18,3.69-1.75,7.9-4.44S1041,593.79,1041.15,593.94Z"/><path class="cls-8" d="M1102.83,614.58H938.11A10.61,10.61,0,0,1,948.71,604h143.52a10.6,10.6,0,0,1,10.6,10.61Z"/><path class="cls-11" d="M903.74,605.52l-76.18-.37L801.74,482.88a10.88,10.88,0,0,0-10.65-8.67H631.88a10.88,10.88,0,0,0-10.63,13.19l26.23,120.27a8.78,8.78,0,0,0,8.58,6.91H914.8C914.8,608.39,909.92,605.52,903.74,605.52Z"/><path class="cls-8" d="M822.55,614.58c-.17,0-7.35-31.36-16-70.12s-15.59-70.22-15.42-70.25,7.35,31.35,16,70.12S822.72,614.54,822.55,614.58Z"/><path class="cls-2" d="M728.42,542.6c3.78,5.08,3.19,11.91-1.32,15.26s-11.22,1.94-15-3.14-3.18-11.91,1.32-15.26S724.65,537.52,728.42,542.6Z"/><rect class="cls-8" x="857.36" y="607.17" width="11.03" height="5.06" rx="2.08"/><path class="cls-8" d="M974.84,609.19a2,2,0,0,1,.32.35,3.13,3.13,0,0,1,.56,1.29,5.22,5.22,0,0,1-2,4.81,7.24,7.24,0,0,1-3.65,1.38,20.24,20.24,0,0,1-4.63-.13,27.07,27.07,0,0,0-5.25-.31,8.55,8.55,0,0,0-2.73.64,4,4,0,0,0-2.16,1.81,2.61,2.61,0,0,0,.59,2.73,6.43,6.43,0,0,0,2.62,1.81,23.36,23.36,0,0,1,3.22,1.39,4.31,4.31,0,0,1,2.22,3c.42,2.63-1.49,5.25-4,6.17s-5.3.94-8,1A134.63,134.63,0,0,1,934.63,634c-6-.7-12.1-1.58-18.41-2.14a97.47,97.47,0,0,0-18.47-.05c-6,.56-11.69,1.38-17.22,1.48a29.16,29.16,0,0,1-8.07-.72,11.21,11.21,0,0,1-6.43-4.08,8.06,8.06,0,0,1-1.5-6.9,4.91,4.91,0,0,1,5.16-3.64,2.79,2.79,0,0,1,2.36,2,3.73,3.73,0,0,1-2.94,4.44,4.59,4.59,0,0,1-2.61-.35,6.17,6.17,0,0,1-3.19-3.34,11.3,11.3,0,0,1-.81-3.82c-.09-2.35.13-4.15.12-5.37,0-.61,0-1.08,0-1.39a2,2,0,0,1,0-.48,3.58,3.58,0,0,1,.07.47c0,.32.06.79.07,1.4,0,1.23-.13,3,0,5.35a11.06,11.06,0,0,0,.83,3.72,5.87,5.87,0,0,0,3.06,3.13,4.25,4.25,0,0,0,2.4.31,3.2,3.2,0,0,0,2.09-1.39,3.16,3.16,0,0,0,.51-2.57,2.37,2.37,0,0,0-2-1.69,4.46,4.46,0,0,0-4.63,3.34,7.56,7.56,0,0,0,1.45,6.45A10.77,10.77,0,0,0,872.6,632a29,29,0,0,0,7.91.68c5.49-.12,11.21-1,17.19-1.51a96.85,96.85,0,0,1,18.57,0c6.34.56,12.49,1.45,18.43,2.16a137.66,137.66,0,0,0,17.18,1.15c2.73-.06,5.47,0,7.84-.95a6.06,6.06,0,0,0,2.87-2.22,4.74,4.74,0,0,0,.84-3.35,3.79,3.79,0,0,0-2-2.61,23.16,23.16,0,0,0-3.14-1.38,6.9,6.9,0,0,1-2.8-2,3.91,3.91,0,0,1-.79-1.51,2.65,2.65,0,0,1,.15-1.69,4.45,4.45,0,0,1,2.4-2,9,9,0,0,1,2.87-.65,26.55,26.55,0,0,1,5.32.36,20.41,20.41,0,0,0,4.56.18,7.07,7.07,0,0,0,3.53-1.27,5.12,5.12,0,0,0,2-4.6A3.58,3.58,0,0,0,974.84,609.19Z"/><path class="cls-4" d="M1100.87,609.24c0,.17-36.15.31-80.73.31s-80.73-.14-80.73-.31,36.14-.32,80.73-.32S1100.87,609.06,1100.87,609.24Z"/><rect class="cls-2" x="652.58" y="125.56" width="178.08" height="69.23"/><path class="cls-8" d="M830.66,194.79s0-.44,0-1.25,0-2,0-3.59c0-3.17,0-7.8-.08-13.76,0-11.94-.11-29.2-.19-50.63l.35.34-178.07.15h0l.49-.49c0,24.2,0,47.59,0,69.23l-.47-.48,127.55.23,37.1.13,9.95.06,2.58,0,.9,0s-.28,0-.84,0l-2.53,0-9.85.06-37,.13-127.87.22h-.48v-.47c0-21.64,0-45,0-69.23v-.5h.51l178.07.16H831v.34c-.08,21.52-.14,38.85-.19,50.84,0,5.93-.06,10.53-.08,13.68,0,1.53,0,2.7,0,3.53S830.66,194.79,830.66,194.79Z"/><rect class="cls-8" x="652.58" y="125.56" width="178.08" height="14.83"/><rect class="cls-8" x="673.74" y="151.71" width="17.49" height="17.49"/><rect class="cls-8" x="684.33" y="162.3" width="17.49" height="17.49"/><rect class="cls-8" x="715.42" y="151.71" width="17.49" height="17.49"/><rect class="cls-2" x="726.02" y="162.3" width="17.49" height="17.49"/><path class="cls-8" d="M743.5,179.79a9.24,9.24,0,0,1-.09-1.35c0-1-.07-2.18-.12-3.6-.08-3.08-.17-7.39-.21-12.54l.42.43-17.48.06.49-.49h0V167c0,1.54,0,3,0,4.52,0,2.92,0,5.69,0,8.25l-.42-.43c5.15,0,9.46.14,12.54.22l3.6.11a6.85,6.85,0,0,1,1.34.1,5,5,0,0,1-1.16.09l-3.51.12c-3.05.08-7.47.17-12.81.21h-.43v-.43c0-2.56,0-5.33-.05-8.25,0-1.47,0-3,0-4.52,0-.78,0-1.56,0-2.34v-2.37h0l.5-.5,17.48.07h.44v.43c0,5.34-.14,9.77-.22,12.81,0,1.39-.08,2.55-.11,3.51A4.22,4.22,0,0,1,743.5,179.79Z"/><rect class="cls-2" x="754.32" y="151.71" width="17.49" height="17.49"/><path class="cls-8" d="M771.81,169.19a8,8,0,0,1-.1-1.34c0-1-.07-2.18-.11-3.6-.08-3.08-.18-7.39-.22-12.54l.43.42-17.49.07.49-.49h0v4.7c0,1.55,0,3.05,0,4.52,0,2.93,0,5.7,0,8.25l-.43-.42c5.15,0,9.47.13,12.54.21l3.6.12a8.9,8.9,0,0,1,1.35.09,4.22,4.22,0,0,1-1.17.1l-3.51.11c-3,.08-7.47.18-12.81.22h-.43v-.44c0-2.55,0-5.32,0-8.25,0-1.47,0-3,0-4.52,0-.77,0-1.55,0-2.33v-2.37h0l.5-.5,17.49.07h.43v.43c0,5.34-.14,9.76-.22,12.81,0,1.39-.08,2.55-.11,3.51A5.29,5.29,0,0,1,771.81,169.19Z"/><rect class="cls-2" x="764.91" y="162.3" width="17.49" height="17.49"/><path class="cls-8" d="M782.4,179.79a10,10,0,0,1-.1-1.35c0-1-.07-2.18-.11-3.6-.08-3.08-.18-7.39-.22-12.54l.43.43-17.49.06.5-.49h0V167c0,1.54,0,3,0,4.52,0,2.92,0,5.69,0,8.25l-.43-.43c5.15,0,9.47.14,12.54.22l3.6.11a6.9,6.9,0,0,1,1.35.1,5.21,5.21,0,0,1-1.17.09l-3.5.12c-3.05.08-7.48.17-12.82.21h-.43v-.43c0-2.56,0-5.33-.05-8.25,0-1.47,0-3,0-4.52v-4.71h0c-.45.44.6-.61.49-.5l17.49.07h.43v.43c-.05,5.34-.14,9.77-.22,12.81-.05,1.39-.08,2.55-.11,3.51A5.6,5.6,0,0,1,782.4,179.79Z"/><rect class="cls-8" x="764.91" y="162.3" width="6.9" height="6.9"/><rect class="cls-8" x="790.08" y="151.71" width="17.49" height="17.49"/><rect class="cls-8" x="800.67" y="162.3" width="17.49" height="17.49"/><rect class="cls-11" x="800.67" y="162.3" width="6.9" height="6.9"/><rect class="cls-2" x="554.94" y="235.07" width="209.77" height="81.55"/><path class="cls-12" d="M765,316.91H554.65V234.78H765Zm-209.77-.58H764.42v-81H555.23Z"/><rect class="cls-8" x="554.94" y="235.07" width="209.77" height="17.47"/><rect class="cls-2" x="566.76" y="274.36" width="20.73" height="20.73"/><path class="cls-8" d="M587.49,295.08a9.37,9.37,0,0,1-.12-1.59c0-1.18-.08-2.59-.14-4.27-.1-3.65-.21-8.76-.27-14.86l.53.52-20.72.09c-.14.13,1.14-1.15.6-.61h0V280c0,1.83,0,3.61,0,5.36,0,3.46,0,6.74-.06,9.77l-.53-.52c6.1.05,11.22.17,14.86.27l4.27.13a11.11,11.11,0,0,1,1.6.12,50.06,50.06,0,0,1-5.53.26c-3.61.1-8.86.22-15.2.27h-.52v-.53c0-3,0-6.31-.06-9.77,0-1.75,0-3.53,0-5.36v-5.57h0l.61-.61,20.72.08H588v.52c0,6.33-.17,11.58-.26,15.19A50.06,50.06,0,0,1,587.49,295.08Z"/><line class="cls-13" x1="587.49" y1="274.36" x2="566.76" y2="295.08"/><path class="cls-9" d="M566.76,295.08c-.23-.23,4.21-5.07,9.94-10.79s10.55-10.17,10.79-9.93-4.21,5.07-9.94,10.79S567,295.32,566.76,295.08Z"/><rect class="cls-8" x="593.73" y="274.36" width="20.73" height="20.73"/><rect class="cls-4" x="620.7" y="274.36" width="20.73" height="20.73"/><rect class="cls-9" x="647.67" y="274.36" width="20.73" height="20.73"/><rect class="cls-9" x="674.64" y="274.36" width="20.73" height="20.73"/><g class="cls-14"><rect class="cls-2" x="674.64" y="274.36" width="20.73" height="20.73"/></g><rect class="cls-15" x="701.6" y="274.36" width="20.73" height="20.73"/><g class="cls-10"><rect x="701.6" y="274.36" width="20.73" height="20.73"/></g><rect class="cls-16" x="728.57" y="274.36" width="20.73" height="20.73"/><rect class="cls-2" x="20.04" y="150.13" width="96.19" height="164.99"/><path class="cls-12" d="M116.23,315.12s0-.29,0-.82,0-1.33,0-2.35c0-2.1,0-5.14-.05-9.1,0-8-.07-19.51-.12-34.09-.05-29.14-.12-70.33-.2-118.63l.42.42-96.18,0h0l.45-.45c0,62.94-.07,120.66-.1,165l-.35-.35,70.12.18,19.27.09,5,0c1.14,0,1.75,0,1.75,0l-1.68,0-5,0-19.19.09L20,315.47h-.35v-.35c0-44.33-.06-102.05-.1-165v-.45h.46l96.18,0h.42v.42c-.09,48.41-.16,89.7-.21,118.91,0,14.54-.08,26.07-.11,34,0,3.92,0,6.94,0,9,0,1,0,1.76,0,2.3S116.23,315.12,116.23,315.12Z"/><polygon class="cls-8" points="43.15 181.38 44.32 196.79 48.62 191.17 55.81 190.87 43.15 181.38"/><path class="cls-8" d="M84.72,181.38s.31.2.91.63l2.63,1.89c2.27,1.63,5.53,4,9.28,6.77l.58.43-.72,0-7,.3H90.2l.21-.1-4.32,5.6-.41.54-.05-.67c-.33-4.57-.54-8.49-.69-11.2-.07-1.21-.13-2.25-.17-3.15,0-.73-.06-1.1,0-1.08s.06.46.14,1.22c.09.92.19,2,.31,3.23.26,2.74.63,6.52,1,10.94l-.46-.14L90,191l.07-.1h.38l6.94-.28-.14.47c-3.61-2.73-6.68-5.12-8.9-6.86l-2.63-2.05C85.08,181.69,84.74,181.41,84.72,181.38Z"/><path class="cls-8" d="M40.36,248.41c-.11-.11,4.68-5.21,10.7-11.4s11-11.13,11.09-11-4.69,5.2-10.7,11.4S40.46,248.51,40.36,248.41Z"/><path class="cls-8" d="M107.14,237a27.65,27.65,0,0,0-.53-3.43,14.32,14.32,0,0,0-5-7.76,13.66,13.66,0,0,0-5.82-2.67,13.54,13.54,0,0,0-13.63,5.62,14.37,14.37,0,0,0,0,16.49,13.6,13.6,0,0,0,6.34,5,13.37,13.37,0,0,0,7.29.65,13.66,13.66,0,0,0,5.82-2.67,14.28,14.28,0,0,0,5-7.76,27.65,27.65,0,0,0,.53-3.43,11.71,11.71,0,0,1-.33,3.48,14.26,14.26,0,0,1-5,8,13.75,13.75,0,0,1-13.52,2.19,14.1,14.1,0,0,1-6.61-5.13,14.82,14.82,0,0,1,0-17.1,14,14,0,0,1,6.6-5.13,13.78,13.78,0,0,1,7.54-.62,14,14,0,0,1,6,2.81,14.26,14.26,0,0,1,5,8A11.71,11.71,0,0,1,107.14,237Z"/><path class="cls-8" d="M94.68,273.69s.12.07.34.25l1,.84L99.81,278l.12.1-.11.12L83.67,296.82l-.07.08h-.1l-1.94.3-3.5.52-.38.06.07-.37c.44-2.21.86-4.35,1.26-6.37l0-.06,0-.06c4.38-5.15,8.2-9.54,11-12.6s4.53-4.77,4.64-4.64l-.33.31c-.19.21-.5.51-.88.93-.76.82-1.84,2.06-3.19,3.62-2.7,3.11-6.47,7.55-10.82,12.72l.06-.12c-.39,2-.81,4.16-1.24,6.37l-.3-.32,3.5-.53,1.94-.29-.16.09L99.58,278v.23L96,274.94c-.37-.34-.68-.64-1-.91A2.24,2.24,0,0,1,94.68,273.69Z"/><path class="cls-8" d="M59.49,296.19a2.37,2.37,0,0,1,0-.45c0-.36,0-.78,0-1.27q0-1.82-.06-4.74c0-4.18-.07-9.92-.12-16.74l.23.23-22.55,0,.27-.27h0v6.24c0,2.05,0,4.06,0,6,0,3.89,0,7.56,0,10.93l-.23-.23,16.28.12,4.6.06,1.23,0,.44,0a1.7,1.7,0,0,1-.39,0l-1.18,0-4.55.06-16.43.12h-.23v-.24c0-3.37,0-7,0-10.93,0-1.95,0-4,0-6V273h0l.27-.28,22.55,0h.24V273c0,6.88-.09,12.67-.12,16.89,0,1.93,0,3.49-.06,4.69,0,.47,0,.87,0,1.22A1.76,1.76,0,0,1,59.49,296.19Z"/><path class="cls-8" d="M40.36,273a22.32,22.32,0,0,1-4.89.27,22.32,22.32,0,0,1-4.89-.27,21.93,21.93,0,0,1,4.89-.28A21.93,21.93,0,0,1,40.36,273Z"/><path class="cls-8" d="M36.94,277.45a28.29,28.29,0,0,1-.27-5.51,28.14,28.14,0,0,1,.27-5.5,28.14,28.14,0,0,1,.27,5.5A28.29,28.29,0,0,1,36.94,277.45Z"/><path class="cls-2" d="M85.94,88a.74.74,0,0,1-.53-.21L68,70.65a.75.75,0,1,1,1.06-1.07L86.46,86.7a.76.76,0,0,1,0,1.07A.74.74,0,0,1,85.94,88Z"/><path class="cls-2" d="M86.55,70a.74.74,0,0,1-.22.53L69.19,87.91a.75.75,0,1,1-1.07-1.06l17.14-17.4a.75.75,0,0,1,1.06,0A.74.74,0,0,1,86.55,70Z"/><path class="cls-5" d="M1006.72,309.58v0Z"/><path class="cls-5" d="M1007,310v0Z"/><path class="cls-5" d="M908.92,265.21c1.52-8.62,18.12-25.31,33.93-12.3,14.67-7.43,25.8-8.49,38.07-1.33,10.49,6.24,8.09,17,17.45,24.42,9.61,7.7,4.68,21.11,4.68,21.11s16.57-51.63-9.23-67.42c-7-4.52-14.17-9.16-23.78-10.62-12.64-1.86-22.64.93-32.63,4.91C926.92,228.36,911.45,235.48,908.92,265.21Z"/><path class="cls-17" d="M908.92,265.21a15.31,15.31,0,0,1,2-4.94,27.22,27.22,0,0,1,11.86-10.53,18.62,18.62,0,0,1,10.51-1.47,19.21,19.21,0,0,1,5.12,1.62,25.21,25.21,0,0,1,4.51,2.92h-.14a67.2,67.2,0,0,1,10.82-4.48,37.17,37.17,0,0,1,11.57-1.72,31.48,31.48,0,0,1,11.39,2.6,36.8,36.8,0,0,1,5.19,2.75,17.56,17.56,0,0,1,4.36,3.93c2.51,3.07,3.82,6.85,5.41,10.38a33.53,33.53,0,0,0,2.78,5.1,21.9,21.9,0,0,0,3.91,4.25,16.06,16.06,0,0,1,6,9.92,24.38,24.38,0,0,1-.92,11.65l-.42-.14a129.69,129.69,0,0,0,4.58-22.68,79.13,79.13,0,0,0-.46-23.05,40.23,40.23,0,0,0-3.65-10.9,26.81,26.81,0,0,0-7.2-8.87c-.76-.58-1.57-1.1-2.36-1.66l-2.43-1.57c-1.63-1-3.27-2.06-5-3a51,51,0,0,0-10.54-4.7,44.19,44.19,0,0,0-11.37-1.88,52.33,52.33,0,0,0-11.52.75,68.82,68.82,0,0,0-11.17,3A86,86,0,0,0,931.11,227a39.79,39.79,0,0,0-9.39,6.68,35.86,35.86,0,0,0-6.87,9.25C911.31,249.83,909.62,257.53,908.92,265.21Zm0,0c.66-7.68,2.3-15.4,5.81-22.33a36,36,0,0,1,6.84-9.35,39.59,39.59,0,0,1,9.42-6.76,88.18,88.18,0,0,1,10.69-4.55,70,70,0,0,1,11.2-3.07,52.37,52.37,0,0,1,11.59-.77,44.56,44.56,0,0,1,11.47,1.86A52,52,0,0,1,986.56,225c1.69,1,3.34,2,5,3l2.44,1.57c.8.55,1.61,1.09,2.39,1.67a27.31,27.31,0,0,1,7.34,9,40.22,40.22,0,0,1,3.7,11,79.06,79.06,0,0,1,.51,23.19,130.18,130.18,0,0,1-4.65,22.76l-.42-.15a23.84,23.84,0,0,0,.92-11.43,15.68,15.68,0,0,0-5.8-9.69,22.08,22.08,0,0,1-4-4.33,34.44,34.44,0,0,1-2.8-5.17c-1.59-3.55-2.88-7.29-5.34-10.31s-5.88-5-9.41-6.6a31.32,31.32,0,0,0-11.27-2.6,37,37,0,0,0-11.48,1.68A67,67,0,0,0,942.91,253l-.07,0-.07-.05a26.26,26.26,0,0,0-4.45-2.92,18.76,18.76,0,0,0-5.05-1.63,18.52,18.52,0,0,0-10.43,1.4A27.22,27.22,0,0,0,911,260.29,15.27,15.27,0,0,0,908.92,265.21Z"/><path class="cls-5" d="M1000.5,235.5c4.43,3.85,7.48-.24,8.62-3.69,1.52-4.78,1.26-10.49-2.28-14.34s-9.36-5.7-14-3.58-8.46,6.7-6.31,11.61"/><path class="cls-17" d="M1000.5,235.5a5.75,5.75,0,0,0,3.16,1.47,4,4,0,0,0,3.09-1.34,11.88,11.88,0,0,0,2.77-6.35,15.92,15.92,0,0,0-.28-7,12,12,0,0,0-1.42-3.18,12.75,12.75,0,0,0-2.32-2.6,13.77,13.77,0,0,0-6.22-3.08,10.76,10.76,0,0,0-6.82.81,12.63,12.63,0,0,0-5.33,4.48A7.45,7.45,0,0,0,986,222a7,7,0,0,0,.54,3.47,7.3,7.3,0,0,1-.67-3.48,7.71,7.71,0,0,1,1.1-3.41,12.88,12.88,0,0,1,5.36-4.69,11,11,0,0,1,7.08-.91,14.15,14.15,0,0,1,6.45,3.15,11.83,11.83,0,0,1,3.87,6,16.37,16.37,0,0,1,.24,7.17,12,12,0,0,1-3,6.47,4.06,4.06,0,0,1-3.29,1.28A5.82,5.82,0,0,1,1000.5,235.5Z"/><path class="cls-17" d="M1008.49,225.84a11.51,11.51,0,0,1-5.19,3.45,16.12,16.12,0,0,1-3.41.4,9,9,0,0,1-2.78-.4c-1.4-.4-2.41-.93-2.41-.8a4.51,4.51,0,0,0,.51.4,8.4,8.4,0,0,0,1.77.8,10.66,10.66,0,0,0,6.32.13,11.75,11.75,0,0,0,5.19-3.72,5.45,5.45,0,0,0,.76-1.86,1,1,0,0,0,0-.66A4.64,4.64,0,0,1,1008.49,225.84Z"/><path class="cls-17" d="M1005.33,219.86a13.58,13.58,0,0,1-4.18,4.52,11.52,11.52,0,0,1-5.69,2.12c-1.52.27-2.53,0-2.53.13a3.15,3.15,0,0,1,.63.14,8.19,8.19,0,0,0,1.9.13,11.71,11.71,0,0,0,5.95-2,11.39,11.39,0,0,0,4.29-4.78,9.33,9.33,0,0,0,.76-1.86,2.37,2.37,0,0,0,.13-.66A7.3,7.3,0,0,1,1005.33,219.86Z"/><path class="cls-9" d="M1000.77,235.52a28.41,28.41,0,0,0-5.06-5.44,24.12,24.12,0,0,0-6.19-4,18.33,18.33,0,0,0-2.91-1.06,11.49,11.49,0,0,0,2.78,1.46,68.34,68.34,0,0,1,6.07,4.11,29,29,0,0,1,5.19,5.18,13.21,13.21,0,0,0,1.77,2.52A12.52,12.52,0,0,0,1000.77,235.52Z"/><path class="cls-17" d="M948.42,233a46.46,46.46,0,0,1,9.86-7.69A28.92,28.92,0,0,1,970,221.59a24.88,24.88,0,0,1,12,1.72A27.92,27.92,0,0,0,970,222a32,32,0,0,0-11.51,3.85,44.52,44.52,0,0,0-9.73,7.43c-1.4,1.33-2.79,2.92-4.18,4.51a47.74,47.74,0,0,0-3.79,5A51.28,51.28,0,0,1,948.42,233Z"/><path class="cls-17" d="M966.12,229.55a32.09,32.09,0,0,1,9.36-2.65,24.13,24.13,0,0,1,9.74.93,15.09,15.09,0,0,1,4.42,2.12,17.65,17.65,0,0,1,3.8,3.19,21.49,21.49,0,0,0-8.35-4.91,26.14,26.14,0,0,0-4.68-.8,29.62,29.62,0,0,0-4.8.13,32.73,32.73,0,0,0-9.36,2.39,27.12,27.12,0,0,0-4.43,2,27.83,27.83,0,0,0-4.3,2.39A37.24,37.24,0,0,1,966.12,229.55Z"/><path class="cls-17" d="M937.54,236.72a13.17,13.17,0,0,1,1.77-5.84,21.52,21.52,0,0,1,3.92-4.51,27.09,27.09,0,0,1,2.4-1.73,16.51,16.51,0,0,1,2.53-1.46,25.7,25.7,0,0,1-2.4,1.73c-.76.66-1.52,1.19-2.28,1.86a20.42,20.42,0,0,0-3.66,4.51,15.93,15.93,0,0,0-1.52,11.54A12.15,12.15,0,0,1,937.54,236.72Z"/><path class="cls-17" d="M951,240.57a12.43,12.43,0,0,1,7.2-1.59A12.14,12.14,0,0,1,965,241.9a40.93,40.93,0,0,1,5.19,5.44c3.41,3.71,7.46,6.9,12.14,8a14.79,14.79,0,0,0,7.21-.13,39.91,39.91,0,0,0,6.83-2.79,30.33,30.33,0,0,1-6.71,3.05,15.18,15.18,0,0,1-7.33.27,15.87,15.87,0,0,1-6.83-2.92,29.11,29.11,0,0,1-5.69-4.91,49.38,49.38,0,0,0-5.19-5.31,13,13,0,0,0-6.45-2.92A11.48,11.48,0,0,0,951.2,241a19.3,19.3,0,0,0-5.82,4.51A28.16,28.16,0,0,1,951,240.57Z"/><path class="cls-17" d="M982.44,235.92a14,14,0,0,1,4.17,2.92,15.36,15.36,0,0,1,2.91,4.25,9.67,9.67,0,0,0,.88,2c.13-.13,0-.93-.5-2.26a13,13,0,0,0-7.34-7.43,6.13,6.13,0,0,0-2.15-.53C980.41,235,981.3,235.13,982.44,235.92Z"/><path class="cls-17" d="M930.84,237.78c-.51-2.12-.76-3.85-.89-3.85a8.28,8.28,0,0,0,.38,4c.63,2.13,1.65,3.72,1.77,3.59A34.82,34.82,0,0,0,930.84,237.78Z"/><path class="cls-6" d="M1002.92,299s8.35-22.7,5.06-43c0,0-3.67,16.46-20.61,11.68.63,3.59-1,10.89,2.4,13.67A44.22,44.22,0,0,1,1002.92,299Z"/><path class="cls-5" d="M915.27,335.41c.25-3.78,4.76-5.67,8.46-5.14s8.36,1.15,11.95.13c10.31-3,16-6.4,25.76-7.51,4.48-.56,8.64-.1,13.24.17s10.05-1.63,11-6.24c.5-2.13-.22-4.55,0-6.76s2.1-4.66,4.19-4,2.27,3.4,2.24,5.57c-.22,7-.46,13.95-1.77,20.78s-1.56,12.9-2.87,19.73c-4,20.15-17.9,30.94-35.13,33.78-2.51.38-15.17-.61-17.13,1.14s-4.85,2.78-7.13,1.56a9.49,9.49,0,0,0,2.32-6.27c-4.56,3.1-10.9.56-14.47-3.72a21.63,21.63,0,0,1-4.73-17.39c.79-4.82,3.25-9.41,2.29-14.22-.47-2.34-1.72-4.44-1.94-6.7s1.4-5.4,3.61-5.49"/><path class="cls-17" d="M911.83,337.38a5.43,5.43,0,0,0-.6,3.83c.53,2.69,2,5,2.11,7.76A28.11,28.11,0,0,1,912,356.9a24.91,24.91,0,0,0-1.4,7.81,22,22,0,0,0,5.47,14.5,14.07,14.07,0,0,0,6.46,4.09,8.13,8.13,0,0,0,7.35-.87l.33-.17.05.35a10.57,10.57,0,0,1-2.42,6.4l-.06-.35a5.26,5.26,0,0,0,3.1.38,7.22,7.22,0,0,0,3-1.3c.42-.3.83-.72,1.36-1.05a9.44,9.44,0,0,1,1.68-.49c1.15-.17,2.19-.21,3.35-.27,2.21-.09,4.44-.06,6.66,0h3.28c.57-.08,1,0,1.61-.12s1-.27,1.59-.36a43,43,0,0,0,23.07-12.17,37.8,37.8,0,0,0,7.32-11.12,52.7,52.7,0,0,0,3.66-13c.73-4.45,1.08-9.09,1.81-13.54.25-2.21.85-4.47,1.1-6.68a59.8,59.8,0,0,0,.74-6.75c.11-2.31.25-4.5.37-6.81s.37-4.52-.2-6.73a3,3,0,0,0-2-2.23,2.81,2.81,0,0,0-2.62,1.24,6.84,6.84,0,0,0-1.06,3.05,27.93,27.93,0,0,0,.16,3.36,8.78,8.78,0,0,1-.31,3.42,6.66,6.66,0,0,1-1.78,2.92,10.22,10.22,0,0,1-6,2.84,29.82,29.82,0,0,1-6.68-.08,57.28,57.28,0,0,0-6.58-.21,48.86,48.86,0,0,0-13,2.32c-4.24,1.36-8.32,2.95-12.56,4.31a24.67,24.67,0,0,1-6.43,1.57,38.12,38.12,0,0,1-6.6-.33c-1.2-.18-2.28-.38-3.34-.46a9.64,9.64,0,0,0-3.2.49,7.52,7.52,0,0,0-2.78,1.74,4.48,4.48,0,0,0-1.42,3,5.49,5.49,0,0,1,1.42-3,6.77,6.77,0,0,1,2.78-1.74,7.73,7.73,0,0,1,3.31-.5,25.19,25.19,0,0,1,3.33.34,29.71,29.71,0,0,0,6.6.33,24.6,24.6,0,0,0,6.42-1.57c4.24-1.37,8.31-3.07,12.55-4.43a54.78,54.78,0,0,1,13.1-2.34,62.6,62.6,0,0,1,6.69.2c2.24.14,4.41.54,6.56.09a10.32,10.32,0,0,0,5.8-2.68,7.23,7.23,0,0,0,1.89-6.08,33.46,33.46,0,0,1-.18-3.47,6.1,6.1,0,0,1,1.14-3.31,3,3,0,0,1,3.06-1.43,3.44,3.44,0,0,1,1.55,1,4.14,4.14,0,0,1,.82,1.57c.58,2.32.22,4.55.21,6.84s-.25,4.51-.37,6.82-.35,4.63-.72,6.86-.73,4.45-1.1,6.68c-.73,4.45-1.08,9.09-1.81,13.55-1.22,9-4.79,17.85-11,24.46s-14.66,10.54-23.3,12.21l-1.6.24a7.28,7.28,0,0,1-1.62.12h-3.27c-2.23,0-4.45-.05-6.66,0a31.67,31.67,0,0,0-3.24.25,6.93,6.93,0,0,0-1.58.36,9,9,0,0,0-1.38.93,7.6,7.6,0,0,1-3.08,1.31,5.2,5.2,0,0,1-3.34-.46l-.25-.08.21-.15a9.67,9.67,0,0,0,2.24-6.13l.26.2a9,9,0,0,1-7.58.9,15.7,15.7,0,0,1-6.62-4.31,21.2,21.2,0,0,1-5.49-14.73,29.1,29.1,0,0,1,1.5-7.83,28.37,28.37,0,0,0,1.4-7.81c0-2.78-1.49-5.2-2-7.78a5.59,5.59,0,0,1,.58-3.95,3.8,3.8,0,0,1,2.93-2.25C913.79,334.91,912.77,335.91,911.83,337.38Z"/><path class="cls-2" d="M941.61,338.6a10.62,10.62,0,0,0,5.63-1.34,10.15,10.15,0,0,0,4.22-4.12,22.34,22.34,0,0,1,1.31-2.2c.11,0,.16,1.12-.57,2.69a9.93,9.93,0,0,1-4.34,4.83,10,10,0,0,1-6.29,1.1c-1.6-.27-2.43-.89-2.41-1S940.21,338.61,941.61,338.6Z"/><path class="cls-17" d="M977,341.53a21.62,21.62,0,0,0,1.15-5.6,20.45,20.45,0,0,0-.38-5.61,7,7,0,0,0-.7-2.31c-.23,0,.65,3.52.37,7.91a40.41,40.41,0,0,1-1.52,7.71A13.88,13.88,0,0,0,977,341.53Z"/><path class="cls-17" d="M964.38,371.79a17.48,17.48,0,0,0,1.14-1.74c.37-.66,1-1.47,1.4-2.38a49.81,49.81,0,0,0,2.86-6.59,47.06,47.06,0,0,0,2.22-8.54,53.53,53.53,0,0,0,.53-8.88,42.24,42.24,0,0,0-.74-7.25,21.89,21.89,0,0,0-.53-2.7c-.24-.81-.34-1.51-.55-2.09-.4-1.14-.49-1.73-.61-1.71s.72,2.42,1.33,6.43a58.14,58.14,0,0,1,.61,7.15,70.41,70.41,0,0,1-.67,8.78,45.72,45.72,0,0,1-2.12,8.41,49.62,49.62,0,0,1-2.86,6.58c-1.81,3.53-3.37,5.58-3.24,5.68S963.55,372.52,964.38,371.79Z"/><path class="cls-17" d="M965.27,361.4a11.18,11.18,0,0,0,.39-4.4,20.76,20.76,0,0,0-1,4.25,21.68,21.68,0,0,0-.86,4.35C964,365.69,964.82,363.88,965.27,361.4Z"/><path class="cls-17" d="M959.77,363a25.33,25.33,0,0,0,.58-7.8c-.23,0-.29,3.54-1.18,7.65s-1.94,7.29-1.81,7.39S959,367.05,959.77,363Z"/><path class="cls-17" d="M942,356.47a6.5,6.5,0,0,0,.87-3.51c-.12,0-.59,1.54-1.39,3.23s-1.51,3.12-1.38,3.22S941.29,358.26,942,356.47Z"/><path class="cls-17" d="M920.24,369.89a16.44,16.44,0,0,1,2-5.25,15.74,15.74,0,0,1,3.69-4.18,13.46,13.46,0,0,0,1.88-1.49c-.13-.1-1,.27-2.18,1a14,14,0,0,0-3.92,4.21,15.14,15.14,0,0,0-2,5.49c-.23,1.6-.09,2.55,0,2.53S919.88,371.39,920.24,369.89Z"/><path class="cls-17" d="M916.27,362.16c1.73-1.71,3.19-2.89,3.05-3a8.62,8.62,0,0,0-3.47,2.57c-1.71,1.83-2.49,3.63-2.36,3.74S914.8,364.07,916.27,362.16Z"/><path class="cls-17" d="M927.17,369.32a20.72,20.72,0,0,1,2.49-6.77,22.9,22.9,0,0,1,4.43-5.49c1.46-1.19,2.42-1.81,2.29-1.91s-1.11.4-2.57,1.59a19.47,19.47,0,0,0-7,12.52,8.18,8.18,0,0,0,0,3S926.87,371.18,927.17,369.32Z"/><path class="cls-17" d="M923.44,346.12a7.64,7.64,0,0,1-3.16-2.3A6.53,6.53,0,0,1,919,340c.09-1,.22-1.6.09-1.7a3.4,3.4,0,0,0-.45,1.64,6.3,6.3,0,0,0,1.19,4,6.92,6.92,0,0,0,3.61,2.23c1.07.08,1.75,0,1.74-.14S924.47,346,923.44,346.12Z"/><path class="cls-17" d="M926.61,344.68a4.88,4.88,0,0,1-2.86-1.14,5.35,5.35,0,0,1-1.82-2.74c-.24-.81-.21-1.42-.33-1.4s-.15.51,0,1.45a5.53,5.53,0,0,0,1.75,3.11,5.91,5.91,0,0,0,3.32,1.07c1.05,0,1.49-.22,1.47-.34S927.54,344.66,926.61,344.68Z"/><path class="cls-17" d="M932,341.45a5.94,5.94,0,0,1-2.88.32,4.35,4.35,0,0,1-2.44-1.44c-.45-.66-.52-1.13-.63-1.11a1.68,1.68,0,0,0,.31,1.28,4.14,4.14,0,0,0,2.72,1.76,4.93,4.93,0,0,0,3.2-.49c.77-.35,1.19-.66,1.17-.78S932.87,341.2,932,341.45Z"/><path class="cls-3" d="M1115.16,152.81c0-.23,1.1-.42,2.47-.42s2.46.19,2.46.42-1.1.43-2.46.43S1115.16,153.05,1115.16,152.81Z"/><path class="cls-3" d="M1105.29,152.81c0-.23,1.1-.42,2.47-.42s2.46.19,2.46.42-1.1.43-2.46.43S1105.29,153.05,1105.29,152.81Z"/><path class="cls-3" d="M1095.42,152.81c0-.23,1.11-.42,2.47-.42s2.47.19,2.47.42-1.11.43-2.47.43S1095.42,153.05,1095.42,152.81Z"/><path class="cls-3" d="M1085.55,152.81c0-.23,1.11-.42,2.47-.42s2.47.19,2.47.42-1.11.43-2.47.43S1085.55,153.05,1085.55,152.81Z"/><path class="cls-3" d="M1075.68,152.81c0-.23,1.11-.42,2.47-.42s2.47.19,2.47.42-1.11.43-2.47.43S1075.68,153.05,1075.68,152.81Z"/><path class="cls-3" d="M1065.82,152.81c0-.23,1.1-.42,2.46-.42s2.47.19,2.47.42-1.1.43-2.47.43S1065.82,153.05,1065.82,152.81Z"/><path class="cls-3" d="M1056,152.81c0-.23,1.1-.42,2.46-.42s2.47.19,2.47.42-1.1.43-2.47.43S1056,153.05,1056,152.81Z"/><path class="cls-3" d="M1046.08,152.81c0-.23,1.1-.42,2.47-.42s2.46.19,2.46.42-1.1.43-2.46.43S1046.08,153.05,1046.08,152.81Z"/><path class="cls-3" d="M1036.21,152.81c0-.23,1.11-.42,2.47-.42s2.46.19,2.46.42-1.1.43-2.46.43S1036.21,153.05,1036.21,152.81Z"/><path class="cls-3" d="M1026.34,152.81c0-.23,1.11-.42,2.47-.42s2.47.19,2.47.42-1.11.43-2.47.43S1026.34,153.05,1026.34,152.81Z"/><path class="cls-3" d="M1016.47,152.81c0-.23,1.11-.42,2.47-.42s2.47.19,2.47.42-1.11.43-2.47.43S1016.47,153.05,1016.47,152.81Z"/><path class="cls-3" d="M1006.61,152.81c0-.23,1.1-.42,2.46-.42s2.47.19,2.47.42-1.11.43-2.47.43S1006.61,153.05,1006.61,152.81Z"/><path class="cls-3" d="M999.57,150c.24,0,.43,1.1.43,2.46v.37l-.43-.42c1.19,0,2.1.21,2.1.42s-.91.4-2.1.43h-.41v-.81C999.15,151.08,999.34,150,999.57,150Z"/><path class="cls-3" d="M999.57,140.11c.24,0,.43,1.1.43,2.47s-.19,2.46-.43,2.46-.42-1.1-.42-2.46S999.34,140.11,999.57,140.11Z"/><path class="cls-3" d="M999.57,130.24c.24,0,.43,1.11.43,2.47s-.19,2.46-.43,2.46-.42-1.1-.42-2.46S999.34,130.24,999.57,130.24Z"/><path class="cls-3" d="M999.57,120.37c.24,0,.43,1.11.43,2.47s-.19,2.47-.43,2.47-.42-1.11-.42-2.47S999.34,120.37,999.57,120.37Z"/><path class="cls-3" d="M999.57,110.5c.24,0,.43,1.11.43,2.47s-.19,2.47-.43,2.47-.42-1.11-.42-2.47S999.34,110.5,999.57,110.5Z"/><path class="cls-3" d="M999.57,100.64c.24,0,.43,1.1.43,2.46s-.19,2.47-.43,2.47-.42-1.1-.42-2.47S999.34,100.64,999.57,100.64Z"/><path class="cls-3" d="M999.57,90.77c.24,0,.43,1.1.43,2.46s-.19,2.47-.43,2.47-.42-1.1-.42-2.47S999.34,90.77,999.57,90.77Z"/><path class="cls-3" d="M999.57,80.9c.24,0,.43,1.1.43,2.47s-.19,2.46-.43,2.46-.42-1.1-.42-2.46S999.34,80.9,999.57,80.9Z"/><path class="cls-3" d="M999.57,71c.24,0,.43,1.1.43,2.47s-.19,2.46-.43,2.46-.42-1.1-.42-2.46S999.34,71,999.57,71Z"/><path class="cls-3" d="M999.57,61.16c.24,0,.43,1.11.43,2.47s-.19,2.47-.43,2.47-.42-1.11-.42-2.47S999.34,61.16,999.57,61.16Z"/><path class="cls-3" d="M999.57,51.29c.24,0,.43,1.11.43,2.47s-.19,2.47-.43,2.47-.42-1.11-.42-2.47S999.34,51.29,999.57,51.29Z"/><path class="cls-3" d="M999.57,41.42c.24,0,.43,1.11.43,2.47s-.19,2.47-.43,2.47-.42-1.11-.42-2.47S999.34,41.42,999.57,41.42Z"/><path class="cls-3" d="M1000.31,32.3c0,.11-.28.22-.74.3l.31-.3A11.45,11.45,0,0,1,1000,34c0,1.37-.19,2.47-.43,2.47s-.42-1.1-.42-2.47a10.26,10.26,0,0,1,.12-1.72l.06-.35.24,0C1000,32.07,1000.31,32.18,1000.31,32.3Z"/><path class="cls-3" d="M1010.18,32.3c0,.23-1.1.42-2.47.42s-2.46-.19-2.46-.42,1.1-.43,2.46-.43S1010.18,32.06,1010.18,32.3Z"/><path class="cls-3" d="M1020.05,32.3c0,.23-1.11.42-2.47.42s-2.47-.19-2.47-.42,1.11-.43,2.47-.43S1020.05,32.06,1020.05,32.3Z"/><path class="cls-3" d="M1029.92,32.3c0,.23-1.11.42-2.47.42s-2.47-.19-2.47-.42,1.11-.43,2.47-.43S1029.92,32.06,1029.92,32.3Z"/><path class="cls-3" d="M1039.79,32.3c0,.23-1.11.42-2.47.42s-2.47-.19-2.47-.42,1.11-.43,2.47-.43S1039.79,32.06,1039.79,32.3Z"/><path class="cls-3" d="M1049.65,32.3c0,.23-1.1.42-2.46.42s-2.47-.19-2.47-.42,1.1-.43,2.47-.43S1049.65,32.06,1049.65,32.3Z"/><path class="cls-3" d="M1059.52,32.3c0,.23-1.1.42-2.46.42s-2.47-.19-2.47-.42,1.1-.43,2.47-.43S1059.52,32.06,1059.52,32.3Z"/><path class="cls-3" d="M1069.39,32.3c0,.23-1.1.42-2.47.42s-2.46-.19-2.46-.42,1.1-.43,2.46-.43S1069.39,32.06,1069.39,32.3Z"/><path class="cls-3" d="M1079.26,32.3c0,.23-1.1.42-2.47.42s-2.46-.19-2.46-.42,1.1-.43,2.46-.43S1079.26,32.06,1079.26,32.3Z"/><path class="cls-3" d="M1089.13,32.3c0,.23-1.11.42-2.47.42s-2.47-.19-2.47-.42,1.11-.43,2.47-.43S1089.13,32.06,1089.13,32.3Z"/><path class="cls-3" d="M1099,32.3c0,.23-1.11.42-2.47.42s-2.47-.19-2.47-.42,1.11-.43,2.47-.43S1099,32.06,1099,32.3Z"/><path class="cls-3" d="M1108.87,32.3c0,.23-1.11.42-2.47.42s-2.47-.19-2.47-.42,1.11-.43,2.47-.43S1108.87,32.06,1108.87,32.3Z"/><path class="cls-3" d="M1118.73,32.3c0,.23-1.1.42-2.46.42s-2.47-.19-2.47-.42,1.1-.43,2.47-.43S1118.73,32.06,1118.73,32.3Z"/><path class="cls-3" d="M1120.09,40.8c-.23,0-.43-1.1-.43-2.46s.2-2.47.43-2.47.43,1.11.43,2.47S1120.33,40.8,1120.09,40.8Z"/><path class="cls-3" d="M1120.09,50.67c-.23,0-.43-1.1-.43-2.46s.2-2.47.43-2.47.43,1.1.43,2.47S1120.33,50.67,1120.09,50.67Z"/><path class="cls-3" d="M1120.09,60.54c-.23,0-.43-1.1-.43-2.47s.2-2.46.43-2.46.43,1.1.43,2.46S1120.33,60.54,1120.09,60.54Z"/><path class="cls-3" d="M1120.09,70.41c-.23,0-.43-1.1-.43-2.47s.2-2.46.43-2.46.43,1.1.43,2.46S1120.33,70.41,1120.09,70.41Z"/><path class="cls-3" d="M1120.09,80.28c-.23,0-.43-1.11-.43-2.47s.2-2.47.43-2.47.43,1.11.43,2.47S1120.33,80.28,1120.09,80.28Z"/><path class="cls-3" d="M1120.09,90.15c-.23,0-.43-1.11-.43-2.47s.2-2.47.43-2.47.43,1.11.43,2.47S1120.33,90.15,1120.09,90.15Z"/><path class="cls-3" d="M1120.09,100c-.23,0-.43-1.11-.43-2.47s.2-2.47.43-2.47.43,1.11.43,2.47S1120.33,100,1120.09,100Z"/><path class="cls-3" d="M1120.09,109.88c-.23,0-.43-1.1-.43-2.46s.2-2.47.43-2.47.43,1.1.43,2.47S1120.33,109.88,1120.09,109.88Z"/><path class="cls-3" d="M1120.09,119.75c-.23,0-.43-1.1-.43-2.46s.2-2.47.43-2.47.43,1.1.43,2.47S1120.33,119.75,1120.09,119.75Z"/><path class="cls-3" d="M1120.09,129.62c-.23,0-.43-1.1-.43-2.47s.2-2.46.43-2.46.43,1.1.43,2.46S1120.33,129.62,1120.09,129.62Z"/><path class="cls-3" d="M1120.09,139.49c-.23,0-.43-1.1-.43-2.47s.2-2.46.43-2.46.43,1.1.43,2.46S1120.33,139.49,1120.09,139.49Z"/><path class="cls-3" d="M1120.09,149.36c-.23,0-.43-1.11-.43-2.47s.2-2.47.43-2.47.43,1.11.43,2.47S1120.33,149.36,1120.09,149.36Z"/><rect class="cls-3" x="1115.63" y="147.13" width="8.93" height="8.93"/><rect class="cls-3" x="995.11" y="148.35" width="8.93" height="8.93"/><rect class="cls-3" x="1115.63" y="26.96" width="8.93" height="8.93"/><rect class="cls-3" x="995.11" y="27.83" width="8.93" height="8.93"/><rect class="cls-18" x="67.76" y="96.05" width="666.43" height="32.06"/><path class="cls-8" d="M110.42,127.57c-.3,0-.55-5.74-.55-12.82s.25-12.81.55-12.81.54,5.74.54,12.81S110.72,127.57,110.42,127.57Z"/><path class="cls-8" d="M153.32,127.57c-.3,0-.54-5.74-.54-12.82s.24-12.81.54-12.81.55,5.74.55,12.81S153.62,127.57,153.32,127.57Z"/><path class="cls-8" d="M196.23,127.57c-.3,0-.55-5.74-.55-12.82s.25-12.81.55-12.81.54,5.74.54,12.81S196.53,127.57,196.23,127.57Z"/><path class="cls-8" d="M239.13,127.57c-.3,0-.54-5.74-.54-12.82s.24-12.81.54-12.81.55,5.74.55,12.81S239.43,127.57,239.13,127.57Z"/><path class="cls-8" d="M282,127.57c-.3,0-.55-5.74-.55-12.82s.25-12.81.55-12.81.54,5.74.54,12.81S282.34,127.57,282,127.57Z"/><path class="cls-8" d="M324.94,127.57c-.3,0-.54-5.74-.54-12.82s.24-12.81.54-12.81.55,5.74.55,12.81S325.24,127.57,324.94,127.57Z"/><path class="cls-8" d="M367.85,127.57c-.3,0-.55-5.74-.55-12.82s.25-12.81.55-12.81.54,5.74.54,12.81S368.15,127.57,367.85,127.57Z"/><path class="cls-8" d="M410.75,127.57c-.3,0-.54-5.74-.54-12.82s.24-12.81.54-12.81.55,5.74.55,12.81S411.05,127.57,410.75,127.57Z"/><path class="cls-8" d="M453.66,127.57c-.3,0-.55-5.74-.55-12.82s.25-12.81.55-12.81.54,5.74.54,12.81S454,127.57,453.66,127.57Z"/><path class="cls-8" d="M496.56,127.57c-.3,0-.54-5.74-.54-12.82s.24-12.81.54-12.81.55,5.74.55,12.81S496.86,127.57,496.56,127.57Z"/><path class="cls-8" d="M539.47,127.57c-.3,0-.55-5.74-.55-12.82s.25-12.81.55-12.81.54,5.74.54,12.81S539.77,127.57,539.47,127.57Z"/><path class="cls-8" d="M582.37,127.57c-.3,0-.54-5.74-.54-12.82s.24-12.81.54-12.81.55,5.74.55,12.81S582.67,127.57,582.37,127.57Z"/><path class="cls-8" d="M625.28,127.57c-.3,0-.55-5.74-.55-12.82s.25-12.81.55-12.81.54,5.74.54,12.81S625.58,127.57,625.28,127.57Z"/><path class="cls-8" d="M668.18,127.57c-.3,0-.54-5.74-.54-12.82s.24-12.81.54-12.81.55,5.74.55,12.81S668.48,127.57,668.18,127.57Z"/><path class="cls-8" d="M703.76,127.57c-.3,0-.54-5.74-.54-12.82s.24-12.81.54-12.81.55,5.74.55,12.81S704.07,127.57,703.76,127.57Z"/><path class="cls-11" d="M306.92,544.21A24.18,24.18,0,0,0,276.3,514a26,26,0,0,0-40.15-22.41c-4.33-8.45-16-12.16-24.42-7.77s-12,16.08-7.6,24.47A16.88,16.88,0,0,0,187,535.43c-13.66-6.15-31.77,5.85-31.43,20.82l166.46.86C320.85,554.87,316.82,544.68,306.92,544.21Z"/><path d="M306.92,544.21A24.16,24.16,0,0,0,276.31,514h0v0a25.91,25.91,0,0,0-40.08-22.36l-.06,0,0-.06a18,18,0,0,0-31.88,16.63l.09.19-.2-.06a16.77,16.77,0,0,0-17,27l.33.4-.47-.21a19.43,19.43,0,0,0-10.7-1.43,25.25,25.25,0,0,0-17.71,11.72,19.45,19.45,0,0,0-2.87,10.42l-.1-.1,166.46,1h0a44.32,44.32,0,0,0-2.47-4.61,21.85,21.85,0,0,0-3.27-4.08,15.56,15.56,0,0,0-4.28-3A15,15,0,0,0,306.92,544.21Zm0,0a14.83,14.83,0,0,1,5.07,1.22,15.67,15.67,0,0,1,4.28,3,21.45,21.45,0,0,1,3.27,4.08A44.48,44.48,0,0,1,322,557.1v0h0l-166.46-.76h-.11v-.1a19.64,19.64,0,0,1,2.89-10.55,25.44,25.44,0,0,1,17.86-11.84A19.66,19.66,0,0,1,187,535.32l-.14.18a17,17,0,0,1,17.26-27.32l-.11.14a18.14,18.14,0,0,1,32.16-16.78l-.09,0A26,26,0,0,1,276.33,514l0,0a24.2,24.2,0,0,1,30.63,30.26Z"/><path class="cls-11" d="M607.44,546.61a24.18,24.18,0,0,0-30.62-30.22A26,26,0,0,0,536.67,494c-4.33-8.45-16-12.16-24.42-7.77s-12.05,16.08-7.6,24.47a16.88,16.88,0,0,0-17.14,27.16c-13.66-6.15-31.77,5.85-31.44,20.82l166.46.86C621.36,557.28,617.34,547.09,607.44,546.61Z"/><path d="M607.44,546.61a24.17,24.17,0,0,0-30.61-30.19h0v0A25.91,25.91,0,0,0,536.7,494l-.05,0,0-.07a18,18,0,0,0-31.89,16.64l.1.19-.2-.06a16.77,16.77,0,0,0-17,27l.33.4-.47-.21a19.47,19.47,0,0,0-10.71-1.43,25.26,25.26,0,0,0-17.7,11.72,19.36,19.36,0,0,0-2.87,10.42l-.11-.1,166.46.94v0a44.32,44.32,0,0,0-2.47-4.61,22.26,22.26,0,0,0-3.27-4.08,15.71,15.71,0,0,0-4.28-3A15.26,15.26,0,0,0,607.44,546.61Zm0,0a15,15,0,0,1,5.06,1.23,15.38,15.38,0,0,1,4.28,3,21.51,21.51,0,0,1,3.28,4.08,42.58,42.58,0,0,1,2.48,4.61v0h0l-166.46-.76H456v-.1a19.63,19.63,0,0,1,2.88-10.55,25.49,25.49,0,0,1,17.87-11.84,19.66,19.66,0,0,1,10.84,1.45l-.14.18a17,17,0,0,1,17.25-27.32l-.1.14A18.14,18.14,0,0,1,536.73,494l-.09,0a26,26,0,0,1,40.21,22.47l0,0a24.2,24.2,0,0,1,30.63,30.25Z"/><path class="cls-2" d="M444.07,558.09a41.45,41.45,0,0,0-.14-27.65c-2-5.58-5.42-10.86-10.45-14s-11.82-3.89-16.9-.81A24,24,0,0,0,387.08,492,18.49,18.49,0,0,0,364,471.6c3-9.46-5.11-19-14.82-21l-3.22,0s-20.43-.66-22.94-.18c-9.74,1.86-18,11.3-15.16,20.8a18.5,18.5,0,0,0-23.46,20.05,24,24,0,0,0-29.87,23.09c-5-3.16-11.84-2.56-16.91.54S229,523.15,226.9,528.7a41.49,41.49,0,0,0-.59,27.64Z"/><path d="M444.07,558.09a41.64,41.64,0,0,0,2.24-15.69A40.53,40.53,0,0,0,442.48,527c-2.3-4.75-5.82-9.12-10.61-11.51a17.93,17.93,0,0,0-7.67-1.88,14.5,14.5,0,0,0-7.61,2l0,0v0a23.93,23.93,0,0,0-29.45-23.51H387V492A18.43,18.43,0,0,0,364,471.66l-.11,0,0-.11a13.4,13.4,0,0,0,.27-7.08,16.71,16.71,0,0,0-3.11-6.41,20.74,20.74,0,0,0-11.93-7.46h0l-3.44,0-3.43-.1-6.87-.16c-2.29,0-4.59-.08-6.88-.08-1.14,0-2.29,0-3.43,0-.57,0-1.15,0-1.71.1a12.41,12.41,0,0,0-1.67.35,20.77,20.77,0,0,0-11.15,7.49,16.17,16.17,0,0,0-2.87,6.14,13.54,13.54,0,0,0,.22,6.75l.05.17-.16-.05a18.4,18.4,0,0,0-23.33,19.95l0,.16-.15,0a23.86,23.86,0,0,0-29.73,23v.21l-.18-.11a14.23,14.23,0,0,0-7.52-2.07,17.63,17.63,0,0,0-7.66,1.74c-4.8,2.3-8.38,6.6-10.75,11.3a40.52,40.52,0,0,0-4.07,15.26,41.51,41.51,0,0,0,2,15.69l-.09-.06Zm0,0-217.76-1.66h-.06l0-.06a41.89,41.89,0,0,1-2-15.76,40.61,40.61,0,0,1,4.08-15.35c2.38-4.73,6-9.07,10.84-11.4a18,18,0,0,1,7.76-1.78,14.64,14.64,0,0,1,7.65,2.1l-.19.1a24.08,24.08,0,0,1,30-23.19l-.14.12a18.6,18.6,0,0,1,23.6-20.15l-.12.12a13.71,13.71,0,0,1-.22-6.85,16.18,16.18,0,0,1,2.91-6.21,20.81,20.81,0,0,1,11.25-7.54,12.4,12.4,0,0,1,1.69-.36c.58-.06,1.15-.08,1.72-.09,1.15,0,2.3,0,3.44,0,2.3,0,4.59,0,6.88.08l6.87.17,3.44.1,3.43,0h0a20.83,20.83,0,0,1,12,7.52,16.68,16.68,0,0,1,3.13,6.46,13.56,13.56,0,0,1-.27,7.15l-.07-.08A18.55,18.55,0,0,1,387.13,492l-.06,0a24,24,0,0,1,29.54,23.61l0,0a14.46,14.46,0,0,1,7.63-2,17.74,17.74,0,0,1,7.69,1.89c4.8,2.4,8.32,6.77,10.61,11.53a40.58,40.58,0,0,1,3.83,15.38A41.83,41.83,0,0,1,444.07,558.09Z"/><path class="cls-2" d="M549.68,558.93a41.54,41.54,0,0,0-.14-27.64c-2-5.59-5.43-10.87-10.45-14s-11.82-3.9-16.9-.82a24,24,0,0,0-29.5-23.56,18.49,18.49,0,0,0-23.13-20.42c3-9.46-5.12-19-14.82-21l-3.23,0s-20.43-.66-22.94-.18c-9.74,1.86-18,11.29-15.15,20.8A18.49,18.49,0,0,0,390,492.05a24,24,0,0,0-29.87,23.08c-5-3.16-11.84-2.55-16.92.54s-8.55,8.33-10.67,13.88a41.55,41.55,0,0,0-.58,27.64Z"/><path d="M549.68,558.93a41.81,41.81,0,0,0,2.24-15.69,40.68,40.68,0,0,0-3.84-15.36c-2.29-4.75-5.82-9.12-10.6-11.51a17.82,17.82,0,0,0-7.67-1.88,14.49,14.49,0,0,0-7.61,2l0,0v-.05a23.93,23.93,0,0,0-29.46-23.51h-.06v-.07a18.44,18.44,0,0,0-23.08-20.35l-.11,0,0-.11a13.44,13.44,0,0,0,.26-7.09,16.46,16.46,0,0,0-3.11-6.4,20.71,20.71,0,0,0-11.93-7.46h0l-3.44,0-3.44-.1-6.87-.16q-3.44-.07-6.87-.08c-1.15,0-2.29,0-3.44,0-.57,0-1.14,0-1.7.09a13.81,13.81,0,0,0-1.67.36,20.66,20.66,0,0,0-11.15,7.48,16.08,16.08,0,0,0-2.88,6.15,13.55,13.55,0,0,0,.23,6.75l.05.17-.17-.05A18.38,18.38,0,0,0,390.07,492l0,.17-.16,0a23.85,23.85,0,0,0-29.72,23v.22l-.18-.12a14.44,14.44,0,0,0-7.53-2.07,17.71,17.71,0,0,0-7.66,1.75c-4.8,2.3-8.38,6.59-10.74,11.29A40.4,40.4,0,0,0,330,541.47a41.75,41.75,0,0,0,2,15.69l-.09-.07Zm0,0-217.76-1.65h-.07l0-.06a41.92,41.92,0,0,1-2-15.76,40.62,40.62,0,0,1,4.09-15.35c2.37-4.73,6-9.07,10.84-11.4a17.78,17.78,0,0,1,7.75-1.78,14.61,14.61,0,0,1,7.65,2.1l-.18.1a24.08,24.08,0,0,1,30-23.19l-.14.12a18.59,18.59,0,0,1,23.59-20.15l-.11.12a13.71,13.71,0,0,1-.23-6.85A16.26,16.26,0,0,1,416,459a20.9,20.9,0,0,1,11.26-7.55,13.32,13.32,0,0,1,1.69-.35c.57-.06,1.15-.08,1.72-.1,1.15,0,2.29,0,3.44,0q3.44,0,6.87.09l6.88.17,3.43.1,3.44,0h0a20.87,20.87,0,0,1,12,7.53,16.75,16.75,0,0,1,3.13,6.46,13.47,13.47,0,0,1-.28,7.15l-.07-.08a18.54,18.54,0,0,1,23.19,20.49l-.05-.05a24,24,0,0,1,29.53,23.6l0,0a14.51,14.51,0,0,1,7.64-2,18,18,0,0,1,7.68,1.89c4.8,2.4,8.32,6.78,10.62,11.54a40.52,40.52,0,0,1,3.82,15.37A41.62,41.62,0,0,1,549.68,558.93Z"/><polygon class="cls-16" points="346.61 443.17 324.59 443.59 324.92 402.66 346.94 402.24 346.61 443.17"/><path class="cls-16" d="M348.05,415.5l-24.16-.19a1.6,1.6,0,0,1-1.58-1.61h0a1.59,1.59,0,0,1,1.61-1.57l24.16.19a1.58,1.58,0,0,1,1.57,1.6h0A1.58,1.58,0,0,1,348.05,415.5Z"/><path class="cls-16" d="M348,421.88l-24.16-.19a1.59,1.59,0,0,1-1.58-1.6h0a1.59,1.59,0,0,1,1.6-1.58l24.17.19a1.59,1.59,0,0,1,1.57,1.61h0A1.58,1.58,0,0,1,348,421.88Z"/><path class="cls-16" d="M348,428.27l-24.16-.2a1.58,1.58,0,0,1-1.58-1.6h0a1.6,1.6,0,0,1,1.6-1.58l24.17.2a1.58,1.58,0,0,1,1.57,1.6h0A1.59,1.59,0,0,1,348,428.27Z"/><path class="cls-16" d="M347.9,434.65l-24.16-.19a1.6,1.6,0,0,1-1.58-1.61h0a1.59,1.59,0,0,1,1.6-1.57l24.16.19a1.59,1.59,0,0,1,1.58,1.6h0A1.59,1.59,0,0,1,347.9,434.65Z"/><path class="cls-16" d="M347.85,441l-24.16-.19a1.59,1.59,0,0,1-1.58-1.6h0a1.59,1.59,0,0,1,1.6-1.58l24.16.19a1.6,1.6,0,0,1,1.58,1.61h0A1.59,1.59,0,0,1,347.85,441Z"/><polygon class="cls-16" points="320.53 450.57 324.6 443 346.61 443.17 351.37 450.82 320.53 450.57"/><path class="cls-8" d="M348.58,412.32c0,.17-5.63.26-12.56.2s-12.55-.23-12.55-.4,5.62-.25,12.56-.2S348.58,412.16,348.58,412.32Z"/><path class="cls-8" d="M348,415.5c0,.16-5.56.25-12.42.2s-12.43-.24-12.43-.4,5.57-.25,12.43-.2S348,415.33,348,415.5Z"/><path class="cls-8" d="M348.69,418.71c0,.16-5.68.25-12.68.2s-12.69-.24-12.69-.4,5.68-.26,12.69-.2S348.69,418.54,348.69,418.71Z"/><path class="cls-8" d="M347.43,421.88c0,.16-5.39.25-12,.2s-12-.23-12-.4,5.39-.25,12-.2S347.43,421.71,347.43,421.88Z"/><path class="cls-8" d="M348.29,425.15c0,.16-5.53.25-12.34.2s-12.33-.23-12.33-.4,5.53-.25,12.34-.2S348.29,425,348.29,425.15Z"/><path class="cls-8" d="M348.58,428.27c0,.17-5.6.26-12.49.2s-12.49-.23-12.49-.4,5.59-.25,12.49-.2S348.58,428.11,348.58,428.27Z"/><path class="cls-8" d="M347.84,431.47c0,.17-5.27.26-11.78.2s-11.78-.22-11.78-.39,5.28-.25,11.79-.2S347.84,431.31,347.84,431.47Z"/><path class="cls-8" d="M348,434.65c0,.17-5.28.26-11.78.21s-11.78-.23-11.78-.4,5.28-.25,11.78-.2S348,434.49,348,434.65Z"/><path class="cls-8" d="M347.21,437.77c0,.17-5.25.26-11.72.21a116.68,116.68,0,0,1-11.71-.39c0-.17,5.25-.26,11.72-.21A116.68,116.68,0,0,1,347.21,437.77Z"/><path class="cls-8" d="M347.12,441a109,109,0,0,1-11.33.21,108.77,108.77,0,0,1-11.32-.39c0-.17,5.07-.26,11.33-.21S347.12,440.86,347.12,441Z"/><polygon class="cls-16" points="452.16 444.02 430.14 444.44 430.47 403.51 452.49 403.09 452.16 444.02"/><path class="cls-16" d="M453.6,416.34l-24.16-.19a1.59,1.59,0,0,1-1.58-1.6h0a1.6,1.6,0,0,1,1.61-1.58l24.16.2a1.57,1.57,0,0,1,1.57,1.6h0A1.57,1.57,0,0,1,453.6,416.34Z"/><path class="cls-16" d="M453.55,422.73l-24.16-.19a1.6,1.6,0,0,1-1.58-1.61h0a1.59,1.59,0,0,1,1.6-1.57l24.17.19a1.59,1.59,0,0,1,1.57,1.6h0A1.58,1.58,0,0,1,453.55,422.73Z"/><path class="cls-16" d="M453.5,429.11l-24.16-.19a1.59,1.59,0,0,1-1.58-1.6h0a1.59,1.59,0,0,1,1.6-1.58l24.17.19a1.59,1.59,0,0,1,1.57,1.61h0A1.58,1.58,0,0,1,453.5,429.11Z"/><path class="cls-16" d="M453.45,435.5l-24.16-.2a1.58,1.58,0,0,1-1.58-1.6h0a1.59,1.59,0,0,1,1.6-1.58l24.16.2a1.58,1.58,0,0,1,1.58,1.6h0A1.59,1.59,0,0,1,453.45,435.5Z"/><path class="cls-16" d="M453.4,441.88l-24.16-.19a1.6,1.6,0,0,1-1.58-1.61h0a1.59,1.59,0,0,1,1.6-1.57l24.16.19a1.59,1.59,0,0,1,1.58,1.6h0A1.59,1.59,0,0,1,453.4,441.88Z"/><polygon class="cls-16" points="426.08 451.42 430.15 443.84 452.16 444.02 456.92 451.66 426.08 451.42"/><path class="cls-8" d="M454.13,413.17c0,.16-5.63.25-12.56.2S429,413.13,429,413s5.62-.25,12.56-.2S454.13,413,454.13,413.17Z"/><path class="cls-8" d="M453.59,416.34c0,.17-5.57.26-12.43.2s-12.43-.23-12.43-.39,5.57-.26,12.43-.2S453.59,416.18,453.59,416.34Z"/><path class="cls-8" d="M454.24,419.55c0,.17-5.68.26-12.68.2s-12.69-.23-12.69-.4,5.68-.25,12.69-.2S454.24,419.39,454.24,419.55Z"/><path class="cls-8" d="M453,422.72c0,.17-5.39.26-12,.21s-12-.23-12-.4,5.39-.25,12-.2S453,422.56,453,422.72Z"/><path class="cls-8" d="M453.84,426c0,.16-5.53.25-12.34.2s-12.33-.24-12.33-.4,5.53-.26,12.34-.2S453.84,425.83,453.84,426Z"/><path class="cls-8" d="M454.13,429.12c0,.16-5.6.25-12.49.2s-12.49-.24-12.49-.4,5.59-.26,12.49-.2S454.13,429,454.13,429.12Z"/><path class="cls-8" d="M453.39,432.32c0,.16-5.27.25-11.78.2s-11.78-.23-11.78-.39,5.28-.26,11.79-.21S453.39,432.15,453.39,432.32Z"/><path class="cls-8" d="M453.56,435.5c0,.16-5.28.25-11.78.2s-11.78-.23-11.78-.39,5.28-.26,11.78-.21S453.56,435.33,453.56,435.5Z"/><path class="cls-8" d="M452.76,438.62a115,115,0,0,1-11.72.2c-6.47-.05-11.71-.22-11.71-.39s5.25-.25,11.72-.2A116.68,116.68,0,0,1,452.76,438.62Z"/><path class="cls-8" d="M452.67,441.87c0,.17-5.08.26-11.33.21s-11.33-.22-11.32-.39a107.42,107.42,0,0,1,11.33-.2A111,111,0,0,1,452.67,441.87Z"/><path class="cls-16" d="M357,154.34,355.7,357.41,330,357.2,331.62,155a40.68,40.68,0,0,1,1.53-10.74l11-39c.43-1.53,2.23-1.48,2.71,1.27l9,38.18A40.42,40.42,0,0,1,357,154.34Z"/><path class="cls-8" d="M356.07,204.37c0,.16-5.5.25-12.28.2s-12.28-.23-12.27-.4,5.49-.25,12.27-.2S356.07,204.2,356.07,204.37Z"/><path class="cls-8" d="M337.47,198.89c-.16,0-.29-.73-.28-1.63s.15-1.62.31-1.62.29.73.29,1.63S337.64,198.89,337.47,198.89Z"/><path class="cls-8" d="M340,198.62c-.16,0-.29-.6-.29-1.34s.15-1.33.31-1.32.3.59.29,1.33S340.16,198.62,340,198.62Z"/><path class="cls-8" d="M356.3,269.91c0,.17-5.66.25-12.63.2s-12.62-.24-12.62-.4,5.65-.26,12.63-.2S356.3,269.75,356.3,269.91Z"/><path class="cls-8" d="M337,277.38c-.16,0-.29-.74-.28-1.65s.14-1.64.31-1.64.29.74.28,1.65S337.13,277.38,337,277.38Z"/><path class="cls-8" d="M338.9,277.69c-.16,0-.29-.77-.28-1.72s.15-1.72.31-1.72.29.78.29,1.73S339.07,277.69,338.9,277.69Z"/><path class="cls-8" d="M347.42,333.2c0,.17-3.88.27-8.66.23s-8.67-.2-8.67-.37a64.74,64.74,0,0,1,8.67-.22A63.07,63.07,0,0,1,347.42,333.2Z"/><path class="cls-8" d="M356.62,151.69c0,.16-5.53.25-12.35.2s-12.35-.24-12.35-.4,5.53-.26,12.35-.2S356.62,151.52,356.62,151.69Z"/><path class="cls-8" d="M334.28,153.06c0-.08.28-.09.44.24a.66.66,0,0,1-.05.63.71.71,0,0,1-.78.25.7.7,0,0,1-.51-.64.64.64,0,0,1,.3-.55c.32-.19.54,0,.51,0s-.16.13-.23.27,0,.25.1.31.22,0,.25-.2S334.25,153.14,334.28,153.06Z"/><path class="cls-8" d="M344.41,153.14c0-.08.29-.09.45.24a.69.69,0,0,1-.05.63.71.71,0,0,1-.78.25.68.68,0,0,1-.51-.64.64.64,0,0,1,.3-.55c.31-.19.54,0,.5.05s-.15.12-.22.27-.05.24.1.3.22,0,.25-.2S344.39,153.22,344.41,153.14Z"/><path class="cls-8" d="M354.55,153.22c0-.07.28-.09.44.24a.66.66,0,0,1-.05.63.72.72,0,0,1-1.29-.39.64.64,0,0,1,.3-.55c.32-.19.54,0,.51,0s-.16.12-.23.27-.05.24.1.3.22,0,.25-.2S354.52,153.3,354.55,153.22Z"/><path class="cls-8" d="M333.85,206.4c0-.08.28-.09.44.24a.63.63,0,0,1-.05.63.72.72,0,0,1-1.29-.39.67.67,0,0,1,.31-.55c.31-.19.54,0,.5,0s-.15.12-.22.27-.06.24.1.3.21,0,.25-.2S333.82,206.48,333.85,206.4Z"/><path class="cls-8" d="M344,206.48c0-.07.29-.09.45.24a.66.66,0,0,1-.05.63.72.72,0,0,1-1.29-.38.65.65,0,0,1,.3-.56c.31-.19.54,0,.5.05s-.15.13-.22.27-.05.24.1.3.22,0,.25-.2S344,206.56,344,206.48Z"/><path class="cls-8" d="M354.12,206.57c0-.08.28-.1.44.23a.63.63,0,0,1-.05.63.67.67,0,0,1-.77.25.69.69,0,0,1-.52-.63.68.68,0,0,1,.31-.56c.31-.19.54,0,.5,0s-.15.13-.22.27-.06.25.1.3.21,0,.25-.2S354.09,206.64,354.12,206.57Z"/><path class="cls-8" d="M333.38,264.93c0-.08.29-.1.44.23a.63.63,0,0,1-.05.63.72.72,0,0,1-1.28-.38.66.66,0,0,1,.3-.56c.31-.19.54,0,.5,0s-.15.13-.22.27-.06.25.1.3.21,0,.25-.19S333.35,265,333.38,264.93Z"/><path class="cls-8" d="M343.51,265c0-.08.29-.1.45.23a.66.66,0,0,1,0,.63.72.72,0,0,1-1.29-.38.64.64,0,0,1,.3-.55c.32-.19.54,0,.5,0s-.15.13-.22.27-.05.25.1.3.22,0,.25-.19S343.49,265.09,343.51,265Z"/><path class="cls-8" d="M353.65,265.09c0-.08.29-.1.44.24a.61.61,0,0,1,0,.62.71.71,0,0,1-1.28-.38.64.64,0,0,1,.3-.55c.31-.19.54,0,.5,0s-.15.13-.22.27-.06.25.1.3.21,0,.25-.19S353.62,265.17,353.65,265.09Z"/><path class="cls-8" d="M332.87,328.73c0-.08.28-.09.44.24a.63.63,0,0,1-.05.63.72.72,0,0,1-1.29-.39.67.67,0,0,1,.3-.55c.32-.19.54,0,.51,0s-.16.13-.23.28-.05.24.11.3.21,0,.25-.2S332.84,328.81,332.87,328.73Z"/><path class="cls-8" d="M343,328.81c0-.08.29-.09.45.24a.69.69,0,0,1-.05.63.71.71,0,0,1-.78.25.68.68,0,0,1-.51-.64.64.64,0,0,1,.3-.55c.31-.19.54,0,.5.05s-.15.12-.22.27-.05.24.1.3.22,0,.25-.2S343,328.89,343,328.81Z"/><path class="cls-16" d="M426.34,154.9l-2,203.06,25.7.2L451.67,156a40.71,40.71,0,0,0-1.36-10.76l-10.38-39.19c-.4-1.54-2.21-1.52-2.74,1.22l-9.61,38A40.89,40.89,0,0,0,426.34,154.9Z"/><path class="cls-8" d="M426.43,204.93c0-.16,5.5-.25,12.28-.2s12.28.23,12.27.4-5.49.25-12.27.2S426.43,205.1,426.43,204.93Z"/><path class="cls-8" d="M445.11,199.76c-.16,0-.29-.73-.28-1.63s.14-1.63.31-1.63.29.73.28,1.63S445.28,199.76,445.11,199.76Z"/><path class="cls-8" d="M442.6,199.44c-.17,0-.29-.6-.29-1.33s.15-1.33.31-1.33.29.6.29,1.33S442.76,199.44,442.6,199.44Z"/><path class="cls-8" d="M425.15,270.46c0-.16,5.65-.25,12.63-.2s12.62.24,12.62.4-5.65.26-12.63.2S425.15,270.63,425.15,270.46Z"/><path class="cls-8" d="M444.36,278.24c-.16,0-.29-.74-.28-1.65s.15-1.64.31-1.64.29.74.29,1.65S444.53,278.24,444.36,278.24Z"/><path class="cls-8" d="M442.42,278.52c-.17,0-.29-.77-.29-1.72s.15-1.72.32-1.72.29.78.28,1.73S442.58,278.52,442.42,278.52Z"/><path class="cls-8" d="M433,333.89c0-.17,3.88-.27,8.67-.23s8.66.2,8.66.37a125.28,125.28,0,0,1-17.33-.14Z"/><path class="cls-8" d="M426.72,152.25c0-.17,5.54-.26,12.36-.2s12.35.23,12.34.4-5.53.25-12.35.2S426.72,152.41,426.72,152.25Z"/><path class="cls-8" d="M449,154c0,.08-.06.19,0,.35s.09.23.25.2.17-.13.1-.3-.19-.19-.21-.27.19-.24.5,0a.64.64,0,0,1,.29.56.7.7,0,1,1-1.34-.27C448.76,153.88,449,153.9,449,154Z"/><path class="cls-8" d="M438.91,153.9c0,.08-.06.19,0,.35s.08.23.24.2.18-.13.11-.3-.2-.2-.22-.28.19-.23.5,0a.62.62,0,0,1,.29.56.72.72,0,0,1-1.29.36.65.65,0,0,1,0-.63C438.62,153.8,438.9,153.82,438.91,153.9Z"/><path class="cls-8" d="M428.77,153.82c0,.08-.06.19,0,.35s.09.23.25.2.17-.13.1-.3-.19-.2-.21-.28.19-.23.5,0a.64.64,0,0,1,.29.55.69.69,0,0,1-.52.63.68.68,0,0,1-.77-.26.65.65,0,0,1,0-.63C428.49,153.72,428.77,153.74,428.77,153.82Z"/><path class="cls-8" d="M448.62,207.32c0,.08-.06.19-.05.35s.09.24.25.2.18-.12.11-.3-.2-.19-.22-.27.19-.24.5,0a.66.66,0,0,1,.29.56.71.71,0,0,1-1.29.36.65.65,0,0,1,0-.63C448.33,207.22,448.61,207.24,448.62,207.32Z"/><path class="cls-8" d="M438.48,207.24c0,.08-.06.19,0,.35s.08.24.24.2.18-.12.11-.3-.2-.19-.22-.27.19-.24.51,0a.67.67,0,0,1,.29.56.73.73,0,0,1-1.3.36.65.65,0,0,1,0-.63C438.2,207.14,438.48,207.16,438.48,207.24Z"/><path class="cls-8" d="M428.35,207.16c0,.08-.06.19-.05.35s.09.23.25.2.18-.13.11-.3-.2-.19-.22-.28.19-.23.5,0a.64.64,0,0,1,.29.56.72.72,0,0,1-1.29.36.65.65,0,0,1,0-.63C428.06,207.06,428.34,207.08,428.35,207.16Z"/><path class="cls-8" d="M448.15,265.85c0,.08-.06.19,0,.34s.09.24.25.21.18-.13.11-.3-.2-.2-.22-.28.19-.23.5,0a.65.65,0,0,1,.29.56.69.69,0,0,1-.52.63.68.68,0,0,1-.77-.27.63.63,0,0,1,0-.62C447.86,265.75,448.14,265.77,448.15,265.85Z"/><path class="cls-8" d="M438,265.77c0,.08-.06.19,0,.34s.09.24.24.2.18-.12.11-.3-.2-.19-.22-.27.19-.23.51,0a.66.66,0,0,1-.23,1.19.72.72,0,0,1-.78-.27.63.63,0,0,1,0-.62C437.73,265.67,438,265.69,438,265.77Z"/><path class="cls-8" d="M427.88,265.68c0,.08-.06.19-.05.35s.09.24.25.2.18-.12.11-.3-.2-.19-.22-.27.19-.23.5,0a.65.65,0,0,1,.29.56.71.71,0,0,1-1.29.36.65.65,0,0,1,0-.63C427.59,265.58,427.87,265.61,427.88,265.68Z"/><path class="cls-8" d="M447.64,329.65c0,.08-.06.19-.05.35s.09.23.25.2.17-.13.1-.3-.19-.19-.21-.27.19-.24.5,0a.64.64,0,0,1,.29.56.72.72,0,0,1-1.29.36.65.65,0,0,1,0-.63C447.35,329.55,447.63,329.57,447.64,329.65Z"/><path class="cls-8" d="M437.5,329.57c0,.08-.06.19,0,.35s.08.23.24.2.18-.13.11-.3-.2-.19-.22-.28.19-.23.5,0a.65.65,0,0,1,.3.56.69.69,0,0,1-.53.62.68.68,0,0,1-.77-.26.65.65,0,0,1,0-.63C437.22,329.47,437.5,329.49,437.5,329.57Z"/><path class="cls-16" d="M392.17,28s-30.95,35.6-32.05,69c-1.06,32.41-1,122.1-1,122.1l-.88,109.28,63,.5,1.59-198.56.2-24.47s-.47-13.2-6-33.49C411.89,53.72,392.17,28,392.17,28Z"/><g class="cls-10"><path d="M392.17,28s-30.95,35.6-32.05,69c-1.06,32.41-1,122.1-1,122.1l-.88,109.28,63,.5,1.59-198.56.2-24.47s-.47-13.2-6-33.49C411.89,53.72,392.17,28,392.17,28Z"/></g><path class="cls-8" d="M422.86,125.78c0,.17-14.17.19-31.65,0s-31.64-.39-31.64-.56,14.17-.18,31.65,0S422.86,125.62,422.86,125.78Z"/><path class="cls-8" d="M362.94,187.14s0,0,0,.12v.09s.07,0-.07,0h0v-.06H363v.22h-.09c-.13-2.35-.13-15.27,0-30.85.11-8.62.2-16.42.27-22.17.06-2.78.11-5.05.15-6.72,0-.74.05-1.34.07-1.83a2.54,2.54,0,0,1,.06-.63,2.11,2.11,0,0,1,.06.63c0,.49,0,1.09,0,1.83,0,1.67,0,4,0,6.72,0,5.75-.05,13.55-.09,22.18-.12,15.57-.34,28.49-.5,30.84h-.09v-.22H363v.06h0c-.13,0,0,0-.07,0v-.09Q362.93,187.14,362.94,187.14Z"/><path class="cls-8" d="M367.46,187.54c-.17,0-.19-13.93,0-31.1s.38-31.1.54-31.1.19,13.93.05,31.11S367.62,187.54,367.46,187.54Z"/><path class="cls-8" d="M372.1,187.58c-.16,0-.21-13.93-.11-31.1s.32-31.1.49-31.1.21,13.92.11,31.1S372.27,187.58,372.1,187.58Z"/><path class="cls-8" d="M376.5,187.61c-.17,0-.19-13.92-.05-31.1s.38-31.1.55-31.1.18,13.93,0,31.11S376.66,187.62,376.5,187.61Z"/><path class="cls-8" d="M381,189.1c-.17,0-.19-14.25-.05-31.83s.39-31.82.56-31.82.18,14.25,0,31.83S381.17,189.1,381,189.1Z"/><path class="cls-8" d="M385.53,189.13c-.17,0-.19-14.25,0-31.82s.39-31.82.56-31.82.18,14.25,0,31.82S385.69,189.13,385.53,189.13Z"/><path class="cls-8" d="M390.05,189.17c-.17,0-.19-14.25-.05-31.82s.39-31.83.56-31.83.18,14.25,0,31.83S390.21,189.17,390.05,189.17Z"/><path class="cls-8" d="M394.57,189.21c-.17,0-.19-14.26-.05-31.83s.39-31.82.56-31.82.18,14.25,0,31.83S394.73,189.21,394.57,189.21Z"/><path class="cls-8" d="M399.09,189.24c-.17,0-.19-14.25,0-31.82s.39-31.83.56-31.82.18,14.24,0,31.82S399.25,189.24,399.09,189.24Z"/><path class="cls-8" d="M403.84,187.84c-.16,0-.23-13.93-.16-31.11s.27-31.1.44-31.1.24,13.93.16,31.11S404,187.84,403.84,187.84Z"/><path class="cls-8" d="M408.14,187.87a2.64,2.64,0,0,1-.06-.63c0-.49,0-1.08,0-1.82,0-1.66,0-3.91,0-6.66,0-5.71.06-13.44.09-22s.2-16.29.26-22c.07-2.75.12-5,.15-6.67,0-.73.05-1.33.07-1.81a2.91,2.91,0,0,1,.07-.63,2.42,2.42,0,0,1,.05.63c0,.48,0,1.08,0,1.81,0,1.66,0,3.92,0,6.67,0,5.7-.06,13.44-.09,22s-.2,16.29-.27,22c-.06,2.75-.11,5-.14,6.67,0,.73-.06,1.33-.08,1.81A2.64,2.64,0,0,1,408.14,187.87Z"/><path class="cls-8" d="M412.66,187.9c-.17,0-.19-13.92-.05-31.1s.38-31.1.55-31.1.19,13.93,0,31.11S412.82,187.91,412.66,187.9Z"/><path class="cls-8" d="M417.18,187.94c-.16,0-.19-13.93-.05-31.1s.38-31.1.55-31.1.19,13.93.05,31.1S417.34,187.94,417.18,187.94Z"/><path class="cls-8" d="M421.7,188c-.16,0-.19-13.93-.05-31.1s.38-31.1.55-31.1.19,13.92.05,31.1S421.87,188,421.7,188Z"/><path class="cls-8" d="M422.36,188c0,.17-14.12.19-31.53.05s-31.53-.39-31.53-.55,14.12-.19,31.54,0S422.36,187.82,422.36,188Z"/><path class="cls-2" d="M470.22,377c-1.09-2.41-49.17-53.12-49.34-54.41L410.63,215.35c-.67-3.52-13.91-46.71-13.91-46.71s-2.07-4-5.59-3.79-4.23,2.3-4.94,3.23-14.37,39.7-15.09,42.73-10,108.89-10,108.89-48.19,48.93-51,51.72c-1.92,1.89-3.2,30.8-3.2,30.8l58.59,3.95,46.26.14,60.3-4.24S471.3,379.37,470.22,377Z"/><path class="cls-8" d="M473,402.9l-61.15,4.31-46.33-.14-59.52-4,0-.87c.3-6.87,1.44-29.43,3.46-31.41,2.71-2.66,47.2-47.83,50.79-51.48.66-7.59,9.24-105.68,10-108.7.54-2.23,14.29-41.8,15.26-43.06l.3-.45a6,6,0,0,1,5.3-3.14c4.05-.24,6.35,4.09,6.44,4.27.6,1.92,13.32,43.43,14,47l10.24,107.11c1.14,1.66,12.8,14.24,23.11,25.36,15.9,17.16,25.6,27.67,26.18,29h0c1.12,2.49,1.83,23.1,1.91,25.44Zm-165.13-1.51,57.71,3.89,46.2.14,59.37-4.19c-.3-8.74-1-22.25-1.72-23.88-.78-1.42-14.68-16.42-25.86-28.47-21.27-23-23.46-25.46-23.56-26.2L409.74,215.43c-.65-3.34-13.7-46-13.88-46.53h0s-1.84-3.32-4.67-3.16a4.29,4.29,0,0,0-3.9,2.32c-.13.21-.26.41-.38.57C386,170.25,372.71,207.94,372,211c-.56,2.35-6.75,72.17-10,108.76l0,.32-.22.24c-.48.48-48.22,49-51,51.72C309.7,373.42,308.46,387.88,307.84,401.39Z"/><path class="cls-2" d="M410.61,214c-1.92-7.37-13.67-45.71-13.67-45.71s-2.08-4-5.59-3.79-4.23,2.31-4.94,3.24-14.37,39.69-15.1,42.73c-.06.27-.2,1.4-.39,3.22Z"/><path class="cls-2" d="M367.17,412.7l-.26-29.63L370.5,372l.52-90-.1-68.26,39.69.31-2,158.38,3.92,10.52L412.18,427l-20.76-.16,0-45.45a2.1,2.1,0,0,0-2.07-2.09h0a2.1,2.1,0,0,0-2.11,2.08L387,426.83l-19.76-.16Z"/><path class="cls-16" d="M356.82,375a7.91,7.91,0,1,1-7.84-8A7.89,7.89,0,0,1,356.82,375Z"/><path class="cls-8" d="M389.93,234.37c.17,0,0,32.4-.28,72.34s-.71,72.35-.88,72.35,0-32.39.28-72.35S389.77,234.37,389.93,234.37Z"/><rect class="cls-19" x="386.62" y="222.61" width="2.8" height="4.92" transform="translate(1.82 -3.1) rotate(0.46)"/><rect class="cls-19" x="392.9" y="222.66" width="2.8" height="4.92" transform="translate(1.81 -3.15) rotate(0.46)"/><path class="cls-8" d="M379.44,209.88l3.59,3.84,15.51.13,3.67-3.62s-3.76-3.86-11.47-3.92A19.62,19.62,0,0,0,379.44,209.88Z"/><path class="cls-8" d="M410.37,233.08c0,.17-8.83.23-19.72.14s-19.71-.29-19.71-.46,8.83-.22,19.72-.14S410.37,232.92,410.37,233.08Z"/><path class="cls-8" d="M404.56,193.09c0,.17-6,.25-13.32.19s-13.31-.24-13.31-.4,6-.25,13.32-.19S404.56,192.93,404.56,193.09Z"/><path class="cls-8" d="M374.29,236.14c0,.08-.15.16-.21.35s0,.36.22.38.31-.13.27-.35-.17-.29-.16-.37.29-.15.54.18a.78.78,0,0,1,.09.69.79.79,0,0,1-.78.45.76.76,0,0,1-.7-.55.71.71,0,0,1,.18-.67C374,236,374.31,236.07,374.29,236.14Z"/><path class="cls-8" d="M378.25,236.17c0,.09-.14.16-.2.35s0,.36.22.38.3-.13.27-.35-.17-.29-.16-.37.29-.15.53.18a.72.72,0,0,1,.09.69.76.76,0,0,1-.77.45.77.77,0,0,1-.71-.55.71.71,0,0,1,.18-.67C378,236,378.27,236.1,378.25,236.17Z"/><path class="cls-8" d="M382.55,236.21c0,.08-.15.16-.21.34s0,.37.23.39.3-.13.27-.35-.17-.29-.16-.38.29-.15.53.18a.72.72,0,0,1,.09.69.76.76,0,0,1-.77.45.75.75,0,0,1-.71-.55.72.72,0,0,1,.18-.67C382.28,236,382.57,236.13,382.55,236.21Z"/><path class="cls-8" d="M386.85,236.24c0,.09-.15.16-.21.35s0,.36.22.38.31-.13.27-.35-.16-.29-.15-.37.28-.15.53.18a.72.72,0,0,1,.09.69.8.8,0,0,1-1.48-.1.71.71,0,0,1,.18-.67C386.58,236.05,386.87,236.17,386.85,236.24Z"/><path class="cls-8" d="M408.88,338.73c0,.16-8.61.23-19.22.14s-19.22-.29-19.22-.45,8.61-.23,19.22-.15S408.88,338.56,408.88,338.73Z"/><path class="cls-8" d="M409.81,270.5c0,.17-8.69.23-19.4.14s-19.41-.29-19.41-.45,8.69-.23,19.41-.14S409.82,270.34,409.81,270.5Z"/><path class="cls-8" d="M409.52,307.26c0,.16-8.59.23-19.18.14s-19.17-.28-19.17-.45,8.59-.23,19.18-.14S409.52,307.09,409.52,307.26Z"/><path class="cls-8" d="M386.76,383.5c0,.17-4.48.27-10,.22s-10-.21-10-.38a86.12,86.12,0,0,1,10-.22A86.73,86.73,0,0,1,386.76,383.5Z"/><path class="cls-8" d="M386.83,391.65c0,.17-4.33.27-9.67.23a81.09,81.09,0,0,1-9.67-.38c0-.17,4.33-.26,9.67-.22A80,80,0,0,1,386.83,391.65Z"/><path class="cls-8" d="M387.17,398.62c0,.17-4.45.27-9.93.22a84.45,84.45,0,0,1-9.94-.37c0-.17,4.45-.27,9.94-.22A84.2,84.2,0,0,1,387.17,398.62Z"/><path class="cls-8" d="M386.85,406.11c0,.17-4.37.27-9.74.23a81.82,81.82,0,0,1-9.73-.38c0-.17,4.36-.26,9.73-.22A81.09,81.09,0,0,1,386.85,406.11Z"/><path class="cls-8" d="M386.79,413c0,.17-4.36.26-9.74.22s-9.73-.21-9.73-.38a81.67,81.67,0,0,1,9.74-.22A82.14,82.14,0,0,1,386.79,413Z"/><path class="cls-8" d="M386.74,419.81A81.67,81.67,0,0,1,377,420a81.82,81.82,0,0,1-9.73-.38c0-.17,4.36-.26,9.73-.22S386.74,419.64,386.74,419.81Z"/><path class="cls-8" d="M411.67,383.7c0,.17-4.48.27-10,.22s-10-.21-10-.38a86.24,86.24,0,0,1,10-.22A86.73,86.73,0,0,1,411.67,383.7Z"/><path class="cls-8" d="M411.73,391.85c0,.17-4.33.27-9.67.22a79.71,79.71,0,0,1-9.66-.37c0-.17,4.33-.26,9.67-.22A79.55,79.55,0,0,1,411.73,391.85Z"/><path class="cls-8" d="M412.08,398.82c0,.17-4.45.27-9.94.22s-9.93-.21-9.93-.38a83.88,83.88,0,0,1,9.94-.21A84.35,84.35,0,0,1,412.08,398.82Z"/><path class="cls-8" d="M411.75,406.31c0,.17-4.36.27-9.74.22a81,81,0,0,1-9.73-.37c0-.17,4.36-.27,9.74-.22A80.84,80.84,0,0,1,411.75,406.31Z"/><path class="cls-8" d="M411.7,413.16a81.67,81.67,0,0,1-9.74.22c-5.38,0-9.73-.21-9.73-.38a81.55,81.55,0,0,1,9.73-.22A82.24,82.24,0,0,1,411.7,413.16Z"/><path class="cls-8" d="M411.64,420a81.55,81.55,0,0,1-9.73.22,82.24,82.24,0,0,1-9.74-.38c0-.17,4.36-.26,9.74-.22S411.64,419.84,411.64,420Z"/><path class="cls-2" d="M392.43,208.5c.09.14-1,.95-2.42,1.8a7.73,7.73,0,0,1-2.73,1.28,7.84,7.84,0,0,1,2.43-1.8A8,8,0,0,1,392.43,208.5Z"/><path class="cls-2" d="M394.3,208.69c.13.16-.85.92-2.12,1.68s-2.37,1.27-2.46,1.12.89-.86,2.16-1.63A7.93,7.93,0,0,1,394.3,208.69Z"/><path class="cls-8" d="M371.05,211.28c.17,0,.14,35.88-.06,80.14s-.5,80.15-.67,80.15-.13-35.88.07-80.15S370.89,211.27,371.05,211.28Z"/><path class="cls-8" d="M408.62,371.47c-.16,0,.14-33.75.67-75.37s1.1-75.37,1.26-75.37-.13,33.74-.66,75.38S408.79,371.47,408.62,371.47Z"/><rect class="cls-16" x="417.64" y="375.56" width="22.93" height="6.18" transform="translate(3.05 -3.43) rotate(0.46)"/><path class="cls-8" d="M392.17,28c.16,0,.15,21.67,0,48.39s-.45,48.38-.61,48.38-.16-21.66,0-48.39S392,28,392.17,28Z"/><path class="cls-8" d="M393.66,119c0-.07.29-.24.69.06a.94.94,0,0,1,.35.76,1,1,0,0,1-1.71.51.91.91,0,0,1-.13-.82c.16-.47.53-.51.54-.43s-.13.23-.12.51.19.58.56.47a.42.42,0,0,0,.21-.7C393.89,119.1,393.67,119.06,393.66,119Z"/><path class="cls-8" d="M393.79,102.75c0-.07.29-.24.69.06a.94.94,0,1,1-1.36,1.28.93.93,0,0,1-.13-.83c.16-.46.53-.5.54-.43s-.13.23-.12.52.19.58.56.46a.42.42,0,0,0,.21-.7C394,102.87,393.8,102.84,393.79,102.75Z"/><path class="cls-8" d="M393.92,86.53c0-.07.29-.24.69.06a1,1,0,0,1,.35.76.92.92,0,0,1-.69.81A.88.88,0,0,1,393.12,87c.16-.47.53-.51.54-.43s-.13.23-.12.51.19.58.56.47a.42.42,0,0,0,.21-.7C394.15,86.65,393.93,86.61,393.92,86.53Z"/><path class="cls-8" d="M394.05,70.3c0-.06.29-.23.69.06a1,1,0,0,1,.35.76,1,1,0,0,1-.69.82,1,1,0,0,1-1-.3.91.91,0,0,1-.13-.82c.16-.47.53-.51.54-.44s-.13.23-.12.52.19.58.56.47a.43.43,0,0,0,.21-.71C394.28,70.42,394.06,70.39,394.05,70.3Z"/><path class="cls-8" d="M394.18,54.08c0-.07.29-.24.69.06a1,1,0,0,1,.35.76.92.92,0,0,1-.69.81.88.88,0,0,1-1.15-1.12c.16-.47.53-.51.54-.43s-.13.23-.12.51.19.59.56.47a.42.42,0,0,0,.21-.7C394.41,54.2,394.19,54.16,394.18,54.08Z"/><path class="cls-8" d="M394.31,37.86c0-.07.29-.24.69,0a1,1,0,0,1,.35.76,1,1,0,0,1-1.71.52.91.91,0,0,1-.13-.82c.16-.47.53-.51.54-.43s-.13.22-.12.51.19.58.56.47a.43.43,0,0,0,.21-.71C394.54,38,394.32,37.94,394.31,37.86Z"/><path class="cls-2" d="M376.72,55.52a13.16,13.16,0,0,1-.94,1.72c-.65,1.07-1.54,2.66-2.58,4.64S371,66.28,369.87,69a96,96,0,0,0-3.23,9.08c-.95,3.28-1.67,6.46-2.21,9.37s-.87,5.57-1.06,7.8-.32,4-.36,5.3a12.2,12.2,0,0,1-.14,2,12.49,12.49,0,0,1-.09-2c0-1.26,0-3.09.17-5.33a78.32,78.32,0,0,1,.94-7.86,87.64,87.64,0,0,1,2.18-9.45,89.48,89.48,0,0,1,3.29-9.12c1.19-2.74,2.37-5.15,3.47-7.12s2-3.53,2.75-4.57A12.14,12.14,0,0,1,376.72,55.52Z"/><path class="cls-2" d="M382.13,46.12c.14.08-.22,1-.81,2.07S380.13,50.05,380,50s.22-1,.81-2.07S382,46,382.13,46.12Z"/><path class="cls-2" d="M364.5,185.06c-.16,0-.19-12.74-.07-28.44s.37-28.45.53-28.45.2,12.74.07,28.45S364.67,185.06,364.5,185.06Z"/><path class="cls-2" d="M368.86,167.19a63,63,0,0,1-.23-8.61A63.3,63.3,0,0,1,369,150c.17,0,.27,3.85.23,8.6S369,167.19,368.86,167.19Z"/><path class="cls-2" d="M373.83,161.25a8.46,8.46,0,0,1-.28-3.16,8.61,8.61,0,0,1,.33-3.16,8.93,8.93,0,0,1,.27,3.17A8.62,8.62,0,0,1,373.83,161.25Z"/><path class="cls-2" d="M361.43,261.6c-.16,0-.18-15,0-33.54s.41-33.54.57-33.53.18,15,0,33.54S361.6,261.6,361.43,261.6Z"/><polygon class="cls-9" points="368.1 378.73 384.96 416.98 390.83 400.15 405.26 394.86 368.1 378.73"/><rect class="cls-9" x="400.29" y="407.88" width="21.18" height="21.18"/><path class="cls-8" d="M421.47,429.06a12.31,12.31,0,0,1-.09-1.6c0-1.12-.05-2.56-.09-4.35-.05-3.8-.11-9-.19-15.23l.37.36-21.18.06c-.1.09.8-.8.42-.42h0v5.71c0,1.87,0,3.7,0,5.48,0,3.54,0,6.9,0,10l-.36-.37,15.23.19,4.35.09a12.31,12.31,0,0,1,1.6.09,11.68,11.68,0,0,1-1.45.08l-4.26.1-15.47.18h-.37v-.37c0-3.09,0-6.45,0-10,0-1.78,0-3.61,0-5.48,0-.93,0-1.88,0-2.83v-2.88h0l.43-.43,21.18.06h.37v.37c-.07,6.31-.14,11.61-.18,15.47,0,1.75-.07,3.16-.1,4.26A11.68,11.68,0,0,1,421.47,429.06Z"/><path class="cls-2" d="M410.88,427.09c-.24,0-.43-3.86-.43-8.62s.19-8.62.43-8.62.42,3.85.42,8.62S411.11,427.09,410.88,427.09Z"/><path class="cls-2" d="M419.5,418.47c0,.23-3.86.42-8.62.42s-8.62-.19-8.62-.42,3.86-.43,8.62-.43S419.5,418.23,419.5,418.47Z"/><path class="cls-20" d="M364.23,375.35a.28.28,0,0,1-.17-.07l-5.63-5.54a.23.23,0,0,1,0-.34.24.24,0,0,1,.34,0l5.63,5.54a.25.25,0,0,1-.17.42Z"/><path class="cls-20" d="M364.43,369.52a.23.23,0,0,1-.07.17l-5.54,5.63a.25.25,0,0,1-.35,0,.25.25,0,0,1,0-.34l5.54-5.63a.24.24,0,0,1,.35,0A.23.23,0,0,1,364.43,369.52Z"/></svg>