<svg xmlns="http://www.w3.org/2000/svg" viewBox="0 0 500 458.28"><defs><style>.cls-1{fill:#263238;}.cls-2{fill:#455a64;}.cls-3{fill:#fff;}.cls-4{fill:#eada5c;}.cls-5{fill:#e0e0e0;}.cls-6{fill:#bf4f4f;}.cls-7{fill:#5f94e2;stroke:#263238;stroke-linecap:round;stroke-linejoin:round;}.cls-8{fill:#ffbe9d;}.cls-9{opacity:0.3;}.cls-10{fill:#eb996e;}</style></defs><g id="Background_Complete" data-name="Background Complete"><rect class="cls-1" x="145.9" y="309.69" width="22.53" height="12.72"/><rect class="cls-1" x="20.42" y="229.5" width="22.53" height="12.72"/><rect class="cls-1" x="449.33" y="224.86" width="22.53" height="12.72"/><path class="cls-2" d="M387.85,393.13a23.31,23.31,0,0,0-10-3.42,6.64,6.64,0,0,0-4.71.86,1,1,0,0,0-.49.86,1.07,1.07,0,0,0,.46.59,14.25,14.25,0,0,0,14.7,1.11"/><path class="cls-2" d="M387.59,392.85a48.78,48.78,0,0,1-6.43-5.66,16.23,16.23,0,0,1-4-7.46,3,3,0,0,1,.31-2.49c5.13,4,9.16,9.18,10.15,15.61"/><path class="cls-2" d="M387.8,393.1a23.29,23.29,0,0,1,.11-8.45,11.45,11.45,0,0,1,4.5-7c.89,2.07.51,4.46-.12,6.62a31.79,31.79,0,0,1-4.46,9.39"/><path class="cls-2" d="M392.82,402.1a14.76,14.76,0,0,0-8,4,15.21,15.21,0,0,0-4.57,7.84c3-.18,5.54-2.29,7.38-4.66s3.12-5,5.14-7.18"/><path class="cls-2" d="M393.91,403.55a19.73,19.73,0,0,1,2.28-18.64,23.71,23.71,0,0,1-2.28,18.64"/><path class="cls-2" d="M400.56,411.45a14.29,14.29,0,0,0-13.63,7.85c-.16.33-.31.76-.09,1.06a1,1,0,0,0,.91.27c2.68-.17,5.06-1.79,7-3.63s3.68-4,5.85-5.55"/><path class="cls-2" d="M400.35,411a25.39,25.39,0,0,1-.26-14.17c.5-1.82,1.34-3.74,3-4.6a.46.46,0,0,1,.75.26,8.43,8.43,0,0,1,.71,4.06,26.12,26.12,0,0,1-.63,4.12c-.53,2.52-.82,5.22-2.2,7.39a15.71,15.71,0,0,0-.87,1.62c-.26.55-.27.75-.51,1.19"/><path class="cls-2" d="M417.93,413.64a18.28,18.28,0,0,1,3.2-15c.23-.3.54-.62.91-.59.58.06.73.82.7,1.4a27.24,27.24,0,0,1-4.81,14.21"/><path class="cls-2" d="M419.51,414.73a21.9,21.9,0,0,0,17.94-3.65,14.56,14.56,0,0,0-9.71-1.19,13.84,13.84,0,0,0-8.23,4.84"/><path class="cls-2" d="M420.85,411.43A20.7,20.7,0,0,1,437.13,402a10,10,0,0,1-5.33,5.88,29.63,29.63,0,0,1-7.81,2.29c-1,.2-2.47.42-3.14,1.24"/><path class="cls-2" d="M418.26,395.42a47.61,47.61,0,0,0,2.09-9.53,15.91,15.91,0,0,0-1.9-9.43,20.74,20.74,0,0,0-.28,19.28"/><path class="cls-2" d="M428.87,390.06c3.68-6.7,11.19-12,18.8-12.79-2.94,7.3-10.93,13-18.8,12.79"/><path class="cls-2" d="M426.55,391.37c5.49.84,10.17,4.35,15.31,6.47a6.72,6.72,0,0,0,3.46.66,3,3,0,0,0,2.6-2.1,3,3,0,0,0-.91-2.69,7.48,7.48,0,0,0-2.51-1.52,27.94,27.94,0,0,0-17.48-1"/><path class="cls-2" d="M423.37,395.22c1.24.36,1.67,1,2.65,1.84a28.53,28.53,0,0,0,11.61,6c.44.11,1,.16,1.25-.24s-.06-.78-.3-1.09a16.05,16.05,0,0,0-7-4.76c-2.68-1-5-2.2-8.2-1.94"/><path class="cls-2" d="M419.78,372a22,22,0,0,0,16.84,5.73,1.15,1.15,0,0,0,.77-.27c.43-.46-.08-1.17-.58-1.56a19.42,19.42,0,0,0-17-3.9"/><path class="cls-2" d="M424,370.4a23.47,23.47,0,0,1,21-3.47,16.72,16.72,0,0,1-10,4.4,31.88,31.88,0,0,1-11-.93"/><path class="cls-2" d="M422.35,359.71c-.49-4.95-.17-8.85-.52-13.81,0-.4-.11-.88-.48-1-.52-.2-1,.44-1.12,1a15.86,15.86,0,0,0,2.11,13.76"/><path class="cls-2" d="M422,360.25a29.1,29.1,0,0,0,8.19-7.95c1.61-2.22,3-4.87,2.61-7.58a7.82,7.82,0,0,0-5.91,2.93,16.58,16.58,0,0,0-3,6.06c-.65,2.17-1.11,4.41-1.88,6.54"/><path class="cls-2" d="M430,358a66.13,66.13,0,0,0,20.15-11.88c-2.41-1-5.16-.39-7.57.58A23.85,23.85,0,0,0,429.93,358"/><path class="cls-2" d="M424.25,363a41.12,41.12,0,0,0,11.19.05,47.41,47.41,0,0,0,10.44-3.47,1.22,1.22,0,0,0,.71-.54.81.81,0,0,0-.25-.89,2.22,2.22,0,0,0-.89-.42,19.37,19.37,0,0,0-11.29.67,52.75,52.75,0,0,0-9.91,4.6"/><path class="cls-2" d="M403,372.12a19.73,19.73,0,0,1-.18-16.37c1.54,2.35,1.73,5.34,1.45,8.14s-1.14,5.68-1.19,8.49"/><path class="cls-2" d="M392.88,367a22.85,22.85,0,0,0-17,7.23,15.85,15.85,0,0,0,9.29-1.72,48.16,48.16,0,0,0,8-5.33"/><path class="cls-2" d="M386.07,364.73c-3.1-.25-6.09-.63-9.06.28a10.86,10.86,0,0,0-6.91,5.86,16.35,16.35,0,0,0,8.49-1.61,48.36,48.36,0,0,0,7.48-4.53"/><path class="cls-2" d="M396.16,364.84c-2.79-1.83-5.65-3.69-8.9-4.45s-7-.2-9.27,2.25c2.62,1.54,5.81,1.73,8.86,1.72s6.78,0,9.65,1"/><path class="cls-2" d="M396.17,365c-4.76-4.68-6.57-13.08-4.65-19.48A29.7,29.7,0,0,1,396.17,365"/><path class="cls-2" d="M409.28,351.72c.9-2.09,1.53-4.28,2.34-6.41A18.45,18.45,0,0,1,415,339.4a8.79,8.79,0,0,1,5.9-3.06,23.8,23.8,0,0,1-11.45,15.42"/><path class="cls-2" d="M406.91,354.49c-1.49-2.05-3.21-4.83-5.23-6.36a8.74,8.74,0,0,0-7.1-1.87,16.53,16.53,0,0,0,12.33,8.23"/><path class="cls-2" d="M407.38,351.89a35.27,35.27,0,0,1-2.35-7.61,11.93,11.93,0,0,1,1.19-7.74c2.62,4.94,3.46,10.25,1.29,15.41"/><path class="cls-2" d="M409.3,336.54c1.48-4.91,6-8.52,10.82-10.17a4,4,0,0,1,1.9-.29,1.66,1.66,0,0,1,1.4,1.17c.17.83-.52,1.58-1.16,2.13a37,37,0,0,1-13,7.16"/><path class="cls-2" d="M409.36,332.53a34.73,34.73,0,0,1,1.41-9.37,11.85,11.85,0,0,1,5.89-7.11c.49,3.19-.92,6.37-2.61,9.11s-3.75,5.34-4.77,8.41"/><path class="cls-2" d="M409.28,334.7c-1.23-3.57-1.35-8.11-3.49-11.22-1.5-2.18-3.89-3.66-5.18-6a9,9,0,0,0,.3,6.77,19.33,19.33,0,0,0,4,5.67c1.58,1.69,2.94,3,4.41,4.75"/><path class="cls-2" d="M409.3,439.93c-.09,0-.17-23.84-.18-53.24s.06-53.23.16-53.23.18,23.83.18,53.23S409.4,439.93,409.3,439.93Z"/><path class="cls-2" d="M430.13,368.53a5,5,0,0,1-.89.33l-2.47.84c-2.08.7-4.94,1.73-8,3s-6,2.39-7.61,3.82a5.52,5.52,0,0,0-1.53,2c-.24.56-.28.9-.31.9a.7.7,0,0,1,0-.25,4.28,4.28,0,0,1,.17-.7,5.45,5.45,0,0,1,1.5-2.16,13.64,13.64,0,0,1,3.3-2.05c1.32-.62,2.79-1.26,4.34-1.9,3.11-1.27,6-2.27,8.09-2.92,1.06-.32,1.91-.57,2.51-.73A4.46,4.46,0,0,1,430.13,368.53Z"/><path class="cls-2" d="M437,351.76a1.73,1.73,0,0,1-.25.26l-.77.72-2.85,2.6-9.51,8.46c-3.7,3.3-6.91,6.46-9.13,8.83-1.12,1.19-2,2.17-2.59,2.86l-.69.79-.26.26a1.37,1.37,0,0,1,.21-.31c.14-.19.35-.47.64-.83.57-.71,1.42-1.72,2.51-2.93a118.75,118.75,0,0,1,9.09-8.93c3.72-3.29,7.11-6.25,9.57-8.39l2.93-2.51.8-.67A1.23,1.23,0,0,1,437,351.76Z"/><path class="cls-2" d="M419.58,367.16c-.1-.05.68-1.84,1.45-4.1s1.15-4.17,1.24-4.16a13.75,13.75,0,0,1-.91,4.27A27.57,27.57,0,0,1,420.2,366,4.76,4.76,0,0,1,419.58,367.16Z"/><path class="cls-2" d="M409.32,381.58a4.45,4.45,0,0,1-.57-.66L407.29,379c-1.23-1.59-2.93-3.78-4.84-6.19s-3.66-4.55-4.93-6.11L396,364.89a4.47,4.47,0,0,1-.52-.71,4,4,0,0,1,.62.62c.38.41.92,1,1.58,1.78,1.32,1.52,3.1,3.66,5,6.06s3.58,4.63,4.76,6.26c.59.81,1.06,1.47,1.38,1.94A4.2,4.2,0,0,1,409.32,381.58Z"/><path class="cls-2" d="M404.76,375.72a8.38,8.38,0,0,1-1.92-3.58,10.19,10.19,0,0,1-.43-3.61h.15a1.24,1.24,0,0,1-.14.42s0-.16,0-.45l.15,0a17.24,17.24,0,0,0,.61,3.51A26.42,26.42,0,0,0,404.76,375.72Z"/><path class="cls-2" d="M398.86,368.3a6.48,6.48,0,0,0-1.33-.77,9,9,0,0,0-3.71-.3,23.24,23.24,0,0,0-3.74.6,9.9,9.9,0,0,1-1.54.37,5.82,5.82,0,0,1,1.48-.6,17.24,17.24,0,0,1,3.77-.71,8.07,8.07,0,0,1,3.83.41A2.4,2.4,0,0,1,398.86,368.3Z"/><path class="cls-2" d="M397.46,366.51c0,.05-.77-.32-2-.75a21,21,0,0,0-5.11-1.05,21.69,21.69,0,0,0-5.21.26c-1.32.24-2.12.49-2.13.43a2,2,0,0,1,.54-.23,12.44,12.44,0,0,1,1.55-.44,18.36,18.36,0,0,1,10.44.8,14,14,0,0,1,1.46.66C397.3,366.37,397.47,366.48,397.46,366.51Z"/><path class="cls-2" d="M409.28,358.9a85,85,0,0,1-2.65-10.45,43.12,43.12,0,0,1,1.49,5.18A43.79,43.79,0,0,1,409.28,358.9Z"/><path class="cls-2" d="M409.37,358.9a25.46,25.46,0,0,0-1.65-3.1,13.38,13.38,0,0,0-2.44-2.51,2.1,2.1,0,0,1,.94.48A7.6,7.6,0,0,1,408,355.6,6.73,6.73,0,0,1,409.37,358.9Z"/><path class="cls-2" d="M409.3,427.22s-.1-.57-.37-1.58a22.66,22.66,0,0,0-1.6-4.13,56.81,56.81,0,0,0-8.45-11.91c-1.88-2.15-3.71-4.19-5.27-6.13a44.81,44.81,0,0,1-3.77-5.44,27.26,27.26,0,0,1-1.9-4c-.17-.5-.3-.89-.37-1.16a1.9,1.9,0,0,1-.1-.41s.2.55.6,1.52a29.89,29.89,0,0,0,2,4,47.3,47.3,0,0,0,3.81,5.36c1.56,1.92,3.39,4,5.28,6.11a53.8,53.8,0,0,1,8.41,12,20.68,20.68,0,0,1,1.51,4.2q.17.78.21,1.2A2.19,2.19,0,0,1,409.3,427.22Z"/><path class="cls-2" d="M428.13,406a7.41,7.41,0,0,1-1,.55,22.57,22.57,0,0,0-2.56,1.7,28.7,28.7,0,0,0-3.36,3.06c-1.18,1.25-2.39,2.69-3.63,4.24-2.48,3.11-4.8,5.87-6.19,8.06a29,29,0,0,0-1.55,2.66,7.41,7.41,0,0,1-.55,1,1,1,0,0,1,.09-.28c.08-.18.18-.44.34-.77a25.52,25.52,0,0,1,1.46-2.73,87.64,87.64,0,0,1,6.13-8.14c1.24-1.56,2.47-3,3.67-4.25a27.7,27.7,0,0,1,3.44-3,17.8,17.8,0,0,1,2.65-1.61c.32-.17.59-.27.77-.35A.85.85,0,0,1,428.13,406Z"/><path class="cls-2" d="M428.49,412.86a15.07,15.07,0,0,1-2.08.3,28.18,28.18,0,0,0-5,1,14.93,14.93,0,0,0-4.42,2.33c-1,.79-1.51,1.44-1.55,1.4s.08-.19.31-.48a7.62,7.62,0,0,1,1.08-1.11,13.32,13.32,0,0,1,4.48-2.46,21.93,21.93,0,0,1,5-.89A10.36,10.36,0,0,1,428.49,412.86Z"/><path class="cls-2" d="M416.1,417.1c-.11-.06.83-1.49,1.55-3.42s.85-3.66,1-3.64a3.27,3.27,0,0,1,0,1.12,12,12,0,0,1-.61,2.63,12.89,12.89,0,0,1-1.21,2.42A3.43,3.43,0,0,1,416.1,417.1Z"/><path class="cls-2" d="M434.22,387.44a1.16,1.16,0,0,1-.33.18l-1,.45c-.43.18-1,.41-1.54.72s-1.28.62-2,1l-1.14.65c-.39.22-.78.49-1.2.75-.84.51-1.68,1.14-2.57,1.78a48.22,48.22,0,0,0-5.38,4.73,47.45,47.45,0,0,0-4.54,5.53c-.61.92-1.21,1.78-1.69,2.64-.24.42-.5.82-.71,1.22l-.61,1.16c-.41.73-.69,1.43-1,2s-.5,1.12-.67,1.56-.3.73-.41,1a1.65,1.65,0,0,1-.17.34,1.41,1.41,0,0,1,.1-.36l.35-1a15.64,15.64,0,0,1,.63-1.59c.26-.61.54-1.32.93-2.06l.59-1.18c.21-.4.46-.81.71-1.24.47-.87,1.06-1.74,1.67-2.67a42.54,42.54,0,0,1,10-10.34c.91-.63,1.76-1.26,2.61-1.76.42-.25.82-.52,1.22-.74l1.15-.63c.73-.42,1.43-.72,2-1s1.13-.51,1.56-.68l1-.38A1.65,1.65,0,0,1,434.22,387.44Z"/><path class="cls-2" d="M419.32,397.42a2.48,2.48,0,0,1,.82-1.22,5.21,5.21,0,0,1,3.3-1.26,9,9,0,0,1,3.48.68,4.79,4.79,0,0,1,1.31.64,10.49,10.49,0,0,1-1.39-.41,10.7,10.7,0,0,0-3.39-.57,5.39,5.39,0,0,0-3.15,1.11A12.65,12.65,0,0,0,419.32,397.42Z"/><path class="cls-2" d="M417.1,399.72a12.67,12.67,0,0,0,.93-3.05,12.18,12.18,0,0,0-.21-3.18s.23.31.39.89a6.27,6.27,0,0,1-.53,4.57C417.39,399.47,417.13,399.75,417.1,399.72Z"/><path class="cls-1" d="M392.84,430.64c.51,9.1,3.26,18.37,7.48,27.74h18.36c4-9.28,6.58-18.53,7-27.74Z"/><path class="cls-2" d="M422.74,445.38c0,.09-6,.17-13.5.17s-13.5-.08-13.5-.17,6-.18,13.5-.18S422.74,445.28,422.74,445.38Z"/><path class="cls-2" d="M422.33,448.68c0,.09-5.67.17-12.65.17s-12.66-.08-12.66-.17,5.66-.18,12.66-.18S422.33,448.58,422.33,448.68Z"/><path class="cls-2" d="M400.62,436.62a52.59,52.59,0,0,1,0,8.45,49.68,49.68,0,0,1,0-8.45Z"/><path class="cls-2" d="M410.45,436.62a53.38,53.38,0,0,1,0,8.76,56.51,56.51,0,0,1,0-8.76Z"/><path class="cls-2" d="M419.69,436.54a58.85,58.85,0,0,1,0,8.94,58.85,58.85,0,0,1,0-8.94Z"/><path class="cls-2" d="M425.13,436.62c0,.09-7.09.17-15.83.17s-15.84-.08-15.84-.17,7.09-.18,15.84-.18S425.13,436.52,425.13,436.62Z"/><path class="cls-2" d="M56.19,393.13a23.27,23.27,0,0,0-10-3.42,6.65,6.65,0,0,0-4.71.86,1,1,0,0,0-.49.86,1,1,0,0,0,.47.59,14.23,14.23,0,0,0,14.69,1.11"/><path class="cls-2" d="M55.94,392.85a48.24,48.24,0,0,1-6.44-5.66,16.23,16.23,0,0,1-4-7.46,3,3,0,0,1,.32-2.49c5.13,4,9.16,9.18,10.15,15.61"/><path class="cls-2" d="M56.14,393.1a23.07,23.07,0,0,1,.12-8.45,11.37,11.37,0,0,1,4.5-7c.88,2.07.5,4.46-.12,6.62a32.3,32.3,0,0,1-4.46,9.39"/><path class="cls-2" d="M61.17,402.1a14.76,14.76,0,0,0-8,4A15.07,15.07,0,0,0,48.61,414c3-.18,5.53-2.29,7.37-4.66s3.12-5,5.15-7.18"/><path class="cls-2" d="M62.26,403.55a19.71,19.71,0,0,1,2.27-18.64,23.75,23.75,0,0,1-2.27,18.64"/><path class="cls-2" d="M68.9,411.45a14.26,14.26,0,0,0-13.62,7.85c-.17.33-.32.76-.09,1.06a1,1,0,0,0,.9.27c2.69-.17,5.07-1.79,7-3.63s3.67-4,5.84-5.55"/><path class="cls-2" d="M68.69,411a25.3,25.3,0,0,1-.25-14.17c.5-1.82,1.33-3.74,3-4.6a.47.47,0,0,1,.76.26,8.55,8.55,0,0,1,.71,4.06,25,25,0,0,1-.64,4.12c-.53,2.52-.81,5.22-2.19,7.39a14.07,14.07,0,0,0-.88,1.62c-.26.55-.26.75-.5,1.19"/><path class="cls-2" d="M86.27,413.64a18.25,18.25,0,0,1,3.21-15c.23-.3.53-.62.91-.59.57.06.72.82.69,1.4a27.07,27.07,0,0,1-4.81,14.21"/><path class="cls-2" d="M87.86,414.73a21.87,21.87,0,0,0,17.93-3.65,14.55,14.55,0,0,0-9.71-1.19,13.82,13.82,0,0,0-8.22,4.84"/><path class="cls-2" d="M89.2,411.43A20.69,20.69,0,0,1,105.47,402a10,10,0,0,1-5.32,5.88,29.63,29.63,0,0,1-7.81,2.29c-1,.2-2.47.42-3.14,1.24"/><path class="cls-2" d="M86.61,395.42a47.58,47.58,0,0,0,2.08-9.53,15.84,15.84,0,0,0-1.9-9.43,20.74,20.74,0,0,0-.28,19.28"/><path class="cls-2" d="M97.21,390.06c3.69-6.7,11.2-12,18.8-12.79-2.93,7.3-10.93,13-18.8,12.79"/><path class="cls-2" d="M94.89,391.37c5.5.84,10.18,4.35,15.31,6.47a6.74,6.74,0,0,0,3.46.66,3,3,0,0,0,2.61-2.1,3.06,3.06,0,0,0-.91-2.69,7.52,7.52,0,0,0-2.52-1.52,27.91,27.91,0,0,0-17.47-1"/><path class="cls-2" d="M91.72,395.22c1.24.36,1.66,1,2.65,1.84A28.46,28.46,0,0,0,106,403c.44.11,1,.16,1.24-.24s0-.78-.3-1.09a16,16,0,0,0-7-4.76c-2.68-1-5-2.2-8.19-1.94"/><path class="cls-2" d="M88.13,372A22,22,0,0,0,105,377.68a1.15,1.15,0,0,0,.77-.27c.42-.46-.09-1.17-.58-1.56a19.42,19.42,0,0,0-17-3.9"/><path class="cls-2" d="M92.38,370.4a23.49,23.49,0,0,1,21-3.47,16.72,16.72,0,0,1-10,4.4,31.92,31.92,0,0,1-11-.93"/><path class="cls-2" d="M90.69,359.71c-.48-4.95-.17-8.85-.51-13.81,0-.4-.11-.88-.49-1s-.94.44-1.11,1a15.86,15.86,0,0,0,2.1,13.76"/><path class="cls-2" d="M90.34,360.25a28.93,28.93,0,0,0,8.18-7.95c1.62-2.22,3-4.87,2.61-7.58a7.8,7.8,0,0,0-5.9,2.93,16.43,16.43,0,0,0-3,6.06c-.66,2.17-1.11,4.41-1.88,6.54"/><path class="cls-2" d="M98.38,358a66.25,66.25,0,0,0,20.15-11.88c-2.41-1-5.17-.39-7.57.58A23.88,23.88,0,0,0,98.27,358"/><path class="cls-2" d="M92.6,363a41,41,0,0,0,11.18.05,47.49,47.49,0,0,0,10.45-3.47,1.26,1.26,0,0,0,.71-.54.81.81,0,0,0-.26-.89,2.16,2.16,0,0,0-.89-.42,19.34,19.34,0,0,0-11.28.67A52.46,52.46,0,0,0,92.6,363"/><path class="cls-2" d="M71.36,372.12a19.77,19.77,0,0,1-.18-16.37c1.54,2.35,1.73,5.34,1.45,8.14s-1.13,5.68-1.19,8.49"/><path class="cls-2" d="M61.23,367a22.86,22.86,0,0,0-17,7.23,15.89,15.89,0,0,0,9.3-1.72,48.08,48.08,0,0,0,8-5.33"/><path class="cls-2" d="M54.41,364.73c-3.1-.25-6.08-.63-9.06.28a10.88,10.88,0,0,0-6.91,5.86,16.41,16.41,0,0,0,8.5-1.61,48.27,48.27,0,0,0,7.47-4.53"/><path class="cls-2" d="M64.5,364.84c-2.79-1.83-5.65-3.69-8.9-4.45s-7-.2-9.27,2.25c2.63,1.54,5.82,1.73,8.86,1.72s6.79,0,9.66,1"/><path class="cls-2" d="M64.52,365c-4.77-4.68-6.58-13.08-4.66-19.48A29.65,29.65,0,0,1,64.52,365"/><path class="cls-2" d="M77.62,351.72c.9-2.09,1.53-4.28,2.34-6.41a18.64,18.64,0,0,1,3.33-5.91,8.82,8.82,0,0,1,5.91-3.06,23.81,23.81,0,0,1-11.46,15.42"/><path class="cls-2" d="M75.25,354.49c-1.49-2.05-3.2-4.83-5.22-6.36a8.77,8.77,0,0,0-7.11-1.87,16.57,16.57,0,0,0,12.33,8.23"/><path class="cls-2" d="M75.73,351.89a35.3,35.3,0,0,1-2.36-7.61,11.87,11.87,0,0,1,1.2-7.74c2.61,4.94,3.46,10.25,1.29,15.41"/><path class="cls-2" d="M77.65,336.54c1.48-4.91,6-8.52,10.82-10.17a4,4,0,0,1,1.89-.29,1.65,1.65,0,0,1,1.4,1.17c.18.83-.51,1.58-1.16,2.13a36.85,36.85,0,0,1-12.95,7.16"/><path class="cls-2" d="M77.7,332.53a35.53,35.53,0,0,1,1.41-9.37,11.83,11.83,0,0,1,5.9-7.11c.49,3.19-.92,6.37-2.62,9.11s-3.75,5.34-4.77,8.41"/><path class="cls-2" d="M77.62,334.7c-1.22-3.57-1.35-8.11-3.49-11.22-1.49-2.18-3.89-3.66-5.18-6a9.13,9.13,0,0,0,.3,6.77,19.71,19.71,0,0,0,4,5.67c1.59,1.69,2.94,3,4.41,4.75"/><path class="cls-2" d="M77.65,439.93c-.1,0-.18-23.84-.19-53.24s.07-53.23.16-53.23.18,23.83.19,53.23S77.74,439.93,77.65,439.93Z"/><path class="cls-2" d="M98.48,368.53a6,6,0,0,1-.9.33l-2.47.84c-2.07.7-4.93,1.73-8,3s-6,2.39-7.62,3.82a5.63,5.63,0,0,0-1.53,2c-.23.56-.28.9-.31.9a1.19,1.19,0,0,1,0-.25,3.59,3.59,0,0,1,.18-.7,5.41,5.41,0,0,1,1.49-2.16,13.53,13.53,0,0,1,3.31-2.05c1.32-.62,2.78-1.26,4.34-1.9,3.11-1.27,6-2.27,8.09-2.92,1-.32,1.91-.57,2.5-.73A4.47,4.47,0,0,1,98.48,368.53Z"/><path class="cls-2" d="M105.3,351.76a1.23,1.23,0,0,1-.25.26l-.76.72-2.86,2.6-9.5,8.46c-3.71,3.3-6.92,6.46-9.14,8.83-1.11,1.19-2,2.17-2.58,2.86l-.69.79-.26.26a1.5,1.5,0,0,1,.2-.31l.64-.83c.57-.71,1.42-1.72,2.51-2.93a118.75,118.75,0,0,1,9.09-8.93c3.72-3.29,7.11-6.25,9.57-8.39l2.93-2.51L105,352A1.34,1.34,0,0,1,105.3,351.76Z"/><path class="cls-2" d="M87.92,367.16c-.09-.05.68-1.84,1.45-4.1s1.15-4.17,1.25-4.16a14,14,0,0,1-.92,4.27A30.27,30.27,0,0,1,88.55,366,4.18,4.18,0,0,1,87.92,367.16Z"/><path class="cls-2" d="M77.67,381.58a3.82,3.82,0,0,1-.57-.66L75.63,379c-1.23-1.59-2.93-3.78-4.83-6.19s-3.66-4.55-4.93-6.11l-1.5-1.85a5.5,5.5,0,0,1-.52-.71,4,4,0,0,1,.62.62c.38.41.92,1,1.58,1.78,1.32,1.52,3.11,3.66,5,6.06s3.58,4.63,4.76,6.26c.59.81,1.06,1.47,1.38,1.94A5.18,5.18,0,0,1,77.67,381.58Z"/><path class="cls-2" d="M73.1,375.72a8.55,8.55,0,0,1-1.91-3.58,10.51,10.51,0,0,1-.44-3.61h.16q-.1.42-.15.42s0-.16,0-.45l.15,0a15.92,15.92,0,0,0,.61,3.51A27.16,27.16,0,0,0,73.1,375.72Z"/><path class="cls-2" d="M67.21,368.3a6.78,6.78,0,0,0-1.34-.77,9,9,0,0,0-3.71-.3,23.28,23.28,0,0,0-3.73.6,10.2,10.2,0,0,1-1.54.37,5.42,5.42,0,0,1,1.47-.6,17.35,17.35,0,0,1,3.78-.71,8,8,0,0,1,3.82.41A2.4,2.4,0,0,1,67.21,368.3Z"/><path class="cls-2" d="M65.81,366.51c0,.05-.78-.32-2.05-.75a20.91,20.91,0,0,0-5.1-1.05,21.69,21.69,0,0,0-5.21.26c-1.32.24-2.12.49-2.14.43a2.23,2.23,0,0,1,.54-.23,13.56,13.56,0,0,1,1.55-.44,18.36,18.36,0,0,1,10.44.8,13.44,13.44,0,0,1,1.47.66C65.64,366.37,65.82,366.48,65.81,366.51Z"/><path class="cls-2" d="M77.62,358.9a41.77,41.77,0,0,1-1.49-5.18A43.79,43.79,0,0,1,75,348.45a43.12,43.12,0,0,1,1.49,5.18A39.57,39.57,0,0,1,77.62,358.9Z"/><path class="cls-2" d="M77.72,358.9a24.78,24.78,0,0,0-1.66-3.1,13.52,13.52,0,0,0-2.43-2.51s.4.1.94.48a7.79,7.79,0,0,1,1.78,1.83A7,7,0,0,1,77.72,358.9Z"/><path class="cls-2" d="M77.65,427.22s-.11-.57-.38-1.58a21.77,21.77,0,0,0-1.59-4.13,57.19,57.19,0,0,0-8.45-11.91c-1.89-2.15-3.72-4.19-5.27-6.13A42.65,42.65,0,0,1,58.19,398a26.49,26.49,0,0,1-1.91-4c-.17-.5-.3-.89-.37-1.16a3.24,3.24,0,0,1-.1-.41s.21.55.6,1.52a29,29,0,0,0,2,4,45.87,45.87,0,0,0,3.8,5.36c1.56,1.92,3.4,4,5.29,6.11a54.48,54.48,0,0,1,8.41,12,21.16,21.16,0,0,1,1.5,4.2,10.22,10.22,0,0,1,.21,1.2A1.88,1.88,0,0,1,77.65,427.22Z"/><path class="cls-2" d="M96.47,406a7.41,7.41,0,0,1-1,.55,22.57,22.57,0,0,0-2.56,1.7,30.4,30.4,0,0,0-3.36,3.06c-1.17,1.25-2.39,2.69-3.63,4.24-2.48,3.11-4.8,5.87-6.19,8.06-.7,1.09-1.21,2-1.55,2.66a10.75,10.75,0,0,1-.54,1,1,1,0,0,1,.09-.28c.07-.18.17-.44.33-.77a24.18,24.18,0,0,1,1.47-2.73,89.12,89.12,0,0,1,6.12-8.14c1.24-1.56,2.47-3,3.68-4.25a27,27,0,0,1,3.44-3,17.8,17.8,0,0,1,2.64-1.61c.33-.17.6-.27.77-.35A1,1,0,0,1,96.47,406Z"/><path class="cls-2" d="M96.84,412.86a15.78,15.78,0,0,1-2.09.3,28.09,28.09,0,0,0-4.94,1,14.88,14.88,0,0,0-4.43,2.33c-1,.79-1.5,1.44-1.55,1.4s.08-.19.31-.48a7.79,7.79,0,0,1,1.09-1.11,13.26,13.26,0,0,1,4.47-2.46,21.91,21.91,0,0,1,5-.89A10.37,10.37,0,0,1,96.84,412.86Z"/><path class="cls-2" d="M84.44,417.1c-.11-.06.83-1.49,1.56-3.42s.84-3.66,1-3.64a3.47,3.47,0,0,1,0,1.12,11.47,11.47,0,0,1-.61,2.63,12.31,12.31,0,0,1-1.21,2.42C84.74,416.79,84.48,417.13,84.44,417.1Z"/><path class="cls-2" d="M102.57,387.44a1.36,1.36,0,0,1-.34.18l-1,.45c-.43.18-1,.41-1.53.72s-1.28.62-2,1l-1.13.65c-.4.22-.79.49-1.2.75-.84.51-1.68,1.14-2.58,1.78a48.16,48.16,0,0,0-5.37,4.73,47.58,47.58,0,0,0-4.55,5.53c-.61.92-1.2,1.78-1.68,2.64-.25.42-.5.82-.72,1.22s-.41.79-.61,1.16c-.4.73-.69,1.43-1,2s-.51,1.12-.68,1.56-.3.73-.41,1a2.17,2.17,0,0,1-.16.34s0-.13.1-.36l.35-1c.15-.45.35-1,.62-1.59s.54-1.32.94-2.06l.59-1.18c.21-.4.46-.81.7-1.24.47-.87,1.07-1.74,1.67-2.67a43,43,0,0,1,10-10.34c.91-.63,1.76-1.26,2.61-1.76.42-.25.82-.52,1.22-.74l1.16-.63c.72-.42,1.42-.72,2-1s1.13-.51,1.57-.68l1-.38A1.48,1.48,0,0,1,102.57,387.44Z"/><path class="cls-2" d="M87.67,397.42a2.39,2.39,0,0,1,.82-1.22,5.18,5.18,0,0,1,3.3-1.26,9,9,0,0,1,3.47.68,4.79,4.79,0,0,1,1.31.64,11,11,0,0,1-1.39-.41,10.63,10.63,0,0,0-3.38-.57,5.36,5.36,0,0,0-3.15,1.11A9.36,9.36,0,0,0,87.67,397.42Z"/><path class="cls-2" d="M85.44,399.72a11.93,11.93,0,0,0,.94-3.05,12.18,12.18,0,0,0-.21-3.18s.22.31.39.89A6.34,6.34,0,0,1,86,399C85.73,399.47,85.48,399.75,85.44,399.72Z"/><path class="cls-1" d="M61.18,430.64c.52,9.1,3.26,18.37,7.49,27.74H87c4-9.28,6.58-18.53,7-27.74Z"/><path class="cls-2" d="M91.09,445.38c0,.09-6,.17-13.5.17s-13.51-.08-13.51-.17,6-.18,13.51-.18S91.09,445.28,91.09,445.38Z"/><path class="cls-2" d="M90.68,448.68c0,.09-5.67.17-12.66.17s-12.66-.08-12.66-.17S71,448.5,78,448.5,90.68,448.58,90.68,448.68Z"/><path class="cls-2" d="M69,436.62a52.59,52.59,0,0,1,0,8.45,52.59,52.59,0,0,1,0-8.45Z"/><path class="cls-2" d="M78.8,436.62a56.51,56.51,0,0,1,0,8.76,56.51,56.51,0,0,1,0-8.76Z"/><path class="cls-2" d="M88,436.54a55.59,55.59,0,0,1,0,8.94,58.85,58.85,0,0,1,0-8.94Z"/><path class="cls-2" d="M93.48,436.62c0,.09-7.09.17-15.84.17s-15.83-.08-15.83-.17,7.09-.18,15.83-.18S93.48,436.52,93.48,436.62Z"/><rect class="cls-1" x="293.72" y="366.51" width="32.28" height="8.54"/><path class="cls-1" d="M312.35,384s0-.05,0-.15v-.44q0-.6,0-1.68c0-1.47,0-3.59-.05-6.27l.1.1-32.28.07c.08-.07-.16.16.16-.17h0V384l-.16-.16,23,.08,6.79,0,1.84,0h0l-1.8,0-6.76,0-23.11.07h-.16v-8.68h0l.16-.16,32.28.06h.1v.1c0,2.7,0,4.84-.06,6.33,0,.71,0,1.26,0,1.66,0,.17,0,.31,0,.42S312.35,384.05,312.35,384Z"/><rect class="cls-1" x="441.41" y="56.54" width="32.28" height="8.54"/><path class="cls-1" d="M460,74.07s0,0,0-.15,0-.26,0-.44c0-.4,0-1,0-1.68,0-1.48,0-3.59-.06-6.27l.1.1-32.27.07c.07-.08-.17.16.16-.17h0v8.52l-.16-.16,23,.07,6.79,0,1.83,0H460s0,0-.15,0h-.46l-1.8,0-6.75,0-23.11.07h-.16v-.16c0-1.37,0-2.77,0-4.2V65.55h0c.33-.33.09-.09.17-.16l32.27.06h.1v.1c0,2.7,0,4.84-.05,6.33,0,.71,0,1.26,0,1.66,0,.17,0,.31,0,.42S460,74.08,460,74.07Z"/><rect class="cls-1" x="62.25" y="39.09" width="32.28" height="8.54"/><path class="cls-1" d="M80.88,56.63s0-.06,0-.16V56c0-.4,0-1,0-1.68,0-1.47,0-3.59-.06-6.26l.1.1-32.27.06.16-.16h0v8.52l-.16-.16,23,.08,6.79,0,1.83,0h.48c.11,0,.17,0,.17,0h-.61l-1.8,0-6.75,0-23.11.08h-.17V48.1h0l.17-.17L80.88,48H81v.1c0,2.69,0,4.83,0,6.32,0,.71,0,1.26,0,1.66,0,.17,0,.31,0,.42S80.89,56.63,80.88,56.63Z"/><path class="cls-1" d="M399.14,30.25a.85.85,0,0,1,0-.15v-.44q0-.6,0-1.68c0-1.48,0-3.59,0-6.27l.1.1-32.28.07.17-.17h0v4.32c0,1.43,0,2.83,0,4.2l-.16-.16,23,.07,6.79.05,1.84,0h.65s-.05,0-.15,0h-.46l-1.8,0-6.75.05-23.12.07h-.16V21.73h0l.16-.16,32.28.06h.1v.1c0,2.7,0,4.84-.06,6.33,0,.71,0,1.26,0,1.66,0,.17,0,.31,0,.42A.5.5,0,0,1,399.14,30.25Z"/><path class="cls-1" d="M403.52,21.71s0-.06,0-.16V21.1q0-.63,0-1.71c0-1.5,0-3.62-.06-6.22l.12.12-19.4.05c-.14.15.2-.2.17-.16h0v8.52l-.16-.15,13.87.07,4.05,0,1.09,0,.39,0a1.41,1.41,0,0,1-.36,0l-1.05,0-4,.05-14,.07H384v-.16c0-1.32,0-2.71,0-4.14V13.19h0s.31-.32.16-.17l19.4.05h.11v.11c0,2.63,0,4.77-.06,6.29q0,1.07,0,1.68C403.53,21.53,403.52,21.72,403.52,21.71Z"/><path class="cls-1" d="M240.47,340.47a.46.46,0,0,1,0-.16v-.44q0-.6,0-1.68c0-1.47,0-3.59,0-6.26l.1.1-32.28.06.16-.16h0v8.53l-.16-.16,23,.07,6.79.05,1.84,0h0l-1.81,0-6.75,0-23.11.08H208v-.16c0-1.38,0-2.78,0-4.2v-4.33h0l.17-.17,32.28.07h.1v.1c0,2.7,0,4.84-.06,6.32,0,.71,0,1.26,0,1.66v.42C240.47,340.42,240.47,340.47,240.47,340.47Z"/><path class="cls-1" d="M244.84,331.93a1.26,1.26,0,0,1,0-.16c0-.13,0-.28,0-.46q0-.63,0-1.71c0-1.5,0-3.61-.07-6.21l.12.12-19.39,0,.16-.16h0v8.51l-.16-.16,13.87.08,4,0,1.09,0,.39,0-.35,0-1.06,0-4,0-14,.07h-.16v-8.67h0s.32-.31.17-.17l19.39,0H245v.12c0,2.63-.05,4.77-.06,6.28,0,.71,0,1.28,0,1.69A3.92,3.92,0,0,1,244.84,331.93Z"/></g><g id="Picture_3" data-name="Picture 3"><rect class="cls-2" x="383.81" y="92.51" width="89.89" height="116.1"/><path class="cls-1" d="M473.7,92.51a1.23,1.23,0,0,1-.24.31l-.78.87-3,3.33,0,0h-.05c-7.82.08-23.17.14-40.8.14s-33-.06-40.8-.14h-.06l0,0-3-3.33-.77-.87a2.15,2.15,0,0,1-.25-.31,2,2,0,0,1,.3.27l.82.82,3.12,3.25-.09,0c7.81-.08,23.17-.13,40.8-.13s33,0,40.8.13l-.1,0,3.13-3.25.82-.82A1.74,1.74,0,0,1,473.7,92.51Z"/><path class="cls-1" d="M383.81,208.61a3.12,3.12,0,0,1,.25-.31l.77-.87,3-3.33,0,0H388c7.81-.08,23.17-.13,40.8-.13s33,0,40.8.13h.05l0,0,3,3.33.78.87a1.49,1.49,0,0,1,.24.31s-.11-.08-.29-.27l-.82-.82-3.13-3.25.1,0c-7.82.08-23.17.14-40.8.14s-33-.06-40.8-.14l.09,0-3.12,3.25-.82.82Q383.83,208.63,383.81,208.61Z"/><rect class="cls-3" x="387.96" y="96.94" width="81.6" height="107.25"/><path class="cls-4" d="M400.73,172.82c2.42-2.31,6-3,9.36-2.88s6.67.79,10,.75c5.36-.07,10.7-2.05,16-1.14,1.69.3,3.4.88,5.08.53,1.47-.32,2.7-1.32,4.14-1.75,3.72-1.11,7.9,1.8,11.48.29v23.94H400.73Z"/><path class="cls-1" d="M401.86,173.78c-.15,0-.26-14.18-.26-31.67s.11-31.67.26-31.67.26,14.18.26,31.67S402,173.78,401.86,173.78Z"/><path class="cls-1" d="M404.41,173.78c-.15,0-.26-14.18-.26-31.67s.11-31.67.26-31.67.26,14.18.26,31.67S404.55,173.78,404.41,173.78Z"/><path class="cls-1" d="M407,173.78c-.14,0-.26-14.18-.26-31.67s.12-31.67.26-31.67.26,14.18.26,31.67S407.1,173.78,407,173.78Z"/><path class="cls-1" d="M409.51,173.78c-.14,0-.26-14.18-.26-31.67s.12-31.67.26-31.67.26,14.18.26,31.67S409.66,173.78,409.51,173.78Z"/><path class="cls-1" d="M412.07,173.78c-.15,0-.26-14.18-.26-31.67s.11-31.67.26-31.67.26,14.18.26,31.67S412.21,173.78,412.07,173.78Z"/><path class="cls-1" d="M414.62,173.78c-.15,0-.26-14.18-.26-31.67s.11-31.67.26-31.67.26,14.18.26,31.67S414.76,173.78,414.62,173.78Z"/><path class="cls-1" d="M417.17,173.78c-.14,0-.26-14.18-.26-31.67s.12-31.67.26-31.67.26,14.18.26,31.67S417.31,173.78,417.17,173.78Z"/><path class="cls-1" d="M419.72,173.78c-.14,0-.26-14.18-.26-31.67s.12-31.67.26-31.67.26,14.18.26,31.67S419.87,173.78,419.72,173.78Z"/><path class="cls-1" d="M422.28,173.78c-.15,0-.27-14.18-.27-31.67s.12-31.67.27-31.67.26,14.18.26,31.67S422.42,173.78,422.28,173.78Z"/><path class="cls-1" d="M424.83,173.78c-.15,0-.26-14.18-.26-31.67s.11-31.67.26-31.67.26,14.18.26,31.67S425,173.78,424.83,173.78Z"/><path class="cls-1" d="M427.38,173.78c-.14,0-.26-14.18-.26-31.67s.12-31.67.26-31.67.26,14.18.26,31.67S427.52,173.78,427.38,173.78Z"/><path class="cls-1" d="M429.93,173.78c-.14,0-.26-14.18-.26-31.67s.12-31.67.26-31.67.26,14.18.26,31.67S430.08,173.78,429.93,173.78Z"/><path class="cls-1" d="M432.48,173.78c-.14,0-.26-14.18-.26-31.67s.12-31.67.26-31.67.27,14.18.27,31.67S432.63,173.78,432.48,173.78Z"/><path class="cls-1" d="M435,173.78c-.15,0-.26-14.18-.26-31.67s.11-31.67.26-31.67.26,14.18.26,31.67S435.18,173.78,435,173.78Z"/><path class="cls-1" d="M437.59,173.78c-.14,0-.26-14.18-.26-31.67s.12-31.67.26-31.67.26,14.18.26,31.67S437.73,173.78,437.59,173.78Z"/><path class="cls-1" d="M440.14,173.78c-.14,0-.26-14.18-.26-31.67s.12-31.67.26-31.67.26,14.18.26,31.67S440.29,173.78,440.14,173.78Z"/><path class="cls-1" d="M442.69,173.78c-.14,0-.26-14.18-.26-31.67s.12-31.67.26-31.67.26,14.18.26,31.67S442.84,173.78,442.69,173.78Z"/><path class="cls-1" d="M445.25,173.78c-.15,0-.26-14.18-.26-31.67s.11-31.67.26-31.67.26,14.18.26,31.67S445.39,173.78,445.25,173.78Z"/><path class="cls-1" d="M447.8,173.78c-.14,0-.26-14.18-.26-31.67s.12-31.67.26-31.67.26,14.18.26,31.67S447.94,173.78,447.8,173.78Z"/><path class="cls-1" d="M450.35,173.78c-.14,0-.26-14.18-.26-31.67s.12-31.67.26-31.67.26,14.18.26,31.67S450.5,173.78,450.35,173.78Z"/><path class="cls-1" d="M452.9,173.78c-.14,0-.26-14.18-.26-31.67s.12-31.67.26-31.67.26,14.18.26,31.67S453.05,173.78,452.9,173.78Z"/><path class="cls-1" d="M455.46,173.78c-.15,0-.26-14.18-.26-31.67s.11-31.67.26-31.67.26,14.18.26,31.67S455.6,173.78,455.46,173.78Z"/></g><g id="Picture_2" data-name="Picture 2"><rect class="cls-1" x="131.92" y="23.15" width="234.25" height="274.64"/><rect class="cls-3" x="136.34" y="27.47" width="225.4" height="265.99"/><rect class="cls-2" x="145.26" y="38" width="208.31" height="245.83"/><path class="cls-1" d="M288.69,84.26q-.75-10.45-1.48-20.9a5.4,5.4,0,0,0-1-3.4c-1.17-1.24-3.16-1.07-4.84-.8L217.57,69.24l-5,30.2q35.92-3.78,71.67-9.12a5.88,5.88,0,0,0,3.38-1.26C288.84,87.88,288.81,86,288.69,84.26Z"/><path class="cls-5" d="M184.54,40.41C172.17,41.34,161,49.63,155,60.48s-7.2,23.93-5.06,36.14c1.48,8.46,4.78,17,11.47,22.43,6.27,5.07,14.77,6.65,22.82,6.25,14.36-.72,29.2-8.37,34.61-21.7,3-7.4,2.86-15.67,2.2-23.62-.69-8.37-2-17-6.32-24.13-6-9.87-18.7-16.31-30.2-15.44"/><path class="cls-4" d="M336,283.94c-4.53-13.93-26.79-23.38-41.34-25s-29.16,1.56-43.78,2.41-30.52-1.17-41.22-11.16c-12.9-12-14.91-32.43-27.38-44.9A36.25,36.25,0,0,0,145,197.1v87.33Z"/><path class="cls-6" d="M164.07,44.82s21,51.34,25.28,57.17,12.83,16.73,44.72,34.62L224.35,277,168,265.35,153.18,47.16Z"/><path class="cls-5" d="M336.81,138.13a81,81,0,0,0-5.3-16.15,38.86,38.86,0,0,0-6.45-9.6h0A39.72,39.72,0,0,0,302.82,100a33.76,33.76,0,0,0-3.46-.45c-6.64-.54-13.82,1.25-18.25,6.23-3.47,3.89-4.86,9.15-6.07,14.22-5.32,22.21-9.44,44.8-10.16,67.63-.32,10.09.05,20.34,2.86,30s8.25,18.91,16.5,24.74,19.51,7.82,28.74,3.7c9-4,14.77-12.92,18.74-21.91C343.55,197.44,343.53,166.6,336.81,138.13Z"/><path class="cls-7" d="M353.58,38H292.33l61.25,112.56C353.56,115.29,353.58,38,353.58,38Z"/><path class="cls-1" d="M259.49,214.79c-2.37-4.33-4.81-8.87-4.93-13.8-.17-6.6,3.78-12.52,7.57-17.93l15.66-22.33c2.2-3.13,4.46-6.44,4.91-10.23.7-5.86-2.93-10.85-7.47-15a8.74,8.74,0,0,0-10.86-.73c-22.1,15.37-44.71,32.17-66.72,47.28-3.09,2.12-6.33,4.41-7.91,7.81-1.76,3.78-1.14,8.18-.48,12.3,4.47,28.13,18.52,81.77,18.52,81.77l95.29-.11S269.24,232.58,259.49,214.79Z"/><path class="cls-2" d="M366.16,23.15a9.19,9.19,0,0,1-2,2.35,9.36,9.36,0,0,1-2.4,2,9.63,9.63,0,0,1,2-2.35A9.49,9.49,0,0,1,366.16,23.15Z"/><path class="cls-2" d="M362,293.42a8.81,8.81,0,0,1,2.22,2,8.4,8.4,0,0,1,1.84,2.32,8.81,8.81,0,0,1-2.22-2A8.4,8.4,0,0,1,362,293.42Z"/><path class="cls-2" d="M136.2,293.41a9.62,9.62,0,0,1-2,2.35,9.37,9.37,0,0,1-2.36,2,17.74,17.74,0,0,1,4.36-4.34Z"/><path class="cls-2" d="M132,23.16a14.11,14.11,0,0,1,2.23,2.11,14.11,14.11,0,0,1,2.12,2.22,7,7,0,0,1-2.49-1.85A7,7,0,0,1,132,23.16Z"/></g><g id="Picture_1" data-name="Picture 1"><rect class="cls-2" x="19.55" y="95.11" width="89.89" height="116.1" transform="translate(128.99 306.31) rotate(180)"/><path class="cls-1" d="M19.55,211.2a2.71,2.71,0,0,1,.25-.31l.77-.87,3-3.33,0,0h.06c7.81-.08,23.17-.13,40.79-.13s33,0,40.81.13h0l0,0,3,3.33.78.87a1.9,1.9,0,0,1,.24.31s-.11-.08-.29-.26l-.82-.83-3.13-3.24.1,0c-7.82.08-23.17.13-40.81.13s-33,0-40.79-.13l.09,0-3.12,3.24-.82.83A1.56,1.56,0,0,1,19.55,211.2Z"/><path class="cls-1" d="M109.44,95.11a1.49,1.49,0,0,1-.24.31l-.78.87-3,3.33,0,0h0c-7.82.08-23.17.13-40.8.13s-33-.05-40.8-.13h-.06l0,0-3-3.33-.77-.87a1.93,1.93,0,0,1-.25-.31,1.56,1.56,0,0,1,.3.26l.82.83,3.12,3.24-.09,0c7.81-.08,23.17-.13,40.8-.13s33,0,40.8.13l-.1,0,3.13-3.24.82-.83C109.33,95.19,109.43,95.1,109.44,95.11Z"/><rect class="cls-3" x="23.7" y="99.53" width="81.6" height="107.25" transform="translate(128.99 306.31) rotate(180)"/><path class="cls-7" d="M35.36,111.59c0,6-.08,12.06,1.51,17.83s5,11.3,10.37,14c3.64,1.85,7.83,2.28,11.91,2.37,4.57.11,9.26-.17,13.47-2,6-2.57,10.49-8,13-14.08s3.36-12.67,3.76-19.21Z"/><path class="cls-1" d="M35.48,174.51c-.15,0-.27-14.18-.27-31.67s.12-31.68.27-31.68.26,14.18.26,31.68S35.62,174.51,35.48,174.51Z"/><path class="cls-1" d="M38,174.51c-.15,0-.26-14.18-.26-31.67s.11-31.68.26-31.68.26,14.18.26,31.68S38.17,174.51,38,174.51Z"/><path class="cls-1" d="M40.58,174.51c-.14,0-.26-14.18-.26-31.67s.12-31.68.26-31.68.26,14.18.26,31.68S40.72,174.51,40.58,174.51Z"/><path class="cls-1" d="M43.13,174.51c-.14,0-.26-14.18-.26-31.67s.12-31.68.26-31.68.26,14.18.26,31.68S43.28,174.51,43.13,174.51Z"/><path class="cls-1" d="M45.68,174.51c-.14,0-.26-14.18-.26-31.67s.12-31.68.26-31.68.26,14.18.26,31.68S45.83,174.51,45.68,174.51Z"/><path class="cls-1" d="M48.24,174.51c-.15,0-.26-14.18-.26-31.67s.11-31.68.26-31.68.26,14.18.26,31.68S48.38,174.51,48.24,174.51Z"/><path class="cls-1" d="M50.79,174.51c-.14,0-.26-14.18-.26-31.67s.12-31.68.26-31.68.26,14.18.26,31.68S50.93,174.51,50.79,174.51Z"/><path class="cls-1" d="M53.34,174.51c-.14,0-.26-14.18-.26-31.67s.12-31.68.26-31.68.26,14.18.26,31.68S53.49,174.51,53.34,174.51Z"/><path class="cls-1" d="M55.89,174.51c-.14,0-.26-14.18-.26-31.67s.12-31.68.26-31.68.26,14.18.26,31.68S56,174.51,55.89,174.51Z"/><path class="cls-1" d="M58.45,174.51c-.15,0-.26-14.18-.26-31.67s.11-31.68.26-31.68.26,14.18.26,31.68S58.59,174.51,58.45,174.51Z"/><path class="cls-1" d="M61,174.51c-.14,0-.26-14.18-.26-31.67s.12-31.68.26-31.68.26,14.18.26,31.68S61.14,174.51,61,174.51Z"/><path class="cls-1" d="M63.55,174.51c-.14,0-.26-14.18-.26-31.67s.12-31.68.26-31.68.26,14.18.26,31.68S63.7,174.51,63.55,174.51Z"/><path class="cls-1" d="M66.1,174.51c-.14,0-.26-14.18-.26-31.67s.12-31.68.26-31.68.26,14.18.26,31.68S66.25,174.51,66.1,174.51Z"/><path class="cls-1" d="M68.66,174.51c-.15,0-.26-14.18-.26-31.67s.11-31.68.26-31.68.26,14.18.26,31.68S68.8,174.51,68.66,174.51Z"/><path class="cls-1" d="M71.21,174.51c-.15,0-.26-14.18-.26-31.67s.11-31.68.26-31.68.26,14.18.26,31.68S71.35,174.51,71.21,174.51Z"/><path class="cls-1" d="M73.76,174.51c-.14,0-.26-14.18-.26-31.67s.12-31.68.26-31.68.26,14.18.26,31.68S73.9,174.51,73.76,174.51Z"/><path class="cls-1" d="M76.31,174.51c-.14,0-.26-14.18-.26-31.67s.12-31.68.26-31.68.26,14.18.26,31.68S76.46,174.51,76.31,174.51Z"/><path class="cls-1" d="M78.87,174.51c-.15,0-.26-14.18-.26-31.67s.11-31.68.26-31.68.26,14.18.26,31.68S79,174.51,78.87,174.51Z"/><path class="cls-1" d="M81.42,174.51c-.15,0-.26-14.18-.26-31.67s.11-31.68.26-31.68.26,14.18.26,31.68S81.56,174.51,81.42,174.51Z"/><path class="cls-1" d="M84,174.51c-.14,0-.26-14.18-.26-31.67s.12-31.68.26-31.68.26,14.18.26,31.68S84.11,174.51,84,174.51Z"/><path class="cls-1" d="M86.52,174.51c-.14,0-.26-14.18-.26-31.67s.12-31.68.26-31.68.26,14.18.26,31.68S86.67,174.51,86.52,174.51Z"/><path class="cls-1" d="M89.08,174.51c-.15,0-.27-14.18-.27-31.67s.12-31.68.27-31.68.26,14.18.26,31.68S89.22,174.51,89.08,174.51Z"/><path class="cls-2" d="M34.35,173.54c2.42-2.31,6-3,9.36-2.88s6.67.79,10,.75c5.36-.07,10.7-2,16-1.13,1.69.29,3.4.88,5.08.52,1.47-.31,2.7-1.32,4.13-1.74,3.73-1.11,7.91,1.8,11.49.28v23.94H34.35Z"/></g><g id="Character_2" data-name="Character 2"><path class="cls-2" d="M358.13,430.59l.67,17.82s-17.9,6.66-18.09,10l34.59-.05.11-27.81Z"/><path class="cls-1" d="M375.3,458.33v-2.89l-33.24,1.18s-1.54.67-1.36,1.76Z"/><path class="cls-1" d="M358.23,448.24c0,.17.85.24,1.69.78s1.27,1.26,1.43,1.19-.1-1-1.12-1.68S358.2,448.08,358.23,448.24Z"/><path class="cls-1" d="M354.61,449.74c0,.17.69.45,1.27,1.17s.74,1.47.9,1.46.28-1-.45-1.84S354.61,449.58,354.61,449.74Z"/><path class="cls-1" d="M352.55,454.09c.15,0,.39-.81-.05-1.74s-1.22-1.29-1.29-1.15.42.64.76,1.4S352.38,454.07,352.55,454.09Z"/><path class="cls-1" d="M358.53,444.16c.07.15.85-.08,1.8,0s1.7.37,1.79.22-.63-.75-1.75-.8S358.45,444,358.53,444.16Z"/><path class="cls-1" d="M335.67,326.87s.74,30.84,4.57,38.88,18,79,18,79,10,4.46,16.95-.74c0,0-2.08-33-3.42-39.25s-4.91-19.63-4.91-19.63-1.17-30.18-.73-30.92,2.07-10.7,2.07-10.7l2.38-20.28-18.88-6Z"/><path class="cls-1" d="M389.46,329.66l-12.07,33-2.75,19.93s3.33,13.82,3.78,18.73-2.53,42.81-2.53,42.81l-7.73-1.48-10.7-60.06-4-31.08,10.85-30.3,23.64-1.74Z"/><path class="cls-2" d="M369,336.29s0,.1,0,.3-.09.52-.16.88c-.15.81-.37,1.93-.65,3.37-.59,3-1.45,7.18-2.5,12.39v0c0,4,.28,8.59.65,13.66s.79,10.6.81,16.45v-.08c.66,2.15,1.31,4.42,1.94,6.74,1,3.63,1.85,7.2,2.51,10.69.33,1.75.6,3.48.75,5.19s.14,3.38.21,5c.39,6.5.9,12.34,1.31,17.25l1,11.62c.1,1.34.19,2.4.25,3.16,0,.34,0,.61.06.82a1.1,1.1,0,0,1,0,.29,1.18,1.18,0,0,1-.06-.28c0-.22-.06-.48-.1-.82q-.14-1.14-.36-3.15c-.29-2.74-.7-6.7-1.16-11.61s-1-10.74-1.42-17.25c.12-6.55-1.57-13.52-3.5-20.77-.62-2.31-1.27-4.59-1.92-6.72v-.08c0-5.82-.45-11.35-.77-16.42s-.58-9.69-.56-13.69v0h0c1.12-5.2,2-9.41,2.67-12.37l.75-3.34.21-.87C369,336.38,369,336.28,369,336.29Z"/><path class="cls-8" d="M375.08,229.4l-18.53,1.82-.07-15.78s-1.33-.12-2.16-6.89-2.44-18.26-2.44-18.26h0a25.26,25.26,0,0,1,24.86.26l1.13.66Z"/><path class="cls-8" d="M376.59,199.79c.12-.06,4.68-1.91,5,2.74s-4.56,4.08-4.58,3.95S376.59,199.79,376.59,199.79Z"/><path class="cls-8" d="M353.93,201.32c-.13,0-4.53-.68-3.87,3.94s5.34,3,5.33,2.85S353.93,201.32,353.93,201.32Z"/><path class="cls-1" d="M378.09,199.1c-.29,4,.08,6-.3,8.66a13.78,13.78,0,0,1-6,10.08c-3.61,2.48-8.79,3-12.39.59-2.5-1.69-4.36-3.7-5-6.58s-1.58-8-1.92-10.94c-.63-5.29-1.56-10.31-1.56-10.31l15.37-4.47,9.48,4.13Z"/><path class="cls-1" d="M364.16,221.06a5.29,5.29,0,0,0,2.78-.07,5.1,5.1,0,0,0,2.53-1.1c-.06-.11-1.18.37-2.63.68S364.17,220.94,364.16,221.06Z"/><path class="cls-1" d="M378.07,205.79c0-4-.19-8.62,0-12.89a26.05,26.05,0,0,0,.07-5.51,13,13,0,0,0-1.54-4.55,6.92,6.92,0,0,0-5.16-3,7.11,7.11,0,0,0-5.64,2.14,5.34,5.34,0,0,0-5.61-1.46,5.14,5.14,0,0,0-3.43,4.56,3.76,3.76,0,0,0-4.32,0,3.46,3.46,0,0,0-1.13,4,3.52,3.52,0,0,0-2.38,2.23,3.31,3.31,0,0,0,.61,3.13c.85,1,2.22,1.45,3.14,2.39a3.78,3.78,0,0,1,.7,4.16"/><path class="cls-2" d="M354.72,193.81a1.1,1.1,0,0,0,.22.42,3.11,3.11,0,0,0,1,.88,3.36,3.36,0,0,0,2.11.4,3.54,3.54,0,0,0,2.38-1.41l-.34,0a3.23,3.23,0,0,0,2.35,2.09,3.91,3.91,0,0,0,3.49-.82,5.21,5.21,0,0,0,1.71-2.74l-.38.08a4.46,4.46,0,0,0,3.76,1.49,4.17,4.17,0,0,0,2.85-1.51,4,4,0,0,0,.89-1.89,2,2,0,0,0,0-.75,7.29,7.29,0,0,0-.16.72,4.19,4.19,0,0,1-.95,1.75,3.89,3.89,0,0,1-2.67,1.32,4.1,4.1,0,0,1-3.39-1.39l-.27-.32-.11.41a4.83,4.83,0,0,1-1.58,2.5,3.46,3.46,0,0,1-3.08.75,2.84,2.84,0,0,1-2.1-1.8l-.12-.37-.22.32a3.25,3.25,0,0,1-2.12,1.32,3.12,3.12,0,0,1-1.95-.29A4.35,4.35,0,0,1,354.72,193.81Z"/><path class="cls-2" d="M354.54,192a4.06,4.06,0,0,1,.49-1.76,2.81,2.81,0,0,1,1.52-1.25,3.08,3.08,0,0,1,2.44.17l.41.22-.09-.45a3.61,3.61,0,0,1,0-1.35,3.72,3.72,0,0,1,1.69-2.37,3.78,3.78,0,0,1,2.42-.48,5.36,5.36,0,0,1,2.16.88s-.11-.21-.45-.47a3.81,3.81,0,0,0-1.66-.71,4.09,4.09,0,0,0-2.68.44,4,4,0,0,0-1.91,2.63,3.71,3.71,0,0,0,0,1.52l.32-.23a3.47,3.47,0,0,0-2.79-.15,3,3,0,0,0-1.64,1.47,2.84,2.84,0,0,0-.34,1.39A1.05,1.05,0,0,0,354.54,192Z"/><path class="cls-2" d="M364.55,191c.06,0,0-.26-.06-.64a2.89,2.89,0,0,1,.34-1.42,13,13,0,0,1,.77-1.33.45.45,0,0,1,.49-.15s0-.11-.13-.18a.55.55,0,0,0-.58.11,3.53,3.53,0,0,0-.48.59,5.19,5.19,0,0,0-.47.78,2.46,2.46,0,0,0-.25,1.64C364.29,190.84,364.5,191,364.55,191Z"/><path class="cls-2" d="M373.2,184.14s0-.36-.39-.81a2.25,2.25,0,0,0-.8-.65,2,2,0,0,0-1.3-.13,3.12,3.12,0,0,0-1.77,1.36c-.31.47-.43.78-.39.81s.28-.22.64-.63a3.36,3.36,0,0,1,1.62-1.13,1.85,1.85,0,0,1,1.76.57C373,183.89,373.14,184.17,373.2,184.14Z"/><path class="cls-2" d="M372.93,204.07a7.39,7.39,0,0,0,1.33-3.14,7.24,7.24,0,0,0,.21-3.38c-.13,0-.21,1.5-.64,3.29S372.81,204,372.93,204.07Z"/><path class="cls-2" d="M371,205.42a5.42,5.42,0,0,0,.93-2.24,5.65,5.65,0,0,0,.32-2.38,8.12,8.12,0,0,0-.74,2.28A9,9,0,0,0,371,205.42Z"/><path class="cls-2" d="M357.79,207.2a7.14,7.14,0,0,0,1,4,7.4,7.4,0,0,0,2.77,3.14,24.69,24.69,0,0,1-2.37-3.33A26,26,0,0,1,357.79,207.2Z"/><path class="cls-2" d="M355.31,204.05a7,7,0,0,0,2.1,6.85,20.06,20.06,0,0,1-1.57-3.27A20.85,20.85,0,0,1,355.31,204.05Z"/><path class="cls-4" d="M356.31,226.45l-15,7.58s-4.1,63.53-4.51,69.27,0,23.16,0,23.16,16.8,1.84,20.7,0,30.12-4.1,30.12-4.1l4.1-46.73,4.13-37.73a52.45,52.45,0,0,0-20.56-11.45Z"/><g class="cls-9"><path d="M371.73,314.93c-1.38-7.86-6.54-14.45-9.64-21.8-5.64-13.31-4.44-28.81-10.44-42-4.61,16.32-2.5,34.28,4.94,49.52,3.26,6.7,8,13.31,15.11,15.61l.53-.56"/></g><path class="cls-4" d="M341.31,234s-8,4.1-8,16.6.62,30.33,2.05,33.41a14.62,14.62,0,0,0,3.08,4.51l5.11,9.48,13.95-7-3.21-9.74-1-17-.69-8.22a32.06,32.06,0,0,0-.79-6C350.27,243.44,346.79,233.9,341.31,234Z"/><polygon class="cls-8" points="344.62 297.49 365.2 322.95 372.3 316.05 356.36 291.76 344.62 297.49"/><path class="cls-8" d="M388.33,333.23s2-6.22,1.54-8-6.46-5.88-6.46-5.88l-5.62,2.5-1,7.94Z"/><path class="cls-8" d="M372.3,316.05l8.88,3.37,6.44,9s-1.17,1.51-2.49.47-3.95-3.66-3.95-3.66,7.15,6.95,7.15,8a1,1,0,0,1-1.7.66,11.18,11.18,0,0,0-2.25-1.22s2.72,2.16,2.25,2.73-2.53,0-2.53,0-.1,2.53-.66,2.25-11.75-6.48-13.44-8.55-4.8-6.15-4.8-6.15Z"/><path class="cls-8" d="M380.45,337.24c-.15.61,1.7.93,2.31.67a2.66,2.66,0,0,0,1.15-1.41,7.54,7.54,0,0,0,.72-2,1.51,1.51,0,0,0-.14-1.09,1.19,1.19,0,0,0-1.41-.39,2,2,0,0,0-1,1.14,5.89,5.89,0,0,0-.29,1.55"/><path class="cls-10" d="M381.76,335.72s-.06-.18-.05-.5a3.46,3.46,0,0,1,.28-1.36,2.11,2.11,0,0,1,.61-.8,1.55,1.55,0,0,1,1.16-.34,1.29,1.29,0,0,1,1.08.84,2.52,2.52,0,0,1,0,1.39,10.19,10.19,0,0,1-1,2.28,2.13,2.13,0,0,1-.84.82,1.86,1.86,0,0,1-1,.12,2.73,2.73,0,0,1-1.33-.44.55.55,0,0,1-.22-.35c0-.1,0-.14.06-.14s0,.19.27.32a3.23,3.23,0,0,0,1.24.25c1.19.28,1.81-1.49,2.34-3a2.1,2.1,0,0,0,.06-1.1.78.78,0,0,0-.67-.52,1.41,1.41,0,0,0-1.38.83,4.49,4.49,0,0,0-.4,1.22C381.84,335.56,381.79,335.73,381.76,335.72Z"/><path class="cls-8" d="M376.88,335.39a2.12,2.12,0,0,0,.79,1.62,3.15,3.15,0,0,0,1.52.32,2.37,2.37,0,0,0,2.21-1,2.66,2.66,0,0,0,.23-1.22c0-.49,0-1,.05-1.48a1.68,1.68,0,0,0-.27-1.23,1.16,1.16,0,0,0-1.63.15,8.59,8.59,0,0,0-.84,1.62"/><path class="cls-10" d="M378.94,334.2s0-.2.14-.53a3,3,0,0,1,.71-1.35,1.54,1.54,0,0,1,1.08-.37,1.1,1.1,0,0,1,1,.89,5.53,5.53,0,0,1,.05,1.34c0,.45,0,.89-.05,1.39a1.92,1.92,0,0,1-.63,1.39,2.53,2.53,0,0,1-1.28.55,3.9,3.9,0,0,1-2.25-.28,1.37,1.37,0,0,1-.63-.66,2.22,2.22,0,0,1-.22-.62c-.07-.36,0-.57,0-.56s.05.19.17.5a1.79,1.79,0,0,0,.82,1,3.71,3.71,0,0,0,2,.14,2.14,2.14,0,0,0,1-.46,1.48,1.48,0,0,0,.44-1.06l.06-1.36a6.09,6.09,0,0,0,0-1.21c-.11-.72-1-.68-1.38-.34a3.47,3.47,0,0,0-.76,1.14C379.11,334.06,379,334.21,378.94,334.2Z"/><path class="cls-10" d="M384.84,328.86a3.53,3.53,0,0,1-1.6,1.15,6.56,6.56,0,0,1-4.72.21,2.74,2.74,0,0,1-.68-.32.76.76,0,0,1-.29-.39.56.56,0,0,1,.18-.56c.45-.28.77-.41,1.13-.62l1.87-.95a7.2,7.2,0,0,1,1.78-.77,7.31,7.31,0,0,1-1.61,1.09l-1.81,1.05c-.32.19-.75.42-1,.6,0,0,0,0,0,0a.46.46,0,0,0,.11.12,3.56,3.56,0,0,0,.54.24,6.84,6.84,0,0,0,4.42-.07C384.2,329.27,384.78,328.79,384.84,328.86Z"/><path class="cls-8" d="M388.33,301.73l-4.92,17.64s6.21,5.35,6.14,5.23,11.32-19.87,11.32-19.87l-3.36-5.19Z"/><path class="cls-1" d="M350.92,283a6.56,6.56,0,0,1-1.79,1c-1.15.54-2.79,1.17-4.61,1.8s-3.46,1.21-4.63,1.66a10.18,10.18,0,0,1-1.93.68,6.87,6.87,0,0,1,1.78-1c1.15-.54,2.79-1.17,4.61-1.81s3.46-1.2,4.64-1.65A11.19,11.19,0,0,1,350.92,283Z"/><path class="cls-1" d="M355.59,285.19a19.56,19.56,0,0,1-2.17,1.17c-1.35.7-3.2,1.7-5.23,2.81L343,292a14.48,14.48,0,0,1-2.19,1.13,10,10,0,0,1,2-1.45c1.28-.82,3.1-1.89,5.14-3s3.92-2.06,5.32-2.68A8.65,8.65,0,0,1,355.59,285.19Z"/><path class="cls-1" d="M337.82,287.9a4.88,4.88,0,0,1,.45.68l1.18,2,4.26,7.35-.25-.07,13.92-7.08-.12.3c-.82-2.47-1.68-5.09-2.57-7.77l-.64-2,0,0v-.05c0-4.64-.42-9.05-.69-13s-.58-7.55-.81-10.57-.4-5.36-.53-7.09c-.05-.79-.09-1.43-.11-1.92a3.4,3.4,0,0,1,0-.67,3.44,3.44,0,0,1,.11.66c.05.49.12,1.12.2,1.92.17,1.72.41,4.12.7,7.07s.6,6.57.92,10.57.68,8.39.74,13.08v-.09c.21.63.42,1.29.65,2l2.55,7.79.07.2-.2.1-14,7-.16.08-.09-.16-4.11-7.44c-.46-.85-.83-1.53-1.1-2.05A3.73,3.73,0,0,1,337.82,287.9Z"/><path class="cls-1" d="M373.78,296a4,4,0,0,1-.36-1c-.19-.65-.45-1.59-.76-2.76-.6-2.34-1.34-5.59-2-9.22s-1.1-6.93-1.35-9.33c-.13-1.2-.22-2.18-.26-2.85a3.84,3.84,0,0,1,0-1.05,4.21,4.21,0,0,1,.21,1q.18,1.17.42,2.82c.35,2.38.85,5.67,1.5,9.29s1.33,6.87,1.84,9.23c.24,1.08.43,2,.6,2.79A4.84,4.84,0,0,1,373.78,296Z"/><path class="cls-1" d="M378.72,293.49c-.15,0-.54-5.46-.88-12.21s-.5-12.23-.35-12.24.53,5.46.87,12.21S378.86,293.48,378.72,293.49Z"/><path class="cls-1" d="M350.77,240.26a30.13,30.13,0,0,0-4.26-3.34,30.87,30.87,0,0,0-5-2.06,12,12,0,0,1,9.27,5.4Z"/><path class="cls-4" d="M395.85,237.9s4,5.1,5.71,18.27c.38,3,5.12,33.81,4.92,35.86s-1.44,11.07-2.87,10.25l-2.74,2.45s-5.49-5.83-11.42-3.22l-1.83.36,3.87-23.59Z"/><path class="cls-1" d="M401.07,293.42a39.56,39.56,0,0,0-4-2.71,39.61,39.61,0,0,0-4.49-1.71,11.14,11.14,0,0,1,8.48,4.42Z"/><path class="cls-1" d="M401.85,287.19c0,.15-2.11,0-4.68.24s-4.61.66-4.65.51a12.17,12.17,0,0,1,4.61-1A12.34,12.34,0,0,1,401.85,287.19Z"/><path class="cls-1" d="M388.33,301.73a1.72,1.72,0,0,1,0-.54c0-.41.08-.91.13-1.53L389,294c.5-4.81,1.19-11.33,2-18.54s1.45-13.73,2-18.55c.23-2.31.43-4.21.57-5.62a13.56,13.56,0,0,0,.14-2c.23,0,.05,3-.34,7.69s-1.05,11.32-1.82,18.56-1.52,13.8-2.1,18.54c-.29,2.31-.54,4.2-.72,5.6-.09.61-.17,1.12-.23,1.52A3.36,3.36,0,0,1,388.33,301.73Z"/><path class="cls-1" d="M403.25,302.55c-.07,0-.52-.81-1.49-2a13.61,13.61,0,0,0-10.35-4.95c-1.53,0-2.47.17-2.48.08a6.56,6.56,0,0,1,2.47-.45,12.66,12.66,0,0,1,10.65,5.09A6.52,6.52,0,0,1,403.25,302.55Z"/><g class="cls-9"><path d="M388.46,300.92a120.51,120.51,0,0,0,4.9-46.8Z"/></g><g class="cls-9"><path d="M378.29,276.72c1.64,9.37,2.72,19.43,1,28.79-.63-9.51-.69-19.46-1.32-29"/></g><path class="cls-10" d="M381.57,326a5.27,5.27,0,0,1,1,.71l2.66,2.09,0,0a1.55,1.55,0,0,0,1.12.19,2.18,2.18,0,0,0,1.1-.64l0,.29c-1.09-1.52-2.33-3.25-3.65-5.07-1-1.39-1.93-2.72-2.79-3.95l.11.09c-2.4-.93-4.45-1.74-5.88-2.34a15.52,15.52,0,0,1-2.26-1,14.45,14.45,0,0,1,2.36.74c1.47.51,3.54,1.26,5.95,2.15l.07,0,0,.06,2.82,3.92,3.61,5.11.11.16-.13.13a2.57,2.57,0,0,1-1.36.75,2,2,0,0,1-1.4-.27h0c-1.08-.93-2-1.69-2.55-2.22A5,5,0,0,1,381.57,326Z"/><path class="cls-8" d="M374.43,332.41a2.05,2.05,0,0,0,2.48,2.85,3.85,3.85,0,0,0,1.9-1c.46-.42.85-1.08.55-1.62a1.07,1.07,0,0,0-.79-.5,3.12,3.12,0,0,0-1,.05c-1.16.16-2.06.08-3.22.25"/><path class="cls-10" d="M374.39,332.42a5.61,5.61,0,0,1,2-.33c.32,0,.65-.06,1-.12a4.09,4.09,0,0,1,1.25-.08,1.55,1.55,0,0,1,.69.32,1.07,1.07,0,0,1,.37.75,1.93,1.93,0,0,1-.68,1.42,3.83,3.83,0,0,1-2.58,1.16,2.23,2.23,0,0,1-2.06-1.06,2.61,2.61,0,0,1-.17-1.54c.06-.36.17-.54.2-.53s0,.2,0,.55a2.79,2.79,0,0,0,.29,1.35,2,2,0,0,0,1.74.75,3.49,3.49,0,0,0,2.22-1.05,1.53,1.53,0,0,0,.53-1,.7.7,0,0,0-.64-.62,3.4,3.4,0,0,0-1.1,0c-.38,0-.73.05-1.05.06A14.52,14.52,0,0,1,374.39,332.42Z"/><path class="cls-10" d="M388.33,333.23c-.14.08-.74-.87-1.59-1.91s-1.65-1.84-1.55-2a4.63,4.63,0,0,1,1.95,1.63A4.45,4.45,0,0,1,388.33,333.23Z"/><path class="cls-10" d="M381.23,330.66c.08-.13.85.22,1.73.77s1.53,1.09,1.45,1.21-.85-.22-1.73-.77S381.16,330.78,381.23,330.66Z"/></g><g id="Character_1" data-name="Character 1"><polygon class="cls-2" points="106.05 436.19 103.1 458.15 91.22 456.79 94.13 434.78 106.05 436.19"/><path class="cls-1" d="M97.34,456.65c-.1,0,.53-4.83,1.4-10.74s1.66-10.71,1.76-10.7S100,440,99.1,446,97.44,456.66,97.34,456.65Z"/><polygon class="cls-1" points="103.3 456.63 91.42 455.24 91.22 456.79 103.1 458.15 103.3 456.63"/><path class="cls-1" d="M92.15,449.76s.11-.18.37-.44a8.18,8.18,0,0,1,1.21-1,8,8,0,0,1,2.09-1,6.35,6.35,0,0,1,7.19,2.39,5.56,5.56,0,0,1,.69,1.41,1.64,1.64,0,0,1,.11.56,12.9,12.9,0,0,0-1-1.82,6.38,6.38,0,0,0-4.18-2.44,7.34,7.34,0,0,0-4.75,1.13C92.77,449.22,92.19,449.81,92.15,449.76Z"/><g class="cls-9"><polygon points="104.95 445.07 104.59 447.01 92.66 445.92 92.92 443.97 104.95 445.07"/></g><polygon class="cls-2" points="144.09 437.66 142.73 459.77 130.79 459.28 132.1 437.12 144.09 437.66"/><path class="cls-1" d="M136.88,458.69c-.1,0,.18-4.85.62-10.81s.88-10.8,1-10.79-.18,4.85-.62,10.81S137,458.7,136.88,458.69Z"/><polygon class="cls-1" points="142.83 458.25 130.88 457.71 130.79 459.28 142.73 459.77 142.83 458.25"/><path class="cls-1" d="M131.21,452.2s.09-.19.33-.47a7.73,7.73,0,0,1,1.14-1.06,7.89,7.89,0,0,1,2-1.17,6.37,6.37,0,0,1,7.34,1.86,5.07,5.07,0,0,1,.79,1.36,1.66,1.66,0,0,1,.16.55,13.12,13.12,0,0,0-1.14-1.74,6.36,6.36,0,0,0-4.35-2.13,7.34,7.34,0,0,0-4.66,1.47C131.78,451.62,131.25,452.24,131.21,452.2Z"/><g class="cls-9"><polygon points="143.63 446.59 143.42 448.56 131.44 448.33 131.55 446.36 143.63 446.59"/></g><path class="cls-1" d="M99.4,334.37c-.34,0-1.43,14.6-1.14,19.41s.55,42.19.55,42.19-2.53,1.7-2.53,4-4.54,43.61-4.54,43.61l13.64,2.26s12.42-45,12.7-51.25,9.06-49,9.06-49S130,386.06,130,392.29s-.12,54.18-.12,54.18,10.1,1.42,15,.27c0,0,4.13-36,4.13-47.93V379.55s4.82-22.37,7.08-33.7a61.84,61.84,0,0,0,0-22.12l-40.77-5.34Z"/><path class="cls-2" d="M109.86,399.21a16.91,16.91,0,0,0-5.19-.51,17.22,17.22,0,0,0-5,1.42,4.48,4.48,0,0,1,1.34-.8,10.94,10.94,0,0,1,3.65-1,11.22,11.22,0,0,1,3.76.29A4.49,4.49,0,0,1,109.86,399.21Z"/><path class="cls-2" d="M110.7,395.75a22.57,22.57,0,0,1-3.85,0,21.68,21.68,0,0,1-3.85-.31,22.72,22.72,0,0,1,3.86,0A21.37,21.37,0,0,1,110.7,395.75Z"/><path class="cls-2" d="M138.6,404.2a1.8,1.8,0,0,1-.4-.34,9.75,9.75,0,0,1-1-1A15.07,15.07,0,0,1,134,394.2a10.5,10.5,0,0,1,0-1.41c0-.34,0-.52.08-.52s0,.74.15,1.91a17.43,17.43,0,0,0,1.05,4.46,17.74,17.74,0,0,0,2.2,4C138.13,403.62,138.64,404.15,138.6,404.2Z"/><path class="cls-2" d="M127.6,343.93a2.23,2.23,0,0,1-.35.54l-.53.53c-.23.18-.49.39-.79.61a17.74,17.74,0,0,1-5.23,2.3,13.77,13.77,0,0,1-5.69.47l-.52-.08-.45-.14a2.94,2.94,0,0,1-.7-.26,2.18,2.18,0,0,1-.56-.32,12.65,12.65,0,0,0,2.26.56,15,15,0,0,0,5.57-.56,19.58,19.58,0,0,0,5.19-2.18c.3-.19.56-.38.8-.55l.55-.48C127.42,344.08,127.58,343.91,127.6,343.93Z"/><path class="cls-7" d="M109.45,242.61c-.83,0-12.4,3.31-14.33,9.09-1.5,4.52-1.14,23.23-.91,31.25a26.18,26.18,0,0,0,.77,5.77c.39,1.57,1.75,3.61,1.69,6.44-.23,11.55-3,31.15-2.06,35.71,1.38,6.61,3.51,14.77,3.51,14.77l58.46-3.2a62,62,0,0,0-.09-15.82l-4.62-32.49s7.44-2.48,7.44-9.09-1.65-33.61-5.51-36.09-19-6.34-19-6.34Z"/><path class="cls-1" d="M150.83,258.09a1.61,1.61,0,0,1,0,.51,13.57,13.57,0,0,1,0,1.47,36.44,36.44,0,0,1-.75,5.36,60.9,60.9,0,0,0-1.29,7.85,47.39,47.39,0,0,0,.91,9.68c1.16,6.84,2.44,13,3.16,17.51.38,2.24.62,4.08.76,5.34.07.64.1,1.13.13,1.47a1.67,1.67,0,0,1,0,.51,2.11,2.11,0,0,1-.11-.5c-.06-.39-.13-.87-.22-1.45-.2-1.26-.49-3.07-.92-5.31-.82-4.48-2.15-10.62-3.31-17.49a45.84,45.84,0,0,1-.88-9.79,56.06,56.06,0,0,1,1.41-7.89,41.94,41.94,0,0,0,.9-5.3C150.8,258.8,150.78,258.09,150.83,258.09Z"/><path class="cls-1" d="M96.9,295.49a8.13,8.13,0,0,1-.21-1.43c-.09-.92-.16-2.26-.2-3.91-.07-3.31,0-7.87.15-12.91s.29-9.6.31-12.89c0-1.65,0-3,0-3.91a7.81,7.81,0,0,1,0-1.43,7.21,7.21,0,0,1,.22,1.42c.08.92.16,2.26.2,3.91.07,3.31,0,7.88-.16,12.92s-.28,9.59-.3,12.89c0,1.65,0,3,0,3.9A7.29,7.29,0,0,1,96.9,295.49Z"/><path class="cls-1" d="M120.45,317.61a9.47,9.47,0,0,1-.31-1.72c-.16-1.11-.37-2.72-.59-4.71-.46-4-1-9.52-1.33-15.64s-.48-11.67-.49-15.68c0-2,0-3.63,0-4.76a11,11,0,0,1,.11-1.74,12.13,12.13,0,0,1,.1,1.74c0,1.21.07,2.81.11,4.75.1,4,.29,9.55.64,15.66s.81,11.63,1.17,15.63c.18,1.93.32,3.53.43,4.73A13.15,13.15,0,0,1,120.45,317.61Z"/><path class="cls-1" d="M123.52,327.59c-.14,0-.21-9.69-.16-21.64s.22-21.65.36-21.65.22,9.69.16,21.65S123.67,327.59,123.52,327.59Z"/><path class="cls-1" d="M157,332.75a2.61,2.61,0,0,1-.61.12l-1.78.24c-1.54.2-3.78.47-6.54.76-5.53.59-13.18,1.3-21.65,1.82s-16.17.7-21.73.62c-2.78,0-5-.12-6.58-.2L96.35,336a3,3,0,0,1-.62-.08,2.45,2.45,0,0,1,.62,0l1.79,0c1.56,0,3.8.06,6.58,0,5.56,0,13.23-.26,21.7-.77s16.11-1.17,21.64-1.67l6.56-.59,1.78-.14A2.74,2.74,0,0,1,157,332.75Z"/><path class="cls-1" d="M144.71,245.1c-3.53,31.06-6.85,62.43-5.82,93.67l2.36-.27,1.16-34.59,4.52-58.1A1.77,1.77,0,0,0,144.71,245.1Z"/><g class="cls-9"><path d="M137,234l-29.09,44.82c7.1,3.56,16.06,5.34,22.77,1.08,1.86,2.3,5.85,1.46,7.65-.87s2-5.51,2-8.46C140.46,258.29,138.72,246.1,137,234Z"/></g><path class="cls-1" d="M125.29,202.23a10.64,10.64,0,0,0-8.68,3,22.59,22.59,0,0,0-5.14,7.9c-2.43,5.67-3.84,11.72-5.24,17.73-2.07,8.86-4.15,17.76-4.7,26.84s2.17,14.44,6.08,22.64l13.85-1.91,0-2.63,1.87,2.63,5.38-.84s1.61-14.05,1.61-14S132.85,277,132.85,277l4.48-.42c4.46-17.66-.58-29.28,1.95-47.31.6-4.29,1.56-8.56,1.54-12.89s-1.13-8.86-4.12-12-8.14-4.42-11.81-2.12"/><path class="cls-2" d="M128.68,277.58s0-.06-.05-.2l-.12-.6c-.1-.54-.23-1.32-.41-2.3-.34-2-.81-4.91-1.24-8.53a94.38,94.38,0,0,1-.69-12.76,69.1,69.1,0,0,1,.56-7.53,61.69,61.69,0,0,1,1.63-7.95c1.53-5.35,3.67-10.22,4.71-14.91a30.59,30.59,0,0,0,.82-6.73,18.79,18.79,0,0,0-.89-5.81,15.67,15.67,0,0,0-2.21-4.33,13.12,13.12,0,0,0-2.55-2.63,12.12,12.12,0,0,0-2-1.24l-.55-.25c-.12-.06-.19-.09-.18-.1l.19.07.57.22a11.76,11.76,0,0,1,2,1.2,12.74,12.74,0,0,1,2.62,2.63,15.47,15.47,0,0,1,2.28,4.35,19,19,0,0,1,.94,5.89,30,30,0,0,1-.8,6.8c-1,4.72-3.17,9.6-4.69,14.92A64.67,64.67,0,0,0,127,245.7a71,71,0,0,0-.57,7.5,95,95,0,0,0,.63,12.73c.39,3.61.83,6.52,1.13,8.53.15,1,.27,1.77.35,2.31,0,.26.07.46.09.61A1.47,1.47,0,0,1,128.68,277.58Z"/><path class="cls-2" d="M109.21,268.39s0-.06,0-.17,0-.29-.06-.49c-.05-.46-.12-1.1-.2-1.91,0-.42-.09-.88-.14-1.38s-.06-1.05-.1-1.64c-.06-1.18-.17-2.53-.17-4,0-.74,0-1.52,0-2.33s0-1.66,0-2.54c0-1.75.15-3.62.26-5.58a120.27,120.27,0,0,1,1.68-12.7,117.89,117.89,0,0,1,3.16-12.41c.62-1.87,1.19-3.66,1.83-5.29.31-.81.59-1.61.9-2.36l.91-2.16c.56-1.38,1.16-2.59,1.65-3.66.25-.53.48-1,.71-1.49l.63-1.23.9-1.7c.09-.17.17-.32.24-.43s.08-.15.09-.15a.84.84,0,0,1-.07.16l-.21.45-.84,1.73c-.18.37-.39.78-.61,1.24l-.68,1.49c-.48,1.08-1.06,2.29-1.6,3.68-.29.69-.58,1.41-.89,2.16s-.58,1.55-.88,2.37c-.64,1.62-1.19,3.41-1.81,5.27a123.6,123.6,0,0,0-3.12,12.39,125.74,125.74,0,0,0-1.7,12.66c-.12,2-.26,3.82-.28,5.57,0,.87-.07,1.72-.06,2.53s0,1.58,0,2.33c0,1.48.08,2.83.13,4,0,.59,0,1.13.07,1.64s.08,1,.11,1.38c.06.81.11,1.45.14,1.91,0,.2,0,.37,0,.5Z"/><path class="cls-2" d="M116.89,279.05s0-.05-.07-.17-.09-.29-.16-.49c-.14-.46-.33-1.11-.58-1.93-.13-.42-.26-.88-.41-1.39s-.27-1.07-.42-1.67c-.28-1.21-.67-2.57-.92-4.12-.14-.76-.29-1.57-.45-2.4s-.25-1.72-.38-2.63-.29-1.85-.35-2.83-.17-2-.26-3A97.72,97.72,0,0,1,113,245a107,107,0,0,1,2-13.27c.24-1,.46-2,.68-2.94s.5-1.86.74-2.75c.46-1.78,1-3.4,1.46-4.89s1-2.81,1.38-4,.8-2.16,1.13-3l.76-1.86.2-.48.08-.16s0,.06-.05.17-.1.29-.17.5c-.17.45-.41,1.08-.7,1.88s-.7,1.81-1.09,3-.89,2.49-1.32,4-1,3.11-1.43,4.89c-.23.89-.5,1.79-.72,2.75s-.44,1.93-.66,2.93a106.66,106.66,0,0,0-2,13.24,100.48,100.48,0,0,0-.13,13.38c.09,1,.17,2,.25,3s.22,1.9.33,2.81.2,1.79.36,2.63.29,1.64.43,2.4c.24,1.54.61,2.9.87,4.11.14.61.25,1.17.39,1.68s.27,1,.39,1.4c.22.82.4,1.47.52,1.94l.13.5C116.88,279,116.89,279.05,116.89,279.05Z"/><path class="cls-2" d="M136.32,270.52l-.09-.17-.25-.53c-.11-.23-.25-.52-.4-.85l-.5-1.19a42.73,42.73,0,0,1-2.31-7.86,45.12,45.12,0,0,1-.72-12.12,46.12,46.12,0,0,1,1.13-7.09c.58-2.43,1.34-4.9,2.11-7.42s1.52-5,2.06-7.4a36.5,36.5,0,0,0,1-7.07,23.14,23.14,0,0,0-.65-6.4,17,17,0,0,0-2.26-5.11,14.2,14.2,0,0,0-6.07-5.25,11.88,11.88,0,0,0-2.1-.68l-.57-.12c-.13,0-.19,0-.19,0l.2,0,.57.09a11.14,11.14,0,0,1,2.14.62,14.18,14.18,0,0,1,6.2,5.25,16.7,16.7,0,0,1,2.33,5.17,22.84,22.84,0,0,1,.69,6.47,36.85,36.85,0,0,1-.94,7.12c-.54,2.44-1.28,4.91-2.05,7.44s-1.54,5-2.12,7.39a46.93,46.93,0,0,0-1.14,7.05,45.63,45.63,0,0,0,2.86,19.91c.17.44.33.84.46,1.19s.27.63.37.87l.23.53C136.31,270.45,136.33,270.52,136.32,270.52Z"/><path class="cls-6" d="M140.35,337.44s-6.56-.86-6.07,6.86c.34,5.44.68,14.27.85,19a3.18,3.18,0,0,0,3.41,3.05l27.16-2a3.17,3.17,0,0,0,2.92-3.58c-.87-6.67-2.89-21.22-4.19-23.43C162.73,334.52,140.35,337.44,140.35,337.44Z"/><path class="cls-1" d="M167.74,352.27a8.67,8.67,0,0,1-1.59.32c-1,.15-2.53.36-4.39.55a117.88,117.88,0,0,1-14.59.57c-1.13,0-2.25-.07-3.31-.12h-.23l0-.23a50.92,50.92,0,0,0-2.18-12.06,6.48,6.48,0,0,0-.82-1.85,2.47,2.47,0,0,0-1.16-.91,2.07,2.07,0,0,0-1.26,0,1.4,1.4,0,0,1,1.32-.13,2.58,2.58,0,0,1,1.31.92,6.3,6.3,0,0,1,.93,1.91,46.71,46.71,0,0,1,2.38,12.13l-.25-.24,3.31.11c5.68.13,10.82-.13,14.54-.42l4.39-.39A11.39,11.39,0,0,1,167.74,352.27Z"/><path class="cls-1" d="M141.7,366a4.93,4.93,0,0,1-.33-1c-.18-.68-.41-1.65-.68-2.87-.53-2.42-1.18-5.79-1.73-9.54s-.88-7.17-1.06-9.65c-.08-1.24-.14-2.24-.16-2.94a4.8,4.8,0,0,1,0-1.08A4.29,4.29,0,0,1,138,340c.08.8.19,1.77.32,2.92.27,2.46.67,5.86,1.21,9.6s1.13,7.11,1.57,9.55c.21,1.13.38,2.1.52,2.89A3.94,3.94,0,0,1,141.7,366Z"/><g class="cls-9"><path d="M138.32,338.54a4.53,4.53,0,0,1,2.23,2.54,14.81,14.81,0,0,1,.61,3.35c.4,3.74,1.1,7.57,1.5,11.31l22.4-1.2A3.43,3.43,0,0,0,167,354a1.18,1.18,0,0,0,.17-1.76s-12.86,2-23.31,1.06c0,0-1-7.58-1.61-9.81S140.71,337.66,138.32,338.54Z"/></g></g></svg>