<svg id="Слой_1" data-name="Слой 1" xmlns="http://www.w3.org/2000/svg" viewBox="0 0 1186 644"><defs><style>.cls-1{fill:#ffc19d;}.cls-13,.cls-2{fill:#fff;}.cls-3{fill:#dd4e4e;}.cls-4{fill:#1a2e35;}.cls-5{fill:#4b98f2;}.cls-14,.cls-6{opacity:0.3;}.cls-13,.cls-7{opacity:0.2;}.cls-8{fill:#ececec;}.cls-9{fill:#212121;}.cls-10{opacity:0.6;}.cls-11{fill:#375a64;}.cls-12{fill:#ff735d;}.cls-15{fill:#e1e1e1;}.cls-16{fill:#ff9c6a;}.cls-17{opacity:0.4;}.cls-18{fill:#fafafa;}.cls-19{fill:#455a64;}</style></defs><polygon class="cls-1" points="448.32 435.5 476.55 404.14 498.79 402.39 502.16 426.45 484.18 434.49 464.55 455.18 452.62 457.9 448.32 435.5"/><rect class="cls-2" x="513.32" y="223.71" width="219.13" height="304.41" transform="translate(181.63 954.36) rotate(-83.77)"/><rect class="cls-3" x="481.31" y="266.91" width="304.41" height="16.2" transform="translate(33.56 -67.09) rotate(6.23)"/><path class="cls-4" d="M492.89,260a2,2,0,1,1-1.75-2.31A2.05,2.05,0,0,1,492.89,260Z"/><path class="cls-4" d="M500.23,260.76a2,2,0,1,1-1.74-2.31A2.05,2.05,0,0,1,500.23,260.76Z"/><path class="cls-4" d="M507.58,261.56a2,2,0,1,1-1.75-2.31A2,2,0,0,1,507.58,261.56Z"/><path class="cls-4" d="M609.91,298.12c0,.12-6.63-.51-14.79-1.4s-14.75-1.7-14.73-1.82,6.63.52,14.78,1.4S609.92,298,609.91,298.12Z"/><path class="cls-4" d="M649.17,302.41c0,.11-6.63-.52-14.78-1.41s-14.75-1.7-14.74-1.81,6.63.51,14.79,1.4S649.19,302.29,649.17,302.41Z"/><path class="cls-4" d="M688.44,306.69c0,.11-6.63-.51-14.78-1.4s-14.75-1.71-14.74-1.82,6.63.51,14.78,1.4S688.45,306.58,688.44,306.69Z"/><path class="cls-4" d="M728.06,311c0,.12-6.63-.51-14.79-1.4s-14.75-1.7-14.73-1.82,6.63.52,14.78,1.4S728.07,310.9,728.06,311Z"/><path class="cls-4" d="M761.93,319.74s.25,0,.72-.05a3.22,3.22,0,0,0,1.81-.92,3.33,3.33,0,0,0,.82-1.27,7,7,0,0,0,.31-1.83c.06-1.32.62-3-.36-4.35a3.09,3.09,0,0,0-2-1.32c-.85-.12-1.78-.2-2.71-.3l-6-.64-13.77-1.48a3.11,3.11,0,0,0-3,1.49,3.61,3.61,0,0,0-.53,1.68c-.07.62-.14,1.23-.2,1.84a6.68,6.68,0,0,0-.08,1.77,3.39,3.39,0,0,0,.61,1.52,3.06,3.06,0,0,0,1.22,1,4.73,4.73,0,0,0,1.52.32l11.24,1.27,7.58.89,2.05.27.54.08.18,0h-.19l-.54,0-2.06-.18-7.59-.77-11.25-1.18a4.8,4.8,0,0,1-1.63-.34,3.45,3.45,0,0,1-1.37-1.1,3.8,3.8,0,0,1-.69-1.71,3.42,3.42,0,0,1,0-1l.09-.91c.07-.61.14-1.22.2-1.84a4.23,4.23,0,0,1,.59-1.87,3.53,3.53,0,0,1,3.33-1.68l13.77,1.52,6,.68c.95.11,1.84.19,2.74.32a3.44,3.44,0,0,1,2.15,1.47,3.75,3.75,0,0,1,.59,2.39q-.12,1.14-.24,2.16a7.3,7.3,0,0,1-.35,1.87,3.52,3.52,0,0,1-.89,1.32,3.21,3.21,0,0,1-1.92.88A2.19,2.19,0,0,1,761.93,319.74Z"/><path class="cls-4" d="M483.08,250.45l302.64,32.86.15,0,0,.16c-7.16,65.72-15.23,139.76-23.74,217.8v.2l-.17,0L459.3,468.42h-.13v-.14c14.51-132.2,23.78-216.68,23.9-217.82-.12,1.14-9.28,85.63-23.62,217.85l-.13-.15,302.62,33-.19.15v0c8.52-78.05,16.6-152.08,23.78-217.81l.13.17Z"/><path class="cls-5" d="M745.77,410.09s0-.38.11-1.11.19-1.81.34-3.22c.3-2.83.74-7,1.31-12.34,1.15-10.68,2.81-26.09,4.85-45l.1.13L644,336.74h0l.18-.14c-2.39,21.82-4.67,42.68-6.74,61.67l-.13-.16,78,8.58,22.4,2.49,6,.67,1.54.17.53.07-.51,0-1.53-.15-5.94-.63-22.38-2.41-78.12-8.45h-.15l0-.15c2.07-19,4.34-39.85,6.72-61.67v-.16l.16,0h0L752.51,348.3h.12v.12c-2.1,19-3.8,34.38-5,45.08-.6,5.33-1.06,9.48-1.38,12.3-.16,1.4-.28,2.47-.36,3.2S745.77,410.09,745.77,410.09Z"/><path class="cls-5" d="M750.16,348.08l-.28.15-.83.41-3.22,1.55c-2.79,1.34-6.84,3.26-11.86,5.6-10,4.68-24,11-39.46,17.77s-29.63,12.64-39.89,16.82c-5.13,2.09-9.29,3.76-12.17,4.9l-3.32,1.3-.86.33-.3.1.28-.13.86-.36,3.29-1.36,12.14-5c10.23-4.22,24.34-10.14,39.84-16.9s29.43-13,39.49-17.69l11.91-5.5,3.24-1.49.84-.39Z"/><path class="cls-5" d="M744.52,410c0,.07-22.36-16.15-49.83-36.23S645,337.31,645.05,337.24s22.35,16.15,49.83,36.23S744.57,409.88,744.52,410Z"/><path class="cls-4" d="M740.21,440.52c0,.12-23.72-2.37-53-5.56s-52.93-5.88-52.92-6,23.72,2.37,53,5.56S740.23,440.4,740.21,440.52Z"/><path class="cls-4" d="M739.51,446.93c0,.12-23.72-2.36-53-5.55s-52.93-5.88-52.92-6,23.72,2.37,53,5.56S739.53,446.81,739.51,446.93Z"/><path class="cls-4" d="M679.12,456.51c0,.11-10.41-.93-23.23-2.33s-23.2-2.62-23.18-2.73,10.41.93,23.23,2.33S679.13,456.4,679.12,456.51Z"/><path class="cls-4" d="M725.2,453.71c0,.11-20.54-2-45.85-4.8s-45.81-5.09-45.8-5.2,20.54,2,45.85,4.8S725.21,453.6,725.2,453.71Z"/><path class="cls-4" d="M750.42,476.3s0-.3.08-.87.15-1.41.27-2.52c.23-2.22.58-5.49,1-9.71.91-8.45,2.22-20.7,3.87-36l.09.12L624,413h0l.18-.14-5.36,49.06-.13-.17,94.4,10.37,27.46,3,7.35.82,1.9.22.65.08-.63-.06-1.89-.2-7.32-.77-27.43-2.95-94.53-10.25h-.15l0-.15c1.67-15.37,3.48-31.94,5.35-49.06v-.16l.16,0h0l131.76,14.42h.11v.11c-1.69,15.29-3,27.57-4,36-.47,4.21-.84,7.47-1.08,9.69-.13,1.09-.22,1.93-.29,2.5S750.42,476.3,750.42,476.3Z"/><ellipse class="cls-3" cx="507.51" cy="287.49" rx="6.44" ry="6.74" transform="translate(166.69 760.83) rotate(-83.78)"/><path class="cls-4" d="M682.6,375.46s0-.37.1-1l.31-3c.28-2.63.69-6.49,1.21-11.4,1-9.81,2.56-23.84,4.37-40.72l.12.15-62.88-6.84h0l.17-.14c-2.24,20.43-4.34,39.66-6.15,56.16l-.12-.15,45.48,5L678,374.92l3.39.39.88.1.3,0-.29,0-.86-.08-3.37-.36-12.8-1.36-45.58-4.9h-.14l0-.14c1.79-16.51,3.89-35.73,6.11-56.16v-.16l.16,0h0l62.87,6.88.13,0v.13c-1.87,16.91-3.43,31-4.52,40.79-.55,4.89-1,8.74-1.27,11.36-.15,1.3-.27,2.3-.35,3S682.6,375.46,682.6,375.46Z"/><rect class="cls-3" x="626.72" y="318.85" width="53.97" height="50.07" transform="translate(41.15 -68.87) rotate(6.23)"/><g class="cls-6"><path d="M660.83,330.83a3.73,3.73,0,1,0,3.45,4.13A3.81,3.81,0,0,0,660.83,330.83Z"/><path d="M678.67,325.38l-45.33-5-.29.22h0v.16l0,.17,0,.36-.08.71-.16,1.41-.3,2.81c-.21,1.87-.41,3.71-.61,5.54q-.58,5.49-1.16,10.73c-.75,7-1.46,13.56-2.12,19.63l0,.21.22,0,32.94,3.48,9.2.95,2.41.23.61.06h.2l-.22,0-.64-.08-2.44-.29-9.24-1.07-10.13-1.14L674.12,367a1.13,1.13,0,0,0,0,.14s0-.06,0-.18.05-.33.08-.56c.06-.52.15-1.25.26-2.19l1-8.4c.82-7.3,2-17.7,3.4-30.18l0-.21Zm-13.56,22.48-8.33,7.88-10.35-17.69-17.37,23.63c.65-5.92,1.36-12.32,2.1-19.1.39-3.48.78-7.06,1.18-10.72q.3-2.75.61-5.54l.3-2.81.16-1.42.08-.71,0-.35,0-.11,44.86,4.86c-1.3,12.34-2.38,22.63-3.14,29.86-.37,3.63-.67,6.48-.87,8.46-.09,1-.17,1.71-.22,2.24,0,.24,0,.43,0,.58V367Z"/></g><rect class="cls-4" x="624.23" y="310.35" width="3.31" height="3.31" transform="translate(37.53 -66.04) rotate(6.23)"/><rect class="cls-4" x="686.58" y="317.16" width="3.31" height="3.31" transform="translate(38.64 -72.76) rotate(6.23)"/><rect class="cls-4" x="680.47" y="373.2" width="3.31" height="3.31" transform="translate(44.68 -71.77) rotate(6.23)"/><rect class="cls-4" x="618.58" y="366.45" width="3.31" height="3.31" transform="translate(43.58 -65.1) rotate(6.23)"/><rect class="cls-4" x="621.6" y="338.75" width="3.31" height="3.31" transform="translate(40.6 -65.59) rotate(6.23)"/><rect class="cls-4" x="649.1" y="370.32" width="3.31" height="3.31" transform="translate(44.18 -68.38) rotate(6.23)"/><rect class="cls-4" x="684.2" y="343.92" width="3.31" height="3.31" transform="translate(41.52 -72.35) rotate(6.23)"/><rect class="cls-4" x="655.25" y="314.04" width="3.31" height="3.31" transform="translate(38.11 -69.38) rotate(6.23)"/><path class="cls-4" d="M587.74,433.6c0,.09-17.74-1.77-39.61-4.16s-39.58-4.39-39.57-4.47,17.74,1.77,39.61,4.16S587.75,433.52,587.74,433.6Z"/><path class="cls-4" d="M603,440.54c0,.08-24.2-2.48-54-5.74s-54-6-54-6.05,24.2,2.48,54,5.74S603,440.45,603,440.54Z"/><path class="cls-4" d="M602.48,445.57c0,.09-24.2-2.48-54-5.73s-54-6-54-6,24.2,2.48,54,5.74S602.49,445.49,602.48,445.57Z"/><path class="cls-4" d="M601.93,450.61c0,.09-24.2-2.48-54-5.74s-54-6-54-6.05,24.2,2.49,54,5.74S601.94,450.52,601.93,450.61Z"/><path class="cls-4" d="M537.94,448.72c0,.09-10-.93-22.31-2.27s-22.29-2.5-22.28-2.59,10,.93,22.31,2.28S538,448.64,537.94,448.72Z"/><path class="cls-4" d="M595.72,340.79c0,.12-19.25-1.88-43-4.47s-42.92-4.78-42.91-4.9,19.24,1.88,43,4.47S595.73,340.67,595.72,340.79Z"/><path class="cls-4" d="M595,347.21c0,.12-19.25-1.88-43-4.47s-42.92-4.78-42.91-4.9,19.24,1.88,43,4.46S595,347.09,595,347.21Z"/><path class="cls-4" d="M545.71,358c0,.11-8.45-.72-18.85-1.85s-18.81-2.14-18.8-2.25,8.45.72,18.85,1.85S545.72,357.88,545.71,358Z"/><path class="cls-4" d="M583.24,354.26c0,.11-16.66-1.62-37.19-3.86s-37.15-4.14-37.14-4.25,16.66,1.61,37.19,3.85S583.25,354.15,583.24,354.26Z"/><path class="cls-4" d="M603.29,376.29l.09-.87c.06-.57.15-1.42.26-2.52.24-2.22.59-5.49,1-9.72.91-8.44,2.23-20.69,3.88-36l.07.12L501.75,315.72h0l.15-.14-5.36,49.06-.1-.16L573,372.9l22.26,2.47,6,.67,1.54.18.53.07-.51-.05-1.53-.16-5.94-.63-22.25-2.38-76.67-8.29-.12,0,0-.15c1.67-15.37,3.48-31.93,5.34-49.06l0-.16.13,0h0l106.87,11.71h.08v.1c-1.69,15.3-3,27.57-4,36-.46,4.21-.83,7.47-1.07,9.68-.13,1.1-.22,1.94-.29,2.5S603.29,376.29,603.29,376.29Z"/><g class="cls-7"><path class="cls-8" d="M1050.77,32.5a34.51,34.51,0,0,1,8.38-3.64l1.73-8.29,14-.25,2,8.23a34.23,34.23,0,0,1,8.5,3.34l7.08-4.64L1102.57,37l-4.39,7.24a34.13,34.13,0,0,1,3.64,8.38l8.3,1.73.24,14-8.22,2a34.66,34.66,0,0,1-3.35,8.5l4.64,7.08L1093.7,96l-7.24-4.39a34.13,34.13,0,0,1-8.38,3.64l-1.73,8.3-14,.24-2-8.22a34.66,34.66,0,0,1-8.5-3.35l-7.08,4.64-10.08-9.73,4.39-7.24a34.13,34.13,0,0,1-3.64-8.38l-8.3-1.73-.24-14,8.23-2a34.15,34.15,0,0,1,3.34-8.51l-4.64-7.08,9.73-10.08,7.24,4.39Zm7.47,18.67a15,15,0,1,0,21.26-.38A15,15,0,0,0,1058.24,51.17Z"/></g><g class="cls-7"><path class="cls-8" d="M1112.24,9a20.06,20.06,0,0,1,4.88-2.12l1-4.84,8.18-.14,1.17,4.8a19.84,19.84,0,0,1,5,1.95l4.13-2.71,5.89,5.68-2.57,4.22A19.78,19.78,0,0,1,1142,20.7l4.84,1,.14,8.17-4.8,1.18a20,20,0,0,1-2,5l2.71,4.13L1137.28,46l-4.22-2.56a20.3,20.3,0,0,1-4.89,2.12l-1,4.84-8.17.15-1.18-4.8a20.8,20.8,0,0,1-5-2l-4.13,2.7-5.88-5.68,2.56-4.22a19.62,19.62,0,0,1-2.13-4.89l-4.84-1-.14-8.18,4.8-1.18a19.77,19.77,0,0,1,2-4.95l-2.71-4.14L1108,6.41,1112.24,9Zm4.35,10.89a8.77,8.77,0,1,0,12.41-.22A8.78,8.78,0,0,0,1116.59,19.86Z"/></g><polygon class="cls-9" points="713.49 57.94 713.49 232.28 870.17 232.28 889.65 232.28 1002.3 232.28 1002.3 57.94 713.49 57.94"/><rect class="cls-10" x="713.49" y="57.94" width="288.81" height="12.89"/><circle class="cls-4" cx="720.9" cy="64.61" r="1.67"/><path class="cls-4" d="M728.8,64.61a1.68,1.68,0,1,1-1.67-1.67A1.68,1.68,0,0,1,728.8,64.61Z"/><circle class="cls-4" cx="733.35" cy="64.61" r="1.67"/><path class="cls-11" d="M853.48,85.69c0,.09-5.89.17-13.16.17s-13.16-.08-13.16-.17,5.89-.18,13.16-.18S853.48,85.59,853.48,85.69Z"/><path class="cls-12" d="M888.5,85.69c0,.09-5.89.17-13.16.17s-13.17-.08-13.17-.17,5.9-.18,13.17-.18S888.5,85.59,888.5,85.69Z"/><path class="cls-11" d="M923.52,85.69c0,.09-5.9.17-13.16.17s-13.17-.08-13.17-.17,5.89-.18,13.17-.18S923.52,85.59,923.52,85.69Z"/><path class="cls-11" d="M958.84,85.69c0,.09-5.89.17-13.16.17s-13.16-.08-13.16-.17,5.89-.18,13.16-.18S958.84,85.59,958.84,85.69Z"/><path class="cls-11" d="M989.53,89.87s.23,0,.63-.11a2.89,2.89,0,0,0,1.51-.92,2.83,2.83,0,0,0,.61-1.14,5.81,5.81,0,0,0,.09-1.54c-.07-1.11.26-2.54-.74-3.59a2.78,2.78,0,0,0-1.87-.92c-.76,0-1.58,0-2.42,0l-5.36,0H969.7a2.81,2.81,0,0,0-2.46,1.51,2.89,2.89,0,0,0-.3,1.45v1.55a5.49,5.49,0,0,0,.09,1.48,2.82,2.82,0,0,0,.69,1.21,3,3,0,0,0,1.17.72,4.44,4.44,0,0,0,1.37.12l10,0,6.76,0,1.84,0h.48c.11,0,.16,0,.16,0l-.16,0-.48,0-1.84,0-6.76,0-10,0a4.91,4.91,0,0,1-1.46-.13,3.12,3.12,0,0,1-1.31-.8,3,3,0,0,1-.78-1.36,3,3,0,0,1-.11-.79v-.77c0-.51,0-1,0-1.55a3.28,3.28,0,0,1,.35-1.61,3.1,3.1,0,0,1,2.76-1.69H982l5.36,0c.84,0,1.64,0,2.44,0a3,3,0,0,1,2,1,3,3,0,0,1,.75,1.93c0,.64,0,1.25,0,1.82a5.53,5.53,0,0,1-.12,1.59,3.06,3.06,0,0,1-.66,1.18,3,3,0,0,1-1.6.9A2,2,0,0,1,989.53,89.87Z"/><rect class="cls-13" x="736.73" y="81.01" width="41.7" height="10.94" rx="4.82"/><rect class="cls-5" x="738" y="117.31" width="61.43" height="59.43"/><g class="cls-6"><polygon points="742.76 171.65 759.75 141.07 773.65 160.62 782.1 150.23 794.66 171.65 742.76 171.65"/></g><g class="cls-6"><path d="M779.57,135.12a4.42,4.42,0,1,1-4.42-4.42A4.42,4.42,0,0,1,779.57,135.12Z"/></g><path class="cls-14" d="M794.66,122l-51.9,0c.06-.07-.55.55-.29.3h0v13.33q0,6.55,0,12.8c0,8.33,0,16.2,0,23.43v.26h.26l37.69-.13,10.53-.07,2.75,0h.93l-.26,0h-.72l-2.81,0-10.58-.07L743,171.56c0-7.17,0-14.95,0-23.18q0-6.24,0-12.8V122.52l51.36,0c.05,14.73.1,27,.13,35.63,0,4.33.05,7.74.06,10.09,0,1.15,0,2.05,0,2.68,0,.29,0,.51,0,.69s0,.24,0,.25a.72.72,0,0,0,0-.22c0-.17,0-.39,0-.67,0-.62,0-1.49,0-2.62,0-2.35,0-5.74.06-10,0-8.72.08-21.13.13-36V122Z"/><path class="cls-11" d="M791.72,185.86c0,.12-10.32.21-23.06.21s-23.07-.09-23.07-.21,10.33-.2,23.07-.2S791.72,185.75,791.72,185.86Z"/><path class="cls-11" d="M801,192.75c0,.11-14.09.2-31.47.2s-31.47-.09-31.47-.2,14.09-.21,31.47-.21S801,192.63,801,192.75Z"/><path class="cls-11" d="M801,199.41c0,.11-14.09.21-31.47.21s-31.47-.1-31.47-.21,14.09-.21,31.47-.21S801,199.3,801,199.41Z"/><path class="cls-11" d="M801,206.07c0,.12-14.09.21-31.47.21s-31.47-.09-31.47-.21,14.09-.2,31.47-.2S801,206,801,206.07Z"/><path class="cls-11" d="M764,212.74c0,.11-5.82.2-13,.2s-13-.09-13-.2,5.82-.21,13-.21S764,212.62,764,212.74Z"/><rect class="cls-5" x="827.37" y="117.31" width="61.43" height="59.43"/><g class="cls-6"><polygon points="832.13 171.65 849.12 141.07 863.02 160.62 871.47 150.23 884.03 171.65 832.13 171.65"/></g><g class="cls-6"><path d="M868.94,135.12a4.42,4.42,0,1,1-4.42-4.42A4.42,4.42,0,0,1,868.94,135.12Z"/></g><path class="cls-14" d="M884,122l-51.9,0c.06-.07-.56.55-.29.3h0v13.33q0,6.55,0,12.8c0,8.33,0,16.2,0,23.43v.26h.26l37.69-.13,10.53-.07,2.75,0H884l-.26,0h-.72l-2.81,0-10.59-.07-37.27-.13c0-7.17,0-14.95,0-23.18q0-6.24,0-12.8V122.52l51.36,0c.05,14.73.1,27,.13,35.63,0,4.33.05,7.74.06,10.09,0,1.15,0,2.05,0,2.68,0,.29,0,.51,0,.69s0,.24,0,.25a.72.72,0,0,0,0-.22c0-.17,0-.39,0-.67,0-.62,0-1.49,0-2.62,0-2.35,0-5.74.06-10,0-8.72.08-21.13.13-36V122Z"/><path class="cls-11" d="M881.09,185.86c0,.12-10.32.21-23.06.21S835,186,835,185.86s10.33-.2,23.07-.2S881.09,185.75,881.09,185.86Z"/><path class="cls-11" d="M890.33,192.75c0,.11-14.09.2-31.47.2s-31.47-.09-31.47-.2,14.09-.21,31.47-.21S890.33,192.63,890.33,192.75Z"/><path class="cls-11" d="M890.33,199.41c0,.11-14.09.21-31.47.21s-31.47-.1-31.47-.21,14.09-.21,31.47-.21S890.33,199.3,890.33,199.41Z"/><path class="cls-11" d="M890.33,206.07c0,.12-14.09.21-31.47.21s-31.47-.09-31.47-.21,14.09-.2,31.47-.2S890.33,206,890.33,206.07Z"/><path class="cls-11" d="M853.37,212.74c0,.11-5.82.2-13,.2s-13-.09-13-.2,5.82-.21,13-.21S853.37,212.62,853.37,212.74Z"/><rect class="cls-5" x="915.07" y="117.31" width="61.43" height="59.43"/><g class="cls-6"><polygon points="919.84 171.65 936.83 141.07 950.73 160.62 959.17 150.23 971.74 171.65 919.84 171.65"/></g><g class="cls-6"><path d="M956.65,135.12a4.42,4.42,0,1,1-4.42-4.42A4.42,4.42,0,0,1,956.65,135.12Z"/></g><path class="cls-14" d="M971.74,122l-51.9,0c.06-.07-.56.55-.3.3h0v26.13c0,8.33,0,16.2,0,23.43v.26h.26l37.69-.13,10.52-.07,2.76,0h.93l-.26,0h-.72l-2.81,0-10.59-.07-37.27-.13c0-7.17,0-14.95,0-23.18,0-4.16,0-8.44,0-12.8V122.52l51.36,0c0,14.73.1,27,.13,35.63,0,4.33,0,7.74.06,10.09,0,1.15,0,2.05,0,2.68,0,.29,0,.51,0,.69a1,1,0,0,0,0,.25,1.76,1.76,0,0,0,0-.22c0-.17,0-.39,0-.67,0-.62,0-1.49,0-2.62,0-2.35,0-5.74.06-10,0-8.72.08-21.13.13-36V122Z"/><path class="cls-11" d="M968.8,185.86c0,.12-10.33.21-23.06.21s-23.07-.09-23.07-.21,10.33-.2,23.07-.2S968.8,185.75,968.8,185.86Z"/><path class="cls-11" d="M978,192.75c0,.11-14.09.2-31.47.2s-31.47-.09-31.47-.2,14.09-.21,31.47-.21S978,192.63,978,192.75Z"/><path class="cls-11" d="M978,199.41c0,.11-14.09.21-31.47.21s-31.47-.1-31.47-.21,14.09-.21,31.47-.21S978,199.3,978,199.41Z"/><path class="cls-11" d="M978,206.07c0,.12-14.09.21-31.47.21s-31.47-.09-31.47-.21,14.09-.2,31.47-.2S978,206,978,206.07Z"/><path class="cls-11" d="M941.08,212.74c0,.11-5.82.2-13,.2s-13-.09-13-.2,5.82-.21,13-.21S941.08,212.62,941.08,212.74Z"/><path class="cls-15" d="M1002.3,99.41c0,.11-64.6.2-144.27.2s-144.3-.09-144.3-.2,64.59-.21,144.3-.21S1002.3,99.29,1002.3,99.41Z"/><path class="cls-4" d="M713.49,57.94l288.81-.19h.19v.19c0,53.63,0,112.57,0,174.32v.23h-.21l-288.81-.05h-.16v-.16c.1-106.8.16-173,.16-174.34,0,1.3.06,67.54.16,174.34l-.16-.16,288.81,0-.2.2v0c0-61.75,0-120.69,0-174.32l.19.19Z"/><path class="cls-1" d="M367,434.61l16,51.28,53.3-47.2,20.1,17.13s-45.23,71.9-67.17,85.44c-24.34,15-53.29-4.72-57-19.22s-23-79.49-23-79.49Z"/><path class="cls-16" d="M384.24,485c.06.11-1.41.92-3.46,2.63a30.56,30.56,0,0,0-3.35,3.27,30.29,30.29,0,0,0-5.74,9.86,29.5,29.5,0,0,0-1.19,4.53c-.47,2.64-.45,4.31-.57,4.31a3.92,3.92,0,0,1-.08-1.17,9.47,9.47,0,0,1,0-1.38c.05-.54.07-1.16.19-1.83a27.28,27.28,0,0,1,1.08-4.64A28.14,28.14,0,0,1,377,490.52a27.81,27.81,0,0,1,3.5-3.24c.53-.43,1.05-.76,1.5-1.06a10.75,10.75,0,0,1,1.18-.72A4.85,4.85,0,0,1,384.24,485Z"/><path class="cls-5" d="M326.91,485.5,383,470.38s-12-35.57-21.37-61.27c-8.25-22.66-22.12-32.09-29.32-37.22a22,22,0,0,0-9.84-3.9c-13.27-1.77-49.55-6.53-67.54-8-22.27-1.86-68.75,10.39-68.75,10.39S145.37,393,131.63,402.1a19,19,0,0,0-7.36,9.26c-2.54,6.83-5.77,18.59-9.65,33.79-2.46,9.66-10.62,41.64-10.62,41.64l47.82-1.47c9.63,29.25,18.56,55.53,18.56,55.53L166.51,611l177.33,0S327.5,502.5,327.5,500C327.5,499.1,327.24,492.9,326.91,485.5Z"/><g class="cls-6"><path d="M271.76,428.58c-3.51-4.46-9.63-6.3-15.28-5.73s-10.89,3.23-15.59,6.42c-14.5,9.85-24.78,24.67-33.89,39.64a477.42,477.42,0,0,0-39.83,82.26l.37,7.33c11.89-1.5,19.65-11.53,24.8-22.34s7.39-22.79,11.93-33.88a87.35,87.35,0,0,1,47.06-47.06c7.08.73,14.69-1.54,19.33-7S276.16,434.18,271.76,428.58Z"/></g><path class="cls-4" d="M327.45,494.79c-.26,0-1.85-15.51-3.54-34.68s-2.86-34.75-2.6-34.77,1.85,15.5,3.55,34.68S327.71,494.76,327.45,494.79Z"/><path class="cls-4" d="M139.08,425.34a12.5,12.5,0,0,1,.71,2.41c.41,1.75.94,4,1.57,6.65,1.29,5.62,3,13.39,4.83,22s3.45,16.41,4.56,22.06c.52,2.69.94,5,1.28,6.71a13.18,13.18,0,0,1,.34,2.49,11.86,11.86,0,0,1-.7-2.41c-.42-1.75-.95-4-1.58-6.64-1.28-5.62-3-13.4-4.83-22s-3.45-16.41-4.56-22.06c-.51-2.69-.94-5-1.28-6.71A13.18,13.18,0,0,1,139.08,425.34Z"/><path class="cls-4" d="M318.91,368.67c.27.07-1.34,6.29-2.45,14.12S315.11,397,314.83,397c-.13,0-.24-1.61-.18-4.22a84.6,84.6,0,0,1,.86-10.15,87.18,87.18,0,0,1,2-10A16.23,16.23,0,0,1,318.91,368.67Z"/><path class="cls-1" d="M242.41,401.2l16.13-32.54-5-14.23s24.2-12.56,15.93-38.19c-4-12.38-14.29-37.21-23.87-59.57-10.31-24-36.35-33.15-61.14-24.81l-2.47.83C156,243.17,156,269,157,280l36.25,109.56Z"/><path class="cls-16" d="M253.56,354.41s-15.69,6.74-36.46,1.73c0,0,14,15.73,38.75,4.86Z"/><path class="cls-4" d="M247,282a3.83,3.83,0,0,1-2.28,4.86,3.67,3.67,0,0,1-4.86-2,3.84,3.84,0,0,1,2.27-4.86A3.68,3.68,0,0,1,247,282Z"/><path class="cls-4" d="M244.23,269.53c-.29.63-3.74-.49-7.66.84s-6.13,4.26-6.72,3.92c-.28-.14-.11-1.15.84-2.49a10.54,10.54,0,0,1,5.18-3.72,10.16,10.16,0,0,1,6.3-.08C243.69,268.52,244.39,269.24,244.23,269.53Z"/><path class="cls-4" d="M212.89,292.17a3.84,3.84,0,0,1-2.28,4.86,3.67,3.67,0,0,1-4.86-2,3.84,3.84,0,0,1,2.27-4.86A3.68,3.68,0,0,1,212.89,292.17Z"/><path class="cls-4" d="M206.12,281.16c-.22.65-3.78-.08-7.53,1.66s-5.63,4.9-6.25,4.63c-.3-.11-.24-1.13.56-2.57a10.55,10.55,0,0,1,4.75-4.26,10.11,10.11,0,0,1,6.25-.76C205.46,280.21,206.24,280.85,206.12,281.16Z"/><path class="cls-4" d="M230,309c-.1-.22,2.2-1.46,6-3.29,1-.44,1.85-1,1.79-1.7s-.79-1.74-1.67-2.75l-5.53-6.63c-7.76-9.48-13.74-17.41-13.36-17.72s7,7.13,14.76,16.6l5.42,6.72c.76,1,1.85,2.09,1.84,3.76a2.67,2.67,0,0,1-1.15,2,7.45,7.45,0,0,1-1.63.81C232.56,308.38,230.1,309.23,230,309Z"/><path class="cls-4" d="M200.79,267.48c0,1.19-4.12,2-8.53,4.11s-7.72,4.61-8.65,3.86c-.43-.37-.12-1.59,1-3.13a16.53,16.53,0,0,1,13.1-6.07C199.65,266.36,200.79,266.91,200.79,267.48Z"/><path class="cls-4" d="M239.56,259c-.39,1.12-3.4,1.1-6.67,2.15s-5.8,2.62-6.75,1.9c-.43-.36-.29-1.39.63-2.64a10.14,10.14,0,0,1,10.81-3.27C239,257.65,239.72,258.44,239.56,259Z"/><path class="cls-1" d="M434.41,440.35s20-26,22.16-27.13,30-5.19,30-5.19-1.17,8.78-9.23,11.37c-5.69,1.83-12.36,3.26-12.36,3.26s2.22,17-1.87,23.86-11.46,14.67-11.46,14.67Z"/><path class="cls-16" d="M459.35,450.44a24.15,24.15,0,0,0,4.17-7.13,31.72,31.72,0,0,0,1.64-8.82,49.85,49.85,0,0,0,0-5.33,20.1,20.1,0,0,0-.4-2.77,7.69,7.69,0,0,1-.09-3,2.2,2.2,0,0,1,1.19-1.16,8.63,8.63,0,0,1,1.41-.53,27.1,27.1,0,0,1,2.79-.63,40.13,40.13,0,0,0,5.18-1.22,17.08,17.08,0,0,0,7.63-4.47,14.47,14.47,0,0,0,3-5.18c.47-1.35.63-2.14.69-2.13s0,.2-.07.58a11.27,11.27,0,0,1-.39,1.63,14,14,0,0,1-2.93,5.39,17.16,17.16,0,0,1-7.78,4.72,36.84,36.84,0,0,1-5.24,1.27,26.27,26.27,0,0,0-2.73.63,7,7,0,0,0-1.3.49,1.61,1.61,0,0,0-.88.81,6.92,6.92,0,0,0,.11,2.74,19.21,19.21,0,0,1,.39,2.84,48.24,48.24,0,0,1,0,5.39,31.12,31.12,0,0,1-1.8,8.94,20.24,20.24,0,0,1-3,5.35,13.47,13.47,0,0,1-1.12,1.24A2.05,2.05,0,0,1,459.35,450.44Z"/><path class="cls-1" d="M169,312.1c-.5-.05-19.29.71-12.86,18s22.44,7.26,22.28,6.75S169,312.1,169,312.1Z"/><path class="cls-16" d="M170.66,332.24c-.09,0-.22.32-.64.75a3.23,3.23,0,0,1-2.23.88c-2.08,0-4.69-2.32-5.93-5.4a10.5,10.5,0,0,1-.76-4.62,3.69,3.69,0,0,1,1.4-3.15,1.63,1.63,0,0,1,2.08.17c.41.39.43.78.53.77s.27-.42-.14-1.09a2.06,2.06,0,0,0-1.08-.82,2.39,2.39,0,0,0-1.83.18c-1.29.58-2,2.25-2.14,3.84a10.8,10.8,0,0,0,.75,5.2c1.4,3.44,4.39,6,7.16,5.83a3.46,3.46,0,0,0,2.58-1.48C170.79,332.67,170.73,332.25,170.66,332.24Z"/><rect class="cls-9" x="987.72" y="308" width="120.55" height="83.95"/><g class="cls-17"><rect x="987.72" y="308" width="120.55" height="10.49"/></g><path class="cls-9" d="M994.26,313.55a1.26,1.26,0,1,1-1.25-1.32A1.28,1.28,0,0,1,994.26,313.55Z"/><path class="cls-9" d="M999.37,313.55a1.26,1.26,0,1,1-1.26-1.32A1.29,1.29,0,0,1,999.37,313.55Z"/><path class="cls-9" d="M1004.47,313.55a1.26,1.26,0,1,1-1.26-1.32A1.29,1.29,0,0,1,1004.47,313.55Z"/><rect class="cls-13" x="999.18" y="328.77" width="17.18" height="41.22"/><rect class="cls-13" x="1025.67" y="328.77" width="17.18" height="41.22"/><rect class="cls-13" x="1052.17" y="328.77" width="17.18" height="41.22"/><rect class="cls-13" x="1078.66" y="329.1" width="17.18" height="41.22"/><rect class="cls-13" x="997.19" y="374.54" width="104.14" height="9.42"/><polygon class="cls-11" points="1087.05 380.82 1089.29 392.16 1091.13 389 1095.09 394.65 1097.07 393.38 1093.11 387.72 1096.75 387.19 1087.05 380.82"/><rect class="cls-9" x="838.42" y="419.97" width="211.06" height="146.98"/><g class="cls-17"><rect x="838.42" y="419.97" width="211.06" height="18.37"/></g><path class="cls-9" d="M849.88,429.68a2.2,2.2,0,1,1-2.2-2.3A2.26,2.26,0,0,1,849.88,429.68Z"/><path class="cls-9" d="M858.81,429.68a2.2,2.2,0,1,1-2.2-2.3A2.25,2.25,0,0,1,858.81,429.68Z"/><path class="cls-9" d="M867.74,429.68a2.2,2.2,0,1,1-2.2-2.3A2.25,2.25,0,0,1,867.74,429.68Z"/><path class="cls-15" d="M184.54,601.82l73.17-.35L282.51,484a10.46,10.46,0,0,1,10.23-8.33H445.65a10.45,10.45,0,0,1,10.21,12.68L430.67,603.88a8.43,8.43,0,0,1-8.24,6.64H173.92C173.92,604.57,178.6,601.82,184.54,601.82Z"/><path class="cls-4" d="M262.52,610.52c.17,0,7.07-30.12,15.41-67.35s15-67.44,14.81-67.48-7.06,30.11-15.4,67.35S262.36,610.48,262.52,610.52Z"/><path class="cls-2" d="M352.93,541.38c-3.63,4.88-3.06,11.44,1.27,14.66s10.77,1.86,14.4-3,3-11.44-1.27-14.65S356.55,536.5,352.93,541.38Z"/><circle class="cls-18" cx="103.99" cy="128.26" r="56.69" transform="translate(-54.81 173.48) rotate(-66.86)"/><path class="cls-2" d="M141.39,192.63c0,.06.6.16,1.55.67a7.33,7.33,0,0,1,3,3.15,6.43,6.43,0,0,1,.7,2.86,5.62,5.62,0,0,1-1,3.17,7.37,7.37,0,0,1-7,3,7.07,7.07,0,0,1-5.46-5.21,5.52,5.52,0,0,1,.22-3.31,6.72,6.72,0,0,1,1.72-2.43,7.63,7.63,0,0,1,4-1.9c1.07-.15,1.69,0,1.69-.09a1.35,1.35,0,0,0-.44-.09,2.7,2.7,0,0,0-.54,0,3.87,3.87,0,0,0-.74,0,7.65,7.65,0,0,0-4.25,1.83,7,7,0,0,0-1.88,2.54,5.93,5.93,0,0,0-.29,3.56,7.22,7.22,0,0,0,1.94,3.49,7.33,7.33,0,0,0,3.91,2.1,7.53,7.53,0,0,0,4.43-.62,7.45,7.45,0,0,0,3.12-2.6,6,6,0,0,0,1.07-3.42,6.71,6.71,0,0,0-.8-3,7.28,7.28,0,0,0-3.29-3.17,4.47,4.47,0,0,0-.68-.28,4,4,0,0,0-.52-.15A2.11,2.11,0,0,0,141.39,192.63Z"/><path class="cls-3" d="M83.16,123.07a20.81,20.81,0,1,1,29.68,18.82v5.25H94.6s-.11-2.95-.15-5.58A20.8,20.8,0,0,1,83.16,123.07Z"/><path class="cls-5" d="M83.33,122.93A20.81,20.81,0,1,1,113,141.75V147H94.76s-.11-2.95-.15-5.58A20.79,20.79,0,0,1,83.33,122.93Z"/><path class="cls-4" d="M101.2,147.05s0-.08,0-.25-.05-.43-.09-.75c-.08-.66-.2-1.64-.38-2.88s-.43-2.78-.83-4.53A30.77,30.77,0,0,0,98,132.85a19.19,19.19,0,0,0-1.71-3.11,3.83,3.83,0,0,0-1.42-1.28,2.14,2.14,0,0,0-2,.07,1.42,1.42,0,0,0-.66.82,1.47,1.47,0,0,0,.09,1.07,3,3,0,0,0,1.61,1.38,5.71,5.71,0,0,0,4.32-.3,5.78,5.78,0,0,0,2.94-3.47,4.34,4.34,0,0,0,.13-2.4,1.89,1.89,0,0,0-1.9-1.45,1.31,1.31,0,0,0-1,.73,1.86,1.86,0,0,0-.17,1.29,4.11,4.11,0,0,0,1.46,2.06,6.18,6.18,0,0,0,4.85,1.41,5.39,5.39,0,0,0,4-3,3.16,3.16,0,0,0,.15-2.52,1.63,1.63,0,0,0-.92-.92,1.55,1.55,0,0,0-1.28.12,2.09,2.09,0,0,0-.88.91,3.18,3.18,0,0,0-.31,1.2,5.94,5.94,0,0,0,.31,2.38,6.21,6.21,0,0,0,2.94,3.49,6.35,6.35,0,0,0,4.3.59,3.29,3.29,0,0,0,1.87-1,1.63,1.63,0,0,0,.12-2,1.39,1.39,0,0,0-.94-.46,2,2,0,0,0-1,.2,3,3,0,0,0-1.27,1.43c-.52,1.12-.94,2.22-1.37,3.27-1.66,4.19-2.84,7.65-3.63,10-.4,1.2-.69,2.13-.89,2.77l-.21.72c0,.16-.07.25-.07.25a1.78,1.78,0,0,0,.09-.24q.09-.26.24-.72c.22-.64.53-1.56.93-2.75.82-2.38,2-5.83,3.71-10,.43-1,.86-2.14,1.37-3.25a2.85,2.85,0,0,1,1.19-1.33,1.25,1.25,0,0,1,1.56,1.95,3.09,3.09,0,0,1-1.76.91,6.08,6.08,0,0,1-4.14-.58,6,6,0,0,1-2.82-3.36,6.05,6.05,0,0,1-.3-2.28,2.28,2.28,0,0,1,1.07-1.91,1.28,1.28,0,0,1,1.08-.1,1.33,1.33,0,0,1,.76.78,2.9,2.9,0,0,1-.14,2.32,5.15,5.15,0,0,1-3.83,2.85,6,6,0,0,1-4.65-1.35,3.84,3.84,0,0,1-1.37-1.93,1.58,1.58,0,0,1,.14-1.11,1.08,1.08,0,0,1,.86-.6,1.45,1.45,0,0,1,1,.33,1.82,1.82,0,0,1,.6.93A4.24,4.24,0,0,1,101,128a5.55,5.55,0,0,1-2.81,3.34,5.49,5.49,0,0,1-4.14.3,2.7,2.7,0,0,1-1.49-1.26,1.23,1.23,0,0,1,.48-1.62,1.93,1.93,0,0,1,1.78-.06,3.58,3.58,0,0,1,1.35,1.21,19.57,19.57,0,0,1,1.71,3.07,31.4,31.4,0,0,1,1.91,5.75c.41,1.74.67,3.26.87,4.5s.33,2.21.43,2.87c0,.32.08.57.11.75S101.2,147.05,101.2,147.05Z"/><path class="cls-4" d="M96,150.52h15.66a1.18,1.18,0,0,0,1.18-1.18h0a1.17,1.17,0,0,0-1.18-1.17H96a1.17,1.17,0,0,0-1.17,1.17h0A1.18,1.18,0,0,0,96,150.52Z"/><path class="cls-4" d="M96,151.54h15.66a1.18,1.18,0,1,1,0,2.35h-1.72l-2.28,4.34a1.5,1.5,0,0,1-1.33.81h-5.6a1.52,1.52,0,0,1-1.34-.82l-2.22-4.33H96a1.18,1.18,0,0,1,0-2.35Z"/><g class="cls-7"><path class="cls-2" d="M117.34,109.81a15.37,15.37,0,0,0-4.17-2.77,10.89,10.89,0,0,0-3.2-.93c-.79-.09-1.24,0-1.28.16-.09.37,1.49.93,3.61,2.35a17.13,17.13,0,0,1,7.8,16.81c-.29,2.54-.88,4.1-.53,4.28.15.07.5-.22,1-.87a11.28,11.28,0,0,0,1.35-3,15.25,15.25,0,0,0,.58-5,16.16,16.16,0,0,0-1.46-6"/></g><g class="cls-7"><path class="cls-2" d="M103.69,107.16c1.32,0,2.48-.37,2.62-1.07,0-.34-.19-.71-.67-1a3.77,3.77,0,0,0-2-.48,3.85,3.85,0,0,0-2,.5c-.47.29-.71.66-.65,1"/></g><path class="cls-11" d="M99.68,158.59a11.21,11.21,0,0,0,1.08-.33,8.61,8.61,0,0,1,5.28.15,10.35,10.35,0,0,0,1.06.39,3.46,3.46,0,0,0-1-.56,7.54,7.54,0,0,0-2.69-.57,7.4,7.4,0,0,0-2.72.42A3.51,3.51,0,0,0,99.68,158.59Z"/><path class="cls-11" d="M97.14,154c0,.07,2.83.12,6.32.12s6.32,0,6.32-.12-2.83-.13-6.32-.13S97.14,153.87,97.14,154Z"/><path class="cls-11" d="M98.12,155.8a8.08,8.08,0,0,0,1.54.16c1,.06,2.28.11,3.73.13s2.79,0,3.74,0a8.15,8.15,0,0,0,1.55-.11,11.84,11.84,0,0,0-1.55-.07l-3.73,0-3.73-.06A12,12,0,0,0,98.12,155.8Z"/><rect class="cls-9" x="361.08" y="81.05" width="190.33" height="111.21" transform="translate(-9.05 34.98) rotate(-4.35)"/><path class="cls-4" d="M555.35,184.88s-.07-.69-.18-2l-.48-5.81c-.4-5.11-1-12.59-1.76-22.2-1.5-19.21-3.65-46.89-6.3-80.86l.31.27L357.18,88.79h0l.35-.4c3,39.26,5.81,76.76,8.4,110.89l-.38-.32,136.53-10.21,39.2-2.88,10.45-.76,2.7-.18.93-.05s-.29,0-.88.09l-2.66.22-10.38.83-39.1,3.07L365.6,199.66l-.35,0,0-.34c-2.6-34.14-5.46-71.63-8.46-110.89l0-.38.38,0h0L546.9,73.7l.29,0,0,.29c2.53,34.05,4.58,61.8,6,81.06.7,9.58,1.24,17.05,1.61,22.14.18,2.52.31,4.45.4,5.76S555.35,184.88,555.35,184.88Z"/><path class="cls-4" d="M398.29,137.36l-18.54,1.41-1.4-18.44,18.54-1.41Zm-17.2-.14L396.74,136l-1.19-15.57-15.65,1.19Z"/><path class="cls-4" d="M414.31,95.82c0,.21-10.12,1.15-22.63,2.1S369,99.47,369,99.27s10.12-1.15,22.64-2.1S414.3,95.61,414.31,95.82Z"/><rect class="cls-5" x="371.41" y="113.19" width="17.15" height="17.06" transform="translate(-8.13 29.16) rotate(-4.35)"/><rect class="cls-5" x="416.63" y="125.47" width="78.04" height="6.58" transform="translate(-8.45 34.91) rotate(-4.35)"/><path class="cls-2" d="M418.52,135.74l-2.23,3.88a.7.7,0,0,0,.66,1l5-.38a.7.7,0,0,0,.5-1.12l-2.73-3.5A.7.7,0,0,0,418.52,135.74Z"/><rect class="cls-5" x="418.11" y="145.03" width="78.04" height="6.58" transform="translate(-9.93 35.08) rotate(-4.35)"/><g class="cls-6"><rect x="418.11" y="145.03" width="78.04" height="6.58" transform="translate(-9.93 35.08) rotate(-4.35)"/></g><path class="cls-2" d="M490.75,149.93l-2.23,3.87a.7.7,0,0,0,.66,1l5-.38a.7.7,0,0,0,.5-1.12l-2.73-3.5A.7.7,0,0,0,490.75,149.93Z"/><rect class="cls-4" x="419.72" y="166.16" width="78.04" height="6.58" transform="translate(-11.53 35.27) rotate(-4.35)"/><path class="cls-2" d="M440.15,175l-2.23,3.87a.7.7,0,0,0,.66,1l4.95-.38a.69.69,0,0,0,.5-1.11l-2.72-3.5A.7.7,0,0,0,440.15,175Z"/><rect class="cls-4" x="504.47" y="119.46" width="30.31" height="8.86" transform="translate(-7.9 39.75) rotate(-4.35)"/><rect class="cls-4" x="505.96" y="139.02" width="30.31" height="8.86" transform="translate(-9.38 39.92) rotate(-4.35)"/><rect class="cls-4" x="507.56" y="160.16" width="30.31" height="8.86" transform="translate(-10.97 40.1) rotate(-4.35)"/><rect class="cls-9" x="495" y="529" width="163" height="44"/><circle class="cls-5" cx="637.82" cy="550.81" r="9.23"/><rect class="cls-11" x="567.53" y="539.27" width="22.58" height="22.58"/><polygon class="cls-18" points="590.11 549.7 576.2 561.85 590.11 561.85 590.11 549.7"/><path class="cls-4" d="M590.11,561.85a2.3,2.3,0,0,1,0-.44q0-.46,0-1.23c0-1.11,0-2.66-.06-4.61,0-4-.07-9.59-.11-16.3l.22.22-22.58,0,.26-.26h0v3.05c0,1,0,2,0,3v5.84c0,3.79,0,7.37,0,10.65l-.22-.22,16.3.11,4.61.06,1.23,0,.44,0a1.7,1.7,0,0,1-.39,0l-1.19,0L584,562l-16.44.12h-.23v-.23c0-3.28,0-6.86,0-10.65,0-1.9,0-3.85,0-5.84v-6.07h0l.26-.26,22.58,0h.23v.23c-.05,6.77-.09,12.43-.12,16.44,0,1.93,0,3.47-.06,4.57,0,.48,0,.88,0,1.18A1.7,1.7,0,0,1,590.11,561.85Z"/><rect x="595.61" y="539.27" width="22.58" height="22.58"/><polygon class="cls-18" points="618.2 549.7 604.28 561.85 618.2 561.85 618.2 549.7"/><path class="cls-4" d="M618.19,561.85s0-.16,0-.44,0-.72,0-1.23c0-1.11,0-2.66-.06-4.61,0-4-.06-9.59-.11-16.3l.22.22-22.58,0,.26-.26h0v6.07c0,2,0,3.94,0,5.84,0,3.79,0,7.37,0,10.65l-.23-.22,16.3.11,4.61.06,1.24,0,.43,0a1.7,1.7,0,0,1-.39,0l-1.18,0-4.57.06-16.44.12h-.22v-.23c0-3.28,0-6.86,0-10.65,0-1.9,0-3.85,0-5.84v-6.07h0l.26-.26,22.58,0h.23v.23c0,6.77-.09,12.43-.12,16.44,0,1.93,0,3.47,0,4.57,0,.48,0,.88,0,1.18A1.7,1.7,0,0,1,618.19,561.85Z"/><rect class="cls-3" x="537.5" y="539.27" width="22.58" height="22.58"/><polygon class="cls-18" points="560.09 549.7 546.17 561.85 560.09 561.85 560.09 549.7"/><path class="cls-4" d="M560.09,561.85a2.79,2.79,0,0,1,0-.44c0-.31,0-.72,0-1.23,0-1.11,0-2.66-.06-4.61,0-4-.07-9.59-.12-16.3l.23.22-22.58,0c-.06.05.49-.49.25-.26h0v6.07c0,2,0,3.94,0,5.84,0,3.79,0,7.37,0,10.65l-.23-.22,16.3.11,4.62.06,1.23,0,.44,0a1.81,1.81,0,0,1-.39,0l-1.19,0L554,562l-16.45.12h-.22v-.23c0-3.28,0-6.86,0-10.65v-5.84c0-1,0-2,0-3v-3.05h0c-.23.23.32-.32.27-.26l22.58,0h.22v.23c0,6.77-.08,12.43-.11,16.44,0,1.93-.05,3.47-.06,4.57,0,.48,0,.88,0,1.18A2.53,2.53,0,0,1,560.09,561.85Z"/><rect class="cls-4" x="506.41" y="539.27" width="22.58" height="22.58"/><polygon class="cls-18" points="528.99 549.7 515.08 561.85 528.99 561.85 528.99 549.7"/><path class="cls-4" d="M529,561.85a4.17,4.17,0,0,1,0-.44q0-.46,0-1.23c0-1.11,0-2.66-.06-4.61,0-4-.06-9.59-.11-16.3l.22.22-22.58,0,.26-.26h0v6.07c0,2,0,3.94,0,5.84,0,3.79,0,7.37,0,10.65l-.22-.22,16.3.11,4.61.06,1.23,0,.44,0a1.7,1.7,0,0,1-.39,0l-1.18,0-4.57.06-16.44.12h-.23v-.23c0-3.28,0-6.86,0-10.65,0-1.9,0-3.85,0-5.84v-6.07h0l.26-.26L529,539h.23v.23c-.05,6.77-.09,12.43-.12,16.44,0,1.93,0,3.47-.06,4.57,0,.48,0,.88,0,1.18A1.7,1.7,0,0,1,529,561.85Z"/><path class="cls-9" d="M176.11,311.86Z"/><path class="cls-9" d="M176.07,311.77l-.09-.18Z"/><path class="cls-9" d="M176.32,312.76l-.4-.8Z"/><path class="cls-9" d="M176.32,312.76Z"/><path class="cls-9" d="M200.43,227.56c-9,1.13-17.58,3.07-26.65,9.14-6.88,4.65-10.85,10.53-14.67,16.22C148,271,167,308,167,308s-.64-13.35,4.15-22.19c4.69-8.57-.76-14.89,5.2-23.09,7-9.5,15.89-13,29.62-13.63,7.76-14.78,28-10.33,32.05-5.1C226.11,225,210,226.5,200.43,227.56Z"/><path class="cls-9" d="M176,311.68Z"/><path class="cls-9" d="M163.05,246.64c-.67-3.36-4.06-5.14-8.45-4.73s-8.14,3.82-9.56,7.76.29,7.88,3.05,10.51c2,1.89,6.53,1.73,7.4-.55"/><path class="cls-19" d="M163.05,246.64a5.58,5.58,0,0,0-3.4-3.92,10.27,10.27,0,0,0-5.27-.59,11.53,11.53,0,0,0-8.37,6,9,9,0,0,0-1.22,5.09,10,10,0,0,0,1.85,4.93,13,13,0,0,0,1.74,2,5.1,5.1,0,0,0,2.38,1.06,6.23,6.23,0,0,0,2.65-.05,2.92,2.92,0,0,0,2.08-1.56,3,3,0,0,1-2,1.71,6.09,6.09,0,0,1-2.75.19,5.42,5.42,0,0,1-2.58-1.06,12.45,12.45,0,0,1-1.85-2.06,10.62,10.62,0,0,1-2-5.15,9.25,9.25,0,0,1,1.26-5.36,11.86,11.86,0,0,1,8.76-6.16,10.59,10.59,0,0,1,5.42.76A5.68,5.68,0,0,1,163.05,246.64Z"/><path class="cls-19" d="M145.24,254.7a.63.63,0,0,0,.22.44,3.69,3.69,0,0,0,1.21,1,10,10,0,0,0,5.22.52,7.59,7.59,0,0,0,2.84-1.08,7.46,7.46,0,0,0,2-1.42,6.78,6.78,0,0,0,1.09-1.21,2.83,2.83,0,0,0,.25-.46c0-.09-.64.66-1.57,1.45a8.58,8.58,0,0,1-2,1.33,15.28,15.28,0,0,1-2.75,1,9.94,9.94,0,0,1-5.13-.35A3.19,3.19,0,0,1,145.24,254.7Z"/><path class="cls-19" d="M145.28,249.66a1.64,1.64,0,0,0,.32.4,6.9,6.9,0,0,0,1.2,1,9.1,9.1,0,0,0,4.9,1.58,10.91,10.91,0,0,0,5.22-.93,8.27,8.27,0,0,0,1.41-.81,2.28,2.28,0,0,1,.44-.33c-.05-.09-.73.47-2,.87a10.78,10.78,0,0,1-5.07.74A10.92,10.92,0,0,1,147,250.7,5.33,5.33,0,0,1,145.28,249.66Z"/><path class="cls-5" d="M155.41,262a10,10,0,0,0,.51-2.37,23.5,23.5,0,0,1,2.24-5.46,59.32,59.32,0,0,1,3.28-5.08,9.93,9.93,0,0,0,1.64-2.05,17.47,17.47,0,0,0-1.87,1.83,21.06,21.06,0,0,0-3.42,5,22.08,22.08,0,0,0-2,5.59A8.8,8.8,0,0,0,155.41,262Z"/><path class="cls-19" d="M204.13,241.54a37.1,37.1,0,0,0-4.6-1.94c-1.6-.54-3.2-1.08-4.71-1.45a38.52,38.52,0,0,0-9.95-1.28,30,30,0,0,0-10.11,1.8A22.73,22.73,0,0,0,170.1,241a22.34,22.34,0,0,0-4.11,3.16,24.15,24.15,0,0,1,8.63-5.74,27.63,27.63,0,0,1,10.26-2,40.64,40.64,0,0,1,19.25,5.13Z"/><path class="cls-19" d="M188.49,242.2a24.42,24.42,0,0,0-4.1,0,24.29,24.29,0,0,0-4.06.35,31.09,31.09,0,0,0-8,2,28.16,28.16,0,0,0-3.73,1.75,25.14,25.14,0,0,0-3.32,2.32,19.18,19.18,0,0,0-4.75,6.48,14.86,14.86,0,0,1,1.84-3.59,13.63,13.63,0,0,1,2.68-3.11,23.35,23.35,0,0,1,7.15-4.34,30.26,30.26,0,0,1,8.07-1.79A33,33,0,0,1,188.49,242.2Z"/><path class="cls-19" d="M206.07,240.58a10.72,10.72,0,0,0-5-7.19,16.11,16.11,0,0,0-4.33-1.64c-.8-.15-1.56-.22-2.36-.38s-1.62-.09-2.42-.24a15,15,0,0,1,2.42,0,23.11,23.11,0,0,1,2.42.25,17,17,0,0,1,4.52,1.54,9,9,0,0,1,3.31,3.25A8.21,8.21,0,0,1,206.07,240.58Z"/><path class="cls-19" d="M201.53,245.07a16.32,16.32,0,0,0-6-.82,11.16,11.16,0,0,0-5.78,1.76,12.17,12.17,0,0,0-4,4.42,40.82,40.82,0,0,0-2.19,5.55,24.57,24.57,0,0,1-2.72,5.48,14.57,14.57,0,0,1-4.26,4.57,14.82,14.82,0,0,1-5.71,2.62,27.9,27.9,0,0,1-6.16.5,35.65,35.65,0,0,0,6.17-.73,14.23,14.23,0,0,0,5.57-2.66c3.23-2.5,5.27-6.18,6.64-10a33.26,33.26,0,0,1,2.15-5.64,11.29,11.29,0,0,1,4.26-4.57,12,12,0,0,1,6.06-1.67A23.39,23.39,0,0,1,201.53,245.07Z"/><path class="cls-19" d="M171.12,251.29a5.69,5.69,0,0,0-1.47,1.17,11.06,11.06,0,0,0-2.42,3.66,9.23,9.23,0,0,0-.71,4.14c0,1.09.22,1.67.36,1.71a6.34,6.34,0,0,0,0-1.67,11.39,11.39,0,0,1,.8-4,12.34,12.34,0,0,1,2.22-3.56C170.53,251.8,171.16,251.38,171.12,251.29Z"/><path class="cls-19" d="M210.37,237.32a6,6,0,0,0,.16-3.08,5.56,5.56,0,0,0-1-2.83,24.69,24.69,0,0,0,.61,2.93A25.66,25.66,0,0,0,210.37,237.32Z"/><path class="cls-1" d="M179.5,286.11c1.68-3.18-2-7.46-2.73-10.11-11.39,9.67-19.71,4-19.71,4,4.28,14.91,10.88,34.06,10.88,34.06S174.71,295,179.5,286.11Z"/><path class="cls-9" d="M267.5,309.89c1.9-.8,2.93.32,3.7,2.58s.54,4.57,1.1,6.89c1.17,4.75,5.13,7.95,7.77,12a23.07,23.07,0,0,1,3.15,17.72c-1.25,5.34-5.56,10.2-10.67,9.2a9.66,9.66,0,0,0,4.53,4.77c-1.43,2-4.28,2.24-6.65,1.44s-12.62,5.17-14.9,5.83c-15.68,4.32-31.83.08-43.44-16.66-3.9-5.7-6.6-11.13-10.51-16.82a141.14,141.14,0,0,1-10-18.21c-.91-2-1.79-4.57-.4-6s4.06.06,5.18,2,1.5,4.41,2.79,6.14c2.69,3.82,8.05,3.37,11.82,1.28S218,317.9,222,316.61c8.69-2.91,14.87-2.1,24.78-3.5,3.44-.5,7.21-3,10-4.9s8.91-1.66,10.67,1.68"/><path class="cls-19" d="M265.9,308.92a3.5,3.5,0,0,1,3.39.88,5.83,5.83,0,0,1,2.11,3.36c.63,2.55.33,5.37,1.51,7.88a30,30,0,0,0,4.38,6.56,30.56,30.56,0,0,1,4.48,6.52,22.6,22.6,0,0,1,1.41,15.62,15.06,15.06,0,0,1-3.81,6.57,7.85,7.85,0,0,1-6.75,2.22l.14-.29a9.77,9.77,0,0,0,4.39,4.68l.24.06-.17.17a4.61,4.61,0,0,1-2.63,1.76,6.75,6.75,0,0,1-3.13,0,8.09,8.09,0,0,0-1.55-.29,6.32,6.32,0,0,0-1.48.31,24,24,0,0,0-2.82,1.07c-1.9.8-3.77,1.72-5.63,2.63l-2.76,1.3a6.11,6.11,0,0,1-1.42.54l-1.44.42c-8,1.95-16.76,1.78-24.63-1.77S215.1,359,210.39,351.31c-2.44-3.76-4.64-7.84-7.08-11.6-1.22-1.88-2.55-3.73-3.66-5.64s-2.27-3.94-3.42-6-2.06-4-3.11-6.06-2.17-4-2.63-6.31a4.5,4.5,0,0,1,0-1.76,3.23,3.23,0,0,1,.91-1.5,2.72,2.72,0,0,1,3.16.07,6.3,6.3,0,0,1,2.32,2.55c.54,1.09.84,2.12,1.27,3.23a7.43,7.43,0,0,0,4.09,4.78,9.09,9.09,0,0,0,6,.12c2-.46,3.66-1.69,5.49-2.72a55.13,55.13,0,0,1,5.56-2.86,47.84,47.84,0,0,1,12-3.12c4.13-.46,8.26-.54,12.39-1a21.6,21.6,0,0,0,6.06-1.14,26.34,26.34,0,0,0,5.42-2.95,23.05,23.05,0,0,1,2.66-1.65,6.9,6.9,0,0,1,3-.87,6.14,6.14,0,0,1,3.05.48,5.5,5.5,0,0,1,2.43,2.15,4.51,4.51,0,0,0-2.43-2.15,6.69,6.69,0,0,0-3.05-.48,8.64,8.64,0,0,0-2.9.84c-.86.5-1.69,1.12-2.62,1.76a33.87,33.87,0,0,1-5.43,3,21.12,21.12,0,0,1-6.06,1.14c-4.12.46-8.22.66-12.35,1.12a42.56,42.56,0,0,0-11.88,3.09,49.33,49.33,0,0,0-5.46,2.83,26.4,26.4,0,0,1-5.59,2.75,9.07,9.07,0,0,1-6.22-.18,6.65,6.65,0,0,1-2.7-1.94,9.47,9.47,0,0,1-1.66-3,29.82,29.82,0,0,0-1.24-3.12,6.93,6.93,0,0,0-2.15-2.35,2.5,2.5,0,0,0-2.71-.08,3,3,0,0,0-.75,2.83c.43,2.23,1.65,4.11,2.6,6.2s2.06,4,3.1,6.05a64.25,64.25,0,0,0,3.39,5.85c1.12,1.91,2.55,3.73,3.66,5.64,2.45,3.76,4.64,7.84,7.09,11.6a55,55,0,0,0,8.4,10.35,36.75,36.75,0,0,0,10.73,7.19,38.2,38.2,0,0,0,24.42,1.83c.52-.15,1.07-.19,1.48-.31s.9-.38,1.42-.53l2.76-1.31c1.86-.91,3.73-1.83,5.62-2.63a26.59,26.59,0,0,1,2.93-1.1,7.27,7.27,0,0,1,1.62-.22,13.37,13.37,0,0,1,1.58.41,6.42,6.42,0,0,0,3,0,4.65,4.65,0,0,0,2.46-1.58l.1.34a10.82,10.82,0,0,1-4.67-4.85l-.1-.34.35,0a7.1,7.1,0,0,0,6.55-2.16,13.42,13.42,0,0,0,3.76-6.31A23.25,23.25,0,0,0,282,334.29a26.06,26.06,0,0,0-4.38-6.55,29.71,29.71,0,0,1-4.41-6.67c-1.08-2.55-.74-5.25-1.41-7.92a5.69,5.69,0,0,0-2.06-3.25C268.37,309,267.11,308.45,265.9,308.92Z"/><path class="cls-2" d="M247.38,321.26c.08.09-.27,1-1.41,2a9,9,0,0,1-5.66,2,10.08,10.08,0,0,1-6-2.07c-1.41-1-1.94-1.95-1.86-2a23.51,23.51,0,0,1,2.2,1.25,10.18,10.18,0,0,0,5.56,1.53,9.62,9.62,0,0,0,5.24-1.5C246.56,321.8,247.22,321.08,247.38,321.26Z"/><path class="cls-19" d="M218.35,341.29a41.07,41.07,0,0,1-4.44-6.41c-2-3.88-2.72-7.41-2.93-7.35a7.46,7.46,0,0,0,.36,2.39,21.24,21.24,0,0,0,2,5.26,22.31,22.31,0,0,0,3.26,4.64A13,13,0,0,0,218.35,341.29Z"/><path class="cls-19" d="M241.13,362.86c.07-.14-2.09-1.38-5.06-3.87a50.71,50.71,0,0,1-5.11-4.85,47.28,47.28,0,0,1-5.24-6.8,74.45,74.45,0,0,1-4.16-7.73,63.3,63.3,0,0,1-2.41-6.75c-1.14-3.9-1.42-6.42-1.53-6.39s.07.6.19,1.81c.07.6.27,1.29.4,2.12a21.47,21.47,0,0,0,.66,2.66,43.76,43.76,0,0,0,2.35,6.9,56.26,56.26,0,0,0,4.09,7.88,48.46,48.46,0,0,0,5.37,6.88,49.66,49.66,0,0,0,5.11,4.85c.75.65,1.57,1.16,2.15,1.61a16.33,16.33,0,0,0,1.68,1.12C240.61,362.64,241.13,362.86,241.13,362.86Z"/><path class="cls-19" d="M237.57,356.44a132,132,0,0,0-5.09-7.09,11.57,11.57,0,0,0,2.13,3.85C236,355.28,237.4,356.61,237.57,356.44Z"/><path class="cls-19" d="M244.88,358c.07-.15-2.21-2.59-4.55-6s-3.93-6.55-4.14-6.49a26.86,26.86,0,0,0,3.69,6.87C242.22,355.83,244.71,358.21,244.88,358Z"/><path class="cls-19" d="M255,341.29c.07-.15-1.2-1-2.49-2.38s-2.38-2.41-2.49-2.38a6.84,6.84,0,0,0,2.18,2.84A6,6,0,0,0,255,341.29Z"/><path class="cls-19" d="M277.38,344.84c.1,0-.17-.94-1-2.31a15.38,15.38,0,0,0-3.91-4.2,13.32,13.32,0,0,0-5-2.27c-1.31-.24-2.2-.23-2.27-.08a12.14,12.14,0,0,0,2.19.6,15.09,15.09,0,0,1,4.83,2.32,17.21,17.21,0,0,1,3.85,4C276.94,344.1,277.27,344.87,277.38,344.84Z"/><path class="cls-19" d="M279.89,336.16a8.51,8.51,0,0,0-3.52-2.46,7.94,7.94,0,0,0-4-.95,31.09,31.09,0,0,0,3.81,1.5C278.21,335.4,279.86,336.42,279.89,336.16Z"/><path class="cls-19" d="M271.47,347.68a8.31,8.31,0,0,0-1.25-2.74,19.15,19.15,0,0,0-4.83-5.43,18,18,0,0,0-6.19-3.16c-1.72-.5-2.75-.57-2.82-.43s1,.34,2.71.83a21.83,21.83,0,0,1,6,3.23,21.12,21.12,0,0,1,4.87,5.16C271,346.71,271.47,347.68,271.47,347.68Z"/><path class="cls-19" d="M262.1,323.2c0,.12.65-.07,1.51-.57a6.41,6.41,0,0,0,2.13-3.47,6.76,6.76,0,0,0-.65-4.16,3.52,3.52,0,0,0-1-1.31c-.07.14.3.66.77,1.51a6.88,6.88,0,0,1,.48,4,7.36,7.36,0,0,1-1.71,3.36C262.65,322.79,262.06,323.09,262.1,323.2Z"/><path class="cls-19" d="M259,323.1c0,.11.48.11,1.38-.28a5.28,5.28,0,0,0,2.35-2.3A5.81,5.81,0,0,0,263,317c-.27-.92-.54-1.46-.61-1.31s.17.57.3,1.4a5.57,5.57,0,0,1-.41,3.23,4.51,4.51,0,0,1-1.94,2.18C259.52,322.83,259,323,259,323.1Z"/><path class="cls-19" d="M253.07,321.86c0,.11.51.22,1.3.24a4.31,4.31,0,0,0,2.9-.85,4,4,0,0,0,1.57-2.69,1.83,1.83,0,0,0-.27-1.29c-.1,0,0,.49-.08,1.26a4.07,4.07,0,0,1-1.46,2.3,5.25,5.25,0,0,1-2.55.86C253.62,321.82,253.17,321.83,253.07,321.86Z"/><path class="cls-1" d="M109.79,486.61S98.6,527.14,96.12,537s-2.44,32.89,3.12,39.69,24.13,11.14,24.13,11.14,36.34-17.75,48.71-39.4,46.21-80.54,46.21-80.54l-10.72-29.41-56.33,53.79.58-7Z"/><path class="cls-4" d="M227.47,345.78h0a3.94,3.94,0,0,1,5.32,1.75l32.43,64.57-8.33,3.7L225.69,351A4,4,0,0,1,227.47,345.78Z"/><path class="cls-1" d="M205.77,440.37l30.32-31.26h29l18.61,24.56s-8.82,1.65-12-3.09l-4.11-5.84s4.11,9,1.9,13.42c0,0-4.36,10.27-5.05,11.37-1.32,2.07-2.33,3.39-6.12,2.76s-9.67-3.71-9-5.92a3.63,3.63,0,0,1,2.84-2.52l-8.84-1.27s-8.91,16.13-14.27,19.92a42.16,42.16,0,0,1-10.79,5.43Z"/><path class="cls-16" d="M152.37,491.37c.07.15-2.45,1.32-6.31,3.57a87,87,0,0,0-25.83,23c-2.67,3.57-4.12,5.94-4.26,5.86a7.27,7.27,0,0,1,.86-1.76c.61-1.1,1.57-2.65,2.85-4.5a75.67,75.67,0,0,1,26-23.23,53.3,53.3,0,0,1,4.8-2.32A7.79,7.79,0,0,1,152.37,491.37Z"/><path class="cls-16" d="M242.75,418.19a20,20,0,0,1,4.25-.72c2.65-.32,6.3-.7,10.34-1.06a12.61,12.61,0,0,1,3.07,0,6.45,6.45,0,0,1,2.72,1.09,9.71,9.71,0,0,1,3.08,3.71,12.29,12.29,0,0,1,1.36,4.13c-.16.07-.7-1.52-2-3.81a9.49,9.49,0,0,0-3-3.29,5.63,5.63,0,0,0-2.37-.9,12.32,12.32,0,0,0-2.84,0c-4,.36-7.71.63-10.37.78A19.19,19.19,0,0,1,242.75,418.19Z"/><path class="cls-16" d="M265.89,448c-.16,0,.12-2.2-.07-5.72a38.57,38.57,0,0,0-.84-6.1c-.5-2.21-1.2-4.86-3.42-6.14a12.78,12.78,0,0,0-3.57-1.27l-3.58-.81a44.39,44.39,0,0,0-6.1-.94,51.58,51.58,0,0,0-5.69.14,4,4,0,0,1,1.49-.47,19.24,19.24,0,0,1,4.23-.35,38.16,38.16,0,0,1,6.25.75c1.15.23,2.36.49,3.61.77a12.88,12.88,0,0,1,3.85,1.36,6.69,6.69,0,0,1,2.72,3.16,16.43,16.43,0,0,1,1.07,3.62,33.7,33.7,0,0,1,.66,6.26,29.57,29.57,0,0,1-.26,4.23A4.5,4.5,0,0,1,265.89,448Z"/><path class="cls-16" d="M255.37,437.46c.24,0,.43,2.52.46,5.82v.57l-.58-.11a6.14,6.14,0,0,0-1-.09,5.82,5.82,0,0,0-4,1.77c-.81.85-1.08,1.59-1.23,1.54s-.07-.88.71-2a5.78,5.78,0,0,1,4.53-2.3,5.61,5.61,0,0,1,1.18.13l-.57.46C254.93,440,255.13,437.46,255.37,437.46Z"/><path class="cls-16" d="M255.4,438.43c-.06.27-2.67-.12-5.89-.28s-5.85-.07-5.88-.35,2.62-.79,5.93-.61S255.46,438.18,255.4,438.43Z"/><path class="cls-16" d="M244.1,436.91c.25,0,0,2.88-1.31,6.08s-3.23,5.36-3.42,5.21,1.25-2.48,2.53-5.58S243.82,436.86,244.1,436.91Z"/><rect class="cls-5" x="867.74" y="456.77" width="61.43" height="59.43"/><g class="cls-6"><polygon points="872.51 511.11 889.5 480.53 903.4 500.07 911.84 489.69 924.41 511.11 872.51 511.11"/></g><g class="cls-6"><path d="M909.32,474.58a4.42,4.42,0,1,1-4.42-4.42A4.42,4.42,0,0,1,909.32,474.58Z"/></g><path class="cls-14" d="M924.41,461.44l-51.9,0c.06-.07-.56.55-.3.3h0v26.13c0,8.33,0,16.2,0,23.44v.25h.26l37.69-.13,10.52-.07,2.76,0h.93l-.26,0h-.72l-2.81,0L910,511.15,872.76,511c0-7.17,0-14.95,0-23.18q0-6.24,0-12.8V462l51.36,0c.05,14.73.1,27,.13,35.63,0,4.33.05,7.74.06,10.09,0,1.15,0,2,0,2.68,0,.29,0,.51,0,.69a1.41,1.41,0,0,0,0,.25,1.76,1.76,0,0,0,0-.22c0-.17,0-.39,0-.67,0-.62,0-1.49,0-2.62,0-2.35,0-5.73.06-10,0-8.72.08-21.13.13-36v-.25Z"/><path class="cls-11" d="M921.47,525.32c0,.12-10.33.21-23.06.21s-23.07-.09-23.07-.21,10.33-.2,23.07-.2S921.47,525.21,921.47,525.32Z"/><path class="cls-11" d="M930.71,532.21c0,.11-14.09.2-31.47.2s-31.47-.09-31.47-.2,14.09-.21,31.47-.21S930.71,532.09,930.71,532.21Z"/><path class="cls-11" d="M930.71,538.87c0,.11-14.09.21-31.47.21s-31.47-.09-31.47-.21,14.09-.21,31.47-.21S930.71,538.76,930.71,538.87Z"/><path class="cls-11" d="M930.71,545.53c0,.12-14.09.21-31.47.21s-31.47-.09-31.47-.21,14.09-.2,31.47-.2S930.71,545.42,930.71,545.53Z"/><path class="cls-11" d="M893.75,552.2c0,.11-5.82.2-13,.2s-13-.09-13-.2,5.82-.21,13-.21S893.75,552.08,893.75,552.2Z"/><rect class="cls-5" x="965.45" y="456.77" width="61.43" height="59.43"/><g class="cls-6"><polygon points="970.22 511.11 987.21 480.53 1001.11 500.07 1009.55 489.69 1022.12 511.11 970.22 511.11"/></g><g class="cls-6"><path d="M1007,474.58a4.42,4.42,0,1,1-4.42-4.42A4.42,4.42,0,0,1,1007,474.58Z"/></g><path class="cls-14" d="M1022.12,461.44l-51.9,0c.06-.07-.56.55-.3.3h0v6.71c0,2.23,0,4.43,0,6.62v12.8c0,8.33,0,16.2,0,23.44v.25h.26l37.69-.13,10.52-.07,2.76,0h.93l-.26,0h-.73l-2.8,0-10.59-.07L970.47,511c0-7.17,0-14.95,0-23.18q0-6.24,0-12.8V462l51.36,0c0,14.73.09,27,.13,35.63,0,4.33,0,7.74.06,10.09,0,1.15,0,2,0,2.68,0,.29,0,.51,0,.69a1.41,1.41,0,0,0,0,.25,1.76,1.76,0,0,0,0-.22c0-.17,0-.39,0-.67,0-.62,0-1.49,0-2.62,0-2.35,0-5.73.06-10,0-8.72.08-21.13.13-36v-.25Z"/><path class="cls-11" d="M1019.18,525.32c0,.12-10.33.21-23.06.21s-23.07-.09-23.07-.21,10.32-.2,23.07-.2S1019.18,525.21,1019.18,525.32Z"/><path class="cls-11" d="M1028.42,532.21c0,.11-14.09.2-31.47.2s-31.47-.09-31.47-.2S979.57,532,997,532,1028.42,532.09,1028.42,532.21Z"/><path class="cls-11" d="M1028.42,538.87c0,.11-14.09.21-31.47.21s-31.47-.1-31.47-.21,14.09-.21,31.47-.21S1028.42,538.76,1028.42,538.87Z"/><path class="cls-11" d="M1028.42,545.53c0,.12-14.09.21-31.47.21s-31.47-.09-31.47-.21,14.09-.2,31.47-.2S1028.42,545.42,1028.42,545.53Z"/><path class="cls-11" d="M991.46,552.2c0,.11-5.82.2-13,.2s-13-.09-13-.2,5.81-.21,13-.21S991.46,552.08,991.46,552.2Z"/></svg>