<svg id="Слой_1" data-name="Слой 1" xmlns="http://www.w3.org/2000/svg" viewBox="0 0 1075 601"><defs><style>.cls-1{fill:#233554;}.cls-2,.cls-5{fill:#e1e1e1;}.cls-17,.cls-2{opacity:0.1;}.cls-3{fill:#1a2e35;}.cls-17,.cls-4{fill:#fff;}.cls-6{fill:#8892b0;}.cls-7{fill:#375a64;}.cls-8{fill:#ffc19d;}.cls-9{fill:#ff9c6a;}.cls-10{fill:#212121;}.cls-11{fill:#455a64;}.cls-12{fill:#4b98f2;}.cls-13{fill:#57627c;}.cls-14{opacity:0.3;}.cls-15{opacity:0.2;}.cls-16{fill:#fafafa;}</style></defs><path class="cls-1" d="M522.66,330.24H646.95a2.89,2.89,0,0,1,2.89,2.89v62.51a3.46,3.46,0,0,1-3.46,3.46H522.66a2.89,2.89,0,0,1-2.89-2.89V333.13a2.89,2.89,0,0,1,2.89-2.89Z"/><path class="cls-2" d="M522.94,330.24H646.67a3.17,3.17,0,0,1,3.17,3.17V345a0,0,0,0,1,0,0H519.77a0,0,0,0,1,0,0V333.41A3.17,3.17,0,0,1,522.94,330.24Z"/><path class="cls-3" d="M646.18,399.1a6.48,6.48,0,0,0,1-.17,3.66,3.66,0,0,0,2.21-1.82,4.08,4.08,0,0,0,.4-2.1c0-.81,0-1.69,0-2.64q0-2.87,0-6.59c0-9.93,0-24.28-.07-42,0-2.21,0-4.48,0-6.8v-3.52a2.77,2.77,0,0,0-1.58-2.76,3.59,3.59,0,0,0-1.71-.26H633.1l-33.3,0-76.29,0a4.74,4.74,0,0,0-1.21.08,3,3,0,0,0-1.06.48,3,3,0,0,0-1.19,1.94,8.2,8.2,0,0,0,0,1.23v13.72q0,9.88,0,19.47v18.79q0,4.6,0,9.11a3.47,3.47,0,0,0,2.15,3.32,5,5,0,0,0,2.1.26h2.21l62.31.05,42,.07,11.43.05,3,0,1,0-1,0-3,0-11.43.05-42,.07-62.31.05h-2.21A5.62,5.62,0,0,1,522,399a3.9,3.9,0,0,1-2.42-3.73q0-4.5,0-9.11V367.4q0-9.57,0-19.47V334.21a9.66,9.66,0,0,1,.05-1.3,3.49,3.49,0,0,1,1.38-2.25,3.35,3.35,0,0,1,1.23-.56,5,5,0,0,1,1.32-.1l76.29,0,33.3,0h13.27a4,4,0,0,1,1.86.29,3.16,3.16,0,0,1,1.79,3.1c0,1.18,0,2.36,0,3.52v6.8c0,17.74-.06,32.09-.08,42q0,3.72,0,6.59c0,.95,0,1.83,0,2.64a6.22,6.22,0,0,1-.08,1.16,3.73,3.73,0,0,1-2.64,2.81A3.16,3.16,0,0,1,646.18,399.1Z"/><circle class="cls-4" cx="529.45" cy="338.78" r="2.42"/><path class="cls-4" d="M539.32,338.78a2.42,2.42,0,1,1-2.42-2.42A2.42,2.42,0,0,1,539.32,338.78Z"/><circle class="cls-4" cx="544.36" cy="338.78" r="2.42"/><path class="cls-3" d="M557.25,365.86H542.13a1.63,1.63,0,0,1-1.64-1.64h0a1.64,1.64,0,0,1,1.64-1.64h15.12a1.65,1.65,0,0,1,1.64,1.64h0A1.64,1.64,0,0,1,557.25,365.86Z"/><path class="cls-5" d="M557.25,374.45H542.13a1.63,1.63,0,0,1-1.64-1.64h0a1.63,1.63,0,0,1,1.64-1.64h15.12a1.64,1.64,0,0,1,1.64,1.64h0A1.64,1.64,0,0,1,557.25,374.45Z"/><path class="cls-5" d="M637.06,365.86H593.21a1.63,1.63,0,0,1-1.64-1.64h0a1.64,1.64,0,0,1,1.64-1.64h43.85a1.64,1.64,0,0,1,1.64,1.64h0A1.63,1.63,0,0,1,637.06,365.86Z"/><path class="cls-6" d="M557.25,383.32H542.13a1.63,1.63,0,0,1-1.64-1.64h0a1.64,1.64,0,0,1,1.64-1.64h15.12a1.65,1.65,0,0,1,1.64,1.64h0A1.64,1.64,0,0,1,557.25,383.32Z"/><path class="cls-6" d="M626.6,374.45H611.48a1.64,1.64,0,0,1-1.64-1.64h0a1.64,1.64,0,0,1,1.64-1.64H626.6a1.63,1.63,0,0,1,1.64,1.64h0A1.63,1.63,0,0,1,626.6,374.45Z"/><path class="cls-7" d="M581.47,365.86H566.35a1.64,1.64,0,0,1-1.64-1.64h0a1.65,1.65,0,0,1,1.64-1.64h15.12a1.64,1.64,0,0,1,1.64,1.64h0A1.63,1.63,0,0,1,581.47,365.86Z"/><path class="cls-3" d="M601,374.45h-34.6a1.64,1.64,0,0,1-1.64-1.64h0a1.64,1.64,0,0,1,1.64-1.64H601a1.63,1.63,0,0,1,1.64,1.64h0A1.63,1.63,0,0,1,601,374.45Z"/><path class="cls-5" d="M634.89,383.32H566.28a1.6,1.6,0,0,1-1.57-1.64h0a1.61,1.61,0,0,1,1.57-1.64h68.61a1.61,1.61,0,0,1,1.57,1.64h0A1.6,1.6,0,0,1,634.89,383.32Z"/><path class="cls-5" d="M600.23,389.57H566.35a1.64,1.64,0,0,1-1.64-1.64h0a1.65,1.65,0,0,1,1.64-1.64h33.88a1.64,1.64,0,0,1,1.64,1.64h0A1.63,1.63,0,0,1,600.23,389.57Z"/><path class="cls-7" d="M534.72,364.22a1.67,1.67,0,1,1-1.67-1.66A1.67,1.67,0,0,1,534.72,364.22Z"/><path class="cls-7" d="M534.72,356a1.67,1.67,0,1,1-1.67-1.66A1.67,1.67,0,0,1,534.72,356Z"/><circle class="cls-7" cx="533.05" cy="372.78" r="1.67"/><circle class="cls-7" cx="533.05" cy="381.68" r="1.67"/><rect class="cls-7" x="540.83" y="354.03" width="11.06" height="3.16" rx="0.87"/><path class="cls-8" d="M810.82,276.86c-.07-12.82-.16-23.52-.25-24.83,0,0-35.35-4.11-38.77-47-1.65-20.73-9.67-37.71-9.08-102.29.37-41.76,33.15-76.07,74.82-78.86l4.14-.28c44.86-.39,70.24,37.49,69.39,82.33l-1.54,138.84-71,88.24-5.26-.43Z"/><path class="cls-9" d="M810.57,252s27.17-.23,54.8-20.28c0,0-11.54,32.28-54.64,31.28Z"/><path class="cls-3" d="M835.93,120.73c.85.87,5.82-3.09,13-3.24s12.53,3.41,13.29,2.49c.37-.41-.5-2-2.84-3.66a17.94,17.94,0,0,0-10.66-3.09,17.34,17.34,0,0,0-10.33,3.69C836.23,118.71,835.51,120.34,835.93,120.73Z"/><path class="cls-3" d="M839.4,139.73a5.82,5.82,0,0,0,6,5.48,5.57,5.57,0,0,0,5.63-5.63,5.82,5.82,0,0,0-6-5.48A5.57,5.57,0,0,0,839.4,139.73Z"/><path class="cls-3" d="M817.64,170.6c0-.38-4.15-.81-10.85-1.21-1.7-.06-3.31-.29-3.68-1.42s.11-3.06.79-5.07c1.32-4.19,2.69-8.57,4.13-13.17,5.69-18.73,9.69-34.09,8.94-34.31s-6,14.78-11.68,33.51c-1.37,4.62-2.67,9-3.91,13.23-.51,2-1.46,4.2-.43,6.67a4.24,4.24,0,0,0,2.93,2.28,11.68,11.68,0,0,0,2.89.21C813.49,171.23,817.64,171,817.64,170.6Z"/><path class="cls-3" d="M839.35,97.65c.68,1.6,6.44.43,13.33.83,6.89.25,12.54,1.94,13.34.42.36-.73-.7-2.21-3-3.64a22.53,22.53,0,0,0-20.32-1C840.22,95.52,839.05,96.89,839.35,97.65Z"/><path class="cls-3" d="M772,102.21c.74,1.3,6.36-.11,13.16-.28s12.43.73,13.15-.62c.32-.64-.79-1.82-3.16-2.86a23.57,23.57,0,0,0-10-1.72,24.5,24.5,0,0,0-10,2.4C772.74,100.34,771.65,101.58,772,102.21Z"/><path class="cls-8" d="M902.56,129.72c.71-.36,28.92-10.7,30,18.72s-28.72,24.39-28.8,23.55S902.56,129.72,902.56,129.72Z"/><path class="cls-9" d="M912.31,160.52c.13-.09.53.35,1.41.71a5.14,5.14,0,0,0,3.83,0c3.07-1.25,5.51-6.28,5.47-11.59a17,17,0,0,0-1.69-7.29c-1-2.12-2.42-3.57-4-3.79a2.6,2.6,0,0,0-3,1.51c-.37.83-.16,1.41-.31,1.47s-.65-.47-.46-1.69a3.28,3.28,0,0,1,1.09-1.89,3.88,3.88,0,0,1,2.81-.85c2.28.08,4.39,2.1,5.52,4.38a17.37,17.37,0,0,1,2.06,8.14c0,5.93-2.82,11.58-7,13a5.46,5.46,0,0,1-4.71-.61C912.39,161.23,912.21,160.58,912.31,160.52Z"/><path class="cls-3" d="M770.41,123.05c.85.87,5.82-3.09,13-3.24s12.53,3.41,13.29,2.49c.38-.41-.5-2-2.83-3.66a18,18,0,0,0-10.67-3.09,17.37,17.37,0,0,0-10.33,3.69C770.71,121,770,122.66,770.41,123.05Z"/><path class="cls-3" d="M779.72,141.63a5.81,5.81,0,0,0,6,5.47,5.57,5.57,0,0,0,5.63-5.63,5.82,5.82,0,0,0-6-5.48A5.57,5.57,0,0,0,779.72,141.63Z"/><path class="cls-10" d="M905.08,150Z"/><path class="cls-10" d="M905.12,149.45l0,.37Z"/><path class="cls-10" d="M905.45,150l-.11,1.67Z"/><path class="cls-10" d="M905.34,151.7Z"/><path class="cls-10" d="M766.19,77.34c3.08-11.89,29.06-33.47,50.94-13.66,22.24-8.86,38.65-9.19,55.92,2.1,14.77,9.8,10.18,24.56,23.16,35.91,13.33,11.75,4.77,30,4.77,30s29.39-70.38-6.86-95.11c-9.74-7-19.85-14.26-33.79-17.3-18.35-3.91-33.27-1-48.3,3.47C796.21,27.74,772.84,36.08,766.19,77.34Z"/><path class="cls-10" d="M905.11,149.63Z"/><path class="cls-10" d="M904.21,45.46c2.86,3.29,10.12.33,12.13-4.37,2.7-6.51,2.89-14.51-1.92-20.25s-13.15-8.94-20.22-6.46c-7.25,2.46-11.49,8-10.39,14.21"/><path class="cls-11" d="M904.21,45.46a4.79,4.79,0,0,0,4.47,1.23,10.73,10.73,0,0,0,4.38-1.9,9.31,9.31,0,0,0,3.06-3.62,24.59,24.59,0,0,0,1.42-4.61,20.29,20.29,0,0,0-.17-9.55,16.71,16.71,0,0,0-5.06-8A20.85,20.85,0,0,0,904,14.37a16.32,16.32,0,0,0-9.49.1,17.41,17.41,0,0,0-8.05,5.11,10.9,10.9,0,0,0-2.61,9,11.08,11.08,0,0,1,2.41-9.17,17.83,17.83,0,0,1,8.14-5.27,16.65,16.65,0,0,1,9.71-.17,21.26,21.26,0,0,1,8.57,4.66,16.78,16.78,0,0,1,5.16,8.25,20.87,20.87,0,0,1,.1,9.75,24.85,24.85,0,0,1-1.48,4.67,9.62,9.62,0,0,1-3.2,3.7,10.25,10.25,0,0,1-4.52,1.84A4.89,4.89,0,0,1,904.21,45.46Z"/><path class="cls-11" d="M916,32.68A16.76,16.76,0,0,1,908.06,37a24.91,24.91,0,0,1-5,.21,13.79,13.79,0,0,1-4-.85c-2-.7-3.43-1.55-3.44-1.36a5.22,5.22,0,0,0,.7.61,15.74,15.74,0,0,0,6.54,2.32,12.51,12.51,0,0,0,5.23-.18c3.43-1.07,6.34-2.72,8-4.66a7.18,7.18,0,0,0,1.29-2.51,1.28,1.28,0,0,0,.07-.93A6.3,6.3,0,0,1,916,32.68Z"/><path class="cls-11" d="M912,24a19.32,19.32,0,0,1-6.56,5.86,17.57,17.57,0,0,1-8.55,2.38c-2.25.21-3.71-.26-3.72-.08a4.92,4.92,0,0,1,.91.25,11.78,11.78,0,0,0,2.77.38,17.71,17.71,0,0,0,8.91-2.16,16.27,16.27,0,0,0,6.77-6.22,14.19,14.19,0,0,0,1.3-2.52A3.41,3.41,0,0,0,914,21,10.43,10.43,0,0,1,912,24Z"/><path class="cls-12" d="M903.74,45.41a39.84,39.84,0,0,0-6.88-8.12,35.44,35.44,0,0,0-8.68-6.21A27.43,27.43,0,0,0,884,29.3c0,.19,1.42,1,3.93,2.33A97.81,97.81,0,0,1,896.44,38a41.56,41.56,0,0,1,7.09,7.77,19.4,19.4,0,0,0,2.34,3.71A17.19,17.19,0,0,0,903.74,45.41Z"/><path class="cls-11" d="M827.26,36.45a68.31,68.31,0,0,1,15.22-9.72,44.29,44.29,0,0,1,17.6-4,38.24,38.24,0,0,1,17.44,3.66A34.44,34.44,0,0,0,868.94,24a35.92,35.92,0,0,0-8.9-.63,48.58,48.58,0,0,0-17.25,4.18,65.7,65.7,0,0,0-15,9.36c-2.17,1.71-4.37,3.79-6.56,5.87a66.28,66.28,0,0,0-6.06,6.65A72.31,72.31,0,0,1,827.26,36.45Z"/><path class="cls-11" d="M853.55,33.47a48.39,48.39,0,0,1,14-2.73,37.14,37.14,0,0,1,14.17,2.31A22.69,22.69,0,0,1,888,36.47a25.87,25.87,0,0,1,5.25,4.84,32.09,32.09,0,0,0-11.75-7.72A41.66,41.66,0,0,0,874.7,32a44.94,44.94,0,0,0-7.06-.31A49.8,49.8,0,0,0,853.69,34,41.88,41.88,0,0,0,847,36.36a41.41,41.41,0,0,0-6.54,2.89A55.35,55.35,0,0,1,853.55,33.47Z"/><path class="cls-11" d="M811,40.52a17.79,17.79,0,0,1,3.17-8,31.17,31.17,0,0,1,6.2-5.89A37.18,37.18,0,0,1,824,24.49a24.22,24.22,0,0,1,3.85-1.78,39.62,39.62,0,0,1-3.69,2.16c-1.18.85-2.34,1.51-3.52,2.36a29.43,29.43,0,0,0-5.82,5.92,21.43,21.43,0,0,0-3.37,16A16.3,16.3,0,0,1,811,40.52Z"/><path class="cls-11" d="M830.22,47.28a19.13,19.13,0,0,1,10.72-1.47,18.4,18.4,0,0,1,9.72,4.78c2.81,2.44,4.83,5.37,7.06,8.14,4.64,5.54,10.25,10.41,17,12.38a22.67,22.67,0,0,0,10.58.56,58.24,58.24,0,0,0,10.28-3.18,46.08,46.08,0,0,1-10.12,3.57,23.63,23.63,0,0,1-10.78-.39A24,24,0,0,1,865,66.88a42.57,42.57,0,0,1-7.85-7.45c-2.41-2.78-4.44-5.71-7.07-8a19.73,19.73,0,0,0-9.17-4.75,17.72,17.72,0,0,0-10.32,1.13,28.38,28.38,0,0,0-9,5.7A41.39,41.39,0,0,1,830.22,47.28Z"/><path class="cls-11" d="M876.83,44.06a20.54,20.54,0,0,1,5.82,4.52,21.23,21.23,0,0,1,3.85,6.23c.62,1.72.91,2.86,1.1,2.87.19-.17.09-1.3-.52-3.2a17.28,17.28,0,0,0-3.82-6.61,18.43,18.43,0,0,0-6.2-4.53,9.27,9.27,0,0,0-3.09-1C874,42.56,875.24,42.83,876.83,44.06Z"/><path class="cls-11" d="M801,41.3c-.53-3-.73-5.45-.91-5.46s-.56,2.56.16,5.59,2,5.36,2.24,5.19S801.75,44.15,801,41.3Z"/><path class="cls-8" d="M900.61,134.23s14.48-30.83,11.67-59.53c0,0-7,22.6-31.36,14.17.57,5.07-2.56,15.1,2.16,19.34A61.91,61.91,0,0,1,900.61,134.23Z"/><polygon class="cls-7" points="22.17 568.54 139.65 489.21 708.85 486.49 734.91 569.73 22.17 568.54"/><polygon class="cls-7" points="733.42 601.04 21 600.52 21 566.99 733.74 569.22 733.42 601.04"/><path d="M716,569c0,.32-153.84.51-343.57.42S28.79,569,28.79,568.7s153.8-.51,343.59-.42S716,568.7,716,569Z"/><path class="cls-6" d="M186.1,554.19c-18.56,8.08-36.45,8.82-53.45,0l-12.41-104h77.13Z"/><path class="cls-5" d="M192.26,444.14l-2.32-7.43-58.1-7.09a3.39,3.39,0,0,0-3.6,2.25L124,444.14h-7.43V457.6c29.18,5.15,57.11,5.45,83.56,0V444.14Z"/><path class="cls-3" d="M192.26,444.14a3.8,3.8,0,0,1,.54-.05l1.53,0,5.82-.12h.22v.22c0,3.47.08,8,.13,13.46v.29l-.28.06a195.33,195.33,0,0,1-35.86,4.1,246.57,246.57,0,0,1-47.55-3.82l-.32-.05-.48-.08v-.5c0-4.57,0-9.07,0-13.46v-.57h8l-.54.39,4.16-12a4,4,0,0,1,2.26-2.56,3.92,3.92,0,0,1,1.72-.31c.58.05,1,.12,1.54.18L139,430l21.34,2.69L190,436.5l.14,0,0,.13,1.6,5.51c.16.59.29,1.07.4,1.46a3.38,3.38,0,0,1,.11.52,1.83,1.83,0,0,1-.19-.43l-.48-1.39-1.86-5.54.18.15-29.65-3.39L138.9,431,133,430.3a4.91,4.91,0,0,0-2.71.06,2.86,2.86,0,0,0-1.64,1.93q-2,5.86-4.12,12l-.13.38h-7.84l.58-.58V457.6l-.48-.57.32.06A252.23,252.23,0,0,0,164.34,461a202.92,202.92,0,0,0,35.74-3.75l-.28.34c.06-5.44.1-10,.13-13.46l.22.22-5.92-.12-1.49-.05A1.61,1.61,0,0,1,192.26,444.14Z"/><path class="cls-13" d="M191.54,519.71c-20.15,3.25-42.4,2.78-65.94,0l-3.21-31.53a327.28,327.28,0,0,0,73,0Z"/><path class="cls-6" d="M154.45,498.3a7,7,0,0,0-2.72,8.94l2.09,4.51a7,7,0,0,0,8.59,3.69Z"/><path class="cls-6" d="M155.85,497.65l8,17.14a7,7,0,0,0,2.72-8.94l-2.09-4.51A7,7,0,0,0,155.85,497.65Z"/><path class="cls-3" d="M192.92,444.34a12,12,0,0,1-2.63.79c-1.71.45-4.2,1-7.31,1.54a142.54,142.54,0,0,1-24.56,2.1,141,141,0,0,1-24.55-2.21c-3.11-.56-5.6-1.11-7.31-1.56a12.54,12.54,0,0,1-2.62-.81,12.77,12.77,0,0,1,2.72.36c1.73.32,4.24.74,7.34,1.21a166.62,166.62,0,0,0,48.85.1c3.11-.45,5.62-.86,7.35-1.17A12.25,12.25,0,0,1,192.92,444.34Z"/><path class="cls-5" d="M232.55,289.67s-12.7,2.74-14.91,11.76,17.7,224.78,18.5,230c1.25,8.25,8.22,18.74,23.9,18.18,13.67-.49,200-.06,246.9.05,6.23,0,10-5.3,10.8-11.61h0L287.06,524.47Z"/><path class="cls-5" d="M226.77,296.87l20,232.68a7.53,7.53,0,0,0,7.37,6.78l263.62,1.18L467.1,487.26l-171.26-1.21L277.53,303.76a5.73,5.73,0,0,0-4.39-5l-38.36-8.94A6.55,6.55,0,0,0,226.77,296.87Z"/><path class="cls-3" d="M226.77,296.87a4.79,4.79,0,0,1,0-1.12,6.29,6.29,0,0,1,1-3.15,6.64,6.64,0,0,1,4.49-3,7.85,7.85,0,0,1,3.5.28l3.9.89L260,295.5l12.91,3a6,6,0,0,1,4.87,5.19c.26,2.49.52,5.06.79,7.69C282.87,353.52,289,413.72,296.34,486l-.49-.45,171.25,1.14h.23l.17.16,50.65,50.25,1,1h-1.42L506.06,538l-193.25-.91-43.4-.22-10.47-.06c-1.74,0-3.44,0-5.2-.05a8,8,0,0,1-7.42-6.82c-.2-1.73-.3-3.38-.46-5.06q-.42-5-.84-10c-2.24-26.31-4.32-50.82-6.22-73.2-3.76-44.74-6.81-80.95-8.92-106-1-12.5-1.82-22.21-2.36-28.82-.26-3.28-.46-5.79-.59-7.5s-.16-2.56-.16-2.56.11.86.28,2.55.39,4.21.7,7.49c.59,6.6,1.46,16.31,2.58,28.8,2.2,25.05,5.37,61.24,9.29,106,1.94,22.38,4.07,46.89,6.35,73.2q.43,4.92.87,10c.15,1.66.27,3.37.45,5a7,7,0,0,0,2.18,4.12,7,7,0,0,0,4.33,1.85c1.67,0,3.43,0,5.15,0l10.47,0,43.4.17,193.24.82,11.68,0-.41,1-50.64-50.26.4.17-171.25-1.28h-.45l0-.45c-7.18-72.29-13.16-132.51-17.34-174.69-.26-2.63-.52-5.2-.76-7.69A5.51,5.51,0,0,0,272.8,299l-12.89-3-20.33-4.81-3.9-.93a7.84,7.84,0,0,0-3.41-.32,6.52,6.52,0,0,0-5.47,5.88C226.75,296.49,226.8,296.87,226.77,296.87Z"/><polygon class="cls-3" points="419.73 531.47 444.23 531.47 413.25 491.28 398.71 491.28 419.73 531.47"/><path class="cls-10" d="M235.83,307.39l18.71,202.17,34.87-27.73-15-170.34a3,3,0,0,0-2.53-2.66l-32.68-4.67A3,3,0,0,0,235.83,307.39Z"/><polygon class="cls-3" points="273.27 531.47 298.56 531.47 324.26 491.28 309.72 491.28 273.27 531.47"/><polygon class="cls-3" points="304.31 531.47 328.82 531.47 342.25 491.28 327.7 491.28 304.31 531.47"/><polygon class="cls-3" points="334.31 531.47 358.81 531.47 360.13 491.28 345.59 491.28 334.31 531.47"/><polygon class="cls-3" points="362.12 531.47 386.62 531.47 377.57 491.28 363.03 491.28 362.12 531.47"/><polygon class="cls-3" points="391.11 531.47 415.61 531.47 395.65 491.28 381.1 491.28 391.11 531.47"/><path class="cls-5" d="M443,523.63c0,.2-37.37.35-83.45.35s-83.46-.15-83.46-.35,37.36-.34,83.46-.34S443,523.44,443,523.63Z"/><path class="cls-5" d="M438.56,516.27c0,.19-35.49.34-79.25.34s-79.26-.15-79.26-.34,35.48-.35,79.26-.35S438.56,516.07,438.56,516.27Z"/><path class="cls-5" d="M438.56,509.58c0,.38-33.39.7-74.57.7s-74.58-.32-74.58-.7,33.38-.7,74.58-.7S438.56,509.2,438.56,509.58Z"/><path class="cls-5" d="M439.58,503.48c0,.38-32.67.69-73,.69s-73-.31-73-.69,32.67-.7,73-.7S439.58,503.09,439.58,503.48Z"/><path class="cls-5" d="M443,499c0,.39-32.89.7-73.44.7s-73.45-.31-73.45-.7,32.87-.69,73.45-.69S443,498.64,443,499Z"/><path class="cls-5" d="M446.62,494.37c0,.38-33.51.69-74.82.69s-74.83-.31-74.83-.69,33.49-.7,74.83-.7S446.62,494,446.62,494.37Z"/><path class="cls-5" d="M250.44,529.55l45.67-42.73"/><path class="cls-3" d="M296.11,486.82c.21.24-9.83,10-22.44,21.79s-23,21.18-23.23,20.94,9.82-10,22.44-21.79S295.89,486.59,296.11,486.82Z"/><path class="cls-7" d="M1051.83,327.67s-2.24-23.62-61.11-38.74c-28.43-7.3-96.28-10.8-104,33.3C886.5,323.66,853,601,853,601H978.43Z"/><path class="cls-7" d="M1032,601H974.09l19.32-271.76c1.42-13.23,15.11-22.76,30.57-21.3l5.19.49c15.46,1.47,25.26,16.37,24.82,33.34Z"/><path d="M978.43,591.26c-.32,0,3.77-53.56,9.13-119.55s10-119.5,10.28-119.48-3.77,53.55-9.13,119.57S978.75,591.29,978.43,591.26Z"/><path d="M1040.72,314.84c-.08.22-3-1.27-8.13-1.92a30.46,30.46,0,0,0-32.29,18.53c-2,4.75-2.23,8-2.46,8a7.49,7.49,0,0,1,.11-2.28,27.2,27.2,0,0,1,1.59-6,30.06,30.06,0,0,1,33.16-19,27.45,27.45,0,0,1,6,1.67A7.43,7.43,0,0,1,1040.72,314.84Z"/><path class="cls-8" d="M556.65,449.45s-59-1.77-62.58-2.87-12.16-1.33-16.36,0-21,7.3-21,7.3L421,463.38s-35.84,23.45-35.09,28.14,4.64,7.91,11.05,5.48,38.78-19.24,38.78-19.24L471.29,474s48.58,17.45,58.38,16.58,34.94-5.11,34.94-5.11,3.54-25.18,1.77-29.16S556.65,449.45,556.65,449.45Z"/><path class="cls-8" d="M388.5,512.37s29.92-32.08,38.21-36.41,54.44-11.89,54.44-11.89,14.78-6.13,20.19-4,62.72,10.82,65.24,11.18-12.25,50.47-12.25,50.47a116.88,116.88,0,0,1-42.9-1.81c-23.07-5.4-31-12.61-31-12.61l-23-6.05-14.1,5.37s-2.53,20.86-12.62,19.78L426,523.19l3.61-23.07-14.78,6.13s-11.54,17.3-20.19,14.78S388.5,512.37,388.5,512.37Z"/><path class="cls-9" d="M388.5,512.37a7.34,7.34,0,0,0-.23,2.51,5.62,5.62,0,0,0,1.12,2.81,8.19,8.19,0,0,0,3.39,2.47,8.55,8.55,0,0,0,5.19.75,15.92,15.92,0,0,0,5.72-2.91,51.89,51.89,0,0,0,10.87-11.93l.05-.08.09,0,14.76-6.17.6-.26-.1.65c-1.07,6.95-2.26,14.74-3.54,23.08l-.18-.41,4.69,3.23-.2-.08a6.77,6.77,0,0,0,5.2-1.9,15.52,15.52,0,0,0,3.44-5,45.6,45.6,0,0,0,3.45-12.48l0-.3.27-.1,14.08-5.4.16-.06.16.05,23,6,.11,0,.12.1c4.52,3.54,10.21,6,15.93,8.12a133.93,133.93,0,0,0,18.15,5.05,115.31,115.31,0,0,0,19.37,2.18,109.2,109.2,0,0,0,20-1.1l-.45.4L557,510.42c3.16-11.34,6.35-22.49,8.66-33.52a40.55,40.55,0,0,0,.63-4.11,5.89,5.89,0,0,0,0-.94c0-.14-.14-.23.09,0a.31.31,0,0,0,.13,0h-.06l-.13,0-.26,0-2.08-.32-8.24-1.26-16.12-2.54c-10.59-1.71-20.85-3.38-30.69-5.26-2.47-.52-4.88-.93-7.32-1.68-2.18-.85-4.6-.56-6.92-.21a70.45,70.45,0,0,0-13.35,4l-.05,0h0c-16.13,2.71-30.89,5.36-43.76,8.45a78.08,78.08,0,0,0-9.16,2.69c-2.82,1.1-5.08,3.11-7.28,4.91-4.35,3.7-8.14,7.35-11.55,10.65-6.8,6.61-12,12-15.53,15.58l-4,4.15c-.92.94-1.42,1.39-1.42,1.39s.43-.53,1.31-1.49l3.93-4.25c3.48-3.69,8.59-9.11,15.35-15.79,3.39-3.32,7.14-7,11.5-10.76,1.09-.93,2.22-1.87,3.43-2.76a16,16,0,0,1,4-2.32,79.8,79.8,0,0,1,9.25-2.77c12.9-3.16,27.64-5.88,43.79-8.64l-.11,0a71.09,71.09,0,0,1,13.55-4.11c2.36-.36,5-.7,7.44.24,2.25.68,4.74,1.12,7.17,1.61,9.81,1.85,20.08,3.51,30.66,5.2l16.12,2.52,8.24,1.26,2.07.31.26,0,.13,0h.07a1.3,1.3,0,0,1,.25.1,1.1,1.1,0,0,1,.49.88,6.58,6.58,0,0,1,0,1.17,39.75,39.75,0,0,1-.65,4.26c-2.32,11.12-5.5,22.26-8.67,33.62l-3.22,11.17-.1.35-.35.06a110.48,110.48,0,0,1-20.23,1.11,116.42,116.42,0,0,1-19.55-2.22,134.48,134.48,0,0,1-18.31-5.12,89.33,89.33,0,0,1-8.51-3.6,40.45,40.45,0,0,1-7.76-4.77l.22.13-23-6.08.31,0-14.1,5.36.31-.4a46.46,46.46,0,0,1-3.58,12.77,16.37,16.37,0,0,1-3.68,5.28,7.62,7.62,0,0,1-5.9,2.11h-.11l-.09-.07-4.68-3.25-.22-.15,0-.27c1.33-8.34,2.56-16.12,3.66-23.06l.51.4-14.8,6.08.14-.12a52.06,52.06,0,0,1-11.1,12,16.08,16.08,0,0,1-5.93,2.92,8.92,8.92,0,0,1-5.41-.84,8.35,8.35,0,0,1-3.45-2.63,5.61,5.61,0,0,1-1.09-3A4.8,4.8,0,0,1,388.5,512.37Z"/><path class="cls-9" d="M479.12,485.22a8.5,8.5,0,0,1-2.28-.05c-1.45-.12-3.55-.32-6.14-.59l-9.09-1-2.62-.31a8.89,8.89,0,0,0-2.62.06,53.22,53.22,0,0,0-5.6,1.16c-7.51,2.18-15,3.63-17.91,8.08a16.76,16.76,0,0,0-2.67,5.38c-.4,1.39-.51,2.18-.59,2.18a5.33,5.33,0,0,1,.15-2.28,15.4,15.4,0,0,1,2.45-5.76,13.9,13.9,0,0,1,3.06-3.14,17.88,17.88,0,0,1,4.47-2.27c3.25-1.18,6.88-2.31,10.75-3.31a50.55,50.55,0,0,1,5.75-1.17,9.94,9.94,0,0,1,2.88,0l2.62.35,9.07,1.26c2.58.37,4.66.7,6.1,1A8.76,8.76,0,0,1,479.12,485.22Z"/><path class="cls-9" d="M398.76,501.7a19,19,0,0,1,2.48-2.49c1.66-1.53,4.11-3.7,7.21-6.28s6.85-5.6,11.18-8.75c2.18-1.56,4.49-3.15,7-4.66a37.58,37.58,0,0,1,4-2.09A34.77,34.77,0,0,1,435,476c12-3.3,23.14-4.16,31.1-5.35l9.49-1.18a19.67,19.67,0,0,1,3.5-.28,20.72,20.72,0,0,1-3.44.72l-9.43,1.55c-7.94,1.4-19.09,2.39-30.92,5.65a36.64,36.64,0,0,0-4.26,1.36,37,37,0,0,0-3.86,2c-2.47,1.47-4.78,3-7,4.56-4.33,3.08-8.12,6-11.28,8.51l-7.44,6A20.4,20.4,0,0,1,398.76,501.7Z"/><path class="cls-12" d="M771.63,292.65a344.08,344.08,0,0,0-28.21,47.59c-10.69,22.25-45.29,98-45.29,98l-140.94,7.39,2.08,54.46s136.13,48.49,166.6,39.14,62.94-44.49,62.94-44.49l14.57-229.69S791.29,262.8,771.63,292.65Z"/><path class="cls-12" d="M801.09,265.6s-36.13,82-41.41,116.69c-10.49,68.93-14,112.08-14,112.08L733.38,601H974.09s8-197.7,2.85-264c-3.84-49.66-41.88-80.59-57.44-97.58-.93-1-5.22-14.93-5.22-14.93L802.11,253.26Z"/><path class="cls-3" d="M789.46,278.06a6.38,6.38,0,0,1-.28.77c-.23.56-.54,1.3-.92,2.24l-3.6,8.56c-3.1,7.45-7.56,18.25-12,31.95a380.43,380.43,0,0,0-12.45,49c-3.58,18.72-6.48,39.5-8.9,61.37-4.43,43.79-8.45,83.43-11.36,112.19-1.49,14.31-2.7,25.9-3.54,34-.44,4-.78,7.06-1,9.24-.12,1-.22,1.8-.29,2.4a5.19,5.19,0,0,1-.14.81,3.71,3.71,0,0,1,0-.83c0-.6.1-1.39.18-2.41.19-2.18.46-5.29.8-9.25.76-8.11,1.84-19.72,3.18-34,2.78-28.73,6.46-68.42,11-112.24,2.42-21.89,5.36-42.69,9-61.44a369.46,369.46,0,0,1,12.71-49.09c4.6-13.7,9.19-24.47,12.41-31.86,1.59-3.71,2.92-6.55,3.8-8.49.43-.91.77-1.64,1-2.18A3.71,3.71,0,0,1,789.46,278.06Z"/><g class="cls-14"><path d="M914.51,407.09c-2.22-21.84-12-43.75-30-56.36L737.75,560.31c25.91,14,54.67,28.4,83.46,22.24,15.48-3.31,29.25-12.44,40.42-23.67,23.21-23.34,35.8-55.14,44.65-86.85C912.18,450.89,916.72,428.93,914.51,407.09Z"/></g><path class="cls-12" d="M931.14,381.77c-18.28,64.71-59.44,143.66-72.07,159.52A98.12,98.12,0,0,1,782.28,579c-16.56,0-156.51-27.25-198-35.4a17.75,17.75,0,0,1-13.95-13.79l-.36-1.71-18.68-5,10-50.1,2-2.78,200.16,6.3h0l58.23-162.17c1.1-1.86,17.92-56.28,63.51-53.81"/><path class="cls-3" d="M885.13,260.48s-.51,0-1.51,0a44.19,44.19,0,0,0-4.46.11,50.29,50.29,0,0,0-16.82,4,61,61,0,0,0-22,16.94c-7.17,8.41-13.47,19.51-18.47,32.9l0-.05c-14.71,41.09-34.68,96.89-58.06,162.23l-.13.35-.37,0-200.16-6.22.49-.24-2,2.78.09-.23c-2.87,14.49-5.93,29.91-9,45.48-.31,1.59-.63,3.17-.92,4.62l-.41-.67,18.67,5,.36.1,0,.34a18.09,18.09,0,0,0,5.5,10.78,16.77,16.77,0,0,0,5.12,3.28,29.62,29.62,0,0,0,6,1.53l24.49,4.78,47.86,9.21c31.36,5.94,61.57,11.59,90.39,16.47,7.21,1.19,14.33,2.34,21.37,3.33,3.52.44,7,.94,10.48,1.1a83,83,0,0,0,10.36-.52,98.23,98.23,0,0,0,37.83-12.14,100.41,100.41,0,0,0,28.23-24.08,132.52,132.52,0,0,0,9.71-14.64q4.38-7.44,8.27-14.71a790.21,790.21,0,0,0,42.92-94.57c4.24-11.48,7.25-20.49,9.17-26.63l2.15-7c.49-1.57.77-2.37.77-2.37s-.2.82-.66,2.41-1.15,3.95-2.05,7c-1.84,6.17-4.79,15.21-9,26.73a774.49,774.49,0,0,1-42.62,94.79c-2.6,4.85-5.34,9.78-8.26,14.75a132,132,0,0,1-9.75,14.77,101.31,101.31,0,0,1-28.44,24.35A99.08,99.08,0,0,1,792.2,578.9a83,83,0,0,1-10.49.54c-3.56-.16-7.06-.65-10.6-1.09-7.06-1-14.19-2.13-21.4-3.31-28.85-4.85-59.07-10.48-90.43-16.41l-47.87-9.18-24.5-4.78a31.31,31.31,0,0,1-6.19-1.59,17.76,17.76,0,0,1-5.46-3.5,19.24,19.24,0,0,1-5.85-11.39l.41.44-18.67-5-.52-.14.11-.54c.29-1.45.6-3,.91-4.61,3.1-15.58,6.16-31,9-45.48l0-.12.07-.11,2-2.77.18-.25h.31L763.41,476l-.49.33,58.39-162.11,0-.06c5-13.22,11.42-24.51,18.65-32.9a61.22,61.22,0,0,1,22.21-16.93,49.74,49.74,0,0,1,16.95-3.86,39.17,39.17,0,0,1,4.47,0C884.62,260.44,885.13,260.48,885.13,260.48Z"/><path class="cls-3" d="M719.29,463.62c-.35.18-3.12-7.23-9.65-14.16s-13.65-10.3-13.45-10.63c0-.13,1.91.52,4.66,2.1a43,43,0,0,1,9.63,7.74,42.26,42.26,0,0,1,7,10.15C718.9,461.68,719.41,463.57,719.29,463.62Z"/><path class="cls-3" d="M787.59,515.7c-.19,0-.58-2.57-1.74-6.6A61.06,61.06,0,0,0,769,481.46c-3.06-2.87-5.19-4.41-5.08-4.57a5.84,5.84,0,0,1,1.62.91,38.86,38.86,0,0,1,4,3.06,53.93,53.93,0,0,1,17.11,28,36.07,36.07,0,0,1,.88,5A5.72,5.72,0,0,1,787.59,515.7Z"/><g class="cls-14"><path d="M734.2,475.2l11.65.43c1.88-45.72,11.3-91.31,19.37-136.35C744.67,381.24,739.29,428.76,734.2,475.2Z"/></g><path class="cls-3" d="M915.59,239.46a4.28,4.28,0,0,1-1.1.38l-3.2.88-11.8,3.14c-10,2.64-23.69,6.44-39,10.29s-29.23,6.83-39.42,8.5c-5.09.84-9.22,1.44-12.1,1.73l-3.3.34a4.36,4.36,0,0,1-1.17,0,4.67,4.67,0,0,1,1.14-.27l3.27-.55c2.85-.43,7-1.14,12-2.08,10.13-1.88,24-5,39.28-8.83s29-7.51,39-10c5-1.23,9.07-2.18,11.89-2.78l3.26-.67A4.14,4.14,0,0,1,915.59,239.46Z"/><path class="cls-1" d="M439.16,393.39H400.51a4.84,4.84,0,0,1-4.84-4.84v-53.5a4.84,4.84,0,0,1,4.84-4.84H425l19,19.56v38.78A4.84,4.84,0,0,1,439.16,393.39Z"/><g class="cls-15"><path d="M396.62,374.22H443a1,1,0,0,1,1,1v13.23a5,5,0,0,1-5,5H400.65a5,5,0,0,1-5-5V375.17A1,1,0,0,1,396.62,374.22Z"/></g><g class="cls-15"><path class="cls-4" d="M425,330.21v15.06a4.5,4.5,0,0,0,4.5,4.5H444Z"/></g><g class="cls-15"><path d="M425.22,346.59a5,5,0,0,0,4,4.86l.47.1c1.89.34,14.34,2.55,14.34,2.27v-4.05H429.52S425.91,349.65,425.22,346.59Z"/></g><path class="cls-16" d="M409.51,382.57a4.14,4.14,0,0,1,7.17-2.55l-1.12,1a2.41,2.41,0,0,0-1.89-.88,2.41,2.41,0,0,0,0,4.81,2.39,2.39,0,0,0,1.89-.89l1.12,1a4.13,4.13,0,0,1-7.17-2.55Z"/><path class="cls-16" d="M417.19,385.59l.59-1.31a4.43,4.43,0,0,0,2.48.79c1,0,1.45-.35,1.45-.81,0-1.41-4.37-.44-4.37-3.23,0-1.28,1-2.34,3.17-2.34a5.06,5.06,0,0,1,2.61.66l-.54,1.32a4.34,4.34,0,0,0-2.08-.59c-1,0-1.43.39-1.43.86,0,1.39,4.37.43,4.37,3.19,0,1.26-1,2.33-3.19,2.33A5.34,5.34,0,0,1,417.19,385.59Z"/><path class="cls-16" d="M424,385.59l.59-1.31a4.43,4.43,0,0,0,2.48.79c1,0,1.45-.35,1.45-.81,0-1.41-4.37-.44-4.37-3.23,0-1.28,1-2.34,3.17-2.34a5,5,0,0,1,2.6.66l-.53,1.32a4.34,4.34,0,0,0-2.09-.59c-1,0-1.42.39-1.42.86,0,1.39,4.37.43,4.37,3.19,0,1.26-1,2.33-3.19,2.33A5.31,5.31,0,0,1,424,385.59Z"/><path class="cls-16" d="M412,358.25c.79.24,1.16.74,1.16,1.93v2.76a1.13,1.13,0,0,0,1.26,1.28h.31v2.11h-1c-2.16,0-3.27-1.11-3.27-3.09v-3.13a.71.71,0,0,0-.76-.81h-.57v-2.11h.57c.47,0,.76-.25.76-.81v-3.12c0-2,1.11-3.09,3.27-3.09h1v2.1h-.31a1.14,1.14,0,0,0-1.26,1.28v2.76C413.12,357.51,412.75,358,412,358.25Z"/><path class="cls-16" d="M430.58,357.19v2.11H430a.71.71,0,0,0-.76.81v3.13c0,2-1.11,3.09-3.27,3.09h-1v-2.11h.31a1.13,1.13,0,0,0,1.26-1.28v-2.76c0-1.19.37-1.69,1.16-1.93-.79-.24-1.16-.74-1.16-1.94v-2.76a1.14,1.14,0,0,0-1.26-1.28H425v-2.1h1c2.16,0,3.27,1.1,3.27,3.09v3.12c0,.56.29.81.76.81Z"/><path class="cls-1" d="M385.62,432.23H346.38a4.9,4.9,0,0,1-4.91-4.91V373a4.91,4.91,0,0,1,4.91-4.91h24.88L390.53,388v39.36A4.91,4.91,0,0,1,385.62,432.23Z"/><g class="cls-15"><path d="M341.47,412.77h49.06a0,0,0,0,1,0,0v14.15a5.3,5.3,0,0,1-5.3,5.3H346.77a5.3,5.3,0,0,1-5.3-5.3V412.77A0,0,0,0,1,341.47,412.77Z"/></g><g class="cls-15"><path class="cls-4" d="M371.26,368.1v15.29a4.57,4.57,0,0,0,4.57,4.56h14.7Z"/></g><g class="cls-15"><path d="M371.46,384.73a5.07,5.07,0,0,0,4,4.92,4.15,4.15,0,0,0,.48.11c1.92.35,14.56,2.59,14.56,2.3V388h-14.7S372.16,387.83,371.46,384.73Z"/></g><path class="cls-16" d="M361.61,396.71l-5.89,2.15,5.89,2.14v2.21L353.2,400v-2.3l8.41-3.2Z"/><path class="cls-16" d="M367.94,390.16h2.46l-5.84,16.66h-2.45Z"/><path class="cls-16" d="M379.14,397.71V400l-8.42,3.2V401l5.89-2.14-5.89-2.15v-2.2Z"/><path class="cls-16" d="M359.14,428.16a2.91,2.91,0,0,1-1.15-1l1.39-1a1.67,1.67,0,0,0,.6.52,1.87,1.87,0,0,0,.82.19,1.36,1.36,0,0,0,1.1-.47,1.94,1.94,0,0,0,.38-1.3V418H364v7.09a4,4,0,0,1-.39,1.84,2.7,2.7,0,0,1-1.12,1.17,3.73,3.73,0,0,1-1.77.4A3.53,3.53,0,0,1,359.14,428.16Z"/><path class="cls-16" d="M368.21,428.37a5.92,5.92,0,0,1-1.29-.43,4.89,4.89,0,0,1-1.11-.71l.91-1.36a4.28,4.28,0,0,0,1.35.76,4.56,4.56,0,0,0,1.58.26,3,3,0,0,0,1.62-.37,1.19,1.19,0,0,0,.57-1h0a1.12,1.12,0,0,0-.26-.77,1.55,1.55,0,0,0-.67-.41,8.42,8.42,0,0,0-1.06-.25h-.09l-.13,0a10.79,10.79,0,0,1-1.71-.41,2.47,2.47,0,0,1-1.14-.84,2.73,2.73,0,0,1-.48-1.72h0a3.07,3.07,0,0,1,.45-1.69,2.76,2.76,0,0,1,1.28-1.06,5.15,5.15,0,0,1,2-.36,5.33,5.33,0,0,1,1.12.12,6.42,6.42,0,0,1,1.1.36,6.15,6.15,0,0,1,1.05.6l-.83,1.41a5,5,0,0,0-1.22-.65,3.58,3.58,0,0,0-1.22-.22,2.71,2.71,0,0,0-1.52.36,1.16,1.16,0,0,0-.54,1h0a1.05,1.05,0,0,0,.28.78,1.61,1.61,0,0,0,.69.42,11.43,11.43,0,0,0,1.17.28h.11l.08,0h.07a8.13,8.13,0,0,1,1.62.47,2.52,2.52,0,0,1,1.08.87,2.72,2.72,0,0,1,.43,1.63v0a3,3,0,0,1-.45,1.66,2.88,2.88,0,0,1-1.33,1,5.3,5.3,0,0,1-2.1.37A6.76,6.76,0,0,1,368.21,428.37Z"/><path class="cls-10" d="M771.16,187.13c.43-5.8,9.09-10,14.64-9.14,5.39.93,12.54,2,17.94.5,15.52-4.35,24.11-9.42,38.8-10.87,6.73-.74,13,.07,19.88.61s15.1-2.26,16.59-9.32c.78-3.25-.26-7,.15-10.39s3.23-7.12,6.35-6.06c3,1.08,3.35,5.28,3.29,8.63-.45,10.81-.92,21.43-3,31.91s-2.54,19.8-4.61,30.27c-6.28,30.88-27.35,47.11-53.26,51-3.79.52-22.78-1.32-25.75,1.31s-7.31,4.15-10.73,2.21a14.72,14.72,0,0,0,3.59-9.57c-6.89,4.65-16.39.58-21.68-6.11a34.05,34.05,0,0,1-6.84-26.86c1.27-7.4,5-14.4,3.67-21.81-.67-3.61-2.52-6.88-2.82-10.36-.33-3.66.46-5.89,3.78-6"/><path class="cls-11" d="M767.81,188.6a8.54,8.54,0,0,0-.94,5.88c.74,4.16,3,7.74,3,12s-1.14,8.3-2.18,12.15a39.09,39.09,0,0,0-2.22,12,34.46,34.46,0,0,0,8,22.44,21.24,21.24,0,0,0,9.65,6.46,11.89,11.89,0,0,0,11.05-1.14l.49-.26.08.55a16.42,16.42,0,0,1-3.74,9.78l-.08-.55a7.75,7.75,0,0,0,4.65.66,10.48,10.48,0,0,0,4.46-1.91,25.88,25.88,0,0,1,2.07-1.58,12.66,12.66,0,0,1,2.52-.72,47,47,0,0,1,5-.31c3.32-.09,6.66,0,10,.11l4.91.07c.86-.12,1.58,0,2.44-.15.68-.1,1.52-.4,2.38-.51,13-2.34,25.49-8.31,34.83-18.12a57.39,57.39,0,0,0,11.17-16.91,83,83,0,0,0,5.69-19.86c1.16-6.83,1.76-14,2.93-20.79.41-3.39,1.34-6.85,1.75-10.24a94.86,94.86,0,0,0,1.2-10.36c.22-3.55.46-6.92.67-10.47,0-3.52.63-6.94-.19-10.35a4.6,4.6,0,0,0-2.93-3.49c-1.45-.35-2.9.59-3.95,1.84a10.56,10.56,0,0,0-1.64,4.67,48.4,48.4,0,0,0,.18,5.17,13.79,13.79,0,0,1-.5,5.25,10.47,10.47,0,0,1-2.72,4.45,15.15,15.15,0,0,1-9.06,4.21c-3.44.47-6.66,0-10-.29a80.61,80.61,0,0,0-9.88-.5A71.09,71.09,0,0,0,827.41,171c-6.38,2-12.55,4.31-18.93,6.3-3.19,1-6.36,2.17-9.68,2.25a58.22,58.22,0,0,1-9.9-.68c-1.79-.31-3.42-.64-5-.8a14.56,14.56,0,0,0-4.82.66,11.18,11.18,0,0,0-4.19,2.62,6.9,6.9,0,0,0-2.18,4.56,8.43,8.43,0,0,1,2.18-4.56,10.2,10.2,0,0,1,4.19-2.62,11.65,11.65,0,0,1,5-.68,39.12,39.12,0,0,1,5,.61,43.16,43.16,0,0,0,9.9.68c3.32-.08,6.48-1.25,9.68-2.25,6.38-2,12.52-4.49,18.9-6.48a80.65,80.65,0,0,1,19.7-3.25,91.94,91.94,0,0,1,10,.47c3.37.28,6.61,1,9.85.32a15.11,15.11,0,0,0,8.74-4c2.48-2.38,3.24-5.82,2.93-9.29-.07-1.85-.3-3.48-.2-5.35a9.49,9.49,0,0,1,1.76-5.06c1-1.44,2.79-2.6,4.61-2.11a5.14,5.14,0,0,1,2.31,1.53,6.32,6.32,0,0,1,1.21,2.43c.84,3.59.26,7,.22,10.53-.22,3.55-.45,6.92-.67,10.47-.38,3.57-.6,7.12-1.18,10.54-.41,3.39-1.17,6.83-1.75,10.25-1.17,6.83-1.77,14-2.93,20.78-2,13.79-7.47,27.33-17,37.34-9.31,10-22.18,15.83-35.17,18.16l-2.41.33a10.35,10.35,0,0,1-2.43.15l-4.91-.07c-3.35-.09-6.69-.19-10-.11a43.76,43.76,0,0,0-4.87.3,10,10,0,0,0-2.38.51,13.15,13.15,0,0,0-2.09,1.4,11.31,11.31,0,0,1-4.64,1.93,7.64,7.64,0,0,1-5-.79l-.37-.14.32-.23a15,15,0,0,0,3.45-9.37l.39.32c-3.36,2.32-7.56,2.34-11.4,1.19a23.75,23.75,0,0,1-9.86-6.8,33.34,33.34,0,0,1-8-22.8,45.39,45.39,0,0,1,2.38-12c1-3.85,2.25-7.91,2.21-12,.12-4.27-2.15-8-2.87-12a8.67,8.67,0,0,1,.92-6c.84-1.6,2.36-3.29,4.44-3.39C770.81,184.86,769.26,186.37,767.81,188.6Z"/><path class="cls-4" d="M813.12,192a15.83,15.83,0,0,0,8.21-2.92,15.61,15.61,0,0,0,5.72-7,33.17,33.17,0,0,1,1.64-3.57c.17,0,.4,1.69-.47,4.2a15.36,15.36,0,0,1-5.79,8.06,14.86,14.86,0,0,1-9.24,2.66c-2.42-.18-3.75-1-3.74-1.19C809.47,192,811,192.25,813.12,192Z"/><path class="cls-11" d="M865.62,196.7a33.67,33.67,0,0,0,1.8-8.59,31.67,31.67,0,0,0-.48-8.64c-.5-2.34-.85-3.59-1-3.57-.34,0,.92,5.43.44,12.17s-2.6,11.66-2.41,11.82A18.55,18.55,0,0,0,865.62,196.7Z"/><path class="cls-11" d="M846.2,242.9a25.89,25.89,0,0,0,1.74-2.65c.56-1,1.44-2.23,2.13-3.62a76.73,76.73,0,0,0,4.4-10.06,73.14,73.14,0,0,0,3.47-13.07,86.39,86.39,0,0,0,.93-13.66,64.73,64.73,0,0,0-1-11.16,34.08,34.08,0,0,0-.74-4.16c-.35-1.25-.5-2.34-.8-3.23-.59-1.77-.71-2.68-.88-2.65s1,3.74,1.88,9.93a88.84,88.84,0,0,1,.81,11,110.11,110.11,0,0,1-1.13,13.5,70.23,70.23,0,0,1-3.32,12.87,75.23,75.23,0,0,1-4.4,10.05c-2.76,5.38-5.14,8.49-4.94,8.65C844.34,244.64,845,244,846.2,242.9Z"/><path class="cls-11" d="M847.69,227c.9-3.65.85-6.61.65-6.76s-.83,2.89-1.56,6.51c-.9,3.64-1.56,6.51-1.36,6.67C845.79,233.51,847,230.75,847.69,227Z"/><path class="cls-11" d="M839.42,229.19c1.38-6.49,1.15-12,1-12-.34.05-.48,5.44-1.89,11.75-1.24,6.28-3,11.16-2.83,11.32C836.05,240.4,838.18,235.48,839.42,229.19Z"/><path class="cls-11" d="M812.76,218.76c1.37-2.78,1.56-5.21,1.37-5.37-.17,0-.91,2.34-2.13,4.92-1,2.74-2.33,4.77-2.13,4.92S811.74,221.5,812.76,218.76Z"/><path class="cls-11" d="M780,238.82a26,26,0,0,1,3.11-8,23.72,23.72,0,0,1,5.61-6.33,21.2,21.2,0,0,0,2.85-2.24c-.2-.16-1.53.39-3.29,1.56a20.9,20.9,0,0,0-6,6.38,23.65,23.65,0,0,0-3.06,8.38c-.36,2.46-.16,3.92,0,3.89S779.39,241.12,780,238.82Z"/><path class="cls-11" d="M774.11,226.84c2.62-2.58,4.83-4.37,4.63-4.53,0-.18-2.82,1.13-5.25,3.87-2.6,2.77-3.8,5.53-3.6,5.68C770.11,232.2,771.88,229.74,774.11,226.84Z"/><path class="cls-11" d="M790.37,238.14a31.61,31.61,0,0,1,3.84-10.35,34.42,34.42,0,0,1,6.74-8.33c2.2-1.79,3.65-2.73,3.45-2.89s-1.67.6-3.87,2.39a28.36,28.36,0,0,0-7.09,8.38A29.14,29.14,0,0,0,789.83,238c-.32,2.82-.24,4.66-.07,4.64C789.76,242.67,789.88,241,790.37,238.14Z"/><path class="cls-11" d="M785.11,202.35a11.62,11.62,0,0,1-4.7-3.61,10.28,10.28,0,0,1-1.85-5.86c.14-1.51.36-2.46.17-2.62a5.17,5.17,0,0,0-.71,2.5,9.88,9.88,0,0,0,1.73,6.25,10.3,10.3,0,0,0,5.39,3.53c1.6.15,2.63,0,2.6-.18S786.66,202.14,785.11,202.35Z"/><path class="cls-11" d="M789.9,200.22a7.21,7.21,0,0,1-4.28-1.83,8.27,8.27,0,0,1-2.68-4.26c-.35-1.25-.3-2.18-.48-2.16-.19-.16-.24.77,0,2.23a7.39,7.39,0,0,0,7.56,6.56c1.57,0,2.23-.3,2.21-.49S791.3,200.21,789.9,200.22Z"/><path class="cls-11" d="M798,195.4a9,9,0,0,1-4.32.41,6.47,6.47,0,0,1-3.64-2.28c-.67-1-.77-1.75-.94-1.73a2.65,2.65,0,0,0,.44,2,6.23,6.23,0,0,0,4.06,2.78,7.27,7.27,0,0,0,4.82-.66c1.15-.53,1.79-1,1.77-1.17C800,194.75,799.35,195,798,195.4Z"/><path class="cls-1" d="M46.16,293.17H169.51a3.36,3.36,0,0,1,3.36,3.36V382a4,4,0,0,1-4,4H46.16a3.36,3.36,0,0,1-3.36-3.36V296.53A3.36,3.36,0,0,1,46.16,293.17Z"/><path class="cls-2" d="M46,293.17H169.7a3.17,3.17,0,0,1,3.17,3.17V308a0,0,0,0,1,0,0H42.8a0,0,0,0,1,0,0V296.34A3.17,3.17,0,0,1,46,293.17Z"/><path class="cls-3" d="M169.21,385.7A3.58,3.58,0,0,0,172.4,383a6.92,6.92,0,0,0,.41-2.81c0-1.09,0-2.27,0-3.55q0-3.85,0-8.85c0-13.33,0-32.6-.07-56.41,0-3,0-6,0-9.14v-4.72a4.1,4.1,0,0,0-1.58-3.71,2.73,2.73,0,0,0-1.71-.34H156.13l-33.3,0-76.29,0a3.67,3.67,0,0,0-1.21.11,2.82,2.82,0,0,0-1.06.65,4.44,4.44,0,0,0-1.19,2.61,14.54,14.54,0,0,0,0,1.64V317q0,13.28,0,26.13v25.23q0,6.18,0,12.23a4.89,4.89,0,0,0,2.15,4.46,3.84,3.84,0,0,0,2.1.34h2.21l62.31.06,42,.11,11.42.06,3,0,1,0-1,0-3,0-11.42.06-42,.11L49.48,386H47.27a4.19,4.19,0,0,1-2.27-.38c-1.48-.76-2.49-2.88-2.42-5q0-6,0-12.23V343.14q0-12.84,0-26.13V298.58a17.34,17.34,0,0,1,0-1.74,5.09,5.09,0,0,1,1.38-3,3.15,3.15,0,0,1,1.23-.76,4,4,0,0,1,1.32-.13l76.29,0,33.3,0H169.4a3.06,3.06,0,0,1,1.86.39,4.65,4.65,0,0,1,1.79,4.16c0,1.59,0,3.16,0,4.72,0,3.12,0,6.16,0,9.14,0,23.81-.05,43.08-.07,56.41q0,5,0,8.85c0,1.28,0,2.46,0,3.55a11.17,11.17,0,0,1-.08,1.55,6.85,6.85,0,0,1-.36,1.32,4,4,0,0,1-2.28,2.45A2.27,2.27,0,0,1,169.21,385.7Z"/><circle class="cls-4" cx="52.48" cy="301.72" r="2.42"/><path class="cls-4" d="M62.35,301.72a2.42,2.42,0,1,1-2.42-2.43A2.42,2.42,0,0,1,62.35,301.72Z"/><circle class="cls-4" cx="67.38" cy="301.72" r="2.42"/><path class="cls-3" d="M80.28,328.79H65.16a1.63,1.63,0,0,1-1.64-1.64h0a1.64,1.64,0,0,1,1.64-1.64H80.28a1.65,1.65,0,0,1,1.64,1.64h0A1.64,1.64,0,0,1,80.28,328.79Z"/><path class="cls-5" d="M80.28,337.38H65.16a1.63,1.63,0,0,1-1.64-1.64h0a1.64,1.64,0,0,1,1.64-1.64H80.28a1.65,1.65,0,0,1,1.64,1.64h0A1.64,1.64,0,0,1,80.28,337.38Z"/><path class="cls-5" d="M160.09,328.79H116.24a1.63,1.63,0,0,1-1.64-1.64h0a1.64,1.64,0,0,1,1.64-1.64h43.85a1.64,1.64,0,0,1,1.64,1.64h0A1.63,1.63,0,0,1,160.09,328.79Z"/><path class="cls-6" d="M80.28,346.26H65.16a1.64,1.64,0,0,1-1.64-1.64h0A1.63,1.63,0,0,1,65.16,343H80.28a1.64,1.64,0,0,1,1.64,1.64h0A1.65,1.65,0,0,1,80.28,346.26Z"/><path class="cls-6" d="M149.63,337.38H134.51a1.64,1.64,0,0,1-1.64-1.64h0a1.65,1.65,0,0,1,1.64-1.64h15.12a1.64,1.64,0,0,1,1.64,1.64h0A1.63,1.63,0,0,1,149.63,337.38Z"/><path class="cls-7" d="M104.5,328.79H89.38a1.63,1.63,0,0,1-1.64-1.64h0a1.64,1.64,0,0,1,1.64-1.64H104.5a1.64,1.64,0,0,1,1.64,1.64h0A1.63,1.63,0,0,1,104.5,328.79Z"/><path class="cls-3" d="M124,337.38H89.38a1.63,1.63,0,0,1-1.64-1.64h0a1.64,1.64,0,0,1,1.64-1.64H124a1.64,1.64,0,0,1,1.64,1.64h0A1.63,1.63,0,0,1,124,337.38Z"/><path class="cls-5" d="M157.92,346.26H89.31a1.61,1.61,0,0,1-1.57-1.64h0A1.6,1.6,0,0,1,89.31,343h68.61a1.6,1.6,0,0,1,1.57,1.64h0A1.61,1.61,0,0,1,157.92,346.26Z"/><path class="cls-7" d="M57.75,327.15a1.67,1.67,0,1,1-1.67-1.66A1.67,1.67,0,0,1,57.75,327.15Z"/><path class="cls-7" d="M57.75,318.94a1.67,1.67,0,1,1-1.67-1.67A1.66,1.66,0,0,1,57.75,318.94Z"/><circle class="cls-7" cx="56.08" cy="335.72" r="1.67"/><circle class="cls-7" cx="56.08" cy="344.62" r="1.67"/><circle class="cls-7" cx="56.08" cy="357.72" r="1.67"/><circle class="cls-7" cx="56.08" cy="366.62" r="1.67"/><circle class="cls-7" cx="56.08" cy="375.72" r="1.67"/><rect class="cls-7" x="63.86" y="316.97" width="11.06" height="3.16" rx="0.87"/><path class="cls-6" d="M80.48,359.48H70a1.74,1.74,0,0,1-1.74-1.74h0A1.74,1.74,0,0,1,70,356H80.48a1.74,1.74,0,0,1,1.74,1.74h0A1.74,1.74,0,0,1,80.48,359.48Z"/><path class="cls-6" d="M80.48,377.28H70a1.74,1.74,0,0,1-1.74-1.74h0A1.74,1.74,0,0,1,70,373.8H80.48a1.74,1.74,0,0,1,1.74,1.74h0A1.74,1.74,0,0,1,80.48,377.28Z"/><path class="cls-7" d="M106.23,377.28H87.87a1.74,1.74,0,0,1-1.74-1.74h0a1.74,1.74,0,0,1,1.74-1.74h18.36a1.74,1.74,0,0,1,1.74,1.74h0A1.74,1.74,0,0,1,106.23,377.28Z"/><path class="cls-5" d="M119.08,377.28h-2.64a1.74,1.74,0,0,1-1.74-1.74h0a1.74,1.74,0,0,1,1.74-1.74h2.64a1.74,1.74,0,0,1,1.74,1.74h0A1.74,1.74,0,0,1,119.08,377.28Z"/><path class="cls-5" d="M105.13,359.48H89.61a1.74,1.74,0,0,1-1.74-1.74h0A1.74,1.74,0,0,1,89.61,356h15.52a1.74,1.74,0,0,1,1.74,1.74h0A1.74,1.74,0,0,1,105.13,359.48Z"/><path class="cls-5" d="M139.16,368.17H89.61a1.74,1.74,0,0,1-1.74-1.74h0a1.74,1.74,0,0,1,1.74-1.74h49.55a1.74,1.74,0,0,1,1.74,1.74h0A1.74,1.74,0,0,1,139.16,368.17Z"/><path class="cls-7" d="M144.88,359.48H113.25a1.74,1.74,0,0,1-1.74-1.74h0a1.74,1.74,0,0,1,1.74-1.74h31.63a1.74,1.74,0,0,1,1.74,1.74h0A1.74,1.74,0,0,1,144.88,359.48Z"/><path class="cls-1" d="M101.56,148.88H270.27a0,0,0,0,1,0,0V251.62a4.58,4.58,0,0,1-4.58,4.58H101.56a0,0,0,0,1,0,0V148.88A0,0,0,0,1,101.56,148.88Z"/><g class="cls-15"><rect x="101.56" y="148.88" width="30.39" height="107.32"/></g><path class="cls-5" d="M114.91,160.46a1.92,1.92,0,0,1,.51-.22l.1-.5h.85l.12.49a2.25,2.25,0,0,1,.51.2l.43-.28.61.59-.27.44a2,2,0,0,1,.22.5l.5.11,0,.85-.5.12a2,2,0,0,1-.2.51l.28.43-.59.61-.44-.27a2,2,0,0,1-.5.22l-.11.5-.84,0-.12-.5a2.07,2.07,0,0,1-.52-.2l-.42.28-.61-.59.26-.44a2.45,2.45,0,0,1-.22-.5l-.5-.11v-.84l.49-.12a2.1,2.1,0,0,1,.21-.52l-.28-.43.58-.6.44.26Zm.45,1.13a.9.9,0,0,0,0,1.28.91.91,0,0,0,1.29,0,.91.91,0,0,0-1.31-1.26Z"/><path class="cls-5" d="M121.93,184.17H108.68a1.36,1.36,0,0,1-1.36-1.36h0a1.36,1.36,0,0,1,1.36-1.36h13.25a1.36,1.36,0,0,1,1.36,1.36h0A1.36,1.36,0,0,1,121.93,184.17Z"/><path class="cls-5" d="M121.93,177.23H108.68a1.36,1.36,0,0,1-1.36-1.36h0a1.36,1.36,0,0,1,1.36-1.36h13.25a1.36,1.36,0,0,1,1.36,1.36h0A1.36,1.36,0,0,1,121.93,177.23Z"/><path class="cls-5" d="M121.93,170.89H108.68a1.36,1.36,0,0,1-1.36-1.36h0a1.36,1.36,0,0,1,1.36-1.36h13.25a1.36,1.36,0,0,1,1.36,1.36h0A1.36,1.36,0,0,1,121.93,170.89Z"/><path class="cls-3" d="M157.52,164.73H145a1.36,1.36,0,0,1-1.36-1.36h0A1.36,1.36,0,0,1,145,162h12.55a1.36,1.36,0,0,1,1.36,1.36h0A1.36,1.36,0,0,1,157.52,164.73Z"/><path class="cls-5" d="M157.52,171.86H145a1.36,1.36,0,0,1-1.36-1.36h0a1.36,1.36,0,0,1,1.36-1.36h12.55a1.36,1.36,0,0,1,1.36,1.36h0A1.36,1.36,0,0,1,157.52,171.86Z"/><path class="cls-6" d="M157.52,179.22H145a1.36,1.36,0,0,1-1.36-1.36h0A1.36,1.36,0,0,1,145,176.5h12.55a1.36,1.36,0,0,1,1.36,1.36h0A1.36,1.36,0,0,1,157.52,179.22Z"/><path class="cls-3" d="M152.17,193.46H145a1.36,1.36,0,0,1-1.36-1.36h0a1.36,1.36,0,0,1,1.36-1.36h7.2a1.36,1.36,0,0,1,1.36,1.36h0A1.36,1.36,0,0,1,152.17,193.46Z"/><path class="cls-3" d="M152.17,200.84H145a1.36,1.36,0,0,1-1.36-1.36h0a1.36,1.36,0,0,1,1.36-1.36h7.2a1.36,1.36,0,0,1,1.36,1.36h0A1.36,1.36,0,0,1,152.17,200.84Z"/><path class="cls-5" d="M173.55,200.84H160.36a1.36,1.36,0,0,1-1.36-1.36h0a1.36,1.36,0,0,1,1.36-1.36h13.19a1.36,1.36,0,0,1,1.36,1.36h0A1.36,1.36,0,0,1,173.55,200.84Z"/><path class="cls-6" d="M166.09,207.4H152.9a1.36,1.36,0,0,1-1.37-1.36h0a1.36,1.36,0,0,1,1.37-1.36h13.19a1.36,1.36,0,0,1,1.36,1.36h0A1.36,1.36,0,0,1,166.09,207.4Z"/><rect class="cls-6" x="159.02" y="212.17" width="10.92" height="2.72" rx="0.93"/><path class="cls-6" d="M168.58,229.56h-8.2A1.36,1.36,0,0,1,159,228.2h0a1.36,1.36,0,0,1,1.36-1.36h8.2a1.36,1.36,0,0,1,1.36,1.36h0A1.36,1.36,0,0,1,168.58,229.56Z"/><path class="cls-6" d="M168.58,245.05h-8.2a1.36,1.36,0,0,1-1.36-1.36h0a1.36,1.36,0,0,1,1.36-1.36h8.2a1.36,1.36,0,0,1,1.36,1.36h0A1.36,1.36,0,0,1,168.58,245.05Z"/><path class="cls-7" d="M188.73,245.05H174.36a1.36,1.36,0,0,1-1.36-1.36h0a1.36,1.36,0,0,1,1.36-1.36h14.37a1.36,1.36,0,0,1,1.36,1.36h0A1.36,1.36,0,0,1,188.73,245.05Z"/><path class="cls-5" d="M198.79,245.05h-2.07a1.36,1.36,0,0,1-1.36-1.36h0a1.36,1.36,0,0,1,1.36-1.36h2.07a1.36,1.36,0,0,1,1.36,1.36h0A1.36,1.36,0,0,1,198.79,245.05Z"/><path class="cls-5" d="M187.87,229.56H175.72a1.36,1.36,0,0,1-1.36-1.36h0a1.36,1.36,0,0,1,1.36-1.36h12.15a1.36,1.36,0,0,1,1.36,1.36h0A1.36,1.36,0,0,1,187.87,229.56Z"/><path class="cls-5" d="M214.5,236.36H175.72a1.36,1.36,0,0,1-1.36-1.36h0a1.36,1.36,0,0,1,1.36-1.36H214.5a1.36,1.36,0,0,1,1.36,1.36h0A1.36,1.36,0,0,1,214.5,236.36Z"/><path class="cls-7" d="M219,229.56H194.22a1.36,1.36,0,0,1-1.36-1.36h0a1.36,1.36,0,0,1,1.36-1.36H219a1.36,1.36,0,0,1,1.36,1.36h0A1.36,1.36,0,0,1,219,229.56Z"/><rect class="cls-7" x="173.51" y="212.17" width="12.98" height="2.72" rx="0.93"/><rect class="cls-5" x="190.09" y="212.17" width="5.27" height="2.72" rx="0.93"/><rect class="cls-5" x="199.37" y="212.17" width="15.55" height="2.72" rx="0.93"/><path class="cls-3" d="M175,207.4h-2.94a1.36,1.36,0,0,1-1.36-1.36h0a1.36,1.36,0,0,1,1.36-1.36H175a1.36,1.36,0,0,1,1.36,1.36h0A1.36,1.36,0,0,1,175,207.4Z"/><path class="cls-5" d="M199.93,207.4H181.21a1.36,1.36,0,0,1-1.36-1.36h0a1.36,1.36,0,0,1,1.36-1.36h18.72a1.36,1.36,0,0,1,1.36,1.36h0A1.36,1.36,0,0,1,199.93,207.4Z"/><path class="cls-7" d="M177.62,164.73H165.07a1.36,1.36,0,0,1-1.36-1.36h0a1.36,1.36,0,0,1,1.36-1.36h12.55a1.36,1.36,0,0,1,1.36,1.36h0A1.36,1.36,0,0,1,177.62,164.73Z"/><path class="cls-3" d="M193.79,171.86H165.07a1.36,1.36,0,0,1-1.36-1.36h0a1.36,1.36,0,0,1,1.36-1.36h28.72a1.36,1.36,0,0,1,1.36,1.36h0A1.36,1.36,0,0,1,193.79,171.86Z"/><path class="cls-5" d="M224.7,179.22H165.07a1.36,1.36,0,0,1-1.36-1.36h0a1.36,1.36,0,0,1,1.36-1.36H224.7a1.36,1.36,0,0,1,1.36,1.36h0A1.36,1.36,0,0,1,224.7,179.22Z"/><path class="cls-5" d="M193.19,184.41H165.07a1.36,1.36,0,0,1-1.36-1.36h0a1.36,1.36,0,0,1,1.36-1.36h28.12a1.36,1.36,0,0,1,1.36,1.36h0A1.36,1.36,0,0,1,193.19,184.41Z"/><path class="cls-7" d="M187.44,193.46H159.32A1.36,1.36,0,0,1,158,192.1h0a1.36,1.36,0,0,1,1.36-1.36h28.12a1.36,1.36,0,0,1,1.36,1.36h0A1.36,1.36,0,0,1,187.44,193.46Z"/><path class="cls-6" d="M203.18,193.46h-9.43a1.36,1.36,0,0,1-1.36-1.36h0a1.36,1.36,0,0,1,1.36-1.36h9.43a1.36,1.36,0,0,1,1.36,1.36h0A1.36,1.36,0,0,1,203.18,193.46Z"/><path class="cls-3" d="M227.27,193.42h-17.8a1.36,1.36,0,0,1-1.36-1.37h0a1.36,1.36,0,0,1,1.36-1.36h17.8a1.36,1.36,0,0,1,1.36,1.36h0A1.36,1.36,0,0,1,227.27,193.42Z"/><path class="cls-5" d="M251.49,193.42h-17.8a1.36,1.36,0,0,1-1.36-1.37h0a1.36,1.36,0,0,1,1.36-1.36h17.8a1.36,1.36,0,0,1,1.37,1.36h0A1.37,1.37,0,0,1,251.49,193.42Z"/><path class="cls-5" d="M116.19,191.51h-7.51a1.36,1.36,0,0,1-1.36-1.36h0a1.36,1.36,0,0,1,1.36-1.36h7.51a1.36,1.36,0,0,1,1.36,1.36h0A1.36,1.36,0,0,1,116.19,191.51Z"/><path class="cls-5" d="M114,213.53h-5.27a1.36,1.36,0,0,1-1.36-1.36h0a1.36,1.36,0,0,1,1.36-1.36H114a1.36,1.36,0,0,1,1.36,1.36h0A1.36,1.36,0,0,1,114,213.53Z"/><path class="cls-5" d="M123.29,198.85H108.68a1.36,1.36,0,0,1-1.36-1.36h0a1.36,1.36,0,0,1,1.36-1.36h14.61a1.36,1.36,0,0,1,1.36,1.36h0A1.36,1.36,0,0,1,123.29,198.85Z"/><path class="cls-5" d="M120.73,206.19h-12a1.36,1.36,0,0,1-1.36-1.36h0a1.36,1.36,0,0,1,1.36-1.36h12a1.36,1.36,0,0,1,1.36,1.36h0A1.36,1.36,0,0,1,120.73,206.19Z"/><path class="cls-7" d="M138.82,163.37a1.38,1.38,0,1,1-1.38-1.38A1.38,1.38,0,0,1,138.82,163.37Z"/><circle class="cls-7" cx="137.44" cy="156.11" r="1.38"/><circle class="cls-7" cx="137.44" cy="170.48" r="1.38"/><circle class="cls-7" cx="137.44" cy="177.86" r="1.38"/><circle class="cls-7" cx="137.44" cy="185.25" r="1.38"/><path class="cls-7" d="M138.82,192.63a1.38,1.38,0,1,1-1.38-1.38A1.38,1.38,0,0,1,138.82,192.63Z"/><circle class="cls-7" cx="137.44" cy="200.02" r="1.38"/><circle class="cls-7" cx="137.44" cy="207.4" r="1.38"/><path class="cls-7" d="M138.82,214.79a1.38,1.38,0,1,1-1.38-1.38A1.38,1.38,0,0,1,138.82,214.79Z"/><path class="cls-7" d="M138.82,222.17a1.38,1.38,0,1,1-1.38-1.38A1.38,1.38,0,0,1,138.82,222.17Z"/><circle class="cls-7" cx="137.44" cy="229.56" r="1.38"/><path class="cls-7" d="M138.82,236.94a1.38,1.38,0,1,1-1.38-1.38A1.38,1.38,0,0,1,138.82,236.94Z"/><circle class="cls-7" cx="137.44" cy="244.33" r="1.38"/><path class="cls-1" d="M106.61,134.25H266.68a3.59,3.59,0,0,1,3.59,3.59v11a0,0,0,0,1,0,0H101.56a0,0,0,0,1,0,0V139.3A5.05,5.05,0,0,1,106.61,134.25Z"/><path class="cls-17" d="M265.08,134l-158.47.25a5,5,0,0,0-5,5.05v9.58H270.27v-11C270.27,135.85,267.06,134,265.08,134Z"/><circle class="cls-4" cx="110.27" cy="142" r="2.01"/><path class="cls-4" d="M118.47,142a2,2,0,1,1-2-2A2,2,0,0,1,118.47,142Z"/><path class="cls-4" d="M124.65,142a2,2,0,1,1-2-2A2,2,0,0,1,124.65,142Z"/><polygon class="cls-1" points="232.19 254.83 246.45 270.24 259.4 254.83 232.19 254.83"/><path class="cls-3" d="M265.69,256.2a5.86,5.86,0,0,0,1.48-.28,4.37,4.37,0,0,0,1.57-.94,4.43,4.43,0,0,0,1.31-2.15,4.71,4.71,0,0,0,.16-1.52v-1.72c0-1.21,0-2.52,0-4,0-2.85,0-6.14,0-9.85,0-14.83-.05-36.27-.08-62.77q0-9.93,0-20.8,0-5.41,0-11.06c0-.93,0-1.91,0-2.81a4.43,4.43,0,0,0-3.45-3.81,19.27,19.27,0,0,0-2.86-.09l-49.75,0H107.55c-.61,0-1.28,0-1.86,0a4.41,4.41,0,0,0-1.69.54,4.34,4.34,0,0,0-2.08,2.79,12.78,12.78,0,0,0-.12,2.57v38.9c0,13.57,0,26.83,0,39.71q0,9.66,0,19v9.28c0,1.53,0,3.08,0,4.57A4.34,4.34,0,0,0,104,255.4a4.21,4.21,0,0,0,2,.57h32.54l.06.07c8.18,0,24.72,0,24.31,0L163,256h.08l75,.09,20.47,0,5.34,0,1.81,0-1.81,0-5.34,0-20.47.05c-17.76,0-74.85,0-74.85,0-7.52.41-19.6.41-24.9,0,0,0-11,.07-16.84.07H106a4.69,4.69,0,0,1-2.25-.62,4.78,4.78,0,0,1-2.41-3.88c0-1.54,0-3,0-4.59V238q0-9.36,0-19c0-12.88,0-26.14,0-39.71V139.09a5.75,5.75,0,0,1,.13-1.36,4.87,4.87,0,0,1,2.32-3.1,4.71,4.71,0,0,1,1.88-.6c.68-.05,1.28,0,1.91,0H214l49.75,0a19.47,19.47,0,0,1,2.94.11,4.79,4.79,0,0,1,3.76,4.16c.05,1,0,1.9,0,2.85q0,5.64,0,11.06,0,10.86,0,20.8c0,26.5-.06,47.94-.08,62.77,0,3.71,0,7,0,9.85,0,1.43,0,2.74,0,4v1.72a5.23,5.23,0,0,1-.17,1.55,4.53,4.53,0,0,1-1.36,2.17,4.4,4.4,0,0,1-1.6.94,4.5,4.5,0,0,1-1.11.22Z"/><polygon class="cls-1" points="232.19 254.83 236.29 259.25 256.92 257.78 259.4 254.83 232.19 254.83"/></svg>