<svg id="Слой_1" data-name="Слой 1" xmlns="http://www.w3.org/2000/svg" viewBox="0 0 462.1 320"><defs><style>.cls-1{opacity:0.6;}.cls-2{fill:#233554;}.cls-3{fill:#212121;}.cls-4,.cls-5{opacity:0.2;}.cls-20,.cls-4,.cls-6{isolation:isolate;}.cls-14,.cls-6{fill:#fff;}.cls-6{opacity:0.1;}.cls-7{fill:#e1e1e1;}.cls-8{opacity:0.4;}.cls-9{fill:#c9ccd6;}.cls-10{fill:#1a2e35;}.cls-11{fill:#6896ef;}.cls-12{fill:#fafafa;}.cls-13{fill:#375a64;}.cls-15{fill:#ffc19d;}.cls-16{fill:#ff9c6a;}.cls-17{fill:#4b98f2;}.cls-18{fill:#455a64;}.cls-19,.cls-20{opacity:0.3;}</style></defs><g class="cls-1"><path class="cls-2" d="M205,10.5H109.2V49.4H205Z"/><path class="cls-3" d="M204.9,49.4V39c0-6.7,0-16.4-.1-28.3l.1.1H109.2l.2-.1V49.4l-.1-.1,68.6.1h.1l-68.7.1h-.1v-39h95.9v.1c0,12,0,21.7-.1,28.4v9.7A1.66,1.66,0,0,1,204.9,49.4Z"/><path class="cls-3" d="M109.3,15.8c0-.1,21.4-.2,47.8-.2s47.8.1,47.8.2-21.4.1-47.8.1S109.3,15.9,109.3,15.8Z"/><path class="cls-4" d="M140.5,22.1H117.4V45.2h23.1Z"/><g class="cls-5"><path d="M113.5,13.5a.63.63,0,0,1-.1.4c-.1.1-.2.2-.3.2s-.3.1-.4,0-.2-.1-.3-.2-.2-.2-.2-.3v-.4c.1-.1.1-.2.3-.3a.6.6,0,0,1,.4-.1h0c.2,0,.3.1.5.2C113.4,13.2,113.5,13.3,113.5,13.5Z"/></g><g class="cls-5"><path d="M115.8,13.5a.63.63,0,0,1-.1.4c-.1.1-.2.2-.3.2a.3.3,0,0,1-.4,0c-.1,0-.2-.1-.3-.2s-.2-.2-.2-.3v-.4c.1-.1.1-.2.2-.3s.2-.1.4-.1h0c.2,0,.3.1.5.2S115.8,13.3,115.8,13.5Z"/></g><g class="cls-5"><path d="M118.1,13.5a.63.63,0,0,1-.1.4c-.1.1-.2.2-.3.2a.3.3,0,0,1-.4,0c-.1,0-.2-.1-.3-.2s-.2-.2-.2-.3v-.4c.1-.1.1-.2.2-.3s.2-.1.4-.1h0c.2,0,.3.1.5.2S118.1,13.3,118.1,13.5Z"/></g></g><path class="cls-6" d="M103.3,60.6c0,.1-11.6.2-25.8.2s-25.8-.1-25.8-.2,11.6-.2,25.8-.2S103.3,60.5,103.3,60.6Z"/><path class="cls-7" d="M103.3,66.1c0,.1-11.6.2-25.8.2s-25.8-.1-25.8-.2,11.6-.2,25.8-.2S103.3,66,103.3,66.1Z"/><path class="cls-7" d="M103.3,71.6c0,.1-11.6.2-25.8.2s-25.8-.1-25.8-.2,11.6-.2,25.8-.2S103.3,71.5,103.3,71.6Z"/><path class="cls-7" d="M82.1,77.1a4.83,4.83,0,0,1-1.2.1l-3.3.1c-2.8,0-6.6.1-10.8.1s-8,0-10.8-.1l-3.2-.1a4.83,4.83,0,0,1-1.2-.1,4.83,4.83,0,0,1,1.2-.1l3.3-.1c2.8,0,6.6-.1,10.8-.1s8,0,10.8.1L81,77C81.3,77,81.7,77.1,82.1,77.1Z"/><g class="cls-8"><path class="cls-2" d="M112.7,33.8H1.5v74.4H112.7Z"/><path class="cls-3" d="M112.7,108V87.8c0-12.9,0-31.4-.1-53.9l.2.2H1.9L2,34v74l-.2-.2,79.8.1h.1l-80.1.2H1.5V33.8H112.8V34c0,22.6-.1,41.1-.1,54Z"/><path class="cls-3" d="M1.5,40.4c0-.1,24.9-.2,55.5-.2s55.5.1,55.5.2-24.9.2-55.5.2S1.5,40.5,1.5,40.4Z"/><g class="cls-5"><path d="M5.9,37.1a.72.72,0,0,1-.2.5c-.1.1-.2.3-.4.3s-.3.1-.5.1-.3-.1-.5-.2a1.69,1.69,0,0,1-.2-.5.8.8,0,0,1,.1-.5,1.5,1.5,0,0,1,.3-.4.74.74,0,0,1,.5-.1H5a.7.7,0,0,1,.6.3C5.8,36.6,5.9,36.9,5.9,37.1Z"/></g><g class="cls-5"><path d="M9,37.1c0,.2-.1.3-.2.5s-.2.3-.4.3a.85.85,0,0,1-.5.1c-.2,0-.3-.1-.5-.2a.82.82,0,0,1-.2-.5.8.8,0,0,1,.1-.5,1.5,1.5,0,0,1,.3-.4.74.74,0,0,1,.5-.2h0a.7.7,0,0,1,.6.3A.59.59,0,0,1,9,37.1Z"/></g><g class="cls-5"><path d="M11.9,37.1c0,.2-.1.3-.2.5s-.2.3-.4.3a.62.62,0,0,1-.4.1c-.2,0-.3-.1-.5-.2a.82.82,0,0,1-.2-.5.8.8,0,0,1,.1-.5,1.5,1.5,0,0,1,.3-.4.74.74,0,0,1,.5-.2h0a.7.7,0,0,1,.6.3A.83.83,0,0,1,11.9,37.1Z"/></g><path class="cls-4" d="M40.7,48.2H11.1V77.9H40.7Z"/><path class="cls-4" d="M26.8,87.9H12.9v13.9H26.8Z"/></g><path class="cls-7" d="M58,91.9H44v13.9H57.9Z"/><path class="cls-7" d="M83.2,91.9H69.3v13.9H83.2Z"/><path class="cls-7" d="M108.5,91.9H94.6v13.9h13.9Z"/><path class="cls-7" d="M198.3,28.3c0,.1-11.9.2-26.6.2s-26.6-.1-26.6-.2,11.9-.1,26.6-.1S198.3,28.2,198.3,28.3Z"/><path class="cls-7" d="M198.3,33c0,.1-11.9.2-26.6.2s-26.6-.1-26.6-.2,11.9-.1,26.6-.1S198.3,32.9,198.3,33Z"/><path class="cls-9" d="M42.4,62.1H418.7a3.71,3.71,0,0,1,2.4,1,3.48,3.48,0,0,1,1,2.4V308.6a7.53,7.53,0,0,1-2.1,5.1,7.36,7.36,0,0,1-5.1,2.1H45.8a7.53,7.53,0,0,1-5.1-2.1,7.36,7.36,0,0,1-2.1-5.1h0V65.9a3.76,3.76,0,0,1,3.72-3.8Z"/><path class="cls-9" d="M22.5,297H437.9v15.4a7.46,7.46,0,0,1-.5,2.6,5.38,5.38,0,0,1-1.5,2.2,8.49,8.49,0,0,1-2.2,1.5,7.46,7.46,0,0,1-2.6.5H29.3a7.46,7.46,0,0,1-2.6-.5,5.38,5.38,0,0,1-2.2-1.5A8.49,8.49,0,0,1,23,315a7.46,7.46,0,0,1-.5-2.6Z"/><path class="cls-3" d="M411.2,74H49.4V288.2H411.2Z"/><path class="cls-10" d="M192.5,297l5.2,8.2h72.5L275,297Z"/><path class="cls-7" d="M85.8,280.4c-.2,0-.3-43-.3-96s.1-96,.3-96,.3,43,.3,96S85.9,280.4,85.8,280.4Z"/><polygon class="cls-10" points="22.5 297 230.2 296.8 437.9 297 230.2 297.2 22.5 297"/><path class="cls-7" d="M78.9,105.9c0,.2-2.5.3-5.5.3s-5.5-.1-5.5-.3,2.5-.3,5.5-.3S78.9,105.7,78.9,105.9Z"/><path class="cls-7" d="M79.3,95c0,.2-2.5.3-5.5.3s-5.5-.1-5.5-.3,2.5-.3,5.5-.3S79.3,94.8,79.3,95Z"/><path class="cls-7" d="M78.9,117.6c0,.2-2.5.3-5.5.3s-5.5-.1-5.5-.3,2.5-.3,5.5-.3A31.6,31.6,0,0,1,78.9,117.6Z"/><path class="cls-7" d="M78.9,129.4c0,.2-2.5.3-5.5.3s-5.5-.1-5.5-.3,2.5-.3,5.5-.3S78.9,129.2,78.9,129.4Z"/><path class="cls-7" d="M78.9,141.1c0,.2-2.5.3-5.5.3s-5.5-.1-5.5-.3,2.5-.3,5.5-.3S78.9,140.9,78.9,141.1Z"/><path class="cls-7" d="M78.9,152.9c0,.2-2.5.3-5.5.3a35,35,0,0,1-5.6-.3c0-.2,2.5-.3,5.5-.3S78.9,152.7,78.9,152.9Z"/><path class="cls-7" d="M78.9,164.6c0,.2-2.5.3-5.5.3s-5.5-.1-5.5-.3,2.5-.3,5.5-.3S78.9,164.4,78.9,164.6Z"/><path class="cls-7" d="M78.9,176.3c0,.2-2.5.3-5.5.3s-5.5-.1-5.5-.3,2.5-.3,5.5-.3A31.6,31.6,0,0,1,78.9,176.3Z"/><path class="cls-7" d="M78.9,188.1c0,.2-2.5.3-5.5.3s-5.5-.1-5.5-.3,2.5-.3,5.5-.3S78.9,187.9,78.9,188.1Z"/><path class="cls-7" d="M78.9,199.8c0,.2-2.5.3-5.5.3s-5.6-.1-5.6-.3,2.5-.3,5.5-.3S78.9,199.6,78.9,199.8Z"/><path class="cls-7" d="M78.9,211.6c0,.2-2.5.3-5.5.3s-5.5-.1-5.5-.3,2.5-.3,5.5-.3S78.9,211.4,78.9,211.6Z"/><path class="cls-7" d="M78.9,223.3c0,.2-2.5.3-5.5.3s-5.5-.1-5.5-.3,2.5-.3,5.5-.3S78.9,223.1,78.9,223.3Z"/><path class="cls-7" d="M78.9,235c0,.2-2.5.3-5.5.3s-5.6-.1-5.6-.3,2.5-.3,5.5-.3A32.76,32.76,0,0,1,78.9,235Z"/><path class="cls-7" d="M78.9,246.8c0,.2-2.5.3-5.5.3s-5.5-.1-5.5-.3,2.5-.3,5.5-.3S78.9,246.6,78.9,246.8Z"/><path class="cls-7" d="M78.9,258.5c0,.2-2.5.3-5.5.3s-5.5-.1-5.5-.3,2.5-.3,5.5-.3S78.9,258.3,78.9,258.5Z"/><path class="cls-7" d="M78.9,270.2c0,.2-2.5.3-5.5.3s-5.5-.1-5.5-.3,2.5-.3,5.5-.3A31.6,31.6,0,0,1,78.9,270.2Z"/><path class="cls-11" d="M123.3,105.2c0,.2-6.4.3-14.4.3s-14.4-.1-14.4-.3,6.4-.3,14.4-.3S123.3,105,123.3,105.2Z"/><path class="cls-11" d="M123.3,270.2c0,.2-6.4.3-14.4.3s-14.4-.1-14.4-.3,6.4-.3,14.4-.3S123.3,270.1,123.3,270.2Z"/><path class="cls-11" d="M164.5,139.7c0,.2-12,.3-26.9.3s-26.9-.1-26.9-.3,12.1-.3,26.9-.3S164.5,139.5,164.5,139.7Z"/><path class="cls-11" d="M225.6,139.7c0,.2-12.1.3-26.9.3s-26.9-.1-26.9-.3,12-.3,26.9-.3S225.6,139.5,225.6,139.7Z"/><path class="cls-7" d="M201.8,149c0,.2-17.8.3-39.7.3s-39.7-.1-39.7-.3,17.8-.3,39.7-.3S201.8,148.8,201.8,149Z"/><path class="cls-7" d="M201.8,160.7c0,.2-17.8.3-39.7.3s-39.7-.1-39.7-.3,17.8-.3,39.7-.3S201.8,160.5,201.8,160.7Z"/><path class="cls-7" d="M256.4,188.1c0,.2-17.8.3-39.7.3s-39.7-.1-39.7-.3,17.8-.3,39.7-.3S256.4,187.9,256.4,188.1Z"/><path class="cls-7" d="M232.9,164.6c0,.2-17.8.3-39.7.3s-39.7-.1-39.7-.3,17.8-.3,39.7-.3S232.9,164.4,232.9,164.6Z"/><path class="cls-7" d="M329.8,164.6c0,.2-17.8.3-39.7.3s-39.7-.1-39.7-.3,17.8-.3,39.7-.3S329.8,164.4,329.8,164.6Z"/><path class="cls-12" d="M296.1,141.1c0,.2-17.8.3-39.7.3s-39.6-.2-39.6-.3,17.8-.3,39.7-.3S296.1,140.9,296.1,141.1Z"/><path class="cls-12" d="M350.9,188.1c0,.2-17.8.3-39.7.3s-39.7-.1-39.7-.3,17.8-.3,39.7-.3S350.9,187.9,350.9,188.1Z"/><path class="cls-7" d="M339.9,152.9c0,.2-27.6.3-61.6.3s-61.6-.1-61.6-.3,27.6-.3,61.6-.3S339.9,152.7,339.9,152.9Z"/><path class="cls-12" d="M123.3,117.6c0,.2-6.4.3-14.4.3s-14.4-.1-14.4-.3,6.4-.3,14.4-.3S123.3,117.5,123.3,117.6Z"/><path class="cls-12" d="M123.3,258.5c0,.2-6.4.3-14.4.3s-14.4-.1-14.4-.3,6.4-.3,14.4-.3S123.3,258.3,123.3,258.5Z"/><path class="cls-12" d="M137.6,172.5c0,.2-6.4.3-14.4.3s-14.4-.1-14.4-.3,6.4-.3,14.4-.3S137.6,172.3,137.6,172.5Z"/><path class="cls-11" d="M368.1,164.6c0,.2-6.4.3-14.4.3s-14.4-.1-14.4-.3,6.4-.3,14.4-.3S368.1,164.4,368.1,164.6Z"/><path class="cls-11" d="M163.4,211.5c0,.2-12,.3-26.9.3s-26.9-.1-26.9-.3,12.1-.3,26.9-.3S163.4,211.3,163.4,211.5Z"/><path class="cls-7" d="M225.6,211.5c0,.2-12.1.3-26.9.3s-26.9-.1-26.9-.3,12-.3,26.9-.3S225.6,211.3,225.6,211.5Z"/><path class="cls-7" d="M201.8,223.2c0,.2-17.8.3-39.7.3s-39.7-.1-39.7-.3,17.8-.3,39.7-.3S201.8,223,201.8,223.2Z"/><path class="cls-7" d="M201.8,235c0,.2-17.8.3-39.7.3s-39.7-.1-39.7-.3,17.8-.3,39.7-.3S201.8,234.8,201.8,235Z"/><path class="cls-7" d="M232.9,246.7c0,.2-17.8.3-39.7.3s-39.7-.1-39.7-.3,17.8-.3,39.7-.3S232.9,246.5,232.9,246.7Z"/><path class="cls-7" d="M329.8,246.7c0,.2-17.8.3-39.7.3s-39.7-.1-39.7-.3,17.8-.3,39.7-.3S329.8,246.5,329.8,246.7Z"/><path class="cls-12" d="M296.1,223.2c0,.2-17.8.3-39.7.3s-39.7-.1-39.7-.3,17.8-.3,39.7-.3S296.1,223,296.1,223.2Z"/><path class="cls-13" d="M339.9,235c0,.2-27.6.3-61.6.3s-61.6-.2-61.6-.3,27.6-.3,61.6-.3S339.9,234.8,339.9,235Z"/><path class="cls-12" d="M137.6,246.7c0,.2-6.4.3-14.4.3s-14.4-.1-14.4-.3,6.4-.3,14.4-.3S137.6,246.5,137.6,246.7Z"/><path class="cls-11" d="M368.1,246.7c0,.2-6.4.3-14.4.3s-14.4-.1-14.4-.3,6.4-.3,14.4-.3S368.1,246.5,368.1,246.7Z"/><path class="cls-2" d="M332.2,8.1H136.6V129.3H301.3l10.2,23.5,9-23.5h11.7V8.1Z"/><path class="cls-13" d="M332.2,8.1c0,1.2.1,46.7.1,121.1v.1H320.5l.1-.1c-2.8,7.3-5.9,15.3-9,23.5l-.1.4-.2-.4-10.2-23.4.2.1H136.4V7.9h.2l195.6.2-195.6.1.2-.2V129.1l-.2-.2H301.4v.1l10.2,23.5h-.3c3.2-8.2,6.2-16.1,9-23.4V129h11.8l-.1.1C332.1,54.7,332.2,9.2,332.2,8.1Z"/><path class="cls-13" d="M341.3,19.9c0,.1-43.7.3-97.6.3s-97.6-.1-97.6-.3,43.7-.3,97.6-.3S341.3,19.8,341.3,19.9Z"/><path class="cls-13" d="M156.2,14.6a1.62,1.62,0,0,1-.3.9,1.33,1.33,0,0,1-.7.6,1.4,1.4,0,0,1-.9.1,2,2,0,0,1-.8-.4,1.23,1.23,0,0,1-.4-.8,1.4,1.4,0,0,1,.1-.9,1.33,1.33,0,0,1,.6-.7,1.47,1.47,0,0,1,2,.2,1.16,1.16,0,0,1,.4,1Z"/><path class="cls-13" d="M162,14.6a1.62,1.62,0,0,1-.3.9,1.33,1.33,0,0,1-.7.6,1.4,1.4,0,0,1-.9.1,2,2,0,0,1-.8-.4,1.23,1.23,0,0,1-.4-.8,1.4,1.4,0,0,1,.1-.9,1.33,1.33,0,0,1,.6-.7,1.47,1.47,0,0,1,2,.2A1.34,1.34,0,0,1,162,14.6Z"/><path class="cls-13" d="M167.8,14.6a1.62,1.62,0,0,1-.3.9,1.33,1.33,0,0,1-.7.6,1.4,1.4,0,0,1-.9.1,2,2,0,0,1-.8-.4,1.23,1.23,0,0,1-.4-.8,1.4,1.4,0,0,1,.1-.9,1.33,1.33,0,0,1,.6-.7,1.47,1.47,0,0,1,2,.2,1.16,1.16,0,0,1,.4,1Z"/><path class="cls-14" d="M157.9,41.6l-4.6,1.8,4.6,1.8v1.1L152.1,44V42.9l5.8-2.3Z"/><path class="cls-14" d="M162.8,37h1.1l-4.3,12.3h-1.1Z"/><path class="cls-14" d="M170.2,42.8V44l-5.9,2.3V45.2l4.7-1.8-4.7-1.8V40.5Z"/><path class="cls-14" d="M171.7,47.1a.37.37,0,0,1,.1-.3c0-.1.1-.2.2-.3s.2-.1.3-.2a.37.37,0,0,1,.3-.1h0a.37.37,0,0,1,.3.1c.1,0,.2.1.3.2s.1.2.2.3a.37.37,0,0,1,.1.3h0a.37.37,0,0,1-.1.3c0,.1-.1.2-.2.3s-.2.2-.3.2-.2.1-.3.1h0a.37.37,0,0,1-.3-.1c-.1,0-.2-.1-.3-.2s-.1-.2-.2-.3S171.7,47.3,171.7,47.1Z"/><path class="cls-14" d="M174.6,47.1a.37.37,0,0,1,.1-.3c0-.1.1-.2.2-.3s.2-.1.3-.2a.37.37,0,0,1,.3-.1h0a.37.37,0,0,1,.3.1c.1,0,.2.1.3.2s.1.2.2.3a.37.37,0,0,1,.1.3h0a.37.37,0,0,1-.1.3c0,.1-.1.2-.2.3s-.2.2-.3.2-.2.1-.3.1h0a.37.37,0,0,1-.3-.1c-.1,0-.2-.1-.3-.2s-.1-.2-.2-.3A.41.41,0,0,1,174.6,47.1Z"/><path class="cls-14" d="M177.6,47.1a.37.37,0,0,1,.1-.3c0-.1.1-.2.2-.3s.2-.1.3-.2a.37.37,0,0,1,.3-.1h0a.37.37,0,0,1,.3.1c.1,0,.2.1.3.2s.1.2.2.3a.37.37,0,0,1,.1.3h0a.37.37,0,0,1-.1.3c0,.1-.1.2-.2.3s-.2.2-.3.2-.2.1-.3.1h0a.37.37,0,0,1-.3-.1c-.1,0-.2-.1-.3-.2s-.1-.2-.2-.3S177.6,47.3,177.6,47.1Z"/><path class="cls-9" d="M281.5,58.9c0,.1-28.9.3-64.6.3s-64.6-.1-64.6-.3,28.9-.3,64.6-.3S281.5,58.8,281.5,58.9Z"/><path class="cls-10" d="M302.5,59.3a40.18,40.18,0,0,1-6.2.3c-3.4,0-6.2-.1-6.2-.3a40.18,40.18,0,0,1,6.2-.3C299.7,59,302.5,59.1,302.5,59.3Z"/><path class="cls-10" d="M320.7,59.3a48.3,48.3,0,0,1-6.8.3c-3.7,0-6.8-.1-6.8-.3a48.3,48.3,0,0,1,6.8-.3C317.6,59,320.7,59.1,320.7,59.3Z"/><path class="cls-9" d="M234.5,69.8c0,.1-18.4.3-41,.3s-41-.1-41-.3,18.4-.3,41-.3S234.5,69.6,234.5,69.8Z"/><path class="cls-2" d="M234,110.4c0,.1-18.4.3-41,.3s-41-.1-41-.3,18.4-.3,41-.3S234,110.2,234,110.4Z"/><path class="cls-10" d="M264.4,69.8c0,.1-5,.3-11.2.3S242,70,242,69.8s5-.3,11.2-.3S264.4,69.6,264.4,69.8Z"/><path class="cls-10" d="M264.1,110.4c0,.1-5,.3-11.2.3s-11.2-.1-11.2-.3,5-.3,11.2-.3S264.1,110.2,264.1,110.4Z"/><path class="cls-9" d="M157.8,75.3a8.29,8.29,0,0,1-2.8.3c-1.5,0-2.8-.1-2.8-.3A8.29,8.29,0,0,1,155,75,13.19,13.19,0,0,1,157.8,75.3Z"/><path class="cls-9" d="M176.9,75.4a37.64,37.64,0,0,1-6,.3c-3.3,0-6-.1-6-.3a37.64,37.64,0,0,1,6-.3C174.2,75.2,176.9,75.3,176.9,75.4Z"/><path class="cls-9" d="M189.1,75.4a28.27,28.27,0,0,1-5.2.3c-2.8,0-5.2-.1-5.2-.3a28.27,28.27,0,0,1,5.2-.3A28.27,28.27,0,0,1,189.1,75.4Z"/><path class="cls-9" d="M204.6,75.4a28.27,28.27,0,0,1-5.2.3c-2.8,0-5.2-.1-5.2-.3A45.22,45.22,0,0,1,204.6,75.4Z"/><path class="cls-10" d="M218.2,75.4a24.11,24.11,0,0,1-4.8.3c-2.6,0-4.8-.1-4.8-.3a24.11,24.11,0,0,1,4.8-.3A38.54,38.54,0,0,1,218.2,75.4Z"/><path class="cls-10" d="M263,75.4c0,.1-9.4.3-21,.3s-21-.1-21-.3,9.4-.3,21-.3S263,75.3,263,75.4Z"/><path class="cls-9" d="M157.1,82.4a6.5,6.5,0,0,1-2.4.3c-1.3,0-2.4-.1-2.4-.3s1.1-.3,2.4-.3S157.1,82.2,157.1,82.4Z"/><path class="cls-9" d="M157.3,89.6a6.64,6.64,0,0,1-2.5.3c-1.4,0-2.5-.1-2.5-.3s1.1-.3,2.5-.3A10.55,10.55,0,0,1,157.3,89.6Z"/><path class="cls-9" d="M157.3,97.8a6.64,6.64,0,0,1-2.5.3c-1.4,0-2.5-.1-2.5-.3s1.1-.3,2.5-.3A10.55,10.55,0,0,1,157.3,97.8Z"/><path class="cls-9" d="M202.5,97.5c0,.1-8.3.3-18.5.3s-18.5-.1-18.5-.3,8.3-.3,18.5-.3S202.5,97.3,202.5,97.5Z"/><path class="cls-9" d="M199.3,89.6c0,.1-7.9.3-17.7.3s-17.7-.1-17.7-.3,7.9-.3,17.7-.3S199.3,89.5,199.3,89.6Z"/><path class="cls-9" d="M284.6,82c0,.1-26.9.3-60.1.3s-60.1-.1-60.1-.3,26.9-.3,60.1-.3S284.6,81.9,284.6,82Z"/><path class="cls-2" d="M393.3,84.8v103l-16,13.4H461V84.8Z"/><path class="cls-13" d="M393.3,84.8h18.2l49.5-.1h.1V201.3H376.7l.4-.3,16-13.3-.1.1c0-30.8.1-56.5.1-74.6v.2c0,18,0,43.8.1,74.5v.1h-.1l-16,13.4-.1-.3h83.7l-.2.2V85l.1.1-49.3-.2h-17Z"/><path class="cls-13" d="M390.4,89.9a2.41,2.41,0,0,1-.2.8,2.62,2.62,0,0,1-.6.5,2.18,2.18,0,0,1-.8.1,1.53,1.53,0,0,1-1.1-1.1,1.12,1.12,0,0,1,.1-.8,1,1,0,0,1,.5-.6,1.09,1.09,0,0,1,.8-.2,1.29,1.29,0,0,1,1,.4,2.4,2.4,0,0,1,.3.9Z"/><path class="cls-13" d="M395.3,89.9a2.41,2.41,0,0,1-.2.8,2.62,2.62,0,0,1-.6.5,2.18,2.18,0,0,1-.8.1,1.53,1.53,0,0,1-1.1-1.1,1.12,1.12,0,0,1,.1-.8,1,1,0,0,1,.5-.6,1.09,1.09,0,0,1,.8-.2h0a1.29,1.29,0,0,1,1,.4,1.4,1.4,0,0,1,.3.9Z"/><path class="cls-13" d="M400.3,89.9a2.41,2.41,0,0,1-.2.8,1.46,1.46,0,0,1-.6.5,2,2,0,0,1-.8.1,1.53,1.53,0,0,1-1.1-1.1,1.12,1.12,0,0,1,.1-.8,1,1,0,0,1,.5-.6,1.09,1.09,0,0,1,.8-.2.74.74,0,0,1,.5.1,1.31,1.31,0,0,1,.4.3c.1.1.2.3.3.4a1.09,1.09,0,0,1,.1.5Z"/><path class="cls-9" d="M442.4,121.7c0,.1-8.6.2-19.2.2s-19.2-.1-19.2-.2,8.6-.2,19.2-.2S442.4,121.5,442.4,121.7Z"/><path class="cls-9" d="M450.4,131c0,.1-10.4.2-23.3.2s-23.3-.1-23.3-.2,10.4-.2,23.3-.2S450.4,130.9,450.4,131Z"/><path class="cls-9" d="M452.3,165.7c0,.1-11.1.2-24.9.2s-24.9-.1-24.9-.2,11.1-.2,24.9-.2S452.3,165.6,452.3,165.7Z"/><path class="cls-9" d="M408.4,135.7a14.32,14.32,0,0,1-4.8,0A14.32,14.32,0,0,1,408.4,135.7Z"/><path class="cls-9" d="M414.9,135.8a64.32,64.32,0,0,1-10.2,0A64.32,64.32,0,0,1,414.9,135.8Z"/><path class="cls-9" d="M425.4,135.8a47.9,47.9,0,0,1-8.8,0A47.9,47.9,0,0,1,425.4,135.8Z"/><path class="cls-9" d="M407.7,141.8a10,10,0,0,1-4,0,5.42,5.42,0,0,1,2-.2C406.8,141.6,407.7,141.6,407.7,141.8Z"/><path class="cls-9" d="M407.9,148a6.18,6.18,0,0,1-2.1.2,5.94,5.94,0,0,1-2.1-.2,5.94,5.94,0,0,1,2.1-.2C406.9,147.7,407.9,147.8,407.9,148Z"/><path class="cls-9" d="M407.9,155a6.18,6.18,0,0,1-2.1.2,5.94,5.94,0,0,1-2.1-.2,5.94,5.94,0,0,1,2.1-.2A6.18,6.18,0,0,1,407.9,155Z"/><path class="cls-9" d="M445.9,154.7c0,.1-7.1.2-15.8.2s-15.8-.1-15.8-.2,7.1-.2,15.8-.2S445.9,154.5,445.9,154.7Z"/><path class="cls-9" d="M443.1,148c0,.1-6.8.2-15.1.2s-15.1-.1-15.1-.2,6.8-.2,15.1-.2S443.1,147.8,443.1,148Z"/><path class="cls-9" d="M411,175a11,11,0,0,1-4.2,0A11,11,0,0,1,411,175Z"/><path class="cls-9" d="M411,182a11,11,0,0,1-4.2,0A11,11,0,0,1,411,182Z"/><path class="cls-3" d="M232.3,24.9c-28.4,3.4-30.1,26.9-30.1,27-1,3.1-.4,3.6-.3,6.3.1,1,.5.9,1,2,.3,1.3,2.7,5.9,6.7,4.6,0,0,10.7,9.9,1.6,10.4-1.8.1,8.2,10.9,6.9,10.6.5,4.1-.8-2.5.7,1.4,2.3,5.8-12.4,9.9-5.9,10.9L273,69.4C286,42.1,248,23.5,232.3,24.9Z"/><path class="cls-9" d="M449,181.7c0,.1-7.1.2-15.8.2s-15.8-.1-15.8-.2,7.1-.2,15.8-.2S449,181.6,449,181.7Z"/><path class="cls-9" d="M446.2,175c0,.1-6.8.2-15.1.2s-15.1-.1-15.1-.2,6.8-.2,15.1-.2S446.2,174.9,446.2,175Z"/><path class="cls-9" d="M454.4,141.4c0,.1-9.2.2-20.6.2s-20.6-.1-20.6-.2,9.2-.2,20.6-.2S454.4,141.3,454.4,141.4Z"/><path class="cls-13" d="M460.4,95.3c0,.1-14.9.2-33.2.2s-33.2-.1-33.2-.2,14.9-.2,33.2-.2S460.4,95.2,460.4,95.3Z"/><path class="cls-9" d="M418.8,116a121.09,121.09,0,0,1-14,0A121.09,121.09,0,0,1,418.8,116Z"/><path class="cls-9" d="M410.8,103.3a27,27,0,0,1-6.6,0,14.61,14.61,0,0,1,3.3-.2A14.05,14.05,0,0,1,410.8,103.3Z"/><path class="cls-15" d="M201.7,70.4l5.1,85.9c.9,14.6,5.1,35.9,28.2,33.5,19.8-3.6,23.8-22.9,22.9-36.6-.4-6.5-.7-11.9-.7-12.5h0c18.5-6.9,20.8-17.6,21.6-41.3.1-10.5-.9-16-2.4-35.6a40.42,40.42,0,0,0-12.9-26.5,41.09,41.09,0,0,0-27.4-10.8H234C211.3,27.9,199.8,47.8,201.7,70.4Z"/><path class="cls-16" d="M257.2,140.7s-13.7.8-28.3-8.4c0,0,6.9,15.9,28.6,13.9Z"/><path class="cls-15" d="M268.8,152.8l-12.5-4.6-47.6-1.4-11.1,3,1.4,26.9,25,15.9,24.3-.5,15.3-13.9,3.4-13.8Z"/><path class="cls-17" d="M127.5,194.1a172.5,172.5,0,0,1,10-17.8,41.39,41.39,0,0,1,25.7-18.1l40-10.8s2.7,27,30.2,27,28-25,28-25l50.3,18.4c1.6.6,12.3,4.3,24.8,31.1,11.9,25.5,17.1,38.5,17.1,38.5l-47.5,12.8-3.2,43.9,1,24.5-144.6-.3.8-28-.7-46.3-3,5.7-45.2-18.1C111.3,231.5,115.8,218.2,127.5,194.1Z"/><path class="cls-10" d="M158.8,220c-.2,0-.1,15.5.3,34.6s.8,34.6,1.1,34.6.1-15.5-.3-34.6S159,220,158.8,220Z"/><path class="cls-3" d="M254.8,28.5c-7.9-3-15.8-5.1-25.8-3.7-7.6,1.1-13.3,4.6-18.8,8-20.4,11.9-7.3,50.8-7.3,50.8s-3.9-10.1,3.7-15.9c7.4-5.6,5.5-13.7,13.8-18.4,9.7-5.4,18.5-4.6,30.1,1,12.5-9.8,24.4,3.2,25.6,9.7C274.1,37.6,263.1,31.8,254.8,28.5Z"/><path class="cls-3" d="M215.3,30.9c1.7-3.7-.5-8.4-4.3-10s-8.3-.2-11.1,2.7-3,7.2-1.8,10.8c.9,2.6,6,7.2,9.5,4.3"/><path class="cls-18" d="M198,28.2a.72.72,0,0,0,0,.5,4,4,0,0,0,.6,1.4,9.23,9.23,0,0,0,4.1,2.8,8.85,8.85,0,0,0,5-.1,6.42,6.42,0,0,0,1.4-.6,3,3,0,0,0,.4-.3c0-.1-.8.3-1.9.6a7.44,7.44,0,0,1-2.2.3,13.62,13.62,0,0,1-2.7-.3,9.13,9.13,0,0,1-4.1-2.6A3.36,3.36,0,0,1,198,28.2Z"/><path class="cls-18" d="M200.1,23.7a1.71,1.71,0,0,0,.1.5,7,7,0,0,0,.6,1.4,8.74,8.74,0,0,0,3.4,3.6,9.59,9.59,0,0,0,4.7,1.5,6.84,6.84,0,0,0,1.5-.1,2.77,2.77,0,0,1,.5-.1c0-.1-.8.1-2-.1a9.47,9.47,0,0,1-4.5-1.6,10.41,10.41,0,0,1-3.3-3.4A5.6,5.6,0,0,1,200.1,23.7Z"/><path class="cls-17" d="M203.4,39.3a10,10,0,0,0,1.4-1.9,22.28,22.28,0,0,1,4.1-3.9,53.79,53.79,0,0,1,4.8-3.1,8.72,8.72,0,0,0,2.2-1.1,14.23,14.23,0,0,0-2.3.8,19.09,19.09,0,0,0-4.9,3,21.28,21.28,0,0,0-4,4.1A9.68,9.68,0,0,0,203.4,39.3Z"/><path class="cls-18" d="M252.1,42.7a36.55,36.55,0,0,0-3-3.8c-1.1-1.2-2.2-2.4-3.3-3.4a35.05,35.05,0,0,0-7.7-5.6A26.07,26.07,0,0,0,229,27a19.28,19.28,0,0,0-4.8,0,19,19,0,0,0-4.7,1,20.54,20.54,0,0,1,9.5-1.3,24,24,0,0,1,9.3,2.8,36.61,36.61,0,0,1,7.8,5.8A38.81,38.81,0,0,1,252.1,42.7Z"/><path class="cls-18" d="M238.9,36.3a22.11,22.11,0,0,0-3.4-1.8A22.08,22.08,0,0,0,232,33a26.62,26.62,0,0,0-7.4-1.8,24.1,24.1,0,0,0-3.8-.1,22,22,0,0,0-3.7.6,17.19,17.19,0,0,0-6.6,3.7,13.65,13.65,0,0,1,3-2.4,12.61,12.61,0,0,1,3.5-1.6,20,20,0,0,1,7.7-.7,26,26,0,0,1,7.4,2A29.73,29.73,0,0,1,238.9,36.3Z"/><path class="cls-18" d="M254.1,42.7a11.56,11.56,0,0,0-1.2-8.7,16,16,0,0,0-2.9-3.4c-.6-.5-1.2-.9-1.8-1.4a20.56,20.56,0,0,1-1.9-1.3,12.53,12.53,0,0,1,2,1.1,20.56,20.56,0,0,1,1.9,1.3,17,17,0,0,1,3.1,3.4,9.54,9.54,0,0,1,1.4,4.4A8.72,8.72,0,0,1,254.1,42.7Z"/><g class="cls-19"><path class="cls-20" d="M299.7,224.5c-2.3-2.5-5.7-3.3-9-4-37.2-7.6-75.6-4.4-113.3.3-4.7.6-9.8,1.6-12.7,5.4-2,2.7-.7,6.3-.9,9.8-1,17.5,1.3,36.1,4.7,53.3l128.4-2.1c4.4-13.3,5.5-35.9,5.5-51.2C302.5,231.9,302.4,227.5,299.7,224.5Z"/></g><path class="cls-10" d="M308,204.3v2.6c0,1.6,0,4-.1,6.9-.1,5.8-.5,13.9-.9,22.8s-1.1,17-1.5,22.8q-.3,4.35-.6,6.9c-.1.8-.1,1.4-.2,1.9a2.08,2.08,0,0,1-.1.7v-.7c0-.5.1-1.1.1-1.9.1-1.7.2-4,.4-6.9.4-5.9.8-13.9,1.4-22.8s.9-17,1.1-22.8q.15-4.35.3-6.9c0-.8.1-1.4.1-1.9v-.7Z"/><path class="cls-15" d="M350.9,238.1l17.9,39.4a28.29,28.29,0,0,1,3,14h0a28.37,28.37,0,0,1-28.4,27l-55.6-3.2L285.4,290l42.3-10.2s-12.3-10-16.4-31Z"/><path class="cls-15" d="M112,231.9s-10.4,29.2-23.5,61.7a7.82,7.82,0,0,0-.6,2c-2,8.8,4.7,23.5,13.7,23.5l75.2-.7V293.8l-43.4-9.5s12-8.8,20.1-35.8Z"/><path class="cls-16" d="M99.7,291c.1.1,1.6-1,4.2-2.5a39.66,39.66,0,0,1,22.6-5.1c3,.2,4.9.6,4.9.5a5.14,5.14,0,0,0-1.3-.5,23.13,23.13,0,0,0-3.6-.7,34.39,34.39,0,0,0-23,5.2,19.94,19.94,0,0,0-2.9,2.2C100,290.6,99.6,290.9,99.7,291Z"/><path class="cls-15" d="M296.3,288.5H285.4s-24.6-8.9-29.6-8c-4.5.8-21.2,11.8-24.5,14a2,2,0,0,0-.8,1h0a3.6,3.6,0,0,0,.1,2.7,3.9,3.9,0,0,0,1.9,1.9l.3.1-.2.5a4.38,4.38,0,0,0-.2,2,2.35,2.35,0,0,0,4.4,1l-.6,1.2a2,2,0,0,0-.3,1.5l.1,1a2,2,0,0,0,.6,1.5,2.38,2.38,0,0,0,1.3.9,2,2,0,0,0,1.5,0,2.23,2.23,0,0,0,1.3-.8c2.1-2.3,6.7-7,9.8-7.5a66.88,66.88,0,0,1,10.1-.5,3.09,3.09,0,0,1,1.9.6,2.76,2.76,0,0,1,1.2,1.6h0c-1.8.1-14.6,6.8-19.1,9.2a5.23,5.23,0,0,0-1.8,1.5,4.39,4.39,0,0,0-.9,2.1c-.2,1.4.5,2.9,3.3,2.2,6-1.4,16.8-6.4,16.8-6.4s5.6-1.6,9.2,1c5.1,3.6,7.4,4.9,11.8,3.5a43.22,43.22,0,0,0,7.6-3.5l8.6-.9C299.3,311.9,307.4,291.6,296.3,288.5Z"/><path class="cls-15" d="M263.9,292.6a32.35,32.35,0,0,0-4.6-.6,22.68,22.68,0,0,0-10.9,1.9,24.09,24.09,0,0,0-8.9,6.6,29,29,0,0,0-2.7,3.8,3.77,3.77,0,0,1,.5-1.1,19.69,19.69,0,0,1,1.9-2.8,23.2,23.2,0,0,1,9-6.8,23.46,23.46,0,0,1,11.1-1.8,19.52,19.52,0,0,1,3.4.6,1.73,1.73,0,0,1,1.2.2Z"/><path class="cls-15" d="M261.3,286.6a21,21,0,0,0-4.8-.8,21.42,21.42,0,0,0-11.2,3.2,42.8,42.8,0,0,0-9,7.6l-2.5,2.6a7.65,7.65,0,0,1-.9.9,7.18,7.18,0,0,1,.8-1.1,23.63,23.63,0,0,1,2.4-2.7,40.4,40.4,0,0,1,9-7.8,20.91,20.91,0,0,1,11.4-3.1,15.29,15.29,0,0,1,3.6.7,3.64,3.64,0,0,1,.9.4A.76.76,0,0,0,261.3,286.6Z"/><path class="cls-15" d="M160.9,289.2h10.9s24.6-8.9,29.6-8c4.5.8,21.2,11.8,24.5,14a2,2,0,0,1,.8,1h0a3.6,3.6,0,0,1-.1,2.7,4.36,4.36,0,0,1-1.9,1.9l-.3.1.1.5a6.47,6.47,0,0,1,.3,2,2.37,2.37,0,0,1-4.4,1l.6,1.1a2,2,0,0,1,.3,1.5l-.1,1a2,2,0,0,1-.6,1.5,2.38,2.38,0,0,1-1.3.9h0a2,2,0,0,1-1.5,0,2.23,2.23,0,0,1-1.3-.8c-2.1-2.3-6.7-7-9.8-7.5a66.88,66.88,0,0,0-10.1-.5,3.09,3.09,0,0,0-1.9.6,2.76,2.76,0,0,0-1.2,1.6h0c1.8.1,14.6,6.8,19.1,9.2a5.23,5.23,0,0,1,1.8,1.5,4.39,4.39,0,0,1,.9,2.1c.2,1.4-.5,2.9-3.3,2.2-6-1.4-16.8-6.4-16.8-6.4s-5.6-1.6-9.2,1c-5.1,3.6-7.4,4.9-11.8,3.5a43.22,43.22,0,0,1-7.6-3.5l-8.6-.9C157.9,312.6,149.8,292.3,160.9,289.2Z"/><path class="cls-15" d="M193.3,293.4a32.35,32.35,0,0,1,4.6-.6,24,24,0,0,1,19.8,8.5,29,29,0,0,1,2.7,3.8,3.77,3.77,0,0,0-.5-1.1,19.69,19.69,0,0,0-1.9-2.8,23.2,23.2,0,0,0-9-6.8,23.46,23.46,0,0,0-11.1-1.8,19.52,19.52,0,0,0-3.4.6,1.73,1.73,0,0,0-1.2.2Z"/><path class="cls-15" d="M195.9,287.4a21,21,0,0,1,4.8-.8,21.42,21.42,0,0,1,11.2,3.2,42.8,42.8,0,0,1,9,7.6l2.5,2.6.9.9a4,4,0,0,0-.8-1,23.63,23.63,0,0,0-2.4-2.7,43.49,43.49,0,0,0-9-7.8,20.91,20.91,0,0,0-11.4-3.1,15.29,15.29,0,0,0-3.6.7,3.64,3.64,0,0,0-.9.4C196,287.3,195.9,287.4,195.9,287.4Z"/><path class="cls-10" d="M178.1,319.2h-.3a2.74,2.74,0,0,1-.9-.1,6.37,6.37,0,0,1-3.2-1.5,6.54,6.54,0,0,1-1.7-2.3,7.11,7.11,0,0,1-.6-2.8c-.1-2.3-.2-4.9-.4-7.9-.5-11.9-1.2-29.1-2.1-50.4-.2-5.3-.5-10.9-.7-16.7-.1-2.9-.2-5.9-.4-8.9,0-.8-.1-1.5-.1-2.3a8.6,8.6,0,0,1,.5-2.3,6.79,6.79,0,0,1,5.5-4.1,19.22,19.22,0,0,1,2.4,0H305.9a8,8,0,0,1,3.1.5,6.73,6.73,0,0,1,2.6,1.8,9.1,9.1,0,0,1,1.6,2.7,7.61,7.61,0,0,1,.3,3l-.1,3c-.1,2-.2,4-.3,5.9-.3,7.9-.7,15.7-1,23.4-.7,15.3-1.3,30.1-1.9,44.1-.1,1.8-.2,3.5-.2,5.2,0,.9-.1,1.7-.1,2.6a11.33,11.33,0,0,1-.3,2.6,6.65,6.65,0,0,1-2.2,3.3,6.9,6.9,0,0,1-3.6,1.6c-.9.1-1.7,0-2.5.1H247.1l-50.4-.1-13.7-.1h-3.6a4.82,4.82,0,0,0-1.3-.3h4.8l13.7-.1L247,319h54.2a23.22,23.22,0,0,0,2.5-.1,6.15,6.15,0,0,0,2.3-.7,6.52,6.52,0,0,0,3-3.7,10.55,10.55,0,0,0,.3-2.5c0-.9.1-1.7.1-2.6.1-1.7.1-3.5.2-5.2.6-14.1,1.2-28.8,1.9-44.2.4-7.7.7-15.5,1-23.4l.3-6,.1-3a9.42,9.42,0,0,0-.2-2.9,7.81,7.81,0,0,0-1.4-2.5,5.74,5.74,0,0,0-2.4-1.6,7,7,0,0,0-2.9-.4H173.8a6,6,0,0,0-3.1,1.2,7.57,7.57,0,0,0-2.1,2.6,8,8,0,0,0-.5,2.1,19.57,19.57,0,0,0,.1,2.3c.1,3,.2,6,.4,8.9.2,5.8.5,11.4.7,16.7.8,21.3,1.5,38.5,2,50.4.1,3,.2,5.6.3,7.9a6.74,6.74,0,0,0,.6,2.8,6.54,6.54,0,0,0,1.7,2.3A7.79,7.79,0,0,0,177,319,4.63,4.63,0,0,0,178.1,319.2Z"/><path class="cls-17" d="M203.1,147.4a6.54,6.54,0,0,1,3.2.1l-3.1.8Z"/><path class="cls-17" d="M261.4,149.4a20.29,20.29,0,0,0-3.7-.7l3.7,1.4Z"/><path class="cls-9" d="M178.1,319.2H303a7,7,0,0,0,4.6-1.8,6.49,6.49,0,0,0,2-4.5l3.7-85.9a6.86,6.86,0,0,0-1.7-4.8,6.24,6.24,0,0,0-4.6-2.1H174.6a6.92,6.92,0,0,0-2.5.5,7.48,7.48,0,0,0-2.2,1.4,5.67,5.67,0,0,0-1.4,2.2,7.37,7.37,0,0,0-.5,2.5v.3l3.5,85.9a6.49,6.49,0,0,0,6.6,6.3Z"/><path class="cls-14" d="M233.8,271.1a7,7,0,0,0,1.1,3.8,6.4,6.4,0,0,0,3.1,2.5,6.69,6.69,0,0,0,4,.4,6.91,6.91,0,0,0,2.5-12.5,6.34,6.34,0,0,0-3.8-1.2h0a7.46,7.46,0,0,0-2.6.5,5.38,5.38,0,0,0-2.2,1.5,8.49,8.49,0,0,0-1.5,2.2,7.52,7.52,0,0,0-.6,2.8Z"/><path class="cls-16" d="M327.7,279.7c0,.2,1.9-.1,5-.1a39.2,39.2,0,0,1,11.7,2.1,35.54,35.54,0,0,1,10.5,5.6c2.4,1.9,3.5,3.5,3.7,3.4s-.2-.4-.7-1.2a22,22,0,0,0-2.5-2.7,31,31,0,0,0-10.6-6,32.84,32.84,0,0,0-12-1.8,23,23,0,0,0-3.7.4A5.55,5.55,0,0,0,327.7,279.7Z"/><path class="cls-10" d="M240.1,75.4c-.4.5-3-1.4-6.7-1.2s-6.2,2.1-6.6,1.7c-.2-.2.2-1,1.3-1.9a9.27,9.27,0,0,1,5.3-1.9,8.27,8.27,0,0,1,5.3,1.5C239.9,74.4,240.3,75.2,240.1,75.4Z"/><path class="cls-10" d="M237.4,85.9a3.25,3.25,0,0,1-.8,2.1,2.51,2.51,0,0,1-2,.9,2.47,2.47,0,0,1-2-.7,3,3,0,0,1-1-1.9v-.1a2.8,2.8,0,0,1,.8-2,2.51,2.51,0,0,1,2-.9,2.47,2.47,0,0,1,2,.7A2.55,2.55,0,0,1,237.4,85.9Z"/><path class="cls-10" d="M251,99.9c0-.2,2.1-.5,5.4-1,.9-.1,1.7-.3,1.8-.8a5.58,5.58,0,0,0-.6-2.5l-2.5-6.5c-3.5-9.3-6-16.9-5.6-17s3.5,7.3,7,16.5l2.4,6.5c.3,1,.9,2.1.4,3.3a1.56,1.56,0,0,1-.6.8,2.3,2.3,0,0,1-.8.5,7.38,7.38,0,0,1-1.4.2C253.1,100.1,251,100.1,251,99.9Z"/><path class="cls-10" d="M273.2,74.4c-.4.5-3-1.4-6.7-1.2s-6.2,2.1-6.6,1.7c-.2-.2.2-1,1.3-1.9a9.27,9.27,0,0,1,5.3-1.9,8.9,8.9,0,0,1,5.3,1.5C273,73.4,273.4,74.2,273.2,74.4Z"/><path class="cls-10" d="M268.2,85.2a3.25,3.25,0,0,1-.8,2.1,2.68,2.68,0,0,1-2,.9,4.07,4.07,0,0,1-1.1-.1,3.13,3.13,0,0,1-1-.5,2.14,2.14,0,0,1-.7-.9,2,2,0,0,1-.3-1.1v-.1a3.25,3.25,0,0,1,.8-2.1,2.68,2.68,0,0,1,2-.9,2.47,2.47,0,0,1,2,.7A2.73,2.73,0,0,1,268.2,85.2Z"/><path class="cls-18" d="M248.5,44.7a15.37,15.37,0,0,0-4.6-3.4,9.53,9.53,0,0,0-5.5-1,10.67,10.67,0,0,0-5.1,2.2,39.7,39.7,0,0,0-4.1,4,23.16,23.16,0,0,1-4.5,3.7,12.86,12.86,0,0,1-5.4,2.2,12.64,12.64,0,0,1-5.8-.2,24.93,24.93,0,0,1-5.3-2.3,31.62,31.62,0,0,0,5.4,2.1,12.21,12.21,0,0,0,5.7.1c3.7-.8,6.9-3.2,9.6-6A31.76,31.76,0,0,1,233,42a9.94,9.94,0,0,1,5.4-2.2,10.27,10.27,0,0,1,5.7,1.2A22.27,22.27,0,0,1,248.5,44.7Z"/><path class="cls-3" d="M278.5,105.4c1.9-.2,3.7,2.1,3.8,4.1s-.7,3.8-.8,5.8c-.2,4.1,2.5,7.6,3.8,11.5a17.64,17.64,0,0,1-1.8,15c-2.5,4-7.6,6.9-11.9,4.9a7.93,7.93,0,0,0,2.8,4.9c-1.8,1.3-4.4.8-6.3-.4s-12.6,1.2-14.8,1.2c-15.1-.2-28.4-7.4-34.4-23.6-2-5.5-3-10.5-5-16a108,108,0,0,1-4.2-17c-.3-1.8-.4-4.1,1.2-4.9s3.6,1,4.1,2.8.2,3.9.9,5.6c1.4,3.7,6.3,4.6,10.2,3.8s7.4-1.7,11.3-1.8c8.5-.3,13.8,1.8,23,3,3.2.4,7.2-.7,10.2-1.6s7.2.1,7.9,3.2"/><path class="cls-18" d="M278.5,105.4a3.32,3.32,0,0,1,2.8,1.5,4.52,4.52,0,0,1,1,3.2c-.1,2.2-1.1,4.4-.7,6.7a23.59,23.59,0,0,0,2.2,6.3,23.93,23.93,0,0,1,2.3,6.3,17.39,17.39,0,0,1-2.8,12.9,13.54,13.54,0,0,1-5.1,4.4,8,8,0,0,1-6.6.2l.2-.2a8,8,0,0,0,2.7,4.8l.2.1-.2.1a4.63,4.63,0,0,1-2.8.8,6.81,6.81,0,0,1-2.8-.7,7.66,7.66,0,0,0-1.3-.6,6,6,0,0,0-1.4-.1,26.17,26.17,0,0,0-2.8.2c-1.9.2-3.8.5-5.7.8l-2.8.4a6.56,6.56,0,0,1-1.4.1h-1.4c-7.6-.3-15.4-2.5-21.5-7.2A36.93,36.93,0,0,1,218,126.5c-1.2-3.6-2.1-7.4-3.3-11-.6-1.8-1.3-3.6-1.8-5.4s-1-3.7-1.5-5.6-.8-3.7-1.2-5.6a18.2,18.2,0,0,1-.7-5.7,3.32,3.32,0,0,1,.5-1.4,2.91,2.91,0,0,1,1.2-1,2.69,2.69,0,0,1,2.8.8,5.11,5.11,0,0,1,1.4,2.6,28.21,28.21,0,0,1,.3,2.9,6,6,0,0,0,2.4,4.8,9.06,9.06,0,0,0,5.3,1.5,21.69,21.69,0,0,0,5.6-.9,57.56,57.56,0,0,1,5.7-1,49.17,49.17,0,0,1,11.5.3c3.8.6,7.5,1.5,11.3,2.1a22.29,22.29,0,0,0,5.7.5,26.07,26.07,0,0,0,5.6-1.1,22.47,22.47,0,0,1,2.8-.7,7.08,7.08,0,0,1,2.9,0,6,6,0,0,1,2.6,1.1,4.6,4.6,0,0,1,1.6,2.3,3.78,3.78,0,0,0-1.6-2.3,6.52,6.52,0,0,0-2.6-1.1,8.77,8.77,0,0,0-2.8,0c-.9.2-1.8.5-2.8.8a34.44,34.44,0,0,1-5.6,1.1,22.29,22.29,0,0,1-5.7-.5c-3.8-.6-7.5-1.4-11.3-2a43.52,43.52,0,0,0-11.4-.3,50.92,50.92,0,0,0-5.6,1,27.41,27.41,0,0,1-5.7.9,9.12,9.12,0,0,1-5.5-1.6,5.76,5.76,0,0,1-1.9-2.2,7.18,7.18,0,0,1-.7-2.8,26.32,26.32,0,0,0-.3-2.8,5.69,5.69,0,0,0-1.3-2.4,2.11,2.11,0,0,0-3-.39,2.08,2.08,0,0,0-.83,1.79c-.2,1.9.4,3.7.7,5.6s.8,3.7,1.2,5.6a47.55,47.55,0,0,0,1.5,5.5c.5,1.8,1.3,3.6,1.8,5.4,1.2,3.6,2.1,7.4,3.3,11a43.92,43.92,0,0,0,4.8,10.3,32,32,0,0,0,7.7,8.3,37.88,37.88,0,0,0,21.3,7.2c.5,0,1,.1,1.4.1s.9-.1,1.4-.1l2.8-.4c1.9-.3,3.8-.6,5.7-.8a28.06,28.06,0,0,1,2.9-.2,7.52,7.52,0,0,1,1.5.2c.5.2.9.5,1.3.7a6.37,6.37,0,0,0,2.7.7,4.59,4.59,0,0,0,2.6-.7v.3a8.81,8.81,0,0,1-2.9-5v-.3l.3.1a7.21,7.21,0,0,0,6.4-.2,12,12,0,0,0,5-4.2,17.92,17.92,0,0,0,2.8-12.7,20.72,20.72,0,0,0-2.2-6.3,23,23,0,0,1-2.2-6.4c-.3-2.3.7-4.4.8-6.7a4.47,4.47,0,0,0-1-3.1C280.7,106,279.7,105.3,278.5,105.4Z"/><path class="cls-18" d="M220.8,36.7a5,5,0,0,0-1.7.4,9.93,9.93,0,0,0-3.5,2.2,9.28,9.28,0,0,0-2.3,3.4c-.4,1-.5,1.6-.4,1.7a6.84,6.84,0,0,0,.7-1.5,11.53,11.53,0,0,1,2.3-3.2,11.08,11.08,0,0,1,3.3-2.2C220.1,36.9,220.8,36.8,220.8,36.7Z"/><path class="cls-18" d="M259,41.7a6.09,6.09,0,0,0,1.4-2.7,5.9,5.9,0,0,0,.3-3,28.48,28.48,0,0,0-.7,2.9A25.2,25.2,0,0,0,259,41.7Z"/><path class="cls-15" d="M207.2,79c-.4-.2-14.9-4.4-14.5,10.4S208,100.7,208,100.3,207.2,79,207.2,79Z"/><path class="cls-16" d="M202.5,94.8a7,7,0,0,0-.7.4,2.51,2.51,0,0,1-1.9.1c-1.6-.5-3-3-3.1-5.7a7.83,7.83,0,0,1,.6-3.7,3.12,3.12,0,0,1,1.9-2.1,1,1,0,0,1,.9.1,1.33,1.33,0,0,1,.7.6c.2.4.1.7.2.7s.3-.3.2-.9a1.44,1.44,0,0,0-.6-.9,1.71,1.71,0,0,0-1.4-.3,3.66,3.66,0,0,0-2.6,2.4,8.56,8.56,0,0,0-.8,4.2c.2,3,1.8,5.7,4,6.3a2.44,2.44,0,0,0,1.2,0,3.77,3.77,0,0,0,1.1-.5C202.5,95.1,202.6,94.8,202.5,94.8Z"/><path class="cls-15" d="M213.4,71.7c2.7-2.1,1.4-7.6,1.9-10.3C201.9,65,199,52.6,199,52.6c-2.6,15.3,4,32.4,4,32.4A33.39,33.39,0,0,1,213.4,71.7Z"/><path class="cls-14" d="M257.5,113.3a3.41,3.41,0,0,1-2.2.5,8.82,8.82,0,0,1-5.2-1.8,8.32,8.32,0,0,1-3-4.6c-.4-1.4-.2-2.3-.1-2.3a16.35,16.35,0,0,1,.8,2,8.52,8.52,0,0,0,3,4,9.47,9.47,0,0,0,4.6,1.9C256.6,113.2,257.5,113.1,257.5,113.3Z"/><path class="cls-18" d="M227.7,120.3a32.52,32.52,0,0,1-2.3-6.2c-.8-3.6-.5-6.6-.7-6.6a5.65,5.65,0,0,0-.3,2,16.15,16.15,0,0,0,.4,4.7,17.75,17.75,0,0,0,1.7,4.5A10.44,10.44,0,0,0,227.7,120.3Z"/><path class="cls-18" d="M242.4,143c.1-.1-1.5-1.6-3.5-4.3a41.5,41.5,0,0,1-3.3-5.1,37.88,37.88,0,0,1-2.9-6.7,57.47,57.47,0,0,1-1.7-7.2,46.27,46.27,0,0,1-.4-6c0-3.4.4-5.5.3-5.5s-.1.5-.3,1.5c-.1.5-.1,1.1-.2,1.8a16,16,0,0,0-.1,2.3,32.75,32.75,0,0,0,.3,6.1,43.42,43.42,0,0,0,1.6,7.3,38.51,38.51,0,0,0,3,6.8,41.5,41.5,0,0,0,3.3,5.1c.5.7,1.1,1.3,1.5,1.8a14.78,14.78,0,0,0,1.2,1.3C242,142.7,242.4,143,242.4,143Z"/><path class="cls-18" d="M240.9,137a18.18,18.18,0,0,0-1.3-3.5,18,18,0,0,0-1.4-3.4,9,9,0,0,0,.9,3.6C239.8,135.7,240.7,137.1,240.9,137Z"/><path class="cls-18" d="M247,140c.1-.1-1.3-2.6-2.5-5.9s-1.8-6.2-2-6.2a20.47,20.47,0,0,0,1.5,6.4C245.2,137.6,246.8,140.1,247,140Z"/><path class="cls-18" d="M260.4,128.9c.1-.1-.8-1.1-1.6-2.5a15.08,15.08,0,0,0-1.6-2.5,5.38,5.38,0,0,0,1.2,2.8A5.18,5.18,0,0,0,260.4,128.9Z"/><path class="cls-18" d="M279.4,137c.1,0,.1-.8-.3-2.1a12.65,12.65,0,0,0-2.4-4.3,12,12,0,0,0-3.9-3,4.28,4.28,0,0,0-2-.6,11.3,11.3,0,0,0,1.8,1,13.56,13.56,0,0,1,3.7,3,14,14,0,0,1,2.4,4.1C279.2,136.3,279.3,137,279.4,137Z"/><path class="cls-18" d="M283.9,130.6a7.26,7.26,0,0,0-2.5-2.8,7.56,7.56,0,0,0-3.3-1.7,26,26,0,0,0,3,2.1C282.6,129.6,283.8,130.8,283.9,130.6Z"/><path class="cls-18" d="M273.4,137.9a6.66,6.66,0,0,0-.4-2.5,15.4,15.4,0,0,0-2.9-5.5,16.14,16.14,0,0,0-4.7-4c-1.4-.8-2.3-1.1-2.4-1s.8.5,2.2,1.3a19.29,19.29,0,0,1,4.5,4,17,17,0,0,1,3,5.3C273.2,137,273.4,137.9,273.4,137.9Z"/><path class="cls-18" d="M271.4,116c0,.1.6.1,1.5-.1a5.9,5.9,0,0,0,2.8-2.3,5.18,5.18,0,0,0,.5-3.5,2.73,2.73,0,0,0-.6-1.3c-.1.1.1.6.3,1.4a5.33,5.33,0,0,1-.6,3.3,6.62,6.62,0,0,1-2.4,2.3C272,115.8,271.4,115.9,271.4,116Z"/><path class="cls-18" d="M268.7,115.2c0,.1.4.2,1.3.1a5.18,5.18,0,0,0,2.7-1.3,4.58,4.58,0,0,0,1.1-2.8c0-.8-.1-1.3-.2-1.2s0,.5-.1,1.2a4.39,4.39,0,0,1-1.2,2.5A4.17,4.17,0,0,1,270,115C269.2,115.1,268.7,115.1,268.7,115.2Z"/><path class="cls-18" d="M263.7,112.8c0,.1.4.3,1.1.5a4.33,4.33,0,0,0,2.8,0,3.51,3.51,0,0,0,2.1-1.8,1.37,1.37,0,0,0,.1-1.1c-.1,0-.1.4-.4,1a3.71,3.71,0,0,1-1.9,1.5,5.42,5.42,0,0,1-2.5.1C264.2,112.9,263.8,112.8,263.7,112.8Z"/></svg>