<svg id="Слой_1" data-name="Слой 1" xmlns="http://www.w3.org/2000/svg" viewBox="0 0 462.1 320"><defs><style>.cls-1{opacity:0.6;}.cls-2{fill:#233554;}.cls-3{fill:#212121;}.cls-4,.cls-5{opacity:0.2;}.cls-20,.cls-4,.cls-6{isolation:isolate;}.cls-14,.cls-6{fill:#fff;}.cls-6{opacity:0.1;}.cls-7{fill:#e1e1e1;}.cls-8{opacity:0.4;}.cls-9{fill:#c9ccd6;}.cls-10{fill:#1a2e35;}.cls-11{fill:#6896ef;}.cls-12{fill:#fafafa;}.cls-13{fill:#375a64;}.cls-15{fill:#ffc19d;}.cls-16{fill:#ff9c6a;}.cls-17{fill:#4b98f2;}.cls-18{fill:#455a64;}.cls-19,.cls-20{opacity:0.3;}</style></defs><g class="cls-1"><path class="cls-2" d="M214.2,10.5H118.4V49.4h95.8Z"/><path class="cls-3" d="M214.1,49.4V39c0-6.7,0-16.4-.1-28.3l.1.1H118.4l.2-.1V49.4l-.1-.1,68.6.1h.1l-68.7.1h-.1v-39h95.9v.1c0,12,0,21.7-.1,28.4v9.7A1.73,1.73,0,0,1,214.1,49.4Z"/><path class="cls-3" d="M118.5,15.8c0-.1,21.4-.2,47.8-.2s47.8.1,47.8.2-21.4.1-47.8.1S118.5,15.9,118.5,15.8Z"/><path class="cls-4" d="M149.7,22.1H126.6V45.2h23.1Z"/><g class="cls-5"><path d="M122.7,13.5a.6.6,0,0,1-.1.4c-.1.1-.2.2-.3.2s-.3.1-.4,0-.2-.1-.3-.2-.2-.2-.2-.3v-.4c.1-.1.1-.2.3-.3s.2-.1.4-.1h0c.2,0,.3.1.5.2,0,.2.1.3.1.5Z"/></g><g class="cls-5"><path d="M125,13.5a.6.6,0,0,1-.1.4c-.1.1-.2.2-.3.2a.3.3,0,0,1-.4,0c-.1,0-.2-.1-.3-.2s-.2-.2-.2-.3v-.4c.1-.1.1-.2.2-.3s.2-.1.4-.1h0c.2,0,.3.1.5.2S125,13.3,125,13.5Z"/></g><g class="cls-5"><path d="M127.3,13.5a.6.6,0,0,1-.1.4c-.1.1-.2.2-.3.2a.3.3,0,0,1-.4,0c-.1,0-.2-.1-.3-.2s-.2-.2-.2-.3v-.4c.1-.1.1-.2.2-.3s.2-.1.4-.1h0c.2,0,.3.1.5.2S127.3,13.3,127.3,13.5Z"/></g></g><path class="cls-6" d="M112.5,60.6c0,.1-11.6.2-25.8.2s-25.8-.1-25.8-.2,11.6-.2,25.8-.2S112.5,60.5,112.5,60.6Z"/><path class="cls-7" d="M112.5,66.1c0,.1-11.6.2-25.8.2s-25.8-.1-25.8-.2,11.6-.2,25.8-.2S112.5,66,112.5,66.1Z"/><path class="cls-7" d="M112.5,71.6c0,.1-11.6.2-25.8.2s-25.8-.1-25.8-.2,11.6-.2,25.8-.2S112.5,71.5,112.5,71.6Z"/><path class="cls-7" d="M91.3,77.1a4.87,4.87,0,0,1-1.2.1l-3.3.1c-2.8,0-6.6.1-10.8.1s-8,0-10.8-.1L62,77.2a4.87,4.87,0,0,1-1.2-.1A4.87,4.87,0,0,1,62,77l3.3-.1c2.8,0,6.6-.1,10.8-.1s8,0,10.8.1l3.3.1C90.5,77,90.9,77.1,91.3,77.1Z"/><g class="cls-8"><path class="cls-2" d="M113.6,33.8H2.4v74.4H113.6Z"/><path class="cls-3" d="M113.6,108V87.8c0-12.9,0-31.4-.1-53.9l.2.2H2.8l.1-.1v74l-.2-.2,79.8.1h.1l-80.1.2H2.4V33.8H113.7V34c0,22.6-.1,41.1-.1,54v20Z"/><path class="cls-3" d="M2.4,40.4c0-.1,24.9-.2,55.5-.2s55.5.1,55.5.2-24.9.2-55.5.2S2.4,40.5,2.4,40.4Z"/><g class="cls-5"><path d="M6.8,37.1a.76.76,0,0,1-.2.5c-.1.1-.2.3-.4.3s-.3.1-.5.1-.3-.1-.5-.2a1.69,1.69,0,0,1-.2-.5.75.75,0,0,1,.1-.5,1.38,1.38,0,0,1,.3-.4.75.75,0,0,1,.5-.1h0a.71.71,0,0,1,.6.3c.2,0,.3.3.3.5Z"/></g><g class="cls-5"><path d="M9.9,37.1c0,.2-.1.3-.2.5s-.2.3-.4.3a.9.9,0,0,1-.5.1c-.2,0-.3-.1-.5-.2a.76.76,0,0,1-.2-.5.75.75,0,0,1,.1-.5,1.38,1.38,0,0,1,.3-.4.76.76,0,0,1,.5-.2H9a.71.71,0,0,1,.6.3A.6.6,0,0,1,9.9,37.1Z"/></g><g class="cls-5"><path d="M12.8,37.1c0,.2-.1.3-.2.5s-.2.3-.4.3a.6.6,0,0,1-.4.1c-.2,0-.3-.1-.5-.2a.76.76,0,0,1-.2-.5.75.75,0,0,1,.1-.5,1.38,1.38,0,0,1,.3-.4.76.76,0,0,1,.5-.2h0a.71.71,0,0,1,.6.3A.85.85,0,0,1,12.8,37.1Z"/></g><path class="cls-4" d="M41.6,48.2H12V77.9H41.6Z"/><path class="cls-4" d="M27.7,87.9H13.8v13.9H27.7Z"/></g><path class="cls-7" d="M67.2,91.9h-14v13.9H67.1l.1-13.9Z"/><path class="cls-7" d="M92.4,91.9H78.5v13.9H92.4Z"/><path class="cls-7" d="M117.7,91.9H103.8v13.9h13.9Z"/><path class="cls-7" d="M207.5,28.3c0,.1-11.9.2-26.6.2s-26.6-.1-26.6-.2,11.9-.1,26.6-.1S207.5,28.2,207.5,28.3Z"/><path class="cls-7" d="M207.5,33c0,.1-11.9.2-26.6.2s-26.6-.1-26.6-.2,11.9-.1,26.6-.1S207.5,32.9,207.5,33Z"/><path class="cls-9" d="M51.6,62.1H427.9a3.69,3.69,0,0,1,2.4,1,3.49,3.49,0,0,1,1,2.4V308.6a7.54,7.54,0,0,1-2.1,5.1,7.36,7.36,0,0,1-5.1,2.1H55a7.54,7.54,0,0,1-5.1-2.1,7.36,7.36,0,0,1-2.1-5.1h0V65.9a3.76,3.76,0,0,1,3.8-3.8Z"/><path class="cls-9" d="M31.7,297H447.1v15.4a7.51,7.51,0,0,1-.5,2.6,5.41,5.41,0,0,1-1.5,2.2,8.55,8.55,0,0,1-2.2,1.5,7.51,7.51,0,0,1-2.6.5H38.5a7.51,7.51,0,0,1-2.6-.5,5.41,5.41,0,0,1-2.2-1.5,8.55,8.55,0,0,1-1.5-2.2,7.51,7.51,0,0,1-.5-2.6Z"/><path class="cls-3" d="M420.4,74H58.6V288.2H420.4Z"/><path class="cls-10" d="M201.7,297l5.2,8.2h72.5l4.8-8.2Z"/><path class="cls-7" d="M95,280.4c-.2,0-.3-43-.3-96s.1-96,.3-96,.3,43,.3,96S95.1,280.4,95,280.4Z"/><polygon class="cls-10" points="31.7 297 239.4 296.8 447.1 297 239.4 297.2 31.7 297"/><path class="cls-7" d="M88.1,105.9c0,.2-2.5.3-5.5.3s-5.5-.1-5.5-.3,2.5-.3,5.5-.3S88.1,105.7,88.1,105.9Z"/><path class="cls-7" d="M88.5,95c0,.2-2.5.3-5.5.3s-5.5-.1-5.5-.3,2.5-.3,5.5-.3S88.5,94.8,88.5,95Z"/><path class="cls-7" d="M88.1,117.6c0,.2-2.5.3-5.5.3s-5.5-.1-5.5-.3,2.5-.3,5.5-.3A32.12,32.12,0,0,1,88.1,117.6Z"/><path class="cls-7" d="M88.1,129.4c0,.2-2.5.3-5.5.3s-5.5-.1-5.5-.3,2.5-.3,5.5-.3S88.1,129.2,88.1,129.4Z"/><path class="cls-7" d="M88.1,141.1c0,.2-2.5.3-5.5.3s-5.5-.1-5.5-.3,2.5-.3,5.5-.3S88.1,140.9,88.1,141.1Z"/><path class="cls-7" d="M88.1,152.9c0,.2-2.5.3-5.5.3a33.89,33.89,0,0,1-5.6-.3c0-.2,2.5-.3,5.5-.3S88.1,152.7,88.1,152.9Z"/><path class="cls-7" d="M88.1,164.6c0,.2-2.5.3-5.5.3s-5.5-.1-5.5-.3,2.5-.3,5.5-.3S88.1,164.4,88.1,164.6Z"/><path class="cls-7" d="M88.1,176.3c0,.2-2.5.3-5.5.3s-5.5-.1-5.5-.3,2.5-.3,5.5-.3A32.12,32.12,0,0,1,88.1,176.3Z"/><path class="cls-7" d="M88.1,188.1c0,.2-2.5.3-5.5.3s-5.5-.1-5.5-.3,2.5-.3,5.5-.3S88.1,187.9,88.1,188.1Z"/><path class="cls-7" d="M88.1,199.8c0,.2-2.5.3-5.5.3s-5.6-.1-5.6-.3,2.5-.3,5.5-.3S88.1,199.6,88.1,199.8Z"/><path class="cls-7" d="M88.1,211.6c0,.2-2.5.3-5.5.3s-5.5-.1-5.5-.3,2.5-.3,5.5-.3S88.1,211.4,88.1,211.6Z"/><path class="cls-7" d="M88.1,223.3c0,.2-2.5.3-5.5.3s-5.5-.1-5.5-.3,2.5-.3,5.5-.3S88.1,223.1,88.1,223.3Z"/><path class="cls-7" d="M88.1,235c0,.2-2.5.3-5.5.3s-5.6-.1-5.6-.3,2.5-.3,5.5-.3A32.79,32.79,0,0,1,88.1,235Z"/><path class="cls-7" d="M88.1,246.8c0,.2-2.5.3-5.5.3s-5.5-.1-5.5-.3,2.5-.3,5.5-.3S88.1,246.6,88.1,246.8Z"/><path class="cls-7" d="M88.1,258.5c0,.2-2.5.3-5.5.3s-5.5-.1-5.5-.3,2.5-.3,5.5-.3S88.1,258.3,88.1,258.5Z"/><path class="cls-7" d="M88.1,270.2c0,.2-2.5.3-5.5.3s-5.5-.1-5.5-.3,2.5-.3,5.5-.3A32.12,32.12,0,0,1,88.1,270.2Z"/><path class="cls-11" d="M132.5,105.2c0,.2-6.4.3-14.4.3s-14.4-.1-14.4-.3,6.4-.3,14.4-.3S132.5,105,132.5,105.2Z"/><path class="cls-11" d="M132.5,270.2c0,.2-6.4.3-14.4.3s-14.4-.1-14.4-.3,6.4-.3,14.4-.3S132.5,270.1,132.5,270.2Z"/><path class="cls-11" d="M173.7,139.7c0,.2-12,.3-26.9.3s-26.9-.1-26.9-.3,12.1-.3,26.9-.3S173.7,139.5,173.7,139.7Z"/><path class="cls-11" d="M234.8,139.7c0,.2-12.1.3-26.9.3s-26.9-.1-26.9-.3,12-.3,26.9-.3S234.8,139.5,234.8,139.7Z"/><path class="cls-7" d="M211,149c0,.2-17.8.3-39.7.3s-39.7-.1-39.7-.3,17.8-.3,39.7-.3S211,148.8,211,149Z"/><path class="cls-7" d="M211,160.7c0,.2-17.8.3-39.7.3s-39.7-.1-39.7-.3,17.8-.3,39.7-.3S211,160.5,211,160.7Z"/><path class="cls-7" d="M265.6,188.1c0,.2-17.8.3-39.7.3s-39.7-.1-39.7-.3,17.8-.3,39.7-.3S265.6,187.9,265.6,188.1Z"/><path class="cls-7" d="M242.1,164.6c0,.2-17.8.3-39.7.3s-39.7-.1-39.7-.3,17.8-.3,39.7-.3S242.1,164.4,242.1,164.6Z"/><path class="cls-7" d="M339,164.6c0,.2-17.8.3-39.7.3s-39.7-.1-39.7-.3,17.8-.3,39.7-.3S339,164.4,339,164.6Z"/><path class="cls-12" d="M305.3,141.1c0,.2-17.8.3-39.7.3s-39.6-.2-39.6-.3,17.8-.3,39.7-.3S305.3,140.9,305.3,141.1Z"/><path class="cls-12" d="M360.1,188.1c0,.2-17.8.3-39.7.3s-39.7-.1-39.7-.3,17.8-.3,39.7-.3S360.1,187.9,360.1,188.1Z"/><path class="cls-7" d="M349.1,152.9c0,.2-27.6.3-61.6.3s-61.6-.1-61.6-.3,27.6-.3,61.6-.3S349.1,152.7,349.1,152.9Z"/><path class="cls-12" d="M132.5,117.6c0,.2-6.4.3-14.4.3s-14.4-.1-14.4-.3,6.4-.3,14.4-.3S132.5,117.5,132.5,117.6Z"/><path class="cls-12" d="M132.5,258.5c0,.2-6.4.3-14.4.3s-14.4-.1-14.4-.3,6.4-.3,14.4-.3S132.5,258.3,132.5,258.5Z"/><path class="cls-12" d="M146.8,172.5c0,.2-6.4.3-14.4.3s-14.4-.1-14.4-.3,6.4-.3,14.4-.3S146.8,172.3,146.8,172.5Z"/><path class="cls-11" d="M377.3,164.6c0,.2-6.4.3-14.4.3s-14.4-.1-14.4-.3,6.4-.3,14.4-.3S377.3,164.4,377.3,164.6Z"/><path class="cls-11" d="M172.6,211.5c0,.2-12,.3-26.9.3s-26.9-.1-26.9-.3,12.1-.3,26.9-.3S172.6,211.3,172.6,211.5Z"/><path class="cls-7" d="M234.8,211.5c0,.2-12.1.3-26.9.3s-26.9-.1-26.9-.3,12-.3,26.9-.3S234.8,211.3,234.8,211.5Z"/><path class="cls-7" d="M211,223.2c0,.2-17.8.3-39.7.3s-39.7-.1-39.7-.3,17.8-.3,39.7-.3S211,223,211,223.2Z"/><path class="cls-7" d="M211,235c0,.2-17.8.3-39.7.3s-39.7-.1-39.7-.3,17.8-.3,39.7-.3S211,234.8,211,235Z"/><path class="cls-7" d="M242.1,246.7c0,.2-17.8.3-39.7.3s-39.7-.1-39.7-.3,17.8-.3,39.7-.3S242.1,246.5,242.1,246.7Z"/><path class="cls-7" d="M339,246.7c0,.2-17.8.3-39.7.3s-39.7-.1-39.7-.3,17.8-.3,39.7-.3S339,246.5,339,246.7Z"/><path class="cls-12" d="M305.3,223.2c0,.2-17.8.3-39.7.3s-39.7-.1-39.7-.3,17.8-.3,39.7-.3S305.3,223,305.3,223.2Z"/><path class="cls-13" d="M349.1,235c0,.2-27.6.3-61.6.3s-61.6-.2-61.6-.3,27.6-.3,61.6-.3S349.1,234.8,349.1,235Z"/><path class="cls-12" d="M146.8,246.7c0,.2-6.4.3-14.4.3s-14.4-.1-14.4-.3,6.4-.3,14.4-.3S146.8,246.5,146.8,246.7Z"/><path class="cls-11" d="M377.3,246.7c0,.2-6.4.3-14.4.3s-14.4-.1-14.4-.3,6.4-.3,14.4-.3S377.3,246.5,377.3,246.7Z"/><path class="cls-2" d="M341.4,8.1H145.8V129.3H310.5l10.2,23.5,9-23.5h11.7V8.1Z"/><path class="cls-13" d="M341.4,8.1c0,1.2.1,46.7.1,121.1v.1H329.7l.1-.1c-2.8,7.3-5.9,15.3-9,23.5l-.1.4-.2-.4-10.2-23.4.2.1H145.6V7.9h.2l195.6.2-195.6.1L146,8V129.1l-.2-.2H310.6v.1l10.2,23.5h-.3c3.2-8.2,6.2-16.1,9-23.4V129h11.8l-.1.1C341.3,54.7,341.4,9.2,341.4,8.1Z"/><path class="cls-13" d="M341.3,19.9c0,.1-43.7.3-97.6.3s-97.6-.1-97.6-.3,43.7-.3,97.6-.3S341.3,19.8,341.3,19.9Z"/><path class="cls-13" d="M156.2,14.6a1.61,1.61,0,0,1-.3.9,1.34,1.34,0,0,1-.7.6,1.41,1.41,0,0,1-.9.1,2,2,0,0,1-.8-.4,1.23,1.23,0,0,1-.4-.8,1.41,1.41,0,0,1,.1-.9,1.34,1.34,0,0,1,.6-.7,1.48,1.48,0,0,1,2,.2,1.18,1.18,0,0,1,.4,1Z"/><path class="cls-13" d="M162,14.6a1.61,1.61,0,0,1-.3.9,1.34,1.34,0,0,1-.7.6,1.41,1.41,0,0,1-.9.1,2,2,0,0,1-.8-.4,1.23,1.23,0,0,1-.4-.8,1.41,1.41,0,0,1,.1-.9,1.34,1.34,0,0,1,.6-.7,1.48,1.48,0,0,1,2,.2A1.33,1.33,0,0,1,162,14.6Z"/><path class="cls-13" d="M167.8,14.6a1.61,1.61,0,0,1-.3.9,1.34,1.34,0,0,1-.7.6,1.41,1.41,0,0,1-.9.1,2,2,0,0,1-.8-.4,1.23,1.23,0,0,1-.4-.8,1.41,1.41,0,0,1,.1-.9,1.34,1.34,0,0,1,.6-.7,1.48,1.48,0,0,1,2,.2,1.18,1.18,0,0,1,.4,1Z"/><path class="cls-14" d="M167.1,41.6l-4.6,1.8,4.6,1.8v1.1L161.3,44V42.9l5.8-2.3Z"/><path class="cls-14" d="M172,37h1.1l-4.3,12.3h-1.1Z"/><path class="cls-14" d="M179.4,42.8V44l-5.9,2.3V45.2l4.7-1.8-4.7-1.8V40.5Z"/><path class="cls-14" d="M180.9,47.1a.37.37,0,0,1,.1-.3c0-.1.1-.2.2-.3s.2-.1.3-.2.2-.1.3-.1h0a.37.37,0,0,1,.3.1c.1,0,.2.1.3.2s.1.2.2.3.1.2.1.3h0a.37.37,0,0,1-.1.3c0,.1-.1.2-.2.3s-.2.2-.3.2-.2.1-.3.1h0a.37.37,0,0,1-.3-.1c-.1,0-.2-.1-.3-.2s-.1-.2-.2-.3-.1-.1-.1-.3Z"/><path class="cls-14" d="M183.8,47.1a.37.37,0,0,1,.1-.3c0-.1.1-.2.2-.3s.2-.1.3-.2.2-.1.3-.1h0a.37.37,0,0,1,.3.1c.1,0,.2.1.3.2s.1.2.2.3.1.2.1.3h0a.37.37,0,0,1-.1.3c0,.1-.1.2-.2.3s-.2.2-.3.2-.2.1-.3.1h0a.37.37,0,0,1-.3-.1c-.1,0-.2-.1-.3-.2s-.1-.2-.2-.3a.44.44,0,0,1-.1-.3Z"/><path class="cls-14" d="M186.8,47.1a.37.37,0,0,1,.1-.3c0-.1.1-.2.2-.3s.2-.1.3-.2.2-.1.3-.1h0a.37.37,0,0,1,.3.1c.1,0,.2.1.3.2s.1.2.2.3.1.2.1.3h0a.37.37,0,0,1-.1.3c0,.1-.1.2-.2.3s-.2.2-.3.2-.2.1-.3.1h0a.37.37,0,0,1-.3-.1c-.1,0-.2-.1-.3-.2s-.1-.2-.2-.3-.1-.1-.1-.3Z"/><path class="cls-9" d="M290.7,58.9c0,.1-28.9.3-64.6.3s-64.6-.1-64.6-.3,28.9-.3,64.6-.3S290.7,58.8,290.7,58.9Z"/><path class="cls-10" d="M311.7,59.3a40.52,40.52,0,0,1-6.2.3c-3.4,0-6.2-.1-6.2-.3a40.52,40.52,0,0,1,6.2-.3C308.9,59,311.7,59.1,311.7,59.3Z"/><path class="cls-10" d="M329.9,59.3a47.75,47.75,0,0,1-6.8.3c-3.7,0-6.8-.1-6.8-.3a47.75,47.75,0,0,1,6.8-.3C326.8,59,329.9,59.1,329.9,59.3Z"/><path class="cls-9" d="M243.7,69.8c0,.1-18.4.3-41,.3s-41-.1-41-.3,18.4-.3,41-.3S243.7,69.6,243.7,69.8Z"/><path class="cls-2" d="M243.2,110.4c0,.1-18.4.3-41,.3s-41-.1-41-.3,18.4-.3,41-.3S243.2,110.2,243.2,110.4Z"/><path class="cls-10" d="M273.6,69.8c0,.1-5,.3-11.2.3s-11.2-.1-11.2-.3,5-.3,11.2-.3S273.6,69.6,273.6,69.8Z"/><path class="cls-10" d="M273.3,110.4c0,.1-5,.3-11.2.3s-11.2-.1-11.2-.3,5-.3,11.2-.3S273.3,110.2,273.3,110.4Z"/><path class="cls-9" d="M167,75.3a8.13,8.13,0,0,1-2.8.3c-1.5,0-2.8-.1-2.8-.3a8.13,8.13,0,0,1,2.8-.3A12.77,12.77,0,0,1,167,75.3Z"/><path class="cls-9" d="M186.1,75.4a37.85,37.85,0,0,1-6,.3c-3.3,0-6-.1-6-.3a37.85,37.85,0,0,1,6-.3C183.4,75.2,186.1,75.3,186.1,75.4Z"/><path class="cls-9" d="M198.3,75.4a28.09,28.09,0,0,1-5.2.3c-2.8,0-5.2-.1-5.2-.3a28.09,28.09,0,0,1,5.2-.3A28.09,28.09,0,0,1,198.3,75.4Z"/><path class="cls-9" d="M213.8,75.4a29.11,29.11,0,0,1-5.2.3c-2.8,0-5.2-.1-5.2-.3a45.22,45.22,0,0,1,10.4,0Z"/><path class="cls-10" d="M227.4,75.4a23.76,23.76,0,0,1-4.8.3c-2.6,0-4.8-.1-4.8-.3a23.76,23.76,0,0,1,4.8-.3A39.8,39.8,0,0,1,227.4,75.4Z"/><path class="cls-10" d="M272.2,75.4c0,.1-9.4.3-21,.3s-21-.1-21-.3,9.4-.3,21-.3S272.2,75.3,272.2,75.4Z"/><path class="cls-9" d="M166.3,82.4a6.38,6.38,0,0,1-2.4.3c-1.3,0-2.4-.1-2.4-.3s1.1-.3,2.4-.3S166.3,82.2,166.3,82.4Z"/><path class="cls-9" d="M166.5,89.6a6.67,6.67,0,0,1-2.5.3c-1.4,0-2.5-.1-2.5-.3s1.1-.3,2.5-.3A10.54,10.54,0,0,1,166.5,89.6Z"/><path class="cls-9" d="M166.5,97.8a6.67,6.67,0,0,1-2.5.3c-1.4,0-2.5-.1-2.5-.3s1.1-.3,2.5-.3A10.54,10.54,0,0,1,166.5,97.8Z"/><path class="cls-9" d="M211.7,97.5c0,.1-8.3.3-18.5.3s-18.5-.1-18.5-.3,8.3-.3,18.5-.3S211.7,97.3,211.7,97.5Z"/><path class="cls-9" d="M208.5,89.6c0,.1-7.9.3-17.7.3s-17.7-.1-17.7-.3,7.9-.3,17.7-.3S208.5,89.5,208.5,89.6Z"/><path class="cls-9" d="M293.8,82c0,.1-26.9.3-60.1.3s-60.1-.1-60.1-.3,26.9-.3,60.1-.3S293.8,81.9,293.8,82Z"/><path class="cls-2" d="M393.4,84.8v103l-16,13.4h83.7V84.8Z"/><path class="cls-13" d="M393.4,84.8h18.2l49.5-.1h.1V201.3H376.8l.4-.3,16-13.3-.1.1c0-30.8.1-56.5.1-74.6v.2c0,18,0,43.8.1,74.5v.1h-.1l-16,13.4-.1-.3h83.7l-.2.2V85l.1.1-49.3-.2h-17Z"/><path class="cls-13" d="M399.6,89.9a2.35,2.35,0,0,1-.2.8,2.65,2.65,0,0,1-.6.5,2.2,2.2,0,0,1-.8.1,1.53,1.53,0,0,1-1.1-1.1,1.13,1.13,0,0,1,.1-.8,1,1,0,0,1,.5-.6,1.08,1.08,0,0,1,.8-.2,1.28,1.28,0,0,1,1,.4,2.39,2.39,0,0,1,.3.9Z"/><path class="cls-13" d="M404.5,89.9a2.35,2.35,0,0,1-.2.8,2.65,2.65,0,0,1-.6.5,2.2,2.2,0,0,1-.8.1,1.53,1.53,0,0,1-1.1-1.1,1.13,1.13,0,0,1,.1-.8,1,1,0,0,1,.5-.6,1.08,1.08,0,0,1,.8-.2h0a1.28,1.28,0,0,1,1,.4,1.4,1.4,0,0,1,.3.9Z"/><path class="cls-13" d="M409.5,89.9a2.35,2.35,0,0,1-.2.8,1.47,1.47,0,0,1-.6.5,2,2,0,0,1-.8.1,1.53,1.53,0,0,1-1.1-1.1,1.13,1.13,0,0,1,.1-.8,1,1,0,0,1,.5-.6,1.08,1.08,0,0,1,.8-.2.75.75,0,0,1,.5.1,1.38,1.38,0,0,1,.4.3c.1.1.2.3.3.4a1.09,1.09,0,0,1,.1.5Z"/><path class="cls-9" d="M442.5,121.7c0,.1-8.6.2-19.2.2s-19.2-.1-19.2-.2,8.6-.2,19.2-.2S442.5,121.5,442.5,121.7Z"/><path class="cls-9" d="M450.5,131c0,.1-10.4.2-23.3.2s-23.3-.1-23.3-.2,10.4-.2,23.3-.2S450.5,130.9,450.5,131Z"/><path class="cls-9" d="M452.4,165.7c0,.1-11.1.2-24.9.2s-24.9-.1-24.9-.2,11.1-.2,24.9-.2S452.4,165.6,452.4,165.7Z"/><path class="cls-9" d="M407.8,135.7a14.5,14.5,0,0,1-4.8,0,14.5,14.5,0,0,1,4.8,0Z"/><path class="cls-9" d="M424.1,135.8a65.13,65.13,0,0,1-10.2,0,65.12,65.12,0,0,1,10.2,0Z"/><path class="cls-9" d="M434.6,135.8a48.5,48.5,0,0,1-8.8,0,48.5,48.5,0,0,1,8.8,0Z"/><path class="cls-9" d="M407.1,141.8a10.1,10.1,0,0,1-4,0,5.44,5.44,0,0,1,2-.2C406.2,141.6,407.1,141.6,407.1,141.8Z"/><path class="cls-9" d="M407.3,148a6.24,6.24,0,0,1-2.1.2,5.78,5.78,0,0,1-2.1-.2,5.78,5.78,0,0,1,2.1-.2C406.3,147.7,407.3,147.8,407.3,148Z"/><path class="cls-9" d="M407.3,155a6.24,6.24,0,0,1-2.1.2,5.78,5.78,0,0,1-2.1-.2,5.78,5.78,0,0,1,2.1-.2A6.24,6.24,0,0,1,407.3,155Z"/><path class="cls-9" d="M446,154.7c0,.1-7.1.2-15.8.2s-15.8-.1-15.8-.2,7.1-.2,15.8-.2S446,154.5,446,154.7Z"/><path class="cls-9" d="M443.2,148c0,.1-6.8.2-15.1.2s-15.1-.1-15.1-.2,6.8-.2,15.1-.2S443.2,147.8,443.2,148Z"/><path class="cls-9" d="M410.4,175a11.13,11.13,0,0,1-4.2,0,11.13,11.13,0,0,1,4.2,0Z"/><path class="cls-9" d="M410.4,182a11.13,11.13,0,0,1-4.2,0,11.13,11.13,0,0,1,4.2,0Z"/><path class="cls-3" d="M241.5,24.9c-28.4,3.4-30.1,26.9-30.1,27-1,3.1-.4,3.6-.3,6.3.1,1,.5.9,1,2,.3,1.3,2.7,5.9,6.7,4.6,0,0,10.7,9.9,1.6,10.4-1.8.1,8.2,10.9,6.9,10.6.5,4.1-.8-2.5.7,1.4,2.3,5.8-12.4,9.9-5.9,10.9l60.1-28.7C295.2,42.1,257.2,23.5,241.5,24.9Z"/><path class="cls-9" d="M449.1,181.7c0,.1-7.1.2-15.8.2s-15.8-.1-15.8-.2,7.1-.2,15.8-.2S449.1,181.6,449.1,181.7Z"/><path class="cls-9" d="M446.3,175c0,.1-6.8.2-15.1.2s-15.1-.1-15.1-.2,6.8-.2,15.1-.2S446.3,174.9,446.3,175Z"/><path class="cls-9" d="M454.5,141.4c0,.1-9.2.2-20.6.2s-20.6-.1-20.6-.2,9.2-.2,20.6-.2S454.5,141.3,454.5,141.4Z"/><path class="cls-13" d="M460.5,95.3c0,.1-14.9.2-33.2.2s-33.2-.1-33.2-.2,14.9-.2,33.2-.2S460.5,95.2,460.5,95.3Z"/><path class="cls-9" d="M418.2,116a122.6,122.6,0,0,1-14,0,122.6,122.6,0,0,1,14,0Z"/><path class="cls-9" d="M410.2,103.3a27.32,27.32,0,0,1-6.6,0,14.63,14.63,0,0,1,3.3-.2A13.9,13.9,0,0,1,410.2,103.3Z"/><path class="cls-15" d="M210.9,70.4l5.1,85.9c.9,14.6,5.1,35.9,28.2,33.5,19.8-3.6,23.8-22.9,22.9-36.6-.4-6.5-.7-11.9-.7-12.5h0c18.5-6.9,20.8-17.6,21.6-41.3.1-10.5-.9-16-2.4-35.6a40.39,40.39,0,0,0-12.9-26.5,41.08,41.08,0,0,0-27.4-10.8h-2.1C220.5,27.9,209,47.8,210.9,70.4Z"/><path class="cls-16" d="M266.4,140.7s-13.7.8-28.3-8.4c0,0,6.9,15.9,28.6,13.9Z"/><path class="cls-15" d="M278,152.8l-12.5-4.6-47.6-1.4-11.1,3,1.4,26.9,25,15.9,24.3-.5,15.3-13.9,3.4-13.8Z"/><path class="cls-17" d="M136.7,194.1a172.5,172.5,0,0,1,10-17.8,41.4,41.4,0,0,1,25.7-18.1l40-10.8s2.7,27,30.2,27,28-25,28-25l50.3,18.4c1.6.6,12.3,4.3,24.8,31.1,11.9,25.5,17.1,38.5,17.1,38.5l-47.5,12.8-3.2,43.9,1,24.5-144.6-.3.8-28-.7-46.3-3,5.7-45.2-18.1C120.5,231.5,125,218.2,136.7,194.1Z"/><path class="cls-10" d="M168,220c-.2,0-.1,15.5.3,34.6s.8,34.6,1.1,34.6.1-15.5-.3-34.6S168.2,220,168,220Z"/><path class="cls-3" d="M264,28.5c-7.9-3-15.8-5.1-25.8-3.7-7.6,1.1-13.3,4.6-18.8,8-20.4,11.9-7.3,50.8-7.3,50.8s-3.9-10.1,3.7-15.9c7.4-5.6,5.5-13.7,13.8-18.4,9.7-5.4,18.5-4.6,30.1,1,12.5-9.8,24.4,3.2,25.6,9.7C283.3,37.6,272.3,31.8,264,28.5Z"/><path class="cls-3" d="M224.5,30.9c1.7-3.7-.5-8.4-4.3-10s-8.3-.2-11.1,2.7-3,7.2-1.8,10.8c.9,2.6,6,7.2,9.5,4.3"/><path class="cls-18" d="M207.2,28.2a.69.69,0,0,0,0,.5,3.88,3.88,0,0,0,.6,1.4,9.28,9.28,0,0,0,4.1,2.8,6.72,6.72,0,0,0,2.8.3,6.65,6.65,0,0,0,2.2-.4,6.45,6.45,0,0,0,1.4-.6,3,3,0,0,0,.4-.3c0-.1-.8.3-1.9.6a7.32,7.32,0,0,1-2.2.3,13.12,13.12,0,0,1-2.7-.3,9.08,9.08,0,0,1-4.1-2.6A3.37,3.37,0,0,1,207.2,28.2Z"/><path class="cls-18" d="M209.3,23.7a1.75,1.75,0,0,0,.1.5,7.26,7.26,0,0,0,.6,1.4,8.75,8.75,0,0,0,3.4,3.6,9.51,9.51,0,0,0,4.7,1.5,6.62,6.62,0,0,0,1.5-.1,2.81,2.81,0,0,1,.5-.1c0-.1-.8.1-2-.1a9.45,9.45,0,0,1-4.5-1.6,10.44,10.44,0,0,1-3.3-3.4A5.51,5.51,0,0,1,209.3,23.7Z"/><path class="cls-17" d="M212.6,39.3a10.15,10.15,0,0,0,1.4-1.9,22.3,22.3,0,0,1,4.1-3.9,53.31,53.31,0,0,1,4.8-3.1,9,9,0,0,0,2.2-1.1,14.49,14.49,0,0,0-2.3.8,19,19,0,0,0-4.9,3,21.55,21.55,0,0,0-4,4.1A9.29,9.29,0,0,0,212.6,39.3Z"/><path class="cls-18" d="M261.3,42.7a35.73,35.73,0,0,0-3-3.8c-1.1-1.2-2.2-2.4-3.3-3.4a35.29,35.29,0,0,0-7.7-5.6,26.22,26.22,0,0,0-9.1-2.9,19.27,19.27,0,0,0-4.8,0,18.76,18.76,0,0,0-4.7,1,20.54,20.54,0,0,1,9.5-1.3,23.87,23.87,0,0,1,9.3,2.8,36.78,36.78,0,0,1,7.8,5.8A38.89,38.89,0,0,1,261.3,42.7Z"/><path class="cls-18" d="M248.1,36.3a22.11,22.11,0,0,0-3.4-1.8,21.69,21.69,0,0,0-3.5-1.5,26.71,26.71,0,0,0-7.4-1.8,24.13,24.13,0,0,0-3.8-.1,22,22,0,0,0-3.7.6,17.3,17.3,0,0,0-6.6,3.7,13.76,13.76,0,0,1,3-2.4,12.25,12.25,0,0,1,3.5-1.6,20,20,0,0,1,7.7-.7,26.11,26.11,0,0,1,7.4,2A29.55,29.55,0,0,1,248.1,36.3Z"/><path class="cls-18" d="M263.3,42.7a11.52,11.52,0,0,0-1.2-8.7,15.82,15.82,0,0,0-2.9-3.4c-.6-.5-1.2-.9-1.8-1.4a21.41,21.41,0,0,1-1.9-1.3,12.81,12.81,0,0,1,2,1.1,21.41,21.41,0,0,1,1.9,1.3,16.73,16.73,0,0,1,3.1,3.4,9.52,9.52,0,0,1,1.4,4.4A8.77,8.77,0,0,1,263.3,42.7Z"/><g class="cls-19"><path class="cls-20" d="M308.9,224.5c-2.3-2.5-5.7-3.3-9-4-37.2-7.6-75.6-4.4-113.3.3-4.7.6-9.8,1.6-12.7,5.4-2,2.7-.7,6.3-.9,9.8-1,17.5,1.3,36.1,4.7,53.3l128.4-2.1c4.4-13.3,5.5-35.9,5.5-51.2C311.7,231.9,311.6,227.5,308.9,224.5Z"/></g><path class="cls-10" d="M317.2,204.3v2.6c0,1.6,0,4-.1,6.9-.1,5.8-.5,13.9-.9,22.8s-1.1,17-1.5,22.8q-.3,4.35-.6,6.9c-.1.8-.1,1.4-.2,1.9a2,2,0,0,1-.1.7v-.7c0-.5.1-1.1.1-1.9.1-1.7.2-4,.4-6.9.4-5.9.8-13.9,1.4-22.8s.9-17,1.1-22.8q.15-4.35.3-6.9c0-.8.1-1.4.1-1.9v-.7Z"/><path class="cls-15" d="M360.1,238.1,378,277.5a28.33,28.33,0,0,1,3,14h0a28.37,28.37,0,0,1-28.4,27L297,315.3,294.6,290l42.3-10.2s-12.3-10-16.4-31Z"/><path class="cls-15" d="M121.2,231.9s-10.4,29.2-23.5,61.7a7.62,7.62,0,0,0-.6,2c-2,8.8,4.7,23.5,13.7,23.5l75.2-.7V293.8l-43.4-9.5s12-8.8,20.1-35.8Z"/><path class="cls-16" d="M108.9,291c.1.1,1.6-1,4.2-2.5a39.68,39.68,0,0,1,22.6-5.1c3,.2,4.9.6,4.9.5a5,5,0,0,0-1.3-.5,22.87,22.87,0,0,0-3.6-.7,34.41,34.41,0,0,0-23,5.2,20.14,20.14,0,0,0-2.9,2.2C109.2,290.6,108.8,290.9,108.9,291Z"/><path class="cls-15" d="M305.5,288.5H294.6s-24.6-8.9-29.6-8c-4.5.8-21.2,11.8-24.5,14a2,2,0,0,0-.8,1h0a3.61,3.61,0,0,0,.1,2.7,3.9,3.9,0,0,0,1.9,1.9l.3.1-.2.5a4.42,4.42,0,0,0-.2,2,2.35,2.35,0,0,0,4.4,1l-.6,1.2a2.06,2.06,0,0,0-.3,1.5l.1,1a2,2,0,0,0,.6,1.5,2.38,2.38,0,0,0,1.3.9,2,2,0,0,0,1.5,0,2.22,2.22,0,0,0,1.3-.8c2.1-2.3,6.7-7,9.8-7.5a67.68,67.68,0,0,1,10.1-.5,3.08,3.08,0,0,1,1.9.6,2.76,2.76,0,0,1,1.2,1.6h0c-1.8.1-14.6,6.8-19.1,9.2a5.17,5.17,0,0,0-1.8,1.5,4.35,4.35,0,0,0-.9,2.1c-.2,1.4.5,2.9,3.3,2.2,6-1.4,16.8-6.4,16.8-6.4s5.6-1.6,9.2,1c5.1,3.6,7.4,4.9,11.8,3.5a43.49,43.49,0,0,0,7.6-3.5l8.6-.9C308.5,311.9,316.6,291.6,305.5,288.5Z"/><path class="cls-15" d="M273.1,292.6a31.7,31.7,0,0,0-4.6-.6,22.7,22.7,0,0,0-10.9,1.9,24.11,24.11,0,0,0-8.9,6.6,29.76,29.76,0,0,0-2.7,3.8,3.7,3.7,0,0,1,.5-1.1,19.59,19.59,0,0,1,1.9-2.8,23.15,23.15,0,0,1,9-6.8,23.44,23.44,0,0,1,11.1-1.8,20.21,20.21,0,0,1,3.4.6,1.72,1.72,0,0,1,1.2.2Z"/><path class="cls-15" d="M270.5,286.6a21.09,21.09,0,0,0-4.8-.8,21.38,21.38,0,0,0-11.2,3.2,42.87,42.87,0,0,0-9,7.6l-2.5,2.6a7.64,7.64,0,0,1-.9.9,7.63,7.63,0,0,1,.8-1.1,23.35,23.35,0,0,1,2.4-2.7,40.59,40.59,0,0,1,9-7.8,20.91,20.91,0,0,1,11.4-3.1,15.28,15.28,0,0,1,3.6.7,3.55,3.55,0,0,1,.9.4A.77.77,0,0,0,270.5,286.6Z"/><path class="cls-15" d="M170.1,289.2H181s24.6-8.9,29.6-8c4.5.8,21.2,11.8,24.5,14a2,2,0,0,1,.8,1h0a3.61,3.61,0,0,1-.1,2.7,4.36,4.36,0,0,1-1.9,1.9l-.3.1.1.5a6.45,6.45,0,0,1,.3,2,2.37,2.37,0,0,1-4.4,1l.6,1.1a2.06,2.06,0,0,1,.3,1.5l-.1,1a2,2,0,0,1-.6,1.5,2.38,2.38,0,0,1-1.3.9h0a2,2,0,0,1-1.5,0,2.22,2.22,0,0,1-1.3-.8c-2.1-2.3-6.7-7-9.8-7.5a67.68,67.68,0,0,0-10.1-.5,3.08,3.08,0,0,0-1.9.6,2.76,2.76,0,0,0-1.2,1.6h0c1.8.1,14.6,6.8,19.1,9.2a5.17,5.17,0,0,1,1.8,1.5,4.35,4.35,0,0,1,.9,2.1c.2,1.4-.5,2.9-3.3,2.2-6-1.4-16.8-6.4-16.8-6.4s-5.6-1.6-9.2,1c-5.1,3.6-7.4,4.9-11.8,3.5a43.49,43.49,0,0,1-7.6-3.5l-8.6-.9C167.1,312.6,159,292.3,170.1,289.2Z"/><path class="cls-15" d="M202.5,293.4a31.7,31.7,0,0,1,4.6-.6,24,24,0,0,1,19.8,8.5,29.76,29.76,0,0,1,2.7,3.8,3.7,3.7,0,0,0-.5-1.1,19.59,19.59,0,0,0-1.9-2.8,23.15,23.15,0,0,0-9-6.8,23.44,23.44,0,0,0-11.1-1.8,20.21,20.21,0,0,0-3.4.6,1.72,1.72,0,0,0-1.2.2Z"/><path class="cls-15" d="M205.1,287.4a21.09,21.09,0,0,1,4.8-.8,21.38,21.38,0,0,1,11.2,3.2,42.87,42.87,0,0,1,9,7.6l2.5,2.6.9.9a3.92,3.92,0,0,0-.8-1,23.35,23.35,0,0,0-2.4-2.7,43.35,43.35,0,0,0-9-7.8,20.91,20.91,0,0,0-11.4-3.1,15.28,15.28,0,0,0-3.6.7,3.55,3.55,0,0,0-.9.4C205.2,287.3,205.1,287.4,205.1,287.4Z"/><path class="cls-10" d="M187.3,319.2H187a2.77,2.77,0,0,1-.9-.1,6.33,6.33,0,0,1-3.2-1.5,6.58,6.58,0,0,1-1.7-2.3,7.06,7.06,0,0,1-.6-2.8c-.1-2.3-.2-4.9-.4-7.9-.5-11.9-1.2-29.1-2.1-50.4-.2-5.3-.5-10.9-.7-16.7-.1-2.9-.2-5.9-.4-8.9,0-.8-.1-1.5-.1-2.3a8.56,8.56,0,0,1,.5-2.3,6.79,6.79,0,0,1,5.5-4.1,19.22,19.22,0,0,1,2.4,0H315.1a8.08,8.08,0,0,1,3.1.5,6.77,6.77,0,0,1,2.6,1.8,9.19,9.19,0,0,1,1.6,2.7,7.69,7.69,0,0,1,.3,3l-.1,3c-.1,2-.2,4-.3,5.9-.3,7.9-.7,15.7-1,23.4-.7,15.3-1.3,30.1-1.9,44.1-.1,1.8-.2,3.5-.2,5.2,0,.9-.1,1.7-.1,2.6a10.9,10.9,0,0,1-.3,2.6,6.67,6.67,0,0,1-2.2,3.3,6.94,6.94,0,0,1-3.6,1.6c-.9.1-1.7,0-2.5.1H256.3l-50.4-.1-13.7-.1h-3.6a4.77,4.77,0,0,0-1.3-.3h4.8l13.7-.1,50.4-.1h54.2a21.75,21.75,0,0,0,2.5-.1,6.15,6.15,0,0,0,2.3-.7,6.51,6.51,0,0,0,3-3.7,10.07,10.07,0,0,0,.3-2.5c0-.9.1-1.7.1-2.6.1-1.7.1-3.5.2-5.2.6-14.1,1.2-28.8,1.9-44.2.4-7.7.7-15.5,1-23.4l.3-6,.1-3a9.47,9.47,0,0,0-.2-2.9,7.68,7.68,0,0,0-1.4-2.5,5.65,5.65,0,0,0-2.4-1.6,7,7,0,0,0-2.9-.4H183a6,6,0,0,0-3.1,1.2,7.55,7.55,0,0,0-2.1,2.6,8,8,0,0,0-.5,2.1,18.48,18.48,0,0,0,.1,2.3c.1,3,.2,6,.4,8.9.2,5.8.5,11.4.7,16.7.8,21.3,1.5,38.5,2,50.4.1,3,.2,5.6.3,7.9a6.71,6.71,0,0,0,.6,2.8,6.58,6.58,0,0,0,1.7,2.3,7.67,7.67,0,0,0,3.1,1.6A4.47,4.47,0,0,0,187.3,319.2Z"/><path class="cls-17" d="M212.3,147.4a6.48,6.48,0,0,1,3.2.1l-3.1.8Z"/><path class="cls-17" d="M270.6,149.4a20.13,20.13,0,0,0-3.7-.7l3.7,1.4Z"/><path class="cls-9" d="M187.3,319.2H312.2a7,7,0,0,0,4.6-1.8,6.46,6.46,0,0,0,2-4.5l3.7-85.9a6.9,6.9,0,0,0-1.7-4.8,6.22,6.22,0,0,0-4.6-2.1H183.8a7,7,0,0,0-2.5.5,7.44,7.44,0,0,0-2.2,1.4,5.55,5.55,0,0,0-1.4,2.2,7.42,7.42,0,0,0-.5,2.5v.3l3.5,85.9a6.49,6.49,0,0,0,6.6,6.3Z"/><path class="cls-14" d="M243,271.1a7,7,0,0,0,1.1,3.8,6.42,6.42,0,0,0,3.1,2.5,6.75,6.75,0,0,0,4,.4,7,7,0,0,0,5.4-5.4,7,7,0,0,0-2.9-7.1,6.36,6.36,0,0,0-3.8-1.2h0a7.51,7.51,0,0,0-2.6.5,5.41,5.41,0,0,0-2.2,1.5,8.55,8.55,0,0,0-1.5,2.2,7.44,7.44,0,0,0-.6,2.8Z"/><path class="cls-16" d="M336.9,279.7c0,.2,1.9-.1,5-.1a39,39,0,0,1,11.7,2.1,35.45,35.45,0,0,1,10.5,5.6c2.4,1.9,3.5,3.5,3.7,3.4s-.2-.4-.7-1.2a21.6,21.6,0,0,0-2.5-2.7,31,31,0,0,0-10.6-6,32.72,32.72,0,0,0-12-1.8,23.25,23.25,0,0,0-3.7.4A5.88,5.88,0,0,0,336.9,279.7Z"/><path class="cls-10" d="M249.3,75.4c-.4.5-3-1.4-6.7-1.2s-6.2,2.1-6.6,1.7c-.2-.2.2-1,1.3-1.9a9.25,9.25,0,0,1,5.3-1.9,8.24,8.24,0,0,1,5.3,1.5C249.1,74.4,249.5,75.2,249.3,75.4Z"/><path class="cls-10" d="M246.6,85.9a3.23,3.23,0,0,1-.8,2.1,2.52,2.52,0,0,1-2,.9,2.49,2.49,0,0,1-2-.7,3,3,0,0,1-1-1.9v-.1a2.79,2.79,0,0,1,.8-2,2.52,2.52,0,0,1,2-.9,2.49,2.49,0,0,1,2,.7,2.56,2.56,0,0,1,1,1.9Z"/><path class="cls-10" d="M260.2,99.9c0-.2,2.1-.5,5.4-1,.9-.1,1.7-.3,1.8-.8a5.56,5.56,0,0,0-.6-2.5l-2.5-6.5c-3.5-9.3-6-16.9-5.6-17s3.5,7.3,7,16.5l2.4,6.5c.3,1,.9,2.1.4,3.3a1.56,1.56,0,0,1-.6.8,2.18,2.18,0,0,1-.8.5,7.84,7.84,0,0,1-1.4.2C262.3,100.1,260.2,100.1,260.2,99.9Z"/><path class="cls-10" d="M282.4,74.4c-.4.5-3-1.4-6.7-1.2s-6.2,2.1-6.6,1.7c-.2-.2.2-1,1.3-1.9a9.25,9.25,0,0,1,5.3-1.9,8.88,8.88,0,0,1,5.3,1.5C282.2,73.4,282.6,74.2,282.4,74.4Z"/><path class="cls-10" d="M277.4,85.2a3.23,3.23,0,0,1-.8,2.1,2.66,2.66,0,0,1-2,.9,4.1,4.1,0,0,1-1.1-.1,3.13,3.13,0,0,1-1-.5,2.18,2.18,0,0,1-.7-.9,2,2,0,0,1-.3-1.1v-.1a3.23,3.23,0,0,1,.8-2.1,2.66,2.66,0,0,1,2-.9,2.49,2.49,0,0,1,2,.7,2.72,2.72,0,0,1,1.1,2Z"/><path class="cls-18" d="M257.7,44.7a15.28,15.28,0,0,0-4.6-3.4,9.53,9.53,0,0,0-5.5-1,10.63,10.63,0,0,0-5.1,2.2,38.47,38.47,0,0,0-4.1,4,22.74,22.74,0,0,1-4.5,3.7,12.87,12.87,0,0,1-5.4,2.2,12.65,12.65,0,0,1-5.8-.2,25,25,0,0,1-5.3-2.3,31.84,31.84,0,0,0,5.4,2.1,12.21,12.21,0,0,0,5.7.1c3.7-.8,6.9-3.2,9.6-6a31.76,31.76,0,0,1,4.1-4.1,9.91,9.91,0,0,1,5.4-2.2,10.33,10.33,0,0,1,5.7,1.2A22.16,22.16,0,0,1,257.7,44.7Z"/><path class="cls-3" d="M287.7,105.4c1.9-.2,3.7,2.1,3.8,4.1s-.7,3.8-.8,5.8c-.2,4.1,2.5,7.6,3.8,11.5a17.65,17.65,0,0,1-1.8,15c-2.5,4-7.6,6.9-11.9,4.9a7.9,7.9,0,0,0,2.8,4.9c-1.8,1.3-4.4.8-6.3-.4s-12.6,1.2-14.8,1.2c-15.1-.2-28.4-7.4-34.4-23.6-2-5.5-3-10.5-5-16a108.26,108.26,0,0,1-4.2-17c-.3-1.8-.4-4.1,1.2-4.9s3.6,1,4.1,2.8.2,3.9.9,5.6c1.4,3.7,6.3,4.6,10.2,3.8s7.4-1.7,11.3-1.8c8.5-.3,13.8,1.8,23,3,3.2.4,7.2-.7,10.2-1.6s7.2.1,7.9,3.2"/><path class="cls-18" d="M287.7,105.4a3.32,3.32,0,0,1,2.8,1.5,4.55,4.55,0,0,1,1,3.2c-.1,2.2-1.1,4.4-.7,6.7a23.59,23.59,0,0,0,2.2,6.3,23.83,23.83,0,0,1,2.3,6.3,17.38,17.38,0,0,1-2.8,12.9,13.49,13.49,0,0,1-5.1,4.4,8,8,0,0,1-6.6.2l.2-.2a8,8,0,0,0,2.7,4.8l.2.1-.2.1a4.59,4.59,0,0,1-2.8.8,6.81,6.81,0,0,1-2.8-.7,7.54,7.54,0,0,0-1.3-.6,6.15,6.15,0,0,0-1.4-.1,26.35,26.35,0,0,0-2.8.2c-1.9.2-3.8.5-5.7.8l-2.8.4a6.6,6.6,0,0,1-1.4.1h-1.4c-7.6-.3-15.4-2.5-21.5-7.2a37,37,0,0,1-12.6-18.9c-1.2-3.6-2.1-7.4-3.3-11-.6-1.8-1.3-3.6-1.8-5.4s-1-3.7-1.5-5.6-.8-3.7-1.2-5.6-.9-3.7-.7-5.7a3.36,3.36,0,0,1,.5-1.4,2.94,2.94,0,0,1,1.2-1,2.69,2.69,0,0,1,2.8.8,5.1,5.1,0,0,1,1.4,2.6,28.5,28.5,0,0,1,.3,2.9,6,6,0,0,0,2.4,4.8,9.08,9.08,0,0,0,5.3,1.5,21.81,21.81,0,0,0,5.6-.9,56.7,56.7,0,0,1,5.7-1,49.2,49.2,0,0,1,11.5.3c3.8.6,7.5,1.5,11.3,2.1a22,22,0,0,0,5.7.5,26.44,26.44,0,0,0,5.6-1.1,22.91,22.91,0,0,1,2.8-.7,7.08,7.08,0,0,1,2.9,0,6,6,0,0,1,2.6,1.1,4.61,4.61,0,0,1,1.6,2.3,3.76,3.76,0,0,0-1.6-2.3,6.6,6.6,0,0,0-2.6-1.1,8.77,8.77,0,0,0-2.8,0c-.9.2-1.8.5-2.8.8a34.67,34.67,0,0,1-5.6,1.1,22,22,0,0,1-5.7-.5c-3.8-.6-7.5-1.4-11.3-2a43.55,43.55,0,0,0-11.4-.3,50.33,50.33,0,0,0-5.6,1,27.1,27.1,0,0,1-5.7.9,9.08,9.08,0,0,1-5.5-1.6,5.74,5.74,0,0,1-1.9-2.2,7.22,7.22,0,0,1-.7-2.8,24,24,0,0,0-.3-2.8,5.64,5.64,0,0,0-1.3-2.4,2.12,2.12,0,0,0-3.8,1.4c-.2,1.9.4,3.7.7,5.6s.8,3.7,1.2,5.6a49.45,49.45,0,0,0,1.5,5.5c.5,1.8,1.3,3.6,1.8,5.4,1.2,3.6,2.1,7.4,3.3,11a43.9,43.9,0,0,0,4.8,10.3,32,32,0,0,0,7.7,8.3,37.86,37.86,0,0,0,21.3,7.2c.5,0,1,.1,1.4.1s.9-.1,1.4-.1l2.8-.4c1.9-.3,3.8-.6,5.7-.8a28.25,28.25,0,0,1,2.9-.2,7.72,7.72,0,0,1,1.5.2c.5.2.9.5,1.3.7a6.37,6.37,0,0,0,2.7.7,4.62,4.62,0,0,0,2.6-.7v.3a8.79,8.79,0,0,1-2.9-5v-.3l.3.1a7.21,7.21,0,0,0,6.4-.2,12,12,0,0,0,5-4.2,17.93,17.93,0,0,0,2.8-12.7,20.56,20.56,0,0,0-2.2-6.3,23.08,23.08,0,0,1-2.2-6.4c-.3-2.3.7-4.4.8-6.7a4.45,4.45,0,0,0-1-3.1C289.9,106,288.9,105.3,287.7,105.4Z"/><path class="cls-18" d="M230,36.7a5.06,5.06,0,0,0-1.7.4,10,10,0,0,0-3.5,2.2,9.29,9.29,0,0,0-2.3,3.4c-.4,1-.5,1.6-.4,1.7a6.9,6.9,0,0,0,.7-1.5,11.41,11.41,0,0,1,2.3-3.2,11.09,11.09,0,0,1,3.3-2.2C229.3,36.9,230,36.8,230,36.7Z"/><path class="cls-18" d="M268.2,41.7a6.07,6.07,0,0,0,1.4-2.7,5.87,5.87,0,0,0,.3-3,29.51,29.51,0,0,0-.7,2.9A26.71,26.71,0,0,0,268.2,41.7Z"/><path class="cls-15" d="M216.4,79c-.4-.2-14.9-4.4-14.5,10.4s15.3,11.3,15.3,10.9S216.4,79,216.4,79Z"/><path class="cls-16" d="M211.7,94.8a7.76,7.76,0,0,0-.7.4,2.51,2.51,0,0,1-1.9.1c-1.6-.5-3-3-3.1-5.7a7.81,7.81,0,0,1,.6-3.7,3.11,3.11,0,0,1,1.9-2.1,1,1,0,0,1,.9.1,1.34,1.34,0,0,1,.7.6c.2.4.1.7.2.7s.3-.3.2-.9a1.46,1.46,0,0,0-.6-.9,1.74,1.74,0,0,0-1.4-.3,3.65,3.65,0,0,0-2.6,2.4,8.54,8.54,0,0,0-.8,4.2c.2,3,1.8,5.7,4,6.3a2.44,2.44,0,0,0,1.2,0,3.7,3.7,0,0,0,1.1-.5C211.7,95.1,211.8,94.8,211.7,94.8Z"/><path class="cls-15" d="M222.6,71.7c2.7-2.1,1.4-7.6,1.9-10.3-13.4,3.6-16.3-8.8-16.3-8.8-2.6,15.3,4,32.4,4,32.4A33.35,33.35,0,0,1,222.6,71.7Z"/><path class="cls-14" d="M266.7,113.3a3.44,3.44,0,0,1-2.2.5,8.84,8.84,0,0,1-5.2-1.8,8.28,8.28,0,0,1-3-4.6c-.4-1.4-.2-2.3-.1-2.3a16.82,16.82,0,0,1,.8,2,8.52,8.52,0,0,0,3,4,9.42,9.42,0,0,0,4.6,1.9C265.8,113.2,266.7,113.1,266.7,113.3Z"/><path class="cls-18" d="M236.9,120.3a32.64,32.64,0,0,1-2.3-6.2c-.8-3.6-.5-6.6-.7-6.6a5.52,5.52,0,0,0-.3,2,16.24,16.24,0,0,0,.4,4.7,17.69,17.69,0,0,0,1.7,4.5A10.19,10.19,0,0,0,236.9,120.3Z"/><path class="cls-18" d="M251.6,143c.1-.1-1.5-1.6-3.5-4.3a41.3,41.3,0,0,1-3.3-5.1,37.53,37.53,0,0,1-2.9-6.7,56.92,56.92,0,0,1-1.7-7.2,46.23,46.23,0,0,1-.4-6c0-3.4.4-5.5.3-5.5s-.1.5-.3,1.5c-.1.5-.1,1.1-.2,1.8a17,17,0,0,0-.1,2.3,33.48,33.48,0,0,0,.3,6.1,43.9,43.9,0,0,0,1.6,7.3,38.7,38.7,0,0,0,3,6.8,41.3,41.3,0,0,0,3.3,5.1c.5.7,1.1,1.3,1.5,1.8a15.38,15.38,0,0,0,1.2,1.3C251.2,142.7,251.6,143,251.6,143Z"/><path class="cls-18" d="M250.1,137a18,18,0,0,0-1.3-3.5,17.94,17.94,0,0,0-1.4-3.4,9,9,0,0,0,.9,3.6C249,135.7,249.9,137.1,250.1,137Z"/><path class="cls-18" d="M256.2,140c.1-.1-1.3-2.6-2.5-5.9s-1.8-6.2-2-6.2a20.48,20.48,0,0,0,1.5,6.4C254.4,137.6,256,140.1,256.2,140Z"/><path class="cls-18" d="M269.6,128.9c.1-.1-.8-1.1-1.6-2.5s-1.5-2.5-1.6-2.5a5.33,5.33,0,0,0,1.2,2.8A5.17,5.17,0,0,0,269.6,128.9Z"/><path class="cls-18" d="M288.6,137c.1,0,.1-.8-.3-2.1a12.62,12.62,0,0,0-2.4-4.3,12,12,0,0,0-3.9-3,4.3,4.3,0,0,0-2-.6,11.78,11.78,0,0,0,1.8,1,13.54,13.54,0,0,1,3.7,3,13.91,13.91,0,0,1,2.4,4.1C288.4,136.3,288.5,137,288.6,137Z"/><path class="cls-18" d="M293.1,130.6a7.27,7.27,0,0,0-2.5-2.8,7.55,7.55,0,0,0-3.3-1.7,27.8,27.8,0,0,0,3,2.1C291.8,129.6,293,130.8,293.1,130.6Z"/><path class="cls-18" d="M282.6,137.9a6.62,6.62,0,0,0-.4-2.5,15.49,15.49,0,0,0-2.9-5.5,16.13,16.13,0,0,0-4.7-4c-1.4-.8-2.3-1.1-2.4-1s.8.5,2.2,1.3a19.58,19.58,0,0,1,4.5,4,17.1,17.1,0,0,1,3,5.3C282.4,137,282.6,137.9,282.6,137.9Z"/><path class="cls-18" d="M280.6,116c0,.1.6.1,1.5-.1a5.85,5.85,0,0,0,2.8-2.3,5.15,5.15,0,0,0,.5-3.5,2.77,2.77,0,0,0-.6-1.3c-.1.1.1.6.3,1.4a5.3,5.3,0,0,1-.6,3.3,6.53,6.53,0,0,1-2.4,2.3C281.2,115.8,280.6,115.9,280.6,116Z"/><path class="cls-18" d="M277.9,115.2c0,.1.4.2,1.3.1a5.16,5.16,0,0,0,2.7-1.3,4.56,4.56,0,0,0,1.1-2.8c0-.8-.1-1.3-.2-1.2s0,.5-.1,1.2a4.42,4.42,0,0,1-1.2,2.5,4.2,4.2,0,0,1-2.3,1.3C278.4,115.1,277.9,115.1,277.9,115.2Z"/><path class="cls-18" d="M272.9,112.8c0,.1.4.3,1.1.5a4.39,4.39,0,0,0,2.8,0,3.51,3.51,0,0,0,2.1-1.8,1.38,1.38,0,0,0,.1-1.1c-.1,0-.1.4-.4,1a3.67,3.67,0,0,1-1.9,1.5,5.41,5.41,0,0,1-2.5.1C273.4,112.9,273,112.8,272.9,112.8Z"/></svg>