<svg id="Слой_1" data-name="Слой 1" xmlns="http://www.w3.org/2000/svg" viewBox="0 0 814.8 230.5"><defs><style>.cls-1{font-size:126.43px;fill:#eaeaea;font-family:AllerCyrillic, Aller Cyrillic;}.cls-2{letter-spacing:-0.02em;}.cls-3{letter-spacing:-0.02em;}.cls-4{fill:#a0abaf;}.cls-5{fill:#00adf5;}.cls-6{fill:#0096f5;}</style></defs><text class="cls-1" transform="translate(328.75 123.48)"><tspan class="cls-2">k</tspan><tspan x="62.46" y="0">eje</tspan><tspan class="cls-3" x="239.71" y="0">r</tspan><tspan x="284.84" y="0">o</tspan></text><path class="cls-4" d="M335.13,159.22h23.7V162H338.14v14.76h19.4v2.79h-19.4v18.78h-3Z"/><path class="cls-4" d="M364.19,178c0-4.7-.06-6.71-.06-7.61h2.74c.06.9.12,2.69.12,6.26a10.59,10.59,0,0,1,9.72-6.93v3c-5.81.39-9.72,4.42-9.72,11.07v14.53h-2.8Z"/><path class="cls-4" d="M404.49,184.31c0,7.77-4.31,14.7-12.63,14.7-7.55,0-12.24-6.2-12.24-14.64,0-8,4.41-14.65,12.52-14.65C399.57,169.72,404.49,175.54,404.49,184.31Zm-21.91.06c0,6.65,3.58,12,9.5,12s9.45-5,9.45-12c0-6.6-3.36-12-9.56-12C385.6,172.35,382.58,177.66,382.58,184.37Z"/><path class="cls-4" d="M411.42,177.44c0-2.46,0-4.81-.06-7.05h2.74c.11.9.17,4.53.11,5.31,1.23-2.85,3.52-6,9.28-6,5,0,9.39,2.8,9.39,10.51v18.11h-2.79V180.68c0-5-2.07-8.22-6.93-8.22-6.65,0-9,5.54-9,11.63v14.25h-2.79Z"/><path class="cls-4" d="M437.69,170.39h5.2v-8.72h2.79v8.72h6.65V173h-6.65v18.17c0,3.13.67,4.92,3.35,4.92a10.55,10.55,0,0,0,2.91-.34v2.46a9.83,9.83,0,0,1-3.46.5c-3.58,0-5.59-1.79-5.59-6.26V173h-5.2Z"/><path class="cls-4" d="M458.31,184.7c.06,7.21,3.69,11.68,9.06,11.68s7-3,8.05-5.25h2.85c-1.18,3.69-4.14,7.88-11,7.88-8.5,0-11.8-7.32-11.8-14.42,0-8,4-14.87,12.13-14.87,8.61,0,11.35,7.44,11.35,12.69,0,.78,0,1.57-.06,2.29ZM476,182.24c-.06-5.53-3.07-9.89-8.55-9.89-5.76,0-8.39,4-9,9.89Z"/><path class="cls-4" d="M485.76,177.44c0-2.46,0-4.81-.06-7.05h2.74c.11.9.17,4.53.11,5.31,1.23-2.85,3.52-6,9.28-6,5,0,9.39,2.8,9.39,10.51v18.11h-2.8V180.68c0-5-2.06-8.22-6.93-8.22-6.65,0-8.94,5.54-8.94,11.63v14.25h-2.79Z"/><path class="cls-4" d="M538,157.15v33.14c0,2.68,0,5.26,0,8.05h-2.68c-.11-.67-.17-3.3-.17-4.69-1.39,3.41-4.52,5.36-9.39,5.36-7.26,0-11.62-5.92-11.62-14.31,0-8.6,4.75-15,12.35-15,5.59,0,7.83,2.41,8.66,4.2V157.15Zm-20.85,27.44c0,7.66,4,11.79,8.78,11.79,7.37,0,9.39-5.08,9.39-12.68,0-7.21-1.74-11.35-8.89-11.35C520.86,172.35,517.11,176.77,517.11,184.59Z"/><path class="cls-4" d="M562.55,159.22h13c10.73,0,18.16,7.49,18.16,19.22s-7.26,19.9-18.22,19.9H562.55Zm3,36.33H575c10.34,0,15.43-7.27,15.43-16.94,0-8.61-4.58-16.6-15.43-16.6h-9.44Z"/><path class="cls-4" d="M602,184.7c.06,7.21,3.69,11.68,9.06,11.68s7-3,8-5.25H622c-1.17,3.69-4.13,7.88-11,7.88-8.49,0-11.79-7.32-11.79-14.42,0-8,4-14.87,12.13-14.87,8.61,0,11.35,7.44,11.35,12.69,0,.78,0,1.57-.06,2.29Zm17.72-2.46c-.06-5.53-3.08-9.89-8.55-9.89-5.76,0-8.39,4-9,9.89Z"/><path class="cls-4" d="M629.57,170.39c4.52,12.8,7.65,21.52,8.72,25.1h.05c.62-2.07,3.75-10.4,9.17-25.1h3l-10.56,28h-3.36l-9.95-28Z"/><path class="cls-4" d="M656.56,184.7c.06,7.21,3.69,11.68,9.06,11.68s7-3,8-5.25h2.84c-1.17,3.69-4.13,7.88-11,7.88-8.49,0-11.79-7.32-11.79-14.42,0-8,4-14.87,12.13-14.87,8.61,0,11.35,7.44,11.35,12.69,0,.78,0,1.57-.06,2.29Zm17.72-2.46c-.06-5.53-3.07-9.89-8.55-9.89-5.76,0-8.39,4-9,9.89Z"/><path class="cls-4" d="M684.23,198.34V157.15H687v41.19Z"/><path class="cls-4" d="M718.83,184.31c0,7.77-4.31,14.7-12.64,14.7-7.54,0-12.24-6.2-12.24-14.64,0-8,4.42-14.65,12.52-14.65C713.91,169.72,718.83,175.54,718.83,184.31Zm-21.91.06c0,6.65,3.57,12,9.5,12s9.44-5,9.44-12c0-6.6-3.35-12-9.55-12C699.93,172.35,696.92,177.66,696.92,184.37Z"/><path class="cls-4" d="M728.55,194.21v15.31h-2.79V177.27c0-2.29,0-4.75-.06-6.88h2.74c.11,1.07.11,2.74.11,5,1.73-3.35,4.81-5.7,9.84-5.7,6.59,0,11.18,5.54,11.18,13.92,0,10.06-5.37,15.37-12.13,15.37C732.52,199,730,196.83,728.55,194.21Zm18.05-10.46c0-6.48-3.13-11.34-8.66-11.34-6.76,0-9.56,4.24-9.56,11.85s2.18,12.12,9.17,12.12C743.36,196.38,746.6,191.47,746.6,183.75Z"/><path class="cls-4" d="M757.5,184.7c.06,7.21,3.69,11.68,9.06,11.68s7-3,8.05-5.25h2.85c-1.18,3.69-4.14,7.88-11,7.88-8.49,0-11.79-7.32-11.79-14.42,0-8,4-14.87,12.13-14.87,8.61,0,11.35,7.44,11.35,12.69,0,.78,0,1.57-.06,2.29Zm17.72-2.46c-.06-5.53-3.07-9.89-8.55-9.89-5.76,0-8.39,4-9,9.89Z"/><path class="cls-4" d="M785,178c0-4.7-.06-6.71-.06-7.61h2.74c0,.9.11,2.69.11,6.26a10.6,10.6,0,0,1,9.73-6.93v3c-5.82.39-9.73,4.42-9.73,11.07v14.53H785Z"/><path class="cls-5" d="M77,42.54H72.68c-9.3,0-11.84,4-11.84,15.65,0,11.1.94,21,.94,33.49,0,13.55-3.93,19.63-13.09,22v.78c9.16,2.33,13.09,8.25,13.09,22,0,12.54-.94,22.39-.94,33.49,0,11.68,2.54,15.65,11.84,15.65H77v12.23H66.53c-16.36,0-23.83-6.23-23.83-26.87,0-13.94,1.79-22.58,1.79-35.44,0-7.08-3.82-14.41-16.75-14.64V107.26c12.93-.23,16.75-7.56,16.75-14.8,0-12.7-1.79-21.34-1.79-35.28,0-20.64,7.47-26.87,23.83-26.87H77Z"/><path class="cls-6" d="M72.68,42.54H77V30.31H69.42V42.54h-4c-8.59,0-10.93,4-10.93,15.65,0,11.1.86,21,.86,33.49,0,13.55-3.63,19.63-12.08,22v.78c8.45,2.33,12.08,8.25,12.08,22,0,12.54-.86,22.39-.86,33.49,0,11.68,2.34,15.65,10.93,15.65h4v12.23H77V185.53H72.68c-9.3,0-11.84-4-11.84-15.65,0-11.1.94-20.95.94-33.49,0-13.71-3.93-19.63-13.09-22v-.78c9.16-2.34,13.09-8.42,13.09-22,0-12.54-.94-22.39-.94-33.49C60.84,46.51,63.38,42.54,72.68,42.54Z"/><path class="cls-5" d="M230.67,185.53H235c9.31,0,11.84-4,11.84-15.65,0-11.1-.94-20.95-.94-33.49,0-13.55,3.94-19.63,13.09-22v-.78c-9.15-2.33-13.09-8.25-13.09-22,0-12.54.94-22.39.94-33.49,0-11.68-2.53-15.65-11.84-15.65h-4.36V30.31h10.51c16.36,0,23.84,6.23,23.84,26.87,0,13.94-1.8,22.58-1.8,35.44,0,7.08,3.82,14.4,16.75,14.64v13.55c-12.93.23-16.75,7.56-16.75,14.8,0,12.7,1.8,21.34,1.8,35.28,0,20.64-7.48,26.87-23.84,26.87H230.67Z"/><path class="cls-6" d="M235,185.53h-4.36v12.23h7.63V185.53h4c8.59,0,10.93-4,10.93-15.65,0-11.1-.86-20.95-.86-33.49,0-13.55,3.63-19.63,12.08-22v-.78c-8.45-2.33-12.08-8.25-12.08-22,0-12.54.86-22.39.86-33.49,0-11.68-2.34-15.65-10.93-15.65h-4V30.31h-7.63V42.54H235c9.31,0,11.84,4,11.84,15.65,0,11.1-.94,21-.94,33.49,0,13.71,3.94,19.63,13.09,22v.78c-9.15,2.34-13.09,8.42-13.09,22,0,12.54.94,22.39.94,33.49C246.87,181.56,244.34,185.53,235,185.53Z"/><circle class="cls-6" cx="125.14" cy="185.54" r="7.98"/><circle class="cls-6" cx="153.86" cy="185.54" r="7.98"/><path class="cls-6" d="M190.55,185.54a8,8,0,1,1-8-8A8,8,0,0,1,190.55,185.54Z"/></svg>