<svg id="Слой_1" data-name="Слой 1" xmlns="http://www.w3.org/2000/svg" viewBox="0 0 814.8 230.5"><defs><style>.cls-1{font-size:126.43px;fill:#eaeaea;font-family:AllerCyrillic, Aller Cyrillic;}.cls-2{letter-spacing:-0.02em;}.cls-3{letter-spacing:-0.02em;}.cls-4{font-size:50.08px;fill:#a0abaf;font-family:ProximaNova-Regular, Proxima Nova;}.cls-5{fill:#00adf5;}.cls-6{fill:#0096f5;}</style></defs><text class="cls-1" transform="translate(328.75 123.48)"><tspan class="cls-2">k</tspan><tspan x="62.46" y="0">eje</tspan><tspan class="cls-3" x="239.71" y="0">r</tspan><tspan x="284.84" y="0">o</tspan></text><text class="cls-4" transform="translate(334.65 199.92)">Frontend Developer</text><path class="cls-5" d="M77,42.54H72.68c-9.3,0-11.84,4-11.84,15.65,0,11.1.94,21,.94,33.49,0,13.55-3.93,19.63-13.09,22v.78c9.16,2.33,13.09,8.25,13.09,22,0,12.54-.94,22.39-.94,33.49,0,11.68,2.54,15.65,11.84,15.65H77v12.23H66.53c-16.36,0-23.83-6.23-23.83-26.87,0-13.94,1.79-22.58,1.79-35.44,0-7.08-3.82-14.41-16.75-14.64V107.26c12.93-.23,16.75-7.56,16.75-14.8,0-12.7-1.79-21.34-1.79-35.28,0-20.64,7.47-26.87,23.83-26.87H77Z"/><path class="cls-6" d="M72.68,42.54H77V30.31H69.42V42.54h-4c-8.59,0-10.93,4-10.93,15.65,0,11.1.86,21,.86,33.49,0,13.55-3.63,19.63-12.08,22v.78c8.45,2.33,12.08,8.25,12.08,22,0,12.54-.86,22.39-.86,33.49,0,11.68,2.34,15.65,10.93,15.65h4v12.23H77V185.53H72.68c-9.3,0-11.84-4-11.84-15.65,0-11.1.94-20.95.94-33.49,0-13.71-3.93-19.63-13.09-22v-.78c9.16-2.34,13.09-8.42,13.09-22,0-12.54-.94-22.39-.94-33.49C60.84,46.51,63.38,42.54,72.68,42.54Z"/><path class="cls-5" d="M230.67,185.53H235c9.31,0,11.84-4,11.84-15.65,0-11.1-.94-20.95-.94-33.49,0-13.55,3.94-19.63,13.09-22v-.78c-9.15-2.33-13.09-8.25-13.09-22,0-12.54.94-22.39.94-33.49,0-11.68-2.53-15.65-11.84-15.65h-4.36V30.31h10.51c16.36,0,23.84,6.23,23.84,26.87,0,13.94-1.8,22.58-1.8,35.44,0,7.08,3.82,14.4,16.75,14.64v13.55c-12.93.23-16.75,7.56-16.75,14.8,0,12.7,1.8,21.34,1.8,35.28,0,20.64-7.48,26.87-23.84,26.87H230.67Z"/><path class="cls-6" d="M235,185.53h-4.36v12.23h7.63V185.53h4c8.59,0,10.93-4,10.93-15.65,0-11.1-.86-20.95-.86-33.49,0-13.55,3.63-19.63,12.08-22v-.78c-8.45-2.33-12.08-8.25-12.08-22,0-12.54.86-22.39.86-33.49,0-11.68-2.34-15.65-10.93-15.65h-4V30.31h-7.63V42.54H235c9.31,0,11.84,4,11.84,15.65,0,11.1-.94,21-.94,33.49,0,13.71,3.94,19.63,13.09,22v.78c-9.15,2.34-13.09,8.42-13.09,22,0,12.54.94,22.39.94,33.49C246.87,181.56,244.34,185.53,235,185.53Z"/><circle class="cls-6" cx="125.14" cy="185.54" r="7.98"/><circle class="cls-6" cx="153.86" cy="185.54" r="7.98"/><path class="cls-6" d="M190.55,185.54a8,8,0,1,1-8-8A8,8,0,0,1,190.55,185.54Z"/></svg>