<svg xmlns="http://www.w3.org/2000/svg" viewBox="0 0 300.42 500"><defs><style>.cls-1{fill:#263238;}.cls-2{fill:#6896ee;}.cls-3,.cls-6{opacity:0.3;}.cls-4{fill:#e0e0e0;}.cls-5{fill:#455a64;}.cls-7{fill:#fff;}.cls-8{opacity:0.2;}.cls-9{fill:#ffbf9d;}.cls-10{fill:#ff9a6c;}.cls-11{fill:#262626;}.cls-12{fill:#4d5a64;}</style></defs><g id="Astronaut"><path class="cls-1" d="M232.64,94.35a5.35,5.35,0,0,1,2.92.43c.09,0,.7.32.31.11.25.13.49.28.73.43s.47.32.69.49c.53.4-.19-.26.25.23A6.15,6.15,0,0,1,239,98.25a5.7,5.7,0,0,1,.32,2.57c0,.24,0,.47-.07.7.07-.46-.11.43-.13.52s-.14.45-.23.67-.3.66-.11.28a7.66,7.66,0,0,1-.89,1.37c.28-.35-.16.14-.22.2-.22.21-.46.4-.7.6s.2-.08-.25.18a5.82,5.82,0,0,1-.6.34,8,8,0,0,1-.84.38c.41-.15-.28.08-.29.08-.26.07-.52.13-.79.18-.09,0-.85.08-.41.06a9.48,9.48,0,0,1-1.6-.07,2.41,2.41,0,0,0-2.5,2.29,2.45,2.45,0,0,0,2.3,2.5A10.81,10.81,0,0,0,240.2,92a10.79,10.79,0,0,0-7.37-2.46,2.46,2.46,0,0,0-2.49,2.29,2.42,2.42,0,0,0,2.3,2.5Z"/><rect class="cls-2" x="100.03" y="63.22" width="132.05" height="174.29" rx="20.26" transform="translate(-1.84 2.05) rotate(-0.7)"/><path class="cls-1" d="M111.16,134.24s0-.18,0-.53l0-1.58c0-1.41,0-3.45,0-6.07,0-5.29,0-12.91-.09-22.31,0-4.71,0-9.87,0-15.41a8,8,0,0,1,1-4.18,7.8,7.8,0,0,1,3.18-3.08,7.63,7.63,0,0,1,2.17-.74,11.93,11.93,0,0,1,2.3-.13h4.61l40.52,0,40.54,0h4.61a11.78,11.78,0,0,1,2.29.13,7.43,7.43,0,0,1,2.17.74,7.77,7.77,0,0,1,3.19,3.08,8,8,0,0,1,1,4.18c0,5.54,0,10.7,0,15.41,0,9.4-.07,17-.09,22.31,0,2.62,0,4.66,0,6.07l0,1.58c0,.35,0,.53,0,.53s0-.18,0-.53,0-.9,0-1.58c0-1.41,0-3.45,0-6.07,0-5.29-.05-12.91-.09-22.31,0-4.71,0-9.87,0-15.41a7.5,7.5,0,0,0-.92-4,7.24,7.24,0,0,0-3-2.89,6.91,6.91,0,0,0-2-.68,11.44,11.44,0,0,0-2.21-.12h-4.61l-40.54,0-40.52,0h-4.61a11.44,11.44,0,0,0-2.21.12,6.91,6.91,0,0,0-2,.68,7.24,7.24,0,0,0-3,2.89,7.5,7.5,0,0,0-.92,4c0,5.54,0,10.7,0,15.41,0,9.4-.07,17-.09,22.31,0,2.62,0,4.66,0,6.07l0,1.58C111.18,134.06,111.16,134.24,111.16,134.24Z"/><path class="cls-3" d="M227.29,232.07c.3-.34-5.27-63.67-5.27-63.67l-13.51-3.52,4.37,60.4,7.41,10.81A15.71,15.71,0,0,0,227.29,232.07Z"/><circle class="cls-1" cx="207.01" cy="91.97" r="2.43"/><circle class="cls-1" cx="207.01" cy="100.37" r="2.43"/><path class="cls-4" d="M126.34,107.35s-13.6,3.89-16.68,5.73-32.09,30.41-33.12,31.23c-.72.58-11.31-11.11-17.43-18.89L51.19,121,33,135l.4,9.32C40.12,155,53.65,175.6,60,180.67c8.41,6.77,19.68,7.19,28.6,3.47,5.28-2.21,27.37-19.58,27.37-19.58l11.69-4.31Z"/><path class="cls-1" d="M100.55,145.58a21.84,21.84,0,0,1,1.3,3.15c.8,2.11,1.79,4.75,2.89,7.68s2.14,5.54,3,7.65a22.63,22.63,0,0,1,1.18,3.19,18.21,18.21,0,0,1-1.54-3c-.86-1.92-2-4.61-3.11-7.61s-2.09-5.75-2.74-7.74A20.86,20.86,0,0,1,100.55,145.58Z"/><path class="cls-1" d="M105.07,172.94a10.21,10.21,0,0,1-1.18-1.14c-.74-.76-1.76-1.9-3-3.36a72.55,72.55,0,0,1-13.58-26c-.51-1.82-.86-3.31-1-4.35a8.25,8.25,0,0,1-.26-1.62A10,10,0,0,1,86.5,138c.26,1,.67,2.49,1.22,4.29a80.43,80.43,0,0,0,13.51,25.9c1.16,1.48,2.13,2.66,2.82,3.46A9.15,9.15,0,0,1,105.07,172.94Z"/><path class="cls-1" d="M75.47,153.15a18.6,18.6,0,0,1,.12-4.51,19.29,19.29,0,0,1,.66-4.47,18.6,18.6,0,0,1-.12,4.51A19.29,19.29,0,0,1,75.47,153.15Z"/><path class="cls-2" d="M78,142.92c-.69.59,2.47,21.78,18.28,36.37l3.72-2.67s-17.86-16.78-18.78-36.81Z"/><path class="cls-1" d="M59.11,125.42c.09.12-5.6,4.45-12.7,9.67s-12.92,9.36-13,9.24,5.59-4.45,12.69-9.68S59,125.3,59.11,125.42Z"/><path class="cls-1" d="M39.52,153.57a5.23,5.23,0,0,1,.72-.84l2.1-2.18c1.8-1.83,4.33-4.35,7.2-7.17l0,.36c-.36-.43-.73-.9-1.12-1.37-.54-.66-1.07-1.31-1.57-1.94l.36,0c-3.15,2.2-5.94,4.12-8,5.48l-2.38,1.57a4.13,4.13,0,0,1-.9.52,4.19,4.19,0,0,1,.79-.67L39,145.67c2-1.44,4.71-3.41,7.85-5.63l.2-.14.16.19c.51.62,1,1.28,1.59,1.94l1.11,1.37.16.19-.18.18c-2.88,2.81-5.45,5.28-7.32,7l-2.22,2.06A4.42,4.42,0,0,1,39.52,153.57Z"/><polygon class="cls-2" points="33.31 142.29 57.18 124.34 51.19 120.99 33 135.01 33.31 142.29"/><path class="cls-1" d="M49.71,99.59c-.48-.59-1-1.17-1.48-1.74a11.38,11.38,0,0,0-1.7,2.27A34,34,0,0,0,43,107.63s-6.36-10-7.56-12.25a63.18,63.18,0,0,0-4.1-6.85,20.42,20.42,0,0,0-8.93,1c2.72,4.42,7.89,12.09,6.82,13.15-.87.86-5.95-6.59-10.49-11.34l-.55.37a18.87,18.87,0,0,0-4.42,4.54c3.16,3.54,6.82,7.65,6.71,8.49s-4.22-2.8-8.34-5.81a28.87,28.87,0,0,0-1.84,4.37c-.3.93-.55,1.87-.78,2.82,4.06,3.37,10.06,6.41,7.16,6.3-1.78-.08-5-1.64-7.87-2.83-.33,2-.57,4-.78,6,3.53,2.16,7.54,3.33,8.9,5.29,1.49,2.13,5.11,9,9.72,11.48S33,135,33,135l17.92-12.39s1.33-7.84,1.69-12a28.47,28.47,0,0,1,1.8-7C52.43,103.1,51,101.23,49.71,99.59Z"/><path class="cls-5" d="M12.15,98.92c-3.7-2.7-7.4-5-8.19-3.35C2.3,99,4,99.75,7.25,103.87a16.2,16.2,0,0,0,2.28,2.24c.23-1,.48-1.89.78-2.82A28.87,28.87,0,0,1,12.15,98.92Z"/><path class="cls-5" d="M31.35,88.53c-2.93-4.16-6.88-8.16-10.27-5.84,0,0-1.77,1.49.48,5.41.24.41.54.9.86,1.42A20.42,20.42,0,0,1,31.35,88.53Z"/><path class="cls-5" d="M3,109c-.88,2.84.29,3.32,4,5.91.32.22.65.42,1,.63.21-2,.45-4,.78-6C6,108.41,3.47,107.61,3,109Z"/><path class="cls-5" d="M54.41,103.62c.79-2.3,1.35-4.24.51-5.83-1.28-2.43-4.16-2.52-6.69.06.51.57,1,1.15,1.48,1.74C51,101.23,52.43,103.1,54.41,103.62Z"/><path class="cls-5" d="M18.2,91.7l.55-.37a14.71,14.71,0,0,0-4.49-3.57c-4.81-1.85-6,1.36-4.76,3.42a64.32,64.32,0,0,0,4.28,5.06A18.87,18.87,0,0,1,18.2,91.7Z"/><path class="cls-5" d="M36.38,124a2,2,0,0,1-.42-.69,7.8,7.8,0,0,1-.62-2.11,8.81,8.81,0,0,1,.12-3.28,8.54,8.54,0,0,1,1.78-3.61,9,9,0,0,1,5.16-3l-.17.2a27.13,27.13,0,0,1,.56-4.15,26.26,26.26,0,0,1-.12,4.19v.16l-.17,0a8.93,8.93,0,0,0-4.83,3,8.79,8.79,0,0,0-1.94,6.49A20.2,20.2,0,0,0,36.38,124Z"/><path class="cls-5" d="M32.71,104c0,.09-1.1.35-2.78,1.06a20.54,20.54,0,0,0-10.23,9.54c-.84,1.64-1.17,2.74-1.26,2.71s0-.29.15-.8a12.55,12.55,0,0,1,.76-2.07,18.74,18.74,0,0,1,10.43-9.74,14.31,14.31,0,0,1,2.13-.61A2.3,2.3,0,0,1,32.71,104Z"/><polygon class="cls-4" points="199.64 103.96 193.92 94.5 132.19 94.92 128.4 106.23 121.59 110.37 164.2 117.2 207.48 110.5 199.64 103.96"/><path class="cls-1" d="M194.17,94.92a3,3,0,0,1-.54.39c-.38.23-.92.59-1.64,1-1.43.86-3.55,2-6.25,3.31a59.8,59.8,0,0,1-9.85,3.63,46.83,46.83,0,0,1-12.74,1.66A59,59,0,0,1,140.44,100a54,54,0,0,1-6.29-3.25c-.72-.42-1.25-.8-1.62-1a4.18,4.18,0,0,1-.54-.4,2.86,2.86,0,0,1,.6.3c.39.21.93.56,1.67,1a63,63,0,0,0,6.33,3.07,61,61,0,0,0,22.56,4.76,48,48,0,0,0,12.61-1.6,63,63,0,0,0,9.82-3.5c2.71-1.22,4.85-2.35,6.31-3.14l1.68-.93A4.76,4.76,0,0,1,194.17,94.92Z"/><path class="cls-1" d="M199.69,104.05s-.18.2-.57.54-1,.83-1.73,1.45a63.33,63.33,0,0,1-6.73,4.84,37.73,37.73,0,0,1-11.35,4.72,60.93,60.93,0,0,1-15,1.62,61.65,61.65,0,0,1-7.8-.48,50.44,50.44,0,0,1-7.13-1.49A59.84,59.84,0,0,1,138,110.7a68,68,0,0,1-7.12-4.25c-.82-.54-1.42-1-1.84-1.3a4.05,4.05,0,0,1-.62-.49,4.3,4.3,0,0,1,.68.4c.44.27,1.06.71,1.89,1.21a82.48,82.48,0,0,0,7.18,4.09,62.51,62.51,0,0,0,11.39,4.41,51.37,51.37,0,0,0,7.07,1.44,64.45,64.45,0,0,0,7.73.47,63,63,0,0,0,14.85-1.56,38.71,38.71,0,0,0,11.27-4.56,76.1,76.1,0,0,0,6.8-4.69l1.79-1.36A6,6,0,0,1,199.69,104.05Z"/><path class="cls-5" d="M286.79,252a41.73,41.73,0,0,1-6-2.26c-1.42-.61-2.85-1.17-4.29-1.7-1,2.7-2.33,6,.35,7.41,3.65,1.89,6,2.64,11.11-.21a20.6,20.6,0,0,0,4.19-3.09A11.44,11.44,0,0,1,286.79,252Z"/><path class="cls-5" d="M272.41,246.59c-2.84-.9-5.72-1.66-8.62-2.3.15,1.52.27,2.63.33,3,.35,2.23,1.52,5.6,4.44,5.73S272.59,250.87,272.41,246.59Z"/><polygon class="cls-4" points="117.69 226.53 108.68 164.33 119.53 110.94 127.14 110.94 197.58 104.54 220.38 113.54 219.15 168.23 220.29 215.93 170.08 233.98 117.69 226.53"/><path class="cls-1" d="M115.63,212.28a1,1,0,0,1-.07-.24c0-.2-.08-.43-.13-.72-.12-.67-.27-1.59-.47-2.75-.39-2.45-.94-5.91-1.61-10.16-1.32-8.62-3.14-20.46-5.14-33.53-1.09-6.53-2.12-12.77-2.75-18.49a116,116,0,0,1-.81-15.24,72.44,72.44,0,0,1,.9-10.26c.17-1.2.41-2.12.53-2.74.07-.29.12-.52.16-.71a.75.75,0,0,1,.08-.24,1,1,0,0,1,0,.25c0,.19-.07.43-.11.72-.08.63-.29,1.55-.43,2.75a77.39,77.39,0,0,0-.72,10.23,119,119,0,0,0,.92,15.19c.65,5.69,1.7,11.91,2.79,18.45,2,13.1,3.73,25,5,33.56.6,4.26,1.09,7.73,1.44,10.18.16,1.17.28,2.1.37,2.78,0,.29.06.52.08.72A1.18,1.18,0,0,1,115.63,212.28Z"/><g class="cls-6"><path d="M206.34,208.54A16.32,16.32,0,0,1,188,217.6c-4.73-1-8.72-4.11-12.54-7.09l3.79-3.8,15.11,2.44,8.6-3.85Z"/></g><path class="cls-1" d="M220.73,221.1a.83.83,0,0,1-.25.06l-.75.14-2.88.48c-2.51.41-6.15.95-10.64,1.56-9,1.22-21.47,2.64-35.29,3.65s-26.37,1.4-35.45,1.5c-4.54,0-8.22,0-10.76,0l-2.92,0-.76,0-.26,0,.26,0,.76,0,2.92,0c2.54,0,6.21-.07,10.75-.17,9.07-.19,21.6-.66,35.42-1.66s26.27-2.36,35.28-3.48c4.5-.56,8.14-1,10.65-1.39l2.9-.38.76-.08A.74.74,0,0,1,220.73,221.1Z"/><path class="cls-2" d="M219.4,178c-34.69-.87-76.44.12-108,1.33l1.43,8.59L219.55,185Z"/><path class="cls-1" d="M194.42,174.12a5,5,0,0,0,2-.54,4.46,4.46,0,0,0,1.79-1.74,4.7,4.7,0,0,0,.52-1.52,13.89,13.89,0,0,0,0-1.85c0-5.31,0-12.95-.08-22.38q0-3.56,0-7.42a4.24,4.24,0,0,0-3.32-4.09,8.82,8.82,0,0,0-2-.11l-17.74,0-40.66,0A4.2,4.2,0,0,0,131,137.2a6.34,6.34,0,0,0-.29,2.52v13q0,5.1,0,10v4.85c0,.8,0,1.62,0,2.37a4.23,4.23,0,0,0,.73,2.07,4.31,4.31,0,0,0,3.77,1.84h13.12l15.46,0,22.38.09,6.09,0,1.58,0,.54,0-.54,0-1.58,0-6.09,0-22.38.09-15.46,0H135.25a4.79,4.79,0,0,1-4.18-2,4.72,4.72,0,0,1-.83-2.32c0-.83,0-1.6,0-2.41v-4.85c0-3.27,0-6.61,0-10v-13a6.94,6.94,0,0,1,.32-2.72,4.77,4.77,0,0,1,4.43-3l40.66,0,17.74,0a9.36,9.36,0,0,1,2.1.12,4.87,4.87,0,0,1,1.9.92,4.76,4.76,0,0,1,1.75,3.61c0,2.58,0,5.05,0,7.42,0,9.43-.06,17.07-.08,22.38a14.24,14.24,0,0,1-.08,1.88,4.51,4.51,0,0,1-2.44,3.33,4.55,4.55,0,0,1-1.53.44A3.65,3.65,0,0,1,194.42,174.12Z"/><path class="cls-1" d="M131.3,134.2c.47-7.33-7.78-11.89-12.64-15.76-2.82-2.25-5.25-4.41-6.6-7.66-.88-2.13-1.67-4.81-.74-7.06a6.46,6.46,0,0,1,4.15-3.48,11.93,11.93,0,0,1,6,.08,22.11,22.11,0,0,1,6.47,2.3c2.91,1.7,5.54-2.81,2.64-4.51A26,26,0,0,0,124,95.55a21.85,21.85,0,0,0-7-.87c-5.67.44-10.63,4.31-11.25,10.15-.53,4.92,1.92,10.21,5.23,13.75,2.73,2.91,6.18,5.2,9.23,7.62a28,28,0,0,1,4.53,4.23c-.29-.36.22.31.22.31.14.21.28.42.41.64s.52,1.1.37.7a6.68,6.68,0,0,1,.32,1.14c-.1-.51,0,0,0,.13,0,.29,0,.57,0,.85-.22,3.36,5,3.35,5.22,0Z"/><polygon class="cls-5" points="122.18 131.11 135.21 131.11 135.07 143.03 122.76 143.03 122.18 131.11"/><circle class="cls-1" cx="150.23" cy="202.85" r="7.78" transform="translate(-65.95 72.53) rotate(-22.39)"/><circle class="cls-1" cx="176.18" cy="202.85" r="7.78" transform="translate(-63.99 82.41) rotate(-22.39)"/><circle class="cls-1" cx="203.72" cy="202.85" r="7.78" transform="translate(-66.61 105.02) rotate(-24.98)"/><path class="cls-4" d="M172.12,205.67c8.57,11.74,25.79,13.5,35.19,1.52,4.08-5.19-3.21-12.59-7.33-7.34-4.83,6.16-13.9,7.44-18.9.58-3.9-5.33-12.91-.16-9,5.24Z"/><path class="cls-1" d="M172.12,205.67s-.06-.06-.15-.19l-.39-.62a5.48,5.48,0,0,1-.43-1.1,4.22,4.22,0,0,1,0-1.63,5,5,0,0,1,2.73-3.38,6.42,6.42,0,0,1,2.69-.72,5.73,5.73,0,0,1,3,.77,10.9,10.9,0,0,1,2.41,2.43c.37.45.84.81,1.26,1.23a11.46,11.46,0,0,0,1.52,1,10.42,10.42,0,0,0,7.64,1,13.32,13.32,0,0,0,7.23-4.66c.25-.29.55-.59.83-.88a8.46,8.46,0,0,1,1-.72,4.12,4.12,0,0,1,2.47-.36,6.08,6.08,0,0,1,4.46,7.84c-.6,1.61-1.86,2.67-2.87,3.85a21.23,21.23,0,0,1-7.6,4.77,20.27,20.27,0,0,1-8,1.23,21.92,21.92,0,0,1-6.93-1.42,22.54,22.54,0,0,1-8.52-5.57,16.62,16.62,0,0,1-1.8-2.11l-.44-.57c-.1-.13-.14-.2-.13-.21l.17.17.48.55a20.46,20.46,0,0,0,1.87,2,23,23,0,0,0,8.5,5.36A22,22,0,0,0,190,215.1a20.08,20.08,0,0,0,7.84-1.25,20.83,20.83,0,0,0,7.39-4.68c1-1.15,2.23-2.23,2.74-3.66a5.55,5.55,0,0,0-4-7.12,3.62,3.62,0,0,0-2.15.32,7.23,7.23,0,0,0-.9.63c-.26.28-.51.52-.77.82a13.8,13.8,0,0,1-7.53,4.8,10.84,10.84,0,0,1-8-1.09A14.45,14.45,0,0,1,183,202.8c-.43-.45-.92-.83-1.29-1.29a10.68,10.68,0,0,0-2.3-2.38,5.51,5.51,0,0,0-2.82-.76A6.2,6.2,0,0,0,174,199a4.75,4.75,0,0,0-2.66,3.16,4,4,0,0,0,0,1.54,6,6,0,0,0,.37,1.09c.13.26.24.46.34.63S172.12,205.67,172.12,205.67Z"/><path class="cls-1" d="M143,162.41a1.93,1.93,0,1,1-1.92-1.92A1.92,1.92,0,0,1,143,162.41Z"/><path class="cls-1" d="M149.61,162.41a1.93,1.93,0,1,1-1.92-1.92A1.92,1.92,0,0,1,149.61,162.41Z"/><path class="cls-1" d="M156,162.41a1.93,1.93,0,1,1-1.93-1.92A1.92,1.92,0,0,1,156,162.41Z"/><path class="cls-1" d="M162.33,162.41a1.93,1.93,0,1,1-1.93-1.92A1.92,1.92,0,0,1,162.33,162.41Z"/><path class="cls-7" d="M159.5,150.2H142a2.31,2.31,0,0,1-2.31-2.31h0a2.3,2.3,0,0,1,2.31-2.31H159.5a2.31,2.31,0,0,1,2.31,2.31h0A2.32,2.32,0,0,1,159.5,150.2Z"/><path class="cls-2" d="M143.37,155.07a1.93,1.93,0,1,1-1.93-1.92A1.92,1.92,0,0,1,143.37,155.07Z"/><path class="cls-7" d="M150,155.07a1.93,1.93,0,1,1-1.93-1.92A1.92,1.92,0,0,1,150,155.07Z"/><path class="cls-2" d="M156.31,155.07a1.93,1.93,0,1,1-1.93-1.92A1.92,1.92,0,0,1,156.31,155.07Z"/><path class="cls-7" d="M162.66,155.07a1.92,1.92,0,1,1-1.92-1.92A1.92,1.92,0,0,1,162.66,155.07Z"/><rect class="cls-5" x="175.11" y="144.08" width="14.12" height="14.12" rx="1.74"/><path class="cls-1" d="M188.42,164.88H175.91a2,2,0,0,1-2-2h0a2,2,0,0,1,2-2h12.51a2,2,0,0,1,2,2h0A2,2,0,0,1,188.42,164.88Z"/><path class="cls-3" d="M134,174.09s.33,1.22,4.19,1.84,51.4.52,54.22,0a8.11,8.11,0,0,0,4.32-2.21Z"/><path class="cls-4" d="M282.82,199.31c-2.51-5.9-17.42-30.81-22-38.12S243,139.81,243,139.81l-12.65-16.7a43.89,43.89,0,0,0-10-9.57h0l-8.88,29.08,3.25,24.69,15.32,8.2,9.45,14.92,18.6,28.9a17.87,17.87,0,0,0,3.51,1.86l22.65-14S285.22,204.94,282.82,199.31Z"/><path class="cls-1" d="M248,154.91a5,5,0,0,1-.25,1.07,10,10,0,0,1-.42,1.23,15.9,15.9,0,0,1-.68,1.57,29.46,29.46,0,0,1-2.25,3.85,41.12,41.12,0,0,1-3.43,4.23,49.17,49.17,0,0,1-7.45,6.5c-1,.73-1.89,1.28-2.5,1.64a4.29,4.29,0,0,1-1,.51c0-.08,1.26-.93,3.25-2.46a59.33,59.33,0,0,0,7.28-6.56,44.51,44.51,0,0,0,3.42-4.15,32.55,32.55,0,0,0,2.31-3.74C247.5,156.39,247.92,154.88,248,154.91Z"/><path class="cls-1" d="M226.66,148.59c.08,0-.41,1.16-1,3s-1.37,4.5-2.16,7.42a75.85,75.85,0,0,1-2.32,7.41,21.27,21.27,0,0,1-1,2.16,3,3,0,0,1-.45.75c-.08,0,.41-1.16,1-3s1.36-4.5,2.15-7.42a75.85,75.85,0,0,1,2.32-7.41c.36-.93.7-1.67,1-2.16A3,3,0,0,1,226.66,148.59Z"/><path class="cls-1" d="M221.42,118.72a.81.81,0,0,1,0,.25c0,.2,0,.44,0,.74q-.1,1-.27,2.82c-.08,1.24-.18,2.74-.29,4.47l-.27,5.93c-.32,8.79-.5,20.94-.52,34.37s.09,25.59.18,34.39c0,4.36.08,7.91.1,10.42,0,1.19,0,2.14,0,2.83,0,.3,0,.54,0,.74a1.27,1.27,0,0,1,0,.25,1,1,0,0,1,0-.25c0-.2,0-.44,0-.74,0-.69-.07-1.63-.12-2.83-.06-2.51-.16-6.05-.28-10.42-.19-8.8-.35-21-.33-34.39s.26-25.59.68-34.39c.13-2.19.24-4.18.35-5.93s.28-3.23.38-4.47.28-2.13.37-2.81c0-.3.08-.54.11-.73A.7.7,0,0,1,221.42,118.72Z"/><path class="cls-2" d="M271.46,203.83c-.66.21-11.72,4.82-13.34,15.5a19.56,19.56,0,0,0,4,2.07l22.15-14.22a7.89,7.89,0,0,0-.1-3.78S282.68,200.23,271.46,203.83Z"/><path class="cls-1" d="M261.75,222.55s2,22.54,2.37,24.78,1.52,5.6,4.44,5.73c3.29.16,4.24-2.71,3.76-7.9s-.53-8.51.45-7.85,4.88,5.46,4.53,8.08-4.11,8.12-.45,10,6,2.64,11.11-.21a19,19,0,0,0,7.15-6.74s4.2-8.73,3.45-12.23c-.28-1.32-8.74-18.24-8.74-18.24l-5.89-10s-2.61-5.09-12.76.39C260.44,214.15,261.49,219.83,261.75,222.55Z"/><path class="cls-2" d="M224.18,172.35a248.19,248.19,0,0,0,20-31.27l3.29,3.62a135.2,135.2,0,0,1-20,29.42Z"/><path class="cls-1" d="M279.05,192.05a8.4,8.4,0,0,1-1.07.07,17,17,0,0,0-2.91.54,61.78,61.78,0,0,0-9.35,3.5l-.2.09-.13-.18-1.24-1.69-1-1.34-.13-.19.16-.16a13.84,13.84,0,0,1,5-3,25,25,0,0,1,4.5-1.17,27.43,27.43,0,0,1,3.08-.35,4,4,0,0,1,1.13,0,6,6,0,0,1-1.11.18c-.72.1-1.76.25-3,.51a28.66,28.66,0,0,0-4.4,1.26,13.84,13.84,0,0,0-4.75,2.92l0-.35,1,1.34c.42.58.84,1.15,1.23,1.7l-.33-.09a52.32,52.32,0,0,1,9.5-3.36,13.6,13.6,0,0,1,3-.39,5.06,5.06,0,0,1,.81.06C279,192,279.06,192,279.05,192.05Z"/><path class="cls-2" d="M283.45,200.84a48.09,48.09,0,0,0-5.13-.38,20.89,20.89,0,0,0-5.49.81,23.75,23.75,0,0,0-6.18,2.8,24.72,24.72,0,0,0-8.38,8.92,47.15,47.15,0,0,0-2.1,4.71,5.74,5.74,0,0,1,.32-1.36,22,22,0,0,1,1.44-3.53,23.94,23.94,0,0,1,8.43-9.2,23.53,23.53,0,0,1,6.34-2.83,20.61,20.61,0,0,1,5.62-.71,20,20,0,0,1,3.79.41A5.72,5.72,0,0,1,283.45,200.84Z"/><path class="cls-5" d="M284.63,235a2.68,2.68,0,0,1,.53.78,15.68,15.68,0,0,1,1.1,2.32,15.27,15.27,0,0,1,.95,3.71,11.58,11.58,0,0,1-.37,4.69,15.16,15.16,0,0,1-2.15,4.17,33.1,33.1,0,0,1-2.37,3c-.73.81-1.35,1.42-1.8,1.83a3.24,3.24,0,0,1-.73.59c-.06-.06.87-1,2.23-2.67.68-.83,1.47-1.84,2.26-3a15.67,15.67,0,0,0,2-4,13.33,13.33,0,0,0-.41-8.11C285.21,236.17,284.55,235,284.63,235Z"/><path class="cls-5" d="M293.86,236.05s.16.24.35.72a11.91,11.91,0,0,1,.6,2.08,16.58,16.58,0,0,1,.31,3.22,18.83,18.83,0,0,1-.47,3.93,19.21,19.21,0,0,1-1.36,3.71,16,16,0,0,1-1.74,2.72,12.19,12.19,0,0,1-1.48,1.59c-.39.34-.61.51-.64.48s.76-.84,1.81-2.3a18.14,18.14,0,0,0,1.6-2.71,18.38,18.38,0,0,0,1.78-7.43,18.49,18.49,0,0,0-.19-3.14C294.16,237.14,293.77,236.08,293.86,236.05Z"/><path class="cls-5" d="M285.23,230.64c.13-.08.54.56.41,1.44s-.71,1.36-.81,1.26.18-.64.27-1.34S285.09,230.7,285.23,230.64Z"/><path class="cls-5" d="M293.76,231.85c.12-.09.55.31.68,1s-.15,1.22-.29,1.17-.14-.52-.25-1.07S293.64,231.94,293.76,231.85Z"/><path class="cls-4" d="M130.91,407.76l16.6,39-7.8,29.72a12,12,0,0,0,9.77,13.42,6.41,6.41,0,0,0,1.56.15h0c1.56-.14,5.67-2.85,6.51-4.08,9.4-13.78,22.52-31.76,20.62-38-1.08-3.59-9.55-46.31-9.55-46.31Z"/><path class="cls-1" d="M159.6,428.71a2.5,2.5,0,0,1,.33.56c.2.38.48,1,.82,1.68a67.94,67.94,0,0,1,2.63,6.32,30.39,30.39,0,0,1,1.9,9.93,19.76,19.76,0,0,1-.89,5.93,47.83,47.83,0,0,1-2.42,6c-2,3.95-3.08,8-4.82,11.45s-4.26,6.25-7.12,7.51a9.93,9.93,0,0,1-7.22.42,6.75,6.75,0,0,1-1.74-.91c-.35-.27-.52-.44-.5-.45a11.26,11.26,0,0,0,2.34,1.11,9.77,9.77,0,0,0,6.89-.6,15.24,15.24,0,0,0,6.74-7.35c1.66-3.39,2.78-7.47,4.76-11.45a50.54,50.54,0,0,0,2.41-5.9,20,20,0,0,0,.9-5.76,31.21,31.21,0,0,0-1.72-9.77c-.89-2.73-1.8-4.88-2.4-6.37A17,17,0,0,1,159.6,428.71Z"/><path class="cls-1" d="M160.4,447.79c-.07.2-2.92-.61-6.54-.92s-6.58-.07-6.6-.27,3-.76,6.67-.41S160.47,447.64,160.4,447.79Z"/><path class="cls-1" d="M155.89,456.74c-.11.18-2.4-.92-5.45-1.61s-5.61-.74-5.61-.94,2.63-.45,5.79.29S156,456.6,155.89,456.74Z"/><path class="cls-1" d="M154.49,466.5c-.14.16-2.2-1.29-5.08-2.46s-5.41-1.61-5.37-1.81,2.68,0,5.66,1.19S154.62,466.38,154.49,466.5Z"/><path class="cls-1" d="M141.35,484a11.76,11.76,0,0,0,2.09.89,10.11,10.11,0,0,0,6.11-.33,17.46,17.46,0,0,0,7.06-5.45c2.17-2.6,4.42-5.57,6.63-8.77a128,128,0,0,0,9.92-17.16c1.1-2.28,1.91-4.16,2.49-5.45a11.71,11.71,0,0,1,.93-2,12.2,12.2,0,0,1-.67,2.08c-.49,1.33-1.23,3.24-2.28,5.55a112,112,0,0,1-16.5,26.13,17.67,17.67,0,0,1-7.4,5.51,10.07,10.07,0,0,1-6.38.13,6.77,6.77,0,0,1-1.55-.75C141.49,484.1,141.33,484,141.35,484Z"/><path class="cls-1" d="M174.42,449.47a17.82,17.82,0,0,1-.7-3.21c-.38-2-.95-4.71-1.73-7.7s-1.66-5.64-2.31-7.56a17.49,17.49,0,0,1-1-3.14,12.67,12.67,0,0,1,1.46,3,59.62,59.62,0,0,1,2.53,7.56,60.24,60.24,0,0,1,1.54,7.79A12.74,12.74,0,0,1,174.42,449.47Z"/><path class="cls-4" d="M253.49,388.28l-8.91,41.34L258,457.7a11.7,11.7,0,0,1-7.09,14.89,5.65,5.65,0,0,1-1.51.41h0c-1.57.13-6.15-1.87-7.22-2.94-11.93-12.06-28.36-27.64-27.69-34.17.38-3.72.55-47.37.55-47.37Z"/><path class="cls-1" d="M229.16,413.77a2.82,2.82,0,0,1-.08.64c-.1.49-.22,1.09-.36,1.82-.3,1.58-.79,3.85-1.15,6.69a31.08,31.08,0,0,0,.18,9.95,20.34,20.34,0,0,0,2,5.54,52,52,0,0,0,3.51,5.44c2.72,3.59,4.61,7.44,6.9,10.52a15.83,15.83,0,0,0,8.08,6.14,9.82,9.82,0,0,0,6.93-.56,11.09,11.09,0,0,0,2.1-1.48,2.76,2.76,0,0,1-.41.53,6.92,6.92,0,0,1-1.55,1.18,9.85,9.85,0,0,1-7.21.79c-3.08-.77-6.14-3.09-8.49-6.24s-4.25-6.93-7-10.51a47.55,47.55,0,0,1-3.55-5.51,20.75,20.75,0,0,1-2-5.72,30.41,30.41,0,0,1,0-10.13,62.89,62.89,0,0,1,1.39-6.69c.2-.78.36-1.38.48-1.79S229.13,413.76,229.16,413.77Z"/><path class="cls-1" d="M232,432.77c-.1-.15,2.46-1.72,6.08-2.67s6.69-.87,6.68-.7-3,.42-6.48,1.36S232.13,433,232,432.77Z"/><path class="cls-1" d="M238.21,440.85c-.13-.12,1.78-1.87,4.77-3.11s5.65-1.42,5.67-1.25-2.51.66-5.37,1.87S238.34,441,238.21,440.85Z"/><path class="cls-1" d="M241.47,450.27c-.15-.1,1.41-2.14,4.13-3.84s5.33-2.29,5.38-2.12-2.36,1-5,2.69S241.63,450.4,241.47,450.27Z"/><path class="cls-1" d="M257.8,465.33s-.1.17-.37.45a6.09,6.09,0,0,1-1.39,1,10,10,0,0,1-6.32.93,18.27,18.27,0,0,1-8.38-4.21c-2.7-2.21-5.51-4.76-8.33-7.57a115.52,115.52,0,0,1-13-15.51c-1.48-2.11-2.58-3.87-3.32-5.1a14.06,14.06,0,0,1-1.06-1.95,13,13,0,0,1,1.3,1.82c.82,1.18,2,2.9,3.51,5a132.76,132.76,0,0,0,13.1,15.31c2.8,2.8,5.6,5.36,8.24,7.57a18.1,18.1,0,0,0,8,4.21,10,10,0,0,0,6.09-.69A12.17,12.17,0,0,0,257.8,465.33Z"/><path class="cls-1" d="M218.49,436.76a13.05,13.05,0,0,1-.44-3.28,61.33,61.33,0,0,1,1.07-15.84,12.31,12.31,0,0,1,.88-3.2,18.53,18.53,0,0,1-.37,3.27c-.28,2-.62,4.78-.83,7.86s-.24,5.87-.23,7.9A17,17,0,0,1,218.49,436.76Z"/><path class="cls-5" d="M232.69,248.31s8-.75,10.88,2.71,14.06,20.86,12.42,22.49-4.83,5.54-4.83,5.54Z"/><path class="cls-4" d="M170.75,383.47c.09-.66-6.51-25.36-6.51-25.36l-.61-30.06,1.64-19.73s5.35-2.3,1.08-8.16l2.31-10.26-52.53-64.73s-2.69,17.39-4,37.51c-.3,4.7-5.86,28.59-4.28,44s8.92,43.55,9.22,48.51,9.07,35.17,13.48,45.41c5.24,12.12,13.45,37,13.45,37l33.12-7.82S170.66,384.14,170.75,383.47Z"/><path class="cls-4" d="M234.39,249.86c1.36.6,27.22,41.38,30.12,52.23s-.44,38-1.35,43.05S249,413.57,248.54,415.31s-20.63,9.3-34.61.54l-1.78-24.1s-2.38-26.08-1.9-33.41l.49-7.33.23-25.49-5.86-15.06c-1.75-1.69-2.46-3.49-2.09-5.38l-3.72-9.55-13-9.31s-1.8-11.84,9.16-27.6,31.7-22,31.7-22Z"/><path class="cls-1" d="M112.28,332.54a6.23,6.23,0,0,1,1.84-.92,36.84,36.84,0,0,1,5.41-1.64,73.44,73.44,0,0,1,18.63-1.47c1.83.1,3.61.15,5.33.35s3.37.48,4.93.79a62.13,62.13,0,0,1,8,2.34,53.94,53.94,0,0,1,5.17,2.18,9.09,9.09,0,0,1,1.79,1,13.53,13.53,0,0,1-1.91-.76c-1.22-.5-3-1.21-5.23-2a68.56,68.56,0,0,0-8-2.18,62.18,62.18,0,0,0-10.14-1.08,80.86,80.86,0,0,0-18.49,1.27,49.14,49.14,0,0,0-5.42,1.41C113,332.28,112.3,332.58,112.28,332.54Z"/><path class="cls-2" d="M113.69,338.82a69.1,69.1,0,0,1,26.51-3.71,99.57,99.57,0,0,1,23.67,4.51l.08,3.92s-16.08-3.31-23.16-3.68c-8.81-.46-26.21,3.06-26.21,3.06Z"/><path class="cls-1" d="M202.71,305.11a14,14,0,0,1,1.18-1.9,19.78,19.78,0,0,1,1.54-2.14c.65-.81,1.34-1.77,2.25-2.71a40.3,40.3,0,0,1,3-3.07c1.09-1.1,2.39-2.13,3.73-3.25a62.88,62.88,0,0,1,9.65-6.18,65.4,65.4,0,0,1,10.79-4.23c1.74-.46,3.38-.92,5-1.18s3-.53,4.39-.69,2.58-.23,3.65-.3a24.66,24.66,0,0,1,2.77-.06,17.71,17.71,0,0,1,2.36.11,15.4,15.4,0,0,1-2.35.16c-.76,0-1.68.05-2.75.17s-2.28.16-3.61.4-2.79.4-4.33.76-3.18.76-4.89,1.22a68.83,68.83,0,0,0-10.64,4.24,66.7,66.7,0,0,0-9.57,6.06c-1.33,1.09-2.64,2.1-3.74,3.17s-2.13,2-3,3-1.64,1.84-2.31,2.62a24.69,24.69,0,0,0-1.64,2.06A11.73,11.73,0,0,1,202.71,305.11Z"/><path class="cls-1" d="M205.49,310.75a11.82,11.82,0,0,1,1.17-1.91,23,23,0,0,1,1.54-2.14c.65-.8,1.34-1.76,2.25-2.7a38.57,38.57,0,0,1,3-3.08c1.09-1.09,2.39-2.13,3.74-3.25a63.13,63.13,0,0,1,9.65-6.17,64.8,64.8,0,0,1,10.79-4.24c1.73-.45,3.37-.91,4.95-1.18a42.23,42.23,0,0,1,4.39-.68c1.35-.21,2.58-.23,3.66-.31a24.35,24.35,0,0,1,2.77,0,14,14,0,0,1,2.35.11,16.52,16.52,0,0,1-2.35.15c-.75,0-1.68.05-2.74.17s-2.29.17-3.62.4-2.79.4-4.33.76-3.17.77-4.88,1.23a67.37,67.37,0,0,0-10.64,4.23,66.46,66.46,0,0,0-9.57,6.06c-1.34,1.09-2.65,2.1-3.74,3.17a41.07,41.07,0,0,0-3,3c-.93.91-1.64,1.84-2.31,2.62s-1.21,1.47-1.64,2.06A15.09,15.09,0,0,1,205.49,310.75Z"/><polygon class="cls-4" points="222.78 223.28 182.65 218.23 116.13 225.17 116.86 251.37 115.37 252.81 169.02 291.22 174.56 286.6 186.35 286.22 227.98 238.62 222.78 223.28"/><path class="cls-1" d="M229.83,242.49s-.88.22-2.48.58a56.88,56.88,0,0,0-6.64,1.94,51.54,51.54,0,0,0-18.87,11.81,46.9,46.9,0,0,0-11.33,18.36,47.78,47.78,0,0,0-1.61,6.3,19.87,19.87,0,0,1-.46,2.36,2.36,2.36,0,0,1,0-.63c0-.4.05-1,.17-1.76A38.43,38.43,0,0,1,190,275a45.33,45.33,0,0,1,11.28-18.69,50.09,50.09,0,0,1,19.23-11.79,45.58,45.58,0,0,1,6.76-1.74c.81-.17,1.45-.23,1.88-.29A2.07,2.07,0,0,1,229.83,242.49Z"/><path class="cls-1" d="M172.1,288.62a2.76,2.76,0,0,1-.41-.51l-1-1.5c-.44-.67-1-1.47-1.69-2.36s-1.43-1.95-2.39-3-1.94-2.28-3.14-3.47-2.49-2.45-3.88-3.74a77.9,77.9,0,0,0-10-7.42A81.71,81.71,0,0,0,138.28,261c-1.83-.68-3.55-1.37-5.22-1.85s-3.23-1-4.67-1.31-2.76-.62-3.91-.86-2.16-.41-3-.52l-1.9-.3a2.77,2.77,0,0,1-.65-.15,2.62,2.62,0,0,1,.67,0l1.92.18a29.65,29.65,0,0,1,3,.41c1.17.21,2.51.39,4,.76s3.06.71,4.73,1.25,3.44,1.13,5.29,1.81a76.69,76.69,0,0,1,11.4,5.65A73.93,73.93,0,0,1,160,273.57c1.4,1.32,2.75,2.55,3.87,3.82s2.19,2.44,3.1,3.56,1.65,2.17,2.31,3.09a26.09,26.09,0,0,1,1.6,2.43c.37.63.67,1.15.93,1.58A2.39,2.39,0,0,1,172.1,288.62Z"/><path class="cls-1" d="M108.12,294.39a15.7,15.7,0,0,1,2.15-1.05,23.46,23.46,0,0,1,2.62-1.06,37.11,37.11,0,0,1,3.56-1.18l2.11-.59c.74-.2,1.53-.34,2.33-.51,1.6-.38,3.35-.59,5.19-.85a61,61,0,0,1,23.91,2c1.76.56,3.44,1.06,4.95,1.7.75.31,1.5.57,2.19.89l2,.93a36.88,36.88,0,0,1,3.28,1.76,22,22,0,0,1,2.37,1.48,14.86,14.86,0,0,1,1.92,1.4,18.09,18.09,0,0,1-2.08-1.18,26,26,0,0,0-2.42-1.38c-1-.49-2-1.12-3.3-1.65l-2-.89c-.68-.3-1.43-.54-2.18-.84-1.5-.61-3.17-1.08-4.92-1.62a63,63,0,0,0-23.63-2c-1.82.23-3.55.42-5.15.77-.79.16-1.57.28-2.31.46l-2.1.55c-1.35.3-2.52.74-3.57,1.07s-1.93.66-2.65.95A15.06,15.06,0,0,1,108.12,294.39Z"/><path class="cls-1" d="M107.51,304.35a13.29,13.29,0,0,1,2.12-1c.36-.14.75-.3,1.16-.48l1.43-.47c1-.33,2.17-.74,3.5-1l2.07-.51c.73-.16,1.49-.28,2.28-.43,1.57-.33,3.28-.47,5.07-.69a73.71,73.71,0,0,1,11.73-.05,76.11,76.11,0,0,1,11.55,1.89c1.74.47,3.39.88,4.9,1.41s2.9,1,4.16,1.49,2.36,1,3.33,1.44,1.8.85,2.45,1.21a13.81,13.81,0,0,1,2,1.17,16.62,16.62,0,0,1-2.14-.93c-.67-.33-1.5-.71-2.49-1.11s-2.09-.9-3.36-1.33-2.64-1-4.16-1.41-3.14-.89-4.87-1.34a83.58,83.58,0,0,0-11.44-1.82,78.83,78.83,0,0,0-11.61,0c-1.77.2-3.47.32-5,.63-.78.13-1.54.24-2.27.38l-2.06.47c-1.32.26-2.48.64-3.5.93l-1.43.42-1.18.42A16.86,16.86,0,0,1,107.51,304.35Z"/><path class="cls-1" d="M110.88,318.75a30.44,30.44,0,0,1,3.61-2.55c2.28-1.51,5.46-3.56,9-5.78l7.11-4.4-.13.25c-.08-1.94-.12-3.56-.13-4.68a6.52,6.52,0,0,1,.07-1.77,6.82,6.82,0,0,1,.28,1.75c.11,1.12.25,2.73.39,4.67v.15l-.15.1-7,4.49c-3.54,2.23-6.76,4.21-9.12,5.61A27,27,0,0,1,110.88,318.75Z"/><path class="cls-1" d="M123.68,382.42a8.2,8.2,0,0,1,1.23-1.35,17,17,0,0,1,1.57-1.45,28.26,28.26,0,0,1,2.24-1.79,30.36,30.36,0,0,1,2.9-2c1-.69,2.26-1.29,3.52-2a49.66,49.66,0,0,1,8.73-3.25,50.72,50.72,0,0,1,9.27-1.46c1.45-.05,2.82-.12,4.11,0s2.48.14,3.56.26,2.06.3,2.91.44a20.18,20.18,0,0,1,2.16.48,10.85,10.85,0,0,1,1.8.55c0,.14-2.62-.6-6.92-1a35,35,0,0,0-3.53-.17c-1.27-.06-2.62,0-4,.09a53.84,53.84,0,0,0-9.12,1.49,52.78,52.78,0,0,0-8.62,3.16c-1.25.64-2.46,1.21-3.51,1.88a33.52,33.52,0,0,0-2.91,1.86C125.58,380.63,123.79,382.52,123.68,382.42Z"/><path class="cls-1" d="M126.41,389.57a8.15,8.15,0,0,1,1.2-1.25,20,20,0,0,1,1.54-1.36c.62-.5,1.31-1.11,2.15-1.68a46.13,46.13,0,0,1,6.1-3.75,50.23,50.23,0,0,1,17-5.17,49.56,49.56,0,0,1,7.31-.34c1,0,2,.11,2.8.17s1.53.16,2.1.25a9.76,9.76,0,0,1,1.77.35c0,.14-2.56-.27-6.68-.29a54.76,54.76,0,0,0-7.21.48,59.62,59.62,0,0,0-8.6,1.86,57.6,57.6,0,0,0-8.13,3.24,52.49,52.49,0,0,0-6.11,3.58C128.3,387.94,126.51,389.67,126.41,389.57Z"/><path class="cls-1" d="M262,348.74a10.83,10.83,0,0,1-1.95-.53c-.62-.21-1.38-.44-2.27-.67s-1.89-.55-3-.79a73.75,73.75,0,0,0-8-1.44,79.68,79.68,0,0,0-10-.55,81,81,0,0,0-10,.83,73.62,73.62,0,0,0-8,1.67c-1.13.27-2.11.61-3,.87s-1.63.51-2.24.73a11.81,11.81,0,0,1-1.93.59,11.41,11.41,0,0,1,1.83-.84c.59-.25,1.33-.55,2.21-.84s1.86-.67,3-1a66,66,0,0,1,8-1.83,74.84,74.84,0,0,1,10.06-.89,73.89,73.89,0,0,1,10.08.61,64.79,64.79,0,0,1,8.06,1.6c1.14.27,2.13.62,3,.89s1.63.54,2.23.78A11.26,11.26,0,0,1,262,348.74Z"/><path class="cls-1" d="M260.63,355.66a11.37,11.37,0,0,1-2-.39c-1.26-.3-3.1-.69-5.38-1.09s-5-.76-8.08-1a94.58,94.58,0,0,0-10-.21,92.72,92.72,0,0,0-9.92.94c-3,.49-5.73,1-8,1.62s-4,1.08-5.27,1.48a11.08,11.08,0,0,1-2,.53,11.35,11.35,0,0,1,1.85-.78c1.2-.47,3-1.06,5.23-1.69a76,76,0,0,1,8-1.77,84.23,84.23,0,0,1,10-1,85.8,85.8,0,0,1,10.06.27,76.44,76.44,0,0,1,8.12,1.17c2.29.47,4.12.92,5.36,1.31A12.38,12.38,0,0,1,260.63,355.66Z"/><path class="cls-2" d="M265.56,310.2c-8.32-6.25-20.57-7.39-30.62-4s-18.24,10.54-24.37,18.7l-1.92-5.35c6.13-8.16,15.25-15.76,25.3-19.16s22.71-2.32,31,3.93A28.81,28.81,0,0,1,265.56,310.2Z"/><g class="cls-6"><path d="M109.75,303.45c.7,1.56,3.89,2.49,6,2,2.73-.57,6.41-2.89,8.58-3.24,12.56-2,20.79,5.15,35.9,5.51.29,0,.6.15.86,0a.69.69,0,0,0,.2-1,2.21,2.21,0,0,0-.93-.7c-15.25-7.76-34-8-50.65-2.63"/></g><g class="cls-6"><path d="M206.48,310.34c7.62-5.33,12.57-13.84,21.12-17.76,7.35-3.38,16.43-2.87,23.21-7.14-17.85.66-35.1,9.86-44.75,23.86"/></g><path class="cls-1" d="M212.08,419.46c12.3,6.25,27.72,5.57,39.58-1.21a3.14,3.14,0,0,0,.76-4.55,3.73,3.73,0,0,0-4.88-.71c-9.85,5.62-22.6,5.6-32.66.49a3.62,3.62,0,0,0-4.6,1.69c-.81,1.73.14,3.44,1.8,4.29Z"/><path class="cls-1" d="M144.47,441.23q16.41-4.51,33.19-7.64c1.85-.35,3.3-1.78,3.06-3.62a3.48,3.48,0,0,0-3.88-2.86q-17.64,3.3-34.92,8.05a3.22,3.22,0,0,0-2,4.22,3.66,3.66,0,0,0,4.53,1.85Z"/><path class="cls-4" d="M258.21,362.14s7.25,8.6,6.53,12.43-9.36,31.05-9.36,31.05l-5.45,3.25Z"/><path class="cls-1" d="M249.89,408.36c-.2,0,2-11.16,4.85-24.84s5.37-24.74,5.57-24.71-2,11.16-4.86,24.84S250.08,408.4,249.89,408.36Z"/><path class="cls-4" d="M125.83,403.07a3.94,3.94,0,0,1,1.39-4.56c4-3,11.84-8.29,13.9-6.44s6.91,20.69,8.75,28.29a4,4,0,0,1-2.4,4.57l-7.81,3.43a3.7,3.7,0,0,1-4.94-1.92Z"/><path class="cls-1" d="M125.83,403.07a3.84,3.84,0,0,1,.41.87l1.05,2.55c.9,2.3,2.16,5.49,3.7,9.41.77,2,1.62,4.18,2.52,6.52l1.4,3.63a3.28,3.28,0,0,0,2.86,2.3,3.71,3.71,0,0,0,2-.4l2.11-.93,4.35-1.92A8.43,8.43,0,0,0,148.3,424a3.74,3.74,0,0,0,1.18-1.81,3.82,3.82,0,0,0-.07-2.19q-.28-1.15-.57-2.34c-1.57-6.29-3.12-12.27-4.77-17.64a38.2,38.2,0,0,0-2.85-7.38c-.55-1.08-2.06-.68-3.13-.35a20.85,20.85,0,0,0-3.17,1.42,57.75,57.75,0,0,0-5.09,3.13l-2,1.4a5.34,5.34,0,0,0-1.46,1.35,3.86,3.86,0,0,0-.69,2.53c.06.61.19.92.15.93a2.64,2.64,0,0,1-.3-.92,3.93,3.93,0,0,1,.6-2.68,5.42,5.42,0,0,1,1.48-1.46c.6-.46,1.26-.94,2-1.46a56.6,56.6,0,0,1,5.07-3.24,21,21,0,0,1,3.24-1.49,7,7,0,0,1,1.93-.41,2.5,2.5,0,0,1,1.09.2,2.05,2.05,0,0,1,.8.74,37.71,37.71,0,0,1,3,7.51c1.69,5.39,3.27,11.37,4.84,17.67.19.78.38,1.57.57,2.34a4.24,4.24,0,0,1-1.34,4.64,5,5,0,0,1-1.11.7l-1.12.49-4.35,1.9-2.12.93a4.38,4.38,0,0,1-2.38.44,3.93,3.93,0,0,1-3.39-2.73c-.47-1.25-.93-2.46-1.37-3.64l-2.44-6.54L127,406.58c-.38-1.08-.68-1.94-.92-2.59A5.19,5.19,0,0,1,125.83,403.07Z"/><path class="cls-1" d="M263.49,310.64a18,18,0,0,1-2.24-.43,58.21,58.21,0,0,0-6.12-.93A54.24,54.24,0,0,0,235,311.09a51.81,51.81,0,0,0-17.74,9.17,54,54,0,0,0-4.48,4,18.56,18.56,0,0,1-1.58,1.54s.09-.18.32-.47.57-.72,1.05-1.24a42.31,42.31,0,0,1,4.35-4.18,49.49,49.49,0,0,1,17.86-9.46,52.22,52.22,0,0,1,20.46-1.64,47.06,47.06,0,0,1,6.13,1.15c.72.17,1.26.36,1.62.47S263.5,310.61,263.49,310.64Z"/><path class="cls-1" d="M265.11,318a14.6,14.6,0,0,1-2.17-.26c-.69-.12-1.54-.25-2.54-.35s-2.11-.28-3.36-.35a85.78,85.78,0,0,0-8.8-.33,84.65,84.65,0,0,0-21.26,3,83.55,83.55,0,0,0-8.29,2.76c-1.18.42-2.19.89-3.1,1.28s-1.69.73-2.31,1a12.55,12.55,0,0,1-2,.85,13.71,13.71,0,0,1,1.86-1.08c.6-.34,1.36-.74,2.26-1.15s1.9-.92,3.07-1.37a73.25,73.25,0,0,1,8.31-2.92,84.7,84.7,0,0,1,10.6-2.27,88.69,88.69,0,0,1,10.84-.79,78,78,0,0,1,8.86.48c1.26.11,2.39.31,3.38.46s1.83.3,2.52.46A12.44,12.44,0,0,1,265.11,318Z"/><path class="cls-1" d="M115.45,348.38a10.11,10.11,0,0,1,1.69-1,20.57,20.57,0,0,1,2.07-1c.82-.35,1.74-.8,2.82-1.16a53.82,53.82,0,0,1,7.67-2.21,56.28,56.28,0,0,1,19.6-.58,54.22,54.22,0,0,1,7.81,1.76c1.1.3,2,.68,2.89,1a20.33,20.33,0,0,1,2.14.87,10.3,10.3,0,0,1,1.75.87c-.07.12-2.6-1.06-6.94-2.27a58.49,58.49,0,0,0-7.75-1.6,59.27,59.27,0,0,0-19.35.57,59,59,0,0,0-7.64,2C118,347.18,115.52,348.51,115.45,348.38Z"/><path class="cls-1" d="M164.3,348.8a10.42,10.42,0,0,1-1.89.06l-5.12,0c-4.32,0-10.29.21-16.86.76S128,351,123.7,351.73l-5,.85a9,9,0,0,1-1.86.25,11.06,11.06,0,0,1,1.8-.51c1.17-.29,2.88-.65,5-1.06a163.91,163.91,0,0,1,33.68-2.86c2.17,0,3.92.11,5.13.2A9.39,9.39,0,0,1,164.3,348.8Z"/><path class="cls-2" d="M116.23,216s29,7.56,60.81,6.25,44.23-7.47,44.23-7.47l1.89,10.7s-38.63,15-108.25.81C114.91,226.27,114.33,218.29,116.23,216Z"/><polygon class="cls-4" points="128.46 218.34 127.69 229.73 135.06 230.74 136.26 218.14 128.46 218.34"/><polygon class="cls-4" points="202.57 218.89 205.43 230 212.78 228.94 209.96 216.56 202.57 218.89"/><polygon class="cls-1" points="155.79 232.74 145.87 231.67 147.18 221.11 157.1 222.18 155.79 232.74"/><g class="cls-6"><path d="M151.16,205.3c-10.21,5.63-24.36,11.56-34.57,17.19l-1,6.75c8.6-2.88,19.11-6.66,26.59-11.79,2.1-1.44,6.12-4.23,7.65-6.26S152,207.71,151.16,205.3Z"/></g><path class="cls-4" d="M95.19,193.08c-7.52,3.68-15.78,9.49-14.8,19,.89,8.68,9.46,12.31,17.13,13,19.64,1.73,39.11-8.08,55.3-18.06,5.23-3.22.43-11.49-4.83-8.25-12.05,7.42-25,14.22-39.15,16.3-4.86.71-13,1.9-17.33-1.45-6.21-4.85,5.79-10.5,9.14-12.14l-.12-10.25a36.33,36.33,0,0,0-5.34,1.85Z"/><path class="cls-1" d="M95.19,193.08a10.63,10.63,0,0,1,1.31-.61,39.85,39.85,0,0,1,4-1.32l.1,0v.11c0,2.56.11,6,.18,10.25v.09l-.09,0a49.38,49.38,0,0,0-6.71,3.8,13.72,13.72,0,0,0-3.17,2.93,4.49,4.49,0,0,0-.87,2,3,3,0,0,0,.66,2.09A8,8,0,0,0,94.75,215a19.28,19.28,0,0,0,5.21.68,65.38,65.38,0,0,0,11.34-1.24,88.24,88.24,0,0,0,24-8.74c4.06-2.08,8.1-4.44,12.17-6.93a6.84,6.84,0,0,1,.81-.44,3.17,3.17,0,0,1,.88-.35,4.36,4.36,0,0,1,1.9-.12,4.94,4.94,0,0,1,3.14,2,5.5,5.5,0,0,1,1.06,3.62,4.67,4.67,0,0,1-1.8,3.35,162.19,162.19,0,0,1-19.28,10.63c-3.24,1.47-6.46,2.83-9.71,3.93-1.6.59-3.24,1-4.84,1.53s-3.21.87-4.82,1.18a57.73,57.73,0,0,1-18.49,1.07,25.84,25.84,0,0,1-8.1-2.32,15.23,15.23,0,0,1-6-4.94,12.69,12.69,0,0,1-2.12-6.71A13.81,13.81,0,0,1,81.33,205a19.81,19.81,0,0,1,6.47-7.63A38.12,38.12,0,0,1,93.2,194c.64-.34,1.14-.57,1.48-.73l.51-.23-.49.28c-.32.18-.82.42-1.45.78a40.16,40.16,0,0,0-5.32,3.43,19.71,19.71,0,0,0-6.32,7.58,13.56,13.56,0,0,0-1.09,6,12.34,12.34,0,0,0,2.09,6.5,14.81,14.81,0,0,0,5.85,4.78,25.17,25.17,0,0,0,8,2.25,57.62,57.62,0,0,0,18.32-1.11c12.74-2.73,25.81-9.22,38.42-17.21a4.07,4.07,0,0,0,1.6-3,5,5,0,0,0-1-3.26,4.32,4.32,0,0,0-2.79-1.82,3.73,3.73,0,0,0-1.66.1,2.58,2.58,0,0,0-.79.32,4.8,4.8,0,0,0-.77.41c-4.08,2.5-8.13,4.86-12.2,6.94a89.07,89.07,0,0,1-24.21,8.74,66.12,66.12,0,0,1-11.44,1.2,19.91,19.91,0,0,1-5.32-.71,8.39,8.39,0,0,1-4.32-2.67,3.32,3.32,0,0,1-.72-2.37,4.79,4.79,0,0,1,.94-2.2,14.11,14.11,0,0,1,3.27-3,48.91,48.91,0,0,1,6.79-3.79l-.08.13c0-4.23-.05-7.69-.07-10.24l.11.08c-1.79.46-3.13.91-4,1.23-.45.17-.78.3-1,.4Z"/><path class="cls-4" d="M121.62,78.94c14.2,23,42.55,27.22,65.61,13s32.08-41.4,17.88-64.46a49,49,0,1,0-83.49,51.44Z"/><path class="cls-1" d="M121.62,78.94s-.11-.25-.35-.71l-1.07-2-.8-1.49c-.28-.55-.51-1.2-.8-1.88a35.73,35.73,0,0,1-1.77-4.76c-.27-.92-.59-1.88-.87-2.9s-.42-2.14-.65-3.28a26.74,26.74,0,0,1-.48-3.6,27.7,27.7,0,0,1-.24-3.92,48.3,48.3,0,0,1,3.06-18.06,49.84,49.84,0,0,1,12.19-18.47,50.68,50.68,0,0,1,10-7.25,48.28,48.28,0,0,1,12.24-4.75l3.33-.67c1.12-.22,2.28-.26,3.42-.4l1.73-.18,1.74,0c1.17,0,2.34-.06,3.52,0A50.86,50.86,0,0,1,180,7.48l3.43,1.36,3.32,1.69a31.83,31.83,0,0,1,3.21,1.94l1.59,1c.51.37,1,.77,1.5,1.16,1,.81,2,1.51,2.94,2.42s1.83,1.77,2.76,2.66a52.56,52.56,0,0,1,4.81,6.07,44.19,44.19,0,0,1,7.89,28.66,46.62,46.62,0,0,1-10.9,25.61,54.87,54.87,0,0,1-9.58,9l-2.63,1.79-1.31.88-1.36.76L182.93,94c-.91.46-1.84.85-2.75,1.27a56.05,56.05,0,0,1-11,3.61l-2.73.43a22.48,22.48,0,0,1-2.69.34,42,42,0,0,1-5.23.19,44.41,44.41,0,0,1-17.84-4,40.82,40.82,0,0,1-11.46-7.78,24.86,24.86,0,0,1-1.93-1.89l-1.56-1.8c-.48-.56-1-1.06-1.32-1.55l-1-1.39-1.33-1.87c-.3-.42-.47-.62-.47-.62s.13.23.41.66.73,1.09,1.28,1.91l1,1.41c.37.51.83,1,1.3,1.58l1.54,1.83A26.79,26.79,0,0,0,129,88.26a40.56,40.56,0,0,0,11.49,7.93,44.47,44.47,0,0,0,18,4.16,42.94,42.94,0,0,0,5.29-.17,21.09,21.09,0,0,0,2.71-.33l2.77-.43a56.39,56.39,0,0,0,11.14-3.6c.92-.43,1.87-.82,2.79-1.28L185.92,93l1.38-.77,1.33-.88,2.66-1.8A56.12,56.12,0,0,0,201,80.49a47.29,47.29,0,0,0,11.09-26,44.75,44.75,0,0,0-8-29.11,52.09,52.09,0,0,0-4.88-6.15c-.93-.91-1.87-1.81-2.8-2.7a38.49,38.49,0,0,0-3-2.46c-.51-.39-1-.8-1.52-1.18l-1.61-1a30.94,30.94,0,0,0-3.26-2l-3.37-1.71c-1.16-.47-2.32-.92-3.48-1.38a51.53,51.53,0,0,0-14.29-2.9c-1.19-.09-2.38,0-3.56,0l-1.77,0-1.75.19c-1.16.14-2.33.19-3.46.41L152,5.22a48.42,48.42,0,0,0-12.38,4.84,50.92,50.92,0,0,0-10.16,7.36,50.19,50.19,0,0,0-12.25,18.72,48.48,48.48,0,0,0-3,18.24,28.06,28.06,0,0,0,.27,3.95A28.69,28.69,0,0,0,115,62l.69,3.29c.29,1,.62,2,.9,2.91a36,36,0,0,0,1.84,4.77c.3.67.54,1.31.84,1.87l.83,1.48,1.13,2C121.47,78.72,121.62,78.94,121.62,78.94Z"/><g class="cls-8"><path d="M131.67,15.53s50.25-23.07,64.1,36.07h0a35.18,35.18,0,0,1-11,22.06c-12.32,11.47-35.07,25.68-61,8.35l-1.28-1.22S98.39,46.1,131.67,15.53Z"/></g><path class="cls-9" d="M150.14,90.11s-13.33-.33-16.24-3.26c-2.2-2.21.16-4.08.09-8.61-.11-6.58-3-21.63-2.08-33.9a25.52,25.52,0,0,1,25.46-23.41h1.33c14.31.77,21.65,13.24,20.47,27.38l-2.65,32.12s-7.64,5.53-13.46,7.17A102.94,102.94,0,0,1,150.14,90.11Z"/><path class="cls-1" d="M138.28,53.94a2,2,0,0,0,1.9,2,1.87,1.87,0,0,0,2-1.76,2,2,0,0,0-1.9-2A1.88,1.88,0,0,0,138.28,53.94Z"/><path class="cls-1" d="M134.86,50.35c.25.25,1.73-.85,3.84-.85s3.67,1,3.9.78-.14-.57-.82-1.05a5.34,5.34,0,0,0-3.11-.94,5.14,5.14,0,0,0-3.06,1C135,49.77,134.74,50.23,134.86,50.35Z"/><path class="cls-1" d="M157.34,54.58a1.94,1.94,0,0,0,1.9,2,1.86,1.86,0,0,0,2-1.76,1.93,1.93,0,0,0-1.9-2A1.86,1.86,0,0,0,157.34,54.58Z"/><path class="cls-1" d="M155.58,50.75c.25.25,1.74-.84,3.85-.84s3.66,1,3.89.78-.13-.57-.81-1.06a5.45,5.45,0,0,0-3.12-.94,5.31,5.31,0,0,0-3.06,1C155.68,50.18,155.47,50.64,155.58,50.75Z"/><path class="cls-1" d="M148.06,66.86a13.88,13.88,0,0,0-3.43-.6c-.54-.06-1-.16-1.15-.53a2.76,2.76,0,0,1,.36-1.58c.5-1.3,1-2.65,1.58-4.07,2.19-5.8,3.78-10.57,3.54-10.66s-2.2,4.55-4.4,10.35l-1.51,4.1a3,3,0,0,0-.27,2.09,1.33,1.33,0,0,0,.89.78,3.17,3.17,0,0,0,.91.12A13.85,13.85,0,0,0,148.06,66.86Z"/><path class="cls-1" d="M154.88,44.21c.28.53,2.33,0,4.83-.1s4.58.31,4.83-.24c.11-.26-.31-.74-1.19-1.17a8.16,8.16,0,0,0-3.72-.71A8.06,8.06,0,0,0,156,43C155.13,43.45,154.75,44,154.88,44.21Z"/><path class="cls-1" d="M134.74,44.19c.44.48,2.16,0,4.23,0s3.82.36,4.23-.13c.18-.24-.09-.72-.85-1.18a7.19,7.19,0,0,0-6.82.1C134.8,43.47,134.55,44,134.74,44.19Z"/><path class="cls-9" d="M175.45,53.81c.23-.1,9.44-2.81,9.18,6.5s-10.32,7-10.33,6.71S175.45,53.81,175.45,53.81Z"/><path class="cls-10" d="M177.94,63.72s.16.12.43.26a1.71,1.71,0,0,0,1.23.06c1-.34,1.88-1.88,2-3.55a5.23,5.23,0,0,0-.39-2.34,1.9,1.9,0,0,0-1.2-1.28.85.85,0,0,0-1,.42c-.13.26-.07.45-.12.46s-.2-.16-.12-.54a1.13,1.13,0,0,1,.39-.58,1.26,1.26,0,0,1,.91-.21,2.28,2.28,0,0,1,1.67,1.49,5.42,5.42,0,0,1,.5,2.61c-.11,1.88-1.13,3.61-2.51,4a1.77,1.77,0,0,1-1.49-.29C178,64,177.9,63.74,177.94,63.72Z"/><path class="cls-11" d="M171,75a64.54,64.54,0,0,0,2.49-10.08c.18-1.07.24-2.44-.71-2.91s-2.14.59-2.43,1.66-.12,2.31-.54,3.32c-.83,2.2-3.74,2.73-6.05,2.26a37.07,37.07,0,0,0-6.7-1.07c-5-.18-8.19,1.07-13.64,1.78a16.39,16.39,0,0,1-6.05-1c-1.84-.54-4.27.06-4.69,1.9v-.3c-1.12-.12-2.19,1.25-2.25,2.43s.41,2.26.47,3.44c.12,2.43,1.12,7.33.35,9.64-.13.37,2,.52,2,.9,5.52,2.89,6.94,2.27,13.66,2.57a45.36,45.36,0,0,0,21-4.84c0-.09.07-.17.1-.26C169.24,81.18,169.83,78.21,171,75Z"/><g class="cls-6"><path d="M129.84,97.41l61,1a30.56,30.56,0,0,1-14.33,7.88,84.22,84.22,0,0,1-16.39,2.16,66.52,66.52,0,0,1-13.46-.14,23.69,23.69,0,0,1-12.26-5.16A20.93,20.93,0,0,1,129.84,97.41Z"/></g><path class="cls-4" d="M195,90.73l0-2.07-1.92-1s-8.36,7-30.28,8.94c-23,2-30.53-6-30.53-6l-2.5.24-.14,5.63s9.78,12.29,36.68,8.82c13.1-1.69,20.23-4.38,24.09-6.69A9.42,9.42,0,0,0,195,90.73Z"/><path class="cls-1" d="M195,90.73s0,.52-.21,1.47a9.59,9.59,0,0,1-1.7,3.85A9.36,9.36,0,0,1,191,98.16a23,23,0,0,1-3.22,1.72,50.59,50.59,0,0,1-8.48,2.85,101.41,101.41,0,0,1-10.69,2,80.49,80.49,0,0,1-12.44.86,47.42,47.42,0,0,1-13.57-2,37,37,0,0,1-6.7-2.79A23.15,23.15,0,0,1,130,96.33l.08.22c0-.36,0-.76,0-1.16,0-1.51.07-3,.11-4.47l-.32.33,2.5-.23-.29-.11a17.79,17.79,0,0,0,4.81,3,31.47,31.47,0,0,0,5.18,1.79A51.05,51.05,0,0,0,152.4,97.2a90.52,90.52,0,0,0,18.41-1.28c11-1.83,18.89-5.34,22.41-8.13h-.12l1.94.93,0-.07c0,.67,0,1.18,0,1.56a3.28,3.28,0,0,0,0,.51,2.68,2.68,0,0,0,.05-.51c0-.38,0-.89.06-1.55v0l0,0-1.91-1-.06,0-.06,0c-3.53,2.64-11.44,6-22.35,7.76a91.5,91.5,0,0,1-18.3,1.18,50.87,50.87,0,0,1-10.19-1.49,31.73,31.73,0,0,1-5.07-1.76,17.34,17.34,0,0,1-4.58-2.87l-.13-.13-.16,0-2.49.23-.31,0v.31c0,1.46-.07,3-.11,4.47,0,.4,0,.8,0,1.17v.14l.08.08c3.6,3.88,8.32,6,12.92,7.49a47.8,47.8,0,0,0,13.76,2,79.85,79.85,0,0,0,12.53-.92,99.25,99.25,0,0,0,10.73-2.14,50.73,50.73,0,0,0,8.52-3,23.6,23.6,0,0,0,3.25-1.8,9.66,9.66,0,0,0,2.21-2.22,9.26,9.26,0,0,0,1.61-4A6.53,6.53,0,0,0,195,90.73Z"/><path class="cls-4" d="M191.64,52.41c.4,4.2,3.65,7.32,7.27,7s6.24-4,5.84-8.21-3.65-7.32-7.27-7S191.24,48.22,191.64,52.41Z"/><path class="cls-1" d="M191.64,52.41c.07,0,0-.63.15-1.73a7.93,7.93,0,0,1,1.88-4.2,6.3,6.3,0,0,1,2.61-1.73,5.51,5.51,0,0,1,3.54.06,7.81,7.81,0,0,1,1.27,13.55,5.62,5.62,0,0,1-3.46.72,6.31,6.31,0,0,1-2.88-1.21,8,8,0,0,1-2.64-3.78c-.35-1.05-.4-1.68-.47-1.68a1.2,1.2,0,0,0,0,.46,6.45,6.45,0,0,0,.22,1.3,7.9,7.9,0,0,0,2.59,4.08,6.7,6.7,0,0,0,3.11,1.4,6.16,6.16,0,0,0,3.86-.73A8.41,8.41,0,0,0,200,44.2a6.18,6.18,0,0,0-3.92,0,6.68,6.68,0,0,0-2.8,1.95,7.93,7.93,0,0,0-1.78,4.5,6.47,6.47,0,0,0,0,1.31C191.58,52.26,191.62,52.42,191.64,52.41Z"/><path class="cls-1" d="M129.93,91.31a3.71,3.71,0,0,0,.47.53c.33.32.83.79,1.51,1.35a26.47,26.47,0,0,0,6.4,3.84,25.62,25.62,0,0,0,5,1.46,58.52,58.52,0,0,0,5.85.91,70.48,70.48,0,0,0,13.53.14A103.39,103.39,0,0,0,176,97.38a63.23,63.23,0,0,0,10.59-3.16,28,28,0,0,0,6.48-3.68,18.06,18.06,0,0,0,1.52-1.35c.33-.33.49-.51.47-.53s-.74.63-2.15,1.66a29.71,29.71,0,0,1-6.51,3.44,65.16,65.16,0,0,1-10.54,3,108.78,108.78,0,0,1-13.28,2.1,72.79,72.79,0,0,1-13.41-.09c-2.05-.2-4-.48-5.8-.83a26.22,26.22,0,0,1-4.89-1.36A28.66,28.66,0,0,1,132.08,93C130.68,91.94,130,91.26,129.93,91.31Z"/><path class="cls-7" d="M146.86,75.07a5.63,5.63,0,0,0,2.73-1.13,5.06,5.06,0,0,0,1.78-2.37,9.43,9.43,0,0,1,.47-1.19c.06,0,.18.54-.06,1.37A4.93,4.93,0,0,1,150,74.47a5.18,5.18,0,0,1-3.08,1.07,2.17,2.17,0,0,1-1.31-.29C145.61,75.13,146.15,75.19,146.86,75.07Z"/><path class="cls-12" d="M166.38,78.45a10.76,10.76,0,0,0,1-2.67,9.86,9.86,0,0,0,.23-2.79c-.06-.77-.11-1.18-.17-1.18a33.08,33.08,0,0,1-.42,3.91,19.16,19.16,0,0,1-1.36,3.68A6.79,6.79,0,0,0,166.38,78.45Z"/><path class="cls-12" d="M145.08,83.19a3.17,3.17,0,0,0,.71-1.66c-.06,0-.41.71-.95,1.49s-1,1.42-1,1.48A3.06,3.06,0,0,0,145.08,83.19Z"/><path class="cls-12" d="M136.48,76.73a3.84,3.84,0,0,1-1.42-1.37,3.1,3.1,0,0,1-.36-2c.12-.48.24-.77.18-.83a1.59,1.59,0,0,0-.36.77,3,3,0,0,0,.3,2.07,3.45,3.45,0,0,0,1.66,1.37c.53.12.89.12.89.06S137,76.73,136.48,76.73Z"/><path class="cls-12" d="M138.2,76.25a2.42,2.42,0,0,1-1.36-.77,2.58,2.58,0,0,1-.72-1.48c-.06-.42,0-.71-.06-.71s-.11.24-.11.71a2.65,2.65,0,0,0,.65,1.66,3,3,0,0,0,1.6.77c.53.06.77,0,.77-.06S138.67,76.31,138.2,76.25Z"/><path class="cls-12" d="M141.17,75.07a3.2,3.2,0,0,1-1.49-.06,2.18,2.18,0,0,1-1.12-.89c-.18-.36-.18-.59-.24-.59a.8.8,0,0,0,.06.65,2.11,2.11,0,0,0,1.24,1.07,2.71,2.71,0,0,0,1.66,0c.42-.12.66-.24.66-.3S141.64,75,141.17,75.07Z"/><path class="cls-11" d="M178.33,61.23v0Z"/><path class="cls-11" d="M178.45,61.4v0Z"/><path class="cls-11" d="M132.21,41.65c.73-3.85,7.94-11.56,15.52-5.75,7-3.32,12.36-3.8,18.24-.6,5,2.79,3.87,7.6,8.36,10.92s2.24,9.43,2.24,9.43,7.94-23.07-4.42-30.13c-3.34-2-6.79-4.09-11.39-4.75-6.06-.83-10.85.42-15.64,2.2C140.09,24.93,133.43,28.37,132.21,41.65Z"/><path class="cls-11" d="M173.72,29c2.12,1.72,5.21-1,5.76-2.55a6.18,6.18,0,0,0-1.09-6.41,6.37,6.37,0,0,0-6.73-1.6,4.6,4.6,0,0,0-2.6,5.93"/><path class="cls-12" d="M179.18,23.8a5.63,5.63,0,0,1-2.49,1.54,8,8,0,0,1-1.63.18,4.53,4.53,0,0,1-1.34-.18c-.66-.18-1.15-.41-1.15-.36a1.78,1.78,0,0,0,.24.18,4.23,4.23,0,0,0,.85.36,4.12,4.12,0,0,0,1.34.24,4.25,4.25,0,0,0,1.69-.18,5.75,5.75,0,0,0,2.49-1.66,2.37,2.37,0,0,0,.36-.83.42.42,0,0,0,0-.3A2,2,0,0,1,179.18,23.8Z"/><path class="cls-12" d="M177.66,21.13a6.31,6.31,0,0,1-2,2,5.71,5.71,0,0,1-2.72.94c-.73.12-1.22,0-1.22.06a1.83,1.83,0,0,1,.31.06,4,4,0,0,0,.91.06,5.78,5.78,0,0,0,2.84-.89,5.2,5.2,0,0,0,2.06-2.13,3.88,3.88,0,0,0,.37-.83,1.05,1.05,0,0,0,.06-.3A3.15,3.15,0,0,1,177.66,21.13Z"/><path class="cls-2" d="M175.48,28.13a13.08,13.08,0,0,0-2.42-2.43,11.42,11.42,0,0,0-3-1.78,8.82,8.82,0,0,0-1.4-.48,5.4,5.4,0,0,0,1.34.65c.85.48,1.81,1.07,2.91,1.84a13.23,13.23,0,0,1,2.48,2.32,5.66,5.66,0,0,0,.85,1.12A5.41,5.41,0,0,0,175.48,28.13Z"/><path class="cls-12" d="M150.39,27a22.54,22.54,0,0,1,4.73-3.44,14.74,14.74,0,0,1,5.64-1.66,12.68,12.68,0,0,1,5.75.77,11.47,11.47,0,0,0-2.85-.59,11.73,11.73,0,0,0-2.9,0,16.23,16.23,0,0,0-5.52,1.72,21,21,0,0,0-4.66,3.32,27.33,27.33,0,0,0-2,2,20.14,20.14,0,0,0-1.82,2.25A23.49,23.49,0,0,1,150.39,27Z"/><path class="cls-12" d="M158.88,25.46a16.27,16.27,0,0,1,4.48-1.19,12.27,12.27,0,0,1,4.67.42,7.56,7.56,0,0,1,2.12.95A8.51,8.51,0,0,1,172,27.06a10.54,10.54,0,0,0-4-2.19,13.55,13.55,0,0,0-2.25-.36,14.76,14.76,0,0,0-2.3.06,16.29,16.29,0,0,0-4.48,1.07,12,12,0,0,0-2.12.89,12.92,12.92,0,0,0-2.06,1.06A17.69,17.69,0,0,1,158.88,25.46Z"/><path class="cls-12" d="M151.61,30.38a6.38,6.38,0,0,1,3.45-.71A6,6,0,0,1,158.33,31a19.11,19.11,0,0,1,2.49,2.43A11.93,11.93,0,0,0,166.63,37a7.78,7.78,0,0,0,3.46-.06,19.4,19.4,0,0,0,3.27-1.25A15.75,15.75,0,0,1,170.15,37a7.9,7.9,0,0,1-3.52.11,7.82,7.82,0,0,1-3.27-1.3,13.72,13.72,0,0,1-2.73-2.2,22,22,0,0,0-2.48-2.37,6.55,6.55,0,0,0-3.09-1.3,5.89,5.89,0,0,0-3.33.59,9.23,9.23,0,0,0-2.79,2A13.72,13.72,0,0,1,151.61,30.38Z"/><path class="cls-12" d="M166.69,28.31a6.48,6.48,0,0,1,2,1.3,6.92,6.92,0,0,1,1.4,1.9,4.19,4.19,0,0,0,.42.89c.06-.06,0-.42-.24-1a5.64,5.64,0,0,0-1.39-2,6.13,6.13,0,0,0-2.13-1.3,3.06,3.06,0,0,0-1-.24C165.72,27.89,166.15,28,166.69,28.31Z"/><path class="cls-9" d="M176.67,58.74s4-10.14,2.43-19.21c0,0-1.76,7.35-9.88,5.22.3,1.6-.48,4.86,1.15,6.11A19.74,19.74,0,0,1,176.67,58.74Z"/><path class="cls-1" d="M171,76.55c.35-1.07.77-2.14,1.07-3.2s.59-2.2.89-3.32.47-2.2.71-3.33a12.67,12.67,0,0,0,.41-3.38,2.16,2.16,0,0,0-.29-.83,1.82,1.82,0,0,0-.72-.59,1.6,1.6,0,0,0-1.66.47,3.09,3.09,0,0,0-.83,1.55,14.11,14.11,0,0,0-.17,1.72A3.54,3.54,0,0,1,169,68.48a5.32,5.32,0,0,1-3.14.89,12.71,12.71,0,0,1-3.32-.53,33.71,33.71,0,0,0-3.38-.59,29.37,29.37,0,0,0-6.82.17c-2.26.36-4.45.89-6.71,1.25a12.86,12.86,0,0,1-3.38.3,15.63,15.63,0,0,1-3.32-.66,15.49,15.49,0,0,0-1.66-.41,3.65,3.65,0,0,0-1.1-.06,7.09,7.09,0,0,1,1,.06c.54.12,1.07.3,1.66.47a20.54,20.54,0,0,0,3.32.66,13.3,13.3,0,0,0,3.38-.3c2.26-.36,4.45-.83,6.71-1.19a25.94,25.94,0,0,1,6.76-.17,27.74,27.74,0,0,1,3.32.59,15.88,15.88,0,0,0,3.38.53,5.39,5.39,0,0,0,3.26-.95,3.36,3.36,0,0,0,1.13-1.3,4.27,4.27,0,0,0,.41-1.66,13.83,13.83,0,0,1,.18-1.66,3.44,3.44,0,0,1,.77-1.43,1.26,1.26,0,0,1,2.26.83,12.67,12.67,0,0,1-.42,3.33L172.6,70a29.55,29.55,0,0,1-.89,3.26c-.3,1.07-.77,2.13-1.07,3.2-.71,2.14-1.24,4.39-1.95,6.53-.22.65-.47,1.3-.73,1.94l.55-.26c.2-.52.37-1,.53-1.57C169.75,80.94,170.29,78.69,171,76.55Z"/><path class="cls-1" d="M134,69.55a4,4,0,0,1,1.54-.65A3.65,3.65,0,0,0,134,69.55Z"/><path class="cls-1" d="M131.32,77.32c.24-1.36-.36-2.67-.42-4a2.73,2.73,0,0,1,.6-1.9,2,2,0,0,1,1.66-.89,2.53,2.53,0,0,0-.12.36,2.72,2.72,0,0,1,1-1.37,2.17,2.17,0,0,0-.83,1,2.37,2.37,0,0,0-1.9,1,2.65,2.65,0,0,0-.59,1.84c.06,1.36.65,2.61.47,4s.53,2.75,0,3.94c-.49,1,.56,3.35.32,4.43l.1,0c.26-1.14-.76-3.55-.24-4.6S131.14,78.63,131.32,77.32Z"/><path class="cls-1" d="M135.53,68.9a4.48,4.48,0,0,1,.62-.06A2.56,2.56,0,0,0,135.53,68.9Z"/><path class="cls-12" d="M161.92,83.94a26.55,26.55,0,0,0,1-4.33,20.48,20.48,0,0,0,.18-3.61,10,10,0,0,0-.06-1.37c-.06-.41-.06-.77-.12-1.07-.12-.59-.12-.89-.18-.89s.18,1.25.18,3.27a27,27,0,0,1-.24,3.55,33.52,33.52,0,0,1-1,4.28,22.28,22.28,0,0,1-1.72,4l-.69,1.15.46-.1c.16-.27.32-.54.47-.81A23.52,23.52,0,0,0,161.92,83.94Z"/><path class="cls-12" d="M158.36,85.66a10.18,10.18,0,0,0-.83,2c-.3.71-.55,1.33-.68,1.7l.28-.06a8.94,8.94,0,0,0,.7-1.52A5.37,5.37,0,0,0,158.36,85.66Z"/><path class="cls-12" d="M155.81,84.36c-.12,0-.42,1.72-1.19,3.68-.23.64-.48,1.23-.7,1.74l.33,0c.22-.47.46-1,.67-1.59A12.11,12.11,0,0,0,155.81,84.36Z"/><path class="cls-12" d="M138,84.42a6.77,6.77,0,0,0,1.06-.6,2.65,2.65,0,0,0-1.18.36A7.3,7.3,0,0,0,135.52,86a7.07,7.07,0,0,0-.72,1l.31.11a7.46,7.46,0,0,1,.65-.89A7.81,7.81,0,0,1,138,84.42Z"/><path class="cls-12" d="M134.69,83.29a4.5,4.5,0,0,0-1.95,1,6.22,6.22,0,0,0-1.24,1.23l.23.11,1.18-1.1A17.15,17.15,0,0,0,134.69,83.29Z"/><path class="cls-12" d="M142.35,83.35c.83-.47,1.36-.71,1.3-.77s-.59.12-1.42.59a9.77,9.77,0,0,0-2.79,2.37A10.07,10.07,0,0,0,138,88.09l.22.06a10.54,10.54,0,0,1,1.51-2.43A11.27,11.27,0,0,1,142.35,83.35Z"/><path class="cls-1" d="M131.88,15.6s-1.4,1.18-3.78,3.64l-1.95,2.1L124,24c-.75,1-1.51,2.08-2.32,3.24s-1.59,2.45-2.29,3.89a44.69,44.69,0,0,0-5.44,21.94,50.53,50.53,0,0,0,2.12,13.77,53,53,0,0,0,6.37,14v0l0,0,1.27,1.21,0,0h0a46.38,46.38,0,0,0,23.54,8.09,47.11,47.11,0,0,0,26-7.45,73.29,73.29,0,0,0,10.37-7.72,35.5,35.5,0,0,0,12.15-21c.09-.49.17-1,.23-1.47l.09-.74,0-.18v0s0-.24,0-.16l0-.09L196,51l-.78-2.81c-.47-1.88-1.13-3.69-1.74-5.48s-1.37-3.49-2-5.21-1.6-3.3-2.41-4.89c-.46-.77-.91-1.54-1.37-2.3L187,29.14l-.76-1.07c-.51-.71-1-1.42-1.5-2.12L183.11,24c-.28-.32-.54-.65-.82-1l-.88-.88c-.6-.58-1.15-1.19-1.76-1.73a38.22,38.22,0,0,0-3.77-3A37.57,37.57,0,0,0,172,15.06a38.18,38.18,0,0,0-4-1.76,37.66,37.66,0,0,0-4-1.27c-1.33-.27-2.62-.61-3.91-.75a43.92,43.92,0,0,0-7.26-.45,53.49,53.49,0,0,0-11.52,1.54,55.84,55.84,0,0,0-7,2.19c-.78.31-1.37.57-1.76.75s-.58.29-.58.29l.61-.23,1.78-.68a63.82,63.82,0,0,1,7-2.06,54.8,54.8,0,0,1,11.47-1.41,43.29,43.29,0,0,1,7.19.5c1.27.14,2.54.49,3.86.76a34.54,34.54,0,0,1,11.76,5.43,38.51,38.51,0,0,1,3.69,2.93c.6.54,1.15,1.14,1.73,1.71l.87.88c.27.3.53.63.8.95l1.61,1.93,1.48,2.09.74,1.06.67,1.13c.45.75.89,1.51,1.35,2.27.79,1.59,1.64,3.18,2.37,4.86s1.47,3.37,2,5.17,1.25,3.56,1.71,5.43c.26.93.51,1.86.77,2.8l.1.35,0,.09c0,.12,0-.11,0-.07v0l0,.18-.1.72c0,.48-.14,1-.22,1.44a34.89,34.89,0,0,1-4,11.19,35.28,35.28,0,0,1-7.9,9.47,73.88,73.88,0,0,1-10.28,7.64,46.61,46.61,0,0,1-25.58,7.36,45.85,45.85,0,0,1-23.21-7.93l0,0-1.28-1.21,0,0a53.29,53.29,0,0,1-6.33-13.81,50.15,50.15,0,0,1-2.15-13.61,44.58,44.58,0,0,1,5.25-21.76c.68-1.42,1.54-2.65,2.24-3.88s1.54-2.25,2.27-3.24l2.12-2.68,1.9-2.12c1.12-1.29,2.11-2.15,2.71-2.8l.7-.72C131.81,15.7,131.89,15.61,131.88,15.6Z"/><path class="cls-11" d="M131.38,76.43c.12,2.43-1.45,7.55.34,9.64.26.3,2.06.52,2,.9"/><path class="cls-7" d="M119.74,47.76c-.86-11.17,4.34-22.92,13.9-28.77a2.56,2.56,0,0,1,1.85-.47,2.29,2.29,0,0,1,1.83,1.55c1,3.89-7.75,7.88-9.67,13.1s-2.51,10.47-3.34,16a3.11,3.11,0,0,1-1,2.25,2.1,2.1,0,0,1-2.71-.69A5.39,5.39,0,0,1,119.74,47.76Z"/></g></svg>