<svg id="Слой_1" data-name="Слой 1" xmlns="http://www.w3.org/2000/svg" viewBox="0 0 619 437"><defs><style>.cls-1,.cls-5{fill:#171a24;}.cls-1{stroke:#c9ccd6;stroke-miterlimit:10;}.cls-2{fill:#233554;}.cls-3{opacity:0.2;}.cls-4{fill:#e1e1e1;}.cls-6{opacity:0.3;}.cls-7{fill:#c9ccd6;}.cls-8{fill:#1a2e35;}.cls-9{fill:#ffc19d;}.cls-10{fill:#4b98f2;}.cls-11{fill:#375a64;}.cls-12{opacity:0.3;}.cls-13{fill:#ff9c6a;}.cls-14{fill:#161616;}.cls-15{fill:#455a64;}.cls-16{fill:#fff;}</style></defs><rect class="cls-1" x="57" y="9.5" width="548" height="305.5"/><rect class="cls-2" x="57.65" y="9.74" width="547.35" height="23.35"/><g class="cls-3"><path class="cls-4" d="M75.52,20.72A3.76,3.76,0,1,1,71.76,17,3.76,3.76,0,0,1,75.52,20.72Z"/><path class="cls-4" d="M87.17,20.72A3.77,3.77,0,1,1,83.4,17,3.76,3.76,0,0,1,87.17,20.72Z"/><path class="cls-4" d="M98.81,20.72A3.77,3.77,0,1,1,95.05,17,3.76,3.76,0,0,1,98.81,20.72Z"/></g><rect class="cls-5" x="13.95" y="56.32" width="554.08" height="369.38"/><rect class="cls-2" x="13.95" y="56.32" width="554.08" height="23.61"/><path class="cls-2" d="M568,79.93c0-.48,0-7.45-.07-23.61l.07.07L14,56.58h0l.26-.26V79.93L14,79.67,568,79.93,14,80.19h-.26V56.06H14L568,56.25h.07v.07C568.05,72.48,568,79.45,568,79.93Z"/><g class="cls-3"><path class="cls-4" d="M32.05,67.42a3.81,3.81,0,1,1-3.81-3.81A3.81,3.81,0,0,1,32.05,67.42Z"/><path class="cls-4" d="M43.84,67.42A3.81,3.81,0,1,1,40,63.61,3.81,3.81,0,0,1,43.84,67.42Z"/><path class="cls-4" d="M55.62,67.42a3.81,3.81,0,1,1-3.81-3.81A3.8,3.8,0,0,1,55.62,67.42Z"/></g><g class="cls-6"><path d="M504.05,425.66c-21.39-22.51-52.78-33.45-83.83-33.24-22.67.15-46.33,6.92-67.41-1.44-19.5-7.74-31.88-26.53-47.06-41a128.47,128.47,0,0,0-87.36-35.14c-21.81-.07-45.84,4.94-63.83-7.4-12.15-8.33-18.36-22.68-26.89-34.69-25-35.21-73.13-49.9-113.4-34.33l-.06,187Z"/></g><path class="cls-7" d="M568,425.7c0-1.7-.08-144.19-.21-369.38l.21.21-554,0H14l.26-.26c0,131.54,0,256.66,0,369.38l-.24-.24L568,425.7,14,425.94h-.23v-.24c0-112.72,0-237.84,0-369.38v-.26H14l554,0h.21v.21C568.11,281.51,568,424,568,425.7Z"/><path class="cls-7" d="M83.36,147.12c0,.37-2.72.67-6.08.67s-6.09-.3-6.09-.67,2.72-.67,6.09-.67S83.36,146.75,83.36,147.12Z"/><path class="cls-7" d="M89.83,130.56c.37,0,.67,2.76.67,6.18s-.3,6.17-.67,6.17-.67-2.76-.67-6.17S89.46,130.56,89.83,130.56Z"/><path class="cls-7" d="M96.72,146.72c0-.37,2.72-.67,6.09-.67s6.09.3,6.09.67-2.73.68-6.09.68S96.72,147.1,96.72,146.72Z"/><path class="cls-7" d="M90.25,163.29c-.37,0-.67-2.77-.67-6.18s.3-6.18.67-6.18.68,2.77.68,6.18S90.62,163.29,90.25,163.29Z"/><path class="cls-7" d="M100.09,156.18c-.28.24-1.48-.72-2.68-2.16s-1.93-2.78-1.65-3,1.49.73,2.69,2.16S100.38,156,100.09,156.18Z"/><path class="cls-7" d="M99.52,137.4c.27.26-.52,1.49-1.76,2.74s-2.47,2.06-2.73,1.79.53-1.49,1.77-2.74S99.26,137.14,99.52,137.4Z"/><path class="cls-7" d="M85.57,142.19c-.24.28-1.39-.28-2.57-1.27s-2-2-1.71-2.3,1.39.28,2.57,1.27S85.8,141.9,85.57,142.19Z"/><path class="cls-7" d="M85,150.46c.27.25-.42,1.46-1.54,2.7s-2.27,2-2.54,1.78.41-1.45,1.54-2.69S84.74,150.21,85,150.46Z"/><path class="cls-7" d="M427,115.07c0,.21-1.55.38-3.46.38s-3.45-.17-3.45-.38,1.54-.38,3.45-.38S427,114.86,427,115.07Z"/><path class="cls-7" d="M430.63,105.66c.21,0,.38,1.58.38,3.51s-.17,3.51-.38,3.51-.38-1.57-.38-3.51S430.42,105.66,430.63,105.66Z"/><path class="cls-7" d="M434.54,114.84c0-.21,1.55-.38,3.46-.38s3.46.17,3.46.38-1.55.39-3.46.39S434.54,115.05,434.54,114.84Z"/><path class="cls-7" d="M430.87,124.25c-.21,0-.38-1.57-.38-3.51s.17-3.51.38-3.51.38,1.57.38,3.51S431.08,124.25,430.87,124.25Z"/><path class="cls-7" d="M436.46,120.21c-.16.14-.85-.41-1.52-1.22s-1.1-1.58-.94-1.72.84.41,1.52,1.23S436.62,120.08,436.46,120.21Z"/><path class="cls-7" d="M436.14,109.55c.15.15-.3.85-1,1.56s-1.4,1.16-1.55,1,.3-.84,1-1.55S436,109.4,436.14,109.55Z"/><path class="cls-7" d="M428.21,112.27c-.13.16-.79-.16-1.46-.72s-1.1-1.14-1-1.31.79.16,1.46.72S428.35,112.1,428.21,112.27Z"/><path class="cls-7" d="M427.9,117c.16.14-.24.82-.88,1.53s-1.28,1.15-1.44,1,.24-.83.88-1.53S427.74,116.82,427.9,117Z"/><path class="cls-7" d="M269.91,193.72a11.85,11.85,0,0,1-5.3,0,12.25,12.25,0,0,1,5.3,0Z"/><path class="cls-7" d="M272.73,186.52a12.57,12.57,0,0,1,0,5.37,12.57,12.57,0,0,1,0-5.37Z"/><path class="cls-7" d="M275.73,193.55a12.25,12.25,0,0,1,5.3,0,11.85,11.85,0,0,1-5.3,0Z"/><path class="cls-7" d="M272.91,200.76a12.62,12.62,0,0,1,0-5.38,12.21,12.21,0,0,1,0,5.38Z"/><path class="cls-7" d="M277.2,197.67c-.13.1-.65-.32-1.17-.94s-.84-1.21-.72-1.32.65.32,1.17.94S277.32,197.57,277.2,197.67Z"/><path class="cls-7" d="M277,189.49c.11.12-.23.65-.77,1.2s-1.07.89-1.19.78.23-.65.77-1.2S276.83,189.38,277,189.49Z"/><path class="cls-7" d="M270.87,191.58c-.1.12-.6-.12-1.12-.55s-.84-.88-.74-1,.61.12,1.12.55S271,191.45,270.87,191.58Z"/><path class="cls-7" d="M270.63,195.18c.12.11-.18.63-.67,1.17s-1,.89-1.1.78.18-.64.67-1.17S270.52,195.07,270.63,195.18Z"/><path class="cls-7" d="M410.7,204.94c0,.21-1.55.38-3.46.38s-3.45-.17-3.45-.38,1.54-.39,3.45-.39S410.7,204.72,410.7,204.94Z"/><path class="cls-7" d="M414.37,195.53c.21,0,.39,1.57.39,3.51s-.18,3.51-.39,3.51S414,201,414,199,414.16,195.53,414.37,195.53Z"/><path class="cls-7" d="M418.28,204.71c0-.21,1.55-.38,3.46-.38s3.46.17,3.46.38-1.55.38-3.46.38S418.28,204.92,418.28,204.71Z"/><path class="cls-7" d="M414.61,214.11c-.21,0-.38-1.57-.38-3.5s.17-3.51.38-3.51.38,1.57.38,3.51S414.82,214.11,414.61,214.11Z"/><path class="cls-7" d="M420.2,210.08c-.16.14-.84-.41-1.52-1.23s-1.1-1.58-.94-1.71.85.41,1.52,1.22S420.36,210,420.2,210.08Z"/><path class="cls-7" d="M419.88,199.42c.15.14-.3.84-1,1.55s-1.4,1.17-1.55,1,.3-.85,1-1.56S419.73,199.27,419.88,199.42Z"/><path class="cls-7" d="M412,202.13c-.13.17-.79-.16-1.46-.71s-1.1-1.15-1-1.31.79.16,1.46.72S412.09,202,412,202.13Z"/><path class="cls-7" d="M411.64,206.83c.16.15-.24.83-.87,1.53s-1.29,1.16-1.45,1,.24-.83.88-1.53S411.48,206.69,411.64,206.83Z"/><path class="cls-7" d="M228.46,115.68l.45,1.07a7.65,7.65,0,0,0,4.19,4.15l1.17.48-1.13.45a7.64,7.64,0,0,0-4.21,4.23l-.32.78-.47-1a7.71,7.71,0,0,0-4.27-3.88l-1-.37,1.34-.65A7.57,7.57,0,0,0,227.9,117Z"/><path class="cls-7" d="M52.84,196.6l.29.72a5.13,5.13,0,0,0,2.78,2.75l.78.32-.74.3a5.1,5.1,0,0,0-2.81,2.81l-.21.52-.31-.65a5.14,5.14,0,0,0-2.84-2.58l-.68-.25.89-.43a5.07,5.07,0,0,0,2.47-2.61Z"/><path class="cls-7" d="M495.38,126.84l.3.72a5.08,5.08,0,0,0,2.78,2.76l.78.31-.75.31a5,5,0,0,0-2.8,2.8l-.21.53-.32-.66a5,5,0,0,0-2.84-2.57l-.68-.25.89-.43a5.07,5.07,0,0,0,2.48-2.62Z"/><path class="cls-7" d="M496.71,157.15l.45,1.08a7.68,7.68,0,0,0,4.19,4.15l1.17.47-1.13.46a7.62,7.62,0,0,0-4.21,4.22l-.32.79-.47-1a7.65,7.65,0,0,0-4.27-3.87l-1-.37,1.34-.65a7.65,7.65,0,0,0,3.72-3.94Z"/><path class="cls-7" d="M311.94,109.13l.21.51a3.62,3.62,0,0,0,2,1.94l.55.22-.52.22a3.57,3.57,0,0,0-2,2l-.15.37-.22-.46a3.59,3.59,0,0,0-2-1.82l-.48-.17.63-.31a3.59,3.59,0,0,0,1.75-1.85Z"/><path class="cls-7" d="M172.54,192l.27.65a4.6,4.6,0,0,0,2.53,2.5l.7.29-.68.27a4.64,4.64,0,0,0-2.54,2.55l-.19.48-.29-.6a4.67,4.67,0,0,0-2.58-2.34l-.61-.22.8-.39a4.58,4.58,0,0,0,2.25-2.38Z"/><path class="cls-8" d="M375.71,351.64c.52-3.42,15.9-106.09,15.9-106.09L376.18,236l8.66-5.81s-23.52-17.73-28.42-21.72-53.47-12.1-71.7-3.67S242,238.36,242,238.36l-1.1,1.6-13.08,2.73s4.86,77,5,79.14c1.91,29.13-4.94,50.76-6.34,64.27-1.44,13.86,2.19,14.48,2.19,14.48L229,426H370l-.6-17.8,5.74-6.63C385.08,389.53,375.29,354.4,375.71,351.64Z"/><path class="cls-9" d="M245.09,317.59c-.39.32-8.82,1.09-16.65,4.28s-14.5,10.15-14,14.81,27.44,9.82,27.44,9.82l15.7-6.2Z"/><path class="cls-10" d="M287.53,239c.06,1.15-8,14.19-8.57,21.62s3.49,52.55,4.39,52.61l13.67.94s8.2-33.48,16.12-49.73,19.21-35.77,19.21-35.77Z"/><path class="cls-8" d="M227.45,241.33s-6.18,1.26-11.07,8.48c-2.69,4-36.49,75.14-39.79,87.54s-2.13,25.42,9.44,31.92,65.57,14.92,77.18,14.8,9.64-.79,9.64-.79l3.6-26L215.92,337.6,234,314Z"/><path class="cls-11" d="M234,314a2.11,2.11,0,0,1-.28.42c-.22.3-.5.7-.87,1.2l-3.47,4.64-13.26,17.48-.13-.44,60.58,19.48.35.11-.05.37c-1.13,8.27-2.33,17-3.57,26l-.32-.51a.65.65,0,0,1,.22.11.58.58,0,0,1,.23.49.72.72,0,0,1-.15.33l-.09.08a.88.88,0,0,1-.18.1,2.66,2.66,0,0,1-.45.13,7.46,7.46,0,0,1-.78.13c-.5.06-1,.1-1.51.13-1,.07-2,.11-3,.14-2,0-4,.12-6.14,0-4.14-.21-8.3-.67-12.52-1.19-8.44-1-17.09-2.4-25.86-4-5.8-1-11.5-2.2-17.1-3.45a132.35,132.35,0,0,1-16.35-4.61,21.4,21.4,0,0,1-12.25-10.7A28.68,28.68,0,0,1,174.72,345a48.28,48.28,0,0,1,1.36-7.49c.35-1.21.75-2.4,1.14-3.57l1.3-3.42c1.78-4.5,3.61-8.82,5.42-13,3.61-8.32,7.11-16,10.34-23,6.46-14,11.87-25.26,15.73-33,1.92-3.86,3.45-6.84,4.56-8.83a20.56,20.56,0,0,1,1.81-2.95s-.13.27-.42.78-.7,1.25-1.22,2.27c-1,2-2.51,5-4.39,8.9-3.74,7.76-9,19.05-15.43,33.09-3.19,7-6.65,14.72-10.23,23-1.78,4.16-3.6,8.48-5.36,13l-1.28,3.4c-.38,1.15-.76,2.31-1.1,3.49a47.1,47.1,0,0,0-1.32,7.35,27.73,27.73,0,0,0,2.27,15,20.5,20.5,0,0,0,11.75,10.21,131.5,131.5,0,0,0,16.22,4.55c5.58,1.25,11.27,2.42,17.06,3.44,8.75,1.57,17.38,2.94,25.8,4,4.21.51,8.36,1,12.44,1.2,2,.09,4.06,0,6.07,0,1,0,2-.06,3-.13.49,0,1-.07,1.46-.13a5,5,0,0,0,.69-.11.94.94,0,0,0,.26-.07c.06,0-.05-.05.07.12a.54.54,0,0,0,.15.15.05.05,0,0,0,.05.05.53.53,0,0,0-.21.33l-.32-.51c1.26-9,2.48-17.77,3.63-26l.3.48-60.47-19.78-.38-.13.24-.31,13.46-17.32,3.59-4.55.93-1.16A3,3,0,0,1,234,314Z"/><path class="cls-8" d="M388.8,243.67a255.39,255.39,0,0,1-22.89,21c-13.94,11.41-32.59,52-32.59,52s-80.47-5.7-82.15-5.5-16.5,11.9-17,15.56,6.32,18.61,6.32,18.61,93,29,105.83,29.42,25.23-21.52,35.89-36.27,21.72-45.63,24.94-56.78C411.76,265.78,400.3,247.91,388.8,243.67Z"/><g class="cls-12"><path d="M244.37,347.24l1.39.41L242,345.87Z"/></g><g class="cls-12"><path d="M351.23,373.92c-4.43,1.36-12,.06-16.56-.84-9.42-1.85-18.64-4.58-27.84-7.31l-61.07-18.12c27.4,13,55.12,25.85,84.68,32.53,7.1,1.61,14.68,2.82,21.52.35,5.62-2,10.15-6.39,13.45-11.37s7.65-15,9.82-20.59C375.23,348.57,361.52,370.75,351.23,373.92Z"/></g><path class="cls-11" d="M382.22,338.52a8.26,8.26,0,0,1-.44.71l-1.36,2L375.17,349c-2.29,3.35-5.09,7.48-8.68,12a75.13,75.13,0,0,1-6.18,7,28.32,28.32,0,0,1-8.57,6.06,18,18,0,0,1-2.7.84,20,20,0,0,1-2.91.23l-2.93-.35c-1-.16-1.94-.37-2.92-.56-3.94-.78-8-1.78-12.18-2.85-8.37-2.13-17.28-4.59-26.66-7.27-18.75-5.35-39.37-11.53-61.08-18.25l-.22-.06-.09-.21c-1.6-3.58-3.23-7.45-4.65-11.45-.45-1.29-.88-2.58-1.23-3.91a16.57,16.57,0,0,1-.41-2,3.93,3.93,0,0,1,.17-2.23c1.35-2.6,3.36-4.36,5.27-6.23s4-3.52,6-5.14c1-.81,2.07-1.61,3.16-2.35.54-.37,1.07-.74,1.67-1.07l.45-.25c.2-.07.41-.15.61-.2l1,0c10.32.56,20.23,1.29,29.77,1.93l51.42,3.67-.37.22c8.15-17.19,15.91-30.59,22-39.38a80.52,80.52,0,0,1,7.73-9.61,39.8,39.8,0,0,1,3.19-2.89s-.25.28-.77.79-1.33,1.2-2.27,2.25a89,89,0,0,0-7.53,9.7c-6,8.83-13.64,22.27-21.68,39.45l-.11.24-.26,0-51.44-3.49c-9.52-.62-19.49-1.34-29.72-1.88l-.9,0-.3.12-.4.22a17.67,17.67,0,0,0-1.59,1c-1.05.72-2.08,1.51-3.1,2.31-2,1.61-4,3.3-6,5.09s-3.9,3.7-5,5.88c-.41,1,0,2.39.29,3.64s.75,2.56,1.19,3.83c1.41,4,3,7.82,4.62,11.37l-.3-.26c21.71,6.72,42.31,12.93,61,18.33,9.36,2.71,18.26,5.2,26.61,7.36,4.17,1.09,8.22,2.1,12.12,2.89,1,.19,1.94.41,2.9.57l2.84.36a20.54,20.54,0,0,0,2.74-.2,18.5,18.5,0,0,0,2.59-.79,27.47,27.47,0,0,0,8.39-5.87,73.3,73.3,0,0,0,6.19-6.86c3.62-4.51,6.46-8.6,8.8-11.92l5.39-7.65,1.44-1.95C382,338.73,382.22,338.52,382.22,338.52Z"/><path class="cls-9" d="M320.28,315.72c.12-1.32,4.84-10.73,13.13-14.33s18.24-7.72,18.24-7.72,0,4-1.87,5.49-7.36,5-7.36,5l16.4-2.42s1.49,4.6-1.75,7.42-18.4,9-18.4,9l-19.39-2.57"/><g class="cls-12"><path d="M268.07,272.17c-1.43-4.1-3.79-8.94-8.12-9.11l-17.16,1.79c-.78,2.92-1.55,6-.88,8.91s3.34,5.66,6.33,5.31c2.79-.33,4.83-3.07,7.61-3.4,2.23-.27,4.38,1.13,5.69,2.94a21.93,21.93,0,0,1,2.69,6.12c4,11.76,8.83,18.42,17.43,27.38C276.54,297.39,273.18,286.89,268.07,272.17Z"/></g><path class="cls-11" d="M281.66,312.11a4.87,4.87,0,0,1-.45-1.05l-1.1-3.1c-1-2.82-2.28-6.69-3.88-11.42s-3.52-10.62-5.63-17c-1.07-3.18-2.12-6.6-3.33-10a8.44,8.44,0,0,0-3-4.23,10,10,0,0,0-5.3-1.12,80.18,80.18,0,0,0-24.17,3.23l-.5.14-.07-.5a36.28,36.28,0,0,1,.45-12.95,43.1,43.1,0,0,1,3.18-9.53,42.34,42.34,0,0,1,3.18-5.67c.41-.63.78-1.08,1-1.4s.37-.46.39-.45a17.49,17.49,0,0,1-1.16,2,51.06,51.06,0,0,0-2.93,5.74,45.13,45.13,0,0,0-3,9.46,36.1,36.1,0,0,0-.29,12.66l-.57-.36A79,79,0,0,1,259,263.22a10.93,10.93,0,0,1,5.8,1.28,9.28,9.28,0,0,1,3.39,4.7c1.25,3.51,2.25,6.86,3.3,10.07,2,6.39,3.87,12.16,5.43,17.05s2.69,8.68,3.58,11.53c.37,1.28.68,2.32.92,3.14A5.48,5.48,0,0,1,281.66,312.11Z"/><g class="cls-12"><path d="M368,240.91c-19.74,9.56-39.57,28.2-56,48.06l-15.75,23.15a338.54,338.54,0,0,1,49.72-40.59c5.73-3.84,11.67-7.58,16.23-12.75S369.15,247.7,368,240.91Z"/></g><path class="cls-11" d="M297.24,312.5a5.48,5.48,0,0,1,.48-1.14c.41-.82.93-1.88,1.57-3.19,1.39-2.76,3.48-6.72,6.35-11.44A127.14,127.14,0,0,1,317,281a146.28,146.28,0,0,1,17-16.62c12.94-10.86,25.62-19.39,34.73-25.61,4.56-3.1,8.31-5.54,10.9-7.21l3-1.9a5.51,5.51,0,0,1,1.08-.61,5.53,5.53,0,0,1-1,.77l-2.89,2.06-10.73,7.47c-9,6.36-21.6,15-34.48,25.78a154.26,154.26,0,0,0-16.95,16.47,135,135,0,0,0-11.45,15.53c-2.94,4.65-5.11,8.55-6.61,11.25l-1.73,3.1A5.61,5.61,0,0,1,297.24,312.5Z"/><path class="cls-11" d="M297.82,309.44a3.18,3.18,0,0,1,.13-.9c.15-.69.32-1.53.54-2.53.48-2.2,1.28-5.35,2.37-9.22a242.41,242.41,0,0,1,24.8-57.59c2.07-3.45,3.81-6.2,5.08-8.06L332.2,229c.35-.49.54-.73.57-.71a3,3,0,0,1-.4.81l-1.31,2.24c-1.16,1.91-2.81,4.72-4.79,8.2A281.71,281.71,0,0,0,301.53,297c-1.17,3.84-2.07,7-2.67,9.12-.28,1-.52,1.81-.72,2.49A3,3,0,0,1,297.82,309.44Z"/><path class="cls-11" d="M368.28,407a9.19,9.19,0,0,1-1.38.5l-4,1.25-6.36,1.93-8.58,2a202.32,202.32,0,0,1-50.69,4.23l-7.37-.39-7.14-.71c-2.34-.2-4.62-.54-6.85-.88s-4.44-.6-6.55-1a188.49,188.49,0,0,1-22.27-5.42,103.36,103.36,0,0,1-14.37-5.7,32.07,32.07,0,0,1-3.68-2,7.44,7.44,0,0,1-1.22-.81,10.23,10.23,0,0,1,1.33.64c.85.43,2.05,1.17,3.74,1.87a118.26,118.26,0,0,0,14.41,5.37A198.75,198.75,0,0,0,269.51,413c2.1.42,4.3.65,6.52,1s4.5.66,6.83.85l7.1.69,7.34.39A212.47,212.47,0,0,0,347.81,412l8.58-1.83,6.4-1.76,4-1.07A7.87,7.87,0,0,1,368.28,407Z"/><path class="cls-11" d="M289,417.05a15.67,15.67,0,0,1-.37-2.86c-.18-1.85-.39-4.52-.61-7.82a82.2,82.2,0,0,1-.48-8.61c-.35-10-.68-19.05-.92-25.85-.12-3.17-.22-5.8-.29-7.83a15.8,15.8,0,0,1,0-2.89,15.67,15.67,0,0,1,.37,2.86c.19,1.85.39,4.52.61,7.82.44,6.61.86,15.76,1.22,25.86s-.06,1.81.18,8.6c.12,3.17.22,5.8.29,7.83A15.75,15.75,0,0,1,289,417.05Z"/><path class="cls-10" d="M355.88,237.08h0a2.42,2.42,0,0,0-2.86,2.15,2.73,2.73,0,0,0,5.33.44C358.55,238.53,357,237.1,355.88,237.08Z"/><path class="cls-10" d="M364.17,230.6h0a2.42,2.42,0,0,0-2.86,2.15,2.73,2.73,0,0,0,5.33.44C366.84,232.05,365.33,230.62,364.17,230.6Z"/><path class="cls-10" d="M346.69,243.82h0a2.42,2.42,0,0,0-2.86,2.15,2.73,2.73,0,0,0,5.33.44C349.36,245.27,347.85,243.84,346.69,243.82Z"/><path class="cls-11" d="M223.49,247.3a14.3,14.3,0,0,1,.66,2.69c.36,1.74.81,4.28,1.29,7.43,1,6.3,2,15,3.24,24.66s2.53,18.3,3.84,24.52c.62,3.11,1.25,5.6,1.69,7.32a14.17,14.17,0,0,1,.6,2.7,14.89,14.89,0,0,1-1-2.59c-.55-1.69-1.28-4.17-2-7.28a239,239,0,0,1-4.14-24.55c-1.15-9.54-2.18-18.18-2.95-24.68-.4-3-.73-5.52-1-7.47A13.92,13.92,0,0,1,223.49,247.3Z"/><path class="cls-10" d="M255.74,255.31l0,0a2.42,2.42,0,0,0-3.57-.11,2.7,2.7,0,0,0,.67,3.6,2.67,2.67,0,0,0,3.21.07C256.92,258.12,256.63,256.05,255.74,255.31Z"/><path class="cls-10" d="M266.26,255.44l0,0a2.42,2.42,0,0,0-3.57-.11,2.73,2.73,0,0,0,3.88,3.68C267.44,258.24,267.15,256.18,266.26,255.44Z"/><path class="cls-10" d="M244.36,254.83l0,0a2.44,2.44,0,0,0-3.58-.11,2.73,2.73,0,0,0,.68,3.61,2.67,2.67,0,0,0,3.21.07C245.53,257.63,245.24,255.57,244.36,254.83Z"/><path class="cls-9" d="M331.06,229.1l-.64-79.24c-.29-21.14-11.51-34.7-32.63-33.82l-2.39,3.53c-19.41,1.93-33.72,10.61-33.35,30.11.35,18.41,1,38.84,2.07,48.63,2.27,20.16,22.77,21.28,22.77,21.28s.34,14.72.68,20.67h0C302.92,257.4,331.06,229.1,331.06,229.1Z"/><path class="cls-13" d="M286.89,219.59s12.8-.52,25.51-10.39c0,0-4.95,15.32-25.27,15.51Z"/><path class="cls-8" d="M273.33,168.23a2.88,2.88,0,0,0,3.07,2.63,2.76,2.76,0,0,0,2.71-2.89,2.9,2.9,0,0,0-3.07-2.64A2.78,2.78,0,0,0,273.33,168.23Z"/><path class="cls-8" d="M268.07,160.41c.4.34,2.42-1.5,5.52-1.8s5.53,1,5.83.61c.15-.18-.28-.83-1.35-1.45a8,8,0,0,0-4.71-1,7.63,7.63,0,0,0-4.35,1.9C268.13,159.54,267.88,160.26,268.07,160.41Z"/><path class="cls-8" d="M299.75,166.35a2.91,2.91,0,0,0,3.07,2.63,2.79,2.79,0,0,0,2.72-2.9,2.9,2.9,0,0,0-3.07-2.63A2.78,2.78,0,0,0,299.75,166.35Z"/><path class="cls-8" d="M296.5,158.53c.39.34,2.42-1.49,5.52-1.79s5.53,1,5.83.61c.15-.19-.28-.83-1.35-1.45a8,8,0,0,0-4.71-1,7.69,7.69,0,0,0-4.35,1.9C296.56,157.67,296.31,158.38,296.5,158.53Z"/><path class="cls-8" d="M289,183.32c0-.18-2-.32-5.13-.4-.8,0-1.57-.09-1.75-.62a4,4,0,0,1,.29-2.4c.55-2,1.13-4.07,1.74-6.26,2.4-8.91,4.05-16.21,3.69-16.3s-2.6,7-5,16c-.57,2.2-1.12,4.29-1.64,6.3a4.6,4.6,0,0,0-.1,3.14,2,2,0,0,0,1.42,1,5.4,5.4,0,0,0,1.36.06C287.07,183.68,289,183.5,289,183.32Z"/><path class="cls-8" d="M296.06,148.72c.38.81,3.44.12,7.12.21s6.73.8,7.14,0c.18-.39-.41-1.13-1.68-1.83a12.33,12.33,0,0,0-10.86-.16C296.49,147.61,295.88,148.33,296.06,148.72Z"/><path class="cls-8" d="M267.87,154.36c.65.69,3.13-.1,6.13-.21s5.55.34,6.12-.41c.25-.37-.17-1.06-1.29-1.71a9.6,9.6,0,0,0-5-1,9.46,9.46,0,0,0-4.86,1.54C267.91,153.28,267.58,154,267.87,154.36Z"/><path class="cls-9" d="M327.21,157.35c.33-.18,13.46-5.48,14.4,8.36s-12.85,11.37-13.21,11.53C324,179.19,327.21,157.35,327.21,157.35Z"/><path class="cls-13" d="M332.51,171.75c.06-.05.25.15.67.31A2.45,2.45,0,0,0,335,172c1.42-.63,2.5-3,2.4-5.54a8,8,0,0,0-.91-3.4,2.79,2.79,0,0,0-1.94-1.73,1.22,1.22,0,0,0-1.38.76c-.16.4-.05.67-.12.69s-.32-.21-.25-.79a1.54,1.54,0,0,1,.49-.9,1.83,1.83,0,0,1,1.31-.44,3.4,3.4,0,0,1,2.67,2,8.2,8.2,0,0,1,1.09,3.8c.1,2.8-1.15,5.51-3.11,6.22a2.58,2.58,0,0,1-2.23-.22C332.56,172.08,332.46,171.78,332.51,171.75Z"/><path class="cls-14" d="M262.26,142.28c1.89-4.84,7.2-9.69,19.65-2.95,9.35-6.64,17-8.65,26.28-5.35,8,2.89,7.53,10.28,14.86,14.1,7.54,4,5.61,13.41,5.61,13.41s5.72-36.11-14-43.52c-5.34-2.17-10.87-4.4-17.71-4.23-9,.26-15.61,3.28-22.1,7.09C268.08,125,263,130.42,262.26,142.28Z"/><path class="cls-15" d="M269.66,124.76a21.79,21.79,0,0,0-4.09,5,23.17,23.17,0,0,0-2.37,6,37.36,37.36,0,0,0-.94,6.48h0a10.23,10.23,0,0,1,3.3-4.61A9.13,9.13,0,0,1,271,136a16.72,16.72,0,0,1,5.65,1,35.12,35.12,0,0,1,5.26,2.31h-.06c4.31-3.08,9.18-5.82,14.55-6.68a22.58,22.58,0,0,1,8,.24,17.82,17.82,0,0,1,7.43,3.06,16.07,16.07,0,0,1,2.79,2.92c.82,1.08,1.53,2.22,2.3,3.32a16.61,16.61,0,0,0,5.65,5.56,10.78,10.78,0,0,1,5.41,5.82,15.35,15.35,0,0,1,.73,8l-.19,0a83.74,83.74,0,0,0,.79-11.31,69,69,0,0,0-.85-11.3,47.41,47.41,0,0,0-1.26-5.52,34.1,34.1,0,0,0-2-5.28,26.35,26.35,0,0,0-3.06-4.75,20.25,20.25,0,0,0-4.24-3.71l-1.23-.7a12.48,12.48,0,0,0-1.29-.59c-.85-.39-1.75-.73-2.62-1.08-1.76-.73-3.52-1.33-5.34-1.93a31.74,31.74,0,0,0-11.16-1.5,38.16,38.16,0,0,0-11.1,2.12,56.88,56.88,0,0,0-10.23,4.9A32.8,32.8,0,0,0,269.66,124.76Zm15.47-8.87a38.66,38.66,0,0,1,11.11-2.15,32.07,32.07,0,0,1,11.22,1.49c1.81.55,3.59,1.21,5.34,1.91.89.36,1.77.69,2.63,1.08.43.2.89.36,1.3.59l1.22.69a19.64,19.64,0,0,1,4.25,3.73,25.38,25.38,0,0,1,3.09,4.76,35.24,35.24,0,0,1,2.13,5.31,47.77,47.77,0,0,1,1.27,5.54,68.23,68.23,0,0,1,.88,11.33,81.25,81.25,0,0,1-.79,11.34l-.19,0a15.28,15.28,0,0,0-.73-7.87,10.67,10.67,0,0,0-5.32-5.7,17,17,0,0,1-5.71-5.65c-.76-1.1-1.47-2.24-2.29-3.32a16,16,0,0,0-2.75-2.89,17.8,17.8,0,0,0-7.48-3,22.53,22.53,0,0,0-8-.26c-5.33.83-10.15,3.55-14.51,6.63h0a34.46,34.46,0,0,0-5.24-2.31,16.15,16.15,0,0,0-5.59-1,9.09,9.09,0,0,0-5.36,1.68,10.2,10.2,0,0,0-3.37,4.54v0a37.35,37.35,0,0,1,.93-6.48,23.6,23.6,0,0,1,2.37-6,21.84,21.84,0,0,1,4.09-5.09,33,33,0,0,1,5.24-3.87A57.83,57.83,0,0,1,285.13,115.89Z"/><path class="cls-14" d="M320.71,122c3.5,2,5.15-2.14,5.55-4.55a9.68,9.68,0,0,0-3.9-9.08c-2.89-2.13-7.05-2.69-10.15-.72s-5.42,5.23-3.38,8.23"/><path class="cls-15" d="M308,113.54a5,5,0,0,1,.64-2.45,10.28,10.28,0,0,1,3.47-3.59,8.07,8.07,0,0,1,4.85-1.27,10.12,10.12,0,0,1,4.82,1.45,10,10,0,0,1,4.76,8.49,9.45,9.45,0,0,1-1.45,4.76,3.54,3.54,0,0,1-2,1.53,3.19,3.19,0,0,1-2.4-.5,3.14,3.14,0,0,0,2.37.41,3.45,3.45,0,0,0,1.82-1.54,8.67,8.67,0,0,0,.95-2.26,8.57,8.57,0,0,0,.35-2.41,9.68,9.68,0,0,0-4.66-8.11,8.94,8.94,0,0,0-9.25-.24,10,10,0,0,0-3.47,3.4,4.9,4.9,0,0,0-.69,2.32,4.06,4.06,0,0,0,.71,2.34A4.27,4.27,0,0,1,308,113.54Z"/><path class="cls-15" d="M324.44,113.7a8.2,8.2,0,0,1-3.21,2.89,11.7,11.7,0,0,1-2.33.66,6.21,6.21,0,0,1-2,.07c-1-.1-1.78-.33-1.76-.25a2.93,2.93,0,0,0,.39.21,6.05,6.05,0,0,0,1.32.32,5.78,5.78,0,0,0,2,0,5.85,5.85,0,0,0,2.42-.68,8.16,8.16,0,0,0,3.18-3.07,3.51,3.51,0,0,0,.32-1.32.62.62,0,0,0-.07-.44A3,3,0,0,1,324.44,113.7Z"/><path class="cls-15" d="M321.58,110.12a9.36,9.36,0,0,1-2.39,3.47,8.38,8.38,0,0,1-3.72,2.08c-1,.35-1.76.3-1.74.38a2.26,2.26,0,0,1,.45,0,6,6,0,0,0,1.34-.14,8.46,8.46,0,0,0,3.9-2,7.83,7.83,0,0,0,2.45-3.66,6.69,6.69,0,0,0,.32-1.32,1.41,1.41,0,0,0,0-.46A5.15,5.15,0,0,1,321.58,110.12Z"/><path class="cls-10" d="M320.17,121a19,19,0,0,0-4.12-3,17,17,0,0,0-4.75-1.91,12.93,12.93,0,0,0-2.14-.36,7.73,7.73,0,0,0,2.1.64,49.37,49.37,0,0,1,4.67,2,19.67,19.67,0,0,1,4.18,2.82,9.55,9.55,0,0,0,1.52,1.46A8.24,8.24,0,0,0,320.17,121Z"/><path class="cls-15" d="M283.53,125.51a32.31,32.31,0,0,1,6-6.26,21.11,21.11,0,0,1,7.75-3.84,18.23,18.23,0,0,1,8.53-.27,16.07,16.07,0,0,0-4.27-.18,17.26,17.26,0,0,0-4.22.71,23.54,23.54,0,0,0-7.56,3.9,31.87,31.87,0,0,0-5.93,6.07c-.81,1-1.6,2.26-2.39,3.47a33.9,33.9,0,0,0-2.07,3.79A34.26,34.26,0,0,1,283.53,125.51Z"/><path class="cls-15" d="M295.44,121.14a23.14,23.14,0,0,1,6.2-2.86,17.88,17.88,0,0,1,6.87-.53,10.9,10.9,0,0,1,3.31.89,12.15,12.15,0,0,1,3,1.66,15.35,15.35,0,0,0-6.35-2.27,19.61,19.61,0,0,0-3.34,0,21,21,0,0,0-3.32.66,23.71,23.71,0,0,0-6.23,2.68,19,19,0,0,0-2.85,1.84,20.19,20.19,0,0,0-2.72,2.08A26.3,26.3,0,0,1,295.44,121.14Z"/><path class="cls-15" d="M276.39,129.24a8.58,8.58,0,0,1,.58-4.07,15.15,15.15,0,0,1,2.22-3.45,18,18,0,0,1,1.47-1.42,11.28,11.28,0,0,1,1.59-1.26,18,18,0,0,1-1.47,1.42c-.45.53-.92,1-1.37,1.5a13.77,13.77,0,0,0-2,3.42,10.22,10.22,0,0,0,.24,7.81A7.77,7.77,0,0,1,276.39,129.24Z"/><path class="cls-15" d="M286.13,130.21a9.27,9.27,0,0,1,4.83-1.9,8.8,8.8,0,0,1,5.07,1.13,28.91,28.91,0,0,1,4.21,3c2.79,2.06,6,3.69,9.33,3.84a10.86,10.86,0,0,0,5-.93,29.65,29.65,0,0,0,4.43-2.65,22.4,22.4,0,0,1-4.32,2.81,11.29,11.29,0,0,1-5.06,1,11.55,11.55,0,0,1-5.07-1.13,20.51,20.51,0,0,1-4.5-2.58,35.69,35.69,0,0,0-4.2-2.91,9.48,9.48,0,0,0-4.8-1.17,8.5,8.5,0,0,0-4.68,1.7,13.59,13.59,0,0,0-3.54,3.67A20.29,20.29,0,0,1,286.13,130.21Z"/><path class="cls-15" d="M307.49,123.43a9.9,9.9,0,0,1,3.23,1.45,10.21,10.21,0,0,1,2.49,2.46,6,6,0,0,0,.84,1.22c.07-.11-.1-.62-.6-1.44a8.29,8.29,0,0,0-2.53-2.64,8.94,8.94,0,0,0-3.4-1.41A4.49,4.49,0,0,0,306,123,13.19,13.19,0,0,1,307.49,123.43Z"/><path class="cls-15" d="M271.86,130.73c-.31-.83-.66-1.64-1.05-2.44a5.22,5.22,0,0,0,.71,2.59,5.35,5.35,0,0,0,1.63,2.16A23.81,23.81,0,0,0,271.86,130.73Z"/><path class="cls-9" d="M328.78,162.74s3.25-16-1.31-29.05c0,0-.7,11.32-13,10.15.84,2.3.52,7.32,3.2,8.77A29.76,29.76,0,0,1,328.78,162.74Z"/><g id="борода"><path class="cls-14" d="M263.41,190.81c.44-2.91,4.26-4.12,7.09-3.49s6.6,1.38,9.53.8c8.42-1.73,13.17-4,21.05-4.32a47.82,47.82,0,0,1,9.57,0c3.65.46,7.4.84,8.45-2.67.53-1.62,1.82-4.2,2.16-5.9s2.07-3.49,3.6-2.86,1.6,2.76,1.44,4.45a100.54,100.54,0,0,1-2.74,16c-1.48,5.22-2.07,9.91-3.55,15.12-4.46,15.37-13.62,20.87-27.56,22.06-2,.15-12.08-1.35-13.75-.11s-4.05,1.87-5.8.79a7.33,7.33,0,0,0,2.26-4.72c-3.84,2.14-9-.1-11.59-3.63-2.88-3.88-3.1-8.23-1.86-12.87.93-3.69,0-6-.44-9.79-.23-1.85-1.08-3.46-1.13-5.31s1.47-4.1,3.24-4"/><path class="cls-15" d="M260.91,191.77a4.49,4.49,0,0,0-.78,2.84,14.32,14.32,0,0,0,.65,2.9,16.1,16.1,0,0,1,.6,2.92,40.62,40.62,0,0,1,.76,5.92,12.39,12.39,0,0,1-.37,3,26.24,26.24,0,0,0-.57,2.91,14.31,14.31,0,0,0,.36,5.86,12.89,12.89,0,0,0,2.86,5.1,11.35,11.35,0,0,0,4.95,3.08,7.43,7.43,0,0,0,5.68-.42l.23-.13,0,.27A7.54,7.54,0,0,1,273,230.8l0-.24a4.82,4.82,0,0,0,4.79-.26c.19-.1.36-.21.54-.32a4.15,4.15,0,0,1,.57-.35,4,4,0,0,1,1.31-.29,18.78,18.78,0,0,1,2.6-.08c1.74,0,3.46.17,5.18.31l2.59.21a10.88,10.88,0,0,0,2.55,0,40.31,40.31,0,0,0,10.06-2.15,24,24,0,0,0,8.68-5.35,27.52,27.52,0,0,0,5.77-8.42,51.8,51.8,0,0,0,3.17-9.79c.77-3.36,1.38-6.77,2.27-10.11a71.12,71.12,0,0,0,2.18-10.09c.26-1.7.47-3.44.68-5.13s.55-3.46,0-5a1.87,1.87,0,0,0-1.83-1.22,2.87,2.87,0,0,0-2,1.31,4.78,4.78,0,0,0-.55,1.11c-.11.38-.19.84-.32,1.25-.27.84-.59,1.63-.92,2.44s-.68,1.59-1,2.39a4.58,4.58,0,0,1-1.37,2.25,4.92,4.92,0,0,1-2.46,1,11.47,11.47,0,0,1-2.62,0c-1.73-.13-3.42-.43-5.14-.5a44.67,44.67,0,0,0-5.17.12c-1.72.12-3.44.15-5.15.37a48.76,48.76,0,0,0-5.08.93c-3.35.84-6.66,1.83-10,2.58-.85.19-1.69.38-2.54.53a13.23,13.23,0,0,1-2.59.19,30.7,30.7,0,0,1-5.14-.7c-.85-.15-1.68-.4-2.53-.47a7.63,7.63,0,0,0-2.56.23,5.74,5.74,0,0,0-2.28,1.16,3.75,3.75,0,0,0-1.25,2.2,3.8,3.8,0,0,1,1.23-2.22,5.82,5.82,0,0,1,2.29-1.18,7.71,7.71,0,0,1,2.57-.26,24.34,24.34,0,0,1,2.55.47,30.5,30.5,0,0,0,5.12.64,13,13,0,0,0,2.57-.19c.84-.16,1.68-.35,2.52-.55,3.38-.75,6.66-1.79,10-2.59a49.35,49.35,0,0,1,5.11-.94c1.71-.22,3.43-.28,5.16-.38s3.45-.16,5.19-.12,3.49.37,5.17.48,3.51.09,4.84-.93A4.33,4.33,0,0,0,319,181c.29-.83.63-1.62,1-2.42s.65-1.59.9-2.4c.14-.41.2-.82.33-1.26a4.38,4.38,0,0,1,.59-1.21,3.14,3.14,0,0,1,2.19-1.48,2.21,2.21,0,0,1,2.2,1.44c.65,1.73.23,3.52.08,5.21s-.42,3.43-.67,5.14a74.76,74.76,0,0,1-2.15,10.15c-.88,3.32-1.48,6.73-2.24,10.1a49.72,49.72,0,0,1-3.21,9.87,27.75,27.75,0,0,1-5.88,8.53,23.94,23.94,0,0,1-8.83,5.42,41.46,41.46,0,0,1-10.15,2.15,11.39,11.39,0,0,1-2.61,0L288,230c-1.72-.15-3.44-.28-5.16-.32a18.38,18.38,0,0,0-2.57.06A4,4,0,0,0,279,230a2.08,2.08,0,0,0-.54.32l-.57.34a6.58,6.58,0,0,1-2.51.79,4.23,4.23,0,0,1-2.58-.55l-.17-.11.14-.13A7.23,7.23,0,0,0,275,226l.22.13a7.57,7.57,0,0,1-5.9.43,11.27,11.27,0,0,1-5-3.16,13.14,13.14,0,0,1-2.91-5.2,14.46,14.46,0,0,1-.32-6,26.7,26.7,0,0,1,.6-2.93,13,13,0,0,0,.39-2.92,41.88,41.88,0,0,0-.72-5.9,16,16,0,0,0-.56-2.92,13.87,13.87,0,0,1-.63-2.91,4.46,4.46,0,0,1,.8-2.85,3.06,3.06,0,0,1,2.44-1.49A3,3,0,0,0,260.91,191.77Z"/><path class="cls-16" d="M285.23,195.82a8.75,8.75,0,0,0,4.12-2.06,7.91,7.91,0,0,0,2.51-3.9,15.53,15.53,0,0,1,.6-1.9c.09,0,.34.81.06,2.13a7.68,7.68,0,0,1-2.46,4.45,8.18,8.18,0,0,1-4.68,2,3.22,3.22,0,0,1-2.07-.31C283.3,196.05,284.14,196.09,285.23,195.82Z"/><path class="cls-15" d="M312.31,199.15a16,16,0,0,0,1.27-4.27,15.24,15.24,0,0,0,.06-4.37,5.47,5.47,0,0,0-.41-1.83c-.19,0,.29,2.77-.21,6.15a30.21,30.21,0,0,1-1.71,5.88A9.18,9.18,0,0,0,312.31,199.15Z"/><path class="cls-15" d="M300.31,221.85c.36-.41.7-.84,1-1.28s.85-1.09,1.26-1.77a36.87,36.87,0,0,0,2.71-4.93,35.49,35.49,0,0,0,2.32-6.48,41.86,41.86,0,0,0,1-6.86,31.39,31.39,0,0,0-.14-5.65,15.12,15.12,0,0,0-.24-2.12c-.14-.64-.18-1.19-.31-1.65-.25-.91-.28-1.37-.37-1.37s.41,1.92.64,5.07a43.13,43.13,0,0,1,0,5.57,53.43,53.43,0,0,1-1.08,6.76,35.83,35.83,0,0,1-2.23,6.39,39.4,39.4,0,0,1-2.71,4.93c-1.67,2.63-3.05,4.12-2.95,4.21S299.6,222.36,300.31,221.85Z"/><path class="cls-15" d="M301.68,213.85a8.32,8.32,0,0,0,.59-3.38,16.76,16.76,0,0,0-1.07,3.23,16.8,16.8,0,0,0-1,3.32C300.43,217.1,301.17,215.75,301.68,213.85Z"/><path class="cls-15" d="M297.19,214.74a19.2,19.2,0,0,0,1-6c-.19,0-.55,2.74-1.43,5.86s-2,5.54-1.92,5.62S296.3,217.87,297.19,214.74Z"/><path class="cls-15" d="M286.21,209.38a5,5,0,0,0,.93-2.66,12.86,12.86,0,0,0-1.31,2.41c-.65,1.35-1.41,2.33-1.32,2.42A4.72,4.72,0,0,0,286.21,209.38Z"/><path class="cls-15" d="M268.75,215.68a12.7,12.7,0,0,1,1.94-3.94,12.19,12.19,0,0,1,3.22-3,10.41,10.41,0,0,0,1.59-1.05,4,4,0,0,0-1.8.69,11.25,11.25,0,0,0-3.41,3,11.8,11.8,0,0,0-1.93,4.14c-.28,1.22-.23,2-.13,2S268.37,216.83,268.75,215.68Z"/><path class="cls-15" d="M266.07,209.47a25.6,25.6,0,0,0,2.63-2.14,7,7,0,0,0-2.94,1.79,6.78,6.78,0,0,0-2.12,2.76C263.76,212.05,264.77,210.86,266.07,209.47Z"/><path class="cls-15" d="M274.32,215.63a15.78,15.78,0,0,1,2.41-5.09,18,18,0,0,1,3.89-4c1.24-.83,2.05-1.26,1.95-1.35s-.91.25-2.15,1.09a14.83,14.83,0,0,0-4.08,4,14.32,14.32,0,0,0-2.31,5.27,6.16,6.16,0,0,0-.2,2.34S274,217.07,274.32,215.63Z"/><path class="cls-15" d="M269.25,199.58a6.1,6.1,0,0,1-2.37-2,4.94,4.94,0,0,1-.78-3c.13-.75.29-1.23.19-1.32a2.49,2.49,0,0,0-.47,1.25,4.76,4.76,0,0,0,.7,3.2,5.36,5.36,0,0,0,2.74,1.93c.84.13,1.4.09,1.39,0S270.08,199.52,269.25,199.58Z"/><path class="cls-15" d="M271.88,198.65a3.91,3.91,0,0,1-2.22-1.05,4.09,4.09,0,0,1-1.27-2.23c-.14-.64-.08-1-.18-1.1s-.15.38-.1,1.12a4.24,4.24,0,0,0,1.2,2.51,4.74,4.74,0,0,0,2.59,1c.83,0,1.2-.08,1.19-.18S272.62,198.69,271.88,198.65Z"/><path class="cls-15" d="M276.36,196.46a4.88,4.88,0,0,1-2.31.08,3.39,3.39,0,0,1-1.86-1.26c-.32-.53-.35-.9-.44-.9a1.28,1.28,0,0,0,.17,1,3.27,3.27,0,0,0,2.06,1.53,4.11,4.11,0,0,0,2.59-.19c.63-.23,1-.45,1-.54Z"/></g></svg>