<svg width="25" height="25" viewBox="0 0 25 25" fill="none" xmlns="http://www.w3.org/2000/svg">
<path d="M20.9537 6.1472C20.8691 6.03493 20.7787 5.92714 20.6829 5.82428C20.7793 5.56745 20.8525 5.3025 20.9016 5.03262C21.0468 4.04532 20.9207 3.03714 20.537 2.11595C20.537 2.11595 19.3704 1.75137 16.6933 3.55345C15.5567 3.23963 14.3828 3.08194 13.2037 3.0847C12.0213 3.08263 10.8439 3.24031 9.70371 3.55345C7.02662 1.73053 5.85996 2.11595 5.85996 2.11595C5.48089 3.0274 5.35494 4.02428 5.49537 5.00137C5.5448 5.28248 5.62156 5.55809 5.72454 5.82428C5.63079 5.92845 5.53704 6.04303 5.45371 6.1472C4.67638 7.12221 4.26376 8.33797 4.28704 9.5847C4.28457 9.88038 4.29848 10.176 4.32871 10.4701C4.66198 15.0847 7.73496 16.1576 10.662 16.491C10.2477 16.8762 9.9668 17.3833 9.85996 17.9389C9.76314 18.3094 9.71757 18.6914 9.72454 19.0743V20.4384C8.55973 20.5419 7.36362 20.3724 6.99309 19.3329C6.59476 18.3381 5.93441 17.4698 5.08219 16.8202C5.02025 16.7864 4.96135 16.7472 4.90614 16.7033C4.83131 16.5064 4.69865 16.3369 4.52562 16.2168C4.35259 16.0968 4.14728 16.032 3.93671 16.0309H3.9317C3.65628 16.0308 3.39204 16.1398 3.19681 16.334C3.00159 16.5283 2.89128 16.792 2.89003 17.0674C2.88597 17.9138 3.73283 18.4601 4.08022 18.6462C4.48535 19.0544 4.81129 19.5342 5.04152 20.0612C5.42096 21.1273 6.53027 22.7468 9.69342 22.5362C9.69446 22.5728 9.6955 22.6074 9.69597 22.639L9.70054 22.9177C9.7005 23.0545 9.72742 23.19 9.77976 23.3164C9.8321 23.4427 9.90882 23.5576 10.0056 23.6543C10.1023 23.7511 10.2171 23.8278 10.3435 23.8801C10.4699 23.9325 10.6054 23.9594 10.7422 23.9593L10.7454 23.9587V23.9594H15.6529C15.7897 23.9594 15.9251 23.9325 16.0515 23.8802C16.1779 23.8278 16.2928 23.7511 16.3895 23.6544C16.4862 23.5576 16.563 23.4428 16.6153 23.3164C16.6676 23.19 16.6946 23.0545 16.6945 22.9177C16.6945 22.9177 16.7022 19.6264 16.7022 19.0743C16.7091 18.6915 16.6635 18.3094 16.5667 17.9389L16.5648 17.9326L16.5683 17.9389C16.5594 17.9025 16.5457 17.8727 16.5359 17.8374C16.4196 17.3214 16.1509 16.8523 15.7646 16.4909L15.7767 16.5127C15.7696 16.5063 15.7629 16.4972 15.7558 16.4909C18.6829 16.1576 21.7349 15.0639 22.0683 10.4701C22.0985 10.176 22.1124 9.88037 22.1099 9.58469C22.1284 8.34044 21.7203 7.12738 20.9537 6.1472V6.1472Z" fill="black" fill-opacity="0.3"/>
</svg>
