<svg width="24" height="24" fill="none" xmlns="http://www.w3.org/2000/svg"><path d="M12 6.865a5.135 5.135 0 1 0 0 10.27 5.135 5.135 0 0 0 0-10.27Zm0 8.469a3.334 3.334 0 1 1 0-6.668 3.334 3.334 0 0 1 0 6.668Z" fill="#fff"/><path d="M21.94 7.877a7.334 7.334 0 0 0-.465-2.427 4.92 4.92 0 0 0-1.153-1.772 4.894 4.894 0 0 0-1.77-1.153 7.323 7.323 0 0 0-2.428-.464C15.058 2.012 14.717 2 12.001 2c-2.715 0-3.057.011-4.123.06-.83.017-1.65.174-2.428.465A4.905 4.905 0 0 0 3.68 3.678c-.51.5-.903 1.104-1.154 1.772a7.333 7.333 0 0 0-.464 2.427c-.05 1.066-.06 1.407-.06 4.123s.01 3.056.06 4.123c.016.83.173 1.65.464 2.427.251.668.645 1.272 1.154 1.771.5.509 1.104.902 1.771 1.154a7.337 7.337 0 0 0 2.428.464C8.944 21.988 9.285 22 12 22c2.716 0 3.057-.011 4.123-.06a7.33 7.33 0 0 0 2.427-.465 5.111 5.111 0 0 0 2.925-2.925 7.316 7.316 0 0 0 .465-2.427c.048-1.067.06-1.407.06-4.123s-.012-3.057-.06-4.123Zm-1.8 8.164a5.547 5.547 0 0 1-.343 1.857 3.31 3.31 0 0 1-1.898 1.898 5.52 5.52 0 0 1-1.858.344c-1.054.048-1.37.058-4.04.058-2.671 0-2.987-.01-4.04-.058a5.524 5.524 0 0 1-1.858-.344 3.106 3.106 0 0 1-1.15-.748 3.085 3.085 0 0 1-.748-1.15 5.52 5.52 0 0 1-.344-1.857c-.049-1.054-.058-1.37-.058-4.04 0-2.671.01-2.987.058-4.042a5.563 5.563 0 0 1 .344-1.857c.16-.434.416-.827.748-1.15a3.082 3.082 0 0 1 1.15-.748A5.523 5.523 0 0 1 7.96 3.86C9.014 3.81 9.331 3.8 12 3.8c2.67 0 2.986.011 4.041.059a5.564 5.564 0 0 1 1.858.344 3.31 3.31 0 0 1 1.898 1.898c.22.595.337 1.223.344 1.857.048 1.055.058 1.37.058 4.041 0 2.67-.01 2.986-.058 4.041Z" fill="#fff"/><path d="M17.339 5.462a1.2 1.2 0 1 0 0 2.4 1.2 1.2 0 0 0 0-2.4Z" fill="#fff"/></svg>