<svg width="24" height="16" fill="none" xmlns="http://www.w3.org/2000/svg"><path fill-rule="evenodd" clip-rule="evenodd" d="M1.166 15.548 7.749 8.73l1.593 1.604a3.898 3.898 0 0 0 5.54 0l1.441-1.451 6.443 6.672c-.103.022-.21.033-.319.033H1.522c-.123 0-.242-.015-.356-.041ZM23.959 1.195c.027.115.041.235.041.358v12.483c0 .4-.152.766-.4 1.041l-6.62-6.854 6.978-7.028ZM0 14.345V1.864c0-.27.069-.523.19-.744l6.902 6.95-6.744 6.984A1.548 1.548 0 0 1 0 14.345ZM23.437.357 14.233 9.56a3.105 3.105 0 0 1-4.392 0L.59.31C.848.116 1.171 0 1.52 0h20.926c.361 0 .712.126.99.357Z" fill="#fff"/></svg>