<svg width="24" height="24" fill="none" xmlns="http://www.w3.org/2000/svg"><g clip-path="url(#a)"><path d="M11.742 18.039h1.434s.434-.048.654-.287c.204-.218.197-.63.197-.63s-.029-1.924.865-2.207c.88-.28 2.012 1.86 3.21 2.683.906.623 1.595.486 1.595.486l3.205-.045s1.677-.104.882-1.422c-.064-.108-.463-.975-2.383-2.757-2.01-1.866-1.74-1.563.68-4.79 1.475-1.965 2.064-3.165 1.88-3.678-.175-.489-1.26-.36-1.26-.36l-3.606.021s-.267-.035-.466.083c-.194.117-.319.387-.319.387s-.571 1.521-1.333 2.814c-1.607 2.729-2.25 2.873-2.513 2.703-.61-.394-.457-1.587-.457-2.433 0-2.644.4-3.747-.781-4.032-.394-.095-.682-.157-1.685-.168-1.287-.013-2.378.005-2.994.306-.411.201-.728.65-.534.675.238.032.778.146 1.065.535.37.503.357 1.634.357 1.634s.213 3.112-.497 3.5c-.487.265-1.155-.277-2.587-2.753-.734-1.268-1.289-2.67-1.289-2.67s-.106-.261-.297-.4c-.23-.17-.555-.224-.555-.224l-3.429.021s-.514.015-.703.239c-.168.199-.014.61-.014.61s2.685 6.28 5.724 9.447c2.789 2.903 5.954 2.712 5.954 2.712Z" fill="#fff"/></g><defs><clipPath id="a"><path fill="#fff" d="M0 0h24v24H0z"/></clipPath></defs></svg>