<svg xmlns="http://www.w3.org/2000/svg" viewBox="0 0 471.07 337.72"><defs><style>.cls-1{fill:#c9ccd6;}.cls-2{fill:#e1e1e1;}.cls-3{fill:#212121;}.cls-4{fill:#6896ef;}.cls-5{fill:#fafafa;}.cls-6{fill:#375a64;}.cls-7{fill:#ececec;}.cls-8{fill:#3696e6;}.cls-9{fill:#a8a8a8;}.cls-10{fill:#233554;stroke:#375a64;stroke-miterlimit:10;stroke-width:0.5px;}.cls-11{fill:#fff;}.cls-12{fill:#ffc19d;}.cls-13{fill:#161616;}.cls-14{fill:#455a64;}.cls-15{fill:#4b98f2;}.cls-16{fill:#1a2e35;}.cls-17{fill:#ff9c6a;}.cls-18{fill:#dd4e4e;}.cls-19{fill:#dcdcdc;}.cls-20{fill:#2c6da3;}.cls-21{fill:#3678ba;}</style></defs><g id="главный_экран" data-name="главный экран"><path class="cls-1" d="M50.11,79.72h376.3a3.69,3.69,0,0,1,2.4,1,3.49,3.49,0,0,1,1,2.4v243.1a7.54,7.54,0,0,1-2.1,5.1,7.36,7.36,0,0,1-5.1,2.1H53.51a7.54,7.54,0,0,1-5.1-2.1,7.36,7.36,0,0,1-2.1-5.1h0V83.52a3.76,3.76,0,0,1,3.8-3.8Z"/><path class="cls-2" d="M89.81,94.72a4.87,4.87,0,0,1-1.2.1l-3.3.1c-2.8,0-6.6.1-10.8.1s-8,0-10.8-.1l-3.2-.1a4.87,4.87,0,0,1-1.2-.1,4.87,4.87,0,0,1,1.2-.1l3.3-.1c2.8,0,6.6-.1,10.8-.1s8,0,10.8.1l3.3.1C89,94.62,89.41,94.72,89.81,94.72Z"/><path class="cls-2" d="M116.21,109.52h-13.9v13.9h13.9Z"/><path class="cls-3" d="M418.91,91.62H57.11v214.2h361.8Z"/><path class="cls-4" d="M233.31,210.32c0,.2-12.1.3-26.9.3s-26.9-.1-26.9-.3,12-.3,26.9-.3S233.31,210.12,233.31,210.32Z"/><path class="cls-5" d="M141.81,261.82c0,.2-6.4.3-14.4.3s-14.4-.1-14.4-.3,6.4-.3,14.4-.3S141.81,261.62,141.81,261.82Z"/><path class="cls-2" d="M334,261.82c0,.2-17.8.3-39.7.3s-39.7-.1-39.7-.3,17.8-.3,39.7-.3S334,261.62,334,261.82Z"/><path class="cls-5" d="M300.31,238.32c0,.2-17.8.3-39.7.3s-39.7-.1-39.7-.3,17.8-.3,39.7-.3S300.31,238.12,300.31,238.32Z"/><path class="cls-6" d="M344.11,250.12c0,.2-27.6.3-61.6.3s-61.6-.2-61.6-.3,27.6-.3,61.6-.3S344.11,249.92,344.11,250.12Z"/><path class="cls-2" d="M206,238.32c0,.2-17.8.3-39.7.3s-39.7-.1-39.7-.3,17.8-.3,39.7-.3S206,238.12,206,238.32Z"/><path class="cls-2" d="M206,250.12c0,.2-17.8.3-39.7.3s-39.7-.1-39.7-.3,17.8-.3,39.7-.3S206,249.92,206,250.12Z"/><path class="cls-2" d="M229.81,226.62c0,.2-12.1.3-26.9.3s-26.9-.1-26.9-.3,12-.3,26.9-.3S229.81,226.42,229.81,226.62Z"/><path class="cls-2" d="M237.11,179.72c0,.2-17.8.3-39.7.3s-39.7-.1-39.7-.3,17.8-.3,39.7-.3S237.11,179.52,237.11,179.72Z"/><path class="cls-2" d="M260.61,203.22c0,.2-17.8.3-39.7.3s-39.7-.1-39.7-.3,17.8-.3,39.7-.3S260.61,203,260.61,203.22Z"/><rect class="cls-6" x="71" y="283.85" width="7" height="2.67"/><rect class="cls-6" x="71" y="110" width="7" height="2.67"/><rect class="cls-6" x="71" y="123.85" width="7" height="2.67"/><rect class="cls-6" x="71" y="136.7" width="7" height="2.67"/><rect class="cls-6" x="71" y="149.54" width="7" height="2.67"/><rect class="cls-6" x="71" y="163" width="7" height="2.67"/><rect class="cls-6" x="71" y="176.85" width="7" height="2.67"/><rect class="cls-6" x="71" y="189.7" width="7" height="2.67"/><rect class="cls-6" x="71" y="202.54" width="7" height="2.67"/><rect class="cls-6" x="71" y="217" width="7" height="2.67"/><rect class="cls-6" x="71" y="230.85" width="7" height="2.67"/><rect class="cls-6" x="71" y="243.7" width="7" height="2.67"/><rect class="cls-6" x="71" y="256.54" width="7" height="2.67"/><rect class="cls-6" x="71" y="270" width="7" height="2.67"/><rect class="cls-7" x="322.41" y="152.17" width="62.59" height="1.63"/><rect class="cls-8" x="309" y="152.17" width="10" height="1.63"/><rect class="cls-7" x="302" y="152.17" width="4" height="1.63"/><rect class="cls-7" x="302" y="159.17" width="4" height="1.63"/><rect class="cls-9" x="309" y="159.17" width="43" height="1.63"/><rect class="cls-8" x="356" y="159.17" width="16" height="1.63"/><rect class="cls-7" x="317" y="166.17" width="25" height="1.63"/><rect class="cls-9" x="309" y="166.2" width="4.44" height="1.81"/><rect class="cls-9" x="302" y="180.2" width="4" height="1.81"/><rect class="cls-7" x="317" y="172.17" width="13" height="1.63"/><rect class="cls-7" x="309" y="172.2" width="4.44" height="1.81"/><rect class="cls-8" x="351.06" y="200.28" width="12" height="1.63"/><rect class="cls-7" x="99.94" y="158.82" width="43.54" height="1.63"/><rect class="cls-8" x="148.94" y="158.82" width="19.06" height="1.63"/><rect class="cls-7" x="85.05" y="158.82" width="11.46" height="1.63"/><rect class="cls-8" x="85.05" y="165.82" width="48.57" height="1.63"/><rect class="cls-7" x="85.22" y="171.82" width="28.65" height="1.63"/><rect class="cls-7" x="118.45" y="171.82" width="10.31" height="1.63"/><rect class="cls-7" x="85.22" y="152.82" width="28.65" height="1.63"/><rect class="cls-7" x="118.45" y="152.82" width="10.31" height="1.63"/><rect class="cls-7" x="85.22" y="177.82" width="14.9" height="1.63"/><rect class="cls-7" x="85.22" y="145.82" width="14.9" height="1.63"/><rect class="cls-7" x="85.22" y="227.82" width="28.65" height="1.63"/><rect class="cls-7" x="118.45" y="227.82" width="10.31" height="1.63"/><rect class="cls-7" x="85.22" y="233.82" width="14.9" height="1.63"/><rect class="cls-7" x="84.76" y="207.86" width="40.11" height="1.81"/><rect class="cls-7" x="85.05" y="213.93" width="57.37" height="1.63"/><rect class="cls-7" x="85.05" y="219.93" width="43.62" height="1.63"/><rect class="cls-8" x="138.25" y="206.93" width="13.75" height="1.63"/></g><g id="экран_1" data-name="экран 1"><path class="cls-10" d="M298.46,38h150v92.91H322.15l-7.82,18-6.9-18h-9V38Z"/><path class="cls-6" d="M298.54,47.05c0,.07,33.5.23,74.82.23s74.82-.08,74.82-.23-33.5-.23-74.82-.23S298.54,47,298.54,47.05Z"/><path class="cls-8" d="M308.49,42.49a1.75,1.75,0,0,1-.32,1,1.48,1.48,0,0,1-.75.64,1.53,1.53,0,0,1-1,.11,2.2,2.2,0,0,1-.85-.43,1.31,1.31,0,0,1-.42-.85,1.53,1.53,0,0,1,.1-1,1.48,1.48,0,0,1,.64-.75,1.75,1.75,0,0,1,1-.32,1.71,1.71,0,0,1,1.17.54,1.24,1.24,0,0,1,.43,1.06Z"/><path class="cls-6" d="M314.66,42.49a1.73,1.73,0,0,1-.31,1,1.48,1.48,0,0,1-.75.64,1.53,1.53,0,0,1-1,.11,2.2,2.2,0,0,1-.85-.43,1.32,1.32,0,0,1-.43-.85,1.53,1.53,0,0,1,.11-1,1.48,1.48,0,0,1,.64-.75,1.75,1.75,0,0,1,1-.32,1.73,1.73,0,0,1,1.17.54A1.42,1.42,0,0,1,314.66,42.49Z"/><path class="cls-6" d="M320.84,42.49a1.67,1.67,0,0,1-.32,1,1.42,1.42,0,0,1-.74.64,1.53,1.53,0,0,1-1,.11,2.2,2.2,0,0,1-.85-.43,1.28,1.28,0,0,1-.43-.85,1.46,1.46,0,0,1,.11-1,1.44,1.44,0,0,1,.64-.75,1.75,1.75,0,0,1,1-.32,1.73,1.73,0,0,1,1.17.54,1.24,1.24,0,0,1,.42,1.06Z"/><path class="cls-11" d="M318,63.68l-3.52,1.38L318,66.44v.84l-4.44-1.76v-.84L318,62.91Z"/><path class="cls-11" d="M321.8,60.15h.84l-3.29,9.43h-.85Z"/><path class="cls-11" d="M327.47,64.6v.92L323,67.28v-.84l3.6-1.38L323,63.68v-.84Z"/><path class="cls-11" d="M328.62,67.9a.26.26,0,0,1,.08-.23c0-.08.08-.16.15-.23s.16-.08.23-.16.16-.07.23-.07h0a.29.29,0,0,1,.23.07c.08,0,.16.08.23.16s.08.15.16.23.07.15.07.23h0a.31.31,0,0,1-.07.23c0,.07-.08.15-.16.23s-.15.15-.23.15-.15.08-.23.08h0a.28.28,0,0,1-.23-.08c-.07,0-.15-.08-.23-.15s-.07-.16-.15-.23-.08-.08-.08-.23Z"/><path class="cls-11" d="M330.85,67.9a.29.29,0,0,1,.07-.23c0-.08.08-.16.16-.23s.15-.08.23-.16.15-.07.23-.07h0a.31.31,0,0,1,.23.07c.07,0,.15.08.23.16s.07.15.15.23.08.15.08.23h0a.28.28,0,0,1-.08.23c0,.07-.08.15-.15.23s-.16.15-.23.15-.16.08-.23.08h0a.26.26,0,0,1-.23-.08c-.08,0-.16-.08-.23-.15s-.08-.16-.16-.23a.36.36,0,0,1-.07-.23Z"/><path class="cls-11" d="M333.15,67.9a.29.29,0,0,1,.07-.23c0-.08.08-.16.16-.23s.15-.08.23-.16.15-.07.23-.07h0a.31.31,0,0,1,.23.07c.07,0,.15.08.23.16s.07.15.15.23.08.15.08.23h0a.28.28,0,0,1-.08.23c0,.07-.08.15-.15.23s-.16.15-.23.15-.16.08-.23.08h0a.26.26,0,0,1-.23-.08c-.08,0-.16-.08-.23-.15s-.08-.16-.16-.23-.07-.08-.07-.23Z"/><rect class="cls-7" x="314.29" y="112.25" width="5.08" height="1.25" transform="translate(633.66 225.75) rotate(-180)"/><rect class="cls-9" x="320.91" y="112.25" width="9.72" height="1.25" transform="translate(651.53 225.75) rotate(-180)"/><rect class="cls-8" x="332.69" y="112.25" width="19" height="1.25" transform="translate(684.38 225.75) rotate(-180)"/><rect class="cls-8" x="314.11" y="76.42" width="29.89" height="1.25"/><rect class="cls-7" x="401.83" y="76.42" width="19.16" height="1.25"/><rect class="cls-7" x="314.11" y="81.79" width="7.67" height="1.25"/><rect class="cls-7" x="325.61" y="81.79" width="7.67" height="1.25"/><rect class="cls-7" x="314.11" y="86.39" width="25.3" height="1.25"/><rect class="cls-9" x="370.07" y="86.39" width="25.3" height="1.25"/><rect class="cls-9" x="349.07" y="76.39" width="11.93" height="1.25"/><rect class="cls-7" x="365.07" y="76.39" width="32.93" height="1.25"/><rect class="cls-7" x="314.11" y="90.99" width="13.03" height="1.25"/><rect class="cls-7" x="314.11" y="95.59" width="25.3" height="1.25"/><rect class="cls-7" x="314.11" y="100.19" width="6.9" height="1.25"/><rect class="cls-7" x="398.43" y="86.39" width="6.13" height="1.25"/></g><g id="тело"><path class="cls-12" d="M205.91,85.52l5.1,85.9c.9,14.6,5.1,35.9,28.2,33.5,19.8-3.6,23.8-22.9,22.9-36.6-.4-6.5-.7-11.9-.7-12.5h0c18.5-6.9,20.8-17.6,21.6-41.3.1-10.5-.9-16-2.4-35.6a40.39,40.39,0,0,0-12.9-26.5,41.08,41.08,0,0,0-27.4-10.8h-2.1C215.51,43,204,62.92,205.91,85.52Z"/><path class="cls-13" d="M259,43.62c-7.9-3-15.8-5.1-25.8-3.7-7.6,1.1-13.3,4.6-18.8,8-20.4,11.9-7.3,50.8-7.3,50.8s-3.9-10.1,3.7-15.9c7.4-5.6,5.5-13.7,13.8-18.4,9.7-5.4,18.5-4.6,30.1,1C267.21,55.62,274,60,277,65,274,52,267.31,46.92,259,43.62Z"/><path class="cls-14" d="M259,43.62a65.06,65.06,0,0,0-12.24-3.5,43.19,43.19,0,0,0-12.69-.27A35.76,35.76,0,0,0,222,43.61c-1.9,1-3.74,2-5.55,3.13-.9.56-1.83,1.1-2.7,1.69a15.15,15.15,0,0,0-1.31.9l-1.23,1a22.51,22.51,0,0,0-4,4.9,29.44,29.44,0,0,0-2.5,5.83,39.11,39.11,0,0,0-1.27,6.23,56.19,56.19,0,0,0-.36,6.35,78,78,0,0,0,1.18,12.67,93.6,93.6,0,0,0,3,12.37l-.21.07a17.26,17.26,0,0,1-.69-9,12.11,12.11,0,0,1,4.9-7.45,18.7,18.7,0,0,0,5.21-7.22c.64-1.36,1.22-2.76,1.92-4.1a18.4,18.4,0,0,1,2.54-3.76,20.17,20.17,0,0,1,7.65-4.78,25.56,25.56,0,0,1,8.85-1.77c6.1-.06,12,2.06,17.35,4.67h-.06a38.58,38.58,0,0,1,5.39-3.55,18.68,18.68,0,0,1,6.06-2.15,10.25,10.25,0,0,1,6.31.88A11.44,11.44,0,0,1,277,65L277,65a41.18,41.18,0,0,0-2.26-7A26.11,26.11,0,0,0,271,51.81,24.17,24.17,0,0,0,265.52,47,36.32,36.32,0,0,0,259,43.62Zm0,0a37,37,0,0,1,6.52,3.31A24.49,24.49,0,0,1,271,51.79,26.51,26.51,0,0,1,274.76,58,41.51,41.51,0,0,1,277,65l.05.2L277,65a11.38,11.38,0,0,0-4.58-4.39,10.13,10.13,0,0,0-6.25-.86,18.31,18.31,0,0,0-6,2.16,38,38,0,0,0-5.37,3.54l0,0h0c-5.4-2.6-11.24-4.7-17.3-4.62a25.47,25.47,0,0,0-8.79,1.78A20,20,0,0,0,221,67.38a18.36,18.36,0,0,0-2.5,3.72c-.7,1.34-1.27,2.74-1.91,4.1a19,19,0,0,1-5.26,7.32,12,12,0,0,0-4.82,7.31,17.08,17.08,0,0,0,.67,8.85l-.21.08a92.55,92.55,0,0,1-3-12.41,77.19,77.19,0,0,1-1.15-12.7,54.42,54.42,0,0,1,.37-6.37A39.4,39.4,0,0,1,204.55,61a28.58,28.58,0,0,1,2.53-5.85,22,22,0,0,1,4-4.92l1.23-1c.41-.33.88-.59,1.32-.89.88-.6,1.8-1.13,2.71-1.69,1.81-1.1,3.66-2.17,5.56-3.12a36,36,0,0,1,12.13-3.75,43.32,43.32,0,0,1,12.71.3A65.26,65.26,0,0,1,259,43.62Z"/><path class="cls-13" d="M220.5,44.5c1.7-3.7-1.49-6.88-5.29-8.48s-8.3-.2-11.1,2.7A10.88,10.88,0,0,0,201.5,49.5c.9,2.6,3.5,6.9,7,4"/><path class="cls-14" d="M220.5,44.5a4.64,4.64,0,0,0,.35-2.72,5.44,5.44,0,0,0-1.2-2.44,11.35,11.35,0,0,0-4.48-3.12,10.06,10.06,0,0,0-10.2,2,10.89,10.89,0,0,0-3.63,9.85,9.26,9.26,0,0,0,.84,2.61A9.69,9.69,0,0,0,203.65,53a3.84,3.84,0,0,0,2.3,1.36,3.54,3.54,0,0,0,2.55-.89,3.59,3.59,0,0,1-2.56,1,4,4,0,0,1-2.47-1.32,10.78,10.78,0,0,1-2.5-5,11.18,11.18,0,0,1,3.68-10.29,11.29,11.29,0,0,1,5.06-2.51,9.07,9.07,0,0,1,5.61.49,11.67,11.67,0,0,1,4.52,3.33A5.57,5.57,0,0,1,221,41.76,4.79,4.79,0,0,1,220.5,44.5Z"/><path class="cls-14" d="M202.21,43.32a.69.69,0,0,0,0,.5,3.88,3.88,0,0,0,.6,1.4,9.28,9.28,0,0,0,4.1,2.8,6.72,6.72,0,0,0,2.8.3,6.65,6.65,0,0,0,2.2-.4,6.45,6.45,0,0,0,1.4-.6,3,3,0,0,0,.4-.3c0-.1-.8.3-1.9.6a7.32,7.32,0,0,1-2.2.3,13.12,13.12,0,0,1-2.7-.3,9.08,9.08,0,0,1-4.1-2.6A3.37,3.37,0,0,1,202.21,43.32Z"/><path class="cls-14" d="M204.31,38.82a1.75,1.75,0,0,0,.1.5,7.26,7.26,0,0,0,.6,1.4,8.75,8.75,0,0,0,3.4,3.6,9.51,9.51,0,0,0,4.7,1.5,6.62,6.62,0,0,0,1.5-.1,2.81,2.81,0,0,1,.5-.1c0-.1-.8.1-2-.1a9.45,9.45,0,0,1-4.5-1.6,10.44,10.44,0,0,1-3.3-3.4A5.51,5.51,0,0,1,204.31,38.82Z"/><path class="cls-15" d="M207.61,54.42a10.15,10.15,0,0,0,1.4-1.9,22.3,22.3,0,0,1,4.1-3.9,53.31,53.31,0,0,1,4.8-3.1,9,9,0,0,0,2.2-1.1,14.49,14.49,0,0,0-2.3.8,19,19,0,0,0-4.9,3,21.55,21.55,0,0,0-4,4.1A9.29,9.29,0,0,0,207.61,54.42Z"/><path class="cls-14" d="M256.31,57.82a35.73,35.73,0,0,0-3-3.8c-1.1-1.2-2.2-2.4-3.3-3.4a35.29,35.29,0,0,0-7.7-5.6,26.22,26.22,0,0,0-9.1-2.9,19.28,19.28,0,0,0-4.8,0,18.76,18.76,0,0,0-4.7,1,20.54,20.54,0,0,1,9.5-1.3,23.87,23.87,0,0,1,9.3,2.8,36.78,36.78,0,0,1,7.8,5.8A38.89,38.89,0,0,1,256.31,57.82Z"/><path class="cls-14" d="M243.11,51.42a22.11,22.11,0,0,0-3.4-1.8,21.69,21.69,0,0,0-3.5-1.5,26.71,26.71,0,0,0-7.4-1.8,24.13,24.13,0,0,0-3.8-.1,22,22,0,0,0-3.7.6,17.3,17.3,0,0,0-6.6,3.7,13.76,13.76,0,0,1,3-2.4,12.25,12.25,0,0,1,3.5-1.6,20,20,0,0,1,7.7-.7,26.11,26.11,0,0,1,7.4,2A29.55,29.55,0,0,1,243.11,51.42Z"/><path class="cls-14" d="M258.31,57.82a11.52,11.52,0,0,0-1.2-8.7,15.82,15.82,0,0,0-2.9-3.4c-.6-.5-1.2-.9-1.8-1.4a21.41,21.41,0,0,1-1.9-1.3,12.81,12.81,0,0,1,2,1.1,21.41,21.41,0,0,1,1.9,1.3,16.73,16.73,0,0,1,3.1,3.4,9.52,9.52,0,0,1,1.4,4.4A8.77,8.77,0,0,1,258.31,57.82Z"/><path class="cls-14" d="M252.71,59.82a15.28,15.28,0,0,0-4.6-3.4,9.53,9.53,0,0,0-5.5-1,10.63,10.63,0,0,0-5.1,2.2,38.47,38.47,0,0,0-4.1,4,22.74,22.74,0,0,1-4.5,3.7,12.87,12.87,0,0,1-5.4,2.2,12.65,12.65,0,0,1-5.8-.2,25,25,0,0,1-5.3-2.3,31.84,31.84,0,0,0,5.4,2.1,12.21,12.21,0,0,0,5.7.1c3.7-.8,6.9-3.2,9.6-6a31.76,31.76,0,0,1,4.1-4.1,9.91,9.91,0,0,1,5.4-2.2,10.33,10.33,0,0,1,5.7,1.2A22.16,22.16,0,0,1,252.71,59.82Z"/><path class="cls-14" d="M225,51.82a5.06,5.06,0,0,0-1.7.4,10,10,0,0,0-3.5,2.2,9.29,9.29,0,0,0-2.3,3.4c-.4,1-.5,1.6-.4,1.7a6.9,6.9,0,0,0,.7-1.5,11.41,11.41,0,0,1,2.3-3.2,11.09,11.09,0,0,1,3.3-2.2C224.31,52,225,51.92,225,51.82Z"/><path class="cls-14" d="M263.21,56.82a6.07,6.07,0,0,0,1.4-2.7,5.87,5.87,0,0,0,.3-3,29.51,29.51,0,0,0-.7,2.9A26.71,26.71,0,0,0,263.21,56.82Z"/><path class="cls-12" d="M217.61,86.82c2.7-2.1,1.4-7.6,1.9-10.3-13.4,3.6-16.3-8.8-16.3-8.8-2.6,15.3,4,32.4,4,32.4A33.35,33.35,0,0,1,217.61,86.82Z"/><path class="cls-12" d="M273,167.92l-12.5-4.6-47.6-1.4-11.1,3,1.4,26.9,25,15.9,24.3-.5,15.3-13.9,3.4-13.8Z"/><path class="cls-15" d="M131.71,209.22a172.5,172.5,0,0,1,10-17.8,41.4,41.4,0,0,1,25.7-18.1l40-10.8s2.7,27,30.2,27,28-25,28-25l50.3,18.4c1.6.6,12.3,4.3,24.8,31.1,11.9,25.5,17.1,38.5,17.1,38.5l-47.5,12.8-3.2,43.9,1,24.5-144.6-.3.8-28-.7-46.3-3,5.7-45.2-18.1C115.51,246.62,120,233.32,131.71,209.22Z"/><path class="cls-16" d="M163,235.12c-.2,0-.1,15.5.3,34.6s.8,34.6,1.1,34.6.1-15.5-.3-34.6S163.21,235.12,163,235.12Z"/><path class="cls-16" d="M312.21,219.42V222c0,1.6,0,4-.1,6.9-.1,5.8-.5,13.9-.9,22.8s-1.1,17-1.5,22.8q-.3,4.35-.6,6.9c-.1.8-.1,1.4-.2,1.9a2,2,0,0,1-.1.7v-.7c0-.5.1-1.1.1-1.9.1-1.7.2-4,.4-6.9.4-5.9.8-13.9,1.4-22.8s.9-17,1.1-22.8q.15-4.35.3-6.9c0-.8.1-1.4.1-1.9v-.7Z"/><path class="cls-12" d="M355.11,253.22l17.9,39.4a28.33,28.33,0,0,1,3,14h0a28.37,28.37,0,0,1-28.4,27l-55.6-3.2-2.4-25.3,42.3-10.2s-12.3-10-16.4-31Z"/><path class="cls-12" d="M116.21,247s-10.4,29.2-23.5,61.7a7.62,7.62,0,0,0-.6,2c-2,8.8,4.7,23.5,13.7,23.5l75.2-.7v-24.6l-43.4-9.5s12-8.8,20.1-35.8Z"/><path class="cls-15" d="M207.31,162.52a6.48,6.48,0,0,1,3.2.1l-3.1.8Z"/><path class="cls-15" d="M265.61,164.52a20.13,20.13,0,0,0-3.7-.7l3.7,1.4Z"/><path class="cls-17" d="M261.41,155.82s-13.7.8-28.3-8.4c0,0,6.9,15.9,28.6,13.9Z"/></g><g id="ноутбук"><path class="cls-16" d="M182.31,334.32H182a2.77,2.77,0,0,1-.9-.1,6.33,6.33,0,0,1-3.2-1.5,6.58,6.58,0,0,1-1.7-2.3,7.06,7.06,0,0,1-.6-2.8c-.1-2.3-.2-4.9-.4-7.9-.5-11.9-1.2-29.1-2.1-50.4-.2-5.3-.5-10.9-.7-16.7-.1-2.9-.2-5.9-.4-8.9,0-.8-.1-1.5-.1-2.3a8.56,8.56,0,0,1,.5-2.3,6.79,6.79,0,0,1,5.5-4.1,19.22,19.22,0,0,1,2.4,0h129.8a8.08,8.08,0,0,1,3.1.5,6.77,6.77,0,0,1,2.6,1.8,9.19,9.19,0,0,1,1.6,2.7,7.69,7.69,0,0,1,.3,3l-.1,3c-.1,2-.2,4-.3,5.9-.3,7.9-.7,15.7-1,23.4-.7,15.3-1.3,30.1-1.9,44.1-.1,1.8-.2,3.5-.2,5.2,0,.9-.1,1.7-.1,2.6a10.9,10.9,0,0,1-.3,2.6,6.67,6.67,0,0,1-2.2,3.3,6.94,6.94,0,0,1-3.6,1.6c-.9.1-1.7,0-2.5.1h-54.2l-50.4-.1-13.7-.1h-3.6a4.77,4.77,0,0,0-1.3-.3h4.8l13.7-.1,50.4-.1h54.2a21.75,21.75,0,0,0,2.5-.1,6.15,6.15,0,0,0,2.3-.7,6.51,6.51,0,0,0,3-3.7,10.07,10.07,0,0,0,.3-2.5c0-.9.1-1.7.1-2.6.1-1.7.1-3.5.2-5.2.6-14.1,1.2-28.8,1.9-44.2.4-7.7.7-15.5,1-23.4l.3-6,.1-3a9.47,9.47,0,0,0-.2-2.9,7.68,7.68,0,0,0-1.4-2.5,5.65,5.65,0,0,0-2.4-1.6,7,7,0,0,0-2.9-.4H178a6,6,0,0,0-3.1,1.2,7.55,7.55,0,0,0-2.1,2.6,8,8,0,0,0-.5,2.1,18.48,18.48,0,0,0,.1,2.3c.1,3,.2,6,.4,8.9.2,5.8.5,11.4.7,16.7.8,21.3,1.5,38.5,2,50.4.1,3,.2,5.6.3,7.9a6.71,6.71,0,0,0,.6,2.8,6.58,6.58,0,0,0,1.7,2.3,7.67,7.67,0,0,0,3.1,1.6A4.47,4.47,0,0,0,182.31,334.32Z"/><path class="cls-1" d="M182.31,334.32h124.9a7,7,0,0,0,4.6-1.8,6.46,6.46,0,0,0,2-4.5l3.7-85.9a6.9,6.9,0,0,0-1.7-4.8,6.22,6.22,0,0,0-4.6-2.1H178.81a7,7,0,0,0-2.5.5,7.44,7.44,0,0,0-2.2,1.4,5.55,5.55,0,0,0-1.4,2.2,7.42,7.42,0,0,0-.5,2.5v.3l3.5,85.9a6.49,6.49,0,0,0,6.6,6.3Z"/><path class="cls-11" d="M238,286.22a7,7,0,0,0,1.1,3.8,6.42,6.42,0,0,0,3.1,2.5,6.75,6.75,0,0,0,4,.4,7,7,0,0,0,5.4-5.4,7,7,0,0,0-2.9-7.1,6.36,6.36,0,0,0-3.8-1.2h0a7.51,7.51,0,0,0-2.6.5,5.41,5.41,0,0,0-2.2,1.5,8.55,8.55,0,0,0-1.5,2.2,7.44,7.44,0,0,0-.6,2.8Z"/></g><g id="лицо"><path class="cls-16" d="M244.31,90.52c-.4.5-3-1.4-6.7-1.2s-6.2,2.1-6.6,1.7c-.2-.2.2-1,1.3-1.9a9.25,9.25,0,0,1,5.3-1.9,8.24,8.24,0,0,1,5.3,1.5C244.11,89.52,244.51,90.32,244.31,90.52Z"/><path class="cls-16" d="M241.61,101a3.23,3.23,0,0,1-.8,2.1,2.52,2.52,0,0,1-2,.9,2.49,2.49,0,0,1-2-.7,3,3,0,0,1-1-1.9v-.1a2.79,2.79,0,0,1,.8-2,2.52,2.52,0,0,1,2-.9,2.49,2.49,0,0,1,2,.7,2.56,2.56,0,0,1,1,1.9Z"/><path class="cls-16" d="M255.21,115c0-.2,2.1-.5,5.4-1,.9-.1,1.7-.3,1.8-.8a5.56,5.56,0,0,0-.6-2.5l-2.5-6.5c-3.5-9.3-6-16.9-5.6-17s3.5,7.3,7,16.5l2.4,6.5c.3,1,.9,2.1.4,3.3a1.56,1.56,0,0,1-.6.8,2.18,2.18,0,0,1-.8.5,7.84,7.84,0,0,1-1.4.2C257.31,115.22,255.21,115.22,255.21,115Z"/><path class="cls-16" d="M277.41,89.52c-.4.5-3-1.4-6.7-1.2s-6.2,2.1-6.6,1.7c-.2-.2.2-1,1.3-1.9a9.25,9.25,0,0,1,5.3-1.9,8.88,8.88,0,0,1,5.3,1.5C277.21,88.52,277.61,89.32,277.41,89.52Z"/><path class="cls-16" d="M272.41,100.32a3.23,3.23,0,0,1-.8,2.1,2.66,2.66,0,0,1-2,.9,4.1,4.1,0,0,1-1.1-.1,3.13,3.13,0,0,1-1-.5,2.18,2.18,0,0,1-.7-.9,2,2,0,0,1-.3-1.1v-.1a3.23,3.23,0,0,1,.8-2.1,2.66,2.66,0,0,1,2-.9,2.49,2.49,0,0,1,2,.7,2.72,2.72,0,0,1,1.1,2Z"/></g><g id="ухо"><path class="cls-12" d="M211.41,94.12c-.4-.2-14.9-4.4-14.5,10.4s15.3,11.3,15.3,10.9S211.41,94.12,211.41,94.12Z"/><path class="cls-17" d="M206.71,109.92a7.76,7.76,0,0,0-.7.4,2.51,2.51,0,0,1-1.9.1c-1.6-.5-3-3-3.1-5.7a7.81,7.81,0,0,1,.6-3.7,3.11,3.11,0,0,1,1.9-2.1,1,1,0,0,1,.9.1,1.34,1.34,0,0,1,.7.6c.2.4.1.7.2.7s.3-.3.2-.9a1.46,1.46,0,0,0-.6-.9,1.74,1.74,0,0,0-1.4-.3,3.65,3.65,0,0,0-2.6,2.4,8.54,8.54,0,0,0-.8,4.2c.2,3,1.8,5.7,4,6.3a2.44,2.44,0,0,0,1.2,0,3.7,3.7,0,0,0,1.1-.5C206.71,110.22,206.81,109.92,206.71,109.92Z"/></g><g id="борода"><path class="cls-13" d="M282.71,120.52c1.9-.2,3.7,2.1,3.8,4.1s-.7,3.8-.8,5.8c-.2,4.1-1,6.68.29,10.58,1.7,4.9,1.8,9.6-1,14-2.5,4-7.89,6.82-12.19,4.82a7.9,7.9,0,0,0,2.8,4.9c-1.8,1.3-4.4.8-6.3-.4s-12.6,1.2-14.8,1.2c-15.1-.2-25.4-5.4-31.4-21.6-2-5.5-3-10.5-5-16a108.26,108.26,0,0,1-4.2-17c-.3-1.8-.4-4.1,1.2-4.9s3.6,1,4.1,2.8S221.3,113.3,222,115c1.4,3.7,5.41,3,9.31,2.22a51.11,51.11,0,0,1,10.3-.8c8.5-.3,13.8,1.8,23,3,3.2.4,7.2-.7,10.2-1.6s7.2.1,7.9,3.2"/><path class="cls-14" d="M282.71,120.52a3.28,3.28,0,0,1,2.74,1.42,4.77,4.77,0,0,1,1.09,3,15.43,15.43,0,0,1-.45,3.18,17.06,17.06,0,0,0-.38,3.19,45.87,45.87,0,0,0-.31,6.41,13.84,13.84,0,0,0,.64,3.12,28,28,0,0,1,.88,3.1,15.53,15.53,0,0,1,.12,6.44,14.1,14.1,0,0,1-2.73,5.83,12.19,12.19,0,0,1-5.19,3.8,8.21,8.21,0,0,1-6.38,0l.22-.16a7.79,7.79,0,0,0,2.75,4.8l.17.13-.18.13a4.52,4.52,0,0,1-2.73.79,7.12,7.12,0,0,1-2.77-.65l-.64-.32a2.64,2.64,0,0,0-.6-.31,4.28,4.28,0,0,0-1.31-.19,19.76,19.76,0,0,0-2.77.13c-1.85.18-3.69.46-5.53.75l-2.76.43a12,12,0,0,1-2.81.2,44.27,44.27,0,0,1-11.1-1.52,26,26,0,0,1-9.93-5.14,30.22,30.22,0,0,1-7-8.73,53.68,53.68,0,0,1-4.22-10.38c-1.08-3.57-2-7.19-3.2-10.7a80.21,80.21,0,0,1-3.11-10.76q-.6-2.73-1.12-5.48c-.3-1.81-.89-3.7-.32-5.62a2.38,2.38,0,0,1,2.25-1.72,3.41,3.41,0,0,1,2.48,1.43,5.05,5.05,0,0,1,.73,1.25c.17.47.27.9.45,1.33.33.86.75,1.69,1.16,2.52s.84,1.66,1.22,2.53a4.67,4.67,0,0,0,1.53,2.18c1.51,1,3.5.87,5.29.62s3.65-.75,5.52-.92,3.73-.24,5.6-.27,3.73-.1,5.59,0a54.52,54.52,0,0,1,5.57.62c3.69.6,7.31,1.46,11,2,.92.15,1.84.29,2.76.4a14.35,14.35,0,0,0,2.78,0,32.79,32.79,0,0,0,5.46-1.09,25.05,25.05,0,0,1,2.71-.7,8.16,8.16,0,0,1,2.79.08,6.15,6.15,0,0,1,2.56,1.09,4.09,4.09,0,0,1,1.5,2.29,4.09,4.09,0,0,0-1.52-2.27,6.26,6.26,0,0,0-2.55-1.07,8.31,8.31,0,0,0-2.77-.05c-.91.14-1.79.48-2.69.71a33,33,0,0,1-5.48,1.15,14.56,14.56,0,0,1-2.8,0c-.93-.1-1.85-.23-2.78-.37-3.69-.55-7.33-1.36-11-2a51.81,51.81,0,0,0-5.54-.6c-1.86-.11-3.71,0-5.58,0s-3.72.07-5.57.28-3.64.66-5.5.94a13.24,13.24,0,0,1-2.82.17,5.24,5.24,0,0,1-2.72-.84,4.91,4.91,0,0,1-1.65-2.32c-.37-.84-.8-1.66-1.22-2.5s-.83-1.67-1.18-2.55c-.18-.43-.3-.92-.45-1.32a4.77,4.77,0,0,0-.68-1.15A3.09,3.09,0,0,0,216,106a2,2,0,0,0-1.87,1.46c-.52,1.74,0,3.61.35,5.42s.72,3.66,1.13,5.47a78,78,0,0,0,3.13,10.7c1.22,3.53,2.15,7.15,3.24,10.71a55.08,55.08,0,0,0,4.18,10.29,29.62,29.62,0,0,0,6.87,8.61,25.73,25.73,0,0,0,9.76,5.09,43.74,43.74,0,0,0,11,1.53,12.08,12.08,0,0,0,2.75-.18l2.77-.43c1.84-.28,3.68-.56,5.55-.74a21.86,21.86,0,0,1,2.81-.12,4.48,4.48,0,0,1,1.43.22,3.2,3.2,0,0,1,.64.33c.2.1.4.21.61.3a5.23,5.23,0,0,0,5.17-.09v.26a8.11,8.11,0,0,1-2.86-5l0-.29.26.12a8,8,0,0,0,6.15,0,12.13,12.13,0,0,0,5.08-3.7,13.8,13.8,0,0,0,2.69-5.71,15.56,15.56,0,0,0-.07-6.34,27.71,27.71,0,0,0-.85-3.09,13.81,13.81,0,0,1-.63-3.17,44.48,44.48,0,0,1,.36-6.43,17.1,17.1,0,0,1,.42-3.19,15.56,15.56,0,0,0,.47-3.17,4.85,4.85,0,0,0-1.06-3A3.26,3.26,0,0,0,282.71,120.52Z"/><path class="cls-11" d="M261.71,128.42a3.44,3.44,0,0,1-2.2.5,8.84,8.84,0,0,1-5.2-1.8,8.28,8.28,0,0,1-3-4.6c-.4-1.4-.2-2.3-.1-2.3a16.82,16.82,0,0,1,.8,2,8.52,8.52,0,0,0,3,4,9.42,9.42,0,0,0,4.6,1.9C260.81,128.32,261.71,128.22,261.71,128.42Z"/><path class="cls-14" d="M231.91,135.42a32.64,32.64,0,0,1-2.3-6.2c-.8-3.6-.5-6.6-.7-6.6a5.52,5.52,0,0,0-.3,2,16.24,16.24,0,0,0,.4,4.7,17.69,17.69,0,0,0,1.7,4.5A10.19,10.19,0,0,0,231.91,135.42Z"/><path class="cls-14" d="M246.61,158.12c.1-.1-1.5-1.6-3.5-4.3a41.3,41.3,0,0,1-3.3-5.1,37.53,37.53,0,0,1-2.9-6.7,56.92,56.92,0,0,1-1.7-7.2,46.23,46.23,0,0,1-.4-6c0-3.4.4-5.5.3-5.5s-.1.5-.3,1.5c-.1.5-.1,1.1-.2,1.8a17,17,0,0,0-.1,2.3,33.48,33.48,0,0,0,.3,6.1,43.9,43.9,0,0,0,1.6,7.3,38.7,38.7,0,0,0,3,6.8,41.3,41.3,0,0,0,3.3,5.1c.5.7,1.1,1.3,1.5,1.8a15.38,15.38,0,0,0,1.2,1.3C246.21,157.82,246.61,158.12,246.61,158.12Z"/><path class="cls-14" d="M245.11,152.12a18,18,0,0,0-1.3-3.5,17.94,17.94,0,0,0-1.4-3.4,9,9,0,0,0,.9,3.6C244,150.82,244.91,152.22,245.11,152.12Z"/><path class="cls-14" d="M251.21,155.12c.1-.1-1.3-2.6-2.5-5.9s-1.8-6.2-2-6.2a20.48,20.48,0,0,0,1.5,6.4C249.41,152.72,251,155.22,251.21,155.12Z"/><path class="cls-14" d="M261.61,145c.1-.1-.8-1.1-1.6-2.5s-1.5-2.5-1.6-2.5a5.33,5.33,0,0,0,1.2,2.8A5.17,5.17,0,0,0,261.61,145Z"/><path class="cls-14" d="M279.61,150.12c.1,0,.1-.8-.3-2.1a12.62,12.62,0,0,0-2.4-4.3,12,12,0,0,0-3.9-3,4.3,4.3,0,0,0-2-.6,11.78,11.78,0,0,0,1.8,1,13.54,13.54,0,0,1,3.7,3,13.91,13.91,0,0,1,2.4,4.1C279.41,149.42,279.51,150.12,279.61,150.12Z"/><path class="cls-14" d="M284.11,143.72a7.27,7.27,0,0,0-2.5-2.8,7.55,7.55,0,0,0-3.3-1.7,27.8,27.8,0,0,0,3,2.1C282.81,142.72,284,143.92,284.11,143.72Z"/><path class="cls-14" d="M273.61,151a6.62,6.62,0,0,0-.4-2.5,15.49,15.49,0,0,0-2.9-5.5,16.13,16.13,0,0,0-4.7-4c-1.4-.8-2.3-1.1-2.4-1s.8.5,2.2,1.3a19.58,19.58,0,0,1,4.5,4,17.1,17.1,0,0,1,3,5.3C273.41,150.12,273.61,151,273.61,151Z"/><path class="cls-14" d="M275.61,131.12c0,.1.6.1,1.5-.1a5.85,5.85,0,0,0,2.8-2.3,5.15,5.15,0,0,0,.5-3.5,2.77,2.77,0,0,0-.6-1.3c-.1.1.1.6.3,1.4a5.3,5.3,0,0,1-.6,3.3,6.53,6.53,0,0,1-2.4,2.3C276.21,130.92,275.61,131,275.61,131.12Z"/><path class="cls-14" d="M272.91,130.32c0,.1.4.2,1.3.1a5.16,5.16,0,0,0,2.7-1.3,4.56,4.56,0,0,0,1.1-2.8c0-.8-.1-1.3-.2-1.2s0,.5-.1,1.2a4.42,4.42,0,0,1-1.2,2.5,4.2,4.2,0,0,1-2.3,1.3C273.41,130.22,272.91,130.22,272.91,130.32Z"/><path class="cls-14" d="M267.91,127.92c0,.1.4.3,1.1.5a4.39,4.39,0,0,0,2.8,0,3.51,3.51,0,0,0,2.1-1.8,1.38,1.38,0,0,0,.1-1.1c-.1,0-.1.4-.4,1a3.67,3.67,0,0,1-1.9,1.5,5.41,5.41,0,0,1-2.5.1C268.41,128,268,127.92,267.91,127.92Z"/></g><g id="экран_2" data-name="экран 2"><path class="cls-10" d="M338.41,172.92v103l-16,13.4h83.7V172.92Z"/><path class="cls-6" d="M405.51,183.42c0,.1-14.9.2-33.2.2s-33.2-.1-33.2-.2,14.9-.2,33.2-.2S405.51,183.32,405.51,183.42Z"/><path class="cls-8" d="M346.36,178.38a2.88,2.88,0,0,1-.25,1,3.35,3.35,0,0,1-.77.64,2.73,2.73,0,0,1-1,.13,2.11,2.11,0,0,1-.89-.51,2.06,2.06,0,0,1-.51-.89,1.44,1.44,0,0,1,.13-1,1.29,1.29,0,0,1,.63-.76,1.38,1.38,0,0,1,1-.26,1.63,1.63,0,0,1,1.27.51,3.06,3.06,0,0,1,.38,1.15Z"/><path class="cls-6" d="M352.62,178.38a2.9,2.9,0,0,1-.26,1,3.31,3.31,0,0,1-.76.64,2.78,2.78,0,0,1-1,.13,2.15,2.15,0,0,1-.9-.51,2.17,2.17,0,0,1-.51-.89,1.44,1.44,0,0,1,.13-1,1.3,1.3,0,0,1,.64-.76,1.35,1.35,0,0,1,1-.26h0a1.67,1.67,0,0,1,1.28.51,1.83,1.83,0,0,1,.38,1.15Z"/><path class="cls-6" d="M359,178.38a2.9,2.9,0,0,1-.26,1,1.83,1.83,0,0,1-.76.64,2.46,2.46,0,0,1-1,.13,2.21,2.21,0,0,1-.9-.51,2.17,2.17,0,0,1-.51-.89,1.49,1.49,0,0,1,.13-1,1.3,1.3,0,0,1,.64-.76,1.36,1.36,0,0,1,1-.26.94.94,0,0,1,.64.13,2.1,2.1,0,0,1,.51.38c.13.13.25.39.38.51a1.4,1.4,0,0,1,.13.64Z"/><rect class="cls-7" x="344.52" y="190.37" width="4.45" height="1.63"/><rect class="cls-7" x="352.22" y="190.37" width="22.78" height="1.63"/><rect class="cls-8" x="377.84" y="190.37" width="8.45" height="1.63"/><rect class="cls-7" x="394.37" y="222.12" width="6.63" height="1.63"/><rect class="cls-9" x="388.14" y="190.37" width="9.86" height="1.63"/><rect class="cls-7" x="348.97" y="194.72" width="4.45" height="1.63"/><rect class="cls-9" x="356.56" y="194.72" width="17.44" height="1.63"/><rect class="cls-9" x="379.69" y="222.12" width="12.67" height="1.63"/><rect class="cls-9" x="352.22" y="217.77" width="32.01" height="1.63"/><rect class="cls-8" x="356.56" y="206.07" width="22.45" height="1.63"/><rect class="cls-9" x="390.5" y="210.42" width="10.5" height="1.63"/><rect class="cls-8" x="352.22" y="222.12" width="24.78" height="1.63"/><rect class="cls-7" x="377.17" y="194.72" width="8.83" height="1.63"/><rect class="cls-7" x="348.97" y="206.07" width="4.45" height="1.63"/><rect class="cls-9" x="344.52" y="210.42" width="4.45" height="1.63"/><rect class="cls-7" x="352.22" y="210.42" width="26.31" height="1.63"/><rect class="cls-7" x="356.56" y="228.47" width="26.31" height="1.63"/><rect class="cls-8" x="385" y="228.47" width="16" height="1.63"/><rect class="cls-9" x="356.56" y="232.83" width="7.62" height="1.63"/><rect class="cls-8" x="381.2" y="210.42" width="6.8" height="1.63"/><rect class="cls-7" x="344.52" y="217.77" width="4.45" height="1.63"/><rect class="cls-7" x="344.52" y="222.12" width="4.45" height="1.63"/><rect class="cls-9" x="348.97" y="228.47" width="4.45" height="1.63"/><rect class="cls-7" x="348.97" y="232.83" width="4.45" height="1.63"/><rect class="cls-7" x="344.52" y="236.47" width="4.45" height="1.63"/><rect class="cls-7" x="348.97" y="242.82" width="4.45" height="1.63"/><rect class="cls-9" x="352.22" y="257.88" width="32.01" height="1.63"/><rect class="cls-8" x="356.56" y="247.17" width="22.45" height="1.63"/><rect class="cls-8" x="352.22" y="262.23" width="42.51" height="1.63"/><rect class="cls-7" x="348.97" y="247.17" width="4.45" height="1.63"/><rect class="cls-9" x="344.52" y="253.52" width="4.45" height="1.63"/><rect class="cls-7" x="352.22" y="253.52" width="26.31" height="1.63"/><rect class="cls-7" x="344.52" y="257.88" width="4.45" height="1.63"/></g><g id="обо_мне" data-name="обо мне"><polygon class="cls-10" points="15 17.55 15 135.5 152.03 135.5 161.5 152.5 169.51 135.5 181 135.5 181 17.55 15 17.55"/><path class="cls-8" d="M28.2,23.93a1.82,1.82,0,1,1-1.82-1.81A1.82,1.82,0,0,1,28.2,23.93Z"/><path class="cls-6" d="M35.6,23.93a1.82,1.82,0,1,1-1.81-1.81A1.81,1.81,0,0,1,35.6,23.93Z"/><path class="cls-6" d="M43,23.93a1.82,1.82,0,1,1-1.81-1.81A1.81,1.81,0,0,1,43,23.93Z"/><path class="cls-11" d="M35.62,70.26h.65a.46.46,0,0,0,.38-.17.7.7,0,0,0,.13-.46v-6.8h1v6.79a1.7,1.7,0,0,1-.36,1.16,1.3,1.3,0,0,1-1,.41h-.77Zm1.16-9.81h1v1h-1Z"/><path class="cls-11" d="M40.53,68.56a2,2,0,0,1-.84-.89,3.12,3.12,0,0,1-.29-1.4v-1a3.09,3.09,0,0,1,.29-1.38,2,2,0,0,1,.84-.88,3.1,3.1,0,0,1,2.66,0,2.1,2.1,0,0,1,.84.88,3.09,3.09,0,0,1,.29,1.38v1A3.1,3.1,0,0,1,44,67.68a2.1,2.1,0,0,1-.84.88,3.1,3.1,0,0,1-2.66,0Zm2.41-1.06a1.79,1.79,0,0,0,.38-1.21v-1a1.73,1.73,0,0,0-.38-1.19,1.38,1.38,0,0,0-1.09-.43,1.34,1.34,0,0,0-1.07.43,1.73,1.73,0,0,0-.38,1.19v1a1.79,1.79,0,0,0,.38,1.21,1.36,1.36,0,0,0,1.07.42A1.41,1.41,0,0,0,42.94,67.5Z"/><path class="cls-11" d="M46,60.45h1v8.33H46Zm1.58,8.16a1.48,1.48,0,0,1-.66-.77L47,66.6a1.6,1.6,0,0,0,.16.7,1.33,1.33,0,0,0,.47.5,1.37,1.37,0,0,0,.72.18,1.31,1.31,0,0,0,1-.4,1.6,1.6,0,0,0,.36-1.12V65.17A1.66,1.66,0,0,0,49.36,64a1.31,1.31,0,0,0-1-.4,1.37,1.37,0,0,0-.72.17,1.23,1.23,0,0,0-.47.49A1.59,1.59,0,0,0,47,65l-.12-1.15a1.92,1.92,0,0,1,.77-.82,2.16,2.16,0,0,1,1.08-.27A2,2,0,0,1,49.8,63a1.73,1.73,0,0,1,.68.82,3.28,3.28,0,0,1,.24,1.32v1.29a3.18,3.18,0,0,1-.24,1.3,1.79,1.79,0,0,1-.71.82,2.08,2.08,0,0,1-1.11.28A2.21,2.21,0,0,1,47.56,68.61Z"/><path class="cls-11" d="M52.07,62.83h1v1h-1Zm0,5h1v1h-1Z"/><path class="cls-11" d="M36.42,81.35h1v6h-1Zm3.8,2.35a1.53,1.53,0,0,0-.38-1.1,1.35,1.35,0,0,0-1-.39,1.41,1.41,0,0,0-1,.34,1.3,1.3,0,0,0-.36,1l-.12-1.15a2.12,2.12,0,0,1,.78-.84,2.24,2.24,0,0,1,1.1-.27,1.84,1.84,0,0,1,1.5.63,2.69,2.69,0,0,1,.53,1.79V87.3h-1Z"/><path class="cls-11" d="M43.08,81.36h1V87.3h-1Zm0-2.39h1v1h-1Z"/><path class="cls-11" d="M46.94,87.1a1.93,1.93,0,0,1-.87-.87,3.08,3.08,0,0,1-.29-1.42v-1a3.09,3.09,0,0,1,.29-1.4,2,2,0,0,1,.87-.87,3.21,3.21,0,0,1,1.42-.29,3.53,3.53,0,0,1,.88.11,2.53,2.53,0,0,1,.73.32,2.26,2.26,0,0,1,.55.52l-.73.65a1.84,1.84,0,0,0-1.42-.66,1.62,1.62,0,0,0-1.19.41,1.65,1.65,0,0,0-.4,1.21v1A1.68,1.68,0,0,0,47.18,86a1.58,1.58,0,0,0,1.19.42,1.77,1.77,0,0,0,.8-.17,1.84,1.84,0,0,0,.66-.49l.68.67A1.78,1.78,0,0,1,50,87a2.36,2.36,0,0,1-.72.32,3.57,3.57,0,0,1-.89.1A3.13,3.13,0,0,1,46.94,87.1Z"/><path class="cls-11" d="M51.81,79h1v8.33h-1Zm.55,6.18,3.22-3.8h1.18l-4.52,5.08ZM53.89,84l.62-.77,2.54,4.1H55.91Z"/><path class="cls-11" d="M58.15,79h.94l4.47,7-.24,0V79h1v8.33h-1l-4.5-7,.29.09V87.3h-1Z"/><path class="cls-11" d="M66.54,86.93A1.71,1.71,0,0,1,66,85.56a1.66,1.66,0,0,1,.51-1.31,2.17,2.17,0,0,1,1.5-.46h1.84l.08.86H68a1.2,1.2,0,0,0-.79.23.84.84,0,0,0-.27.68.83.83,0,0,0,.35.73,1.77,1.77,0,0,0,1,.24,3.12,3.12,0,0,0,1.1-.15c.25-.09.38-.24.38-.44l.12.81a1.48,1.48,0,0,1-.42.36,2,2,0,0,1-.58.22,3.29,3.29,0,0,1-.73.07A2.49,2.49,0,0,1,66.54,86.93Zm3.24-3.39a1.41,1.41,0,0,0-.35-1,1.35,1.35,0,0,0-1-.36,2.46,2.46,0,0,0-.76.12,2.14,2.14,0,0,0-.67.35l-.73-.5a2.41,2.41,0,0,1,.9-.64,3.24,3.24,0,0,1,1.23-.22,2.9,2.9,0,0,1,1.27.26,1.78,1.78,0,0,1,.8.76,2.35,2.35,0,0,1,.28,1.19v3.82h-1Z"/><path class="cls-11" d="M72.53,81.37h1v5.94h-1Zm3.65,2.34a1.61,1.61,0,0,0-.35-1.1,1.21,1.21,0,0,0-1-.39,1.32,1.32,0,0,0-1,.35,1.29,1.29,0,0,0-.35,1l-.12-1.15a2,2,0,0,1,.75-.84,2.13,2.13,0,0,1,2.11,0,1.82,1.82,0,0,1,.68.83,3.47,3.47,0,0,1,.23,1.32v3.61h-1Zm3.64,0a1.56,1.56,0,0,0-.35-1.1,1.44,1.44,0,0,0-2,0,1.57,1.57,0,0,0-.33,1.07l-.3-1a2.46,2.46,0,0,1,.77-1,1.86,1.86,0,0,1,1.13-.36,2,2,0,0,1,1.1.29,1.77,1.77,0,0,1,.7.82,3.28,3.28,0,0,1,.24,1.32v3.61h-1Z"/><path class="cls-11" d="M83.63,87.09a2.06,2.06,0,0,1-.89-.91,3.06,3.06,0,0,1-.31-1.44v-.67a3.48,3.48,0,0,1,.3-1.51,2.09,2.09,0,0,1,.86-1,2.6,2.6,0,0,1,1.35-.33,2.29,2.29,0,0,1,1.28.35,2.15,2.15,0,0,1,.8,1,4,4,0,0,1,.28,1.58v.54H83.14v-.84h3.22v0A2,2,0,0,0,86,82.64a1.26,1.26,0,0,0-1-.44,1.43,1.43,0,0,0-1.16.47A2,2,0,0,0,83.37,84v.75A1.71,1.71,0,0,0,83.81,86a1.63,1.63,0,0,0,1.23.44,2.07,2.07,0,0,0,.77-.15,2.19,2.19,0,0,0,.67-.45l.67.66a3.09,3.09,0,0,1-1,.65A2.77,2.77,0,0,1,85,87.4,2.94,2.94,0,0,1,83.63,87.09Z"/><path class="cls-11" d="M88.59,86.32h1v1h-1Zm0-4.95h1v1h-1Z"/><path class="cls-11" d="M36.69,106a1.69,1.69,0,0,1-.56-1.37,1.63,1.63,0,0,1,.52-1.31,2.19,2.19,0,0,1,1.49-.45H40l.08.85H38.15a1.2,1.2,0,0,0-.79.23,1,1,0,0,0,.08,1.41,1.77,1.77,0,0,0,1,.24,3.12,3.12,0,0,0,1.1-.14c.25-.1.38-.25.38-.45l.12.81a1.48,1.48,0,0,1-.42.36,2,2,0,0,1-.58.22,3.26,3.26,0,0,1-.72.07A2.52,2.52,0,0,1,36.69,106Zm3.24-3.39a1.41,1.41,0,0,0-.35-1,1.32,1.32,0,0,0-1-.36,2.53,2.53,0,0,0-.77.12,2.08,2.08,0,0,0-.66.35l-.73-.5a2.18,2.18,0,0,1,.89-.63,3.25,3.25,0,0,1,1.23-.23,2.9,2.9,0,0,1,1.27.26,1.84,1.84,0,0,1,.8.76,2.35,2.35,0,0,1,.28,1.19v3.82h-1Z"/><path class="cls-11" d="M43.46,106.19a1.79,1.79,0,0,1-.71-.82,3.21,3.21,0,0,1-.24-1.3v-1.3a3.23,3.23,0,0,1,.24-1.31,1.71,1.71,0,0,1,.68-.83,2,2,0,0,1,1.08-.29,2.18,2.18,0,0,1,1.09.27,1.84,1.84,0,0,1,.76.8l-.12,1.18a1.41,1.41,0,0,0-.16-.69,1.09,1.09,0,0,0-.46-.49,1.37,1.37,0,0,0-.72-.18,1.31,1.31,0,0,0-1,.4,1.7,1.7,0,0,0-.36,1.15v1.29a1.65,1.65,0,0,0,.36,1.13,1.34,1.34,0,0,0,1,.39,1.37,1.37,0,0,0,.72-.18,1.23,1.23,0,0,0,.46-.5,1.51,1.51,0,0,0,.16-.71l.08,1.25a1.54,1.54,0,0,1-.64.76,2.12,2.12,0,0,1-1.11.27A2.08,2.08,0,0,1,43.46,106.19Zm0,2.36a1.94,1.94,0,0,1-.82-.7l.68-.61a1.65,1.65,0,0,0,.6.52,1.51,1.51,0,0,0,2.31-1.41v-5.91h1v5.77a3,3,0,0,1-.3,1.4,2,2,0,0,1-.87.89,3,3,0,0,1-1.39.3A2.79,2.79,0,0,1,43.47,108.55Z"/><path class="cls-11" d="M50.05,106.16a2.06,2.06,0,0,1-.89-.91,3.06,3.06,0,0,1-.31-1.44v-.67a3.44,3.44,0,0,1,.3-1.51,2,2,0,0,1,.86-.95,2.6,2.6,0,0,1,1.35-.33,2.31,2.31,0,0,1,1.28.35,2.12,2.12,0,0,1,.8,1,4,4,0,0,1,.28,1.59v.53H49.56V103h3.22v0a2,2,0,0,0-.39-1.25,1.26,1.26,0,0,0-1-.45,1.46,1.46,0,0,0-1.16.47,2,2,0,0,0-.41,1.34v.76a1.72,1.72,0,0,0,.44,1.26,1.67,1.67,0,0,0,1.23.44,1.9,1.9,0,0,0,.77-.16,2,2,0,0,0,.67-.44l.67.65a3.3,3.3,0,0,1-1,.66,3.11,3.11,0,0,1-2.53-.08Z"/><path class="cls-11" d="M55,100.44h1v1H55Zm0,5h1v1H55Z"/><path class="cls-18" d="M26.06,44.16a1.8,1.8,0,0,1,1.33-.45,2,2,0,0,1,.85.18,2.07,2.07,0,0,1,.68.55l.62-.54a2,2,0,0,0-.56-.53,2.3,2.3,0,0,0-.71-.32,3.56,3.56,0,0,0-.89-.11,3.21,3.21,0,0,0-1.44.29,1.91,1.91,0,0,0-.86.85,3.15,3.15,0,0,0-.28,1.42v1a3.21,3.21,0,0,0,.28,1.44,1.89,1.89,0,0,0,.86.86,3.21,3.21,0,0,0,1.44.28,3.57,3.57,0,0,0,.89-.1,2.28,2.28,0,0,0,.71-.31,2.13,2.13,0,0,0,.56-.52L29,47.6a1.9,1.9,0,0,1-.72.52,2.11,2.11,0,0,1-.89.18,1.72,1.72,0,0,1-1.32-.46,1.84,1.84,0,0,1-.45-1.36v-1A1.83,1.83,0,0,1,26.06,44.16Z"/><path class="cls-18" d="M34.44,43.25a3,3,0,0,0-2.65,0,2,2,0,0,0-.84.87,3,3,0,0,0-.29,1.39v1A3.06,3.06,0,0,0,31,47.88a2,2,0,0,0,.84.88,3.08,3.08,0,0,0,2.65,0,2,2,0,0,0,.84-.88,3,3,0,0,0,.29-1.39v-1a3,3,0,0,0-.29-1.39A2,2,0,0,0,34.44,43.25Zm.31,3.24a1.93,1.93,0,0,1-.43,1.33,1.55,1.55,0,0,1-1.21.48,1.51,1.51,0,0,1-1.2-.48,1.93,1.93,0,0,1-.43-1.33v-1a2,2,0,0,1,.43-1.33,1.54,1.54,0,0,1,1.2-.47,1.57,1.57,0,0,1,1.21.47,2,2,0,0,1,.43,1.33Z"/><path class="cls-18" d="M40,42.94a2.7,2.7,0,0,0-1.21.26,1.88,1.88,0,0,0-.72.68V43h-.83V49h.83V45.2a1.44,1.44,0,0,1,.4-1.1,1.83,1.83,0,0,1,2.32,0,1.69,1.69,0,0,1,.41,1.22V49H42V45.37a2.73,2.73,0,0,0-.53-1.79A1.86,1.86,0,0,0,40,42.94Z"/><path class="cls-18" d="M47.38,45.74a5,5,0,0,0-1.06-.15h-.17a8.09,8.09,0,0,1-.94-.09,1.14,1.14,0,0,1-.56-.23.63.63,0,0,1-.23-.53.9.9,0,0,1,.42-.79A2,2,0,0,1,46,43.65a3,3,0,0,1,.86.13,3.89,3.89,0,0,1,.89.39l.47-.57a2.9,2.9,0,0,0-.65-.35,3.83,3.83,0,0,0-.75-.23,4.13,4.13,0,0,0-.78-.08,3.28,3.28,0,0,0-1.29.22,1.73,1.73,0,0,0-.82.61,1.63,1.63,0,0,0-.28,1,1.35,1.35,0,0,0,.27.91,1.25,1.25,0,0,0,.66.43,5.52,5.52,0,0,0,1,.18h.33c.41,0,.73.07,1,.11a1.26,1.26,0,0,1,.57.27.72.72,0,0,1,.23.58.94.94,0,0,1-.47.83,2.57,2.57,0,0,1-1.33.29,3.06,3.06,0,0,1-1-.18,4.17,4.17,0,0,1-1-.51l-.48.58a3.08,3.08,0,0,0,.7.44,3.69,3.69,0,0,0,.85.28,4.73,4.73,0,0,0,.93.09,4.11,4.11,0,0,0,1.39-.21,1.84,1.84,0,0,0,.87-.62,1.62,1.62,0,0,0,.3-1,1.51,1.51,0,0,0-.3-1A1.41,1.41,0,0,0,47.38,45.74Z"/><path class="cls-18" d="M52.14,43.74V43H50.89V41.3h-.82V43h-.62v.71h.62v3.69a1.82,1.82,0,0,0,.33,1.18,1.34,1.34,0,0,0,1.06.4h.68v-.77h-.56a.61.61,0,0,1-.51-.21.87.87,0,0,1-.18-.59v-3.7Z"/><path class="cls-11" d="M63.11,43.23A2.08,2.08,0,0,0,62,42.94a1.91,1.91,0,0,0-1.23.4,2.36,2.36,0,0,0-.64.83s0-.08,0-.11a1.73,1.73,0,0,0-.66-.83,1.93,1.93,0,0,0-1.06-.29,2.24,2.24,0,0,0-1.12.27,1.73,1.73,0,0,0-.66.68V43h-.83V49h.83V45.21A1.53,1.53,0,0,1,57,44.1a1.43,1.43,0,0,1,1.08-.39,1.34,1.34,0,0,1,1.07.44,1.82,1.82,0,0,1,.37,1.22V49h.83V45.32h0a1.73,1.73,0,0,1,.38-1.19,1.37,1.37,0,0,1,1.08-.43,1.34,1.34,0,0,1,1.07.44,1.82,1.82,0,0,1,.38,1.22V49h.82V45.37a3.07,3.07,0,0,0-.24-1.31A1.75,1.75,0,0,0,63.11,43.23Z"/><path class="cls-11" d="M67.74,48.27,65.88,43H65l2.35,6.35-.13.37a1.63,1.63,0,0,1-.46.72,1.2,1.2,0,0,1-.74.21h-.23v.78h.23a3.08,3.08,0,0,0,.81-.1,1.35,1.35,0,0,0,.55-.34,1.75,1.75,0,0,0,.36-.65L70.31,43h-.85Z"/><polygon class="cls-11" points="72.29 40.65 71.46 40.65 71.46 48.98 72.05 48.98 72.29 48.98 76.82 48.98 76.82 48.21 72.29 48.21 72.29 40.65"/><rect class="cls-11" x="78.26" y="43.03" width="0.83" height="5.95"/><rect class="cls-11" x="78.26" y="40.65" width="0.83" height="0.83"/><polygon class="cls-11" points="83.09 47.91 81.29 43.03 80.41 43.03 82.76 48.98 83.42 48.98 85.77 43.03 84.9 43.03 83.09 47.91"/><path class="cls-11" d="M91.51,46.37v-.69a3.52,3.52,0,0,0-.28-1.48,2.14,2.14,0,0,0-.81-.94,2.42,2.42,0,0,0-1.27-.32,2.66,2.66,0,0,0-1.36.33,2.21,2.21,0,0,0-.86.95,3.63,3.63,0,0,0-.29,1.51v.67a3.19,3.19,0,0,0,.3,1.44,2.14,2.14,0,0,0,.9.91,2.94,2.94,0,0,0,1.41.31,2.77,2.77,0,0,0,1.12-.23,3.16,3.16,0,0,0,1-.65l-.56-.54a2.16,2.16,0,0,1-.72.48,2,2,0,0,1-.82.18,1.85,1.85,0,0,1-1.36-.49,1.91,1.91,0,0,1-.48-1.39v-.05Zm-3.65-2.15a1.63,1.63,0,0,1,1.29-.51,1.45,1.45,0,0,1,1.17.49,2,2,0,0,1,.42,1.36v.06H87.41A2.11,2.11,0,0,1,87.86,44.22Z"/><path class="cls-11" d="M96.23,43.84h3.85v.77H96.23Zm0,1.87h3.85v.77H96.23Z"/><path class="cls-8" d="M103.64,44.71a1.05,1.05,0,0,0,.72-.23.83.83,0,0,0,.26-.65V41.49a2.17,2.17,0,0,1,.58-1.62,2.27,2.27,0,0,1,1.65-.57v.77a1.47,1.47,0,0,0-1,.34,1.23,1.23,0,0,0-.37,1v2.48a1.53,1.53,0,0,1-.47,1.21,1.91,1.91,0,0,1-1.33.43Zm1.56,5.95a2.15,2.15,0,0,1-.58-1.61V46.7a.83.83,0,0,0-.26-.65,1.05,1.05,0,0,0-.72-.23v-.77a1.83,1.83,0,0,1,1.33.45,1.64,1.64,0,0,1,.47,1.26v2.41a1.23,1.23,0,0,0,.37.95,1.47,1.47,0,0,0,1,.34v.77A2.27,2.27,0,0,1,105.2,50.66Z"/><path class="cls-8" d="M26.15,119.15a1.56,1.56,0,0,1-.47-1.21v-2.65a1.24,1.24,0,0,0-.37-1,1.48,1.48,0,0,0-1-.33v-.77a2.27,2.27,0,0,1,1.65.57,2.2,2.2,0,0,1,.58,1.62v2.51a.82.82,0,0,0,.25.65,1.08,1.08,0,0,0,.73.23v.77A1.91,1.91,0,0,1,26.15,119.15Zm-1.87,5.24a1.44,1.44,0,0,0,1-.34,1.2,1.2,0,0,0,.37-1v-2.58a1.64,1.64,0,0,1,.47-1.26,1.87,1.87,0,0,1,1.34-.45v.77a1,1,0,0,0-.73.23.81.81,0,0,0-.25.64V123a2.19,2.19,0,0,1-.58,1.61,2.27,2.27,0,0,1-1.65.57Z"/><polygon class="cls-6" points="18 31.01 38.13 30.89 58.25 30.84 98.5 30.76 138.75 30.84 158.88 30.89 179 31.01 158.88 31.13 138.75 31.18 98.5 31.26 58.25 31.17 38.13 31.13 18 31.01"/></g><g id="кружка"><path class="cls-19" d="M105.1,303.76s-17.88-8.24-17.88-19.28,23.19-18.14,23.19-26.77S100.3,244,100.3,244s16,5.46,16,16.37S101,278.68,99.52,285.62C97.49,295.27,105.1,303.76,105.1,303.76Z"/><path class="cls-19" d="M104.22,303.76s17.88-6.48,17.88-15.16-23.19-14.27-23.19-21.05S109,256.77,109,256.77s-16,4.29-16,12.88,17.55,14.48,18.81,21.45S104.22,303.76,104.22,303.76Z"/><path class="cls-15" d="M133.6,324.39a9.62,9.62,0,0,1-9.57,4.09,10.75,10.75,0,0,1-1.73-.49,12.14,12.14,0,0,1-2.4-1.27l2.16-3.2a7.93,7.93,0,0,0,1.27.72,5.65,5.65,0,0,0,7.12-2.08c2.33-3.28,3.17-10.76.81-13.64-.16-.21-.84-.55-3.58,0-.51.12-1.08.24-1.73.42a7,7,0,0,1-1.55.34l-.07-1.93-.19-1.92c.18,0,.45-.11.81-.21a24.67,24.67,0,0,1,3.87-.8c2-.21,4.13,0,5.42,1.62C138.08,310.77,136.52,320.28,133.6,324.39Z"/><rect class="cls-15" x="96.41" y="331.52" width="17.01" height="2.65"/><rect class="cls-20" x="96.41" y="331.52" width="17.01" height="1.75"/><path class="cls-20" d="M122.06,323.52a7.93,7.93,0,0,0,1.27.72l-1,3.75a12.14,12.14,0,0,1-2.4-1.27Z"/><path class="cls-20" d="M128.82,304.45l-1.14,4.1c-.51.12-1.08.24-1.73.42a7,7,0,0,1-1.55.34l-.07-1.93-.19-1.92c.18,0,.45-.11.81-.21A24.67,24.67,0,0,1,128.82,304.45Z"/><path class="cls-15" d="M82.29,299.44s2,17.33,5.57,24.63,8.44,8.1,11.49,8.1h11.12c3.06,0,8-.81,11.5-8.1s5.56-24.63,5.56-24.63Z"/><path class="cls-21" d="M84.71,313.83c.35,1.59.73,3.17,1.16,4.66H124c.43-1.49.81-3.07,1.17-4.66Z"/><path class="cls-21" d="M86.39,320.26c.26.82.53,1.61.82,2.33h35.4c.29-.72.56-1.51.82-2.33Z"/><path class="cls-21" d="M83.83,309.45c.14.76.29,1.54.45,2.33h41.26c.16-.79.31-1.57.45-2.33Z"/></g></svg>